0
SECTION
2
HEADER
9
$ACADVER
1
AC1006
9
$INSUNITS
70
6
0
ENDSEC
0
SECTION
2
ENTITIES
0
POLYLINE
8
0
62
255
66
1
10
0
20
0
30
0
70
8
0
VERTEX
8
0
62
255
10
-30.824499
20
-41.965442
30
0
70
32
0
VERTEX
8
0
62
255
10
-29.966449
20
-41.965442
30
0
70
32
0
VERTEX
8
0
62
255
10
-29.108398
20
-41.965442
30
0
70
32
0
VERTEX
8
0
62
255
10
-28.250348
20
-41.965442
30
0
70
32
0
VERTEX
8
0
62
255
10
-27.392297
20
-41.965442
30
0
70
32
0
VERTEX
8
0
62
255
10
-26.534247
20
-41.965442
30
0
70
32
0
VERTEX
8
0
62
255
10
-25.676196
20
-41.965442
30
0
70
32
0
VERTEX
8
0
62
255
10
-24.818146
20
-41.965442
30
0
70
32
0
VERTEX
8
0
62
255
10
-23.960095
20
-41.965442
30
0
70
32
0
VERTEX
8
0
62
255
10
-23.102045
20
-41.965442
30
0
70
32
0
VERTEX
8
0
62
255
10
-22.243995
20
-41.965442
30
0
70
32
0
VERTEX
8
0
62
255
10
-21.385944
20
-41.965442
30
0
70
32
0
VERTEX
8
0
62
255
10
-20.527894
20
-41.965442
30
0
70
32
0
VERTEX
8
0
62
255
10
-19.669843
20
-41.965442
30
0
70
32
0
VERTEX
8
0
62
255
10
-18.811793
20
-41.965442
30
0
70
32
0
VERTEX
8
0
62
255
10
-17.953742
20
-41.965442
30
0
70
32
0
VERTEX
8
0
62
255
10
-17.095692
20
-41.965442
30
0
70
32
0
VERTEX
8
0
62
255
10
-16.237641
20
-41.965442
30
0
70
32
0
VERTEX
8
0
62
255
10
-15.379591
20
-41.965442
30
0
70
32
0
VERTEX
8
0
62
255
10
-14.521541
20
-41.965442
30
0
70
32
0
VERTEX
8
0
62
255
10
-13.66349
20
-41.965442
30
0
70
32
0
VERTEX
8
0
62
255
10
-12.80544
20
-41.965442
30
0
70
32
0
VERTEX
8
0
62
255
10
-11.947389
20
-41.965442
30
0
70
32
0
VERTEX
8
0
62
255
10
-11.089339
20
-41.965442
30
0
70
32
0
VERTEX
8
0
62
255
10
-10.231288
20
-41.965442
30
0
70
32
0
VERTEX
8
0
62
255
10
-9.3732378
20
-41.965442
30
0
70
32
0
VERTEX
8
0
62
255
10
-8.5151874
20
-41.965442
30
0
70
32
0
VERTEX
8
0
62
255
10
-7.6571369
20
-41.965442
30
0
70
32
0
VERTEX
8
0
62
255
10
-6.7990865
20
-41.965442
30
0
70
32
0
VERTEX
8
0
62
255
10
-5.941036
20
-41.965442
30
0
70
32
0
VERTEX
8
0
62
255
10
-5.0829856
20
-41.965442
30
0
70
32
0
VERTEX
8
0
62
255
10
-4.2249351
20
-41.965442
30
0
70
32
0
VERTEX
8
0
62
255
10
-3.3668847
20
-41.965442
30
0
70
32
0
VERTEX
8
0
62
255
10
-2.5088342
20
-41.965442
30
0
70
32
0
VERTEX
8
0
62
255
10
-1.6507838
20
-41.965442
30
0
70
32
0
VERTEX
8
0
62
255
10
-0.79273333
20
-41.965442
30
0
70
32
0
VERTEX
8
0
62
255
10
0.065317123
20
-41.965442
30
0
70
32
0
VERTEX
8
0
62
255
10
0.92336757
20
-41.965442
30
0
70
32
0
VERTEX
8
0
62
255
10
1.781418
20
-41.965442
30
0
70
32
0
VERTEX
8
0
62
255
10
2.6394685
20
-41.965442
30
0
70
32
0
VERTEX
8
0
62
255
10
3.4975189
20
-41.965442
30
0
70
32
0
VERTEX
8
0
62
255
10
4.3555694
20
-41.965442
30
0
70
32
0
VERTEX
8
0
62
255
10
5.2136198
20
-41.965442
30
0
70
32
0
VERTEX
8
0
62
255
10
6.0716703
20
-41.965442
30
0
70
32
0
VERTEX
8
0
62
255
10
6.9297207
20
-41.965442
30
0
70
32
0
VERTEX
8
0
62
255
10
7.7877712
20
-41.965442
30
0
70
32
0
VERTEX
8
0
62
255
10
8.6458216
20
-41.965442
30
0
70
32
0
VERTEX
8
0
62
255
10
9.5038721
20
-41.965442
30
0
70
32
0
VERTEX
8
0
62
255
10
10.361923
20
-41.965442
30
0
70
32
0
VERTEX
8
0
62
255
10
11.219973
20
-41.965442
30
0
70
32
0
VERTEX
8
0
62
255
10
12.078023
20
-41.965442
30
0
70
32
0
VERTEX
8
0
62
255
10
12.936074
20
-41.965442
30
0
70
32
0
VERTEX
8
0
62
255
10
13.794124
20
-41.965442
30
0
70
32
0
VERTEX
8
0
62
255
10
14.652175
20
-41.965442
30
0
70
32
0
VERTEX
8
0
62
255
10
15.510225
20
-41.965442
30
0
70
32
0
VERTEX
8
0
62
255
10
16.368276
20
-41.965442
30
0
70
32
0
VERTEX
8
0
62
255
10
17.226326
20
-41.965442
30
0
70
32
0
VERTEX
8
0
62
255
10
18.084377
20
-41.965442
30
0
70
32
0
VERTEX
8
0
62
255
10
18.942427
20
-41.965442
30
0
70
32
0
VERTEX
8
0
62
255
10
19.800477
20
-41.965442
30
0
70
32
0
VERTEX
8
0
62
255
10
20.658528
20
-41.965442
30
0
70
32
0
VERTEX
8
0
62
255
10
21.516578
20
-41.965442
30
0
70
32
0
VERTEX
8
0
62
255
10
22.374629
20
-41.965442
30
0
70
32
0
VERTEX
8
0
62
255
10
23.232679
20
-41.965442
30
0
70
32
0
VERTEX
8
0
62
255
10
24.09073
20
-41.965442
30
0
70
32
0
VERTEX
8
0
62
255
10
24.94878
20
-41.965442
30
0
70
32
0
VERTEX
8
0
62
255
10
25.806831
20
-41.965442
30
0
70
32
0
VERTEX
8
0
62
255
10
26.664881
20
-41.965442
30
0
70
32
0
VERTEX
8
0
62
255
10
27.522932
20
-41.965442
30
0
70
32
0
VERTEX
8
0
62
255
10
28.380982
20
-41.965442
30
0
70
32
0
VERTEX
8
0
62
255
10
29.239032
20
-41.965442
30
0
70
32
0
VERTEX
8
0
62
255
10
30.097083
20
-41.965442
30
0
70
32
0
VERTEX
8
0
62
255
10
30.955133
20
-41.965442
30
0
70
32
0
VERTEX
8
0
62
255
10
31.813184
20
-41.965442
30
0
70
32
0
VERTEX
8
0
62
255
10
32.671234
20
-41.965442
30
0
70
32
0
VERTEX
8
0
62
255
10
33.529285
20
-41.965442
30
0
70
32
0
VERTEX
8
0
62
255
10
34.387335
20
-41.965442
30
0
70
32
0
VERTEX
8
0
62
255
10
35.245386
20
-41.965442
30
0
70
32
0
VERTEX
8
0
62
255
10
36.103436
20
-41.965442
30
0
70
32
0
VERTEX
8
0
62
255
10
36.961487
20
-41.965442
30
0
70
32
0
VERTEX
8
0
62
255
10
37.819537
20
-41.965442
30
0
70
32
0
VERTEX
8
0
62
255
10
38.677587
20
-41.965442
30
0
70
32
0
VERTEX
8
0
62
255
10
39.535638
20
-41.965442
30
0
70
32
0
VERTEX
8
0
62
255
10
40.393688
20
-41.965442
30
0
70
32
0
VERTEX
8
0
62
255
10
41.251739
20
-41.965442
30
0
70
32
0
VERTEX
8
0
62
255
10
42.109789
20
-41.965442
30
0
70
32
0
VERTEX
8
0
62
255
10
42.96784
20
-41.965442
30
0
70
32
0
VERTEX
8
0
62
255
10
43.82589
20
-41.965442
30
0
70
32
0
VERTEX
8
0
62
255
10
44.683941
20
-41.965442
30
0
70
32
0
VERTEX
8
0
62
255
10
45.541991
20
-41.965442
30
0
70
32
0
VERTEX
8
0
62
255
10
46.400041
20
-41.965442
30
0
70
32
0
VERTEX
8
0
62
255
10
47.258092
20
-41.965442
30
0
70
32
0
VERTEX
8
0
62
255
10
48.116142
20
-41.965442
30
0
70
32
0
VERTEX
8
0
62
255
10
48.974193
20
-41.965442
30
0
70
32
0
VERTEX
8
0
62
255
10
49.832243
20
-41.965442
30
0
70
32
0
VERTEX
8
0
62
255
10
50.690294
20
-41.965442
30
0
70
32
0
VERTEX
8
0
62
255
10
51.548344
20
-41.965442
30
0
70
32
0
VERTEX
8
0
62
255
10
52.406395
20
-41.965442
30
0
70
32
0
VERTEX
8
0
62
255
10
53.264445
20
-41.965442
30
0
70
32
0
VERTEX
8
0
62
255
10
54.122496
20
-41.965442
30
0
70
32
0
SEQEND
8
0
0
POLYLINE
8
0
62
255
66
1
10
0
20
0
30
0
70
8
0
VERTEX
8
0
62
255
10
54.122496
20
-41.965442
30
0
70
32
0
VERTEX
8
0
62
255
10
54.122496
20
-39.917655
30
0
70
32
0
VERTEX
8
0
62
255
10
54.122496
20
-37.869869
30
0
70
32
0
VERTEX
8
0
62
255
10
54.122496
20
-35.822082
30
0
70
32
0
VERTEX
8
0
62
255
10
54.122496
20
-33.774295
30
0
70
32
0
VERTEX
8
0
62
255
10
54.122496
20
-31.726509
30
0
70
32
0
VERTEX
8
0
62
255
10
54.122496
20
-29.678722
30
0
70
32
0
VERTEX
8
0
62
255
10
54.122496
20
-27.630935
30
0
70
32
0
VERTEX
8
0
62
255
10
54.122496
20
-25.583148
30
0
70
32
0
VERTEX
8
0
62
255
10
54.122496
20
-23.535362
30
0
70
32
0
VERTEX
8
0
62
255
10
54.122496
20
-21.487575
30
0
70
32
0
VERTEX
8
0
62
255
10
54.122496
20
-19.439788
30
0
70
32
0
VERTEX
8
0
62
255
10
54.122496
20
-17.392002
30
0
70
32
0
VERTEX
8
0
62
255
10
54.122496
20
-15.344215
30
0
70
32
0
VERTEX
8
0
62
255
10
54.122496
20
-13.296428
30
0
70
32
0
VERTEX
8
0
62
255
10
54.122496
20
-11.248641
30
0
70
32
0
VERTEX
8
0
62
255
10
54.122496
20
-9.2008548
30
0
70
32
0
VERTEX
8
0
62
255
10
54.122496
20
-7.153068
30
0
70
32
0
VERTEX
8
0
62
255
10
54.122496
20
-5.1052813
30
0
70
32
0
VERTEX
8
0
62
255
10
54.122496
20
-3.0574946
30
0
70
32
0
VERTEX
8
0
62
255
10
54.122496
20
-1.0097079
30
0
70
32
0
VERTEX
8
0
62
255
10
54.122496
20
1.0380788
30
0
70
32
0
VERTEX
8
0
62
255
10
54.122496
20
3.0858655
30
0
70
32
0
VERTEX
8
0
62
255
10
54.122496
20
5.1336522
30
0
70
32
0
VERTEX
8
0
62
255
10
54.122496
20
7.1814389
30
0
70
32
0
VERTEX
8
0
62
255
10
54.122496
20
9.2292256
30
0
70
32
0
VERTEX
8
0
62
255
10
54.122496
20
11.277012
30
0
70
32
0
VERTEX
8
0
62
255
10
54.122496
20
13.324799
30
0
70
32
0
VERTEX
8
0
62
255
10
54.122496
20
15.372586
30
0
70
32
0
VERTEX
8
0
62
255
10
54.122496
20
17.420372
30
0
70
32
0
VERTEX
8
0
62
255
10
54.122496
20
19.468159
30
0
70
32
0
VERTEX
8
0
62
255
10
54.122496
20
21.515946
30
0
70
32
0
VERTEX
8
0
62
255
10
54.122496
20
23.563733
30
0
70
32
0
VERTEX
8
0
62
255
10
54.122496
20
25.611519
30
0
70
32
0
VERTEX
8
0
62
255
10
54.122496
20
27.659306
30
0
70
32
0
VERTEX
8
0
62
255
10
54.122496
20
29.707093
30
0
70
32
0
VERTEX
8
0
62
255
10
54.122496
20
31.754879
30
0
70
32
0
VERTEX
8
0
62
255
10
54.122496
20
33.802666
30
0
70
32
0
VERTEX
8
0
62
255
10
54.122496
20
35.850453
30
0
70
32
0
VERTEX
8
0
62
255
10
54.122496
20
37.89824
30
0
70
32
0
VERTEX
8
0
62
255
10
54.122496
20
39.946026
30
0
70
32
0
VERTEX
8
0
62
255
10
54.122496
20
41.993813
30
0
70
32
0
VERTEX
8
0
62
255
10
54.122496
20
44.0416
30
0
70
32
0
VERTEX
8
0
62
255
10
54.122496
20
46.089386
30
0
70
32
0
VERTEX
8
0
62
255
10
54.122496
20
48.137173
30
0
70
32
0
VERTEX
8
0
62
255
10
54.122496
20
50.18496
30
0
70
32
0
VERTEX
8
0
62
255
10
54.122496
20
52.232747
30
0
70
32
0
VERTEX
8
0
62
255
10
54.122496
20
54.280533
30
0
70
32
0
VERTEX
8
0
62
255
10
54.122496
20
56.32832
30
0
70
32
0
VERTEX
8
0
62
255
10
54.122496
20
58.376107
30
0
70
32
0
VERTEX
8
0
62
255
10
54.122496
20
60.423893
30
0
70
32
0
VERTEX
8
0
62
255
10
54.122496
20
62.47168
30
0
70
32
0
VERTEX
8
0
62
255
10
54.122496
20
64.519467
30
0
70
32
0
VERTEX
8
0
62
255
10
54.122496
20
66.567253
30
0
70
32
0
VERTEX
8
0
62
255
10
54.122496
20
68.61504
30
0
70
32
0
VERTEX
8
0
62
255
10
54.122496
20
70.662827
30
0
70
32
0
VERTEX
8
0
62
255
10
54.122496
20
72.710614
30
0
70
32
0
VERTEX
8
0
62
255
10
54.122496
20
74.7584
30
0
70
32
0
VERTEX
8
0
62
255
10
54.122496
20
76.806187
30
0
70
32
0
VERTEX
8
0
62
255
10
54.122496
20
78.853974
30
0
70
32
0
VERTEX
8
0
62
255
10
54.122496
20
80.90176
30
0
70
32
0
VERTEX
8
0
62
255
10
54.122496
20
82.949547
30
0
70
32
0
VERTEX
8
0
62
255
10
54.122496
20
84.997334
30
0
70
32
0
VERTEX
8
0
62
255
10
54.122496
20
87.045121
30
0
70
32
0
VERTEX
8
0
62
255
10
54.122496
20
89.092907
30
0
70
32
0
VERTEX
8
0
62
255
10
54.122496
20
91.140694
30
0
70
32
0
VERTEX
8
0
62
255
10
54.122496
20
93.188481
30
0
70
32
0
VERTEX
8
0
62
255
10
54.122496
20
95.236267
30
0
70
32
0
VERTEX
8
0
62
255
10
54.122496
20
97.284054
30
0
70
32
0
VERTEX
8
0
62
255
10
54.122496
20
99.331841
30
0
70
32
0
VERTEX
8
0
62
255
10
54.122496
20
101.37963
30
0
70
32
0
VERTEX
8
0
62
255
10
54.122496
20
103.42741
30
0
70
32
0
VERTEX
8
0
62
255
10
54.122496
20
105.4752
30
0
70
32
0
VERTEX
8
0
62
255
10
54.122496
20
107.52299
30
0
70
32
0
VERTEX
8
0
62
255
10
54.122496
20
109.57077
30
0
70
32
0
VERTEX
8
0
62
255
10
54.122496
20
111.61856
30
0
70
32
0
VERTEX
8
0
62
255
10
54.122496
20
113.66635
30
0
70
32
0
VERTEX
8
0
62
255
10
54.122496
20
115.71413
30
0
70
32
0
VERTEX
8
0
62
255
10
54.122496
20
117.76192
30
0
70
32
0
VERTEX
8
0
62
255
10
54.122496
20
119.80971
30
0
70
32
0
VERTEX
8
0
62
255
10
54.122496
20
121.85749
30
0
70
32
0
VERTEX
8
0
62
255
10
54.122496
20
123.90528
30
0
70
32
0
VERTEX
8
0
62
255
10
54.122496
20
125.95307
30
0
70
32
0
VERTEX
8
0
62
255
10
54.122496
20
128.00085
30
0
70
32
0
VERTEX
8
0
62
255
10
54.122496
20
130.04864
30
0
70
32
0
VERTEX
8
0
62
255
10
54.122496
20
132.09643
30
0
70
32
0
VERTEX
8
0
62
255
10
54.122496
20
134.14421
30
0
70
32
0
VERTEX
8
0
62
255
10
54.122496
20
136.192
30
0
70
32
0
VERTEX
8
0
62
255
10
54.122496
20
138.23979
30
0
70
32
0
VERTEX
8
0
62
255
10
54.122496
20
140.28758
30
0
70
32
0
VERTEX
8
0
62
255
10
54.122496
20
142.33536
30
0
70
32
0
VERTEX
8
0
62
255
10
54.122496
20
144.38315
30
0
70
32
0
VERTEX
8
0
62
255
10
54.122496
20
146.43094
30
0
70
32
0
VERTEX
8
0
62
255
10
54.122496
20
148.47872
30
0
70
32
0
VERTEX
8
0
62
255
10
54.122496
20
150.52651
30
0
70
32
0
VERTEX
8
0
62
255
10
54.122496
20
152.5743
30
0
70
32
0
VERTEX
8
0
62
255
10
54.122496
20
154.62208
30
0
70
32
0
VERTEX
8
0
62
255
10
54.122496
20
156.66987
30
0
70
32
0
VERTEX
8
0
62
255
10
54.122496
20
158.71766
30
0
70
32
0
VERTEX
8
0
62
255
10
54.122496
20
160.76544
30
0
70
32
0
SEQEND
8
0
0
POLYLINE
8
0
62
255
66
1
10
0
20
0
30
0
70
8
0
VERTEX
8
0
62
255
10
54.122496
20
160.76544
30
0
70
32
0
VERTEX
8
0
62
255
10
53.264445
20
160.76544
30
0
70
32
0
VERTEX
8
0
62
255
10
52.406395
20
160.76544
30
0
70
32
0
VERTEX
8
0
62
255
10
51.548344
20
160.76544
30
0
70
32
0
VERTEX
8
0
62
255
10
50.690294
20
160.76544
30
0
70
32
0
VERTEX
8
0
62
255
10
49.832243
20
160.76544
30
0
70
32
0
VERTEX
8
0
62
255
10
48.974193
20
160.76544
30
0
70
32
0
VERTEX
8
0
62
255
10
48.116142
20
160.76544
30
0
70
32
0
VERTEX
8
0
62
255
10
47.258092
20
160.76544
30
0
70
32
0
VERTEX
8
0
62
255
10
46.400041
20
160.76544
30
0
70
32
0
VERTEX
8
0
62
255
10
45.541991
20
160.76544
30
0
70
32
0
VERTEX
8
0
62
255
10
44.683941
20
160.76544
30
0
70
32
0
VERTEX
8
0
62
255
10
43.82589
20
160.76544
30
0
70
32
0
VERTEX
8
0
62
255
10
42.96784
20
160.76544
30
0
70
32
0
VERTEX
8
0
62
255
10
42.109789
20
160.76544
30
0
70
32
0
VERTEX
8
0
62
255
10
41.251739
20
160.76544
30
0
70
32
0
VERTEX
8
0
62
255
10
40.393688
20
160.76544
30
0
70
32
0
VERTEX
8
0
62
255
10
39.535638
20
160.76544
30
0
70
32
0
VERTEX
8
0
62
255
10
38.677587
20
160.76544
30
0
70
32
0
VERTEX
8
0
62
255
10
37.819537
20
160.76544
30
0
70
32
0
VERTEX
8
0
62
255
10
36.961487
20
160.76544
30
0
70
32
0
VERTEX
8
0
62
255
10
36.103436
20
160.76544
30
0
70
32
0
VERTEX
8
0
62
255
10
35.245386
20
160.76544
30
0
70
32
0
VERTEX
8
0
62
255
10
34.387335
20
160.76544
30
0
70
32
0
VERTEX
8
0
62
255
10
33.529285
20
160.76544
30
0
70
32
0
VERTEX
8
0
62
255
10
32.671234
20
160.76544
30
0
70
32
0
VERTEX
8
0
62
255
10
31.813184
20
160.76544
30
0
70
32
0
VERTEX
8
0
62
255
10
30.955133
20
160.76544
30
0
70
32
0
VERTEX
8
0
62
255
10
30.097083
20
160.76544
30
0
70
32
0
VERTEX
8
0
62
255
10
29.239032
20
160.76544
30
0
70
32
0
VERTEX
8
0
62
255
10
28.380982
20
160.76544
30
0
70
32
0
VERTEX
8
0
62
255
10
27.522932
20
160.76544
30
0
70
32
0
VERTEX
8
0
62
255
10
26.664881
20
160.76544
30
0
70
32
0
VERTEX
8
0
62
255
10
25.806831
20
160.76544
30
0
70
32
0
VERTEX
8
0
62
255
10
24.94878
20
160.76544
30
0
70
32
0
VERTEX
8
0
62
255
10
24.09073
20
160.76544
30
0
70
32
0
VERTEX
8
0
62
255
10
23.232679
20
160.76544
30
0
70
32
0
VERTEX
8
0
62
255
10
22.374629
20
160.76544
30
0
70
32
0
VERTEX
8
0
62
255
10
21.516578
20
160.76544
30
0
70
32
0
VERTEX
8
0
62
255
10
20.658528
20
160.76544
30
0
70
32
0
VERTEX
8
0
62
255
10
19.800477
20
160.76544
30
0
70
32
0
VERTEX
8
0
62
255
10
18.942427
20
160.76544
30
0
70
32
0
VERTEX
8
0
62
255
10
18.084377
20
160.76544
30
0
70
32
0
VERTEX
8
0
62
255
10
17.226326
20
160.76544
30
0
70
32
0
VERTEX
8
0
62
255
10
16.368276
20
160.76544
30
0
70
32
0
VERTEX
8
0
62
255
10
15.510225
20
160.76544
30
0
70
32
0
VERTEX
8
0
62
255
10
14.652175
20
160.76544
30
0
70
32
0
VERTEX
8
0
62
255
10
13.794124
20
160.76544
30
0
70
32
0
VERTEX
8
0
62
255
10
12.936074
20
160.76544
30
0
70
32
0
VERTEX
8
0
62
255
10
12.078023
20
160.76544
30
0
70
32
0
VERTEX
8
0
62
255
10
11.219973
20
160.76544
30
0
70
32
0
VERTEX
8
0
62
255
10
10.361923
20
160.76544
30
0
70
32
0
VERTEX
8
0
62
255
10
9.5038721
20
160.76544
30
0
70
32
0
VERTEX
8
0
62
255
10
8.6458216
20
160.76544
30
0
70
32
0
VERTEX
8
0
62
255
10
7.7877712
20
160.76544
30
0
70
32
0
VERTEX
8
0
62
255
10
6.9297207
20
160.76544
30
0
70
32
0
VERTEX
8
0
62
255
10
6.0716703
20
160.76544
30
0
70
32
0
VERTEX
8
0
62
255
10
5.2136198
20
160.76544
30
0
70
32
0
VERTEX
8
0
62
255
10
4.3555694
20
160.76544
30
0
70
32
0
VERTEX
8
0
62
255
10
3.4975189
20
160.76544
30
0
70
32
0
VERTEX
8
0
62
255
10
2.6394685
20
160.76544
30
0
70
32
0
VERTEX
8
0
62
255
10
1.781418
20
160.76544
30
0
70
32
0
VERTEX
8
0
62
255
10
0.92336757
20
160.76544
30
0
70
32
0
VERTEX
8
0
62
255
10
0.065317123
20
160.76544
30
0
70
32
0
VERTEX
8
0
62
255
10
-0.79273333
20
160.76544
30
0
70
32
0
VERTEX
8
0
62
255
10
-1.6507838
20
160.76544
30
0
70
32
0
VERTEX
8
0
62
255
10
-2.5088342
20
160.76544
30
0
70
32
0
VERTEX
8
0
62
255
10
-3.3668847
20
160.76544
30
0
70
32
0
VERTEX
8
0
62
255
10
-4.2249351
20
160.76544
30
0
70
32
0
VERTEX
8
0
62
255
10
-5.0829856
20
160.76544
30
0
70
32
0
VERTEX
8
0
62
255
10
-5.941036
20
160.76544
30
0
70
32
0
VERTEX
8
0
62
255
10
-6.7990865
20
160.76544
30
0
70
32
0
VERTEX
8
0
62
255
10
-7.6571369
20
160.76544
30
0
70
32
0
VERTEX
8
0
62
255
10
-8.5151874
20
160.76544
30
0
70
32
0
VERTEX
8
0
62
255
10
-9.3732378
20
160.76544
30
0
70
32
0
VERTEX
8
0
62
255
10
-10.231288
20
160.76544
30
0
70
32
0
VERTEX
8
0
62
255
10
-11.089339
20
160.76544
30
0
70
32
0
VERTEX
8
0
62
255
10
-11.947389
20
160.76544
30
0
70
32
0
VERTEX
8
0
62
255
10
-12.80544
20
160.76544
30
0
70
32
0
VERTEX
8
0
62
255
10
-13.66349
20
160.76544
30
0
70
32
0
VERTEX
8
0
62
255
10
-14.521541
20
160.76544
30
0
70
32
0
VERTEX
8
0
62
255
10
-15.379591
20
160.76544
30
0
70
32
0
VERTEX
8
0
62
255
10
-16.237641
20
160.76544
30
0
70
32
0
VERTEX
8
0
62
255
10
-17.095692
20
160.76544
30
0
70
32
0
VERTEX
8
0
62
255
10
-17.953742
20
160.76544
30
0
70
32
0
VERTEX
8
0
62
255
10
-18.811793
20
160.76544
30
0
70
32
0
VERTEX
8
0
62
255
10
-19.669843
20
160.76544
30
0
70
32
0
VERTEX
8
0
62
255
10
-20.527894
20
160.76544
30
0
70
32
0
VERTEX
8
0
62
255
10
-21.385944
20
160.76544
30
0
70
32
0
VERTEX
8
0
62
255
10
-22.243995
20
160.76544
30
0
70
32
0
VERTEX
8
0
62
255
10
-23.102045
20
160.76544
30
0
70
32
0
VERTEX
8
0
62
255
10
-23.960095
20
160.76544
30
0
70
32
0
VERTEX
8
0
62
255
10
-24.818146
20
160.76544
30
0
70
32
0
VERTEX
8
0
62
255
10
-25.676196
20
160.76544
30
0
70
32
0
VERTEX
8
0
62
255
10
-26.534247
20
160.76544
30
0
70
32
0
VERTEX
8
0
62
255
10
-27.392297
20
160.76544
30
0
70
32
0
VERTEX
8
0
62
255
10
-28.250348
20
160.76544
30
0
70
32
0
VERTEX
8
0
62
255
10
-29.108398
20
160.76544
30
0
70
32
0
VERTEX
8
0
62
255
10
-29.966449
20
160.76544
30
0
70
32
0
VERTEX
8
0
62
255
10
-30.824499
20
160.76544
30
0
70
32
0
SEQEND
8
0
0
POLYLINE
8
0
62
255
66
1
10
0
20
0
30
0
70
8
0
VERTEX
8
0
62
255
10
-30.824499
20
160.76544
30
0
70
32
0
VERTEX
8
0
62
255
10
-30.824499
20
158.71766
30
0
70
32
0
VERTEX
8
0
62
255
10
-30.824499
20
156.66987
30
0
70
32
0
VERTEX
8
0
62
255
10
-30.824499
20
154.62208
30
0
70
32
0
VERTEX
8
0
62
255
10
-30.824499
20
152.5743
30
0
70
32
0
VERTEX
8
0
62
255
10
-30.824499
20
150.52651
30
0
70
32
0
VERTEX
8
0
62
255
10
-30.824499
20
148.47872
30
0
70
32
0
VERTEX
8
0
62
255
10
-30.824499
20
146.43094
30
0
70
32
0
VERTEX
8
0
62
255
10
-30.824499
20
144.38315
30
0
70
32
0
VERTEX
8
0
62
255
10
-30.824499
20
142.33536
30
0
70
32
0
VERTEX
8
0
62
255
10
-30.824499
20
140.28758
30
0
70
32
0
VERTEX
8
0
62
255
10
-30.824499
20
138.23979
30
0
70
32
0
VERTEX
8
0
62
255
10
-30.824499
20
136.192
30
0
70
32
0
VERTEX
8
0
62
255
10
-30.824499
20
134.14421
30
0
70
32
0
VERTEX
8
0
62
255
10
-30.824499
20
132.09643
30
0
70
32
0
VERTEX
8
0
62
255
10
-30.824499
20
130.04864
30
0
70
32
0
VERTEX
8
0
62
255
10
-30.824499
20
128.00085
30
0
70
32
0
VERTEX
8
0
62
255
10
-30.824499
20
125.95307
30
0
70
32
0
VERTEX
8
0
62
255
10
-30.824499
20
123.90528
30
0
70
32
0
VERTEX
8
0
62
255
10
-30.824499
20
121.85749
30
0
70
32
0
VERTEX
8
0
62
255
10
-30.824499
20
119.80971
30
0
70
32
0
VERTEX
8
0
62
255
10
-30.824499
20
117.76192
30
0
70
32
0
VERTEX
8
0
62
255
10
-30.824499
20
115.71413
30
0
70
32
0
VERTEX
8
0
62
255
10
-30.824499
20
113.66635
30
0
70
32
0
VERTEX
8
0
62
255
10
-30.824499
20
111.61856
30
0
70
32
0
VERTEX
8
0
62
255
10
-30.824499
20
109.57077
30
0
70
32
0
VERTEX
8
0
62
255
10
-30.824499
20
107.52299
30
0
70
32
0
VERTEX
8
0
62
255
10
-30.824499
20
105.4752
30
0
70
32
0
VERTEX
8
0
62
255
10
-30.824499
20
103.42741
30
0
70
32
0
VERTEX
8
0
62
255
10
-30.824499
20
101.37963
30
0
70
32
0
VERTEX
8
0
62
255
10
-30.824499
20
99.331841
30
0
70
32
0
VERTEX
8
0
62
255
10
-30.824499
20
97.284054
30
0
70
32
0
VERTEX
8
0
62
255
10
-30.824499
20
95.236267
30
0
70
32
0
VERTEX
8
0
62
255
10
-30.824499
20
93.188481
30
0
70
32
0
VERTEX
8
0
62
255
10
-30.824499
20
91.140694
30
0
70
32
0
VERTEX
8
0
62
255
10
-30.824499
20
89.092907
30
0
70
32
0
VERTEX
8
0
62
255
10
-30.824499
20
87.045121
30
0
70
32
0
VERTEX
8
0
62
255
10
-30.824499
20
84.997334
30
0
70
32
0
VERTEX
8
0
62
255
10
-30.824499
20
82.949547
30
0
70
32
0
VERTEX
8
0
62
255
10
-30.824499
20
80.90176
30
0
70
32
0
VERTEX
8
0
62
255
10
-30.824499
20
78.853974
30
0
70
32
0
VERTEX
8
0
62
255
10
-30.824499
20
76.806187
30
0
70
32
0
VERTEX
8
0
62
255
10
-30.824499
20
74.7584
30
0
70
32
0
VERTEX
8
0
62
255
10
-30.824499
20
72.710614
30
0
70
32
0
VERTEX
8
0
62
255
10
-30.824499
20
70.662827
30
0
70
32
0
VERTEX
8
0
62
255
10
-30.824499
20
68.61504
30
0
70
32
0
VERTEX
8
0
62
255
10
-30.824499
20
66.567253
30
0
70
32
0
VERTEX
8
0
62
255
10
-30.824499
20
64.519467
30
0
70
32
0
VERTEX
8
0
62
255
10
-30.824499
20
62.47168
30
0
70
32
0
VERTEX
8
0
62
255
10
-30.824499
20
60.423893
30
0
70
32
0
VERTEX
8
0
62
255
10
-30.824499
20
58.376107
30
0
70
32
0
VERTEX
8
0
62
255
10
-30.824499
20
56.32832
30
0
70
32
0
VERTEX
8
0
62
255
10
-30.824499
20
54.280533
30
0
70
32
0
VERTEX
8
0
62
255
10
-30.824499
20
52.232747
30
0
70
32
0
VERTEX
8
0
62
255
10
-30.824499
20
50.18496
30
0
70
32
0
VERTEX
8
0
62
255
10
-30.824499
20
48.137173
30
0
70
32
0
VERTEX
8
0
62
255
10
-30.824499
20
46.089386
30
0
70
32
0
VERTEX
8
0
62
255
10
-30.824499
20
44.0416
30
0
70
32
0
VERTEX
8
0
62
255
10
-30.824499
20
41.993813
30
0
70
32
0
VERTEX
8
0
62
255
10
-30.824499
20
39.946026
30
0
70
32
0
VERTEX
8
0
62
255
10
-30.824499
20
37.89824
30
0
70
32
0
VERTEX
8
0
62
255
10
-30.824499
20
35.850453
30
0
70
32
0
VERTEX
8
0
62
255
10
-30.824499
20
33.802666
30
0
70
32
0
VERTEX
8
0
62
255
10
-30.824499
20
31.754879
30
0
70
32
0
VERTEX
8
0
62
255
10
-30.824499
20
29.707093
30
0
70
32
0
VERTEX
8
0
62
255
10
-30.824499
20
27.659306
30
0
70
32
0
VERTEX
8
0
62
255
10
-30.824499
20
25.611519
30
0
70
32
0
VERTEX
8
0
62
255
10
-30.824499
20
23.563733
30
0
70
32
0
VERTEX
8
0
62
255
10
-30.824499
20
21.515946
30
0
70
32
0
VERTEX
8
0
62
255
10
-30.824499
20
19.468159
30
0
70
32
0
VERTEX
8
0
62
255
10
-30.824499
20
17.420372
30
0
70
32
0
VERTEX
8
0
62
255
10
-30.824499
20
15.372586
30
0
70
32
0
VERTEX
8
0
62
255
10
-30.824499
20
13.324799
30
0
70
32
0
VERTEX
8
0
62
255
10
-30.824499
20
11.277012
30
0
70
32
0
VERTEX
8
0
62
255
10
-30.824499
20
9.2292256
30
0
70
32
0
VERTEX
8
0
62
255
10
-30.824499
20
7.1814389
30
0
70
32
0
VERTEX
8
0
62
255
10
-30.824499
20
5.1336522
30
0
70
32
0
VERTEX
8
0
62
255
10
-30.824499
20
3.0858655
30
0
70
32
0
VERTEX
8
0
62
255
10
-30.824499
20
1.0380788
30
0
70
32
0
VERTEX
8
0
62
255
10
-30.824499
20
-1.0097079
30
0
70
32
0
VERTEX
8
0
62
255
10
-30.824499
20
-3.0574946
30
0
70
32
0
VERTEX
8
0
62
255
10
-30.824499
20
-5.1052813
30
0
70
32
0
VERTEX
8
0
62
255
10
-30.824499
20
-7.153068
30
0
70
32
0
VERTEX
8
0
62
255
10
-30.824499
20
-9.2008548
30
0
70
32
0
VERTEX
8
0
62
255
10
-30.824499
20
-11.248641
30
0
70
32
0
VERTEX
8
0
62
255
10
-30.824499
20
-13.296428
30
0
70
32
0
VERTEX
8
0
62
255
10
-30.824499
20
-15.344215
30
0
70
32
0
VERTEX
8
0
62
255
10
-30.824499
20
-17.392002
30
0
70
32
0
VERTEX
8
0
62
255
10
-30.824499
20
-19.439788
30
0
70
32
0
VERTEX
8
0
62
255
10
-30.824499
20
-21.487575
30
0
70
32
0
VERTEX
8
0
62
255
10
-30.824499
20
-23.535362
30
0
70
32
0
VERTEX
8
0
62
255
10
-30.824499
20
-25.583148
30
0
70
32
0
VERTEX
8
0
62
255
10
-30.824499
20
-27.630935
30
0
70
32
0
VERTEX
8
0
62
255
10
-30.824499
20
-29.678722
30
0
70
32
0
VERTEX
8
0
62
255
10
-30.824499
20
-31.726509
30
0
70
32
0
VERTEX
8
0
62
255
10
-30.824499
20
-33.774295
30
0
70
32
0
VERTEX
8
0
62
255
10
-30.824499
20
-35.822082
30
0
70
32
0
VERTEX
8
0
62
255
10
-30.824499
20
-37.869869
30
0
70
32
0
VERTEX
8
0
62
255
10
-30.824499
20
-39.917655
30
0
70
32
0
VERTEX
8
0
62
255
10
-30.824499
20
-41.965442
30
0
70
32
0
SEQEND
8
0
0
POLYLINE
8
0
62
255
66
1
10
0
20
0
30
0
70
8
0
VERTEX
8
0
62
255
10
-11.851002
20
0
30
0
70
32
0
VERTEX
8
0
62
255
10
-11.854022
20
0.095135879
30
0
70
32
0
VERTEX
8
0
62
255
10
-11.86307
20
0.18988868
30
0
70
32
0
VERTEX
8
0
62
255
10
-11.878109
20
0.28387687
30
0
70
32
0
VERTEX
8
0
62
255
10
-11.899079
20
0.37672198
30
0
70
32
0
VERTEX
8
0
62
255
10
-11.925895
20
0.46805017
30
0
70
32
0
VERTEX
8
0
62
255
10
-11.95845
20
0.55749368
30
0
70
32
0
VERTEX
8
0
62
255
10
-11.996612
20
0.64469237
30
0
70
32
0
VERTEX
8
0
62
255
10
-12.040228
20
0.7292951
30
0
70
32
0
VERTEX
8
0
62
255
10
-12.089121
20
0.81096123
30
0
70
32
0
VERTEX
8
0
62
255
10
-12.143096
20
0.88936189
30
0
70
32
0
VERTEX
8
0
62
255
10
-12.201935
20
0.96418141
30
0
70
32
0
VERTEX
8
0
62
255
10
-12.265401
20
1.0351185
30
0
70
32
0
VERTEX
8
0
62
255
10
-12.333238
20
1.1018876
30
0
70
32
0
VERTEX
8
0
62
255
10
-12.405173
20
1.1642197
30
0
70
32
0
VERTEX
8
0
62
255
10
-12.480916
20
1.2218639
30
0
70
32
0
VERTEX
8
0
62
255
10
-12.560164
20
1.2745881
30
0
70
32
0
VERTEX
8
0
62
255
10
-12.642595
20
1.32218
30
0
70
32
0
VERTEX
8
0
62
255
10
-12.727879
20
1.364448
30
0
70
32
0
VERTEX
8
0
62
255
10
-12.815672
20
1.4012218
30
0
70
32
0
VERTEX
8
0
62
255
10
-12.905621
20
1.4323534
30
0
70
32
0
VERTEX
8
0
62
255
10
-12.997363
20
1.4577174
30
0
70
32
0
VERTEX
8
0
62
255
10
-13.09053
20
1.4772116
30
0
70
32
0
VERTEX
8
0
62
255
10
-13.184744
20
1.4907577
30
0
70
32
0
VERTEX
8
0
62
255
10
-13.279629
20
1.498301
30
0
70
32
0
VERTEX
8
0
62
255
10
-13.374801
20
1.4998112
30
0
70
32
0
VERTEX
8
0
62
255
10
-13.469877
20
1.4952822
30
0
70
32
0
VERTEX
8
0
62
255
10
-13.564474
20
1.4847322
30
0
70
32
0
VERTEX
8
0
62
255
10
-13.658212
20
1.4682037
30
0
70
32
0
VERTEX
8
0
62
255
10
-13.750713
20
1.4457632
30
0
70
32
0
VERTEX
8
0
62
255
10
-13.841604
20
1.4175012
30
0
70
32
0
VERTEX
8
0
62
255
10
-13.930519
20
1.3835314
30
0
70
32
0
VERTEX
8
0
62
255
10
-14.017102
20
1.3439907
30
0
70
32
0
VERTEX
8
0
62
255
10
-14.101002
20
1.2990381
30
0
70
32
0
VERTEX
8
0
62
255
10
-14.181882
20
1.2488548
30
0
70
32
0
VERTEX
8
0
62
255
10
-14.259416
20
1.1936428
30
0
70
32
0
VERTEX
8
0
62
255
10
-14.333293
20
1.1336244
30
0
70
32
0
VERTEX
8
0
62
255
10
-14.403214
20
1.0690413
30
0
70
32
0
VERTEX
8
0
62
255
10
-14.468898
20
1.0001535
30
0
70
32
0
VERTEX
8
0
62
255
10
-14.530081
20
0.92723848
30
0
70
32
0
VERTEX
8
0
62
255
10
-14.586517
20
0.8505898
30
0
70
32
0
VERTEX
8
0
62
255
10
-14.637977
20
0.77051609
30
0
70
32
0
VERTEX
8
0
62
255
10
-14.684255
20
0.68733978
30
0
70
32
0
VERTEX
8
0
62
255
10
-14.725164
20
0.6013958
30
0
70
32
0
VERTEX
8
0
62
255
10
-14.760541
20
0.51303021
30
0
70
32
0
VERTEX
8
0
62
255
10
-14.790241
20
0.42259884
30
0
70
32
0
VERTEX
8
0
62
255
10
-14.814146
20
0.3304658
30
0
70
32
0
VERTEX
8
0
62
255
10
-14.83216
20
0.23700209
30
0
70
32
0
VERTEX
8
0
62
255
10
-14.84421
20
0.14258406
30
0
70
32
0
VERTEX
8
0
62
255
10
-14.850247
20
0.0475919
30
0
70
32
0
VERTEX
8
0
62
255
10
-14.850247
20
-0.0475919
30
0
70
32
0
VERTEX
8
0
62
255
10
-14.84421
20
-0.14258406
30
0
70
32
0
VERTEX
8
0
62
255
10
-14.83216
20
-0.23700209
30
0
70
32
0
VERTEX
8
0
62
255
10
-14.814146
20
-0.3304658
30
0
70
32
0
VERTEX
8
0
62
255
10
-14.790241
20
-0.42259884
30
0
70
32
0
VERTEX
8
0
62
255
10
-14.760541
20
-0.51303021
30
0
70
32
0
VERTEX
8
0
62
255
10
-14.725164
20
-0.6013958
30
0
70
32
0
VERTEX
8
0
62
255
10
-14.684255
20
-0.68733978
30
0
70
32
0
VERTEX
8
0
62
255
10
-14.637977
20
-0.77051609
30
0
70
32
0
VERTEX
8
0
62
255
10
-14.586517
20
-0.8505898
30
0
70
32
0
VERTEX
8
0
62
255
10
-14.530081
20
-0.92723848
30
0
70
32
0
VERTEX
8
0
62
255
10
-14.468898
20
-1.0001535
30
0
70
32
0
VERTEX
8
0
62
255
10
-14.403214
20
-1.0690413
30
0
70
32
0
VERTEX
8
0
62
255
10
-14.333293
20
-1.1336244
30
0
70
32
0
VERTEX
8
0
62
255
10
-14.259416
20
-1.1936428
30
0
70
32
0
VERTEX
8
0
62
255
10
-14.181882
20
-1.2488548
30
0
70
32
0
VERTEX
8
0
62
255
10
-14.101002
20
-1.2990381
30
0
70
32
0
VERTEX
8
0
62
255
10
-14.017102
20
-1.3439907
30
0
70
32
0
VERTEX
8
0
62
255
10
-13.930519
20
-1.3835314
30
0
70
32
0
VERTEX
8
0
62
255
10
-13.841604
20
-1.4175012
30
0
70
32
0
VERTEX
8
0
62
255
10
-13.750713
20
-1.4457632
30
0
70
32
0
VERTEX
8
0
62
255
10
-13.658212
20
-1.4682037
30
0
70
32
0
VERTEX
8
0
62
255
10
-13.564474
20
-1.4847322
30
0
70
32
0
VERTEX
8
0
62
255
10
-13.469877
20
-1.4952822
30
0
70
32
0
VERTEX
8
0
62
255
10
-13.374801
20
-1.4998112
30
0
70
32
0
VERTEX
8
0
62
255
10
-13.279629
20
-1.498301
30
0
70
32
0
VERTEX
8
0
62
255
10
-13.184744
20
-1.4907577
30
0
70
32
0
VERTEX
8
0
62
255
10
-13.09053
20
-1.4772116
30
0
70
32
0
VERTEX
8
0
62
255
10
-12.997363
20
-1.4577174
30
0
70
32
0
VERTEX
8
0
62
255
10
-12.905621
20
-1.4323534
30
0
70
32
0
VERTEX
8
0
62
255
10
-12.815672
20
-1.4012218
30
0
70
32
0
VERTEX
8
0
62
255
10
-12.727879
20
-1.364448
30
0
70
32
0
VERTEX
8
0
62
255
10
-12.642595
20
-1.32218
30
0
70
32
0
VERTEX
8
0
62
255
10
-12.560164
20
-1.2745881
30
0
70
32
0
VERTEX
8
0
62
255
10
-12.480916
20
-1.2218639
30
0
70
32
0
VERTEX
8
0
62
255
10
-12.405173
20
-1.1642197
30
0
70
32
0
VERTEX
8
0
62
255
10
-12.333238
20
-1.1018876
30
0
70
32
0
VERTEX
8
0
62
255
10
-12.265401
20
-1.0351185
30
0
70
32
0
VERTEX
8
0
62
255
10
-12.201935
20
-0.96418141
30
0
70
32
0
VERTEX
8
0
62
255
10
-12.143096
20
-0.88936189
30
0
70
32
0
VERTEX
8
0
62
255
10
-12.089121
20
-0.81096123
30
0
70
32
0
VERTEX
8
0
62
255
10
-12.040228
20
-0.7292951
30
0
70
32
0
VERTEX
8
0
62
255
10
-11.996612
20
-0.64469237
30
0
70
32
0
VERTEX
8
0
62
255
10
-11.95845
20
-0.55749368
30
0
70
32
0
VERTEX
8
0
62
255
10
-11.925895
20
-0.46805017
30
0
70
32
0
VERTEX
8
0
62
255
10
-11.899079
20
-0.37672198
30
0
70
32
0
VERTEX
8
0
62
255
10
-11.878109
20
-0.28387687
30
0
70
32
0
VERTEX
8
0
62
255
10
-11.86307
20
-0.18988868
30
0
70
32
0
VERTEX
8
0
62
255
10
-11.854022
20
-0.095135879
30
0
70
32
0
VERTEX
8
0
62
255
10
-11.851002
20
-3.6739404e-16
30
0
70
32
0
SEQEND
8
0
0
POLYLINE
8
0
62
255
66
1
10
0
20
0
30
0
70
8
0
VERTEX
8
0
62
255
10
38.148998
20
0
30
0
70
32
0
VERTEX
8
0
62
255
10
38.145978
20
0.095135879
30
0
70
32
0
VERTEX
8
0
62
255
10
38.13693
20
0.18988868
30
0
70
32
0
VERTEX
8
0
62
255
10
38.121891
20
0.28387687
30
0
70
32
0
VERTEX
8
0
62
255
10
38.100921
20
0.37672198
30
0
70
32
0
VERTEX
8
0
62
255
10
38.074105
20
0.46805017
30
0
70
32
0
VERTEX
8
0
62
255
10
38.04155
20
0.55749368
30
0
70
32
0
VERTEX
8
0
62
255
10
38.003388
20
0.64469237
30
0
70
32
0
VERTEX
8
0
62
255
10
37.959772
20
0.7292951
30
0
70
32
0
VERTEX
8
0
62
255
10
37.910879
20
0.81096123
30
0
70
32
0
VERTEX
8
0
62
255
10
37.856904
20
0.88936189
30
0
70
32
0
VERTEX
8
0
62
255
10
37.798065
20
0.96418141
30
0
70
32
0
VERTEX
8
0
62
255
10
37.734599
20
1.0351185
30
0
70
32
0
VERTEX
8
0
62
255
10
37.666762
20
1.1018876
30
0
70
32
0
VERTEX
8
0
62
255
10
37.594827
20
1.1642197
30
0
70
32
0
VERTEX
8
0
62
255
10
37.519084
20
1.2218639
30
0
70
32
0
VERTEX
8
0
62
255
10
37.439836
20
1.2745881
30
0
70
32
0
VERTEX
8
0
62
255
10
37.357405
20
1.32218
30
0
70
32
0
VERTEX
8
0
62
255
10
37.272121
20
1.364448
30
0
70
32
0
VERTEX
8
0
62
255
10
37.184328
20
1.4012218
30
0
70
32
0
VERTEX
8
0
62
255
10
37.094379
20
1.4323534
30
0
70
32
0
VERTEX
8
0
62
255
10
37.002637
20
1.4577174
30
0
70
32
0
VERTEX
8
0
62
255
10
36.90947
20
1.4772116
30
0
70
32
0
VERTEX
8
0
62
255
10
36.815256
20
1.4907577
30
0
70
32
0
VERTEX
8
0
62
255
10
36.720371
20
1.498301
30
0
70
32
0
VERTEX
8
0
62
255
10
36.625199
20
1.4998112
30
0
70
32
0
VERTEX
8
0
62
255
10
36.530123
20
1.4952822
30
0
70
32
0
VERTEX
8
0
62
255
10
36.435526
20
1.4847322
30
0
70
32
0
VERTEX
8
0
62
255
10
36.341788
20
1.4682037
30
0
70
32
0
VERTEX
8
0
62
255
10
36.249287
20
1.4457632
30
0
70
32
0
VERTEX
8
0
62
255
10
36.158396
20
1.4175012
30
0
70
32
0
VERTEX
8
0
62
255
10
36.069481
20
1.3835314
30
0
70
32
0
VERTEX
8
0
62
255
10
35.982898
20
1.3439907
30
0
70
32
0
VERTEX
8
0
62
255
10
35.898998
20
1.2990381
30
0
70
32
0
VERTEX
8
0
62
255
10
35.818118
20
1.2488548
30
0
70
32
0
VERTEX
8
0
62
255
10
35.740584
20
1.1936428
30
0
70
32
0
VERTEX
8
0
62
255
10
35.666707
20
1.1336244
30
0
70
32
0
VERTEX
8
0
62
255
10
35.596786
20
1.0690413
30
0
70
32
0
VERTEX
8
0
62
255
10
35.531102
20
1.0001535
30
0
70
32
0
VERTEX
8
0
62
255
10
35.469919
20
0.92723848
30
0
70
32
0
VERTEX
8
0
62
255
10
35.413483
20
0.8505898
30
0
70
32
0
VERTEX
8
0
62
255
10
35.362023
20
0.77051609
30
0
70
32
0
VERTEX
8
0
62
255
10
35.315745
20
0.68733978
30
0
70
32
0
VERTEX
8
0
62
255
10
35.274836
20
0.6013958
30
0
70
32
0
VERTEX
8
0
62
255
10
35.239459
20
0.51303021
30
0
70
32
0
VERTEX
8
0
62
255
10
35.209759
20
0.42259884
30
0
70
32
0
VERTEX
8
0
62
255
10
35.185854
20
0.3304658
30
0
70
32
0
VERTEX
8
0
62
255
10
35.16784
20
0.23700209
30
0
70
32
0
VERTEX
8
0
62
255
10
35.15579
20
0.14258406
30
0
70
32
0
VERTEX
8
0
62
255
10
35.149753
20
0.0475919
30
0
70
32
0
VERTEX
8
0
62
255
10
35.149753
20
-0.0475919
30
0
70
32
0
VERTEX
8
0
62
255
10
35.15579
20
-0.14258406
30
0
70
32
0
VERTEX
8
0
62
255
10
35.16784
20
-0.23700209
30
0
70
32
0
VERTEX
8
0
62
255
10
35.185854
20
-0.3304658
30
0
70
32
0
VERTEX
8
0
62
255
10
35.209759
20
-0.42259884
30
0
70
32
0
VERTEX
8
0
62
255
10
35.239459
20
-0.51303021
30
0
70
32
0
VERTEX
8
0
62
255
10
35.274836
20
-0.6013958
30
0
70
32
0
VERTEX
8
0
62
255
10
35.315745
20
-0.68733978
30
0
70
32
0
VERTEX
8
0
62
255
10
35.362023
20
-0.77051609
30
0
70
32
0
VERTEX
8
0
62
255
10
35.413483
20
-0.8505898
30
0
70
32
0
VERTEX
8
0
62
255
10
35.469919
20
-0.92723848
30
0
70
32
0
VERTEX
8
0
62
255
10
35.531102
20
-1.0001535
30
0
70
32
0
VERTEX
8
0
62
255
10
35.596786
20
-1.0690413
30
0
70
32
0
VERTEX
8
0
62
255
10
35.666707
20
-1.1336244
30
0
70
32
0
VERTEX
8
0
62
255
10
35.740584
20
-1.1936428
30
0
70
32
0
VERTEX
8
0
62
255
10
35.818118
20
-1.2488548
30
0
70
32
0
VERTEX
8
0
62
255
10
35.898998
20
-1.2990381
30
0
70
32
0
VERTEX
8
0
62
255
10
35.982898
20
-1.3439907
30
0
70
32
0
VERTEX
8
0
62
255
10
36.069481
20
-1.3835314
30
0
70
32
0
VERTEX
8
0
62
255
10
36.158396
20
-1.4175012
30
0
70
32
0
VERTEX
8
0
62
255
10
36.249287
20
-1.4457632
30
0
70
32
0
VERTEX
8
0
62
255
10
36.341788
20
-1.4682037
30
0
70
32
0
VERTEX
8
0
62
255
10
36.435526
20
-1.4847322
30
0
70
32
0
VERTEX
8
0
62
255
10
36.530123
20
-1.4952822
30
0
70
32
0
VERTEX
8
0
62
255
10
36.625199
20
-1.4998112
30
0
70
32
0
VERTEX
8
0
62
255
10
36.720371
20
-1.498301
30
0
70
32
0
VERTEX
8
0
62
255
10
36.815256
20
-1.4907577
30
0
70
32
0
VERTEX
8
0
62
255
10
36.90947
20
-1.4772116
30
0
70
32
0
VERTEX
8
0
62
255
10
37.002637
20
-1.4577174
30
0
70
32
0
VERTEX
8
0
62
255
10
37.094379
20
-1.4323534
30
0
70
32
0
VERTEX
8
0
62
255
10
37.184328
20
-1.4012218
30
0
70
32
0
VERTEX
8
0
62
255
10
37.272121
20
-1.364448
30
0
70
32
0
VERTEX
8
0
62
255
10
37.357405
20
-1.32218
30
0
70
32
0
VERTEX
8
0
62
255
10
37.439836
20
-1.2745881
30
0
70
32
0
VERTEX
8
0
62
255
10
37.519084
20
-1.2218639
30
0
70
32
0
VERTEX
8
0
62
255
10
37.594827
20
-1.1642197
30
0
70
32
0
VERTEX
8
0
62
255
10
37.666762
20
-1.1018876
30
0
70
32
0
VERTEX
8
0
62
255
10
37.734599
20
-1.0351185
30
0
70
32
0
VERTEX
8
0
62
255
10
37.798065
20
-0.96418141
30
0
70
32
0
VERTEX
8
0
62
255
10
37.856904
20
-0.88936189
30
0
70
32
0
VERTEX
8
0
62
255
10
37.910879
20
-0.81096123
30
0
70
32
0
VERTEX
8
0
62
255
10
37.959772
20
-0.7292951
30
0
70
32
0
VERTEX
8
0
62
255
10
38.003388
20
-0.64469237
30
0
70
32
0
VERTEX
8
0
62
255
10
38.04155
20
-0.55749368
30
0
70
32
0
VERTEX
8
0
62
255
10
38.074105
20
-0.46805017
30
0
70
32
0
VERTEX
8
0
62
255
10
38.100921
20
-0.37672198
30
0
70
32
0
VERTEX
8
0
62
255
10
38.121891
20
-0.28387687
30
0
70
32
0
VERTEX
8
0
62
255
10
38.13693
20
-0.18988868
30
0
70
32
0
VERTEX
8
0
62
255
10
38.145978
20
-0.095135879
30
0
70
32
0
VERTEX
8
0
62
255
10
38.148998
20
-3.6739404e-16
30
0
70
32
0
SEQEND
8
0
0
POLYLINE
8
0
62
255
66
1
10
0
20
0
30
0
70
8
0
VERTEX
8
0
62
255
10
-11.851002
20
100
30
0
70
32
0
VERTEX
8
0
62
255
10
-11.854022
20
100.09514
30
0
70
32
0
VERTEX
8
0
62
255
10
-11.86307
20
100.18989
30
0
70
32
0
VERTEX
8
0
62
255
10
-11.878109
20
100.28388
30
0
70
32
0
VERTEX
8
0
62
255
10
-11.899079
20
100.37672
30
0
70
32
0
VERTEX
8
0
62
255
10
-11.925895
20
100.46805
30
0
70
32
0
VERTEX
8
0
62
255
10
-11.95845
20
100.55749
30
0
70
32
0
VERTEX
8
0
62
255
10
-11.996612
20
100.64469
30
0
70
32
0
VERTEX
8
0
62
255
10
-12.040228
20
100.7293
30
0
70
32
0
VERTEX
8
0
62
255
10
-12.089121
20
100.81096
30
0
70
32
0
VERTEX
8
0
62
255
10
-12.143096
20
100.88936
30
0
70
32
0
VERTEX
8
0
62
255
10
-12.201935
20
100.96418
30
0
70
32
0
VERTEX
8
0
62
255
10
-12.265401
20
101.03512
30
0
70
32
0
VERTEX
8
0
62
255
10
-12.333238
20
101.10189
30
0
70
32
0
VERTEX
8
0
62
255
10
-12.405173
20
101.16422
30
0
70
32
0
VERTEX
8
0
62
255
10
-12.480916
20
101.22186
30
0
70
32
0
VERTEX
8
0
62
255
10
-12.560164
20
101.27459
30
0
70
32
0
VERTEX
8
0
62
255
10
-12.642595
20
101.32218
30
0
70
32
0
VERTEX
8
0
62
255
10
-12.727879
20
101.36445
30
0
70
32
0
VERTEX
8
0
62
255
10
-12.815672
20
101.40122
30
0
70
32
0
VERTEX
8
0
62
255
10
-12.905621
20
101.43235
30
0
70
32
0
VERTEX
8
0
62
255
10
-12.997363
20
101.45772
30
0
70
32
0
VERTEX
8
0
62
255
10
-13.09053
20
101.47721
30
0
70
32
0
VERTEX
8
0
62
255
10
-13.184744
20
101.49076
30
0
70
32
0
VERTEX
8
0
62
255
10
-13.279629
20
101.4983
30
0
70
32
0
VERTEX
8
0
62
255
10
-13.374801
20
101.49981
30
0
70
32
0
VERTEX
8
0
62
255
10
-13.469877
20
101.49528
30
0
70
32
0
VERTEX
8
0
62
255
10
-13.564474
20
101.48473
30
0
70
32
0
VERTEX
8
0
62
255
10
-13.658212
20
101.4682
30
0
70
32
0
VERTEX
8
0
62
255
10
-13.750713
20
101.44576
30
0
70
32
0
VERTEX
8
0
62
255
10
-13.841604
20
101.4175
30
0
70
32
0
VERTEX
8
0
62
255
10
-13.930519
20
101.38353
30
0
70
32
0
VERTEX
8
0
62
255
10
-14.017102
20
101.34399
30
0
70
32
0
VERTEX
8
0
62
255
10
-14.101002
20
101.29904
30
0
70
32
0
VERTEX
8
0
62
255
10
-14.181882
20
101.24885
30
0
70
32
0
VERTEX
8
0
62
255
10
-14.259416
20
101.19364
30
0
70
32
0
VERTEX
8
0
62
255
10
-14.333293
20
101.13362
30
0
70
32
0
VERTEX
8
0
62
255
10
-14.403214
20
101.06904
30
0
70
32
0
VERTEX
8
0
62
255
10
-14.468898
20
101.00015
30
0
70
32
0
VERTEX
8
0
62
255
10
-14.530081
20
100.92724
30
0
70
32
0
VERTEX
8
0
62
255
10
-14.586517
20
100.85059
30
0
70
32
0
VERTEX
8
0
62
255
10
-14.637977
20
100.77052
30
0
70
32
0
VERTEX
8
0
62
255
10
-14.684255
20
100.68734
30
0
70
32
0
VERTEX
8
0
62
255
10
-14.725164
20
100.6014
30
0
70
32
0
VERTEX
8
0
62
255
10
-14.760541
20
100.51303
30
0
70
32
0
VERTEX
8
0
62
255
10
-14.790241
20
100.4226
30
0
70
32
0
VERTEX
8
0
62
255
10
-14.814146
20
100.33047
30
0
70
32
0
VERTEX
8
0
62
255
10
-14.83216
20
100.237
30
0
70
32
0
VERTEX
8
0
62
255
10
-14.84421
20
100.14258
30
0
70
32
0
VERTEX
8
0
62
255
10
-14.850247
20
100.04759
30
0
70
32
0
VERTEX
8
0
62
255
10
-14.850247
20
99.952408
30
0
70
32
0
VERTEX
8
0
62
255
10
-14.84421
20
99.857416
30
0
70
32
0
VERTEX
8
0
62
255
10
-14.83216
20
99.762998
30
0
70
32
0
VERTEX
8
0
62
255
10
-14.814146
20
99.669534
30
0
70
32
0
VERTEX
8
0
62
255
10
-14.790241
20
99.577401
30
0
70
32
0
VERTEX
8
0
62
255
10
-14.760541
20
99.48697
30
0
70
32
0
VERTEX
8
0
62
255
10
-14.725164
20
99.398604
30
0
70
32
0
VERTEX
8
0
62
255
10
-14.684255
20
99.31266
30
0
70
32
0
VERTEX
8
0
62
255
10
-14.637977
20
99.229484
30
0
70
32
0
VERTEX
8
0
62
255
10
-14.586517
20
99.14941
30
0
70
32
0
VERTEX
8
0
62
255
10
-14.530081
20
99.072762
30
0
70
32
0
VERTEX
8
0
62
255
10
-14.468898
20
98.999846
30
0
70
32
0
VERTEX
8
0
62
255
10
-14.403214
20
98.930959
30
0
70
32
0
VERTEX
8
0
62
255
10
-14.333293
20
98.866376
30
0
70
32
0
VERTEX
8
0
62
255
10
-14.259416
20
98.806357
30
0
70
32
0
VERTEX
8
0
62
255
10
-14.181882
20
98.751145
30
0
70
32
0
VERTEX
8
0
62
255
10
-14.101002
20
98.700962
30
0
70
32
0
VERTEX
8
0
62
255
10
-14.017102
20
98.656009
30
0
70
32
0
VERTEX
8
0
62
255
10
-13.930519
20
98.616469
30
0
70
32
0
VERTEX
8
0
62
255
10
-13.841604
20
98.582499
30
0
70
32
0
VERTEX
8
0
62
255
10
-13.750713
20
98.554237
30
0
70
32
0
VERTEX
8
0
62
255
10
-13.658212
20
98.531796
30
0
70
32
0
VERTEX
8
0
62
255
10
-13.564474
20
98.515268
30
0
70
32
0
VERTEX
8
0
62
255
10
-13.469877
20
98.504718
30
0
70
32
0
VERTEX
8
0
62
255
10
-13.374801
20
98.500189
30
0
70
32
0
VERTEX
8
0
62
255
10
-13.279629
20
98.501699
30
0
70
32
0
VERTEX
8
0
62
255
10
-13.184744
20
98.509242
30
0
70
32
0
VERTEX
8
0
62
255
10
-13.09053
20
98.522788
30
0
70
32
0
VERTEX
8
0
62
255
10
-12.997363
20
98.542283
30
0
70
32
0
VERTEX
8
0
62
255
10
-12.905621
20
98.567647
30
0
70
32
0
VERTEX
8
0
62
255
10
-12.815672
20
98.598778
30
0
70
32
0
VERTEX
8
0
62
255
10
-12.727879
20
98.635552
30
0
70
32
0
VERTEX
8
0
62
255
10
-12.642595
20
98.67782
30
0
70
32
0
VERTEX
8
0
62
255
10
-12.560164
20
98.725412
30
0
70
32
0
VERTEX
8
0
62
255
10
-12.480916
20
98.778136
30
0
70
32
0
VERTEX
8
0
62
255
10
-12.405173
20
98.83578
30
0
70
32
0
VERTEX
8
0
62
255
10
-12.333238
20
98.898112
30
0
70
32
0
VERTEX
8
0
62
255
10
-12.265401
20
98.964881
30
0
70
32
0
VERTEX
8
0
62
255
10
-12.201935
20
99.035819
30
0
70
32
0
VERTEX
8
0
62
255
10
-12.143096
20
99.110638
30
0
70
32
0
VERTEX
8
0
62
255
10
-12.089121
20
99.189039
30
0
70
32
0
VERTEX
8
0
62
255
10
-12.040228
20
99.270705
30
0
70
32
0
VERTEX
8
0
62
255
10
-11.996612
20
99.355308
30
0
70
32
0
VERTEX
8
0
62
255
10
-11.95845
20
99.442506
30
0
70
32
0
VERTEX
8
0
62
255
10
-11.925895
20
99.53195
30
0
70
32
0
VERTEX
8
0
62
255
10
-11.899079
20
99.623278
30
0
70
32
0
VERTEX
8
0
62
255
10
-11.878109
20
99.716123
30
0
70
32
0
VERTEX
8
0
62
255
10
-11.86307
20
99.810111
30
0
70
32
0
VERTEX
8
0
62
255
10
-11.854022
20
99.904864
30
0
70
32
0
VERTEX
8
0
62
255
10
-11.851002
20
100
30
0
70
32
0
SEQEND
8
0
0
POLYLINE
8
0
62
255
66
1
10
0
20
0
30
0
70
8
0
VERTEX
8
0
62
255
10
38.148998
20
100
30
0
70
32
0
VERTEX
8
0
62
255
10
38.145978
20
100.09514
30
0
70
32
0
VERTEX
8
0
62
255
10
38.13693
20
100.18989
30
0
70
32
0
VERTEX
8
0
62
255
10
38.121891
20
100.28388
30
0
70
32
0
VERTEX
8
0
62
255
10
38.100921
20
100.37672
30
0
70
32
0
VERTEX
8
0
62
255
10
38.074105
20
100.46805
30
0
70
32
0
VERTEX
8
0
62
255
10
38.04155
20
100.55749
30
0
70
32
0
VERTEX
8
0
62
255
10
38.003388
20
100.64469
30
0
70
32
0
VERTEX
8
0
62
255
10
37.959772
20
100.7293
30
0
70
32
0
VERTEX
8
0
62
255
10
37.910879
20
100.81096
30
0
70
32
0
VERTEX
8
0
62
255
10
37.856904
20
100.88936
30
0
70
32
0
VERTEX
8
0
62
255
10
37.798065
20
100.96418
30
0
70
32
0
VERTEX
8
0
62
255
10
37.734599
20
101.03512
30
0
70
32
0
VERTEX
8
0
62
255
10
37.666762
20
101.10189
30
0
70
32
0
VERTEX
8
0
62
255
10
37.594827
20
101.16422
30
0
70
32
0
VERTEX
8
0
62
255
10
37.519084
20
101.22186
30
0
70
32
0
VERTEX
8
0
62
255
10
37.439836
20
101.27459
30
0
70
32
0
VERTEX
8
0
62
255
10
37.357405
20
101.32218
30
0
70
32
0
VERTEX
8
0
62
255
10
37.272121
20
101.36445
30
0
70
32
0
VERTEX
8
0
62
255
10
37.184328
20
101.40122
30
0
70
32
0
VERTEX
8
0
62
255
10
37.094379
20
101.43235
30
0
70
32
0
VERTEX
8
0
62
255
10
37.002637
20
101.45772
30
0
70
32
0
VERTEX
8
0
62
255
10
36.90947
20
101.47721
30
0
70
32
0
VERTEX
8
0
62
255
10
36.815256
20
101.49076
30
0
70
32
0
VERTEX
8
0
62
255
10
36.720371
20
101.4983
30
0
70
32
0
VERTEX
8
0
62
255
10
36.625199
20
101.49981
30
0
70
32
0
VERTEX
8
0
62
255
10
36.530123
20
101.49528
30
0
70
32
0
VERTEX
8
0
62
255
10
36.435526
20
101.48473
30
0
70
32
0
VERTEX
8
0
62
255
10
36.341788
20
101.4682
30
0
70
32
0
VERTEX
8
0
62
255
10
36.249287
20
101.44576
30
0
70
32
0
VERTEX
8
0
62
255
10
36.158396
20
101.4175
30
0
70
32
0
VERTEX
8
0
62
255
10
36.069481
20
101.38353
30
0
70
32
0
VERTEX
8
0
62
255
10
35.982898
20
101.34399
30
0
70
32
0
VERTEX
8
0
62
255
10
35.898998
20
101.29904
30
0
70
32
0
VERTEX
8
0
62
255
10
35.818118
20
101.24885
30
0
70
32
0
VERTEX
8
0
62
255
10
35.740584
20
101.19364
30
0
70
32
0
VERTEX
8
0
62
255
10
35.666707
20
101.13362
30
0
70
32
0
VERTEX
8
0
62
255
10
35.596786
20
101.06904
30
0
70
32
0
VERTEX
8
0
62
255
10
35.531102
20
101.00015
30
0
70
32
0
VERTEX
8
0
62
255
10
35.469919
20
100.92724
30
0
70
32
0
VERTEX
8
0
62
255
10
35.413483
20
100.85059
30
0
70
32
0
VERTEX
8
0
62
255
10
35.362023
20
100.77052
30
0
70
32
0
VERTEX
8
0
62
255
10
35.315745
20
100.68734
30
0
70
32
0
VERTEX
8
0
62
255
10
35.274836
20
100.6014
30
0
70
32
0
VERTEX
8
0
62
255
10
35.239459
20
100.51303
30
0
70
32
0
VERTEX
8
0
62
255
10
35.209759
20
100.4226
30
0
70
32
0
VERTEX
8
0
62
255
10
35.185854
20
100.33047
30
0
70
32
0
VERTEX
8
0
62
255
10
35.16784
20
100.237
30
0
70
32
0
VERTEX
8
0
62
255
10
35.15579
20
100.14258
30
0
70
32
0
VERTEX
8
0
62
255
10
35.149753
20
100.04759
30
0
70
32
0
VERTEX
8
0
62
255
10
35.149753
20
99.952408
30
0
70
32
0
VERTEX
8
0
62
255
10
35.15579
20
99.857416
30
0
70
32
0
VERTEX
8
0
62
255
10
35.16784
20
99.762998
30
0
70
32
0
VERTEX
8
0
62
255
10
35.185854
20
99.669534
30
0
70
32
0
VERTEX
8
0
62
255
10
35.209759
20
99.577401
30
0
70
32
0
VERTEX
8
0
62
255
10
35.239459
20
99.48697
30
0
70
32
0
VERTEX
8
0
62
255
10
35.274836
20
99.398604
30
0
70
32
0
VERTEX
8
0
62
255
10
35.315745
20
99.31266
30
0
70
32
0
VERTEX
8
0
62
255
10
35.362023
20
99.229484
30
0
70
32
0
VERTEX
8
0
62
255
10
35.413483
20
99.14941
30
0
70
32
0
VERTEX
8
0
62
255
10
35.469919
20
99.072762
30
0
70
32
0
VERTEX
8
0
62
255
10
35.531102
20
98.999846
30
0
70
32
0
VERTEX
8
0
62
255
10
35.596786
20
98.930959
30
0
70
32
0
VERTEX
8
0
62
255
10
35.666707
20
98.866376
30
0
70
32
0
VERTEX
8
0
62
255
10
35.740584
20
98.806357
30
0
70
32
0
VERTEX
8
0
62
255
10
35.818118
20
98.751145
30
0
70
32
0
VERTEX
8
0
62
255
10
35.898998
20
98.700962
30
0
70
32
0
VERTEX
8
0
62
255
10
35.982898
20
98.656009
30
0
70
32
0
VERTEX
8
0
62
255
10
36.069481
20
98.616469
30
0
70
32
0
VERTEX
8
0
62
255
10
36.158396
20
98.582499
30
0
70
32
0
VERTEX
8
0
62
255
10
36.249287
20
98.554237
30
0
70
32
0
VERTEX
8
0
62
255
10
36.341788
20
98.531796
30
0
70
32
0
VERTEX
8
0
62
255
10
36.435526
20
98.515268
30
0
70
32
0
VERTEX
8
0
62
255
10
36.530123
20
98.504718
30
0
70
32
0
VERTEX
8
0
62
255
10
36.625199
20
98.500189
30
0
70
32
0
VERTEX
8
0
62
255
10
36.720371
20
98.501699
30
0
70
32
0
VERTEX
8
0
62
255
10
36.815256
20
98.509242
30
0
70
32
0
VERTEX
8
0
62
255
10
36.90947
20
98.522788
30
0
70
32
0
VERTEX
8
0
62
255
10
37.002637
20
98.542283
30
0
70
32
0
VERTEX
8
0
62
255
10
37.094379
20
98.567647
30
0
70
32
0
VERTEX
8
0
62
255
10
37.184328
20
98.598778
30
0
70
32
0
VERTEX
8
0
62
255
10
37.272121
20
98.635552
30
0
70
32
0
VERTEX
8
0
62
255
10
37.357405
20
98.67782
30
0
70
32
0
VERTEX
8
0
62
255
10
37.439836
20
98.725412
30
0
70
32
0
VERTEX
8
0
62
255
10
37.519084
20
98.778136
30
0
70
32
0
VERTEX
8
0
62
255
10
37.594827
20
98.83578
30
0
70
32
0
VERTEX
8
0
62
255
10
37.666762
20
98.898112
30
0
70
32
0
VERTEX
8
0
62
255
10
37.734599
20
98.964881
30
0
70
32
0
VERTEX
8
0
62
255
10
37.798065
20
99.035819
30
0
70
32
0
VERTEX
8
0
62
255
10
37.856904
20
99.110638
30
0
70
32
0
VERTEX
8
0
62
255
10
37.910879
20
99.189039
30
0
70
32
0
VERTEX
8
0
62
255
10
37.959772
20
99.270705
30
0
70
32
0
VERTEX
8
0
62
255
10
38.003388
20
99.355308
30
0
70
32
0
VERTEX
8
0
62
255
10
38.04155
20
99.442506
30
0
70
32
0
VERTEX
8
0
62
255
10
38.074105
20
99.53195
30
0
70
32
0
VERTEX
8
0
62
255
10
38.100921
20
99.623278
30
0
70
32
0
VERTEX
8
0
62
255
10
38.121891
20
99.716123
30
0
70
32
0
VERTEX
8
0
62
255
10
38.13693
20
99.810111
30
0
70
32
0
VERTEX
8
0
62
255
10
38.145978
20
99.904864
30
0
70
32
0
VERTEX
8
0
62
255
10
38.148998
20
100
30
0
70
32
0
SEQEND
8
0
0
POLYLINE
8
0
62
255
66
1
10
0
20
0
30
0
70
8
0
VERTEX
8
0
62
255
10
18.071428
20
59.4
30
0
70
32
0
VERTEX
8
0
62
255
10
18.058497
20
59.807336
30
0
70
32
0
VERTEX
8
0
62
255
10
18.019758
20
60.213031
30
0
70
32
0
VERTEX
8
0
62
255
10
17.955366
20
60.615453
30
0
70
32
0
VERTEX
8
0
62
255
10
17.86558
20
61.01298
30
0
70
32
0
VERTEX
8
0
62
255
10
17.750763
20
61.404013
30
0
70
32
0
VERTEX
8
0
62
255
10
17.611376
20
61.786976
30
0
70
32
0
VERTEX
8
0
62
255
10
17.44798
20
62.160327
30
0
70
32
0
VERTEX
8
0
62
255
10
17.261234
20
62.522564
30
0
70
32
0
VERTEX
8
0
62
255
10
17.05189
20
62.872227
30
0
70
32
0
VERTEX
8
0
62
255
10
16.82079
20
63.207909
30
0
70
32
0
VERTEX
8
0
62
255
10
16.568864
20
63.528258
30
0
70
32
0
VERTEX
8
0
62
255
10
16.297129
20
63.831984
30
0
70
32
0
VERTEX
8
0
62
255
10
16.006677
20
64.117863
30
0
70
32
0
VERTEX
8
0
62
255
10
15.698678
20
64.384746
30
0
70
32
0
VERTEX
8
0
62
255
10
15.374373
20
64.631556
30
0
70
32
0
VERTEX
8
0
62
255
10
15.035067
20
64.857302
30
0
70
32
0
VERTEX
8
0
62
255
10
14.682126
20
65.061072
30
0
70
32
0
VERTEX
8
0
62
255
10
14.316972
20
65.242047
30
0
70
32
0
VERTEX
8
0
62
255
10
13.941075
20
65.399499
30
0
70
32
0
VERTEX
8
0
62
255
10
13.555948
20
65.532792
30
0
70
32
0
VERTEX
8
0
62
255
10
13.163143
20
65.641391
30
0
70
32
0
VERTEX
8
0
62
255
10
12.764241
20
65.724858
30
0
70
32
0
VERTEX
8
0
62
255
10
12.360849
20
65.782857
30
0
70
32
0
VERTEX
8
0
62
255
10
11.95459
20
65.815155
30
0
70
32
0
VERTEX
8
0
62
255
10
11.5471
20
65.821621
30
0
70
32
0
VERTEX
8
0
62
255
10
11.140021
20
65.802229
30
0
70
32
0
VERTEX
8
0
62
255
10
10.734991
20
65.757058
30
0
70
32
0
VERTEX
8
0
62
255
10
10.333642
20
65.68629
30
0
70
32
0
VERTEX
8
0
62
255
10
9.937589
20
65.590208
30
0
70
32
0
VERTEX
8
0
62
255
10
9.5484273
20
65.469201
30
0
70
32
0
VERTEX
8
0
62
255
10
9.1677239
20
65.323755
30
0
70
32
0
VERTEX
8
0
62
255
10
8.7970118
20
65.154457
30
0
70
32
0
VERTEX
8
0
62
255
10
8.4377836
20
64.961987
30
0
70
32
0
VERTEX
8
0
62
255
10
8.0914858
20
64.747121
30
0
70
32
0
VERTEX
8
0
62
255
10
7.7595128
20
64.510724
30
0
70
32
0
VERTEX
8
0
62
255
10
7.4432014
20
64.253748
30
0
70
32
0
VERTEX
8
0
62
255
10
7.1438253
20
63.977228
30
0
70
32
0
VERTEX
8
0
62
255
10
6.86259
20
63.682277
30
0
70
32
0
VERTEX
8
0
62
255
10
6.6006278
20
63.370082
30
0
70
32
0
VERTEX
8
0
62
255
10
6.3589936
20
63.041902
30
0
70
32
0
VERTEX
8
0
62
255
10
6.1386604
20
62.699057
30
0
70
32
0
VERTEX
8
0
62
255
10
5.9405154
20
62.342927
30
0
70
32
0
VERTEX
8
0
62
255
10
5.7653564
20
61.974948
30
0
70
32
0
VERTEX
8
0
62
255
10
5.6138888
20
61.5966
30
0
70
32
0
VERTEX
8
0
62
255
10
5.4867224
20
61.209407
30
0
70
32
0
VERTEX
8
0
62
255
10
5.3843694
20
60.814929
30
0
70
32
0
VERTEX
8
0
62
255
10
5.3072417
20
60.414753
30
0
70
32
0
VERTEX
8
0
62
255
10
5.2556502
20
60.010491
30
0
70
32
0
VERTEX
8
0
62
255
10
5.2298023
20
59.60377
30
0
70
32
0
VERTEX
8
0
62
255
10
5.2298023
20
59.19623
30
0
70
32
0
VERTEX
8
0
62
255
10
5.2556502
20
58.789509
30
0
70
32
0
VERTEX
8
0
62
255
10
5.3072417
20
58.385247
30
0
70
32
0
VERTEX
8
0
62
255
10
5.3843694
20
57.985071
30
0
70
32
0
VERTEX
8
0
62
255
10
5.4867224
20
57.590593
30
0
70
32
0
VERTEX
8
0
62
255
10
5.6138888
20
57.2034
30
0
70
32
0
VERTEX
8
0
62
255
10
5.7653564
20
56.825052
30
0
70
32
0
VERTEX
8
0
62
255
10
5.9405154
20
56.457073
30
0
70
32
0
VERTEX
8
0
62
255
10
6.1386604
20
56.100943
30
0
70
32
0
VERTEX
8
0
62
255
10
6.3589936
20
55.758098
30
0
70
32
0
VERTEX
8
0
62
255
10
6.6006278
20
55.429918
30
0
70
32
0
VERTEX
8
0
62
255
10
6.86259
20
55.117723
30
0
70
32
0
VERTEX
8
0
62
255
10
7.1438253
20
54.822772
30
0
70
32
0
VERTEX
8
0
62
255
10
7.4432014
20
54.546252
30
0
70
32
0
VERTEX
8
0
62
255
10
7.7595128
20
54.289276
30
0
70
32
0
VERTEX
8
0
62
255
10
8.0914858
20
54.052879
30
0
70
32
0
VERTEX
8
0
62
255
10
8.4377836
20
53.838013
30
0
70
32
0
VERTEX
8
0
62
255
10
8.7970118
20
53.645543
30
0
70
32
0
VERTEX
8
0
62
255
10
9.1677239
20
53.476245
30
0
70
32
0
VERTEX
8
0
62
255
10
9.5484273
20
53.330799
30
0
70
32
0
VERTEX
8
0
62
255
10
9.937589
20
53.209792
30
0
70
32
0
VERTEX
8
0
62
255
10
10.333642
20
53.11371
30
0
70
32
0
VERTEX
8
0
62
255
10
10.734991
20
53.042942
30
0
70
32
0
VERTEX
8
0
62
255
10
11.140021
20
52.997771
30
0
70
32
0
VERTEX
8
0
62
255
10
11.5471
20
52.978379
30
0
70
32
0
VERTEX
8
0
62
255
10
11.95459
20
52.984845
30
0
70
32
0
VERTEX
8
0
62
255
10
12.360849
20
53.017143
30
0
70
32
0
VERTEX
8
0
62
255
10
12.764241
20
53.075142
30
0
70
32
0
VERTEX
8
0
62
255
10
13.163143
20
53.158609
30
0
70
32
0
VERTEX
8
0
62
255
10
13.555948
20
53.267208
30
0
70
32
0
VERTEX
8
0
62
255
10
13.941075
20
53.400501
30
0
70
32
0
VERTEX
8
0
62
255
10
14.316972
20
53.557953
30
0
70
32
0
VERTEX
8
0
62
255
10
14.682126
20
53.738928
30
0
70
32
0
VERTEX
8
0
62
255
10
15.035067
20
53.942698
30
0
70
32
0
VERTEX
8
0
62
255
10
15.374373
20
54.168444
30
0
70
32
0
VERTEX
8
0
62
255
10
15.698678
20
54.415254
30
0
70
32
0
VERTEX
8
0
62
255
10
16.006677
20
54.682137
30
0
70
32
0
VERTEX
8
0
62
255
10
16.297129
20
54.968016
30
0
70
32
0
VERTEX
8
0
62
255
10
16.568864
20
55.271742
30
0
70
32
0
VERTEX
8
0
62
255
10
16.82079
20
55.592091
30
0
70
32
0
VERTEX
8
0
62
255
10
17.05189
20
55.927773
30
0
70
32
0
VERTEX
8
0
62
255
10
17.261234
20
56.277436
30
0
70
32
0
VERTEX
8
0
62
255
10
17.44798
20
56.639673
30
0
70
32
0
VERTEX
8
0
62
255
10
17.611376
20
57.013024
30
0
70
32
0
VERTEX
8
0
62
255
10
17.750763
20
57.395987
30
0
70
32
0
VERTEX
8
0
62
255
10
17.86558
20
57.78702
30
0
70
32
0
VERTEX
8
0
62
255
10
17.955366
20
58.184547
30
0
70
32
0
VERTEX
8
0
62
255
10
18.019758
20
58.586969
30
0
70
32
0
VERTEX
8
0
62
255
10
18.058497
20
58.992664
30
0
70
32
0
VERTEX
8
0
62
255
10
18.071428
20
59.4
30
0
70
32
0
SEQEND
8
0
0
POLYLINE
8
0
62
255
66
1
10
0
20
0
30
0
70
8
0
VERTEX
8
0
62
255
10
0
20
0
30
0
70
32
0
VERTEX
8
0
62
255
10
0.2353333
20
-0
30
0
70
32
0
VERTEX
8
0
62
255
10
0.47066659
20
-0
30
0
70
32
0
VERTEX
8
0
62
255
10
0.70599989
20
-0
30
0
70
32
0
VERTEX
8
0
62
255
10
0.94133319
20
-0
30
0
70
32
0
VERTEX
8
0
62
255
10
1.1766665
20
-0
30
0
70
32
0
VERTEX
8
0
62
255
10
1.4119998
20
-0
30
0
70
32
0
VERTEX
8
0
62
255
10
1.6473331
20
-0
30
0
70
32
0
VERTEX
8
0
62
255
10
1.8826664
20
-0
30
0
70
32
0
VERTEX
8
0
62
255
10
2.1179997
20
-0
30
0
70
32
0
VERTEX
8
0
62
255
10
2.353333
20
-0
30
0
70
32
0
VERTEX
8
0
62
255
10
2.5886663
20
-0
30
0
70
32
0
VERTEX
8
0
62
255
10
2.8239996
20
-0
30
0
70
32
0
VERTEX
8
0
62
255
10
3.0593329
20
-0
30
0
70
32
0
VERTEX
8
0
62
255
10
3.2946662
20
-0
30
0
70
32
0
VERTEX
8
0
62
255
10
3.5299995
20
-0
30
0
70
32
0
VERTEX
8
0
62
255
10
3.7653328
20
-0
30
0
70
32
0
VERTEX
8
0
62
255
10
4.0006661
20
-0
30
0
70
32
0
VERTEX
8
0
62
255
10
4.2359993
20
-0
30
0
70
32
0
VERTEX
8
0
62
255
10
4.4713326
20
-0
30
0
70
32
0
VERTEX
8
0
62
255
10
4.7066659
20
-0
30
0
70
32
0
VERTEX
8
0
62
255
10
4.9419992
20
-0
30
0
70
32
0
VERTEX
8
0
62
255
10
5.1773325
20
-0
30
0
70
32
0
VERTEX
8
0
62
255
10
5.4126658
20
-0
30
0
70
32
0
VERTEX
8
0
62
255
10
5.6479991
20
-0
30
0
70
32
0
VERTEX
8
0
62
255
10
5.8833324
20
-0
30
0
70
32
0
VERTEX
8
0
62
255
10
6.1186657
20
-0
30
0
70
32
0
VERTEX
8
0
62
255
10
6.353999
20
-0
30
0
70
32
0
VERTEX
8
0
62
255
10
6.5893323
20
-0
30
0
70
32
0
VERTEX
8
0
62
255
10
6.8246656
20
-0
30
0
70
32
0
VERTEX
8
0
62
255
10
7.0599989
20
-0
30
0
70
32
0
VERTEX
8
0
62
255
10
7.2953322
20
-0
30
0
70
32
0
VERTEX
8
0
62
255
10
7.5306655
20
-0
30
0
70
32
0
VERTEX
8
0
62
255
10
7.7659988
20
-0
30
0
70
32
0
VERTEX
8
0
62
255
10
8.0013321
20
-0
30
0
70
32
0
VERTEX
8
0
62
255
10
8.2366654
20
-0
30
0
70
32
0
VERTEX
8
0
62
255
10
8.4719987
20
-0
30
0
70
32
0
VERTEX
8
0
62
255
10
8.707332
20
-0
30
0
70
32
0
VERTEX
8
0
62
255
10
8.9426653
20
-0
30
0
70
32
0
VERTEX
8
0
62
255
10
9.1779986
20
-0
30
0
70
32
0
VERTEX
8
0
62
255
10
9.4133319
20
-0
30
0
70
32
0
VERTEX
8
0
62
255
10
9.6486652
20
-0
30
0
70
32
0
VERTEX
8
0
62
255
10
9.8839985
20
-0
30
0
70
32
0
VERTEX
8
0
62
255
10
10.119332
20
-0
30
0
70
32
0
VERTEX
8
0
62
255
10
10.354665
20
-0
30
0
70
32
0
VERTEX
8
0
62
255
10
10.589998
20
-0
30
0
70
32
0
VERTEX
8
0
62
255
10
10.825332
20
-0
30
0
70
32
0
VERTEX
8
0
62
255
10
11.060665
20
-0
30
0
70
32
0
VERTEX
8
0
62
255
10
11.295998
20
-0
30
0
70
32
0
VERTEX
8
0
62
255
10
11.531332
20
-0
30
0
70
32
0
VERTEX
8
0
62
255
10
11.766665
20
0
30
0
70
32
0
VERTEX
8
0
62
255
10
12.001998
20
0
30
0
70
32
0
VERTEX
8
0
62
255
10
12.237331
20
0
30
0
70
32
0
VERTEX
8
0
62
255
10
12.472665
20
0
30
0
70
32
0
VERTEX
8
0
62
255
10
12.707998
20
0
30
0
70
32
0
VERTEX
8
0
62
255
10
12.943331
20
0
30
0
70
32
0
VERTEX
8
0
62
255
10
13.178665
20
0
30
0
70
32
0
VERTEX
8
0
62
255
10
13.413998
20
0
30
0
70
32
0
VERTEX
8
0
62
255
10
13.649331
20
0
30
0
70
32
0
VERTEX
8
0
62
255
10
13.884665
20
0
30
0
70
32
0
VERTEX
8
0
62
255
10
14.119998
20
0
30
0
70
32
0
VERTEX
8
0
62
255
10
14.355331
20
0
30
0
70
32
0
VERTEX
8
0
62
255
10
14.590664
20
0
30
0
70
32
0
VERTEX
8
0
62
255
10
14.825998
20
0
30
0
70
32
0
VERTEX
8
0
62
255
10
15.061331
20
0
30
0
70
32
0
VERTEX
8
0
62
255
10
15.296664
20
0
30
0
70
32
0
VERTEX
8
0
62
255
10
15.531998
20
0
30
0
70
32
0
VERTEX
8
0
62
255
10
15.767331
20
0
30
0
70
32
0
VERTEX
8
0
62
255
10
16.002664
20
0
30
0
70
32
0
VERTEX
8
0
62
255
10
16.237998
20
0
30
0
70
32
0
VERTEX
8
0
62
255
10
16.473331
20
0
30
0
70
32
0
VERTEX
8
0
62
255
10
16.708664
20
0
30
0
70
32
0
VERTEX
8
0
62
255
10
16.943997
20
0
30
0
70
32
0
VERTEX
8
0
62
255
10
17.179331
20
0
30
0
70
32
0
VERTEX
8
0
62
255
10
17.414664
20
0
30
0
70
32
0
VERTEX
8
0
62
255
10
17.649997
20
0
30
0
70
32
0
VERTEX
8
0
62
255
10
17.885331
20
0
30
0
70
32
0
VERTEX
8
0
62
255
10
18.120664
20
0
30
0
70
32
0
VERTEX
8
0
62
255
10
18.355997
20
0
30
0
70
32
0
VERTEX
8
0
62
255
10
18.59133
20
0
30
0
70
32
0
VERTEX
8
0
62
255
10
18.826664
20
0
30
0
70
32
0
VERTEX
8
0
62
255
10
19.061997
20
0
30
0
70
32
0
VERTEX
8
0
62
255
10
19.29733
20
0
30
0
70
32
0
VERTEX
8
0
62
255
10
19.532664
20
0
30
0
70
32
0
VERTEX
8
0
62
255
10
19.767997
20
0
30
0
70
32
0
VERTEX
8
0
62
255
10
20.00333
20
0
30
0
70
32
0
VERTEX
8
0
62
255
10
20.238664
20
0
30
0
70
32
0
VERTEX
8
0
62
255
10
20.473997
20
0
30
0
70
32
0
VERTEX
8
0
62
255
10
20.70933
20
0
30
0
70
32
0
VERTEX
8
0
62
255
10
20.944663
20
0
30
0
70
32
0
VERTEX
8
0
62
255
10
21.179997
20
0
30
0
70
32
0
VERTEX
8
0
62
255
10
21.41533
20
0
30
0
70
32
0
VERTEX
8
0
62
255
10
21.650663
20
0
30
0
70
32
0
VERTEX
8
0
62
255
10
21.885997
20
0
30
0
70
32
0
VERTEX
8
0
62
255
10
22.12133
20
0
30
0
70
32
0
VERTEX
8
0
62
255
10
22.356663
20
0
30
0
70
32
0
VERTEX
8
0
62
255
10
22.591997
20
0
30
0
70
32
0
VERTEX
8
0
62
255
10
22.82733
20
0
30
0
70
32
0
VERTEX
8
0
62
255
10
23.062663
20
0
30
0
70
32
0
VERTEX
8
0
62
255
10
23.297996
20
0
30
0
70
32
0
SEQEND
8
0
0
POLYLINE
8
0
62
255
66
1
10
0
20
0
30
0
70
8
0
VERTEX
8
0
62
255
10
23.297996
20
0
30
0
70
32
0
VERTEX
8
0
62
255
10
23.297996
20
0.01010101
30
0
70
32
0
VERTEX
8
0
62
255
10
23.297996
20
0.02020202
30
0
70
32
0
VERTEX
8
0
62
255
10
23.297996
20
0.03030303
30
0
70
32
0
VERTEX
8
0
62
255
10
23.297996
20
0.04040404
30
0
70
32
0
VERTEX
8
0
62
255
10
23.297996
20
0.050505051
30
0
70
32
0
VERTEX
8
0
62
255
10
23.297996
20
0.060606061
30
0
70
32
0
VERTEX
8
0
62
255
10
23.297996
20
0.070707071
30
0
70
32
0
VERTEX
8
0
62
255
10
23.297996
20
0.080808081
30
0
70
32
0
VERTEX
8
0
62
255
10
23.297996
20
0.090909091
30
0
70
32
0
VERTEX
8
0
62
255
10
23.297996
20
0.1010101
30
0
70
32
0
VERTEX
8
0
62
255
10
23.297996
20
0.11111111
30
0
70
32
0
VERTEX
8
0
62
255
10
23.297996
20
0.12121212
30
0
70
32
0
VERTEX
8
0
62
255
10
23.297996
20
0.13131313
30
0
70
32
0
VERTEX
8
0
62
255
10
23.297996
20
0.14141414
30
0
70
32
0
VERTEX
8
0
62
255
10
23.297996
20
0.15151515
30
0
70
32
0
VERTEX
8
0
62
255
10
23.297996
20
0.16161616
30
0
70
32
0
VERTEX
8
0
62
255
10
23.297996
20
0.17171717
30
0
70
32
0
VERTEX
8
0
62
255
10
23.297996
20
0.18181818
30
0
70
32
0
VERTEX
8
0
62
255
10
23.297996
20
0.19191919
30
0
70
32
0
VERTEX
8
0
62
255
10
23.297996
20
0.2020202
30
0
70
32
0
VERTEX
8
0
62
255
10
23.297996
20
0.21212121
30
0
70
32
0
VERTEX
8
0
62
255
10
23.297996
20
0.22222222
30
0
70
32
0
VERTEX
8
0
62
255
10
23.297996
20
0.23232323
30
0
70
32
0
VERTEX
8
0
62
255
10
23.297996
20
0.24242424
30
0
70
32
0
VERTEX
8
0
62
255
10
23.297996
20
0.25252525
30
0
70
32
0
VERTEX
8
0
62
255
10
23.297996
20
0.26262626
30
0
70
32
0
VERTEX
8
0
62
255
10
23.297996
20
0.27272727
30
0
70
32
0
VERTEX
8
0
62
255
10
23.297996
20
0.28282828
30
0
70
32
0
VERTEX
8
0
62
255
10
23.297996
20
0.29292929
30
0
70
32
0
VERTEX
8
0
62
255
10
23.297996
20
0.3030303
30
0
70
32
0
VERTEX
8
0
62
255
10
23.297996
20
0.31313131
30
0
70
32
0
VERTEX
8
0
62
255
10
23.297996
20
0.32323232
30
0
70
32
0
VERTEX
8
0
62
255
10
23.297996
20
0.33333333
30
0
70
32
0
VERTEX
8
0
62
255
10
23.297996
20
0.34343434
30
0
70
32
0
VERTEX
8
0
62
255
10
23.297996
20
0.35353535
30
0
70
32
0
VERTEX
8
0
62
255
10
23.297996
20
0.36363636
30
0
70
32
0
VERTEX
8
0
62
255
10
23.297996
20
0.37373737
30
0
70
32
0
VERTEX
8
0
62
255
10
23.297996
20
0.38383838
30
0
70
32
0
VERTEX
8
0
62
255
10
23.297996
20
0.39393939
30
0
70
32
0
VERTEX
8
0
62
255
10
23.297996
20
0.4040404
30
0
70
32
0
VERTEX
8
0
62
255
10
23.297996
20
0.41414141
30
0
70
32
0
VERTEX
8
0
62
255
10
23.297996
20
0.42424242
30
0
70
32
0
VERTEX
8
0
62
255
10
23.297996
20
0.43434343
30
0
70
32
0
VERTEX
8
0
62
255
10
23.297996
20
0.44444444
30
0
70
32
0
VERTEX
8
0
62
255
10
23.297996
20
0.45454545
30
0
70
32
0
VERTEX
8
0
62
255
10
23.297996
20
0.46464646
30
0
70
32
0
VERTEX
8
0
62
255
10
23.297996
20
0.47474747
30
0
70
32
0
VERTEX
8
0
62
255
10
23.297996
20
0.48484848
30
0
70
32
0
VERTEX
8
0
62
255
10
23.297996
20
0.49494949
30
0
70
32
0
VERTEX
8
0
62
255
10
23.297996
20
0.50505051
30
0
70
32
0
VERTEX
8
0
62
255
10
23.297996
20
0.51515152
30
0
70
32
0
VERTEX
8
0
62
255
10
23.297996
20
0.52525253
30
0
70
32
0
VERTEX
8
0
62
255
10
23.297996
20
0.53535354
30
0
70
32
0
VERTEX
8
0
62
255
10
23.297996
20
0.54545455
30
0
70
32
0
VERTEX
8
0
62
255
10
23.297996
20
0.55555556
30
0
70
32
0
VERTEX
8
0
62
255
10
23.297996
20
0.56565657
30
0
70
32
0
VERTEX
8
0
62
255
10
23.297996
20
0.57575758
30
0
70
32
0
VERTEX
8
0
62
255
10
23.297996
20
0.58585859
30
0
70
32
0
VERTEX
8
0
62
255
10
23.297996
20
0.5959596
30
0
70
32
0
VERTEX
8
0
62
255
10
23.297996
20
0.60606061
30
0
70
32
0
VERTEX
8
0
62
255
10
23.297996
20
0.61616162
30
0
70
32
0
VERTEX
8
0
62
255
10
23.297996
20
0.62626263
30
0
70
32
0
VERTEX
8
0
62
255
10
23.297996
20
0.63636364
30
0
70
32
0
VERTEX
8
0
62
255
10
23.297996
20
0.64646465
30
0
70
32
0
VERTEX
8
0
62
255
10
23.297996
20
0.65656566
30
0
70
32
0
VERTEX
8
0
62
255
10
23.297996
20
0.66666667
30
0
70
32
0
VERTEX
8
0
62
255
10
23.297996
20
0.67676768
30
0
70
32
0
VERTEX
8
0
62
255
10
23.297996
20
0.68686869
30
0
70
32
0
VERTEX
8
0
62
255
10
23.297996
20
0.6969697
30
0
70
32
0
VERTEX
8
0
62
255
10
23.297996
20
0.70707071
30
0
70
32
0
VERTEX
8
0
62
255
10
23.297996
20
0.71717172
30
0
70
32
0
VERTEX
8
0
62
255
10
23.297996
20
0.72727273
30
0
70
32
0
VERTEX
8
0
62
255
10
23.297996
20
0.73737374
30
0
70
32
0
VERTEX
8
0
62
255
10
23.297996
20
0.74747475
30
0
70
32
0
VERTEX
8
0
62
255
10
23.297996
20
0.75757576
30
0
70
32
0
VERTEX
8
0
62
255
10
23.297996
20
0.76767677
30
0
70
32
0
VERTEX
8
0
62
255
10
23.297996
20
0.77777778
30
0
70
32
0
VERTEX
8
0
62
255
10
23.297996
20
0.78787879
30
0
70
32
0
VERTEX
8
0
62
255
10
23.297996
20
0.7979798
30
0
70
32
0
VERTEX
8
0
62
255
10
23.297996
20
0.80808081
30
0
70
32
0
VERTEX
8
0
62
255
10
23.297996
20
0.81818182
30
0
70
32
0
VERTEX
8
0
62
255
10
23.297996
20
0.82828283
30
0
70
32
0
VERTEX
8
0
62
255
10
23.297996
20
0.83838384
30
0
70
32
0
VERTEX
8
0
62
255
10
23.297996
20
0.84848485
30
0
70
32
0
VERTEX
8
0
62
255
10
23.297996
20
0.85858586
30
0
70
32
0
VERTEX
8
0
62
255
10
23.297996
20
0.86868687
30
0
70
32
0
VERTEX
8
0
62
255
10
23.297996
20
0.87878788
30
0
70
32
0
VERTEX
8
0
62
255
10
23.297996
20
0.88888889
30
0
70
32
0
VERTEX
8
0
62
255
10
23.297996
20
0.8989899
30
0
70
32
0
VERTEX
8
0
62
255
10
23.297996
20
0.90909091
30
0
70
32
0
VERTEX
8
0
62
255
10
23.297996
20
0.91919192
30
0
70
32
0
VERTEX
8
0
62
255
10
23.297996
20
0.92929293
30
0
70
32
0
VERTEX
8
0
62
255
10
23.297996
20
0.93939394
30
0
70
32
0
VERTEX
8
0
62
255
10
23.297996
20
0.94949495
30
0
70
32
0
VERTEX
8
0
62
255
10
23.297996
20
0.95959596
30
0
70
32
0
VERTEX
8
0
62
255
10
23.297996
20
0.96969697
30
0
70
32
0
VERTEX
8
0
62
255
10
23.297996
20
0.97979798
30
0
70
32
0
VERTEX
8
0
62
255
10
23.297996
20
0.98989899
30
0
70
32
0
VERTEX
8
0
62
255
10
23.297996
20
1
30
0
70
32
0
SEQEND
8
0
0
POLYLINE
8
0
62
255
66
1
10
0
20
0
30
0
70
8
0
VERTEX
8
0
62
255
10
23.297996
20
1
30
0
70
32
0
VERTEX
8
0
62
255
10
23.062663
20
1
30
0
70
32
0
VERTEX
8
0
62
255
10
22.82733
20
1
30
0
70
32
0
VERTEX
8
0
62
255
10
22.591997
20
1
30
0
70
32
0
VERTEX
8
0
62
255
10
22.356663
20
1
30
0
70
32
0
VERTEX
8
0
62
255
10
22.12133
20
1
30
0
70
32
0
VERTEX
8
0
62
255
10
21.885997
20
1
30
0
70
32
0
VERTEX
8
0
62
255
10
21.650663
20
1
30
0
70
32
0
VERTEX
8
0
62
255
10
21.41533
20
1
30
0
70
32
0
VERTEX
8
0
62
255
10
21.179997
20
1
30
0
70
32
0
VERTEX
8
0
62
255
10
20.944663
20
1
30
0
70
32
0
VERTEX
8
0
62
255
10
20.70933
20
1
30
0
70
32
0
VERTEX
8
0
62
255
10
20.473997
20
1
30
0
70
32
0
VERTEX
8
0
62
255
10
20.238664
20
1
30
0
70
32
0
VERTEX
8
0
62
255
10
20.00333
20
1
30
0
70
32
0
VERTEX
8
0
62
255
10
19.767997
20
1
30
0
70
32
0
VERTEX
8
0
62
255
10
19.532664
20
1
30
0
70
32
0
VERTEX
8
0
62
255
10
19.29733
20
1
30
0
70
32
0
VERTEX
8
0
62
255
10
19.061997
20
1
30
0
70
32
0
VERTEX
8
0
62
255
10
18.826664
20
1
30
0
70
32
0
VERTEX
8
0
62
255
10
18.59133
20
1
30
0
70
32
0
VERTEX
8
0
62
255
10
18.355997
20
1
30
0
70
32
0
VERTEX
8
0
62
255
10
18.120664
20
1
30
0
70
32
0
VERTEX
8
0
62
255
10
17.885331
20
1
30
0
70
32
0
VERTEX
8
0
62
255
10
17.649997
20
1
30
0
70
32
0
VERTEX
8
0
62
255
10
17.414664
20
1
30
0
70
32
0
VERTEX
8
0
62
255
10
17.179331
20
1
30
0
70
32
0
VERTEX
8
0
62
255
10
16.943997
20
1
30
0
70
32
0
VERTEX
8
0
62
255
10
16.708664
20
1
30
0
70
32
0
VERTEX
8
0
62
255
10
16.473331
20
1
30
0
70
32
0
VERTEX
8
0
62
255
10
16.237998
20
1
30
0
70
32
0
VERTEX
8
0
62
255
10
16.002664
20
1
30
0
70
32
0
VERTEX
8
0
62
255
10
15.767331
20
1
30
0
70
32
0
VERTEX
8
0
62
255
10
15.531998
20
1
30
0
70
32
0
VERTEX
8
0
62
255
10
15.296664
20
1
30
0
70
32
0
VERTEX
8
0
62
255
10
15.061331
20
1
30
0
70
32
0
VERTEX
8
0
62
255
10
14.825998
20
1
30
0
70
32
0
VERTEX
8
0
62
255
10
14.590664
20
1
30
0
70
32
0
VERTEX
8
0
62
255
10
14.355331
20
1
30
0
70
32
0
VERTEX
8
0
62
255
10
14.119998
20
1
30
0
70
32
0
VERTEX
8
0
62
255
10
13.884665
20
1
30
0
70
32
0
VERTEX
8
0
62
255
10
13.649331
20
1
30
0
70
32
0
VERTEX
8
0
62
255
10
13.413998
20
1
30
0
70
32
0
VERTEX
8
0
62
255
10
13.178665
20
1
30
0
70
32
0
VERTEX
8
0
62
255
10
12.943331
20
1
30
0
70
32
0
VERTEX
8
0
62
255
10
12.707998
20
1
30
0
70
32
0
VERTEX
8
0
62
255
10
12.472665
20
1
30
0
70
32
0
VERTEX
8
0
62
255
10
12.237331
20
1
30
0
70
32
0
VERTEX
8
0
62
255
10
12.001998
20
1
30
0
70
32
0
VERTEX
8
0
62
255
10
11.766665
20
1
30
0
70
32
0
VERTEX
8
0
62
255
10
11.531332
20
1
30
0
70
32
0
VERTEX
8
0
62
255
10
11.295998
20
1
30
0
70
32
0
VERTEX
8
0
62
255
10
11.060665
20
1
30
0
70
32
0
VERTEX
8
0
62
255
10
10.825332
20
1
30
0
70
32
0
VERTEX
8
0
62
255
10
10.589998
20
1
30
0
70
32
0
VERTEX
8
0
62
255
10
10.354665
20
1
30
0
70
32
0
VERTEX
8
0
62
255
10
10.119332
20
1
30
0
70
32
0
VERTEX
8
0
62
255
10
9.8839985
20
1
30
0
70
32
0
VERTEX
8
0
62
255
10
9.6486652
20
1
30
0
70
32
0
VERTEX
8
0
62
255
10
9.4133319
20
1
30
0
70
32
0
VERTEX
8
0
62
255
10
9.1779986
20
1
30
0
70
32
0
VERTEX
8
0
62
255
10
8.9426653
20
1
30
0
70
32
0
VERTEX
8
0
62
255
10
8.707332
20
1
30
0
70
32
0
VERTEX
8
0
62
255
10
8.4719987
20
1
30
0
70
32
0
VERTEX
8
0
62
255
10
8.2366654
20
1
30
0
70
32
0
VERTEX
8
0
62
255
10
8.0013321
20
1
30
0
70
32
0
VERTEX
8
0
62
255
10
7.7659988
20
1
30
0
70
32
0
VERTEX
8
0
62
255
10
7.5306655
20
1
30
0
70
32
0
VERTEX
8
0
62
255
10
7.2953322
20
1
30
0
70
32
0
VERTEX
8
0
62
255
10
7.0599989
20
1
30
0
70
32
0
VERTEX
8
0
62
255
10
6.8246656
20
1
30
0
70
32
0
VERTEX
8
0
62
255
10
6.5893323
20
1
30
0
70
32
0
VERTEX
8
0
62
255
10
6.353999
20
1
30
0
70
32
0
VERTEX
8
0
62
255
10
6.1186657
20
1
30
0
70
32
0
VERTEX
8
0
62
255
10
5.8833324
20
1
30
0
70
32
0
VERTEX
8
0
62
255
10
5.6479991
20
1
30
0
70
32
0
VERTEX
8
0
62
255
10
5.4126658
20
1
30
0
70
32
0
VERTEX
8
0
62
255
10
5.1773325
20
1
30
0
70
32
0
VERTEX
8
0
62
255
10
4.9419992
20
1
30
0
70
32
0
VERTEX
8
0
62
255
10
4.7066659
20
1
30
0
70
32
0
VERTEX
8
0
62
255
10
4.4713326
20
1
30
0
70
32
0
VERTEX
8
0
62
255
10
4.2359993
20
1
30
0
70
32
0
VERTEX
8
0
62
255
10
4.0006661
20
1
30
0
70
32
0
VERTEX
8
0
62
255
10
3.7653328
20
1
30
0
70
32
0
VERTEX
8
0
62
255
10
3.5299995
20
1
30
0
70
32
0
VERTEX
8
0
62
255
10
3.2946662
20
1
30
0
70
32
0
VERTEX
8
0
62
255
10
3.0593329
20
1
30
0
70
32
0
VERTEX
8
0
62
255
10
2.8239996
20
1
30
0
70
32
0
VERTEX
8
0
62
255
10
2.5886663
20
1
30
0
70
32
0
VERTEX
8
0
62
255
10
2.353333
20
1
30
0
70
32
0
VERTEX
8
0
62
255
10
2.1179997
20
1
30
0
70
32
0
VERTEX
8
0
62
255
10
1.8826664
20
1
30
0
70
32
0
VERTEX
8
0
62
255
10
1.6473331
20
1
30
0
70
32
0
VERTEX
8
0
62
255
10
1.4119998
20
1
30
0
70
32
0
VERTEX
8
0
62
255
10
1.1766665
20
1
30
0
70
32
0
VERTEX
8
0
62
255
10
0.94133319
20
1
30
0
70
32
0
VERTEX
8
0
62
255
10
0.70599989
20
1
30
0
70
32
0
VERTEX
8
0
62
255
10
0.47066659
20
1
30
0
70
32
0
VERTEX
8
0
62
255
10
0.2353333
20
1
30
0
70
32
0
VERTEX
8
0
62
255
10
0
20
1
30
0
70
32
0
SEQEND
8
0
0
POLYLINE
8
0
62
255
66
1
10
0
20
0
30
0
70
8
0
VERTEX
8
0
62
255
10
0
20
1
30
0
70
32
0
VERTEX
8
0
62
255
10
-0
20
0.98989899
30
0
70
32
0
VERTEX
8
0
62
255
10
-0
20
0.97979798
30
0
70
32
0
VERTEX
8
0
62
255
10
-0
20
0.96969697
30
0
70
32
0
VERTEX
8
0
62
255
10
-0
20
0.95959596
30
0
70
32
0
VERTEX
8
0
62
255
10
-0
20
0.94949495
30
0
70
32
0
VERTEX
8
0
62
255
10
-0
20
0.93939394
30
0
70
32
0
VERTEX
8
0
62
255
10
-0
20
0.92929293
30
0
70
32
0
VERTEX
8
0
62
255
10
-0
20
0.91919192
30
0
70
32
0
VERTEX
8
0
62
255
10
-0
20
0.90909091
30
0
70
32
0
VERTEX
8
0
62
255
10
-0
20
0.8989899
30
0
70
32
0
VERTEX
8
0
62
255
10
-0
20
0.88888889
30
0
70
32
0
VERTEX
8
0
62
255
10
-0
20
0.87878788
30
0
70
32
0
VERTEX
8
0
62
255
10
-0
20
0.86868687
30
0
70
32
0
VERTEX
8
0
62
255
10
-0
20
0.85858586
30
0
70
32
0
VERTEX
8
0
62
255
10
-0
20
0.84848485
30
0
70
32
0
VERTEX
8
0
62
255
10
-0
20
0.83838384
30
0
70
32
0
VERTEX
8
0
62
255
10
-0
20
0.82828283
30
0
70
32
0
VERTEX
8
0
62
255
10
-0
20
0.81818182
30
0
70
32
0
VERTEX
8
0
62
255
10
-0
20
0.80808081
30
0
70
32
0
VERTEX
8
0
62
255
10
-0
20
0.7979798
30
0
70
32
0
VERTEX
8
0
62
255
10
-0
20
0.78787879
30
0
70
32
0
VERTEX
8
0
62
255
10
-0
20
0.77777778
30
0
70
32
0
VERTEX
8
0
62
255
10
-0
20
0.76767677
30
0
70
32
0
VERTEX
8
0
62
255
10
-0
20
0.75757576
30
0
70
32
0
VERTEX
8
0
62
255
10
-0
20
0.74747475
30
0
70
32
0
VERTEX
8
0
62
255
10
-0
20
0.73737374
30
0
70
32
0
VERTEX
8
0
62
255
10
-0
20
0.72727273
30
0
70
32
0
VERTEX
8
0
62
255
10
-0
20
0.71717172
30
0
70
32
0
VERTEX
8
0
62
255
10
-0
20
0.70707071
30
0
70
32
0
VERTEX
8
0
62
255
10
-0
20
0.6969697
30
0
70
32
0
VERTEX
8
0
62
255
10
-0
20
0.68686869
30
0
70
32
0
VERTEX
8
0
62
255
10
-0
20
0.67676768
30
0
70
32
0
VERTEX
8
0
62
255
10
-0
20
0.66666667
30
0
70
32
0
VERTEX
8
0
62
255
10
-0
20
0.65656566
30
0
70
32
0
VERTEX
8
0
62
255
10
-0
20
0.64646465
30
0
70
32
0
VERTEX
8
0
62
255
10
-0
20
0.63636364
30
0
70
32
0
VERTEX
8
0
62
255
10
-0
20
0.62626263
30
0
70
32
0
VERTEX
8
0
62
255
10
-0
20
0.61616162
30
0
70
32
0
VERTEX
8
0
62
255
10
-0
20
0.60606061
30
0
70
32
0
VERTEX
8
0
62
255
10
-0
20
0.5959596
30
0
70
32
0
VERTEX
8
0
62
255
10
-0
20
0.58585859
30
0
70
32
0
VERTEX
8
0
62
255
10
-0
20
0.57575758
30
0
70
32
0
VERTEX
8
0
62
255
10
-0
20
0.56565657
30
0
70
32
0
VERTEX
8
0
62
255
10
-0
20
0.55555556
30
0
70
32
0
VERTEX
8
0
62
255
10
-0
20
0.54545455
30
0
70
32
0
VERTEX
8
0
62
255
10
-0
20
0.53535354
30
0
70
32
0
VERTEX
8
0
62
255
10
-0
20
0.52525253
30
0
70
32
0
VERTEX
8
0
62
255
10
-0
20
0.51515152
30
0
70
32
0
VERTEX
8
0
62
255
10
-0
20
0.50505051
30
0
70
32
0
VERTEX
8
0
62
255
10
0
20
0.49494949
30
0
70
32
0
VERTEX
8
0
62
255
10
0
20
0.48484848
30
0
70
32
0
VERTEX
8
0
62
255
10
0
20
0.47474747
30
0
70
32
0
VERTEX
8
0
62
255
10
0
20
0.46464646
30
0
70
32
0
VERTEX
8
0
62
255
10
0
20
0.45454545
30
0
70
32
0
VERTEX
8
0
62
255
10
0
20
0.44444444
30
0
70
32
0
VERTEX
8
0
62
255
10
0
20
0.43434343
30
0
70
32
0
VERTEX
8
0
62
255
10
0
20
0.42424242
30
0
70
32
0
VERTEX
8
0
62
255
10
0
20
0.41414141
30
0
70
32
0
VERTEX
8
0
62
255
10
0
20
0.4040404
30
0
70
32
0
VERTEX
8
0
62
255
10
0
20
0.39393939
30
0
70
32
0
VERTEX
8
0
62
255
10
0
20
0.38383838
30
0
70
32
0
VERTEX
8
0
62
255
10
0
20
0.37373737
30
0
70
32
0
VERTEX
8
0
62
255
10
0
20
0.36363636
30
0
70
32
0
VERTEX
8
0
62
255
10
0
20
0.35353535
30
0
70
32
0
VERTEX
8
0
62
255
10
0
20
0.34343434
30
0
70
32
0
VERTEX
8
0
62
255
10
0
20
0.33333333
30
0
70
32
0
VERTEX
8
0
62
255
10
0
20
0.32323232
30
0
70
32
0
VERTEX
8
0
62
255
10
0
20
0.31313131
30
0
70
32
0
VERTEX
8
0
62
255
10
0
20
0.3030303
30
0
70
32
0
VERTEX
8
0
62
255
10
0
20
0.29292929
30
0
70
32
0
VERTEX
8
0
62
255
10
0
20
0.28282828
30
0
70
32
0
VERTEX
8
0
62
255
10
0
20
0.27272727
30
0
70
32
0
VERTEX
8
0
62
255
10
0
20
0.26262626
30
0
70
32
0
VERTEX
8
0
62
255
10
0
20
0.25252525
30
0
70
32
0
VERTEX
8
0
62
255
10
0
20
0.24242424
30
0
70
32
0
VERTEX
8
0
62
255
10
0
20
0.23232323
30
0
70
32
0
VERTEX
8
0
62
255
10
0
20
0.22222222
30
0
70
32
0
VERTEX
8
0
62
255
10
0
20
0.21212121
30
0
70
32
0
VERTEX
8
0
62
255
10
0
20
0.2020202
30
0
70
32
0
VERTEX
8
0
62
255
10
0
20
0.19191919
30
0
70
32
0
VERTEX
8
0
62
255
10
0
20
0.18181818
30
0
70
32
0
VERTEX
8
0
62
255
10
0
20
0.17171717
30
0
70
32
0
VERTEX
8
0
62
255
10
0
20
0.16161616
30
0
70
32
0
VERTEX
8
0
62
255
10
0
20
0.15151515
30
0
70
32
0
VERTEX
8
0
62
255
10
0
20
0.14141414
30
0
70
32
0
VERTEX
8
0
62
255
10
0
20
0.13131313
30
0
70
32
0
VERTEX
8
0
62
255
10
0
20
0.12121212
30
0
70
32
0
VERTEX
8
0
62
255
10
0
20
0.11111111
30
0
70
32
0
VERTEX
8
0
62
255
10
0
20
0.1010101
30
0
70
32
0
VERTEX
8
0
62
255
10
0
20
0.090909091
30
0
70
32
0
VERTEX
8
0
62
255
10
0
20
0.080808081
30
0
70
32
0
VERTEX
8
0
62
255
10
0
20
0.070707071
30
0
70
32
0
VERTEX
8
0
62
255
10
0
20
0.060606061
30
0
70
32
0
VERTEX
8
0
62
255
10
0
20
0.050505051
30
0
70
32
0
VERTEX
8
0
62
255
10
0
20
0.04040404
30
0
70
32
0
VERTEX
8
0
62
255
10
0
20
0.03030303
30
0
70
32
0
VERTEX
8
0
62
255
10
0
20
0.02020202
30
0
70
32
0
VERTEX
8
0
62
255
10
0
20
0.01010101
30
0
70
32
0
VERTEX
8
0
62
255
10
0
20
0
30
0
70
32
0
SEQEND
8
0
0
POLYLINE
8
0
62
255
66
1
10
0
20
0
30
0
70
8
0
VERTEX
8
0
62
255
10
0
20
117.8
30
0
70
32
0
VERTEX
8
0
62
255
10
0.2353333
20
117.8
30
0
70
32
0
VERTEX
8
0
62
255
10
0.47066659
20
117.8
30
0
70
32
0
VERTEX
8
0
62
255
10
0.70599989
20
117.8
30
0
70
32
0
VERTEX
8
0
62
255
10
0.94133319
20
117.8
30
0
70
32
0
VERTEX
8
0
62
255
10
1.1766665
20
117.8
30
0
70
32
0
VERTEX
8
0
62
255
10
1.4119998
20
117.8
30
0
70
32
0
VERTEX
8
0
62
255
10
1.6473331
20
117.8
30
0
70
32
0
VERTEX
8
0
62
255
10
1.8826664
20
117.8
30
0
70
32
0
VERTEX
8
0
62
255
10
2.1179997
20
117.8
30
0
70
32
0
VERTEX
8
0
62
255
10
2.353333
20
117.8
30
0
70
32
0
VERTEX
8
0
62
255
10
2.5886663
20
117.8
30
0
70
32
0
VERTEX
8
0
62
255
10
2.8239996
20
117.8
30
0
70
32
0
VERTEX
8
0
62
255
10
3.0593329
20
117.8
30
0
70
32
0
VERTEX
8
0
62
255
10
3.2946662
20
117.8
30
0
70
32
0
VERTEX
8
0
62
255
10
3.5299995
20
117.8
30
0
70
32
0
VERTEX
8
0
62
255
10
3.7653328
20
117.8
30
0
70
32
0
VERTEX
8
0
62
255
10
4.0006661
20
117.8
30
0
70
32
0
VERTEX
8
0
62
255
10
4.2359993
20
117.8
30
0
70
32
0
VERTEX
8
0
62
255
10
4.4713326
20
117.8
30
0
70
32
0
VERTEX
8
0
62
255
10
4.7066659
20
117.8
30
0
70
32
0
VERTEX
8
0
62
255
10
4.9419992
20
117.8
30
0
70
32
0
VERTEX
8
0
62
255
10
5.1773325
20
117.8
30
0
70
32
0
VERTEX
8
0
62
255
10
5.4126658
20
117.8
30
0
70
32
0
VERTEX
8
0
62
255
10
5.6479991
20
117.8
30
0
70
32
0
VERTEX
8
0
62
255
10
5.8833324
20
117.8
30
0
70
32
0
VERTEX
8
0
62
255
10
6.1186657
20
117.8
30
0
70
32
0
VERTEX
8
0
62
255
10
6.353999
20
117.8
30
0
70
32
0
VERTEX
8
0
62
255
10
6.5893323
20
117.8
30
0
70
32
0
VERTEX
8
0
62
255
10
6.8246656
20
117.8
30
0
70
32
0
VERTEX
8
0
62
255
10
7.0599989
20
117.8
30
0
70
32
0
VERTEX
8
0
62
255
10
7.2953322
20
117.8
30
0
70
32
0
VERTEX
8
0
62
255
10
7.5306655
20
117.8
30
0
70
32
0
VERTEX
8
0
62
255
10
7.7659988
20
117.8
30
0
70
32
0
VERTEX
8
0
62
255
10
8.0013321
20
117.8
30
0
70
32
0
VERTEX
8
0
62
255
10
8.2366654
20
117.8
30
0
70
32
0
VERTEX
8
0
62
255
10
8.4719987
20
117.8
30
0
70
32
0
VERTEX
8
0
62
255
10
8.707332
20
117.8
30
0
70
32
0
VERTEX
8
0
62
255
10
8.9426653
20
117.8
30
0
70
32
0
VERTEX
8
0
62
255
10
9.1779986
20
117.8
30
0
70
32
0
VERTEX
8
0
62
255
10
9.4133319
20
117.8
30
0
70
32
0
VERTEX
8
0
62
255
10
9.6486652
20
117.8
30
0
70
32
0
VERTEX
8
0
62
255
10
9.8839985
20
117.8
30
0
70
32
0
VERTEX
8
0
62
255
10
10.119332
20
117.8
30
0
70
32
0
VERTEX
8
0
62
255
10
10.354665
20
117.8
30
0
70
32
0
VERTEX
8
0
62
255
10
10.589998
20
117.8
30
0
70
32
0
VERTEX
8
0
62
255
10
10.825332
20
117.8
30
0
70
32
0
VERTEX
8
0
62
255
10
11.060665
20
117.8
30
0
70
32
0
VERTEX
8
0
62
255
10
11.295998
20
117.8
30
0
70
32
0
VERTEX
8
0
62
255
10
11.531332
20
117.8
30
0
70
32
0
VERTEX
8
0
62
255
10
11.766665
20
117.8
30
0
70
32
0
VERTEX
8
0
62
255
10
12.001998
20
117.8
30
0
70
32
0
VERTEX
8
0
62
255
10
12.237331
20
117.8
30
0
70
32
0
VERTEX
8
0
62
255
10
12.472665
20
117.8
30
0
70
32
0
VERTEX
8
0
62
255
10
12.707998
20
117.8
30
0
70
32
0
VERTEX
8
0
62
255
10
12.943331
20
117.8
30
0
70
32
0
VERTEX
8
0
62
255
10
13.178665
20
117.8
30
0
70
32
0
VERTEX
8
0
62
255
10
13.413998
20
117.8
30
0
70
32
0
VERTEX
8
0
62
255
10
13.649331
20
117.8
30
0
70
32
0
VERTEX
8
0
62
255
10
13.884665
20
117.8
30
0
70
32
0
VERTEX
8
0
62
255
10
14.119998
20
117.8
30
0
70
32
0
VERTEX
8
0
62
255
10
14.355331
20
117.8
30
0
70
32
0
VERTEX
8
0
62
255
10
14.590664
20
117.8
30
0
70
32
0
VERTEX
8
0
62
255
10
14.825998
20
117.8
30
0
70
32
0
VERTEX
8
0
62
255
10
15.061331
20
117.8
30
0
70
32
0
VERTEX
8
0
62
255
10
15.296664
20
117.8
30
0
70
32
0
VERTEX
8
0
62
255
10
15.531998
20
117.8
30
0
70
32
0
VERTEX
8
0
62
255
10
15.767331
20
117.8
30
0
70
32
0
VERTEX
8
0
62
255
10
16.002664
20
117.8
30
0
70
32
0
VERTEX
8
0
62
255
10
16.237998
20
117.8
30
0
70
32
0
VERTEX
8
0
62
255
10
16.473331
20
117.8
30
0
70
32
0
VERTEX
8
0
62
255
10
16.708664
20
117.8
30
0
70
32
0
VERTEX
8
0
62
255
10
16.943997
20
117.8
30
0
70
32
0
VERTEX
8
0
62
255
10
17.179331
20
117.8
30
0
70
32
0
VERTEX
8
0
62
255
10
17.414664
20
117.8
30
0
70
32
0
VERTEX
8
0
62
255
10
17.649997
20
117.8
30
0
70
32
0
VERTEX
8
0
62
255
10
17.885331
20
117.8
30
0
70
32
0
VERTEX
8
0
62
255
10
18.120664
20
117.8
30
0
70
32
0
VERTEX
8
0
62
255
10
18.355997
20
117.8
30
0
70
32
0
VERTEX
8
0
62
255
10
18.59133
20
117.8
30
0
70
32
0
VERTEX
8
0
62
255
10
18.826664
20
117.8
30
0
70
32
0
VERTEX
8
0
62
255
10
19.061997
20
117.8
30
0
70
32
0
VERTEX
8
0
62
255
10
19.29733
20
117.8
30
0
70
32
0
VERTEX
8
0
62
255
10
19.532664
20
117.8
30
0
70
32
0
VERTEX
8
0
62
255
10
19.767997
20
117.8
30
0
70
32
0
VERTEX
8
0
62
255
10
20.00333
20
117.8
30
0
70
32
0
VERTEX
8
0
62
255
10
20.238664
20
117.8
30
0
70
32
0
VERTEX
8
0
62
255
10
20.473997
20
117.8
30
0
70
32
0
VERTEX
8
0
62
255
10
20.70933
20
117.8
30
0
70
32
0
VERTEX
8
0
62
255
10
20.944663
20
117.8
30
0
70
32
0
VERTEX
8
0
62
255
10
21.179997
20
117.8
30
0
70
32
0
VERTEX
8
0
62
255
10
21.41533
20
117.8
30
0
70
32
0
VERTEX
8
0
62
255
10
21.650663
20
117.8
30
0
70
32
0
VERTEX
8
0
62
255
10
21.885997
20
117.8
30
0
70
32
0
VERTEX
8
0
62
255
10
22.12133
20
117.8
30
0
70
32
0
VERTEX
8
0
62
255
10
22.356663
20
117.8
30
0
70
32
0
VERTEX
8
0
62
255
10
22.591997
20
117.8
30
0
70
32
0
VERTEX
8
0
62
255
10
22.82733
20
117.8
30
0
70
32
0
VERTEX
8
0
62
255
10
23.062663
20
117.8
30
0
70
32
0
VERTEX
8
0
62
255
10
23.297996
20
117.8
30
0
70
32
0
SEQEND
8
0
0
POLYLINE
8
0
62
255
66
1
10
0
20
0
30
0
70
8
0
VERTEX
8
0
62
255
10
23.297996
20
117.8
30
0
70
32
0
VERTEX
8
0
62
255
10
23.297996
20
117.8101
30
0
70
32
0
VERTEX
8
0
62
255
10
23.297996
20
117.8202
30
0
70
32
0
VERTEX
8
0
62
255
10
23.297996
20
117.8303
30
0
70
32
0
VERTEX
8
0
62
255
10
23.297996
20
117.8404
30
0
70
32
0
VERTEX
8
0
62
255
10
23.297996
20
117.85051
30
0
70
32
0
VERTEX
8
0
62
255
10
23.297996
20
117.86061
30
0
70
32
0
VERTEX
8
0
62
255
10
23.297996
20
117.87071
30
0
70
32
0
VERTEX
8
0
62
255
10
23.297996
20
117.88081
30
0
70
32
0
VERTEX
8
0
62
255
10
23.297996
20
117.89091
30
0
70
32
0
VERTEX
8
0
62
255
10
23.297996
20
117.90101
30
0
70
32
0
VERTEX
8
0
62
255
10
23.297996
20
117.91111
30
0
70
32
0
VERTEX
8
0
62
255
10
23.297996
20
117.92121
30
0
70
32
0
VERTEX
8
0
62
255
10
23.297996
20
117.93131
30
0
70
32
0
VERTEX
8
0
62
255
10
23.297996
20
117.94141
30
0
70
32
0
VERTEX
8
0
62
255
10
23.297996
20
117.95152
30
0
70
32
0
VERTEX
8
0
62
255
10
23.297996
20
117.96162
30
0
70
32
0
VERTEX
8
0
62
255
10
23.297996
20
117.97172
30
0
70
32
0
VERTEX
8
0
62
255
10
23.297996
20
117.98182
30
0
70
32
0
VERTEX
8
0
62
255
10
23.297996
20
117.99192
30
0
70
32
0
VERTEX
8
0
62
255
10
23.297996
20
118.00202
30
0
70
32
0
VERTEX
8
0
62
255
10
23.297996
20
118.01212
30
0
70
32
0
VERTEX
8
0
62
255
10
23.297996
20
118.02222
30
0
70
32
0
VERTEX
8
0
62
255
10
23.297996
20
118.03232
30
0
70
32
0
VERTEX
8
0
62
255
10
23.297996
20
118.04242
30
0
70
32
0
VERTEX
8
0
62
255
10
23.297996
20
118.05253
30
0
70
32
0
VERTEX
8
0
62
255
10
23.297996
20
118.06263
30
0
70
32
0
VERTEX
8
0
62
255
10
23.297996
20
118.07273
30
0
70
32
0
VERTEX
8
0
62
255
10
23.297996
20
118.08283
30
0
70
32
0
VERTEX
8
0
62
255
10
23.297996
20
118.09293
30
0
70
32
0
VERTEX
8
0
62
255
10
23.297996
20
118.10303
30
0
70
32
0
VERTEX
8
0
62
255
10
23.297996
20
118.11313
30
0
70
32
0
VERTEX
8
0
62
255
10
23.297996
20
118.12323
30
0
70
32
0
VERTEX
8
0
62
255
10
23.297996
20
118.13333
30
0
70
32
0
VERTEX
8
0
62
255
10
23.297996
20
118.14343
30
0
70
32
0
VERTEX
8
0
62
255
10
23.297996
20
118.15354
30
0
70
32
0
VERTEX
8
0
62
255
10
23.297996
20
118.16364
30
0
70
32
0
VERTEX
8
0
62
255
10
23.297996
20
118.17374
30
0
70
32
0
VERTEX
8
0
62
255
10
23.297996
20
118.18384
30
0
70
32
0
VERTEX
8
0
62
255
10
23.297996
20
118.19394
30
0
70
32
0
VERTEX
8
0
62
255
10
23.297996
20
118.20404
30
0
70
32
0
VERTEX
8
0
62
255
10
23.297996
20
118.21414
30
0
70
32
0
VERTEX
8
0
62
255
10
23.297996
20
118.22424
30
0
70
32
0
VERTEX
8
0
62
255
10
23.297996
20
118.23434
30
0
70
32
0
VERTEX
8
0
62
255
10
23.297996
20
118.24444
30
0
70
32
0
VERTEX
8
0
62
255
10
23.297996
20
118.25455
30
0
70
32
0
VERTEX
8
0
62
255
10
23.297996
20
118.26465
30
0
70
32
0
VERTEX
8
0
62
255
10
23.297996
20
118.27475
30
0
70
32
0
VERTEX
8
0
62
255
10
23.297996
20
118.28485
30
0
70
32
0
VERTEX
8
0
62
255
10
23.297996
20
118.29495
30
0
70
32
0
VERTEX
8
0
62
255
10
23.297996
20
118.30505
30
0
70
32
0
VERTEX
8
0
62
255
10
23.297996
20
118.31515
30
0
70
32
0
VERTEX
8
0
62
255
10
23.297996
20
118.32525
30
0
70
32
0
VERTEX
8
0
62
255
10
23.297996
20
118.33535
30
0
70
32
0
VERTEX
8
0
62
255
10
23.297996
20
118.34545
30
0
70
32
0
VERTEX
8
0
62
255
10
23.297996
20
118.35556
30
0
70
32
0
VERTEX
8
0
62
255
10
23.297996
20
118.36566
30
0
70
32
0
VERTEX
8
0
62
255
10
23.297996
20
118.37576
30
0
70
32
0
VERTEX
8
0
62
255
10
23.297996
20
118.38586
30
0
70
32
0
VERTEX
8
0
62
255
10
23.297996
20
118.39596
30
0
70
32
0
VERTEX
8
0
62
255
10
23.297996
20
118.40606
30
0
70
32
0
VERTEX
8
0
62
255
10
23.297996
20
118.41616
30
0
70
32
0
VERTEX
8
0
62
255
10
23.297996
20
118.42626
30
0
70
32
0
VERTEX
8
0
62
255
10
23.297996
20
118.43636
30
0
70
32
0
VERTEX
8
0
62
255
10
23.297996
20
118.44646
30
0
70
32
0
VERTEX
8
0
62
255
10
23.297996
20
118.45657
30
0
70
32
0
VERTEX
8
0
62
255
10
23.297996
20
118.46667
30
0
70
32
0
VERTEX
8
0
62
255
10
23.297996
20
118.47677
30
0
70
32
0
VERTEX
8
0
62
255
10
23.297996
20
118.48687
30
0
70
32
0
VERTEX
8
0
62
255
10
23.297996
20
118.49697
30
0
70
32
0
VERTEX
8
0
62
255
10
23.297996
20
118.50707
30
0
70
32
0
VERTEX
8
0
62
255
10
23.297996
20
118.51717
30
0
70
32
0
VERTEX
8
0
62
255
10
23.297996
20
118.52727
30
0
70
32
0
VERTEX
8
0
62
255
10
23.297996
20
118.53737
30
0
70
32
0
VERTEX
8
0
62
255
10
23.297996
20
118.54747
30
0
70
32
0
VERTEX
8
0
62
255
10
23.297996
20
118.55758
30
0
70
32
0
VERTEX
8
0
62
255
10
23.297996
20
118.56768
30
0
70
32
0
VERTEX
8
0
62
255
10
23.297996
20
118.57778
30
0
70
32
0
VERTEX
8
0
62
255
10
23.297996
20
118.58788
30
0
70
32
0
VERTEX
8
0
62
255
10
23.297996
20
118.59798
30
0
70
32
0
VERTEX
8
0
62
255
10
23.297996
20
118.60808
30
0
70
32
0
VERTEX
8
0
62
255
10
23.297996
20
118.61818
30
0
70
32
0
VERTEX
8
0
62
255
10
23.297996
20
118.62828
30
0
70
32
0
VERTEX
8
0
62
255
10
23.297996
20
118.63838
30
0
70
32
0
VERTEX
8
0
62
255
10
23.297996
20
118.64848
30
0
70
32
0
VERTEX
8
0
62
255
10
23.297996
20
118.65859
30
0
70
32
0
VERTEX
8
0
62
255
10
23.297996
20
118.66869
30
0
70
32
0
VERTEX
8
0
62
255
10
23.297996
20
118.67879
30
0
70
32
0
VERTEX
8
0
62
255
10
23.297996
20
118.68889
30
0
70
32
0
VERTEX
8
0
62
255
10
23.297996
20
118.69899
30
0
70
32
0
VERTEX
8
0
62
255
10
23.297996
20
118.70909
30
0
70
32
0
VERTEX
8
0
62
255
10
23.297996
20
118.71919
30
0
70
32
0
VERTEX
8
0
62
255
10
23.297996
20
118.72929
30
0
70
32
0
VERTEX
8
0
62
255
10
23.297996
20
118.73939
30
0
70
32
0
VERTEX
8
0
62
255
10
23.297996
20
118.74949
30
0
70
32
0
VERTEX
8
0
62
255
10
23.297996
20
118.7596
30
0
70
32
0
VERTEX
8
0
62
255
10
23.297996
20
118.7697
30
0
70
32
0
VERTEX
8
0
62
255
10
23.297996
20
118.7798
30
0
70
32
0
VERTEX
8
0
62
255
10
23.297996
20
118.7899
30
0
70
32
0
VERTEX
8
0
62
255
10
23.297996
20
118.8
30
0
70
32
0
SEQEND
8
0
0
POLYLINE
8
0
62
255
66
1
10
0
20
0
30
0
70
8
0
VERTEX
8
0
62
255
10
23.297996
20
118.8
30
0
70
32
0
VERTEX
8
0
62
255
10
23.062663
20
118.8
30
0
70
32
0
VERTEX
8
0
62
255
10
22.82733
20
118.8
30
0
70
32
0
VERTEX
8
0
62
255
10
22.591997
20
118.8
30
0
70
32
0
VERTEX
8
0
62
255
10
22.356663
20
118.8
30
0
70
32
0
VERTEX
8
0
62
255
10
22.12133
20
118.8
30
0
70
32
0
VERTEX
8
0
62
255
10
21.885997
20
118.8
30
0
70
32
0
VERTEX
8
0
62
255
10
21.650663
20
118.8
30
0
70
32
0
VERTEX
8
0
62
255
10
21.41533
20
118.8
30
0
70
32
0
VERTEX
8
0
62
255
10
21.179997
20
118.8
30
0
70
32
0
VERTEX
8
0
62
255
10
20.944663
20
118.8
30
0
70
32
0
VERTEX
8
0
62
255
10
20.70933
20
118.8
30
0
70
32
0
VERTEX
8
0
62
255
10
20.473997
20
118.8
30
0
70
32
0
VERTEX
8
0
62
255
10
20.238664
20
118.8
30
0
70
32
0
VERTEX
8
0
62
255
10
20.00333
20
118.8
30
0
70
32
0
VERTEX
8
0
62
255
10
19.767997
20
118.8
30
0
70
32
0
VERTEX
8
0
62
255
10
19.532664
20
118.8
30
0
70
32
0
VERTEX
8
0
62
255
10
19.29733
20
118.8
30
0
70
32
0
VERTEX
8
0
62
255
10
19.061997
20
118.8
30
0
70
32
0
VERTEX
8
0
62
255
10
18.826664
20
118.8
30
0
70
32
0
VERTEX
8
0
62
255
10
18.59133
20
118.8
30
0
70
32
0
VERTEX
8
0
62
255
10
18.355997
20
118.8
30
0
70
32
0
VERTEX
8
0
62
255
10
18.120664
20
118.8
30
0
70
32
0
VERTEX
8
0
62
255
10
17.885331
20
118.8
30
0
70
32
0
VERTEX
8
0
62
255
10
17.649997
20
118.8
30
0
70
32
0
VERTEX
8
0
62
255
10
17.414664
20
118.8
30
0
70
32
0
VERTEX
8
0
62
255
10
17.179331
20
118.8
30
0
70
32
0
VERTEX
8
0
62
255
10
16.943997
20
118.8
30
0
70
32
0
VERTEX
8
0
62
255
10
16.708664
20
118.8
30
0
70
32
0
VERTEX
8
0
62
255
10
16.473331
20
118.8
30
0
70
32
0
VERTEX
8
0
62
255
10
16.237998
20
118.8
30
0
70
32
0
VERTEX
8
0
62
255
10
16.002664
20
118.8
30
0
70
32
0
VERTEX
8
0
62
255
10
15.767331
20
118.8
30
0
70
32
0
VERTEX
8
0
62
255
10
15.531998
20
118.8
30
0
70
32
0
VERTEX
8
0
62
255
10
15.296664
20
118.8
30
0
70
32
0
VERTEX
8
0
62
255
10
15.061331
20
118.8
30
0
70
32
0
VERTEX
8
0
62
255
10
14.825998
20
118.8
30
0
70
32
0
VERTEX
8
0
62
255
10
14.590664
20
118.8
30
0
70
32
0
VERTEX
8
0
62
255
10
14.355331
20
118.8
30
0
70
32
0
VERTEX
8
0
62
255
10
14.119998
20
118.8
30
0
70
32
0
VERTEX
8
0
62
255
10
13.884665
20
118.8
30
0
70
32
0
VERTEX
8
0
62
255
10
13.649331
20
118.8
30
0
70
32
0
VERTEX
8
0
62
255
10
13.413998
20
118.8
30
0
70
32
0
VERTEX
8
0
62
255
10
13.178665
20
118.8
30
0
70
32
0
VERTEX
8
0
62
255
10
12.943331
20
118.8
30
0
70
32
0
VERTEX
8
0
62
255
10
12.707998
20
118.8
30
0
70
32
0
VERTEX
8
0
62
255
10
12.472665
20
118.8
30
0
70
32
0
VERTEX
8
0
62
255
10
12.237331
20
118.8
30
0
70
32
0
VERTEX
8
0
62
255
10
12.001998
20
118.8
30
0
70
32
0
VERTEX
8
0
62
255
10
11.766665
20
118.8
30
0
70
32
0
VERTEX
8
0
62
255
10
11.531332
20
118.8
30
0
70
32
0
VERTEX
8
0
62
255
10
11.295998
20
118.8
30
0
70
32
0
VERTEX
8
0
62
255
10
11.060665
20
118.8
30
0
70
32
0
VERTEX
8
0
62
255
10
10.825332
20
118.8
30
0
70
32
0
VERTEX
8
0
62
255
10
10.589998
20
118.8
30
0
70
32
0
VERTEX
8
0
62
255
10
10.354665
20
118.8
30
0
70
32
0
VERTEX
8
0
62
255
10
10.119332
20
118.8
30
0
70
32
0
VERTEX
8
0
62
255
10
9.8839985
20
118.8
30
0
70
32
0
VERTEX
8
0
62
255
10
9.6486652
20
118.8
30
0
70
32
0
VERTEX
8
0
62
255
10
9.4133319
20
118.8
30
0
70
32
0
VERTEX
8
0
62
255
10
9.1779986
20
118.8
30
0
70
32
0
VERTEX
8
0
62
255
10
8.9426653
20
118.8
30
0
70
32
0
VERTEX
8
0
62
255
10
8.707332
20
118.8
30
0
70
32
0
VERTEX
8
0
62
255
10
8.4719987
20
118.8
30
0
70
32
0
VERTEX
8
0
62
255
10
8.2366654
20
118.8
30
0
70
32
0
VERTEX
8
0
62
255
10
8.0013321
20
118.8
30
0
70
32
0
VERTEX
8
0
62
255
10
7.7659988
20
118.8
30
0
70
32
0
VERTEX
8
0
62
255
10
7.5306655
20
118.8
30
0
70
32
0
VERTEX
8
0
62
255
10
7.2953322
20
118.8
30
0
70
32
0
VERTEX
8
0
62
255
10
7.0599989
20
118.8
30
0
70
32
0
VERTEX
8
0
62
255
10
6.8246656
20
118.8
30
0
70
32
0
VERTEX
8
0
62
255
10
6.5893323
20
118.8
30
0
70
32
0
VERTEX
8
0
62
255
10
6.353999
20
118.8
30
0
70
32
0
VERTEX
8
0
62
255
10
6.1186657
20
118.8
30
0
70
32
0
VERTEX
8
0
62
255
10
5.8833324
20
118.8
30
0
70
32
0
VERTEX
8
0
62
255
10
5.6479991
20
118.8
30
0
70
32
0
VERTEX
8
0
62
255
10
5.4126658
20
118.8
30
0
70
32
0
VERTEX
8
0
62
255
10
5.1773325
20
118.8
30
0
70
32
0
VERTEX
8
0
62
255
10
4.9419992
20
118.8
30
0
70
32
0
VERTEX
8
0
62
255
10
4.7066659
20
118.8
30
0
70
32
0
VERTEX
8
0
62
255
10
4.4713326
20
118.8
30
0
70
32
0
VERTEX
8
0
62
255
10
4.2359993
20
118.8
30
0
70
32
0
VERTEX
8
0
62
255
10
4.0006661
20
118.8
30
0
70
32
0
VERTEX
8
0
62
255
10
3.7653328
20
118.8
30
0
70
32
0
VERTEX
8
0
62
255
10
3.5299995
20
118.8
30
0
70
32
0
VERTEX
8
0
62
255
10
3.2946662
20
118.8
30
0
70
32
0
VERTEX
8
0
62
255
10
3.0593329
20
118.8
30
0
70
32
0
VERTEX
8
0
62
255
10
2.8239996
20
118.8
30
0
70
32
0
VERTEX
8
0
62
255
10
2.5886663
20
118.8
30
0
70
32
0
VERTEX
8
0
62
255
10
2.353333
20
118.8
30
0
70
32
0
VERTEX
8
0
62
255
10
2.1179997
20
118.8
30
0
70
32
0
VERTEX
8
0
62
255
10
1.8826664
20
118.8
30
0
70
32
0
VERTEX
8
0
62
255
10
1.6473331
20
118.8
30
0
70
32
0
VERTEX
8
0
62
255
10
1.4119998
20
118.8
30
0
70
32
0
VERTEX
8
0
62
255
10
1.1766665
20
118.8
30
0
70
32
0
VERTEX
8
0
62
255
10
0.94133319
20
118.8
30
0
70
32
0
VERTEX
8
0
62
255
10
0.70599989
20
118.8
30
0
70
32
0
VERTEX
8
0
62
255
10
0.47066659
20
118.8
30
0
70
32
0
VERTEX
8
0
62
255
10
0.2353333
20
118.8
30
0
70
32
0
VERTEX
8
0
62
255
10
0
20
118.8
30
0
70
32
0
SEQEND
8
0
0
POLYLINE
8
0
62
255
66
1
10
0
20
0
30
0
70
8
0
VERTEX
8
0
62
255
10
0
20
118.8
30
0
70
32
0
VERTEX
8
0
62
255
10
-0
20
118.7899
30
0
70
32
0
VERTEX
8
0
62
255
10
-0
20
118.7798
30
0
70
32
0
VERTEX
8
0
62
255
10
-0
20
118.7697
30
0
70
32
0
VERTEX
8
0
62
255
10
-0
20
118.7596
30
0
70
32
0
VERTEX
8
0
62
255
10
-0
20
118.74949
30
0
70
32
0
VERTEX
8
0
62
255
10
-0
20
118.73939
30
0
70
32
0
VERTEX
8
0
62
255
10
-0
20
118.72929
30
0
70
32
0
VERTEX
8
0
62
255
10
-0
20
118.71919
30
0
70
32
0
VERTEX
8
0
62
255
10
-0
20
118.70909
30
0
70
32
0
VERTEX
8
0
62
255
10
-0
20
118.69899
30
0
70
32
0
VERTEX
8
0
62
255
10
-0
20
118.68889
30
0
70
32
0
VERTEX
8
0
62
255
10
-0
20
118.67879
30
0
70
32
0
VERTEX
8
0
62
255
10
-0
20
118.66869
30
0
70
32
0
VERTEX
8
0
62
255
10
-0
20
118.65859
30
0
70
32
0
VERTEX
8
0
62
255
10
-0
20
118.64848
30
0
70
32
0
VERTEX
8
0
62
255
10
-0
20
118.63838
30
0
70
32
0
VERTEX
8
0
62
255
10
-0
20
118.62828
30
0
70
32
0
VERTEX
8
0
62
255
10
-0
20
118.61818
30
0
70
32
0
VERTEX
8
0
62
255
10
-0
20
118.60808
30
0
70
32
0
VERTEX
8
0
62
255
10
-0
20
118.59798
30
0
70
32
0
VERTEX
8
0
62
255
10
-0
20
118.58788
30
0
70
32
0
VERTEX
8
0
62
255
10
-0
20
118.57778
30
0
70
32
0
VERTEX
8
0
62
255
10
-0
20
118.56768
30
0
70
32
0
VERTEX
8
0
62
255
10
-0
20
118.55758
30
0
70
32
0
VERTEX
8
0
62
255
10
-0
20
118.54747
30
0
70
32
0
VERTEX
8
0
62
255
10
-0
20
118.53737
30
0
70
32
0
VERTEX
8
0
62
255
10
-0
20
118.52727
30
0
70
32
0
VERTEX
8
0
62
255
10
-0
20
118.51717
30
0
70
32
0
VERTEX
8
0
62
255
10
-0
20
118.50707
30
0
70
32
0
VERTEX
8
0
62
255
10
-0
20
118.49697
30
0
70
32
0
VERTEX
8
0
62
255
10
-0
20
118.48687
30
0
70
32
0
VERTEX
8
0
62
255
10
-0
20
118.47677
30
0
70
32
0
VERTEX
8
0
62
255
10
-0
20
118.46667
30
0
70
32
0
VERTEX
8
0
62
255
10
-0
20
118.45657
30
0
70
32
0
VERTEX
8
0
62
255
10
-0
20
118.44646
30
0
70
32
0
VERTEX
8
0
62
255
10
-0
20
118.43636
30
0
70
32
0
VERTEX
8
0
62
255
10
-0
20
118.42626
30
0
70
32
0
VERTEX
8
0
62
255
10
-0
20
118.41616
30
0
70
32
0
VERTEX
8
0
62
255
10
-0
20
118.40606
30
0
70
32
0
VERTEX
8
0
62
255
10
-0
20
118.39596
30
0
70
32
0
VERTEX
8
0
62
255
10
-0
20
118.38586
30
0
70
32
0
VERTEX
8
0
62
255
10
-0
20
118.37576
30
0
70
32
0
VERTEX
8
0
62
255
10
-0
20
118.36566
30
0
70
32
0
VERTEX
8
0
62
255
10
-0
20
118.35556
30
0
70
32
0
VERTEX
8
0
62
255
10
-0
20
118.34545
30
0
70
32
0
VERTEX
8
0
62
255
10
-0
20
118.33535
30
0
70
32
0
VERTEX
8
0
62
255
10
-0
20
118.32525
30
0
70
32
0
VERTEX
8
0
62
255
10
-0
20
118.31515
30
0
70
32
0
VERTEX
8
0
62
255
10
-0
20
118.30505
30
0
70
32
0
VERTEX
8
0
62
255
10
0
20
118.29495
30
0
70
32
0
VERTEX
8
0
62
255
10
0
20
118.28485
30
0
70
32
0
VERTEX
8
0
62
255
10
0
20
118.27475
30
0
70
32
0
VERTEX
8
0
62
255
10
0
20
118.26465
30
0
70
32
0
VERTEX
8
0
62
255
10
0
20
118.25455
30
0
70
32
0
VERTEX
8
0
62
255
10
0
20
118.24444
30
0
70
32
0
VERTEX
8
0
62
255
10
0
20
118.23434
30
0
70
32
0
VERTEX
8
0
62
255
10
0
20
118.22424
30
0
70
32
0
VERTEX
8
0
62
255
10
0
20
118.21414
30
0
70
32
0
VERTEX
8
0
62
255
10
0
20
118.20404
30
0
70
32
0
VERTEX
8
0
62
255
10
0
20
118.19394
30
0
70
32
0
VERTEX
8
0
62
255
10
0
20
118.18384
30
0
70
32
0
VERTEX
8
0
62
255
10
0
20
118.17374
30
0
70
32
0
VERTEX
8
0
62
255
10
0
20
118.16364
30
0
70
32
0
VERTEX
8
0
62
255
10
0
20
118.15354
30
0
70
32
0
VERTEX
8
0
62
255
10
0
20
118.14343
30
0
70
32
0
VERTEX
8
0
62
255
10
0
20
118.13333
30
0
70
32
0
VERTEX
8
0
62
255
10
0
20
118.12323
30
0
70
32
0
VERTEX
8
0
62
255
10
0
20
118.11313
30
0
70
32
0
VERTEX
8
0
62
255
10
0
20
118.10303
30
0
70
32
0
VERTEX
8
0
62
255
10
0
20
118.09293
30
0
70
32
0
VERTEX
8
0
62
255
10
0
20
118.08283
30
0
70
32
0
VERTEX
8
0
62
255
10
0
20
118.07273
30
0
70
32
0
VERTEX
8
0
62
255
10
0
20
118.06263
30
0
70
32
0
VERTEX
8
0
62
255
10
0
20
118.05253
30
0
70
32
0
VERTEX
8
0
62
255
10
0
20
118.04242
30
0
70
32
0
VERTEX
8
0
62
255
10
0
20
118.03232
30
0
70
32
0
VERTEX
8
0
62
255
10
0
20
118.02222
30
0
70
32
0
VERTEX
8
0
62
255
10
0
20
118.01212
30
0
70
32
0
VERTEX
8
0
62
255
10
0
20
118.00202
30
0
70
32
0
VERTEX
8
0
62
255
10
0
20
117.99192
30
0
70
32
0
VERTEX
8
0
62
255
10
0
20
117.98182
30
0
70
32
0
VERTEX
8
0
62
255
10
0
20
117.97172
30
0
70
32
0
VERTEX
8
0
62
255
10
0
20
117.96162
30
0
70
32
0
VERTEX
8
0
62
255
10
0
20
117.95152
30
0
70
32
0
VERTEX
8
0
62
255
10
0
20
117.94141
30
0
70
32
0
VERTEX
8
0
62
255
10
0
20
117.93131
30
0
70
32
0
VERTEX
8
0
62
255
10
0
20
117.92121
30
0
70
32
0
VERTEX
8
0
62
255
10
0
20
117.91111
30
0
70
32
0
VERTEX
8
0
62
255
10
0
20
117.90101
30
0
70
32
0
VERTEX
8
0
62
255
10
0
20
117.89091
30
0
70
32
0
VERTEX
8
0
62
255
10
0
20
117.88081
30
0
70
32
0
VERTEX
8
0
62
255
10
0
20
117.87071
30
0
70
32
0
VERTEX
8
0
62
255
10
0
20
117.86061
30
0
70
32
0
VERTEX
8
0
62
255
10
0
20
117.85051
30
0
70
32
0
VERTEX
8
0
62
255
10
0
20
117.8404
30
0
70
32
0
VERTEX
8
0
62
255
10
0
20
117.8303
30
0
70
32
0
VERTEX
8
0
62
255
10
0
20
117.8202
30
0
70
32
0
VERTEX
8
0
62
255
10
0
20
117.8101
30
0
70
32
0
VERTEX
8
0
62
255
10
0
20
117.8
30
0
70
32
0
SEQEND
8
0
0
POLYLINE
8
0
62
255
66
1
10
0
20
0
30
0
70
8
0
VERTEX
8
0
62
255
10
0
20
58.9
30
0
70
32
0
VERTEX
8
0
62
255
10
0.2353333
20
58.9
30
0
70
32
0
VERTEX
8
0
62
255
10
0.47066659
20
58.9
30
0
70
32
0
VERTEX
8
0
62
255
10
0.70599989
20
58.9
30
0
70
32
0
VERTEX
8
0
62
255
10
0.94133319
20
58.9
30
0
70
32
0
VERTEX
8
0
62
255
10
1.1766665
20
58.9
30
0
70
32
0
VERTEX
8
0
62
255
10
1.4119998
20
58.9
30
0
70
32
0
VERTEX
8
0
62
255
10
1.6473331
20
58.9
30
0
70
32
0
VERTEX
8
0
62
255
10
1.8826664
20
58.9
30
0
70
32
0
VERTEX
8
0
62
255
10
2.1179997
20
58.9
30
0
70
32
0
VERTEX
8
0
62
255
10
2.353333
20
58.9
30
0
70
32
0
VERTEX
8
0
62
255
10
2.5886663
20
58.9
30
0
70
32
0
VERTEX
8
0
62
255
10
2.8239996
20
58.9
30
0
70
32
0
VERTEX
8
0
62
255
10
3.0593329
20
58.9
30
0
70
32
0
VERTEX
8
0
62
255
10
3.2946662
20
58.9
30
0
70
32
0
VERTEX
8
0
62
255
10
3.5299995
20
58.9
30
0
70
32
0
VERTEX
8
0
62
255
10
3.7653328
20
58.9
30
0
70
32
0
VERTEX
8
0
62
255
10
4.0006661
20
58.9
30
0
70
32
0
VERTEX
8
0
62
255
10
4.2359993
20
58.9
30
0
70
32
0
VERTEX
8
0
62
255
10
4.4713326
20
58.9
30
0
70
32
0
VERTEX
8
0
62
255
10
4.7066659
20
58.9
30
0
70
32
0
VERTEX
8
0
62
255
10
4.9419992
20
58.9
30
0
70
32
0
VERTEX
8
0
62
255
10
5.1773325
20
58.9
30
0
70
32
0
VERTEX
8
0
62
255
10
5.4126658
20
58.9
30
0
70
32
0
VERTEX
8
0
62
255
10
5.6479991
20
58.9
30
0
70
32
0
VERTEX
8
0
62
255
10
5.8833324
20
58.9
30
0
70
32
0
VERTEX
8
0
62
255
10
6.1186657
20
58.9
30
0
70
32
0
VERTEX
8
0
62
255
10
6.353999
20
58.9
30
0
70
32
0
VERTEX
8
0
62
255
10
6.5893323
20
58.9
30
0
70
32
0
VERTEX
8
0
62
255
10
6.8246656
20
58.9
30
0
70
32
0
VERTEX
8
0
62
255
10
7.0599989
20
58.9
30
0
70
32
0
VERTEX
8
0
62
255
10
7.2953322
20
58.9
30
0
70
32
0
VERTEX
8
0
62
255
10
7.5306655
20
58.9
30
0
70
32
0
VERTEX
8
0
62
255
10
7.7659988
20
58.9
30
0
70
32
0
VERTEX
8
0
62
255
10
8.0013321
20
58.9
30
0
70
32
0
VERTEX
8
0
62
255
10
8.2366654
20
58.9
30
0
70
32
0
VERTEX
8
0
62
255
10
8.4719987
20
58.9
30
0
70
32
0
VERTEX
8
0
62
255
10
8.707332
20
58.9
30
0
70
32
0
VERTEX
8
0
62
255
10
8.9426653
20
58.9
30
0
70
32
0
VERTEX
8
0
62
255
10
9.1779986
20
58.9
30
0
70
32
0
VERTEX
8
0
62
255
10
9.4133319
20
58.9
30
0
70
32
0
VERTEX
8
0
62
255
10
9.6486652
20
58.9
30
0
70
32
0
VERTEX
8
0
62
255
10
9.8839985
20
58.9
30
0
70
32
0
VERTEX
8
0
62
255
10
10.119332
20
58.9
30
0
70
32
0
VERTEX
8
0
62
255
10
10.354665
20
58.9
30
0
70
32
0
VERTEX
8
0
62
255
10
10.589998
20
58.9
30
0
70
32
0
VERTEX
8
0
62
255
10
10.825332
20
58.9
30
0
70
32
0
VERTEX
8
0
62
255
10
11.060665
20
58.9
30
0
70
32
0
VERTEX
8
0
62
255
10
11.295998
20
58.9
30
0
70
32
0
VERTEX
8
0
62
255
10
11.531332
20
58.9
30
0
70
32
0
VERTEX
8
0
62
255
10
11.766665
20
58.9
30
0
70
32
0
VERTEX
8
0
62
255
10
12.001998
20
58.9
30
0
70
32
0
VERTEX
8
0
62
255
10
12.237331
20
58.9
30
0
70
32
0
VERTEX
8
0
62
255
10
12.472665
20
58.9
30
0
70
32
0
VERTEX
8
0
62
255
10
12.707998
20
58.9
30
0
70
32
0
VERTEX
8
0
62
255
10
12.943331
20
58.9
30
0
70
32
0
VERTEX
8
0
62
255
10
13.178665
20
58.9
30
0
70
32
0
VERTEX
8
0
62
255
10
13.413998
20
58.9
30
0
70
32
0
VERTEX
8
0
62
255
10
13.649331
20
58.9
30
0
70
32
0
VERTEX
8
0
62
255
10
13.884665
20
58.9
30
0
70
32
0
VERTEX
8
0
62
255
10
14.119998
20
58.9
30
0
70
32
0
VERTEX
8
0
62
255
10
14.355331
20
58.9
30
0
70
32
0
VERTEX
8
0
62
255
10
14.590664
20
58.9
30
0
70
32
0
VERTEX
8
0
62
255
10
14.825998
20
58.9
30
0
70
32
0
VERTEX
8
0
62
255
10
15.061331
20
58.9
30
0
70
32
0
VERTEX
8
0
62
255
10
15.296664
20
58.9
30
0
70
32
0
VERTEX
8
0
62
255
10
15.531998
20
58.9
30
0
70
32
0
VERTEX
8
0
62
255
10
15.767331
20
58.9
30
0
70
32
0
VERTEX
8
0
62
255
10
16.002664
20
58.9
30
0
70
32
0
VERTEX
8
0
62
255
10
16.237998
20
58.9
30
0
70
32
0
VERTEX
8
0
62
255
10
16.473331
20
58.9
30
0
70
32
0
VERTEX
8
0
62
255
10
16.708664
20
58.9
30
0
70
32
0
VERTEX
8
0
62
255
10
16.943997
20
58.9
30
0
70
32
0
VERTEX
8
0
62
255
10
17.179331
20
58.9
30
0
70
32
0
VERTEX
8
0
62
255
10
17.414664
20
58.9
30
0
70
32
0
VERTEX
8
0
62
255
10
17.649997
20
58.9
30
0
70
32
0
VERTEX
8
0
62
255
10
17.885331
20
58.9
30
0
70
32
0
VERTEX
8
0
62
255
10
18.120664
20
58.9
30
0
70
32
0
VERTEX
8
0
62
255
10
18.355997
20
58.9
30
0
70
32
0
VERTEX
8
0
62
255
10
18.59133
20
58.9
30
0
70
32
0
VERTEX
8
0
62
255
10
18.826664
20
58.9
30
0
70
32
0
VERTEX
8
0
62
255
10
19.061997
20
58.9
30
0
70
32
0
VERTEX
8
0
62
255
10
19.29733
20
58.9
30
0
70
32
0
VERTEX
8
0
62
255
10
19.532664
20
58.9
30
0
70
32
0
VERTEX
8
0
62
255
10
19.767997
20
58.9
30
0
70
32
0
VERTEX
8
0
62
255
10
20.00333
20
58.9
30
0
70
32
0
VERTEX
8
0
62
255
10
20.238664
20
58.9
30
0
70
32
0
VERTEX
8
0
62
255
10
20.473997
20
58.9
30
0
70
32
0
VERTEX
8
0
62
255
10
20.70933
20
58.9
30
0
70
32
0
VERTEX
8
0
62
255
10
20.944663
20
58.9
30
0
70
32
0
VERTEX
8
0
62
255
10
21.179997
20
58.9
30
0
70
32
0
VERTEX
8
0
62
255
10
21.41533
20
58.9
30
0
70
32
0
VERTEX
8
0
62
255
10
21.650663
20
58.9
30
0
70
32
0
VERTEX
8
0
62
255
10
21.885997
20
58.9
30
0
70
32
0
VERTEX
8
0
62
255
10
22.12133
20
58.9
30
0
70
32
0
VERTEX
8
0
62
255
10
22.356663
20
58.9
30
0
70
32
0
VERTEX
8
0
62
255
10
22.591997
20
58.9
30
0
70
32
0
VERTEX
8
0
62
255
10
22.82733
20
58.9
30
0
70
32
0
VERTEX
8
0
62
255
10
23.062663
20
58.9
30
0
70
32
0
VERTEX
8
0
62
255
10
23.297996
20
58.9
30
0
70
32
0
SEQEND
8
0
0
POLYLINE
8
0
62
255
66
1
10
0
20
0
30
0
70
8
0
VERTEX
8
0
62
255
10
23.297996
20
58.9
30
0
70
32
0
VERTEX
8
0
62
255
10
23.297996
20
58.910101
30
0
70
32
0
VERTEX
8
0
62
255
10
23.297996
20
58.920202
30
0
70
32
0
VERTEX
8
0
62
255
10
23.297996
20
58.930303
30
0
70
32
0
VERTEX
8
0
62
255
10
23.297996
20
58.940404
30
0
70
32
0
VERTEX
8
0
62
255
10
23.297996
20
58.950505
30
0
70
32
0
VERTEX
8
0
62
255
10
23.297996
20
58.960606
30
0
70
32
0
VERTEX
8
0
62
255
10
23.297996
20
58.970707
30
0
70
32
0
VERTEX
8
0
62
255
10
23.297996
20
58.980808
30
0
70
32
0
VERTEX
8
0
62
255
10
23.297996
20
58.990909
30
0
70
32
0
VERTEX
8
0
62
255
10
23.297996
20
59.00101
30
0
70
32
0
VERTEX
8
0
62
255
10
23.297996
20
59.011111
30
0
70
32
0
VERTEX
8
0
62
255
10
23.297996
20
59.021212
30
0
70
32
0
VERTEX
8
0
62
255
10
23.297996
20
59.031313
30
0
70
32
0
VERTEX
8
0
62
255
10
23.297996
20
59.041414
30
0
70
32
0
VERTEX
8
0
62
255
10
23.297996
20
59.051515
30
0
70
32
0
VERTEX
8
0
62
255
10
23.297996
20
59.061616
30
0
70
32
0
VERTEX
8
0
62
255
10
23.297996
20
59.071717
30
0
70
32
0
VERTEX
8
0
62
255
10
23.297996
20
59.081818
30
0
70
32
0
VERTEX
8
0
62
255
10
23.297996
20
59.091919
30
0
70
32
0
VERTEX
8
0
62
255
10
23.297996
20
59.10202
30
0
70
32
0
VERTEX
8
0
62
255
10
23.297996
20
59.112121
30
0
70
32
0
VERTEX
8
0
62
255
10
23.297996
20
59.122222
30
0
70
32
0
VERTEX
8
0
62
255
10
23.297996
20
59.132323
30
0
70
32
0
VERTEX
8
0
62
255
10
23.297996
20
59.142424
30
0
70
32
0
VERTEX
8
0
62
255
10
23.297996
20
59.152525
30
0
70
32
0
VERTEX
8
0
62
255
10
23.297996
20
59.162626
30
0
70
32
0
VERTEX
8
0
62
255
10
23.297996
20
59.172727
30
0
70
32
0
VERTEX
8
0
62
255
10
23.297996
20
59.182828
30
0
70
32
0
VERTEX
8
0
62
255
10
23.297996
20
59.192929
30
0
70
32
0
VERTEX
8
0
62
255
10
23.297996
20
59.20303
30
0
70
32
0
VERTEX
8
0
62
255
10
23.297996
20
59.213131
30
0
70
32
0
VERTEX
8
0
62
255
10
23.297996
20
59.223232
30
0
70
32
0
VERTEX
8
0
62
255
10
23.297996
20
59.233333
30
0
70
32
0
VERTEX
8
0
62
255
10
23.297996
20
59.243434
30
0
70
32
0
VERTEX
8
0
62
255
10
23.297996
20
59.253535
30
0
70
32
0
VERTEX
8
0
62
255
10
23.297996
20
59.263636
30
0
70
32
0
VERTEX
8
0
62
255
10
23.297996
20
59.273737
30
0
70
32
0
VERTEX
8
0
62
255
10
23.297996
20
59.283838
30
0
70
32
0
VERTEX
8
0
62
255
10
23.297996
20
59.293939
30
0
70
32
0
VERTEX
8
0
62
255
10
23.297996
20
59.30404
30
0
70
32
0
VERTEX
8
0
62
255
10
23.297996
20
59.314141
30
0
70
32
0
VERTEX
8
0
62
255
10
23.297996
20
59.324242
30
0
70
32
0
VERTEX
8
0
62
255
10
23.297996
20
59.334343
30
0
70
32
0
VERTEX
8
0
62
255
10
23.297996
20
59.344444
30
0
70
32
0
VERTEX
8
0
62
255
10
23.297996
20
59.354545
30
0
70
32
0
VERTEX
8
0
62
255
10
23.297996
20
59.364646
30
0
70
32
0
VERTEX
8
0
62
255
10
23.297996
20
59.374747
30
0
70
32
0
VERTEX
8
0
62
255
10
23.297996
20
59.384848
30
0
70
32
0
VERTEX
8
0
62
255
10
23.297996
20
59.394949
30
0
70
32
0
VERTEX
8
0
62
255
10
23.297996
20
59.405051
30
0
70
32
0
VERTEX
8
0
62
255
10
23.297996
20
59.415152
30
0
70
32
0
VERTEX
8
0
62
255
10
23.297996
20
59.425253
30
0
70
32
0
VERTEX
8
0
62
255
10
23.297996
20
59.435354
30
0
70
32
0
VERTEX
8
0
62
255
10
23.297996
20
59.445455
30
0
70
32
0
VERTEX
8
0
62
255
10
23.297996
20
59.455556
30
0
70
32
0
VERTEX
8
0
62
255
10
23.297996
20
59.465657
30
0
70
32
0
VERTEX
8
0
62
255
10
23.297996
20
59.475758
30
0
70
32
0
VERTEX
8
0
62
255
10
23.297996
20
59.485859
30
0
70
32
0
VERTEX
8
0
62
255
10
23.297996
20
59.49596
30
0
70
32
0
VERTEX
8
0
62
255
10
23.297996
20
59.506061
30
0
70
32
0
VERTEX
8
0
62
255
10
23.297996
20
59.516162
30
0
70
32
0
VERTEX
8
0
62
255
10
23.297996
20
59.526263
30
0
70
32
0
VERTEX
8
0
62
255
10
23.297996
20
59.536364
30
0
70
32
0
VERTEX
8
0
62
255
10
23.297996
20
59.546465
30
0
70
32
0
VERTEX
8
0
62
255
10
23.297996
20
59.556566
30
0
70
32
0
VERTEX
8
0
62
255
10
23.297996
20
59.566667
30
0
70
32
0
VERTEX
8
0
62
255
10
23.297996
20
59.576768
30
0
70
32
0
VERTEX
8
0
62
255
10
23.297996
20
59.586869
30
0
70
32
0
VERTEX
8
0
62
255
10
23.297996
20
59.59697
30
0
70
32
0
VERTEX
8
0
62
255
10
23.297996
20
59.607071
30
0
70
32
0
VERTEX
8
0
62
255
10
23.297996
20
59.617172
30
0
70
32
0
VERTEX
8
0
62
255
10
23.297996
20
59.627273
30
0
70
32
0
VERTEX
8
0
62
255
10
23.297996
20
59.637374
30
0
70
32
0
VERTEX
8
0
62
255
10
23.297996
20
59.647475
30
0
70
32
0
VERTEX
8
0
62
255
10
23.297996
20
59.657576
30
0
70
32
0
VERTEX
8
0
62
255
10
23.297996
20
59.667677
30
0
70
32
0
VERTEX
8
0
62
255
10
23.297996
20
59.677778
30
0
70
32
0
VERTEX
8
0
62
255
10
23.297996
20
59.687879
30
0
70
32
0
VERTEX
8
0
62
255
10
23.297996
20
59.69798
30
0
70
32
0
VERTEX
8
0
62
255
10
23.297996
20
59.708081
30
0
70
32
0
VERTEX
8
0
62
255
10
23.297996
20
59.718182
30
0
70
32
0
VERTEX
8
0
62
255
10
23.297996
20
59.728283
30
0
70
32
0
VERTEX
8
0
62
255
10
23.297996
20
59.738384
30
0
70
32
0
VERTEX
8
0
62
255
10
23.297996
20
59.748485
30
0
70
32
0
VERTEX
8
0
62
255
10
23.297996
20
59.758586
30
0
70
32
0
VERTEX
8
0
62
255
10
23.297996
20
59.768687
30
0
70
32
0
VERTEX
8
0
62
255
10
23.297996
20
59.778788
30
0
70
32
0
VERTEX
8
0
62
255
10
23.297996
20
59.788889
30
0
70
32
0
VERTEX
8
0
62
255
10
23.297996
20
59.79899
30
0
70
32
0
VERTEX
8
0
62
255
10
23.297996
20
59.809091
30
0
70
32
0
VERTEX
8
0
62
255
10
23.297996
20
59.819192
30
0
70
32
0
VERTEX
8
0
62
255
10
23.297996
20
59.829293
30
0
70
32
0
VERTEX
8
0
62
255
10
23.297996
20
59.839394
30
0
70
32
0
VERTEX
8
0
62
255
10
23.297996
20
59.849495
30
0
70
32
0
VERTEX
8
0
62
255
10
23.297996
20
59.859596
30
0
70
32
0
VERTEX
8
0
62
255
10
23.297996
20
59.869697
30
0
70
32
0
VERTEX
8
0
62
255
10
23.297996
20
59.879798
30
0
70
32
0
VERTEX
8
0
62
255
10
23.297996
20
59.889899
30
0
70
32
0
VERTEX
8
0
62
255
10
23.297996
20
59.9
30
0
70
32
0
SEQEND
8
0
0
POLYLINE
8
0
62
255
66
1
10
0
20
0
30
0
70
8
0
VERTEX
8
0
62
255
10
23.297996
20
59.9
30
0
70
32
0
VERTEX
8
0
62
255
10
23.062663
20
59.9
30
0
70
32
0
VERTEX
8
0
62
255
10
22.82733
20
59.9
30
0
70
32
0
VERTEX
8
0
62
255
10
22.591997
20
59.9
30
0
70
32
0
VERTEX
8
0
62
255
10
22.356663
20
59.9
30
0
70
32
0
VERTEX
8
0
62
255
10
22.12133
20
59.9
30
0
70
32
0
VERTEX
8
0
62
255
10
21.885997
20
59.9
30
0
70
32
0
VERTEX
8
0
62
255
10
21.650663
20
59.9
30
0
70
32
0
VERTEX
8
0
62
255
10
21.41533
20
59.9
30
0
70
32
0
VERTEX
8
0
62
255
10
21.179997
20
59.9
30
0
70
32
0
VERTEX
8
0
62
255
10
20.944663
20
59.9
30
0
70
32
0
VERTEX
8
0
62
255
10
20.70933
20
59.9
30
0
70
32
0
VERTEX
8
0
62
255
10
20.473997
20
59.9
30
0
70
32
0
VERTEX
8
0
62
255
10
20.238664
20
59.9
30
0
70
32
0
VERTEX
8
0
62
255
10
20.00333
20
59.9
30
0
70
32
0
VERTEX
8
0
62
255
10
19.767997
20
59.9
30
0
70
32
0
VERTEX
8
0
62
255
10
19.532664
20
59.9
30
0
70
32
0
VERTEX
8
0
62
255
10
19.29733
20
59.9
30
0
70
32
0
VERTEX
8
0
62
255
10
19.061997
20
59.9
30
0
70
32
0
VERTEX
8
0
62
255
10
18.826664
20
59.9
30
0
70
32
0
VERTEX
8
0
62
255
10
18.59133
20
59.9
30
0
70
32
0
VERTEX
8
0
62
255
10
18.355997
20
59.9
30
0
70
32
0
VERTEX
8
0
62
255
10
18.120664
20
59.9
30
0
70
32
0
VERTEX
8
0
62
255
10
17.885331
20
59.9
30
0
70
32
0
VERTEX
8
0
62
255
10
17.649997
20
59.9
30
0
70
32
0
VERTEX
8
0
62
255
10
17.414664
20
59.9
30
0
70
32
0
VERTEX
8
0
62
255
10
17.179331
20
59.9
30
0
70
32
0
VERTEX
8
0
62
255
10
16.943997
20
59.9
30
0
70
32
0
VERTEX
8
0
62
255
10
16.708664
20
59.9
30
0
70
32
0
VERTEX
8
0
62
255
10
16.473331
20
59.9
30
0
70
32
0
VERTEX
8
0
62
255
10
16.237998
20
59.9
30
0
70
32
0
VERTEX
8
0
62
255
10
16.002664
20
59.9
30
0
70
32
0
VERTEX
8
0
62
255
10
15.767331
20
59.9
30
0
70
32
0
VERTEX
8
0
62
255
10
15.531998
20
59.9
30
0
70
32
0
VERTEX
8
0
62
255
10
15.296664
20
59.9
30
0
70
32
0
VERTEX
8
0
62
255
10
15.061331
20
59.9
30
0
70
32
0
VERTEX
8
0
62
255
10
14.825998
20
59.9
30
0
70
32
0
VERTEX
8
0
62
255
10
14.590664
20
59.9
30
0
70
32
0
VERTEX
8
0
62
255
10
14.355331
20
59.9
30
0
70
32
0
VERTEX
8
0
62
255
10
14.119998
20
59.9
30
0
70
32
0
VERTEX
8
0
62
255
10
13.884665
20
59.9
30
0
70
32
0
VERTEX
8
0
62
255
10
13.649331
20
59.9
30
0
70
32
0
VERTEX
8
0
62
255
10
13.413998
20
59.9
30
0
70
32
0
VERTEX
8
0
62
255
10
13.178665
20
59.9
30
0
70
32
0
VERTEX
8
0
62
255
10
12.943331
20
59.9
30
0
70
32
0
VERTEX
8
0
62
255
10
12.707998
20
59.9
30
0
70
32
0
VERTEX
8
0
62
255
10
12.472665
20
59.9
30
0
70
32
0
VERTEX
8
0
62
255
10
12.237331
20
59.9
30
0
70
32
0
VERTEX
8
0
62
255
10
12.001998
20
59.9
30
0
70
32
0
VERTEX
8
0
62
255
10
11.766665
20
59.9
30
0
70
32
0
VERTEX
8
0
62
255
10
11.531332
20
59.9
30
0
70
32
0
VERTEX
8
0
62
255
10
11.295998
20
59.9
30
0
70
32
0
VERTEX
8
0
62
255
10
11.060665
20
59.9
30
0
70
32
0
VERTEX
8
0
62
255
10
10.825332
20
59.9
30
0
70
32
0
VERTEX
8
0
62
255
10
10.589998
20
59.9
30
0
70
32
0
VERTEX
8
0
62
255
10
10.354665
20
59.9
30
0
70
32
0
VERTEX
8
0
62
255
10
10.119332
20
59.9
30
0
70
32
0
VERTEX
8
0
62
255
10
9.8839985
20
59.9
30
0
70
32
0
VERTEX
8
0
62
255
10
9.6486652
20
59.9
30
0
70
32
0
VERTEX
8
0
62
255
10
9.4133319
20
59.9
30
0
70
32
0
VERTEX
8
0
62
255
10
9.1779986
20
59.9
30
0
70
32
0
VERTEX
8
0
62
255
10
8.9426653
20
59.9
30
0
70
32
0
VERTEX
8
0
62
255
10
8.707332
20
59.9
30
0
70
32
0
VERTEX
8
0
62
255
10
8.4719987
20
59.9
30
0
70
32
0
VERTEX
8
0
62
255
10
8.2366654
20
59.9
30
0
70
32
0
VERTEX
8
0
62
255
10
8.0013321
20
59.9
30
0
70
32
0
VERTEX
8
0
62
255
10
7.7659988
20
59.9
30
0
70
32
0
VERTEX
8
0
62
255
10
7.5306655
20
59.9
30
0
70
32
0
VERTEX
8
0
62
255
10
7.2953322
20
59.9
30
0
70
32
0
VERTEX
8
0
62
255
10
7.0599989
20
59.9
30
0
70
32
0
VERTEX
8
0
62
255
10
6.8246656
20
59.9
30
0
70
32
0
VERTEX
8
0
62
255
10
6.5893323
20
59.9
30
0
70
32
0
VERTEX
8
0
62
255
10
6.353999
20
59.9
30
0
70
32
0
VERTEX
8
0
62
255
10
6.1186657
20
59.9
30
0
70
32
0
VERTEX
8
0
62
255
10
5.8833324
20
59.9
30
0
70
32
0
VERTEX
8
0
62
255
10
5.6479991
20
59.9
30
0
70
32
0
VERTEX
8
0
62
255
10
5.4126658
20
59.9
30
0
70
32
0
VERTEX
8
0
62
255
10
5.1773325
20
59.9
30
0
70
32
0
VERTEX
8
0
62
255
10
4.9419992
20
59.9
30
0
70
32
0
VERTEX
8
0
62
255
10
4.7066659
20
59.9
30
0
70
32
0
VERTEX
8
0
62
255
10
4.4713326
20
59.9
30
0
70
32
0
VERTEX
8
0
62
255
10
4.2359993
20
59.9
30
0
70
32
0
VERTEX
8
0
62
255
10
4.0006661
20
59.9
30
0
70
32
0
VERTEX
8
0
62
255
10
3.7653328
20
59.9
30
0
70
32
0
VERTEX
8
0
62
255
10
3.5299995
20
59.9
30
0
70
32
0
VERTEX
8
0
62
255
10
3.2946662
20
59.9
30
0
70
32
0
VERTEX
8
0
62
255
10
3.0593329
20
59.9
30
0
70
32
0
VERTEX
8
0
62
255
10
2.8239996
20
59.9
30
0
70
32
0
VERTEX
8
0
62
255
10
2.5886663
20
59.9
30
0
70
32
0
VERTEX
8
0
62
255
10
2.353333
20
59.9
30
0
70
32
0
VERTEX
8
0
62
255
10
2.1179997
20
59.9
30
0
70
32
0
VERTEX
8
0
62
255
10
1.8826664
20
59.9
30
0
70
32
0
VERTEX
8
0
62
255
10
1.6473331
20
59.9
30
0
70
32
0
VERTEX
8
0
62
255
10
1.4119998
20
59.9
30
0
70
32
0
VERTEX
8
0
62
255
10
1.1766665
20
59.9
30
0
70
32
0
VERTEX
8
0
62
255
10
0.94133319
20
59.9
30
0
70
32
0
VERTEX
8
0
62
255
10
0.70599989
20
59.9
30
0
70
32
0
VERTEX
8
0
62
255
10
0.47066659
20
59.9
30
0
70
32
0
VERTEX
8
0
62
255
10
0.2353333
20
59.9
30
0
70
32
0
VERTEX
8
0
62
255
10
0
20
59.9
30
0
70
32
0
SEQEND
8
0
0
POLYLINE
8
0
62
255
66
1
10
0
20
0
30
0
70
8
0
VERTEX
8
0
62
255
10
0
20
59.9
30
0
70
32
0
VERTEX
8
0
62
255
10
-0
20
59.889899
30
0
70
32
0
VERTEX
8
0
62
255
10
-0
20
59.879798
30
0
70
32
0
VERTEX
8
0
62
255
10
-0
20
59.869697
30
0
70
32
0
VERTEX
8
0
62
255
10
-0
20
59.859596
30
0
70
32
0
VERTEX
8
0
62
255
10
-0
20
59.849495
30
0
70
32
0
VERTEX
8
0
62
255
10
-0
20
59.839394
30
0
70
32
0
VERTEX
8
0
62
255
10
-0
20
59.829293
30
0
70
32
0
VERTEX
8
0
62
255
10
-0
20
59.819192
30
0
70
32
0
VERTEX
8
0
62
255
10
-0
20
59.809091
30
0
70
32
0
VERTEX
8
0
62
255
10
-0
20
59.79899
30
0
70
32
0
VERTEX
8
0
62
255
10
-0
20
59.788889
30
0
70
32
0
VERTEX
8
0
62
255
10
-0
20
59.778788
30
0
70
32
0
VERTEX
8
0
62
255
10
-0
20
59.768687
30
0
70
32
0
VERTEX
8
0
62
255
10
-0
20
59.758586
30
0
70
32
0
VERTEX
8
0
62
255
10
-0
20
59.748485
30
0
70
32
0
VERTEX
8
0
62
255
10
-0
20
59.738384
30
0
70
32
0
VERTEX
8
0
62
255
10
-0
20
59.728283
30
0
70
32
0
VERTEX
8
0
62
255
10
-0
20
59.718182
30
0
70
32
0
VERTEX
8
0
62
255
10
-0
20
59.708081
30
0
70
32
0
VERTEX
8
0
62
255
10
-0
20
59.69798
30
0
70
32
0
VERTEX
8
0
62
255
10
-0
20
59.687879
30
0
70
32
0
VERTEX
8
0
62
255
10
-0
20
59.677778
30
0
70
32
0
VERTEX
8
0
62
255
10
-0
20
59.667677
30
0
70
32
0
VERTEX
8
0
62
255
10
-0
20
59.657576
30
0
70
32
0
VERTEX
8
0
62
255
10
-0
20
59.647475
30
0
70
32
0
VERTEX
8
0
62
255
10
-0
20
59.637374
30
0
70
32
0
VERTEX
8
0
62
255
10
-0
20
59.627273
30
0
70
32
0
VERTEX
8
0
62
255
10
-0
20
59.617172
30
0
70
32
0
VERTEX
8
0
62
255
10
-0
20
59.607071
30
0
70
32
0
VERTEX
8
0
62
255
10
-0
20
59.59697
30
0
70
32
0
VERTEX
8
0
62
255
10
-0
20
59.586869
30
0
70
32
0
VERTEX
8
0
62
255
10
-0
20
59.576768
30
0
70
32
0
VERTEX
8
0
62
255
10
-0
20
59.566667
30
0
70
32
0
VERTEX
8
0
62
255
10
-0
20
59.556566
30
0
70
32
0
VERTEX
8
0
62
255
10
-0
20
59.546465
30
0
70
32
0
VERTEX
8
0
62
255
10
-0
20
59.536364
30
0
70
32
0
VERTEX
8
0
62
255
10
-0
20
59.526263
30
0
70
32
0
VERTEX
8
0
62
255
10
-0
20
59.516162
30
0
70
32
0
VERTEX
8
0
62
255
10
-0
20
59.506061
30
0
70
32
0
VERTEX
8
0
62
255
10
-0
20
59.49596
30
0
70
32
0
VERTEX
8
0
62
255
10
-0
20
59.485859
30
0
70
32
0
VERTEX
8
0
62
255
10
-0
20
59.475758
30
0
70
32
0
VERTEX
8
0
62
255
10
-0
20
59.465657
30
0
70
32
0
VERTEX
8
0
62
255
10
-0
20
59.455556
30
0
70
32
0
VERTEX
8
0
62
255
10
-0
20
59.445455
30
0
70
32
0
VERTEX
8
0
62
255
10
-0
20
59.435354
30
0
70
32
0
VERTEX
8
0
62
255
10
-0
20
59.425253
30
0
70
32
0
VERTEX
8
0
62
255
10
-0
20
59.415152
30
0
70
32
0
VERTEX
8
0
62
255
10
-0
20
59.405051
30
0
70
32
0
VERTEX
8
0
62
255
10
0
20
59.394949
30
0
70
32
0
VERTEX
8
0
62
255
10
0
20
59.384848
30
0
70
32
0
VERTEX
8
0
62
255
10
0
20
59.374747
30
0
70
32
0
VERTEX
8
0
62
255
10
0
20
59.364646
30
0
70
32
0
VERTEX
8
0
62
255
10
0
20
59.354545
30
0
70
32
0
VERTEX
8
0
62
255
10
0
20
59.344444
30
0
70
32
0
VERTEX
8
0
62
255
10
0
20
59.334343
30
0
70
32
0
VERTEX
8
0
62
255
10
0
20
59.324242
30
0
70
32
0
VERTEX
8
0
62
255
10
0
20
59.314141
30
0
70
32
0
VERTEX
8
0
62
255
10
0
20
59.30404
30
0
70
32
0
VERTEX
8
0
62
255
10
0
20
59.293939
30
0
70
32
0
VERTEX
8
0
62
255
10
0
20
59.283838
30
0
70
32
0
VERTEX
8
0
62
255
10
0
20
59.273737
30
0
70
32
0
VERTEX
8
0
62
255
10
0
20
59.263636
30
0
70
32
0
VERTEX
8
0
62
255
10
0
20
59.253535
30
0
70
32
0
VERTEX
8
0
62
255
10
0
20
59.243434
30
0
70
32
0
VERTEX
8
0
62
255
10
0
20
59.233333
30
0
70
32
0
VERTEX
8
0
62
255
10
0
20
59.223232
30
0
70
32
0
VERTEX
8
0
62
255
10
0
20
59.213131
30
0
70
32
0
VERTEX
8
0
62
255
10
0
20
59.20303
30
0
70
32
0
VERTEX
8
0
62
255
10
0
20
59.192929
30
0
70
32
0
VERTEX
8
0
62
255
10
0
20
59.182828
30
0
70
32
0
VERTEX
8
0
62
255
10
0
20
59.172727
30
0
70
32
0
VERTEX
8
0
62
255
10
0
20
59.162626
30
0
70
32
0
VERTEX
8
0
62
255
10
0
20
59.152525
30
0
70
32
0
VERTEX
8
0
62
255
10
0
20
59.142424
30
0
70
32
0
VERTEX
8
0
62
255
10
0
20
59.132323
30
0
70
32
0
VERTEX
8
0
62
255
10
0
20
59.122222
30
0
70
32
0
VERTEX
8
0
62
255
10
0
20
59.112121
30
0
70
32
0
VERTEX
8
0
62
255
10
0
20
59.10202
30
0
70
32
0
VERTEX
8
0
62
255
10
0
20
59.091919
30
0
70
32
0
VERTEX
8
0
62
255
10
0
20
59.081818
30
0
70
32
0
VERTEX
8
0
62
255
10
0
20
59.071717
30
0
70
32
0
VERTEX
8
0
62
255
10
0
20
59.061616
30
0
70
32
0
VERTEX
8
0
62
255
10
0
20
59.051515
30
0
70
32
0
VERTEX
8
0
62
255
10
0
20
59.041414
30
0
70
32
0
VERTEX
8
0
62
255
10
0
20
59.031313
30
0
70
32
0
VERTEX
8
0
62
255
10
0
20
59.021212
30
0
70
32
0
VERTEX
8
0
62
255
10
0
20
59.011111
30
0
70
32
0
VERTEX
8
0
62
255
10
0
20
59.00101
30
0
70
32
0
VERTEX
8
0
62
255
10
0
20
58.990909
30
0
70
32
0
VERTEX
8
0
62
255
10
0
20
58.980808
30
0
70
32
0
VERTEX
8
0
62
255
10
0
20
58.970707
30
0
70
32
0
VERTEX
8
0
62
255
10
0
20
58.960606
30
0
70
32
0
VERTEX
8
0
62
255
10
0
20
58.950505
30
0
70
32
0
VERTEX
8
0
62
255
10
0
20
58.940404
30
0
70
32
0
VERTEX
8
0
62
255
10
0
20
58.930303
30
0
70
32
0
VERTEX
8
0
62
255
10
0
20
58.920202
30
0
70
32
0
VERTEX
8
0
62
255
10
0
20
58.910101
30
0
70
32
0
VERTEX
8
0
62
255
10
0
20
58.9
30
0
70
32
0
SEQEND
8
0
0
POLYLINE
8
0
62
255
66
1
10
0
20
0
30
0
70
8
0
VERTEX
8
0
62
255
10
0
20
47.751002
30
0
70
32
0
VERTEX
8
0
62
255
10
0.2353333
20
47.97205
30
0
70
32
0
VERTEX
8
0
62
255
10
0.47066659
20
48.193098
30
0
70
32
0
VERTEX
8
0
62
255
10
0.70599989
20
48.414147
30
0
70
32
0
VERTEX
8
0
62
255
10
0.94133319
20
48.635195
30
0
70
32
0
VERTEX
8
0
62
255
10
1.1766665
20
48.856243
30
0
70
32
0
VERTEX
8
0
62
255
10
1.4119998
20
49.077292
30
0
70
32
0
VERTEX
8
0
62
255
10
1.6473331
20
49.29834
30
0
70
32
0
VERTEX
8
0
62
255
10
1.8826664
20
49.519388
30
0
70
32
0
VERTEX
8
0
62
255
10
2.1179997
20
49.740437
30
0
70
32
0
VERTEX
8
0
62
255
10
2.353333
20
49.961485
30
0
70
32
0
VERTEX
8
0
62
255
10
2.5886663
20
50.182533
30
0
70
32
0
VERTEX
8
0
62
255
10
2.8239996
20
50.403582
30
0
70
32
0
VERTEX
8
0
62
255
10
3.0593329
20
50.62463
30
0
70
32
0
VERTEX
8
0
62
255
10
3.2946662
20
50.845678
30
0
70
32
0
VERTEX
8
0
62
255
10
3.5299995
20
51.066726
30
0
70
32
0
VERTEX
8
0
62
255
10
3.7653328
20
51.287775
30
0
70
32
0
VERTEX
8
0
62
255
10
4.0006661
20
51.508823
30
0
70
32
0
VERTEX
8
0
62
255
10
4.2359993
20
51.729871
30
0
70
32
0
VERTEX
8
0
62
255
10
4.4713326
20
51.95092
30
0
70
32
0
VERTEX
8
0
62
255
10
4.7066659
20
52.171968
30
0
70
32
0
VERTEX
8
0
62
255
10
4.9419992
20
52.393016
30
0
70
32
0
VERTEX
8
0
62
255
10
5.1773325
20
52.614065
30
0
70
32
0
VERTEX
8
0
62
255
10
5.4126658
20
52.835113
30
0
70
32
0
VERTEX
8
0
62
255
10
5.6479991
20
53.056161
30
0
70
32
0
VERTEX
8
0
62
255
10
5.8833324
20
53.27721
30
0
70
32
0
VERTEX
8
0
62
255
10
6.1186657
20
53.498258
30
0
70
32
0
VERTEX
8
0
62
255
10
6.353999
20
53.719306
30
0
70
32
0
VERTEX
8
0
62
255
10
6.5893323
20
53.940355
30
0
70
32
0
VERTEX
8
0
62
255
10
6.8246656
20
54.161403
30
0
70
32
0
VERTEX
8
0
62
255
10
7.0599989
20
54.382451
30
0
70
32
0
VERTEX
8
0
62
255
10
7.2953322
20
54.603499
30
0
70
32
0
VERTEX
8
0
62
255
10
7.5306655
20
54.824548
30
0
70
32
0
VERTEX
8
0
62
255
10
7.7659988
20
55.045596
30
0
70
32
0
VERTEX
8
0
62
255
10
8.0013321
20
55.266644
30
0
70
32
0
VERTEX
8
0
62
255
10
8.2366654
20
55.487693
30
0
70
32
0
VERTEX
8
0
62
255
10
8.4719987
20
55.708741
30
0
70
32
0
VERTEX
8
0
62
255
10
8.707332
20
55.929789
30
0
70
32
0
VERTEX
8
0
62
255
10
8.9426653
20
56.150838
30
0
70
32
0
VERTEX
8
0
62
255
10
9.1779986
20
56.371886
30
0
70
32
0
VERTEX
8
0
62
255
10
9.4133319
20
56.592934
30
0
70
32
0
VERTEX
8
0
62
255
10
9.6486652
20
56.813983
30
0
70
32
0
VERTEX
8
0
62
255
10
9.8839985
20
57.035031
30
0
70
32
0
VERTEX
8
0
62
255
10
10.119332
20
57.256079
30
0
70
32
0
VERTEX
8
0
62
255
10
10.354665
20
57.477128
30
0
70
32
0
VERTEX
8
0
62
255
10
10.589998
20
57.698176
30
0
70
32
0
VERTEX
8
0
62
255
10
10.825332
20
57.919224
30
0
70
32
0
VERTEX
8
0
62
255
10
11.060665
20
58.140272
30
0
70
32
0
VERTEX
8
0
62
255
10
11.295998
20
58.361321
30
0
70
32
0
VERTEX
8
0
62
255
10
11.531332
20
58.582369
30
0
70
32
0
VERTEX
8
0
62
255
10
11.766665
20
58.803417
30
0
70
32
0
VERTEX
8
0
62
255
10
12.001998
20
59.024466
30
0
70
32
0
VERTEX
8
0
62
255
10
12.237331
20
59.245514
30
0
70
32
0
VERTEX
8
0
62
255
10
12.472665
20
59.466562
30
0
70
32
0
VERTEX
8
0
62
255
10
12.707998
20
59.687611
30
0
70
32
0
VERTEX
8
0
62
255
10
12.943331
20
59.908659
30
0
70
32
0
VERTEX
8
0
62
255
10
13.178665
20
60.129707
30
0
70
32
0
VERTEX
8
0
62
255
10
13.413998
20
60.350756
30
0
70
32
0
VERTEX
8
0
62
255
10
13.649331
20
60.571804
30
0
70
32
0
VERTEX
8
0
62
255
10
13.884665
20
60.792852
30
0
70
32
0
VERTEX
8
0
62
255
10
14.119998
20
61.0139
30
0
70
32
0
VERTEX
8
0
62
255
10
14.355331
20
61.234949
30
0
70
32
0
VERTEX
8
0
62
255
10
14.590664
20
61.455997
30
0
70
32
0
VERTEX
8
0
62
255
10
14.825998
20
61.677045
30
0
70
32
0
VERTEX
8
0
62
255
10
15.061331
20
61.898094
30
0
70
32
0
VERTEX
8
0
62
255
10
15.296664
20
62.119142
30
0
70
32
0
VERTEX
8
0
62
255
10
15.531998
20
62.34019
30
0
70
32
0
VERTEX
8
0
62
255
10
15.767331
20
62.561239
30
0
70
32
0
VERTEX
8
0
62
255
10
16.002664
20
62.782287
30
0
70
32
0
VERTEX
8
0
62
255
10
16.237998
20
63.003335
30
0
70
32
0
VERTEX
8
0
62
255
10
16.473331
20
63.224384
30
0
70
32
0
VERTEX
8
0
62
255
10
16.708664
20
63.445432
30
0
70
32
0
VERTEX
8
0
62
255
10
16.943997
20
63.66648
30
0
70
32
0
VERTEX
8
0
62
255
10
17.179331
20
63.887529
30
0
70
32
0
VERTEX
8
0
62
255
10
17.414664
20
64.108577
30
0
70
32
0
VERTEX
8
0
62
255
10
17.649997
20
64.329625
30
0
70
32
0
VERTEX
8
0
62
255
10
17.885331
20
64.550673
30
0
70
32
0
VERTEX
8
0
62
255
10
18.120664
20
64.771722
30
0
70
32
0
VERTEX
8
0
62
255
10
18.355997
20
64.99277
30
0
70
32
0
VERTEX
8
0
62
255
10
18.59133
20
65.213818
30
0
70
32
0
VERTEX
8
0
62
255
10
18.826664
20
65.434867
30
0
70
32
0
VERTEX
8
0
62
255
10
19.061997
20
65.655915
30
0
70
32
0
VERTEX
8
0
62
255
10
19.29733
20
65.876963
30
0
70
32
0
VERTEX
8
0
62
255
10
19.532664
20
66.098012
30
0
70
32
0
VERTEX
8
0
62
255
10
19.767997
20
66.31906
30
0
70
32
0
VERTEX
8
0
62
255
10
20.00333
20
66.540108
30
0
70
32
0
VERTEX
8
0
62
255
10
20.238664
20
66.761157
30
0
70
32
0
VERTEX
8
0
62
255
10
20.473997
20
66.982205
30
0
70
32
0
VERTEX
8
0
62
255
10
20.70933
20
67.203253
30
0
70
32
0
VERTEX
8
0
62
255
10
20.944663
20
67.424302
30
0
70
32
0
VERTEX
8
0
62
255
10
21.179997
20
67.64535
30
0
70
32
0
VERTEX
8
0
62
255
10
21.41533
20
67.866398
30
0
70
32
0
VERTEX
8
0
62
255
10
21.650663
20
68.087446
30
0
70
32
0
VERTEX
8
0
62
255
10
21.885997
20
68.308495
30
0
70
32
0
VERTEX
8
0
62
255
10
22.12133
20
68.529543
30
0
70
32
0
VERTEX
8
0
62
255
10
22.356663
20
68.750591
30
0
70
32
0
VERTEX
8
0
62
255
10
22.591997
20
68.97164
30
0
70
32
0
VERTEX
8
0
62
255
10
22.82733
20
69.192688
30
0
70
32
0
VERTEX
8
0
62
255
10
23.062663
20
69.413736
30
0
70
32
0
VERTEX
8
0
62
255
10
23.297996
20
69.634785
30
0
70
32
0
SEQEND
8
0
0
POLYLINE
8
0
62
255
66
1
10
0
20
0
30
0
70
8
0
VERTEX
8
0
62
255
10
23.297996
20
69.634785
30
0
70
32
0
VERTEX
8
0
62
255
10
23.297996
20
69.64907
30
0
70
32
0
VERTEX
8
0
62
255
10
23.297996
20
69.663355
30
0
70
32
0
VERTEX
8
0
62
255
10
23.297996
20
69.67764
30
0
70
32
0
VERTEX
8
0
62
255
10
23.297996
20
69.691925
30
0
70
32
0
VERTEX
8
0
62
255
10
23.297996
20
69.70621
30
0
70
32
0
VERTEX
8
0
62
255
10
23.297996
20
69.720495
30
0
70
32
0
VERTEX
8
0
62
255
10
23.297996
20
69.73478
30
0
70
32
0
VERTEX
8
0
62
255
10
23.297996
20
69.749065
30
0
70
32
0
VERTEX
8
0
62
255
10
23.297996
20
69.76335
30
0
70
32
0
VERTEX
8
0
62
255
10
23.297996
20
69.777635
30
0
70
32
0
VERTEX
8
0
62
255
10
23.297996
20
69.791919
30
0
70
32
0
VERTEX
8
0
62
255
10
23.297996
20
69.806204
30
0
70
32
0
VERTEX
8
0
62
255
10
23.297996
20
69.820489
30
0
70
32
0
VERTEX
8
0
62
255
10
23.297996
20
69.834774
30
0
70
32
0
VERTEX
8
0
62
255
10
23.297996
20
69.849059
30
0
70
32
0
VERTEX
8
0
62
255
10
23.297996
20
69.863344
30
0
70
32
0
VERTEX
8
0
62
255
10
23.297996
20
69.877629
30
0
70
32
0
VERTEX
8
0
62
255
10
23.297996
20
69.891914
30
0
70
32
0
VERTEX
8
0
62
255
10
23.297996
20
69.906199
30
0
70
32
0
VERTEX
8
0
62
255
10
23.297996
20
69.920484
30
0
70
32
0
VERTEX
8
0
62
255
10
23.297996
20
69.934769
30
0
70
32
0
VERTEX
8
0
62
255
10
23.297996
20
69.949054
30
0
70
32
0
VERTEX
8
0
62
255
10
23.297996
20
69.963339
30
0
70
32
0
VERTEX
8
0
62
255
10
23.297996
20
69.977624
30
0
70
32
0
VERTEX
8
0
62
255
10
23.297996
20
69.991909
30
0
70
32
0
VERTEX
8
0
62
255
10
23.297996
20
70.006194
30
0
70
32
0
VERTEX
8
0
62
255
10
23.297996
20
70.020479
30
0
70
32
0
VERTEX
8
0
62
255
10
23.297996
20
70.034764
30
0
70
32
0
VERTEX
8
0
62
255
10
23.297996
20
70.049049
30
0
70
32
0
VERTEX
8
0
62
255
10
23.297996
20
70.063334
30
0
70
32
0
VERTEX
8
0
62
255
10
23.297996
20
70.077619
30
0
70
32
0
VERTEX
8
0
62
255
10
23.297996
20
70.091904
30
0
70
32
0
VERTEX
8
0
62
255
10
23.297996
20
70.106189
30
0
70
32
0
VERTEX
8
0
62
255
10
23.297996
20
70.120474
30
0
70
32
0
VERTEX
8
0
62
255
10
23.297996
20
70.134759
30
0
70
32
0
VERTEX
8
0
62
255
10
23.297996
20
70.149044
30
0
70
32
0
VERTEX
8
0
62
255
10
23.297996
20
70.163329
30
0
70
32
0
VERTEX
8
0
62
255
10
23.297996
20
70.177614
30
0
70
32
0
VERTEX
8
0
62
255
10
23.297996
20
70.191899
30
0
70
32
0
VERTEX
8
0
62
255
10
23.297996
20
70.206184
30
0
70
32
0
VERTEX
8
0
62
255
10
23.297996
20
70.220469
30
0
70
32
0
VERTEX
8
0
62
255
10
23.297996
20
70.234754
30
0
70
32
0
VERTEX
8
0
62
255
10
23.297996
20
70.249039
30
0
70
32
0
VERTEX
8
0
62
255
10
23.297996
20
70.263324
30
0
70
32
0
VERTEX
8
0
62
255
10
23.297996
20
70.277609
30
0
70
32
0
VERTEX
8
0
62
255
10
23.297996
20
70.291894
30
0
70
32
0
VERTEX
8
0
62
255
10
23.297996
20
70.306179
30
0
70
32
0
VERTEX
8
0
62
255
10
23.297996
20
70.320464
30
0
70
32
0
VERTEX
8
0
62
255
10
23.297996
20
70.334749
30
0
70
32
0
VERTEX
8
0
62
255
10
23.297996
20
70.349034
30
0
70
32
0
VERTEX
8
0
62
255
10
23.297996
20
70.363319
30
0
70
32
0
VERTEX
8
0
62
255
10
23.297996
20
70.377604
30
0
70
32
0
VERTEX
8
0
62
255
10
23.297996
20
70.391889
30
0
70
32
0
VERTEX
8
0
62
255
10
23.297996
20
70.406174
30
0
70
32
0
VERTEX
8
0
62
255
10
23.297996
20
70.420459
30
0
70
32
0
VERTEX
8
0
62
255
10
23.297996
20
70.434744
30
0
70
32
0
VERTEX
8
0
62
255
10
23.297996
20
70.449029
30
0
70
32
0
VERTEX
8
0
62
255
10
23.297996
20
70.463314
30
0
70
32
0
VERTEX
8
0
62
255
10
23.297996
20
70.477599
30
0
70
32
0
VERTEX
8
0
62
255
10
23.297996
20
70.491884
30
0
70
32
0
VERTEX
8
0
62
255
10
23.297996
20
70.506169
30
0
70
32
0
VERTEX
8
0
62
255
10
23.297996
20
70.520454
30
0
70
32
0
VERTEX
8
0
62
255
10
23.297996
20
70.534739
30
0
70
32
0
VERTEX
8
0
62
255
10
23.297996
20
70.549024
30
0
70
32
0
VERTEX
8
0
62
255
10
23.297996
20
70.563309
30
0
70
32
0
VERTEX
8
0
62
255
10
23.297996
20
70.577594
30
0
70
32
0
VERTEX
8
0
62
255
10
23.297996
20
70.591879
30
0
70
32
0
VERTEX
8
0
62
255
10
23.297996
20
70.606164
30
0
70
32
0
VERTEX
8
0
62
255
10
23.297996
20
70.620449
30
0
70
32
0
VERTEX
8
0
62
255
10
23.297996
20
70.634734
30
0
70
32
0
VERTEX
8
0
62
255
10
23.297996
20
70.649019
30
0
70
32
0
VERTEX
8
0
62
255
10
23.297996
20
70.663304
30
0
70
32
0
VERTEX
8
0
62
255
10
23.297996
20
70.677589
30
0
70
32
0
VERTEX
8
0
62
255
10
23.297996
20
70.691874
30
0
70
32
0
VERTEX
8
0
62
255
10
23.297996
20
70.706159
30
0
70
32
0
VERTEX
8
0
62
255
10
23.297996
20
70.720444
30
0
70
32
0
VERTEX
8
0
62
255
10
23.297996
20
70.734729
30
0
70
32
0
VERTEX
8
0
62
255
10
23.297996
20
70.749014
30
0
70
32
0
VERTEX
8
0
62
255
10
23.297996
20
70.763298
30
0
70
32
0
VERTEX
8
0
62
255
10
23.297996
20
70.777583
30
0
70
32
0
VERTEX
8
0
62
255
10
23.297996
20
70.791868
30
0
70
32
0
VERTEX
8
0
62
255
10
23.297996
20
70.806153
30
0
70
32
0
VERTEX
8
0
62
255
10
23.297996
20
70.820438
30
0
70
32
0
VERTEX
8
0
62
255
10
23.297996
20
70.834723
30
0
70
32
0
VERTEX
8
0
62
255
10
23.297996
20
70.849008
30
0
70
32
0
VERTEX
8
0
62
255
10
23.297996
20
70.863293
30
0
70
32
0
VERTEX
8
0
62
255
10
23.297996
20
70.877578
30
0
70
32
0
VERTEX
8
0
62
255
10
23.297996
20
70.891863
30
0
70
32
0
VERTEX
8
0
62
255
10
23.297996
20
70.906148
30
0
70
32
0
VERTEX
8
0
62
255
10
23.297996
20
70.920433
30
0
70
32
0
VERTEX
8
0
62
255
10
23.297996
20
70.934718
30
0
70
32
0
VERTEX
8
0
62
255
10
23.297996
20
70.949003
30
0
70
32
0
VERTEX
8
0
62
255
10
23.297996
20
70.963288
30
0
70
32
0
VERTEX
8
0
62
255
10
23.297996
20
70.977573
30
0
70
32
0
VERTEX
8
0
62
255
10
23.297996
20
70.991858
30
0
70
32
0
VERTEX
8
0
62
255
10
23.297996
20
71.006143
30
0
70
32
0
VERTEX
8
0
62
255
10
23.297996
20
71.020428
30
0
70
32
0
VERTEX
8
0
62
255
10
23.297996
20
71.034713
30
0
70
32
0
VERTEX
8
0
62
255
10
23.297996
20
71.048998
30
0
70
32
0
SEQEND
8
0
0
POLYLINE
8
0
62
255
66
1
10
0
20
0
30
0
70
8
0
VERTEX
8
0
62
255
10
23.297996
20
71.048998
30
0
70
32
0
VERTEX
8
0
62
255
10
23.062663
20
70.82795
30
0
70
32
0
VERTEX
8
0
62
255
10
22.82733
20
70.606902
30
0
70
32
0
VERTEX
8
0
62
255
10
22.591997
20
70.385853
30
0
70
32
0
VERTEX
8
0
62
255
10
22.356663
20
70.164805
30
0
70
32
0
VERTEX
8
0
62
255
10
22.12133
20
69.943757
30
0
70
32
0
VERTEX
8
0
62
255
10
21.885997
20
69.722708
30
0
70
32
0
VERTEX
8
0
62
255
10
21.650663
20
69.50166
30
0
70
32
0
VERTEX
8
0
62
255
10
21.41533
20
69.280612
30
0
70
32
0
VERTEX
8
0
62
255
10
21.179997
20
69.059563
30
0
70
32
0
VERTEX
8
0
62
255
10
20.944663
20
68.838515
30
0
70
32
0
VERTEX
8
0
62
255
10
20.70933
20
68.617467
30
0
70
32
0
VERTEX
8
0
62
255
10
20.473997
20
68.396418
30
0
70
32
0
VERTEX
8
0
62
255
10
20.238664
20
68.17537
30
0
70
32
0
VERTEX
8
0
62
255
10
20.00333
20
67.954322
30
0
70
32
0
VERTEX
8
0
62
255
10
19.767997
20
67.733274
30
0
70
32
0
VERTEX
8
0
62
255
10
19.532664
20
67.512225
30
0
70
32
0
VERTEX
8
0
62
255
10
19.29733
20
67.291177
30
0
70
32
0
VERTEX
8
0
62
255
10
19.061997
20
67.070129
30
0
70
32
0
VERTEX
8
0
62
255
10
18.826664
20
66.84908
30
0
70
32
0
VERTEX
8
0
62
255
10
18.59133
20
66.628032
30
0
70
32
0
VERTEX
8
0
62
255
10
18.355997
20
66.406984
30
0
70
32
0
VERTEX
8
0
62
255
10
18.120664
20
66.185935
30
0
70
32
0
VERTEX
8
0
62
255
10
17.885331
20
65.964887
30
0
70
32
0
VERTEX
8
0
62
255
10
17.649997
20
65.743839
30
0
70
32
0
VERTEX
8
0
62
255
10
17.414664
20
65.52279
30
0
70
32
0
VERTEX
8
0
62
255
10
17.179331
20
65.301742
30
0
70
32
0
VERTEX
8
0
62
255
10
16.943997
20
65.080694
30
0
70
32
0
VERTEX
8
0
62
255
10
16.708664
20
64.859645
30
0
70
32
0
VERTEX
8
0
62
255
10
16.473331
20
64.638597
30
0
70
32
0
VERTEX
8
0
62
255
10
16.237998
20
64.417549
30
0
70
32
0
VERTEX
8
0
62
255
10
16.002664
20
64.196501
30
0
70
32
0
VERTEX
8
0
62
255
10
15.767331
20
63.975452
30
0
70
32
0
VERTEX
8
0
62
255
10
15.531998
20
63.754404
30
0
70
32
0
VERTEX
8
0
62
255
10
15.296664
20
63.533356
30
0
70
32
0
VERTEX
8
0
62
255
10
15.061331
20
63.312307
30
0
70
32
0
VERTEX
8
0
62
255
10
14.825998
20
63.091259
30
0
70
32
0
VERTEX
8
0
62
255
10
14.590664
20
62.870211
30
0
70
32
0
VERTEX
8
0
62
255
10
14.355331
20
62.649162
30
0
70
32
0
VERTEX
8
0
62
255
10
14.119998
20
62.428114
30
0
70
32
0
VERTEX
8
0
62
255
10
13.884665
20
62.207066
30
0
70
32
0
VERTEX
8
0
62
255
10
13.649331
20
61.986017
30
0
70
32
0
VERTEX
8
0
62
255
10
13.413998
20
61.764969
30
0
70
32
0
VERTEX
8
0
62
255
10
13.178665
20
61.543921
30
0
70
32
0
VERTEX
8
0
62
255
10
12.943331
20
61.322872
30
0
70
32
0
VERTEX
8
0
62
255
10
12.707998
20
61.101824
30
0
70
32
0
VERTEX
8
0
62
255
10
12.472665
20
60.880776
30
0
70
32
0
VERTEX
8
0
62
255
10
12.237331
20
60.659728
30
0
70
32
0
VERTEX
8
0
62
255
10
12.001998
20
60.438679
30
0
70
32
0
VERTEX
8
0
62
255
10
11.766665
20
60.217631
30
0
70
32
0
VERTEX
8
0
62
255
10
11.531332
20
59.996583
30
0
70
32
0
VERTEX
8
0
62
255
10
11.295998
20
59.775534
30
0
70
32
0
VERTEX
8
0
62
255
10
11.060665
20
59.554486
30
0
70
32
0
VERTEX
8
0
62
255
10
10.825332
20
59.333438
30
0
70
32
0
VERTEX
8
0
62
255
10
10.589998
20
59.112389
30
0
70
32
0
VERTEX
8
0
62
255
10
10.354665
20
58.891341
30
0
70
32
0
VERTEX
8
0
62
255
10
10.119332
20
58.670293
30
0
70
32
0
VERTEX
8
0
62
255
10
9.8839985
20
58.449244
30
0
70
32
0
VERTEX
8
0
62
255
10
9.6486652
20
58.228196
30
0
70
32
0
VERTEX
8
0
62
255
10
9.4133319
20
58.007148
30
0
70
32
0
VERTEX
8
0
62
255
10
9.1779986
20
57.7861
30
0
70
32
0
VERTEX
8
0
62
255
10
8.9426653
20
57.565051
30
0
70
32
0
VERTEX
8
0
62
255
10
8.707332
20
57.344003
30
0
70
32
0
VERTEX
8
0
62
255
10
8.4719987
20
57.122955
30
0
70
32
0
VERTEX
8
0
62
255
10
8.2366654
20
56.901906
30
0
70
32
0
VERTEX
8
0
62
255
10
8.0013321
20
56.680858
30
0
70
32
0
VERTEX
8
0
62
255
10
7.7659988
20
56.45981
30
0
70
32
0
VERTEX
8
0
62
255
10
7.5306655
20
56.238761
30
0
70
32
0
VERTEX
8
0
62
255
10
7.2953322
20
56.017713
30
0
70
32
0
VERTEX
8
0
62
255
10
7.0599989
20
55.796665
30
0
70
32
0
VERTEX
8
0
62
255
10
6.8246656
20
55.575616
30
0
70
32
0
VERTEX
8
0
62
255
10
6.5893323
20
55.354568
30
0
70
32
0
VERTEX
8
0
62
255
10
6.353999
20
55.13352
30
0
70
32
0
VERTEX
8
0
62
255
10
6.1186657
20
54.912471
30
0
70
32
0
VERTEX
8
0
62
255
10
5.8833324
20
54.691423
30
0
70
32
0
VERTEX
8
0
62
255
10
5.6479991
20
54.470375
30
0
70
32
0
VERTEX
8
0
62
255
10
5.4126658
20
54.249327
30
0
70
32
0
VERTEX
8
0
62
255
10
5.1773325
20
54.028278
30
0
70
32
0
VERTEX
8
0
62
255
10
4.9419992
20
53.80723
30
0
70
32
0
VERTEX
8
0
62
255
10
4.7066659
20
53.586182
30
0
70
32
0
VERTEX
8
0
62
255
10
4.4713326
20
53.365133
30
0
70
32
0
VERTEX
8
0
62
255
10
4.2359993
20
53.144085
30
0
70
32
0
VERTEX
8
0
62
255
10
4.0006661
20
52.923037
30
0
70
32
0
VERTEX
8
0
62
255
10
3.7653328
20
52.701988
30
0
70
32
0
VERTEX
8
0
62
255
10
3.5299995
20
52.48094
30
0
70
32
0
VERTEX
8
0
62
255
10
3.2946662
20
52.259892
30
0
70
32
0
VERTEX
8
0
62
255
10
3.0593329
20
52.038843
30
0
70
32
0
VERTEX
8
0
62
255
10
2.8239996
20
51.817795
30
0
70
32
0
VERTEX
8
0
62
255
10
2.5886663
20
51.596747
30
0
70
32
0
VERTEX
8
0
62
255
10
2.353333
20
51.375698
30
0
70
32
0
VERTEX
8
0
62
255
10
2.1179997
20
51.15465
30
0
70
32
0
VERTEX
8
0
62
255
10
1.8826664
20
50.933602
30
0
70
32
0
VERTEX
8
0
62
255
10
1.6473331
20
50.712554
30
0
70
32
0
VERTEX
8
0
62
255
10
1.4119998
20
50.491505
30
0
70
32
0
VERTEX
8
0
62
255
10
1.1766665
20
50.270457
30
0
70
32
0
VERTEX
8
0
62
255
10
0.94133319
20
50.049409
30
0
70
32
0
VERTEX
8
0
62
255
10
0.70599989
20
49.82836
30
0
70
32
0
VERTEX
8
0
62
255
10
0.47066659
20
49.607312
30
0
70
32
0
VERTEX
8
0
62
255
10
0.2353333
20
49.386264
30
0
70
32
0
VERTEX
8
0
62
255
10
0
20
49.165215
30
0
70
32
0
SEQEND
8
0
0
POLYLINE
8
0
62
255
66
1
10
0
20
0
30
0
70
8
0
VERTEX
8
0
62
255
10
0
20
49.165215
30
0
70
32
0
VERTEX
8
0
62
255
10
-0
20
49.15093
30
0
70
32
0
VERTEX
8
0
62
255
10
-0
20
49.136645
30
0
70
32
0
VERTEX
8
0
62
255
10
-0
20
49.12236
30
0
70
32
0
VERTEX
8
0
62
255
10
-0
20
49.108075
30
0
70
32
0
VERTEX
8
0
62
255
10
-0
20
49.09379
30
0
70
32
0
VERTEX
8
0
62
255
10
-0
20
49.079505
30
0
70
32
0
VERTEX
8
0
62
255
10
-0
20
49.06522
30
0
70
32
0
VERTEX
8
0
62
255
10
-0
20
49.050935
30
0
70
32
0
VERTEX
8
0
62
255
10
-0
20
49.03665
30
0
70
32
0
VERTEX
8
0
62
255
10
-0
20
49.022365
30
0
70
32
0
VERTEX
8
0
62
255
10
-0
20
49.008081
30
0
70
32
0
VERTEX
8
0
62
255
10
-0
20
48.993796
30
0
70
32
0
VERTEX
8
0
62
255
10
-0
20
48.979511
30
0
70
32
0
VERTEX
8
0
62
255
10
-0
20
48.965226
30
0
70
32
0
VERTEX
8
0
62
255
10
-0
20
48.950941
30
0
70
32
0
VERTEX
8
0
62
255
10
-0
20
48.936656
30
0
70
32
0
VERTEX
8
0
62
255
10
-0
20
48.922371
30
0
70
32
0
VERTEX
8
0
62
255
10
-0
20
48.908086
30
0
70
32
0
VERTEX
8
0
62
255
10
-0
20
48.893801
30
0
70
32
0
VERTEX
8
0
62
255
10
-0
20
48.879516
30
0
70
32
0
VERTEX
8
0
62
255
10
-0
20
48.865231
30
0
70
32
0
VERTEX
8
0
62
255
10
-0
20
48.850946
30
0
70
32
0
VERTEX
8
0
62
255
10
-0
20
48.836661
30
0
70
32
0
VERTEX
8
0
62
255
10
-0
20
48.822376
30
0
70
32
0
VERTEX
8
0
62
255
10
-0
20
48.808091
30
0
70
32
0
VERTEX
8
0
62
255
10
-0
20
48.793806
30
0
70
32
0
VERTEX
8
0
62
255
10
-0
20
48.779521
30
0
70
32
0
VERTEX
8
0
62
255
10
-0
20
48.765236
30
0
70
32
0
VERTEX
8
0
62
255
10
-0
20
48.750951
30
0
70
32
0
VERTEX
8
0
62
255
10
-0
20
48.736666
30
0
70
32
0
VERTEX
8
0
62
255
10
-0
20
48.722381
30
0
70
32
0
VERTEX
8
0
62
255
10
-0
20
48.708096
30
0
70
32
0
VERTEX
8
0
62
255
10
-0
20
48.693811
30
0
70
32
0
VERTEX
8
0
62
255
10
-0
20
48.679526
30
0
70
32
0
VERTEX
8
0
62
255
10
-0
20
48.665241
30
0
70
32
0
VERTEX
8
0
62
255
10
-0
20
48.650956
30
0
70
32
0
VERTEX
8
0
62
255
10
-0
20
48.636671
30
0
70
32
0
VERTEX
8
0
62
255
10
-0
20
48.622386
30
0
70
32
0
VERTEX
8
0
62
255
10
-0
20
48.608101
30
0
70
32
0
VERTEX
8
0
62
255
10
-0
20
48.593816
30
0
70
32
0
VERTEX
8
0
62
255
10
-0
20
48.579531
30
0
70
32
0
VERTEX
8
0
62
255
10
-0
20
48.565246
30
0
70
32
0
VERTEX
8
0
62
255
10
-0
20
48.550961
30
0
70
32
0
VERTEX
8
0
62
255
10
-0
20
48.536676
30
0
70
32
0
VERTEX
8
0
62
255
10
-0
20
48.522391
30
0
70
32
0
VERTEX
8
0
62
255
10
-0
20
48.508106
30
0
70
32
0
VERTEX
8
0
62
255
10
-0
20
48.493821
30
0
70
32
0
VERTEX
8
0
62
255
10
-0
20
48.479536
30
0
70
32
0
VERTEX
8
0
62
255
10
-0
20
48.465251
30
0
70
32
0
VERTEX
8
0
62
255
10
0
20
48.450966
30
0
70
32
0
VERTEX
8
0
62
255
10
0
20
48.436681
30
0
70
32
0
VERTEX
8
0
62
255
10
0
20
48.422396
30
0
70
32
0
VERTEX
8
0
62
255
10
0
20
48.408111
30
0
70
32
0
VERTEX
8
0
62
255
10
0
20
48.393826
30
0
70
32
0
VERTEX
8
0
62
255
10
0
20
48.379541
30
0
70
32
0
VERTEX
8
0
62
255
10
0
20
48.365256
30
0
70
32
0
VERTEX
8
0
62
255
10
0
20
48.350971
30
0
70
32
0
VERTEX
8
0
62
255
10
0
20
48.336686
30
0
70
32
0
VERTEX
8
0
62
255
10
0
20
48.322401
30
0
70
32
0
VERTEX
8
0
62
255
10
0
20
48.308116
30
0
70
32
0
VERTEX
8
0
62
255
10
0
20
48.293831
30
0
70
32
0
VERTEX
8
0
62
255
10
0
20
48.279546
30
0
70
32
0
VERTEX
8
0
62
255
10
0
20
48.265261
30
0
70
32
0
VERTEX
8
0
62
255
10
0
20
48.250976
30
0
70
32
0
VERTEX
8
0
62
255
10
0
20
48.236691
30
0
70
32
0
VERTEX
8
0
62
255
10
0
20
48.222406
30
0
70
32
0
VERTEX
8
0
62
255
10
0
20
48.208121
30
0
70
32
0
VERTEX
8
0
62
255
10
0
20
48.193836
30
0
70
32
0
VERTEX
8
0
62
255
10
0
20
48.179551
30
0
70
32
0
VERTEX
8
0
62
255
10
0
20
48.165266
30
0
70
32
0
VERTEX
8
0
62
255
10
0
20
48.150981
30
0
70
32
0
VERTEX
8
0
62
255
10
0
20
48.136696
30
0
70
32
0
VERTEX
8
0
62
255
10
0
20
48.122411
30
0
70
32
0
VERTEX
8
0
62
255
10
0
20
48.108126
30
0
70
32
0
VERTEX
8
0
62
255
10
0
20
48.093841
30
0
70
32
0
VERTEX
8
0
62
255
10
0
20
48.079556
30
0
70
32
0
VERTEX
8
0
62
255
10
0
20
48.065271
30
0
70
32
0
VERTEX
8
0
62
255
10
0
20
48.050986
30
0
70
32
0
VERTEX
8
0
62
255
10
0
20
48.036702
30
0
70
32
0
VERTEX
8
0
62
255
10
0
20
48.022417
30
0
70
32
0
VERTEX
8
0
62
255
10
0
20
48.008132
30
0
70
32
0
VERTEX
8
0
62
255
10
0
20
47.993847
30
0
70
32
0
VERTEX
8
0
62
255
10
0
20
47.979562
30
0
70
32
0
VERTEX
8
0
62
255
10
0
20
47.965277
30
0
70
32
0
VERTEX
8
0
62
255
10
0
20
47.950992
30
0
70
32
0
VERTEX
8
0
62
255
10
0
20
47.936707
30
0
70
32
0
VERTEX
8
0
62
255
10
0
20
47.922422
30
0
70
32
0
VERTEX
8
0
62
255
10
0
20
47.908137
30
0
70
32
0
VERTEX
8
0
62
255
10
0
20
47.893852
30
0
70
32
0
VERTEX
8
0
62
255
10
0
20
47.879567
30
0
70
32
0
VERTEX
8
0
62
255
10
0
20
47.865282
30
0
70
32
0
VERTEX
8
0
62
255
10
0
20
47.850997
30
0
70
32
0
VERTEX
8
0
62
255
10
0
20
47.836712
30
0
70
32
0
VERTEX
8
0
62
255
10
0
20
47.822427
30
0
70
32
0
VERTEX
8
0
62
255
10
0
20
47.808142
30
0
70
32
0
VERTEX
8
0
62
255
10
0
20
47.793857
30
0
70
32
0
VERTEX
8
0
62
255
10
0
20
47.779572
30
0
70
32
0
VERTEX
8
0
62
255
10
0
20
47.765287
30
0
70
32
0
VERTEX
8
0
62
255
10
0
20
47.751002
30
0
70
32
0
SEQEND
8
0
0
POLYLINE
8
0
62
255
66
1
10
0
20
0
30
0
70
8
0
VERTEX
8
0
62
255
10
0
20
69.634785
30
0
70
32
0
VERTEX
8
0
62
255
10
0.2353333
20
69.413736
30
0
70
32
0
VERTEX
8
0
62
255
10
0.47066659
20
69.192688
30
0
70
32
0
VERTEX
8
0
62
255
10
0.70599989
20
68.97164
30
0
70
32
0
VERTEX
8
0
62
255
10
0.94133319
20
68.750591
30
0
70
32
0
VERTEX
8
0
62
255
10
1.1766665
20
68.529543
30
0
70
32
0
VERTEX
8
0
62
255
10
1.4119998
20
68.308495
30
0
70
32
0
VERTEX
8
0
62
255
10
1.6473331
20
68.087446
30
0
70
32
0
VERTEX
8
0
62
255
10
1.8826664
20
67.866398
30
0
70
32
0
VERTEX
8
0
62
255
10
2.1179997
20
67.64535
30
0
70
32
0
VERTEX
8
0
62
255
10
2.353333
20
67.424302
30
0
70
32
0
VERTEX
8
0
62
255
10
2.5886663
20
67.203253
30
0
70
32
0
VERTEX
8
0
62
255
10
2.8239996
20
66.982205
30
0
70
32
0
VERTEX
8
0
62
255
10
3.0593329
20
66.761157
30
0
70
32
0
VERTEX
8
0
62
255
10
3.2946662
20
66.540108
30
0
70
32
0
VERTEX
8
0
62
255
10
3.5299995
20
66.31906
30
0
70
32
0
VERTEX
8
0
62
255
10
3.7653328
20
66.098012
30
0
70
32
0
VERTEX
8
0
62
255
10
4.0006661
20
65.876963
30
0
70
32
0
VERTEX
8
0
62
255
10
4.2359993
20
65.655915
30
0
70
32
0
VERTEX
8
0
62
255
10
4.4713326
20
65.434867
30
0
70
32
0
VERTEX
8
0
62
255
10
4.7066659
20
65.213818
30
0
70
32
0
VERTEX
8
0
62
255
10
4.9419992
20
64.99277
30
0
70
32
0
VERTEX
8
0
62
255
10
5.1773325
20
64.771722
30
0
70
32
0
VERTEX
8
0
62
255
10
5.4126658
20
64.550673
30
0
70
32
0
VERTEX
8
0
62
255
10
5.6479991
20
64.329625
30
0
70
32
0
VERTEX
8
0
62
255
10
5.8833324
20
64.108577
30
0
70
32
0
VERTEX
8
0
62
255
10
6.1186657
20
63.887529
30
0
70
32
0
VERTEX
8
0
62
255
10
6.353999
20
63.66648
30
0
70
32
0
VERTEX
8
0
62
255
10
6.5893323
20
63.445432
30
0
70
32
0
VERTEX
8
0
62
255
10
6.8246656
20
63.224384
30
0
70
32
0
VERTEX
8
0
62
255
10
7.0599989
20
63.003335
30
0
70
32
0
VERTEX
8
0
62
255
10
7.2953322
20
62.782287
30
0
70
32
0
VERTEX
8
0
62
255
10
7.5306655
20
62.561239
30
0
70
32
0
VERTEX
8
0
62
255
10
7.7659988
20
62.34019
30
0
70
32
0
VERTEX
8
0
62
255
10
8.0013321
20
62.119142
30
0
70
32
0
VERTEX
8
0
62
255
10
8.2366654
20
61.898094
30
0
70
32
0
VERTEX
8
0
62
255
10
8.4719987
20
61.677045
30
0
70
32
0
VERTEX
8
0
62
255
10
8.707332
20
61.455997
30
0
70
32
0
VERTEX
8
0
62
255
10
8.9426653
20
61.234949
30
0
70
32
0
VERTEX
8
0
62
255
10
9.1779986
20
61.0139
30
0
70
32
0
VERTEX
8
0
62
255
10
9.4133319
20
60.792852
30
0
70
32
0
VERTEX
8
0
62
255
10
9.6486652
20
60.571804
30
0
70
32
0
VERTEX
8
0
62
255
10
9.8839985
20
60.350756
30
0
70
32
0
VERTEX
8
0
62
255
10
10.119332
20
60.129707
30
0
70
32
0
VERTEX
8
0
62
255
10
10.354665
20
59.908659
30
0
70
32
0
VERTEX
8
0
62
255
10
10.589998
20
59.687611
30
0
70
32
0
VERTEX
8
0
62
255
10
10.825332
20
59.466562
30
0
70
32
0
VERTEX
8
0
62
255
10
11.060665
20
59.245514
30
0
70
32
0
VERTEX
8
0
62
255
10
11.295998
20
59.024466
30
0
70
32
0
VERTEX
8
0
62
255
10
11.531332
20
58.803417
30
0
70
32
0
VERTEX
8
0
62
255
10
11.766665
20
58.582369
30
0
70
32
0
VERTEX
8
0
62
255
10
12.001998
20
58.361321
30
0
70
32
0
VERTEX
8
0
62
255
10
12.237331
20
58.140272
30
0
70
32
0
VERTEX
8
0
62
255
10
12.472665
20
57.919224
30
0
70
32
0
VERTEX
8
0
62
255
10
12.707998
20
57.698176
30
0
70
32
0
VERTEX
8
0
62
255
10
12.943331
20
57.477128
30
0
70
32
0
VERTEX
8
0
62
255
10
13.178665
20
57.256079
30
0
70
32
0
VERTEX
8
0
62
255
10
13.413998
20
57.035031
30
0
70
32
0
VERTEX
8
0
62
255
10
13.649331
20
56.813983
30
0
70
32
0
VERTEX
8
0
62
255
10
13.884665
20
56.592934
30
0
70
32
0
VERTEX
8
0
62
255
10
14.119998
20
56.371886
30
0
70
32
0
VERTEX
8
0
62
255
10
14.355331
20
56.150838
30
0
70
32
0
VERTEX
8
0
62
255
10
14.590664
20
55.929789
30
0
70
32
0
VERTEX
8
0
62
255
10
14.825998
20
55.708741
30
0
70
32
0
VERTEX
8
0
62
255
10
15.061331
20
55.487693
30
0
70
32
0
VERTEX
8
0
62
255
10
15.296664
20
55.266644
30
0
70
32
0
VERTEX
8
0
62
255
10
15.531998
20
55.045596
30
0
70
32
0
VERTEX
8
0
62
255
10
15.767331
20
54.824548
30
0
70
32
0
VERTEX
8
0
62
255
10
16.002664
20
54.603499
30
0
70
32
0
VERTEX
8
0
62
255
10
16.237998
20
54.382451
30
0
70
32
0
VERTEX
8
0
62
255
10
16.473331
20
54.161403
30
0
70
32
0
VERTEX
8
0
62
255
10
16.708664
20
53.940355
30
0
70
32
0
VERTEX
8
0
62
255
10
16.943997
20
53.719306
30
0
70
32
0
VERTEX
8
0
62
255
10
17.179331
20
53.498258
30
0
70
32
0
VERTEX
8
0
62
255
10
17.414664
20
53.27721
30
0
70
32
0
VERTEX
8
0
62
255
10
17.649997
20
53.056161
30
0
70
32
0
VERTEX
8
0
62
255
10
17.885331
20
52.835113
30
0
70
32
0
VERTEX
8
0
62
255
10
18.120664
20
52.614065
30
0
70
32
0
VERTEX
8
0
62
255
10
18.355997
20
52.393016
30
0
70
32
0
VERTEX
8
0
62
255
10
18.59133
20
52.171968
30
0
70
32
0
VERTEX
8
0
62
255
10
18.826664
20
51.95092
30
0
70
32
0
VERTEX
8
0
62
255
10
19.061997
20
51.729871
30
0
70
32
0
VERTEX
8
0
62
255
10
19.29733
20
51.508823
30
0
70
32
0
VERTEX
8
0
62
255
10
19.532664
20
51.287775
30
0
70
32
0
VERTEX
8
0
62
255
10
19.767997
20
51.066726
30
0
70
32
0
VERTEX
8
0
62
255
10
20.00333
20
50.845678
30
0
70
32
0
VERTEX
8
0
62
255
10
20.238664
20
50.62463
30
0
70
32
0
VERTEX
8
0
62
255
10
20.473997
20
50.403582
30
0
70
32
0
VERTEX
8
0
62
255
10
20.70933
20
50.182533
30
0
70
32
0
VERTEX
8
0
62
255
10
20.944663
20
49.961485
30
0
70
32
0
VERTEX
8
0
62
255
10
21.179997
20
49.740437
30
0
70
32
0
VERTEX
8
0
62
255
10
21.41533
20
49.519388
30
0
70
32
0
VERTEX
8
0
62
255
10
21.650663
20
49.29834
30
0
70
32
0
VERTEX
8
0
62
255
10
21.885997
20
49.077292
30
0
70
32
0
VERTEX
8
0
62
255
10
22.12133
20
48.856243
30
0
70
32
0
VERTEX
8
0
62
255
10
22.356663
20
48.635195
30
0
70
32
0
VERTEX
8
0
62
255
10
22.591997
20
48.414147
30
0
70
32
0
VERTEX
8
0
62
255
10
22.82733
20
48.193098
30
0
70
32
0
VERTEX
8
0
62
255
10
23.062663
20
47.97205
30
0
70
32
0
VERTEX
8
0
62
255
10
23.297996
20
47.751002
30
0
70
32
0
SEQEND
8
0
0
POLYLINE
8
0
62
255
66
1
10
0
20
0
30
0
70
8
0
VERTEX
8
0
62
255
10
23.297996
20
47.751002
30
0
70
32
0
VERTEX
8
0
62
255
10
23.297996
20
47.765287
30
0
70
32
0
VERTEX
8
0
62
255
10
23.297996
20
47.779572
30
0
70
32
0
VERTEX
8
0
62
255
10
23.297996
20
47.793857
30
0
70
32
0
VERTEX
8
0
62
255
10
23.297996
20
47.808142
30
0
70
32
0
VERTEX
8
0
62
255
10
23.297996
20
47.822427
30
0
70
32
0
VERTEX
8
0
62
255
10
23.297996
20
47.836712
30
0
70
32
0
VERTEX
8
0
62
255
10
23.297996
20
47.850997
30
0
70
32
0
VERTEX
8
0
62
255
10
23.297996
20
47.865282
30
0
70
32
0
VERTEX
8
0
62
255
10
23.297996
20
47.879567
30
0
70
32
0
VERTEX
8
0
62
255
10
23.297996
20
47.893852
30
0
70
32
0
VERTEX
8
0
62
255
10
23.297996
20
47.908137
30
0
70
32
0
VERTEX
8
0
62
255
10
23.297996
20
47.922422
30
0
70
32
0
VERTEX
8
0
62
255
10
23.297996
20
47.936707
30
0
70
32
0
VERTEX
8
0
62
255
10
23.297996
20
47.950992
30
0
70
32
0
VERTEX
8
0
62
255
10
23.297996
20
47.965277
30
0
70
32
0
VERTEX
8
0
62
255
10
23.297996
20
47.979562
30
0
70
32
0
VERTEX
8
0
62
255
10
23.297996
20
47.993847
30
0
70
32
0
VERTEX
8
0
62
255
10
23.297996
20
48.008132
30
0
70
32
0
VERTEX
8
0
62
255
10
23.297996
20
48.022417
30
0
70
32
0
VERTEX
8
0
62
255
10
23.297996
20
48.036702
30
0
70
32
0
VERTEX
8
0
62
255
10
23.297996
20
48.050986
30
0
70
32
0
VERTEX
8
0
62
255
10
23.297996
20
48.065271
30
0
70
32
0
VERTEX
8
0
62
255
10
23.297996
20
48.079556
30
0
70
32
0
VERTEX
8
0
62
255
10
23.297996
20
48.093841
30
0
70
32
0
VERTEX
8
0
62
255
10
23.297996
20
48.108126
30
0
70
32
0
VERTEX
8
0
62
255
10
23.297996
20
48.122411
30
0
70
32
0
VERTEX
8
0
62
255
10
23.297996
20
48.136696
30
0
70
32
0
VERTEX
8
0
62
255
10
23.297996
20
48.150981
30
0
70
32
0
VERTEX
8
0
62
255
10
23.297996
20
48.165266
30
0
70
32
0
VERTEX
8
0
62
255
10
23.297996
20
48.179551
30
0
70
32
0
VERTEX
8
0
62
255
10
23.297996
20
48.193836
30
0
70
32
0
VERTEX
8
0
62
255
10
23.297996
20
48.208121
30
0
70
32
0
VERTEX
8
0
62
255
10
23.297996
20
48.222406
30
0
70
32
0
VERTEX
8
0
62
255
10
23.297996
20
48.236691
30
0
70
32
0
VERTEX
8
0
62
255
10
23.297996
20
48.250976
30
0
70
32
0
VERTEX
8
0
62
255
10
23.297996
20
48.265261
30
0
70
32
0
VERTEX
8
0
62
255
10
23.297996
20
48.279546
30
0
70
32
0
VERTEX
8
0
62
255
10
23.297996
20
48.293831
30
0
70
32
0
VERTEX
8
0
62
255
10
23.297996
20
48.308116
30
0
70
32
0
VERTEX
8
0
62
255
10
23.297996
20
48.322401
30
0
70
32
0
VERTEX
8
0
62
255
10
23.297996
20
48.336686
30
0
70
32
0
VERTEX
8
0
62
255
10
23.297996
20
48.350971
30
0
70
32
0
VERTEX
8
0
62
255
10
23.297996
20
48.365256
30
0
70
32
0
VERTEX
8
0
62
255
10
23.297996
20
48.379541
30
0
70
32
0
VERTEX
8
0
62
255
10
23.297996
20
48.393826
30
0
70
32
0
VERTEX
8
0
62
255
10
23.297996
20
48.408111
30
0
70
32
0
VERTEX
8
0
62
255
10
23.297996
20
48.422396
30
0
70
32
0
VERTEX
8
0
62
255
10
23.297996
20
48.436681
30
0
70
32
0
VERTEX
8
0
62
255
10
23.297996
20
48.450966
30
0
70
32
0
VERTEX
8
0
62
255
10
23.297996
20
48.465251
30
0
70
32
0
VERTEX
8
0
62
255
10
23.297996
20
48.479536
30
0
70
32
0
VERTEX
8
0
62
255
10
23.297996
20
48.493821
30
0
70
32
0
VERTEX
8
0
62
255
10
23.297996
20
48.508106
30
0
70
32
0
VERTEX
8
0
62
255
10
23.297996
20
48.522391
30
0
70
32
0
VERTEX
8
0
62
255
10
23.297996
20
48.536676
30
0
70
32
0
VERTEX
8
0
62
255
10
23.297996
20
48.550961
30
0
70
32
0
VERTEX
8
0
62
255
10
23.297996
20
48.565246
30
0
70
32
0
VERTEX
8
0
62
255
10
23.297996
20
48.579531
30
0
70
32
0
VERTEX
8
0
62
255
10
23.297996
20
48.593816
30
0
70
32
0
VERTEX
8
0
62
255
10
23.297996
20
48.608101
30
0
70
32
0
VERTEX
8
0
62
255
10
23.297996
20
48.622386
30
0
70
32
0
VERTEX
8
0
62
255
10
23.297996
20
48.636671
30
0
70
32
0
VERTEX
8
0
62
255
10
23.297996
20
48.650956
30
0
70
32
0
VERTEX
8
0
62
255
10
23.297996
20
48.665241
30
0
70
32
0
VERTEX
8
0
62
255
10
23.297996
20
48.679526
30
0
70
32
0
VERTEX
8
0
62
255
10
23.297996
20
48.693811
30
0
70
32
0
VERTEX
8
0
62
255
10
23.297996
20
48.708096
30
0
70
32
0
VERTEX
8
0
62
255
10
23.297996
20
48.722381
30
0
70
32
0
VERTEX
8
0
62
255
10
23.297996
20
48.736666
30
0
70
32
0
VERTEX
8
0
62
255
10
23.297996
20
48.750951
30
0
70
32
0
VERTEX
8
0
62
255
10
23.297996
20
48.765236
30
0
70
32
0
VERTEX
8
0
62
255
10
23.297996
20
48.779521
30
0
70
32
0
VERTEX
8
0
62
255
10
23.297996
20
48.793806
30
0
70
32
0
VERTEX
8
0
62
255
10
23.297996
20
48.808091
30
0
70
32
0
VERTEX
8
0
62
255
10
23.297996
20
48.822376
30
0
70
32
0
VERTEX
8
0
62
255
10
23.297996
20
48.836661
30
0
70
32
0
VERTEX
8
0
62
255
10
23.297996
20
48.850946
30
0
70
32
0
VERTEX
8
0
62
255
10
23.297996
20
48.865231
30
0
70
32
0
VERTEX
8
0
62
255
10
23.297996
20
48.879516
30
0
70
32
0
VERTEX
8
0
62
255
10
23.297996
20
48.893801
30
0
70
32
0
VERTEX
8
0
62
255
10
23.297996
20
48.908086
30
0
70
32
0
VERTEX
8
0
62
255
10
23.297996
20
48.922371
30
0
70
32
0
VERTEX
8
0
62
255
10
23.297996
20
48.936656
30
0
70
32
0
VERTEX
8
0
62
255
10
23.297996
20
48.950941
30
0
70
32
0
VERTEX
8
0
62
255
10
23.297996
20
48.965226
30
0
70
32
0
VERTEX
8
0
62
255
10
23.297996
20
48.979511
30
0
70
32
0
VERTEX
8
0
62
255
10
23.297996
20
48.993796
30
0
70
32
0
VERTEX
8
0
62
255
10
23.297996
20
49.008081
30
0
70
32
0
VERTEX
8
0
62
255
10
23.297996
20
49.022365
30
0
70
32
0
VERTEX
8
0
62
255
10
23.297996
20
49.03665
30
0
70
32
0
VERTEX
8
0
62
255
10
23.297996
20
49.050935
30
0
70
32
0
VERTEX
8
0
62
255
10
23.297996
20
49.06522
30
0
70
32
0
VERTEX
8
0
62
255
10
23.297996
20
49.079505
30
0
70
32
0
VERTEX
8
0
62
255
10
23.297996
20
49.09379
30
0
70
32
0
VERTEX
8
0
62
255
10
23.297996
20
49.108075
30
0
70
32
0
VERTEX
8
0
62
255
10
23.297996
20
49.12236
30
0
70
32
0
VERTEX
8
0
62
255
10
23.297996
20
49.136645
30
0
70
32
0
VERTEX
8
0
62
255
10
23.297996
20
49.15093
30
0
70
32
0
VERTEX
8
0
62
255
10
23.297996
20
49.165215
30
0
70
32
0
SEQEND
8
0
0
POLYLINE
8
0
62
255
66
1
10
0
20
0
30
0
70
8
0
VERTEX
8
0
62
255
10
23.297996
20
49.165215
30
0
70
32
0
VERTEX
8
0
62
255
10
23.062663
20
49.386264
30
0
70
32
0
VERTEX
8
0
62
255
10
22.82733
20
49.607312
30
0
70
32
0
VERTEX
8
0
62
255
10
22.591997
20
49.82836
30
0
70
32
0
VERTEX
8
0
62
255
10
22.356663
20
50.049409
30
0
70
32
0
VERTEX
8
0
62
255
10
22.12133
20
50.270457
30
0
70
32
0
VERTEX
8
0
62
255
10
21.885997
20
50.491505
30
0
70
32
0
VERTEX
8
0
62
255
10
21.650663
20
50.712554
30
0
70
32
0
VERTEX
8
0
62
255
10
21.41533
20
50.933602
30
0
70
32
0
VERTEX
8
0
62
255
10
21.179997
20
51.15465
30
0
70
32
0
VERTEX
8
0
62
255
10
20.944663
20
51.375698
30
0
70
32
0
VERTEX
8
0
62
255
10
20.70933
20
51.596747
30
0
70
32
0
VERTEX
8
0
62
255
10
20.473997
20
51.817795
30
0
70
32
0
VERTEX
8
0
62
255
10
20.238664
20
52.038843
30
0
70
32
0
VERTEX
8
0
62
255
10
20.00333
20
52.259892
30
0
70
32
0
VERTEX
8
0
62
255
10
19.767997
20
52.48094
30
0
70
32
0
VERTEX
8
0
62
255
10
19.532664
20
52.701988
30
0
70
32
0
VERTEX
8
0
62
255
10
19.29733
20
52.923037
30
0
70
32
0
VERTEX
8
0
62
255
10
19.061997
20
53.144085
30
0
70
32
0
VERTEX
8
0
62
255
10
18.826664
20
53.365133
30
0
70
32
0
VERTEX
8
0
62
255
10
18.59133
20
53.586182
30
0
70
32
0
VERTEX
8
0
62
255
10
18.355997
20
53.80723
30
0
70
32
0
VERTEX
8
0
62
255
10
18.120664
20
54.028278
30
0
70
32
0
VERTEX
8
0
62
255
10
17.885331
20
54.249327
30
0
70
32
0
VERTEX
8
0
62
255
10
17.649997
20
54.470375
30
0
70
32
0
VERTEX
8
0
62
255
10
17.414664
20
54.691423
30
0
70
32
0
VERTEX
8
0
62
255
10
17.179331
20
54.912471
30
0
70
32
0
VERTEX
8
0
62
255
10
16.943997
20
55.13352
30
0
70
32
0
VERTEX
8
0
62
255
10
16.708664
20
55.354568
30
0
70
32
0
VERTEX
8
0
62
255
10
16.473331
20
55.575616
30
0
70
32
0
VERTEX
8
0
62
255
10
16.237998
20
55.796665
30
0
70
32
0
VERTEX
8
0
62
255
10
16.002664
20
56.017713
30
0
70
32
0
VERTEX
8
0
62
255
10
15.767331
20
56.238761
30
0
70
32
0
VERTEX
8
0
62
255
10
15.531998
20
56.45981
30
0
70
32
0
VERTEX
8
0
62
255
10
15.296664
20
56.680858
30
0
70
32
0
VERTEX
8
0
62
255
10
15.061331
20
56.901906
30
0
70
32
0
VERTEX
8
0
62
255
10
14.825998
20
57.122955
30
0
70
32
0
VERTEX
8
0
62
255
10
14.590664
20
57.344003
30
0
70
32
0
VERTEX
8
0
62
255
10
14.355331
20
57.565051
30
0
70
32
0
VERTEX
8
0
62
255
10
14.119998
20
57.7861
30
0
70
32
0
VERTEX
8
0
62
255
10
13.884665
20
58.007148
30
0
70
32
0
VERTEX
8
0
62
255
10
13.649331
20
58.228196
30
0
70
32
0
VERTEX
8
0
62
255
10
13.413998
20
58.449244
30
0
70
32
0
VERTEX
8
0
62
255
10
13.178665
20
58.670293
30
0
70
32
0
VERTEX
8
0
62
255
10
12.943331
20
58.891341
30
0
70
32
0
VERTEX
8
0
62
255
10
12.707998
20
59.112389
30
0
70
32
0
VERTEX
8
0
62
255
10
12.472665
20
59.333438
30
0
70
32
0
VERTEX
8
0
62
255
10
12.237331
20
59.554486
30
0
70
32
0
VERTEX
8
0
62
255
10
12.001998
20
59.775534
30
0
70
32
0
VERTEX
8
0
62
255
10
11.766665
20
59.996583
30
0
70
32
0
VERTEX
8
0
62
255
10
11.531332
20
60.217631
30
0
70
32
0
VERTEX
8
0
62
255
10
11.295998
20
60.438679
30
0
70
32
0
VERTEX
8
0
62
255
10
11.060665
20
60.659728
30
0
70
32
0
VERTEX
8
0
62
255
10
10.825332
20
60.880776
30
0
70
32
0
VERTEX
8
0
62
255
10
10.589998
20
61.101824
30
0
70
32
0
VERTEX
8
0
62
255
10
10.354665
20
61.322872
30
0
70
32
0
VERTEX
8
0
62
255
10
10.119332
20
61.543921
30
0
70
32
0
VERTEX
8
0
62
255
10
9.8839985
20
61.764969
30
0
70
32
0
VERTEX
8
0
62
255
10
9.6486652
20
61.986017
30
0
70
32
0
VERTEX
8
0
62
255
10
9.4133319
20
62.207066
30
0
70
32
0
VERTEX
8
0
62
255
10
9.1779986
20
62.428114
30
0
70
32
0
VERTEX
8
0
62
255
10
8.9426653
20
62.649162
30
0
70
32
0
VERTEX
8
0
62
255
10
8.707332
20
62.870211
30
0
70
32
0
VERTEX
8
0
62
255
10
8.4719987
20
63.091259
30
0
70
32
0
VERTEX
8
0
62
255
10
8.2366654
20
63.312307
30
0
70
32
0
VERTEX
8
0
62
255
10
8.0013321
20
63.533356
30
0
70
32
0
VERTEX
8
0
62
255
10
7.7659988
20
63.754404
30
0
70
32
0
VERTEX
8
0
62
255
10
7.5306655
20
63.975452
30
0
70
32
0
VERTEX
8
0
62
255
10
7.2953322
20
64.196501
30
0
70
32
0
VERTEX
8
0
62
255
10
7.0599989
20
64.417549
30
0
70
32
0
VERTEX
8
0
62
255
10
6.8246656
20
64.638597
30
0
70
32
0
VERTEX
8
0
62
255
10
6.5893323
20
64.859645
30
0
70
32
0
VERTEX
8
0
62
255
10
6.353999
20
65.080694
30
0
70
32
0
VERTEX
8
0
62
255
10
6.1186657
20
65.301742
30
0
70
32
0
VERTEX
8
0
62
255
10
5.8833324
20
65.52279
30
0
70
32
0
VERTEX
8
0
62
255
10
5.6479991
20
65.743839
30
0
70
32
0
VERTEX
8
0
62
255
10
5.4126658
20
65.964887
30
0
70
32
0
VERTEX
8
0
62
255
10
5.1773325
20
66.185935
30
0
70
32
0
VERTEX
8
0
62
255
10
4.9419992
20
66.406984
30
0
70
32
0
VERTEX
8
0
62
255
10
4.7066659
20
66.628032
30
0
70
32
0
VERTEX
8
0
62
255
10
4.4713326
20
66.84908
30
0
70
32
0
VERTEX
8
0
62
255
10
4.2359993
20
67.070129
30
0
70
32
0
VERTEX
8
0
62
255
10
4.0006661
20
67.291177
30
0
70
32
0
VERTEX
8
0
62
255
10
3.7653328
20
67.512225
30
0
70
32
0
VERTEX
8
0
62
255
10
3.5299995
20
67.733274
30
0
70
32
0
VERTEX
8
0
62
255
10
3.2946662
20
67.954322
30
0
70
32
0
VERTEX
8
0
62
255
10
3.0593329
20
68.17537
30
0
70
32
0
VERTEX
8
0
62
255
10
2.8239996
20
68.396418
30
0
70
32
0
VERTEX
8
0
62
255
10
2.5886663
20
68.617467
30
0
70
32
0
VERTEX
8
0
62
255
10
2.353333
20
68.838515
30
0
70
32
0
VERTEX
8
0
62
255
10
2.1179997
20
69.059563
30
0
70
32
0
VERTEX
8
0
62
255
10
1.8826664
20
69.280612
30
0
70
32
0
VERTEX
8
0
62
255
10
1.6473331
20
69.50166
30
0
70
32
0
VERTEX
8
0
62
255
10
1.4119998
20
69.722708
30
0
70
32
0
VERTEX
8
0
62
255
10
1.1766665
20
69.943757
30
0
70
32
0
VERTEX
8
0
62
255
10
0.94133319
20
70.164805
30
0
70
32
0
VERTEX
8
0
62
255
10
0.70599989
20
70.385853
30
0
70
32
0
VERTEX
8
0
62
255
10
0.47066659
20
70.606902
30
0
70
32
0
VERTEX
8
0
62
255
10
0.2353333
20
70.82795
30
0
70
32
0
VERTEX
8
0
62
255
10
0
20
71.048998
30
0
70
32
0
SEQEND
8
0
0
POLYLINE
8
0
62
255
66
1
10
0
20
0
30
0
70
8
0
VERTEX
8
0
62
255
10
0
20
71.048998
30
0
70
32
0
VERTEX
8
0
62
255
10
-0
20
71.034713
30
0
70
32
0
VERTEX
8
0
62
255
10
-0
20
71.020428
30
0
70
32
0
VERTEX
8
0
62
255
10
-0
20
71.006143
30
0
70
32
0
VERTEX
8
0
62
255
10
-0
20
70.991858
30
0
70
32
0
VERTEX
8
0
62
255
10
-0
20
70.977573
30
0
70
32
0
VERTEX
8
0
62
255
10
-0
20
70.963288
30
0
70
32
0
VERTEX
8
0
62
255
10
-0
20
70.949003
30
0
70
32
0
VERTEX
8
0
62
255
10
-0
20
70.934718
30
0
70
32
0
VERTEX
8
0
62
255
10
-0
20
70.920433
30
0
70
32
0
VERTEX
8
0
62
255
10
-0
20
70.906148
30
0
70
32
0
VERTEX
8
0
62
255
10
-0
20
70.891863
30
0
70
32
0
VERTEX
8
0
62
255
10
-0
20
70.877578
30
0
70
32
0
VERTEX
8
0
62
255
10
-0
20
70.863293
30
0
70
32
0
VERTEX
8
0
62
255
10
-0
20
70.849008
30
0
70
32
0
VERTEX
8
0
62
255
10
-0
20
70.834723
30
0
70
32
0
VERTEX
8
0
62
255
10
-0
20
70.820438
30
0
70
32
0
VERTEX
8
0
62
255
10
-0
20
70.806153
30
0
70
32
0
VERTEX
8
0
62
255
10
-0
20
70.791868
30
0
70
32
0
VERTEX
8
0
62
255
10
-0
20
70.777583
30
0
70
32
0
VERTEX
8
0
62
255
10
-0
20
70.763298
30
0
70
32
0
VERTEX
8
0
62
255
10
-0
20
70.749014
30
0
70
32
0
VERTEX
8
0
62
255
10
-0
20
70.734729
30
0
70
32
0
VERTEX
8
0
62
255
10
-0
20
70.720444
30
0
70
32
0
VERTEX
8
0
62
255
10
-0
20
70.706159
30
0
70
32
0
VERTEX
8
0
62
255
10
-0
20
70.691874
30
0
70
32
0
VERTEX
8
0
62
255
10
-0
20
70.677589
30
0
70
32
0
VERTEX
8
0
62
255
10
-0
20
70.663304
30
0
70
32
0
VERTEX
8
0
62
255
10
-0
20
70.649019
30
0
70
32
0
VERTEX
8
0
62
255
10
-0
20
70.634734
30
0
70
32
0
VERTEX
8
0
62
255
10
-0
20
70.620449
30
0
70
32
0
VERTEX
8
0
62
255
10
-0
20
70.606164
30
0
70
32
0
VERTEX
8
0
62
255
10
-0
20
70.591879
30
0
70
32
0
VERTEX
8
0
62
255
10
-0
20
70.577594
30
0
70
32
0
VERTEX
8
0
62
255
10
-0
20
70.563309
30
0
70
32
0
VERTEX
8
0
62
255
10
-0
20
70.549024
30
0
70
32
0
VERTEX
8
0
62
255
10
-0
20
70.534739
30
0
70
32
0
VERTEX
8
0
62
255
10
-0
20
70.520454
30
0
70
32
0
VERTEX
8
0
62
255
10
-0
20
70.506169
30
0
70
32
0
VERTEX
8
0
62
255
10
-0
20
70.491884
30
0
70
32
0
VERTEX
8
0
62
255
10
-0
20
70.477599
30
0
70
32
0
VERTEX
8
0
62
255
10
-0
20
70.463314
30
0
70
32
0
VERTEX
8
0
62
255
10
-0
20
70.449029
30
0
70
32
0
VERTEX
8
0
62
255
10
-0
20
70.434744
30
0
70
32
0
VERTEX
8
0
62
255
10
-0
20
70.420459
30
0
70
32
0
VERTEX
8
0
62
255
10
-0
20
70.406174
30
0
70
32
0
VERTEX
8
0
62
255
10
-0
20
70.391889
30
0
70
32
0
VERTEX
8
0
62
255
10
-0
20
70.377604
30
0
70
32
0
VERTEX
8
0
62
255
10
-0
20
70.363319
30
0
70
32
0
VERTEX
8
0
62
255
10
-0
20
70.349034
30
0
70
32
0
VERTEX
8
0
62
255
10
0
20
70.334749
30
0
70
32
0
VERTEX
8
0
62
255
10
0
20
70.320464
30
0
70
32
0
VERTEX
8
0
62
255
10
0
20
70.306179
30
0
70
32
0
VERTEX
8
0
62
255
10
0
20
70.291894
30
0
70
32
0
VERTEX
8
0
62
255
10
0
20
70.277609
30
0
70
32
0
VERTEX
8
0
62
255
10
0
20
70.263324
30
0
70
32
0
VERTEX
8
0
62
255
10
0
20
70.249039
30
0
70
32
0
VERTEX
8
0
62
255
10
0
20
70.234754
30
0
70
32
0
VERTEX
8
0
62
255
10
0
20
70.220469
30
0
70
32
0
VERTEX
8
0
62
255
10
0
20
70.206184
30
0
70
32
0
VERTEX
8
0
62
255
10
0
20
70.191899
30
0
70
32
0
VERTEX
8
0
62
255
10
0
20
70.177614
30
0
70
32
0
VERTEX
8
0
62
255
10
0
20
70.163329
30
0
70
32
0
VERTEX
8
0
62
255
10
0
20
70.149044
30
0
70
32
0
VERTEX
8
0
62
255
10
0
20
70.134759
30
0
70
32
0
VERTEX
8
0
62
255
10
0
20
70.120474
30
0
70
32
0
VERTEX
8
0
62
255
10
0
20
70.106189
30
0
70
32
0
VERTEX
8
0
62
255
10
0
20
70.091904
30
0
70
32
0
VERTEX
8
0
62
255
10
0
20
70.077619
30
0
70
32
0
VERTEX
8
0
62
255
10
0
20
70.063334
30
0
70
32
0
VERTEX
8
0
62
255
10
0
20
70.049049
30
0
70
32
0
VERTEX
8
0
62
255
10
0
20
70.034764
30
0
70
32
0
VERTEX
8
0
62
255
10
0
20
70.020479
30
0
70
32
0
VERTEX
8
0
62
255
10
0
20
70.006194
30
0
70
32
0
VERTEX
8
0
62
255
10
0
20
69.991909
30
0
70
32
0
VERTEX
8
0
62
255
10
0
20
69.977624
30
0
70
32
0
VERTEX
8
0
62
255
10
0
20
69.963339
30
0
70
32
0
VERTEX
8
0
62
255
10
0
20
69.949054
30
0
70
32
0
VERTEX
8
0
62
255
10
0
20
69.934769
30
0
70
32
0
VERTEX
8
0
62
255
10
0
20
69.920484
30
0
70
32
0
VERTEX
8
0
62
255
10
0
20
69.906199
30
0
70
32
0
VERTEX
8
0
62
255
10
0
20
69.891914
30
0
70
32
0
VERTEX
8
0
62
255
10
0
20
69.877629
30
0
70
32
0
VERTEX
8
0
62
255
10
0
20
69.863344
30
0
70
32
0
VERTEX
8
0
62
255
10
0
20
69.849059
30
0
70
32
0
VERTEX
8
0
62
255
10
0
20
69.834774
30
0
70
32
0
VERTEX
8
0
62
255
10
0
20
69.820489
30
0
70
32
0
VERTEX
8
0
62
255
10
0
20
69.806204
30
0
70
32
0
VERTEX
8
0
62
255
10
0
20
69.791919
30
0
70
32
0
VERTEX
8
0
62
255
10
0
20
69.777635
30
0
70
32
0
VERTEX
8
0
62
255
10
0
20
69.76335
30
0
70
32
0
VERTEX
8
0
62
255
10
0
20
69.749065
30
0
70
32
0
VERTEX
8
0
62
255
10
0
20
69.73478
30
0
70
32
0
VERTEX
8
0
62
255
10
0
20
69.720495
30
0
70
32
0
VERTEX
8
0
62
255
10
0
20
69.70621
30
0
70
32
0
VERTEX
8
0
62
255
10
0
20
69.691925
30
0
70
32
0
VERTEX
8
0
62
255
10
0
20
69.67764
30
0
70
32
0
VERTEX
8
0
62
255
10
0
20
69.663355
30
0
70
32
0
VERTEX
8
0
62
255
10
0
20
69.64907
30
0
70
32
0
VERTEX
8
0
62
255
10
0
20
69.634785
30
0
70
32
0
SEQEND
8
0
0
POLYLINE
8
0
62
255
66
1
10
0
20
0
30
0
70
8
0
VERTEX
8
0
62
255
10
0
20
71.048998
30
0
70
32
0
VERTEX
8
0
62
255
10
-0
20
71.034713
30
0
70
32
0
VERTEX
8
0
62
255
10
-0
20
71.020428
30
0
70
32
0
VERTEX
8
0
62
255
10
-0
20
71.006143
30
0
70
32
0
VERTEX
8
0
62
255
10
-0
20
70.991858
30
0
70
32
0
VERTEX
8
0
62
255
10
-0
20
70.977573
30
0
70
32
0
VERTEX
8
0
62
255
10
-0
20
70.963288
30
0
70
32
0
VERTEX
8
0
62
255
10
-0
20
70.949003
30
0
70
32
0
VERTEX
8
0
62
255
10
-0
20
70.934718
30
0
70
32
0
VERTEX
8
0
62
255
10
-0
20
70.920433
30
0
70
32
0
VERTEX
8
0
62
255
10
-0
20
70.906148
30
0
70
32
0
VERTEX
8
0
62
255
10
-0
20
70.891863
30
0
70
32
0
VERTEX
8
0
62
255
10
-0
20
70.877578
30
0
70
32
0
VERTEX
8
0
62
255
10
-0
20
70.863293
30
0
70
32
0
VERTEX
8
0
62
255
10
-0
20
70.849008
30
0
70
32
0
VERTEX
8
0
62
255
10
-0
20
70.834723
30
0
70
32
0
VERTEX
8
0
62
255
10
-0
20
70.820438
30
0
70
32
0
VERTEX
8
0
62
255
10
-0
20
70.806153
30
0
70
32
0
VERTEX
8
0
62
255
10
-0
20
70.791868
30
0
70
32
0
VERTEX
8
0
62
255
10
-0
20
70.777583
30
0
70
32
0
VERTEX
8
0
62
255
10
-0
20
70.763298
30
0
70
32
0
VERTEX
8
0
62
255
10
-0
20
70.749014
30
0
70
32
0
VERTEX
8
0
62
255
10
-0
20
70.734729
30
0
70
32
0
VERTEX
8
0
62
255
10
-0
20
70.720444
30
0
70
32
0
VERTEX
8
0
62
255
10
-0
20
70.706159
30
0
70
32
0
VERTEX
8
0
62
255
10
-0
20
70.691874
30
0
70
32
0
VERTEX
8
0
62
255
10
-0
20
70.677589
30
0
70
32
0
VERTEX
8
0
62
255
10
-0
20
70.663304
30
0
70
32
0
VERTEX
8
0
62
255
10
-0
20
70.649019
30
0
70
32
0
VERTEX
8
0
62
255
10
-0
20
70.634734
30
0
70
32
0
VERTEX
8
0
62
255
10
-0
20
70.620449
30
0
70
32
0
VERTEX
8
0
62
255
10
-0
20
70.606164
30
0
70
32
0
VERTEX
8
0
62
255
10
-0
20
70.591879
30
0
70
32
0
VERTEX
8
0
62
255
10
-0
20
70.577594
30
0
70
32
0
VERTEX
8
0
62
255
10
-0
20
70.563309
30
0
70
32
0
VERTEX
8
0
62
255
10
-0
20
70.549024
30
0
70
32
0
VERTEX
8
0
62
255
10
-0
20
70.534739
30
0
70
32
0
VERTEX
8
0
62
255
10
-0
20
70.520454
30
0
70
32
0
VERTEX
8
0
62
255
10
-0
20
70.506169
30
0
70
32
0
VERTEX
8
0
62
255
10
-0
20
70.491884
30
0
70
32
0
VERTEX
8
0
62
255
10
-0
20
70.477599
30
0
70
32
0
VERTEX
8
0
62
255
10
-0
20
70.463314
30
0
70
32
0
VERTEX
8
0
62
255
10
-0
20
70.449029
30
0
70
32
0
VERTEX
8
0
62
255
10
-0
20
70.434744
30
0
70
32
0
VERTEX
8
0
62
255
10
-0
20
70.420459
30
0
70
32
0
VERTEX
8
0
62
255
10
-0
20
70.406174
30
0
70
32
0
VERTEX
8
0
62
255
10
-0
20
70.391889
30
0
70
32
0
VERTEX
8
0
62
255
10
-0
20
70.377604
30
0
70
32
0
VERTEX
8
0
62
255
10
-0
20
70.363319
30
0
70
32
0
VERTEX
8
0
62
255
10
-0
20
70.349034
30
0
70
32
0
VERTEX
8
0
62
255
10
0
20
70.334749
30
0
70
32
0
VERTEX
8
0
62
255
10
0
20
70.320464
30
0
70
32
0
VERTEX
8
0
62
255
10
0
20
70.306179
30
0
70
32
0
VERTEX
8
0
62
255
10
0
20
70.291894
30
0
70
32
0
VERTEX
8
0
62
255
10
0
20
70.277609
30
0
70
32
0
VERTEX
8
0
62
255
10
0
20
70.263324
30
0
70
32
0
VERTEX
8
0
62
255
10
0
20
70.249039
30
0
70
32
0
VERTEX
8
0
62
255
10
0
20
70.234754
30
0
70
32
0
VERTEX
8
0
62
255
10
0
20
70.220469
30
0
70
32
0
VERTEX
8
0
62
255
10
0
20
70.206184
30
0
70
32
0
VERTEX
8
0
62
255
10
0
20
70.191899
30
0
70
32
0
VERTEX
8
0
62
255
10
0
20
70.177614
30
0
70
32
0
VERTEX
8
0
62
255
10
0
20
70.163329
30
0
70
32
0
VERTEX
8
0
62
255
10
0
20
70.149044
30
0
70
32
0
VERTEX
8
0
62
255
10
0
20
70.134759
30
0
70
32
0
VERTEX
8
0
62
255
10
0
20
70.120474
30
0
70
32
0
VERTEX
8
0
62
255
10
0
20
70.106189
30
0
70
32
0
VERTEX
8
0
62
255
10
0
20
70.091904
30
0
70
32
0
VERTEX
8
0
62
255
10
0
20
70.077619
30
0
70
32
0
VERTEX
8
0
62
255
10
0
20
70.063334
30
0
70
32
0
VERTEX
8
0
62
255
10
0
20
70.049049
30
0
70
32
0
VERTEX
8
0
62
255
10
0
20
70.034764
30
0
70
32
0
VERTEX
8
0
62
255
10
0
20
70.020479
30
0
70
32
0
VERTEX
8
0
62
255
10
0
20
70.006194
30
0
70
32
0
VERTEX
8
0
62
255
10
0
20
69.991909
30
0
70
32
0
VERTEX
8
0
62
255
10
0
20
69.977624
30
0
70
32
0
VERTEX
8
0
62
255
10
0
20
69.963339
30
0
70
32
0
VERTEX
8
0
62
255
10
0
20
69.949054
30
0
70
32
0
VERTEX
8
0
62
255
10
0
20
69.934769
30
0
70
32
0
VERTEX
8
0
62
255
10
0
20
69.920484
30
0
70
32
0
VERTEX
8
0
62
255
10
0
20
69.906199
30
0
70
32
0
VERTEX
8
0
62
255
10
0
20
69.891914
30
0
70
32
0
VERTEX
8
0
62
255
10
0
20
69.877629
30
0
70
32
0
VERTEX
8
0
62
255
10
0
20
69.863344
30
0
70
32
0
VERTEX
8
0
62
255
10
0
20
69.849059
30
0
70
32
0
VERTEX
8
0
62
255
10
0
20
69.834774
30
0
70
32
0
VERTEX
8
0
62
255
10
0
20
69.820489
30
0
70
32
0
VERTEX
8
0
62
255
10
0
20
69.806204
30
0
70
32
0
VERTEX
8
0
62
255
10
0
20
69.791919
30
0
70
32
0
VERTEX
8
0
62
255
10
0
20
69.777635
30
0
70
32
0
VERTEX
8
0
62
255
10
0
20
69.76335
30
0
70
32
0
VERTEX
8
0
62
255
10
0
20
69.749065
30
0
70
32
0
VERTEX
8
0
62
255
10
0
20
69.73478
30
0
70
32
0
VERTEX
8
0
62
255
10
0
20
69.720495
30
0
70
32
0
VERTEX
8
0
62
255
10
0
20
69.70621
30
0
70
32
0
VERTEX
8
0
62
255
10
0
20
69.691925
30
0
70
32
0
VERTEX
8
0
62
255
10
0
20
69.67764
30
0
70
32
0
VERTEX
8
0
62
255
10
0
20
69.663355
30
0
70
32
0
VERTEX
8
0
62
255
10
0
20
69.64907
30
0
70
32
0
VERTEX
8
0
62
255
10
0
20
69.634785
30
0
70
32
0
SEQEND
8
0
0
ENDSEC
0
EOF
