0
SECTION
2
HEADER
9
$ACADVER
1
AC1006
9
$INSUNITS
70
6
0
ENDSEC
0
SECTION
2
ENTITIES
0
POLYLINE
8
0
62
255
66
1
10
0
20
0
30
0
70
8
0
VERTEX
8
0
62
255
10
0
20
0
30
0
70
32
0
VERTEX
8
0
62
255
10
-0
20
1.2
30
0
70
32
0
VERTEX
8
0
62
255
10
-0
20
2.4
30
0
70
32
0
VERTEX
8
0
62
255
10
-0
20
3.6
30
0
70
32
0
VERTEX
8
0
62
255
10
-0
20
4.8
30
0
70
32
0
VERTEX
8
0
62
255
10
-0
20
6
30
0
70
32
0
VERTEX
8
0
62
255
10
-0
20
7.2
30
0
70
32
0
VERTEX
8
0
62
255
10
-0
20
8.4
30
0
70
32
0
VERTEX
8
0
62
255
10
-0
20
9.6
30
0
70
32
0
VERTEX
8
0
62
255
10
-0
20
10.8
30
0
70
32
0
VERTEX
8
0
62
255
10
-0
20
12
30
0
70
32
0
VERTEX
8
0
62
255
10
-0
20
13.2
30
0
70
32
0
VERTEX
8
0
62
255
10
-0
20
14.4
30
0
70
32
0
VERTEX
8
0
62
255
10
-0
20
15.6
30
0
70
32
0
VERTEX
8
0
62
255
10
-0
20
16.8
30
0
70
32
0
VERTEX
8
0
62
255
10
-0
20
18
30
0
70
32
0
VERTEX
8
0
62
255
10
-0
20
19.2
30
0
70
32
0
VERTEX
8
0
62
255
10
-0
20
20.4
30
0
70
32
0
VERTEX
8
0
62
255
10
-0
20
21.6
30
0
70
32
0
VERTEX
8
0
62
255
10
-0
20
22.8
30
0
70
32
0
VERTEX
8
0
62
255
10
-0
20
24
30
0
70
32
0
VERTEX
8
0
62
255
10
-0
20
25.2
30
0
70
32
0
VERTEX
8
0
62
255
10
-0
20
26.4
30
0
70
32
0
VERTEX
8
0
62
255
10
-0
20
27.6
30
0
70
32
0
VERTEX
8
0
62
255
10
-0
20
28.8
30
0
70
32
0
VERTEX
8
0
62
255
10
-0
20
30
30
0
70
32
0
VERTEX
8
0
62
255
10
-0
20
31.2
30
0
70
32
0
VERTEX
8
0
62
255
10
-0
20
32.4
30
0
70
32
0
VERTEX
8
0
62
255
10
-0
20
33.6
30
0
70
32
0
VERTEX
8
0
62
255
10
-0
20
34.8
30
0
70
32
0
VERTEX
8
0
62
255
10
-0
20
36
30
0
70
32
0
VERTEX
8
0
62
255
10
-0
20
37.2
30
0
70
32
0
VERTEX
8
0
62
255
10
-0
20
38.4
30
0
70
32
0
VERTEX
8
0
62
255
10
-0
20
39.6
30
0
70
32
0
VERTEX
8
0
62
255
10
-0
20
40.8
30
0
70
32
0
VERTEX
8
0
62
255
10
-0
20
42
30
0
70
32
0
VERTEX
8
0
62
255
10
-0
20
43.2
30
0
70
32
0
VERTEX
8
0
62
255
10
-0
20
44.4
30
0
70
32
0
VERTEX
8
0
62
255
10
-0
20
45.6
30
0
70
32
0
VERTEX
8
0
62
255
10
-0
20
46.8
30
0
70
32
0
VERTEX
8
0
62
255
10
-0
20
48
30
0
70
32
0
VERTEX
8
0
62
255
10
-0
20
49.2
30
0
70
32
0
VERTEX
8
0
62
255
10
-0
20
50.4
30
0
70
32
0
VERTEX
8
0
62
255
10
-0
20
51.6
30
0
70
32
0
VERTEX
8
0
62
255
10
-0
20
52.8
30
0
70
32
0
VERTEX
8
0
62
255
10
-0
20
54
30
0
70
32
0
VERTEX
8
0
62
255
10
-0
20
55.2
30
0
70
32
0
VERTEX
8
0
62
255
10
-0
20
56.4
30
0
70
32
0
VERTEX
8
0
62
255
10
-0
20
57.6
30
0
70
32
0
VERTEX
8
0
62
255
10
-0
20
58.8
30
0
70
32
0
VERTEX
8
0
62
255
10
0
20
60
30
0
70
32
0
VERTEX
8
0
62
255
10
0
20
61.2
30
0
70
32
0
VERTEX
8
0
62
255
10
0
20
62.4
30
0
70
32
0
VERTEX
8
0
62
255
10
0
20
63.6
30
0
70
32
0
VERTEX
8
0
62
255
10
0
20
64.8
30
0
70
32
0
VERTEX
8
0
62
255
10
0
20
66
30
0
70
32
0
VERTEX
8
0
62
255
10
0
20
67.2
30
0
70
32
0
VERTEX
8
0
62
255
10
0
20
68.4
30
0
70
32
0
VERTEX
8
0
62
255
10
0
20
69.6
30
0
70
32
0
VERTEX
8
0
62
255
10
0
20
70.8
30
0
70
32
0
VERTEX
8
0
62
255
10
0
20
72
30
0
70
32
0
VERTEX
8
0
62
255
10
0
20
73.2
30
0
70
32
0
VERTEX
8
0
62
255
10
0
20
74.4
30
0
70
32
0
VERTEX
8
0
62
255
10
0
20
75.6
30
0
70
32
0
VERTEX
8
0
62
255
10
0
20
76.8
30
0
70
32
0
VERTEX
8
0
62
255
10
0
20
78
30
0
70
32
0
VERTEX
8
0
62
255
10
0
20
79.2
30
0
70
32
0
VERTEX
8
0
62
255
10
0
20
80.4
30
0
70
32
0
VERTEX
8
0
62
255
10
0
20
81.6
30
0
70
32
0
VERTEX
8
0
62
255
10
0
20
82.8
30
0
70
32
0
VERTEX
8
0
62
255
10
0
20
84
30
0
70
32
0
VERTEX
8
0
62
255
10
0
20
85.2
30
0
70
32
0
VERTEX
8
0
62
255
10
0
20
86.4
30
0
70
32
0
VERTEX
8
0
62
255
10
0
20
87.6
30
0
70
32
0
VERTEX
8
0
62
255
10
0
20
88.8
30
0
70
32
0
VERTEX
8
0
62
255
10
0
20
90
30
0
70
32
0
VERTEX
8
0
62
255
10
0
20
91.2
30
0
70
32
0
VERTEX
8
0
62
255
10
0
20
92.4
30
0
70
32
0
VERTEX
8
0
62
255
10
0
20
93.6
30
0
70
32
0
VERTEX
8
0
62
255
10
0
20
94.8
30
0
70
32
0
VERTEX
8
0
62
255
10
0
20
96
30
0
70
32
0
VERTEX
8
0
62
255
10
0
20
97.2
30
0
70
32
0
VERTEX
8
0
62
255
10
0
20
98.4
30
0
70
32
0
VERTEX
8
0
62
255
10
0
20
99.6
30
0
70
32
0
VERTEX
8
0
62
255
10
0
20
100.8
30
0
70
32
0
VERTEX
8
0
62
255
10
0
20
102
30
0
70
32
0
VERTEX
8
0
62
255
10
0
20
103.2
30
0
70
32
0
VERTEX
8
0
62
255
10
0
20
104.4
30
0
70
32
0
VERTEX
8
0
62
255
10
0
20
105.6
30
0
70
32
0
VERTEX
8
0
62
255
10
0
20
106.8
30
0
70
32
0
VERTEX
8
0
62
255
10
0
20
108
30
0
70
32
0
VERTEX
8
0
62
255
10
0
20
109.2
30
0
70
32
0
VERTEX
8
0
62
255
10
0
20
110.4
30
0
70
32
0
VERTEX
8
0
62
255
10
0
20
111.6
30
0
70
32
0
VERTEX
8
0
62
255
10
0
20
112.8
30
0
70
32
0
VERTEX
8
0
62
255
10
0
20
114
30
0
70
32
0
VERTEX
8
0
62
255
10
0
20
115.2
30
0
70
32
0
VERTEX
8
0
62
255
10
0
20
116.4
30
0
70
32
0
VERTEX
8
0
62
255
10
0
20
117.6
30
0
70
32
0
VERTEX
8
0
62
255
10
0
20
118.8
30
0
70
32
0
SEQEND
8
0
0
POLYLINE
8
0
62
255
66
1
10
0
20
0
30
0
70
8
0
VERTEX
8
0
62
255
10
0
20
118.8
30
0
70
32
0
VERTEX
8
0
62
255
10
-0.058833324
20
118.9019
30
0
70
32
0
VERTEX
8
0
62
255
10
-0.11766665
20
119.0038
30
0
70
32
0
VERTEX
8
0
62
255
10
-0.17649997
20
119.10571
30
0
70
32
0
VERTEX
8
0
62
255
10
-0.2353333
20
119.20761
30
0
70
32
0
VERTEX
8
0
62
255
10
-0.29416662
20
119.30951
30
0
70
32
0
VERTEX
8
0
62
255
10
-0.35299995
20
119.41141
30
0
70
32
0
VERTEX
8
0
62
255
10
-0.41183327
20
119.51332
30
0
70
32
0
VERTEX
8
0
62
255
10
-0.47066659
20
119.61522
30
0
70
32
0
VERTEX
8
0
62
255
10
-0.52949992
20
119.71712
30
0
70
32
0
VERTEX
8
0
62
255
10
-0.58833324
20
119.81902
30
0
70
32
0
VERTEX
8
0
62
255
10
-0.64716657
20
119.92093
30
0
70
32
0
VERTEX
8
0
62
255
10
-0.70599989
20
120.02283
30
0
70
32
0
VERTEX
8
0
62
255
10
-0.76483322
20
120.12473
30
0
70
32
0
VERTEX
8
0
62
255
10
-0.82366654
20
120.22663
30
0
70
32
0
VERTEX
8
0
62
255
10
-0.88249986
20
120.32853
30
0
70
32
0
VERTEX
8
0
62
255
10
-0.94133319
20
120.43044
30
0
70
32
0
VERTEX
8
0
62
255
10
-1.0001665
20
120.53234
30
0
70
32
0
VERTEX
8
0
62
255
10
-1.0589998
20
120.63424
30
0
70
32
0
VERTEX
8
0
62
255
10
-1.1178332
20
120.73614
30
0
70
32
0
VERTEX
8
0
62
255
10
-1.1766665
20
120.83805
30
0
70
32
0
VERTEX
8
0
62
255
10
-1.2354998
20
120.93995
30
0
70
32
0
VERTEX
8
0
62
255
10
-1.2943331
20
121.04185
30
0
70
32
0
VERTEX
8
0
62
255
10
-1.3531665
20
121.14375
30
0
70
32
0
VERTEX
8
0
62
255
10
-1.4119998
20
121.24566
30
0
70
32
0
VERTEX
8
0
62
255
10
-1.4708331
20
121.34756
30
0
70
32
0
VERTEX
8
0
62
255
10
-1.5296664
20
121.44946
30
0
70
32
0
VERTEX
8
0
62
255
10
-1.5884998
20
121.55136
30
0
70
32
0
VERTEX
8
0
62
255
10
-1.6473331
20
121.65326
30
0
70
32
0
VERTEX
8
0
62
255
10
-1.7061664
20
121.75517
30
0
70
32
0
VERTEX
8
0
62
255
10
-1.7649997
20
121.85707
30
0
70
32
0
VERTEX
8
0
62
255
10
-1.8238331
20
121.95897
30
0
70
32
0
VERTEX
8
0
62
255
10
-1.8826664
20
122.06087
30
0
70
32
0
VERTEX
8
0
62
255
10
-1.9414997
20
122.16278
30
0
70
32
0
VERTEX
8
0
62
255
10
-2.000333
20
122.26468
30
0
70
32
0
VERTEX
8
0
62
255
10
-2.0591663
20
122.36658
30
0
70
32
0
VERTEX
8
0
62
255
10
-2.1179997
20
122.46848
30
0
70
32
0
VERTEX
8
0
62
255
10
-2.176833
20
122.57039
30
0
70
32
0
VERTEX
8
0
62
255
10
-2.2356663
20
122.67229
30
0
70
32
0
VERTEX
8
0
62
255
10
-2.2944996
20
122.77419
30
0
70
32
0
VERTEX
8
0
62
255
10
-2.353333
20
122.87609
30
0
70
32
0
VERTEX
8
0
62
255
10
-2.4121663
20
122.97799
30
0
70
32
0
VERTEX
8
0
62
255
10
-2.4709996
20
123.0799
30
0
70
32
0
VERTEX
8
0
62
255
10
-2.5298329
20
123.1818
30
0
70
32
0
VERTEX
8
0
62
255
10
-2.5886663
20
123.2837
30
0
70
32
0
VERTEX
8
0
62
255
10
-2.6474996
20
123.3856
30
0
70
32
0
VERTEX
8
0
62
255
10
-2.7063329
20
123.48751
30
0
70
32
0
VERTEX
8
0
62
255
10
-2.7651662
20
123.58941
30
0
70
32
0
VERTEX
8
0
62
255
10
-2.8239996
20
123.69131
30
0
70
32
0
VERTEX
8
0
62
255
10
-2.8828329
20
123.79321
30
0
70
32
0
VERTEX
8
0
62
255
10
-2.9416662
20
123.89512
30
0
70
32
0
VERTEX
8
0
62
255
10
-3.0004995
20
123.99702
30
0
70
32
0
VERTEX
8
0
62
255
10
-3.0593329
20
124.09892
30
0
70
32
0
VERTEX
8
0
62
255
10
-3.1181662
20
124.20082
30
0
70
32
0
VERTEX
8
0
62
255
10
-3.1769995
20
124.30272
30
0
70
32
0
VERTEX
8
0
62
255
10
-3.2358328
20
124.40463
30
0
70
32
0
VERTEX
8
0
62
255
10
-3.2946662
20
124.50653
30
0
70
32
0
VERTEX
8
0
62
255
10
-3.3534995
20
124.60843
30
0
70
32
0
VERTEX
8
0
62
255
10
-3.4123328
20
124.71033
30
0
70
32
0
VERTEX
8
0
62
255
10
-3.4711661
20
124.81224
30
0
70
32
0
VERTEX
8
0
62
255
10
-3.5299995
20
124.91414
30
0
70
32
0
VERTEX
8
0
62
255
10
-3.5888328
20
125.01604
30
0
70
32
0
VERTEX
8
0
62
255
10
-3.6476661
20
125.11794
30
0
70
32
0
VERTEX
8
0
62
255
10
-3.7064994
20
125.21985
30
0
70
32
0
VERTEX
8
0
62
255
10
-3.7653328
20
125.32175
30
0
70
32
0
VERTEX
8
0
62
255
10
-3.8241661
20
125.42365
30
0
70
32
0
VERTEX
8
0
62
255
10
-3.8829994
20
125.52555
30
0
70
32
0
VERTEX
8
0
62
255
10
-3.9418327
20
125.62745
30
0
70
32
0
VERTEX
8
0
62
255
10
-4.0006661
20
125.72936
30
0
70
32
0
VERTEX
8
0
62
255
10
-4.0594994
20
125.83126
30
0
70
32
0
VERTEX
8
0
62
255
10
-4.1183327
20
125.93316
30
0
70
32
0
VERTEX
8
0
62
255
10
-4.177166
20
126.03506
30
0
70
32
0
VERTEX
8
0
62
255
10
-4.2359993
20
126.13697
30
0
70
32
0
VERTEX
8
0
62
255
10
-4.2948327
20
126.23887
30
0
70
32
0
VERTEX
8
0
62
255
10
-4.353666
20
126.34077
30
0
70
32
0
VERTEX
8
0
62
255
10
-4.4124993
20
126.44267
30
0
70
32
0
VERTEX
8
0
62
255
10
-4.4713326
20
126.54458
30
0
70
32
0
VERTEX
8
0
62
255
10
-4.530166
20
126.64648
30
0
70
32
0
VERTEX
8
0
62
255
10
-4.5889993
20
126.74838
30
0
70
32
0
VERTEX
8
0
62
255
10
-4.6478326
20
126.85028
30
0
70
32
0
VERTEX
8
0
62
255
10
-4.7066659
20
126.95218
30
0
70
32
0
VERTEX
8
0
62
255
10
-4.7654993
20
127.05409
30
0
70
32
0
VERTEX
8
0
62
255
10
-4.8243326
20
127.15599
30
0
70
32
0
VERTEX
8
0
62
255
10
-4.8831659
20
127.25789
30
0
70
32
0
VERTEX
8
0
62
255
10
-4.9419992
20
127.35979
30
0
70
32
0
VERTEX
8
0
62
255
10
-5.0008326
20
127.4617
30
0
70
32
0
VERTEX
8
0
62
255
10
-5.0596659
20
127.5636
30
0
70
32
0
VERTEX
8
0
62
255
10
-5.1184992
20
127.6655
30
0
70
32
0
VERTEX
8
0
62
255
10
-5.1773325
20
127.7674
30
0
70
32
0
VERTEX
8
0
62
255
10
-5.2361659
20
127.86931
30
0
70
32
0
VERTEX
8
0
62
255
10
-5.2949992
20
127.97121
30
0
70
32
0
VERTEX
8
0
62
255
10
-5.3538325
20
128.07311
30
0
70
32
0
VERTEX
8
0
62
255
10
-5.4126658
20
128.17501
30
0
70
32
0
VERTEX
8
0
62
255
10
-5.4714992
20
128.27691
30
0
70
32
0
VERTEX
8
0
62
255
10
-5.5303325
20
128.37882
30
0
70
32
0
VERTEX
8
0
62
255
10
-5.5891658
20
128.48072
30
0
70
32
0
VERTEX
8
0
62
255
10
-5.6479991
20
128.58262
30
0
70
32
0
VERTEX
8
0
62
255
10
-5.7068325
20
128.68452
30
0
70
32
0
VERTEX
8
0
62
255
10
-5.7656658
20
128.78643
30
0
70
32
0
VERTEX
8
0
62
255
10
-5.8244991
20
128.88833
30
0
70
32
0
SEQEND
8
0
0
POLYLINE
8
0
62
255
66
1
10
0
20
0
30
0
70
8
0
VERTEX
8
0
62
255
10
-5.8244991
20
128.88833
30
0
70
32
0
VERTEX
8
0
62
255
10
-5.7041808
20
128.95779
30
0
70
32
0
VERTEX
8
0
62
255
10
-5.5838625
20
129.02726
30
0
70
32
0
VERTEX
8
0
62
255
10
-5.4635442
20
129.09673
30
0
70
32
0
VERTEX
8
0
62
255
10
-5.343226
20
129.16619
30
0
70
32
0
VERTEX
8
0
62
255
10
-5.2229077
20
129.23566
30
0
70
32
0
VERTEX
8
0
62
255
10
-5.1025894
20
129.30512
30
0
70
32
0
VERTEX
8
0
62
255
10
-4.9822711
20
129.37459
30
0
70
32
0
VERTEX
8
0
62
255
10
-4.8619528
20
129.44405
30
0
70
32
0
VERTEX
8
0
62
255
10
-4.7416345
20
129.51352
30
0
70
32
0
VERTEX
8
0
62
255
10
-4.6213162
20
129.58299
30
0
70
32
0
VERTEX
8
0
62
255
10
-4.500998
20
129.65245
30
0
70
32
0
VERTEX
8
0
62
255
10
-4.3806797
20
129.72192
30
0
70
32
0
VERTEX
8
0
62
255
10
-4.2603614
20
129.79138
30
0
70
32
0
VERTEX
8
0
62
255
10
-4.1400431
20
129.86085
30
0
70
32
0
VERTEX
8
0
62
255
10
-4.0197248
20
129.93032
30
0
70
32
0
VERTEX
8
0
62
255
10
-3.8994065
20
129.99978
30
0
70
32
0
VERTEX
8
0
62
255
10
-3.7790882
20
130.06925
30
0
70
32
0
VERTEX
8
0
62
255
10
-3.6587699
20
130.13871
30
0
70
32
0
VERTEX
8
0
62
255
10
-3.5384517
20
130.20818
30
0
70
32
0
VERTEX
8
0
62
255
10
-3.4181334
20
130.27764
30
0
70
32
0
VERTEX
8
0
62
255
10
-3.2978151
20
130.34711
30
0
70
32
0
VERTEX
8
0
62
255
10
-3.1774968
20
130.41658
30
0
70
32
0
VERTEX
8
0
62
255
10
-3.0571785
20
130.48604
30
0
70
32
0
VERTEX
8
0
62
255
10
-2.9368602
20
130.55551
30
0
70
32
0
VERTEX
8
0
62
255
10
-2.8165419
20
130.62497
30
0
70
32
0
VERTEX
8
0
62
255
10
-2.6962237
20
130.69444
30
0
70
32
0
VERTEX
8
0
62
255
10
-2.5759054
20
130.7639
30
0
70
32
0
VERTEX
8
0
62
255
10
-2.4555871
20
130.83337
30
0
70
32
0
VERTEX
8
0
62
255
10
-2.3352688
20
130.90284
30
0
70
32
0
VERTEX
8
0
62
255
10
-2.2149505
20
130.9723
30
0
70
32
0
VERTEX
8
0
62
255
10
-2.0946322
20
131.04177
30
0
70
32
0
VERTEX
8
0
62
255
10
-1.9743139
20
131.11123
30
0
70
32
0
VERTEX
8
0
62
255
10
-1.8539956
20
131.1807
30
0
70
32
0
VERTEX
8
0
62
255
10
-1.7336774
20
131.25017
30
0
70
32
0
VERTEX
8
0
62
255
10
-1.6133591
20
131.31963
30
0
70
32
0
VERTEX
8
0
62
255
10
-1.4930408
20
131.3891
30
0
70
32
0
VERTEX
8
0
62
255
10
-1.3727225
20
131.45856
30
0
70
32
0
VERTEX
8
0
62
255
10
-1.2524042
20
131.52803
30
0
70
32
0
VERTEX
8
0
62
255
10
-1.1320859
20
131.59749
30
0
70
32
0
VERTEX
8
0
62
255
10
-1.0117676
20
131.66696
30
0
70
32
0
VERTEX
8
0
62
255
10
-0.89144935
20
131.73643
30
0
70
32
0
VERTEX
8
0
62
255
10
-0.77113107
20
131.80589
30
0
70
32
0
VERTEX
8
0
62
255
10
-0.65081278
20
131.87536
30
0
70
32
0
VERTEX
8
0
62
255
10
-0.53049449
20
131.94482
30
0
70
32
0
VERTEX
8
0
62
255
10
-0.41017621
20
132.01429
30
0
70
32
0
VERTEX
8
0
62
255
10
-0.28985792
20
132.08375
30
0
70
32
0
VERTEX
8
0
62
255
10
-0.16953963
20
132.15322
30
0
70
32
0
VERTEX
8
0
62
255
10
-0.049221348
20
132.22269
30
0
70
32
0
VERTEX
8
0
62
255
10
0.071096938
20
132.29215
30
0
70
32
0
VERTEX
8
0
62
255
10
0.19141522
20
132.36162
30
0
70
32
0
VERTEX
8
0
62
255
10
0.31173351
20
132.43108
30
0
70
32
0
VERTEX
8
0
62
255
10
0.4320518
20
132.50055
30
0
70
32
0
VERTEX
8
0
62
255
10
0.55237008
20
132.57002
30
0
70
32
0
VERTEX
8
0
62
255
10
0.67268837
20
132.63948
30
0
70
32
0
VERTEX
8
0
62
255
10
0.79300666
20
132.70895
30
0
70
32
0
VERTEX
8
0
62
255
10
0.91332494
20
132.77841
30
0
70
32
0
VERTEX
8
0
62
255
10
1.0336432
20
132.84788
30
0
70
32
0
VERTEX
8
0
62
255
10
1.1539615
20
132.91734
30
0
70
32
0
VERTEX
8
0
62
255
10
1.2742798
20
132.98681
30
0
70
32
0
VERTEX
8
0
62
255
10
1.3945981
20
133.05628
30
0
70
32
0
VERTEX
8
0
62
255
10
1.5149164
20
133.12574
30
0
70
32
0
VERTEX
8
0
62
255
10
1.6352347
20
133.19521
30
0
70
32
0
VERTEX
8
0
62
255
10
1.755553
20
133.26467
30
0
70
32
0
VERTEX
8
0
62
255
10
1.8758712
20
133.33414
30
0
70
32
0
VERTEX
8
0
62
255
10
1.9961895
20
133.40361
30
0
70
32
0
VERTEX
8
0
62
255
10
2.1165078
20
133.47307
30
0
70
32
0
VERTEX
8
0
62
255
10
2.2368261
20
133.54254
30
0
70
32
0
VERTEX
8
0
62
255
10
2.3571444
20
133.612
30
0
70
32
0
VERTEX
8
0
62
255
10
2.4774627
20
133.68147
30
0
70
32
0
VERTEX
8
0
62
255
10
2.597781
20
133.75093
30
0
70
32
0
VERTEX
8
0
62
255
10
2.7180992
20
133.8204
30
0
70
32
0
VERTEX
8
0
62
255
10
2.8384175
20
133.88987
30
0
70
32
0
VERTEX
8
0
62
255
10
2.9587358
20
133.95933
30
0
70
32
0
VERTEX
8
0
62
255
10
3.0790541
20
134.0288
30
0
70
32
0
VERTEX
8
0
62
255
10
3.1993724
20
134.09826
30
0
70
32
0
VERTEX
8
0
62
255
10
3.3196907
20
134.16773
30
0
70
32
0
VERTEX
8
0
62
255
10
3.440009
20
134.23719
30
0
70
32
0
VERTEX
8
0
62
255
10
3.5603272
20
134.30666
30
0
70
32
0
VERTEX
8
0
62
255
10
3.6806455
20
134.37613
30
0
70
32
0
VERTEX
8
0
62
255
10
3.8009638
20
134.44559
30
0
70
32
0
VERTEX
8
0
62
255
10
3.9212821
20
134.51506
30
0
70
32
0
VERTEX
8
0
62
255
10
4.0416004
20
134.58452
30
0
70
32
0
VERTEX
8
0
62
255
10
4.1619187
20
134.65399
30
0
70
32
0
VERTEX
8
0
62
255
10
4.282237
20
134.72346
30
0
70
32
0
VERTEX
8
0
62
255
10
4.4025553
20
134.79292
30
0
70
32
0
VERTEX
8
0
62
255
10
4.5228735
20
134.86239
30
0
70
32
0
VERTEX
8
0
62
255
10
4.6431918
20
134.93185
30
0
70
32
0
VERTEX
8
0
62
255
10
4.7635101
20
135.00132
30
0
70
32
0
VERTEX
8
0
62
255
10
4.8838284
20
135.07078
30
0
70
32
0
VERTEX
8
0
62
255
10
5.0041467
20
135.14025
30
0
70
32
0
VERTEX
8
0
62
255
10
5.124465
20
135.20972
30
0
70
32
0
VERTEX
8
0
62
255
10
5.2447833
20
135.27918
30
0
70
32
0
VERTEX
8
0
62
255
10
5.3651015
20
135.34865
30
0
70
32
0
VERTEX
8
0
62
255
10
5.4854198
20
135.41811
30
0
70
32
0
VERTEX
8
0
62
255
10
5.6057381
20
135.48758
30
0
70
32
0
VERTEX
8
0
62
255
10
5.7260564
20
135.55704
30
0
70
32
0
VERTEX
8
0
62
255
10
5.8463747
20
135.62651
30
0
70
32
0
VERTEX
8
0
62
255
10
5.966693
20
135.69598
30
0
70
32
0
VERTEX
8
0
62
255
10
6.0870113
20
135.76544
30
0
70
32
0
SEQEND
8
0
0
POLYLINE
8
0
62
255
66
1
10
0
20
0
30
0
70
8
0
VERTEX
8
0
62
255
10
17.210985
20
135.76544
30
0
70
32
0
VERTEX
8
0
62
255
10
17.141811
20
135.6485
30
0
70
32
0
VERTEX
8
0
62
255
10
17.070178
20
135.53305
30
0
70
32
0
VERTEX
8
0
62
255
10
16.996119
20
135.41914
30
0
70
32
0
VERTEX
8
0
62
255
10
16.919667
20
135.30683
30
0
70
32
0
VERTEX
8
0
62
255
10
16.840857
20
135.19615
30
0
70
32
0
VERTEX
8
0
62
255
10
16.759722
20
135.08717
30
0
70
32
0
VERTEX
8
0
62
255
10
16.676301
20
134.97993
30
0
70
32
0
VERTEX
8
0
62
255
10
16.590629
20
134.87448
30
0
70
32
0
VERTEX
8
0
62
255
10
16.502746
20
134.77086
30
0
70
32
0
VERTEX
8
0
62
255
10
16.412691
20
134.66913
30
0
70
32
0
VERTEX
8
0
62
255
10
16.320504
20
134.56932
30
0
70
32
0
VERTEX
8
0
62
255
10
16.226226
20
134.47148
30
0
70
32
0
VERTEX
8
0
62
255
10
16.1299
20
134.37567
30
0
70
32
0
VERTEX
8
0
62
255
10
16.031568
20
134.28191
30
0
70
32
0
VERTEX
8
0
62
255
10
15.931275
20
134.19025
30
0
70
32
0
VERTEX
8
0
62
255
10
15.829065
20
134.10073
30
0
70
32
0
VERTEX
8
0
62
255
10
15.724985
20
134.0134
30
0
70
32
0
VERTEX
8
0
62
255
10
15.619081
20
133.92829
30
0
70
32
0
VERTEX
8
0
62
255
10
15.511399
20
133.84543
30
0
70
32
0
VERTEX
8
0
62
255
10
15.40199
20
133.76488
30
0
70
32
0
VERTEX
8
0
62
255
10
15.2909
20
133.68665
30
0
70
32
0
VERTEX
8
0
62
255
10
15.178181
20
133.6108
30
0
70
32
0
VERTEX
8
0
62
255
10
15.063882
20
133.53734
30
0
70
32
0
VERTEX
8
0
62
255
10
14.948055
20
133.46632
30
0
70
32
0
VERTEX
8
0
62
255
10
14.830751
20
133.39776
30
0
70
32
0
VERTEX
8
0
62
255
10
14.712024
20
133.33171
30
0
70
32
0
VERTEX
8
0
62
255
10
14.591926
20
133.26817
30
0
70
32
0
VERTEX
8
0
62
255
10
14.47051
20
133.2072
30
0
70
32
0
VERTEX
8
0
62
255
10
14.347832
20
133.1488
30
0
70
32
0
VERTEX
8
0
62
255
10
14.223946
20
133.09301
30
0
70
32
0
VERTEX
8
0
62
255
10
14.098908
20
133.03986
30
0
70
32
0
VERTEX
8
0
62
255
10
13.972773
20
132.98936
30
0
70
32
0
VERTEX
8
0
62
255
10
13.845598
20
132.94155
30
0
70
32
0
VERTEX
8
0
62
255
10
13.717441
20
132.89643
30
0
70
32
0
VERTEX
8
0
62
255
10
13.588357
20
132.85404
30
0
70
32
0
VERTEX
8
0
62
255
10
13.458406
20
132.81438
30
0
70
32
0
VERTEX
8
0
62
255
10
13.327644
20
132.77748
30
0
70
32
0
VERTEX
8
0
62
255
10
13.196132
20
132.74336
30
0
70
32
0
VERTEX
8
0
62
255
10
13.063927
20
132.71203
30
0
70
32
0
VERTEX
8
0
62
255
10
12.931089
20
132.6835
30
0
70
32
0
VERTEX
8
0
62
255
10
12.797677
20
132.65779
30
0
70
32
0
VERTEX
8
0
62
255
10
12.663751
20
132.6349
30
0
70
32
0
VERTEX
8
0
62
255
10
12.529371
20
132.61485
30
0
70
32
0
VERTEX
8
0
62
255
10
12.394597
20
132.59765
30
0
70
32
0
VERTEX
8
0
62
255
10
12.259489
20
132.58331
30
0
70
32
0
VERTEX
8
0
62
255
10
12.124108
20
132.57183
30
0
70
32
0
VERTEX
8
0
62
255
10
11.988514
20
132.56321
30
0
70
32
0
VERTEX
8
0
62
255
10
11.852769
20
132.55746
30
0
70
32
0
VERTEX
8
0
62
255
10
11.716932
20
132.55459
30
0
70
32
0
VERTEX
8
0
62
255
10
11.581065
20
132.55459
30
0
70
32
0
VERTEX
8
0
62
255
10
11.445228
20
132.55746
30
0
70
32
0
VERTEX
8
0
62
255
10
11.309482
20
132.56321
30
0
70
32
0
VERTEX
8
0
62
255
10
11.173889
20
132.57183
30
0
70
32
0
VERTEX
8
0
62
255
10
11.038507
20
132.58331
30
0
70
32
0
VERTEX
8
0
62
255
10
10.9034
20
132.59765
30
0
70
32
0
VERTEX
8
0
62
255
10
10.768626
20
132.61485
30
0
70
32
0
VERTEX
8
0
62
255
10
10.634245
20
132.6349
30
0
70
32
0
VERTEX
8
0
62
255
10
10.500319
20
132.65779
30
0
70
32
0
VERTEX
8
0
62
255
10
10.366908
20
132.6835
30
0
70
32
0
VERTEX
8
0
62
255
10
10.234069
20
132.71203
30
0
70
32
0
VERTEX
8
0
62
255
10
10.101864
20
132.74336
30
0
70
32
0
VERTEX
8
0
62
255
10
9.970352
20
132.77748
30
0
70
32
0
VERTEX
8
0
62
255
10
9.8395908
20
132.81438
30
0
70
32
0
VERTEX
8
0
62
255
10
9.7096393
20
132.85404
30
0
70
32
0
VERTEX
8
0
62
255
10
9.5805558
20
132.89643
30
0
70
32
0
VERTEX
8
0
62
255
10
9.452398
20
132.94155
30
0
70
32
0
VERTEX
8
0
62
255
10
9.3252233
20
132.98936
30
0
70
32
0
VERTEX
8
0
62
255
10
9.1990885
20
133.03986
30
0
70
32
0
VERTEX
8
0
62
255
10
9.0740502
20
133.09301
30
0
70
32
0
VERTEX
8
0
62
255
10
8.9501642
20
133.1488
30
0
70
32
0
VERTEX
8
0
62
255
10
8.8274861
20
133.2072
30
0
70
32
0
VERTEX
8
0
62
255
10
8.7060708
20
133.26817
30
0
70
32
0
VERTEX
8
0
62
255
10
8.5859725
20
133.33171
30
0
70
32
0
VERTEX
8
0
62
255
10
8.467245
20
133.39776
30
0
70
32
0
VERTEX
8
0
62
255
10
8.3499415
20
133.46632
30
0
70
32
0
VERTEX
8
0
62
255
10
8.2341144
20
133.53734
30
0
70
32
0
VERTEX
8
0
62
255
10
8.1198156
20
133.6108
30
0
70
32
0
VERTEX
8
0
62
255
10
8.0070963
20
133.68665
30
0
70
32
0
VERTEX
8
0
62
255
10
7.8960069
20
133.76488
30
0
70
32
0
VERTEX
8
0
62
255
10
7.7865971
20
133.84543
30
0
70
32
0
VERTEX
8
0
62
255
10
7.6789158
20
133.92829
30
0
70
32
0
VERTEX
8
0
62
255
10
7.5730113
20
134.0134
30
0
70
32
0
VERTEX
8
0
62
255
10
7.468931
20
134.10073
30
0
70
32
0
VERTEX
8
0
62
255
10
7.3667214
20
134.19025
30
0
70
32
0
VERTEX
8
0
62
255
10
7.2664283
20
134.28191
30
0
70
32
0
VERTEX
8
0
62
255
10
7.1680966
20
134.37567
30
0
70
32
0
VERTEX
8
0
62
255
10
7.0717703
20
134.47148
30
0
70
32
0
VERTEX
8
0
62
255
10
6.9774924
20
134.56932
30
0
70
32
0
VERTEX
8
0
62
255
10
6.8853052
20
134.66913
30
0
70
32
0
VERTEX
8
0
62
255
10
6.79525
20
134.77086
30
0
70
32
0
VERTEX
8
0
62
255
10
6.707367
20
134.87448
30
0
70
32
0
VERTEX
8
0
62
255
10
6.6216956
20
134.97993
30
0
70
32
0
VERTEX
8
0
62
255
10
6.538274
20
135.08717
30
0
70
32
0
VERTEX
8
0
62
255
10
6.4571398
20
135.19615
30
0
70
32
0
VERTEX
8
0
62
255
10
6.3783291
20
135.30683
30
0
70
32
0
VERTEX
8
0
62
255
10
6.3018772
20
135.41914
30
0
70
32
0
VERTEX
8
0
62
255
10
6.2278183
20
135.53305
30
0
70
32
0
VERTEX
8
0
62
255
10
6.1561857
20
135.6485
30
0
70
32
0
VERTEX
8
0
62
255
10
6.0870113
20
135.76544
30
0
70
32
0
SEQEND
8
0
0
POLYLINE
8
0
62
255
66
1
10
0
20
0
30
0
70
8
0
VERTEX
8
0
62
255
10
17.210985
20
135.76544
30
0
70
32
0
VERTEX
8
0
62
255
10
17.331303
20
135.69598
30
0
70
32
0
VERTEX
8
0
62
255
10
17.451622
20
135.62651
30
0
70
32
0
VERTEX
8
0
62
255
10
17.57194
20
135.55704
30
0
70
32
0
VERTEX
8
0
62
255
10
17.692258
20
135.48758
30
0
70
32
0
VERTEX
8
0
62
255
10
17.812577
20
135.41811
30
0
70
32
0
VERTEX
8
0
62
255
10
17.932895
20
135.34865
30
0
70
32
0
VERTEX
8
0
62
255
10
18.053213
20
135.27918
30
0
70
32
0
VERTEX
8
0
62
255
10
18.173531
20
135.20972
30
0
70
32
0
VERTEX
8
0
62
255
10
18.29385
20
135.14025
30
0
70
32
0
VERTEX
8
0
62
255
10
18.414168
20
135.07078
30
0
70
32
0
VERTEX
8
0
62
255
10
18.534486
20
135.00132
30
0
70
32
0
VERTEX
8
0
62
255
10
18.654805
20
134.93185
30
0
70
32
0
VERTEX
8
0
62
255
10
18.775123
20
134.86239
30
0
70
32
0
VERTEX
8
0
62
255
10
18.895441
20
134.79292
30
0
70
32
0
VERTEX
8
0
62
255
10
19.015759
20
134.72346
30
0
70
32
0
VERTEX
8
0
62
255
10
19.136078
20
134.65399
30
0
70
32
0
VERTEX
8
0
62
255
10
19.256396
20
134.58452
30
0
70
32
0
VERTEX
8
0
62
255
10
19.376714
20
134.51506
30
0
70
32
0
VERTEX
8
0
62
255
10
19.497033
20
134.44559
30
0
70
32
0
VERTEX
8
0
62
255
10
19.617351
20
134.37613
30
0
70
32
0
VERTEX
8
0
62
255
10
19.737669
20
134.30666
30
0
70
32
0
VERTEX
8
0
62
255
10
19.857987
20
134.23719
30
0
70
32
0
VERTEX
8
0
62
255
10
19.978306
20
134.16773
30
0
70
32
0
VERTEX
8
0
62
255
10
20.098624
20
134.09826
30
0
70
32
0
VERTEX
8
0
62
255
10
20.218942
20
134.0288
30
0
70
32
0
VERTEX
8
0
62
255
10
20.339261
20
133.95933
30
0
70
32
0
VERTEX
8
0
62
255
10
20.459579
20
133.88987
30
0
70
32
0
VERTEX
8
0
62
255
10
20.579897
20
133.8204
30
0
70
32
0
VERTEX
8
0
62
255
10
20.700215
20
133.75093
30
0
70
32
0
VERTEX
8
0
62
255
10
20.820534
20
133.68147
30
0
70
32
0
VERTEX
8
0
62
255
10
20.940852
20
133.612
30
0
70
32
0
VERTEX
8
0
62
255
10
21.06117
20
133.54254
30
0
70
32
0
VERTEX
8
0
62
255
10
21.181489
20
133.47307
30
0
70
32
0
VERTEX
8
0
62
255
10
21.301807
20
133.40361
30
0
70
32
0
VERTEX
8
0
62
255
10
21.422125
20
133.33414
30
0
70
32
0
VERTEX
8
0
62
255
10
21.542443
20
133.26467
30
0
70
32
0
VERTEX
8
0
62
255
10
21.662762
20
133.19521
30
0
70
32
0
VERTEX
8
0
62
255
10
21.78308
20
133.12574
30
0
70
32
0
VERTEX
8
0
62
255
10
21.903398
20
133.05628
30
0
70
32
0
VERTEX
8
0
62
255
10
22.023717
20
132.98681
30
0
70
32
0
VERTEX
8
0
62
255
10
22.144035
20
132.91734
30
0
70
32
0
VERTEX
8
0
62
255
10
22.264353
20
132.84788
30
0
70
32
0
VERTEX
8
0
62
255
10
22.384671
20
132.77841
30
0
70
32
0
VERTEX
8
0
62
255
10
22.50499
20
132.70895
30
0
70
32
0
VERTEX
8
0
62
255
10
22.625308
20
132.63948
30
0
70
32
0
VERTEX
8
0
62
255
10
22.745626
20
132.57002
30
0
70
32
0
VERTEX
8
0
62
255
10
22.865945
20
132.50055
30
0
70
32
0
VERTEX
8
0
62
255
10
22.986263
20
132.43108
30
0
70
32
0
VERTEX
8
0
62
255
10
23.106581
20
132.36162
30
0
70
32
0
VERTEX
8
0
62
255
10
23.226899
20
132.29215
30
0
70
32
0
VERTEX
8
0
62
255
10
23.347218
20
132.22269
30
0
70
32
0
VERTEX
8
0
62
255
10
23.467536
20
132.15322
30
0
70
32
0
VERTEX
8
0
62
255
10
23.587854
20
132.08375
30
0
70
32
0
VERTEX
8
0
62
255
10
23.708173
20
132.01429
30
0
70
32
0
VERTEX
8
0
62
255
10
23.828491
20
131.94482
30
0
70
32
0
VERTEX
8
0
62
255
10
23.948809
20
131.87536
30
0
70
32
0
VERTEX
8
0
62
255
10
24.069127
20
131.80589
30
0
70
32
0
VERTEX
8
0
62
255
10
24.189446
20
131.73643
30
0
70
32
0
VERTEX
8
0
62
255
10
24.309764
20
131.66696
30
0
70
32
0
VERTEX
8
0
62
255
10
24.430082
20
131.59749
30
0
70
32
0
VERTEX
8
0
62
255
10
24.550401
20
131.52803
30
0
70
32
0
VERTEX
8
0
62
255
10
24.670719
20
131.45856
30
0
70
32
0
VERTEX
8
0
62
255
10
24.791037
20
131.3891
30
0
70
32
0
VERTEX
8
0
62
255
10
24.911355
20
131.31963
30
0
70
32
0
VERTEX
8
0
62
255
10
25.031674
20
131.25017
30
0
70
32
0
VERTEX
8
0
62
255
10
25.151992
20
131.1807
30
0
70
32
0
VERTEX
8
0
62
255
10
25.27231
20
131.11123
30
0
70
32
0
VERTEX
8
0
62
255
10
25.392629
20
131.04177
30
0
70
32
0
VERTEX
8
0
62
255
10
25.512947
20
130.9723
30
0
70
32
0
VERTEX
8
0
62
255
10
25.633265
20
130.90284
30
0
70
32
0
VERTEX
8
0
62
255
10
25.753583
20
130.83337
30
0
70
32
0
VERTEX
8
0
62
255
10
25.873902
20
130.7639
30
0
70
32
0
VERTEX
8
0
62
255
10
25.99422
20
130.69444
30
0
70
32
0
VERTEX
8
0
62
255
10
26.114538
20
130.62497
30
0
70
32
0
VERTEX
8
0
62
255
10
26.234857
20
130.55551
30
0
70
32
0
VERTEX
8
0
62
255
10
26.355175
20
130.48604
30
0
70
32
0
VERTEX
8
0
62
255
10
26.475493
20
130.41658
30
0
70
32
0
VERTEX
8
0
62
255
10
26.595812
20
130.34711
30
0
70
32
0
VERTEX
8
0
62
255
10
26.71613
20
130.27764
30
0
70
32
0
VERTEX
8
0
62
255
10
26.836448
20
130.20818
30
0
70
32
0
VERTEX
8
0
62
255
10
26.956766
20
130.13871
30
0
70
32
0
VERTEX
8
0
62
255
10
27.077085
20
130.06925
30
0
70
32
0
VERTEX
8
0
62
255
10
27.197403
20
129.99978
30
0
70
32
0
VERTEX
8
0
62
255
10
27.317721
20
129.93032
30
0
70
32
0
VERTEX
8
0
62
255
10
27.43804
20
129.86085
30
0
70
32
0
VERTEX
8
0
62
255
10
27.558358
20
129.79138
30
0
70
32
0
VERTEX
8
0
62
255
10
27.678676
20
129.72192
30
0
70
32
0
VERTEX
8
0
62
255
10
27.798994
20
129.65245
30
0
70
32
0
VERTEX
8
0
62
255
10
27.919313
20
129.58299
30
0
70
32
0
VERTEX
8
0
62
255
10
28.039631
20
129.51352
30
0
70
32
0
VERTEX
8
0
62
255
10
28.159949
20
129.44405
30
0
70
32
0
VERTEX
8
0
62
255
10
28.280268
20
129.37459
30
0
70
32
0
VERTEX
8
0
62
255
10
28.400586
20
129.30512
30
0
70
32
0
VERTEX
8
0
62
255
10
28.520904
20
129.23566
30
0
70
32
0
VERTEX
8
0
62
255
10
28.641222
20
129.16619
30
0
70
32
0
VERTEX
8
0
62
255
10
28.761541
20
129.09673
30
0
70
32
0
VERTEX
8
0
62
255
10
28.881859
20
129.02726
30
0
70
32
0
VERTEX
8
0
62
255
10
29.002177
20
128.95779
30
0
70
32
0
VERTEX
8
0
62
255
10
29.122496
20
128.88833
30
0
70
32
0
SEQEND
8
0
0
POLYLINE
8
0
62
255
66
1
10
0
20
0
30
0
70
8
0
VERTEX
8
0
62
255
10
29.122496
20
128.88833
30
0
70
32
0
VERTEX
8
0
62
255
10
29.063662
20
128.78643
30
0
70
32
0
VERTEX
8
0
62
255
10
29.004829
20
128.68452
30
0
70
32
0
VERTEX
8
0
62
255
10
28.945996
20
128.58262
30
0
70
32
0
VERTEX
8
0
62
255
10
28.887162
20
128.48072
30
0
70
32
0
VERTEX
8
0
62
255
10
28.828329
20
128.37882
30
0
70
32
0
VERTEX
8
0
62
255
10
28.769496
20
128.27691
30
0
70
32
0
VERTEX
8
0
62
255
10
28.710662
20
128.17501
30
0
70
32
0
VERTEX
8
0
62
255
10
28.651829
20
128.07311
30
0
70
32
0
VERTEX
8
0
62
255
10
28.592996
20
127.97121
30
0
70
32
0
VERTEX
8
0
62
255
10
28.534162
20
127.86931
30
0
70
32
0
VERTEX
8
0
62
255
10
28.475329
20
127.7674
30
0
70
32
0
VERTEX
8
0
62
255
10
28.416496
20
127.6655
30
0
70
32
0
VERTEX
8
0
62
255
10
28.357662
20
127.5636
30
0
70
32
0
VERTEX
8
0
62
255
10
28.298829
20
127.4617
30
0
70
32
0
VERTEX
8
0
62
255
10
28.239996
20
127.35979
30
0
70
32
0
VERTEX
8
0
62
255
10
28.181162
20
127.25789
30
0
70
32
0
VERTEX
8
0
62
255
10
28.122329
20
127.15599
30
0
70
32
0
VERTEX
8
0
62
255
10
28.063496
20
127.05409
30
0
70
32
0
VERTEX
8
0
62
255
10
28.004662
20
126.95218
30
0
70
32
0
VERTEX
8
0
62
255
10
27.945829
20
126.85028
30
0
70
32
0
VERTEX
8
0
62
255
10
27.886996
20
126.74838
30
0
70
32
0
VERTEX
8
0
62
255
10
27.828162
20
126.64648
30
0
70
32
0
VERTEX
8
0
62
255
10
27.769329
20
126.54458
30
0
70
32
0
VERTEX
8
0
62
255
10
27.710496
20
126.44267
30
0
70
32
0
VERTEX
8
0
62
255
10
27.651662
20
126.34077
30
0
70
32
0
VERTEX
8
0
62
255
10
27.592829
20
126.23887
30
0
70
32
0
VERTEX
8
0
62
255
10
27.533996
20
126.13697
30
0
70
32
0
VERTEX
8
0
62
255
10
27.475162
20
126.03506
30
0
70
32
0
VERTEX
8
0
62
255
10
27.416329
20
125.93316
30
0
70
32
0
VERTEX
8
0
62
255
10
27.357496
20
125.83126
30
0
70
32
0
VERTEX
8
0
62
255
10
27.298662
20
125.72936
30
0
70
32
0
VERTEX
8
0
62
255
10
27.239829
20
125.62745
30
0
70
32
0
VERTEX
8
0
62
255
10
27.180996
20
125.52555
30
0
70
32
0
VERTEX
8
0
62
255
10
27.122162
20
125.42365
30
0
70
32
0
VERTEX
8
0
62
255
10
27.063329
20
125.32175
30
0
70
32
0
VERTEX
8
0
62
255
10
27.004496
20
125.21985
30
0
70
32
0
VERTEX
8
0
62
255
10
26.945663
20
125.11794
30
0
70
32
0
VERTEX
8
0
62
255
10
26.886829
20
125.01604
30
0
70
32
0
VERTEX
8
0
62
255
10
26.827996
20
124.91414
30
0
70
32
0
VERTEX
8
0
62
255
10
26.769163
20
124.81224
30
0
70
32
0
VERTEX
8
0
62
255
10
26.710329
20
124.71033
30
0
70
32
0
VERTEX
8
0
62
255
10
26.651496
20
124.60843
30
0
70
32
0
VERTEX
8
0
62
255
10
26.592663
20
124.50653
30
0
70
32
0
VERTEX
8
0
62
255
10
26.533829
20
124.40463
30
0
70
32
0
VERTEX
8
0
62
255
10
26.474996
20
124.30272
30
0
70
32
0
VERTEX
8
0
62
255
10
26.416163
20
124.20082
30
0
70
32
0
VERTEX
8
0
62
255
10
26.357329
20
124.09892
30
0
70
32
0
VERTEX
8
0
62
255
10
26.298496
20
123.99702
30
0
70
32
0
VERTEX
8
0
62
255
10
26.239663
20
123.89512
30
0
70
32
0
VERTEX
8
0
62
255
10
26.180829
20
123.79321
30
0
70
32
0
VERTEX
8
0
62
255
10
26.121996
20
123.69131
30
0
70
32
0
VERTEX
8
0
62
255
10
26.063163
20
123.58941
30
0
70
32
0
VERTEX
8
0
62
255
10
26.004329
20
123.48751
30
0
70
32
0
VERTEX
8
0
62
255
10
25.945496
20
123.3856
30
0
70
32
0
VERTEX
8
0
62
255
10
25.886663
20
123.2837
30
0
70
32
0
VERTEX
8
0
62
255
10
25.827829
20
123.1818
30
0
70
32
0
VERTEX
8
0
62
255
10
25.768996
20
123.0799
30
0
70
32
0
VERTEX
8
0
62
255
10
25.710163
20
122.97799
30
0
70
32
0
VERTEX
8
0
62
255
10
25.651329
20
122.87609
30
0
70
32
0
VERTEX
8
0
62
255
10
25.592496
20
122.77419
30
0
70
32
0
VERTEX
8
0
62
255
10
25.533663
20
122.67229
30
0
70
32
0
VERTEX
8
0
62
255
10
25.474829
20
122.57039
30
0
70
32
0
VERTEX
8
0
62
255
10
25.415996
20
122.46848
30
0
70
32
0
VERTEX
8
0
62
255
10
25.357163
20
122.36658
30
0
70
32
0
VERTEX
8
0
62
255
10
25.298329
20
122.26468
30
0
70
32
0
VERTEX
8
0
62
255
10
25.239496
20
122.16278
30
0
70
32
0
VERTEX
8
0
62
255
10
25.180663
20
122.06087
30
0
70
32
0
VERTEX
8
0
62
255
10
25.121829
20
121.95897
30
0
70
32
0
VERTEX
8
0
62
255
10
25.062996
20
121.85707
30
0
70
32
0
VERTEX
8
0
62
255
10
25.004163
20
121.75517
30
0
70
32
0
VERTEX
8
0
62
255
10
24.945329
20
121.65326
30
0
70
32
0
VERTEX
8
0
62
255
10
24.886496
20
121.55136
30
0
70
32
0
VERTEX
8
0
62
255
10
24.827663
20
121.44946
30
0
70
32
0
VERTEX
8
0
62
255
10
24.76883
20
121.34756
30
0
70
32
0
VERTEX
8
0
62
255
10
24.709996
20
121.24566
30
0
70
32
0
VERTEX
8
0
62
255
10
24.651163
20
121.14375
30
0
70
32
0
VERTEX
8
0
62
255
10
24.59233
20
121.04185
30
0
70
32
0
VERTEX
8
0
62
255
10
24.533496
20
120.93995
30
0
70
32
0
VERTEX
8
0
62
255
10
24.474663
20
120.83805
30
0
70
32
0
VERTEX
8
0
62
255
10
24.41583
20
120.73614
30
0
70
32
0
VERTEX
8
0
62
255
10
24.356996
20
120.63424
30
0
70
32
0
VERTEX
8
0
62
255
10
24.298163
20
120.53234
30
0
70
32
0
VERTEX
8
0
62
255
10
24.23933
20
120.43044
30
0
70
32
0
VERTEX
8
0
62
255
10
24.180496
20
120.32853
30
0
70
32
0
VERTEX
8
0
62
255
10
24.121663
20
120.22663
30
0
70
32
0
VERTEX
8
0
62
255
10
24.06283
20
120.12473
30
0
70
32
0
VERTEX
8
0
62
255
10
24.003996
20
120.02283
30
0
70
32
0
VERTEX
8
0
62
255
10
23.945163
20
119.92093
30
0
70
32
0
VERTEX
8
0
62
255
10
23.88633
20
119.81902
30
0
70
32
0
VERTEX
8
0
62
255
10
23.827496
20
119.71712
30
0
70
32
0
VERTEX
8
0
62
255
10
23.768663
20
119.61522
30
0
70
32
0
VERTEX
8
0
62
255
10
23.70983
20
119.51332
30
0
70
32
0
VERTEX
8
0
62
255
10
23.650996
20
119.41141
30
0
70
32
0
VERTEX
8
0
62
255
10
23.592163
20
119.30951
30
0
70
32
0
VERTEX
8
0
62
255
10
23.53333
20
119.20761
30
0
70
32
0
VERTEX
8
0
62
255
10
23.474496
20
119.10571
30
0
70
32
0
VERTEX
8
0
62
255
10
23.415663
20
119.0038
30
0
70
32
0
VERTEX
8
0
62
255
10
23.35683
20
118.9019
30
0
70
32
0
VERTEX
8
0
62
255
10
23.297996
20
118.8
30
0
70
32
0
SEQEND
8
0
0
POLYLINE
8
0
62
255
66
1
10
0
20
0
30
0
70
8
0
VERTEX
8
0
62
255
10
23.297996
20
118.8
30
0
70
32
0
VERTEX
8
0
62
255
10
23.297996
20
117.6
30
0
70
32
0
VERTEX
8
0
62
255
10
23.297996
20
116.4
30
0
70
32
0
VERTEX
8
0
62
255
10
23.297996
20
115.2
30
0
70
32
0
VERTEX
8
0
62
255
10
23.297996
20
114
30
0
70
32
0
VERTEX
8
0
62
255
10
23.297996
20
112.8
30
0
70
32
0
VERTEX
8
0
62
255
10
23.297996
20
111.6
30
0
70
32
0
VERTEX
8
0
62
255
10
23.297996
20
110.4
30
0
70
32
0
VERTEX
8
0
62
255
10
23.297996
20
109.2
30
0
70
32
0
VERTEX
8
0
62
255
10
23.297996
20
108
30
0
70
32
0
VERTEX
8
0
62
255
10
23.297996
20
106.8
30
0
70
32
0
VERTEX
8
0
62
255
10
23.297996
20
105.6
30
0
70
32
0
VERTEX
8
0
62
255
10
23.297996
20
104.4
30
0
70
32
0
VERTEX
8
0
62
255
10
23.297996
20
103.2
30
0
70
32
0
VERTEX
8
0
62
255
10
23.297996
20
102
30
0
70
32
0
VERTEX
8
0
62
255
10
23.297996
20
100.8
30
0
70
32
0
VERTEX
8
0
62
255
10
23.297996
20
99.6
30
0
70
32
0
VERTEX
8
0
62
255
10
23.297996
20
98.4
30
0
70
32
0
VERTEX
8
0
62
255
10
23.297996
20
97.2
30
0
70
32
0
VERTEX
8
0
62
255
10
23.297996
20
96
30
0
70
32
0
VERTEX
8
0
62
255
10
23.297996
20
94.8
30
0
70
32
0
VERTEX
8
0
62
255
10
23.297996
20
93.6
30
0
70
32
0
VERTEX
8
0
62
255
10
23.297996
20
92.4
30
0
70
32
0
VERTEX
8
0
62
255
10
23.297996
20
91.2
30
0
70
32
0
VERTEX
8
0
62
255
10
23.297996
20
90
30
0
70
32
0
VERTEX
8
0
62
255
10
23.297996
20
88.8
30
0
70
32
0
VERTEX
8
0
62
255
10
23.297996
20
87.6
30
0
70
32
0
VERTEX
8
0
62
255
10
23.297996
20
86.4
30
0
70
32
0
VERTEX
8
0
62
255
10
23.297996
20
85.2
30
0
70
32
0
VERTEX
8
0
62
255
10
23.297996
20
84
30
0
70
32
0
VERTEX
8
0
62
255
10
23.297996
20
82.8
30
0
70
32
0
VERTEX
8
0
62
255
10
23.297996
20
81.6
30
0
70
32
0
VERTEX
8
0
62
255
10
23.297996
20
80.4
30
0
70
32
0
VERTEX
8
0
62
255
10
23.297996
20
79.2
30
0
70
32
0
VERTEX
8
0
62
255
10
23.297996
20
78
30
0
70
32
0
VERTEX
8
0
62
255
10
23.297996
20
76.8
30
0
70
32
0
VERTEX
8
0
62
255
10
23.297996
20
75.6
30
0
70
32
0
VERTEX
8
0
62
255
10
23.297996
20
74.4
30
0
70
32
0
VERTEX
8
0
62
255
10
23.297996
20
73.2
30
0
70
32
0
VERTEX
8
0
62
255
10
23.297996
20
72
30
0
70
32
0
VERTEX
8
0
62
255
10
23.297996
20
70.8
30
0
70
32
0
VERTEX
8
0
62
255
10
23.297996
20
69.6
30
0
70
32
0
VERTEX
8
0
62
255
10
23.297996
20
68.4
30
0
70
32
0
VERTEX
8
0
62
255
10
23.297996
20
67.2
30
0
70
32
0
VERTEX
8
0
62
255
10
23.297996
20
66
30
0
70
32
0
VERTEX
8
0
62
255
10
23.297996
20
64.8
30
0
70
32
0
VERTEX
8
0
62
255
10
23.297996
20
63.6
30
0
70
32
0
VERTEX
8
0
62
255
10
23.297996
20
62.4
30
0
70
32
0
VERTEX
8
0
62
255
10
23.297996
20
61.2
30
0
70
32
0
VERTEX
8
0
62
255
10
23.297996
20
60
30
0
70
32
0
VERTEX
8
0
62
255
10
23.297996
20
58.8
30
0
70
32
0
VERTEX
8
0
62
255
10
23.297996
20
57.6
30
0
70
32
0
VERTEX
8
0
62
255
10
23.297996
20
56.4
30
0
70
32
0
VERTEX
8
0
62
255
10
23.297996
20
55.2
30
0
70
32
0
VERTEX
8
0
62
255
10
23.297996
20
54
30
0
70
32
0
VERTEX
8
0
62
255
10
23.297996
20
52.8
30
0
70
32
0
VERTEX
8
0
62
255
10
23.297996
20
51.6
30
0
70
32
0
VERTEX
8
0
62
255
10
23.297996
20
50.4
30
0
70
32
0
VERTEX
8
0
62
255
10
23.297996
20
49.2
30
0
70
32
0
VERTEX
8
0
62
255
10
23.297996
20
48
30
0
70
32
0
VERTEX
8
0
62
255
10
23.297996
20
46.8
30
0
70
32
0
VERTEX
8
0
62
255
10
23.297996
20
45.6
30
0
70
32
0
VERTEX
8
0
62
255
10
23.297996
20
44.4
30
0
70
32
0
VERTEX
8
0
62
255
10
23.297996
20
43.2
30
0
70
32
0
VERTEX
8
0
62
255
10
23.297996
20
42
30
0
70
32
0
VERTEX
8
0
62
255
10
23.297996
20
40.8
30
0
70
32
0
VERTEX
8
0
62
255
10
23.297996
20
39.6
30
0
70
32
0
VERTEX
8
0
62
255
10
23.297996
20
38.4
30
0
70
32
0
VERTEX
8
0
62
255
10
23.297996
20
37.2
30
0
70
32
0
VERTEX
8
0
62
255
10
23.297996
20
36
30
0
70
32
0
VERTEX
8
0
62
255
10
23.297996
20
34.8
30
0
70
32
0
VERTEX
8
0
62
255
10
23.297996
20
33.6
30
0
70
32
0
VERTEX
8
0
62
255
10
23.297996
20
32.4
30
0
70
32
0
VERTEX
8
0
62
255
10
23.297996
20
31.2
30
0
70
32
0
VERTEX
8
0
62
255
10
23.297996
20
30
30
0
70
32
0
VERTEX
8
0
62
255
10
23.297996
20
28.8
30
0
70
32
0
VERTEX
8
0
62
255
10
23.297996
20
27.6
30
0
70
32
0
VERTEX
8
0
62
255
10
23.297996
20
26.4
30
0
70
32
0
VERTEX
8
0
62
255
10
23.297996
20
25.2
30
0
70
32
0
VERTEX
8
0
62
255
10
23.297996
20
24
30
0
70
32
0
VERTEX
8
0
62
255
10
23.297996
20
22.8
30
0
70
32
0
VERTEX
8
0
62
255
10
23.297996
20
21.6
30
0
70
32
0
VERTEX
8
0
62
255
10
23.297996
20
20.4
30
0
70
32
0
VERTEX
8
0
62
255
10
23.297996
20
19.2
30
0
70
32
0
VERTEX
8
0
62
255
10
23.297996
20
18
30
0
70
32
0
VERTEX
8
0
62
255
10
23.297996
20
16.8
30
0
70
32
0
VERTEX
8
0
62
255
10
23.297996
20
15.6
30
0
70
32
0
VERTEX
8
0
62
255
10
23.297996
20
14.4
30
0
70
32
0
VERTEX
8
0
62
255
10
23.297996
20
13.2
30
0
70
32
0
VERTEX
8
0
62
255
10
23.297996
20
12
30
0
70
32
0
VERTEX
8
0
62
255
10
23.297996
20
10.8
30
0
70
32
0
VERTEX
8
0
62
255
10
23.297996
20
9.6
30
0
70
32
0
VERTEX
8
0
62
255
10
23.297996
20
8.4
30
0
70
32
0
VERTEX
8
0
62
255
10
23.297996
20
7.2
30
0
70
32
0
VERTEX
8
0
62
255
10
23.297996
20
6
30
0
70
32
0
VERTEX
8
0
62
255
10
23.297996
20
4.8
30
0
70
32
0
VERTEX
8
0
62
255
10
23.297996
20
3.6
30
0
70
32
0
VERTEX
8
0
62
255
10
23.297996
20
2.4
30
0
70
32
0
VERTEX
8
0
62
255
10
23.297996
20
1.2
30
0
70
32
0
VERTEX
8
0
62
255
10
23.297996
20
0
30
0
70
32
0
SEQEND
8
0
0
POLYLINE
8
0
62
255
66
1
10
0
20
0
30
0
70
8
0
VERTEX
8
0
62
255
10
23.297996
20
0
30
0
70
32
0
VERTEX
8
0
62
255
10
23.35683
20
-0.10190231
30
0
70
32
0
VERTEX
8
0
62
255
10
23.415663
20
-0.20380461
30
0
70
32
0
VERTEX
8
0
62
255
10
23.474496
20
-0.30570692
30
0
70
32
0
VERTEX
8
0
62
255
10
23.53333
20
-0.40760923
30
0
70
32
0
VERTEX
8
0
62
255
10
23.592163
20
-0.50951153
30
0
70
32
0
VERTEX
8
0
62
255
10
23.650996
20
-0.61141384
30
0
70
32
0
VERTEX
8
0
62
255
10
23.70983
20
-0.71331615
30
0
70
32
0
VERTEX
8
0
62
255
10
23.768663
20
-0.81521845
30
0
70
32
0
VERTEX
8
0
62
255
10
23.827496
20
-0.91712076
30
0
70
32
0
VERTEX
8
0
62
255
10
23.88633
20
-1.0190231
30
0
70
32
0
VERTEX
8
0
62
255
10
23.945163
20
-1.1209254
30
0
70
32
0
VERTEX
8
0
62
255
10
24.003996
20
-1.2228277
30
0
70
32
0
VERTEX
8
0
62
255
10
24.06283
20
-1.32473
30
0
70
32
0
VERTEX
8
0
62
255
10
24.121663
20
-1.4266323
30
0
70
32
0
VERTEX
8
0
62
255
10
24.180496
20
-1.5285346
30
0
70
32
0
VERTEX
8
0
62
255
10
24.23933
20
-1.6304369
30
0
70
32
0
VERTEX
8
0
62
255
10
24.298163
20
-1.7323392
30
0
70
32
0
VERTEX
8
0
62
255
10
24.356996
20
-1.8342415
30
0
70
32
0
VERTEX
8
0
62
255
10
24.41583
20
-1.9361438
30
0
70
32
0
VERTEX
8
0
62
255
10
24.474663
20
-2.0380461
30
0
70
32
0
VERTEX
8
0
62
255
10
24.533496
20
-2.1399484
30
0
70
32
0
VERTEX
8
0
62
255
10
24.59233
20
-2.2418508
30
0
70
32
0
VERTEX
8
0
62
255
10
24.651163
20
-2.3437531
30
0
70
32
0
VERTEX
8
0
62
255
10
24.709996
20
-2.4456554
30
0
70
32
0
VERTEX
8
0
62
255
10
24.76883
20
-2.5475577
30
0
70
32
0
VERTEX
8
0
62
255
10
24.827663
20
-2.64946
30
0
70
32
0
VERTEX
8
0
62
255
10
24.886496
20
-2.7513623
30
0
70
32
0
VERTEX
8
0
62
255
10
24.945329
20
-2.8532646
30
0
70
32
0
VERTEX
8
0
62
255
10
25.004163
20
-2.9551669
30
0
70
32
0
VERTEX
8
0
62
255
10
25.062996
20
-3.0570692
30
0
70
32
0
VERTEX
8
0
62
255
10
25.121829
20
-3.1589715
30
0
70
32
0
VERTEX
8
0
62
255
10
25.180663
20
-3.2608738
30
0
70
32
0
VERTEX
8
0
62
255
10
25.239496
20
-3.3627761
30
0
70
32
0
VERTEX
8
0
62
255
10
25.298329
20
-3.4646784
30
0
70
32
0
VERTEX
8
0
62
255
10
25.357163
20
-3.5665807
30
0
70
32
0
VERTEX
8
0
62
255
10
25.415996
20
-3.668483
30
0
70
32
0
VERTEX
8
0
62
255
10
25.474829
20
-3.7703854
30
0
70
32
0
VERTEX
8
0
62
255
10
25.533663
20
-3.8722877
30
0
70
32
0
VERTEX
8
0
62
255
10
25.592496
20
-3.97419
30
0
70
32
0
VERTEX
8
0
62
255
10
25.651329
20
-4.0760923
30
0
70
32
0
VERTEX
8
0
62
255
10
25.710163
20
-4.1779946
30
0
70
32
0
VERTEX
8
0
62
255
10
25.768996
20
-4.2798969
30
0
70
32
0
VERTEX
8
0
62
255
10
25.827829
20
-4.3817992
30
0
70
32
0
VERTEX
8
0
62
255
10
25.886663
20
-4.4837015
30
0
70
32
0
VERTEX
8
0
62
255
10
25.945496
20
-4.5856038
30
0
70
32
0
VERTEX
8
0
62
255
10
26.004329
20
-4.6875061
30
0
70
32
0
VERTEX
8
0
62
255
10
26.063163
20
-4.7894084
30
0
70
32
0
VERTEX
8
0
62
255
10
26.121996
20
-4.8913107
30
0
70
32
0
VERTEX
8
0
62
255
10
26.180829
20
-4.993213
30
0
70
32
0
VERTEX
8
0
62
255
10
26.239663
20
-5.0951153
30
0
70
32
0
VERTEX
8
0
62
255
10
26.298496
20
-5.1970176
30
0
70
32
0
VERTEX
8
0
62
255
10
26.357329
20
-5.29892
30
0
70
32
0
VERTEX
8
0
62
255
10
26.416163
20
-5.4008223
30
0
70
32
0
VERTEX
8
0
62
255
10
26.474996
20
-5.5027246
30
0
70
32
0
VERTEX
8
0
62
255
10
26.533829
20
-5.6046269
30
0
70
32
0
VERTEX
8
0
62
255
10
26.592663
20
-5.7065292
30
0
70
32
0
VERTEX
8
0
62
255
10
26.651496
20
-5.8084315
30
0
70
32
0
VERTEX
8
0
62
255
10
26.710329
20
-5.9103338
30
0
70
32
0
VERTEX
8
0
62
255
10
26.769163
20
-6.0122361
30
0
70
32
0
VERTEX
8
0
62
255
10
26.827996
20
-6.1141384
30
0
70
32
0
VERTEX
8
0
62
255
10
26.886829
20
-6.2160407
30
0
70
32
0
VERTEX
8
0
62
255
10
26.945663
20
-6.317943
30
0
70
32
0
VERTEX
8
0
62
255
10
27.004496
20
-6.4198453
30
0
70
32
0
VERTEX
8
0
62
255
10
27.063329
20
-6.5217476
30
0
70
32
0
VERTEX
8
0
62
255
10
27.122162
20
-6.6236499
30
0
70
32
0
VERTEX
8
0
62
255
10
27.180996
20
-6.7255523
30
0
70
32
0
VERTEX
8
0
62
255
10
27.239829
20
-6.8274546
30
0
70
32
0
VERTEX
8
0
62
255
10
27.298662
20
-6.9293569
30
0
70
32
0
VERTEX
8
0
62
255
10
27.357496
20
-7.0312592
30
0
70
32
0
VERTEX
8
0
62
255
10
27.416329
20
-7.1331615
30
0
70
32
0
VERTEX
8
0
62
255
10
27.475162
20
-7.2350638
30
0
70
32
0
VERTEX
8
0
62
255
10
27.533996
20
-7.3369661
30
0
70
32
0
VERTEX
8
0
62
255
10
27.592829
20
-7.4388684
30
0
70
32
0
VERTEX
8
0
62
255
10
27.651662
20
-7.5407707
30
0
70
32
0
VERTEX
8
0
62
255
10
27.710496
20
-7.642673
30
0
70
32
0
VERTEX
8
0
62
255
10
27.769329
20
-7.7445753
30
0
70
32
0
VERTEX
8
0
62
255
10
27.828162
20
-7.8464776
30
0
70
32
0
VERTEX
8
0
62
255
10
27.886996
20
-7.9483799
30
0
70
32
0
VERTEX
8
0
62
255
10
27.945829
20
-8.0502822
30
0
70
32
0
VERTEX
8
0
62
255
10
28.004662
20
-8.1521845
30
0
70
32
0
VERTEX
8
0
62
255
10
28.063496
20
-8.2540869
30
0
70
32
0
VERTEX
8
0
62
255
10
28.122329
20
-8.3559892
30
0
70
32
0
VERTEX
8
0
62
255
10
28.181162
20
-8.4578915
30
0
70
32
0
VERTEX
8
0
62
255
10
28.239996
20
-8.5597938
30
0
70
32
0
VERTEX
8
0
62
255
10
28.298829
20
-8.6616961
30
0
70
32
0
VERTEX
8
0
62
255
10
28.357662
20
-8.7635984
30
0
70
32
0
VERTEX
8
0
62
255
10
28.416496
20
-8.8655007
30
0
70
32
0
VERTEX
8
0
62
255
10
28.475329
20
-8.967403
30
0
70
32
0
VERTEX
8
0
62
255
10
28.534162
20
-9.0693053
30
0
70
32
0
VERTEX
8
0
62
255
10
28.592996
20
-9.1712076
30
0
70
32
0
VERTEX
8
0
62
255
10
28.651829
20
-9.2731099
30
0
70
32
0
VERTEX
8
0
62
255
10
28.710662
20
-9.3750122
30
0
70
32
0
VERTEX
8
0
62
255
10
28.769496
20
-9.4769145
30
0
70
32
0
VERTEX
8
0
62
255
10
28.828329
20
-9.5788168
30
0
70
32
0
VERTEX
8
0
62
255
10
28.887162
20
-9.6807191
30
0
70
32
0
VERTEX
8
0
62
255
10
28.945996
20
-9.7826215
30
0
70
32
0
VERTEX
8
0
62
255
10
29.004829
20
-9.8845238
30
0
70
32
0
VERTEX
8
0
62
255
10
29.063662
20
-9.9864261
30
0
70
32
0
VERTEX
8
0
62
255
10
29.122496
20
-10.088328
30
0
70
32
0
SEQEND
8
0
0
POLYLINE
8
0
62
255
66
1
10
0
20
0
30
0
70
8
0
VERTEX
8
0
62
255
10
29.122496
20
-10.088328
30
0
70
32
0
VERTEX
8
0
62
255
10
29.002177
20
-10.157794
30
0
70
32
0
VERTEX
8
0
62
255
10
28.881859
20
-10.22726
30
0
70
32
0
VERTEX
8
0
62
255
10
28.761541
20
-10.296726
30
0
70
32
0
VERTEX
8
0
62
255
10
28.641222
20
-10.366192
30
0
70
32
0
VERTEX
8
0
62
255
10
28.520904
20
-10.435657
30
0
70
32
0
VERTEX
8
0
62
255
10
28.400586
20
-10.505123
30
0
70
32
0
VERTEX
8
0
62
255
10
28.280268
20
-10.574589
30
0
70
32
0
VERTEX
8
0
62
255
10
28.159949
20
-10.644055
30
0
70
32
0
VERTEX
8
0
62
255
10
28.039631
20
-10.713521
30
0
70
32
0
VERTEX
8
0
62
255
10
27.919313
20
-10.782986
30
0
70
32
0
VERTEX
8
0
62
255
10
27.798994
20
-10.852452
30
0
70
32
0
VERTEX
8
0
62
255
10
27.678676
20
-10.921918
30
0
70
32
0
VERTEX
8
0
62
255
10
27.558358
20
-10.991384
30
0
70
32
0
VERTEX
8
0
62
255
10
27.43804
20
-11.06085
30
0
70
32
0
VERTEX
8
0
62
255
10
27.317721
20
-11.130315
30
0
70
32
0
VERTEX
8
0
62
255
10
27.197403
20
-11.199781
30
0
70
32
0
VERTEX
8
0
62
255
10
27.077085
20
-11.269247
30
0
70
32
0
VERTEX
8
0
62
255
10
26.956766
20
-11.338713
30
0
70
32
0
VERTEX
8
0
62
255
10
26.836448
20
-11.408178
30
0
70
32
0
VERTEX
8
0
62
255
10
26.71613
20
-11.477644
30
0
70
32
0
VERTEX
8
0
62
255
10
26.595812
20
-11.54711
30
0
70
32
0
VERTEX
8
0
62
255
10
26.475493
20
-11.616576
30
0
70
32
0
VERTEX
8
0
62
255
10
26.355175
20
-11.686042
30
0
70
32
0
VERTEX
8
0
62
255
10
26.234857
20
-11.755507
30
0
70
32
0
VERTEX
8
0
62
255
10
26.114538
20
-11.824973
30
0
70
32
0
VERTEX
8
0
62
255
10
25.99422
20
-11.894439
30
0
70
32
0
VERTEX
8
0
62
255
10
25.873902
20
-11.963905
30
0
70
32
0
VERTEX
8
0
62
255
10
25.753583
20
-12.033371
30
0
70
32
0
VERTEX
8
0
62
255
10
25.633265
20
-12.102836
30
0
70
32
0
VERTEX
8
0
62
255
10
25.512947
20
-12.172302
30
0
70
32
0
VERTEX
8
0
62
255
10
25.392629
20
-12.241768
30
0
70
32
0
VERTEX
8
0
62
255
10
25.27231
20
-12.311234
30
0
70
32
0
VERTEX
8
0
62
255
10
25.151992
20
-12.3807
30
0
70
32
0
VERTEX
8
0
62
255
10
25.031674
20
-12.450165
30
0
70
32
0
VERTEX
8
0
62
255
10
24.911355
20
-12.519631
30
0
70
32
0
VERTEX
8
0
62
255
10
24.791037
20
-12.589097
30
0
70
32
0
VERTEX
8
0
62
255
10
24.670719
20
-12.658563
30
0
70
32
0
VERTEX
8
0
62
255
10
24.550401
20
-12.728029
30
0
70
32
0
VERTEX
8
0
62
255
10
24.430082
20
-12.797494
30
0
70
32
0
VERTEX
8
0
62
255
10
24.309764
20
-12.86696
30
0
70
32
0
VERTEX
8
0
62
255
10
24.189446
20
-12.936426
30
0
70
32
0
VERTEX
8
0
62
255
10
24.069127
20
-13.005892
30
0
70
32
0
VERTEX
8
0
62
255
10
23.948809
20
-13.075358
30
0
70
32
0
VERTEX
8
0
62
255
10
23.828491
20
-13.144823
30
0
70
32
0
VERTEX
8
0
62
255
10
23.708173
20
-13.214289
30
0
70
32
0
VERTEX
8
0
62
255
10
23.587854
20
-13.283755
30
0
70
32
0
VERTEX
8
0
62
255
10
23.467536
20
-13.353221
30
0
70
32
0
VERTEX
8
0
62
255
10
23.347218
20
-13.422687
30
0
70
32
0
VERTEX
8
0
62
255
10
23.226899
20
-13.492152
30
0
70
32
0
VERTEX
8
0
62
255
10
23.106581
20
-13.561618
30
0
70
32
0
VERTEX
8
0
62
255
10
22.986263
20
-13.631084
30
0
70
32
0
VERTEX
8
0
62
255
10
22.865945
20
-13.70055
30
0
70
32
0
VERTEX
8
0
62
255
10
22.745626
20
-13.770016
30
0
70
32
0
VERTEX
8
0
62
255
10
22.625308
20
-13.839481
30
0
70
32
0
VERTEX
8
0
62
255
10
22.50499
20
-13.908947
30
0
70
32
0
VERTEX
8
0
62
255
10
22.384671
20
-13.978413
30
0
70
32
0
VERTEX
8
0
62
255
10
22.264353
20
-14.047879
30
0
70
32
0
VERTEX
8
0
62
255
10
22.144035
20
-14.117344
30
0
70
32
0
VERTEX
8
0
62
255
10
22.023717
20
-14.18681
30
0
70
32
0
VERTEX
8
0
62
255
10
21.903398
20
-14.256276
30
0
70
32
0
VERTEX
8
0
62
255
10
21.78308
20
-14.325742
30
0
70
32
0
VERTEX
8
0
62
255
10
21.662762
20
-14.395208
30
0
70
32
0
VERTEX
8
0
62
255
10
21.542443
20
-14.464673
30
0
70
32
0
VERTEX
8
0
62
255
10
21.422125
20
-14.534139
30
0
70
32
0
VERTEX
8
0
62
255
10
21.301807
20
-14.603605
30
0
70
32
0
VERTEX
8
0
62
255
10
21.181489
20
-14.673071
30
0
70
32
0
VERTEX
8
0
62
255
10
21.06117
20
-14.742537
30
0
70
32
0
VERTEX
8
0
62
255
10
20.940852
20
-14.812002
30
0
70
32
0
VERTEX
8
0
62
255
10
20.820534
20
-14.881468
30
0
70
32
0
VERTEX
8
0
62
255
10
20.700215
20
-14.950934
30
0
70
32
0
VERTEX
8
0
62
255
10
20.579897
20
-15.0204
30
0
70
32
0
VERTEX
8
0
62
255
10
20.459579
20
-15.089866
30
0
70
32
0
VERTEX
8
0
62
255
10
20.339261
20
-15.159331
30
0
70
32
0
VERTEX
8
0
62
255
10
20.218942
20
-15.228797
30
0
70
32
0
VERTEX
8
0
62
255
10
20.098624
20
-15.298263
30
0
70
32
0
VERTEX
8
0
62
255
10
19.978306
20
-15.367729
30
0
70
32
0
VERTEX
8
0
62
255
10
19.857987
20
-15.437195
30
0
70
32
0
VERTEX
8
0
62
255
10
19.737669
20
-15.50666
30
0
70
32
0
VERTEX
8
0
62
255
10
19.617351
20
-15.576126
30
0
70
32
0
VERTEX
8
0
62
255
10
19.497033
20
-15.645592
30
0
70
32
0
VERTEX
8
0
62
255
10
19.376714
20
-15.715058
30
0
70
32
0
VERTEX
8
0
62
255
10
19.256396
20
-15.784524
30
0
70
32
0
VERTEX
8
0
62
255
10
19.136078
20
-15.853989
30
0
70
32
0
VERTEX
8
0
62
255
10
19.015759
20
-15.923455
30
0
70
32
0
VERTEX
8
0
62
255
10
18.895441
20
-15.992921
30
0
70
32
0
VERTEX
8
0
62
255
10
18.775123
20
-16.062387
30
0
70
32
0
VERTEX
8
0
62
255
10
18.654805
20
-16.131853
30
0
70
32
0
VERTEX
8
0
62
255
10
18.534486
20
-16.201318
30
0
70
32
0
VERTEX
8
0
62
255
10
18.414168
20
-16.270784
30
0
70
32
0
VERTEX
8
0
62
255
10
18.29385
20
-16.34025
30
0
70
32
0
VERTEX
8
0
62
255
10
18.173531
20
-16.409716
30
0
70
32
0
VERTEX
8
0
62
255
10
18.053213
20
-16.479182
30
0
70
32
0
VERTEX
8
0
62
255
10
17.932895
20
-16.548647
30
0
70
32
0
VERTEX
8
0
62
255
10
17.812577
20
-16.618113
30
0
70
32
0
VERTEX
8
0
62
255
10
17.692258
20
-16.687579
30
0
70
32
0
VERTEX
8
0
62
255
10
17.57194
20
-16.757045
30
0
70
32
0
VERTEX
8
0
62
255
10
17.451622
20
-16.826511
30
0
70
32
0
VERTEX
8
0
62
255
10
17.331303
20
-16.895976
30
0
70
32
0
VERTEX
8
0
62
255
10
17.210985
20
-16.965442
30
0
70
32
0
SEQEND
8
0
0
POLYLINE
8
0
62
255
66
1
10
0
20
0
30
0
70
8
0
VERTEX
8
0
62
255
10
17.210985
20
-16.965442
30
0
70
32
0
VERTEX
8
0
62
255
10
17.141811
20
-16.848503
30
0
70
32
0
VERTEX
8
0
62
255
10
17.070178
20
-16.733053
30
0
70
32
0
VERTEX
8
0
62
255
10
16.996119
20
-16.619144
30
0
70
32
0
VERTEX
8
0
62
255
10
16.919667
20
-16.506828
30
0
70
32
0
VERTEX
8
0
62
255
10
16.840857
20
-16.396154
30
0
70
32
0
VERTEX
8
0
62
255
10
16.759722
20
-16.287171
30
0
70
32
0
VERTEX
8
0
62
255
10
16.676301
20
-16.17993
30
0
70
32
0
VERTEX
8
0
62
255
10
16.590629
20
-16.074477
30
0
70
32
0
VERTEX
8
0
62
255
10
16.502746
20
-15.97086
30
0
70
32
0
VERTEX
8
0
62
255
10
16.412691
20
-15.869125
30
0
70
32
0
VERTEX
8
0
62
255
10
16.320504
20
-15.769318
30
0
70
32
0
VERTEX
8
0
62
255
10
16.226226
20
-15.671484
30
0
70
32
0
VERTEX
8
0
62
255
10
16.1299
20
-15.575666
30
0
70
32
0
VERTEX
8
0
62
255
10
16.031568
20
-15.481907
30
0
70
32
0
VERTEX
8
0
62
255
10
15.931275
20
-15.390249
30
0
70
32
0
VERTEX
8
0
62
255
10
15.829065
20
-15.300733
30
0
70
32
0
VERTEX
8
0
62
255
10
15.724985
20
-15.213399
30
0
70
32
0
VERTEX
8
0
62
255
10
15.619081
20
-15.128286
30
0
70
32
0
VERTEX
8
0
62
255
10
15.511399
20
-15.045433
30
0
70
32
0
VERTEX
8
0
62
255
10
15.40199
20
-14.964876
30
0
70
32
0
VERTEX
8
0
62
255
10
15.2909
20
-14.886652
30
0
70
32
0
VERTEX
8
0
62
255
10
15.178181
20
-14.810795
30
0
70
32
0
VERTEX
8
0
62
255
10
15.063882
20
-14.73734
30
0
70
32
0
VERTEX
8
0
62
255
10
14.948055
20
-14.666319
30
0
70
32
0
VERTEX
8
0
62
255
10
14.830751
20
-14.597764
30
0
70
32
0
VERTEX
8
0
62
255
10
14.712024
20
-14.531706
30
0
70
32
0
VERTEX
8
0
62
255
10
14.591926
20
-14.468174
30
0
70
32
0
VERTEX
8
0
62
255
10
14.47051
20
-14.407197
30
0
70
32
0
VERTEX
8
0
62
255
10
14.347832
20
-14.348802
30
0
70
32
0
VERTEX
8
0
62
255
10
14.223946
20
-14.293015
30
0
70
32
0
VERTEX
8
0
62
255
10
14.098908
20
-14.239861
30
0
70
32
0
VERTEX
8
0
62
255
10
13.972773
20
-14.189365
30
0
70
32
0
VERTEX
8
0
62
255
10
13.845598
20
-14.141547
30
0
70
32
0
VERTEX
8
0
62
255
10
13.717441
20
-14.096431
30
0
70
32
0
VERTEX
8
0
62
255
10
13.588357
20
-14.054036
30
0
70
32
0
VERTEX
8
0
62
255
10
13.458406
20
-14.014381
30
0
70
32
0
VERTEX
8
0
62
255
10
13.327644
20
-13.977484
30
0
70
32
0
VERTEX
8
0
62
255
10
13.196132
20
-13.943361
30
0
70
32
0
VERTEX
8
0
62
255
10
13.063927
20
-13.912028
30
0
70
32
0
VERTEX
8
0
62
255
10
12.931089
20
-13.883498
30
0
70
32
0
VERTEX
8
0
62
255
10
12.797677
20
-13.857785
30
0
70
32
0
VERTEX
8
0
62
255
10
12.663751
20
-13.8349
30
0
70
32
0
VERTEX
8
0
62
255
10
12.529371
20
-13.814853
30
0
70
32
0
VERTEX
8
0
62
255
10
12.394597
20
-13.797654
30
0
70
32
0
VERTEX
8
0
62
255
10
12.259489
20
-13.783309
30
0
70
32
0
VERTEX
8
0
62
255
10
12.124108
20
-13.771825
30
0
70
32
0
VERTEX
8
0
62
255
10
11.988514
20
-13.763208
30
0
70
32
0
VERTEX
8
0
62
255
10
11.852769
20
-13.757461
30
0
70
32
0
VERTEX
8
0
62
255
10
11.716932
20
-13.754587
30
0
70
32
0
VERTEX
8
0
62
255
10
11.581065
20
-13.754587
30
0
70
32
0
VERTEX
8
0
62
255
10
11.445228
20
-13.757461
30
0
70
32
0
VERTEX
8
0
62
255
10
11.309482
20
-13.763208
30
0
70
32
0
VERTEX
8
0
62
255
10
11.173889
20
-13.771825
30
0
70
32
0
VERTEX
8
0
62
255
10
11.038507
20
-13.783309
30
0
70
32
0
VERTEX
8
0
62
255
10
10.9034
20
-13.797654
30
0
70
32
0
VERTEX
8
0
62
255
10
10.768626
20
-13.814853
30
0
70
32
0
VERTEX
8
0
62
255
10
10.634245
20
-13.8349
30
0
70
32
0
VERTEX
8
0
62
255
10
10.500319
20
-13.857785
30
0
70
32
0
VERTEX
8
0
62
255
10
10.366908
20
-13.883498
30
0
70
32
0
VERTEX
8
0
62
255
10
10.234069
20
-13.912028
30
0
70
32
0
VERTEX
8
0
62
255
10
10.101864
20
-13.943361
30
0
70
32
0
VERTEX
8
0
62
255
10
9.970352
20
-13.977484
30
0
70
32
0
VERTEX
8
0
62
255
10
9.8395908
20
-14.014381
30
0
70
32
0
VERTEX
8
0
62
255
10
9.7096393
20
-14.054036
30
0
70
32
0
VERTEX
8
0
62
255
10
9.5805558
20
-14.096431
30
0
70
32
0
VERTEX
8
0
62
255
10
9.452398
20
-14.141547
30
0
70
32
0
VERTEX
8
0
62
255
10
9.3252233
20
-14.189365
30
0
70
32
0
VERTEX
8
0
62
255
10
9.1990885
20
-14.239861
30
0
70
32
0
VERTEX
8
0
62
255
10
9.0740502
20
-14.293015
30
0
70
32
0
VERTEX
8
0
62
255
10
8.9501642
20
-14.348802
30
0
70
32
0
VERTEX
8
0
62
255
10
8.8274861
20
-14.407197
30
0
70
32
0
VERTEX
8
0
62
255
10
8.7060708
20
-14.468174
30
0
70
32
0
VERTEX
8
0
62
255
10
8.5859725
20
-14.531706
30
0
70
32
0
VERTEX
8
0
62
255
10
8.467245
20
-14.597764
30
0
70
32
0
VERTEX
8
0
62
255
10
8.3499415
20
-14.666319
30
0
70
32
0
VERTEX
8
0
62
255
10
8.2341144
20
-14.73734
30
0
70
32
0
VERTEX
8
0
62
255
10
8.1198156
20
-14.810795
30
0
70
32
0
VERTEX
8
0
62
255
10
8.0070963
20
-14.886652
30
0
70
32
0
VERTEX
8
0
62
255
10
7.8960069
20
-14.964876
30
0
70
32
0
VERTEX
8
0
62
255
10
7.7865971
20
-15.045433
30
0
70
32
0
VERTEX
8
0
62
255
10
7.6789158
20
-15.128286
30
0
70
32
0
VERTEX
8
0
62
255
10
7.5730113
20
-15.213399
30
0
70
32
0
VERTEX
8
0
62
255
10
7.468931
20
-15.300733
30
0
70
32
0
VERTEX
8
0
62
255
10
7.3667214
20
-15.390249
30
0
70
32
0
VERTEX
8
0
62
255
10
7.2664283
20
-15.481907
30
0
70
32
0
VERTEX
8
0
62
255
10
7.1680966
20
-15.575666
30
0
70
32
0
VERTEX
8
0
62
255
10
7.0717703
20
-15.671484
30
0
70
32
0
VERTEX
8
0
62
255
10
6.9774924
20
-15.769318
30
0
70
32
0
VERTEX
8
0
62
255
10
6.8853052
20
-15.869125
30
0
70
32
0
VERTEX
8
0
62
255
10
6.79525
20
-15.97086
30
0
70
32
0
VERTEX
8
0
62
255
10
6.707367
20
-16.074477
30
0
70
32
0
VERTEX
8
0
62
255
10
6.6216956
20
-16.17993
30
0
70
32
0
VERTEX
8
0
62
255
10
6.538274
20
-16.287171
30
0
70
32
0
VERTEX
8
0
62
255
10
6.4571398
20
-16.396154
30
0
70
32
0
VERTEX
8
0
62
255
10
6.3783291
20
-16.506828
30
0
70
32
0
VERTEX
8
0
62
255
10
6.3018772
20
-16.619144
30
0
70
32
0
VERTEX
8
0
62
255
10
6.2278183
20
-16.733053
30
0
70
32
0
VERTEX
8
0
62
255
10
6.1561857
20
-16.848503
30
0
70
32
0
VERTEX
8
0
62
255
10
6.0870113
20
-16.965442
30
0
70
32
0
SEQEND
8
0
0
POLYLINE
8
0
62
255
66
1
10
0
20
0
30
0
70
8
0
VERTEX
8
0
62
255
10
6.0870113
20
-16.965442
30
0
70
32
0
VERTEX
8
0
62
255
10
5.966693
20
-16.895976
30
0
70
32
0
VERTEX
8
0
62
255
10
5.8463747
20
-16.826511
30
0
70
32
0
VERTEX
8
0
62
255
10
5.7260564
20
-16.757045
30
0
70
32
0
VERTEX
8
0
62
255
10
5.6057381
20
-16.687579
30
0
70
32
0
VERTEX
8
0
62
255
10
5.4854198
20
-16.618113
30
0
70
32
0
VERTEX
8
0
62
255
10
5.3651015
20
-16.548647
30
0
70
32
0
VERTEX
8
0
62
255
10
5.2447833
20
-16.479182
30
0
70
32
0
VERTEX
8
0
62
255
10
5.124465
20
-16.409716
30
0
70
32
0
VERTEX
8
0
62
255
10
5.0041467
20
-16.34025
30
0
70
32
0
VERTEX
8
0
62
255
10
4.8838284
20
-16.270784
30
0
70
32
0
VERTEX
8
0
62
255
10
4.7635101
20
-16.201318
30
0
70
32
0
VERTEX
8
0
62
255
10
4.6431918
20
-16.131853
30
0
70
32
0
VERTEX
8
0
62
255
10
4.5228735
20
-16.062387
30
0
70
32
0
VERTEX
8
0
62
255
10
4.4025553
20
-15.992921
30
0
70
32
0
VERTEX
8
0
62
255
10
4.282237
20
-15.923455
30
0
70
32
0
VERTEX
8
0
62
255
10
4.1619187
20
-15.853989
30
0
70
32
0
VERTEX
8
0
62
255
10
4.0416004
20
-15.784524
30
0
70
32
0
VERTEX
8
0
62
255
10
3.9212821
20
-15.715058
30
0
70
32
0
VERTEX
8
0
62
255
10
3.8009638
20
-15.645592
30
0
70
32
0
VERTEX
8
0
62
255
10
3.6806455
20
-15.576126
30
0
70
32
0
VERTEX
8
0
62
255
10
3.5603272
20
-15.50666
30
0
70
32
0
VERTEX
8
0
62
255
10
3.440009
20
-15.437195
30
0
70
32
0
VERTEX
8
0
62
255
10
3.3196907
20
-15.367729
30
0
70
32
0
VERTEX
8
0
62
255
10
3.1993724
20
-15.298263
30
0
70
32
0
VERTEX
8
0
62
255
10
3.0790541
20
-15.228797
30
0
70
32
0
VERTEX
8
0
62
255
10
2.9587358
20
-15.159331
30
0
70
32
0
VERTEX
8
0
62
255
10
2.8384175
20
-15.089866
30
0
70
32
0
VERTEX
8
0
62
255
10
2.7180992
20
-15.0204
30
0
70
32
0
VERTEX
8
0
62
255
10
2.597781
20
-14.950934
30
0
70
32
0
VERTEX
8
0
62
255
10
2.4774627
20
-14.881468
30
0
70
32
0
VERTEX
8
0
62
255
10
2.3571444
20
-14.812002
30
0
70
32
0
VERTEX
8
0
62
255
10
2.2368261
20
-14.742537
30
0
70
32
0
VERTEX
8
0
62
255
10
2.1165078
20
-14.673071
30
0
70
32
0
VERTEX
8
0
62
255
10
1.9961895
20
-14.603605
30
0
70
32
0
VERTEX
8
0
62
255
10
1.8758712
20
-14.534139
30
0
70
32
0
VERTEX
8
0
62
255
10
1.755553
20
-14.464673
30
0
70
32
0
VERTEX
8
0
62
255
10
1.6352347
20
-14.395208
30
0
70
32
0
VERTEX
8
0
62
255
10
1.5149164
20
-14.325742
30
0
70
32
0
VERTEX
8
0
62
255
10
1.3945981
20
-14.256276
30
0
70
32
0
VERTEX
8
0
62
255
10
1.2742798
20
-14.18681
30
0
70
32
0
VERTEX
8
0
62
255
10
1.1539615
20
-14.117344
30
0
70
32
0
VERTEX
8
0
62
255
10
1.0336432
20
-14.047879
30
0
70
32
0
VERTEX
8
0
62
255
10
0.91332494
20
-13.978413
30
0
70
32
0
VERTEX
8
0
62
255
10
0.79300666
20
-13.908947
30
0
70
32
0
VERTEX
8
0
62
255
10
0.67268837
20
-13.839481
30
0
70
32
0
VERTEX
8
0
62
255
10
0.55237008
20
-13.770016
30
0
70
32
0
VERTEX
8
0
62
255
10
0.4320518
20
-13.70055
30
0
70
32
0
VERTEX
8
0
62
255
10
0.31173351
20
-13.631084
30
0
70
32
0
VERTEX
8
0
62
255
10
0.19141522
20
-13.561618
30
0
70
32
0
VERTEX
8
0
62
255
10
0.071096938
20
-13.492152
30
0
70
32
0
VERTEX
8
0
62
255
10
-0.049221348
20
-13.422687
30
0
70
32
0
VERTEX
8
0
62
255
10
-0.16953963
20
-13.353221
30
0
70
32
0
VERTEX
8
0
62
255
10
-0.28985792
20
-13.283755
30
0
70
32
0
VERTEX
8
0
62
255
10
-0.41017621
20
-13.214289
30
0
70
32
0
VERTEX
8
0
62
255
10
-0.53049449
20
-13.144823
30
0
70
32
0
VERTEX
8
0
62
255
10
-0.65081278
20
-13.075358
30
0
70
32
0
VERTEX
8
0
62
255
10
-0.77113107
20
-13.005892
30
0
70
32
0
VERTEX
8
0
62
255
10
-0.89144935
20
-12.936426
30
0
70
32
0
VERTEX
8
0
62
255
10
-1.0117676
20
-12.86696
30
0
70
32
0
VERTEX
8
0
62
255
10
-1.1320859
20
-12.797494
30
0
70
32
0
VERTEX
8
0
62
255
10
-1.2524042
20
-12.728029
30
0
70
32
0
VERTEX
8
0
62
255
10
-1.3727225
20
-12.658563
30
0
70
32
0
VERTEX
8
0
62
255
10
-1.4930408
20
-12.589097
30
0
70
32
0
VERTEX
8
0
62
255
10
-1.6133591
20
-12.519631
30
0
70
32
0
VERTEX
8
0
62
255
10
-1.7336774
20
-12.450165
30
0
70
32
0
VERTEX
8
0
62
255
10
-1.8539956
20
-12.3807
30
0
70
32
0
VERTEX
8
0
62
255
10
-1.9743139
20
-12.311234
30
0
70
32
0
VERTEX
8
0
62
255
10
-2.0946322
20
-12.241768
30
0
70
32
0
VERTEX
8
0
62
255
10
-2.2149505
20
-12.172302
30
0
70
32
0
VERTEX
8
0
62
255
10
-2.3352688
20
-12.102836
30
0
70
32
0
VERTEX
8
0
62
255
10
-2.4555871
20
-12.033371
30
0
70
32
0
VERTEX
8
0
62
255
10
-2.5759054
20
-11.963905
30
0
70
32
0
VERTEX
8
0
62
255
10
-2.6962237
20
-11.894439
30
0
70
32
0
VERTEX
8
0
62
255
10
-2.8165419
20
-11.824973
30
0
70
32
0
VERTEX
8
0
62
255
10
-2.9368602
20
-11.755507
30
0
70
32
0
VERTEX
8
0
62
255
10
-3.0571785
20
-11.686042
30
0
70
32
0
VERTEX
8
0
62
255
10
-3.1774968
20
-11.616576
30
0
70
32
0
VERTEX
8
0
62
255
10
-3.2978151
20
-11.54711
30
0
70
32
0
VERTEX
8
0
62
255
10
-3.4181334
20
-11.477644
30
0
70
32
0
VERTEX
8
0
62
255
10
-3.5384517
20
-11.408178
30
0
70
32
0
VERTEX
8
0
62
255
10
-3.6587699
20
-11.338713
30
0
70
32
0
VERTEX
8
0
62
255
10
-3.7790882
20
-11.269247
30
0
70
32
0
VERTEX
8
0
62
255
10
-3.8994065
20
-11.199781
30
0
70
32
0
VERTEX
8
0
62
255
10
-4.0197248
20
-11.130315
30
0
70
32
0
VERTEX
8
0
62
255
10
-4.1400431
20
-11.06085
30
0
70
32
0
VERTEX
8
0
62
255
10
-4.2603614
20
-10.991384
30
0
70
32
0
VERTEX
8
0
62
255
10
-4.3806797
20
-10.921918
30
0
70
32
0
VERTEX
8
0
62
255
10
-4.500998
20
-10.852452
30
0
70
32
0
VERTEX
8
0
62
255
10
-4.6213162
20
-10.782986
30
0
70
32
0
VERTEX
8
0
62
255
10
-4.7416345
20
-10.713521
30
0
70
32
0
VERTEX
8
0
62
255
10
-4.8619528
20
-10.644055
30
0
70
32
0
VERTEX
8
0
62
255
10
-4.9822711
20
-10.574589
30
0
70
32
0
VERTEX
8
0
62
255
10
-5.1025894
20
-10.505123
30
0
70
32
0
VERTEX
8
0
62
255
10
-5.2229077
20
-10.435657
30
0
70
32
0
VERTEX
8
0
62
255
10
-5.343226
20
-10.366192
30
0
70
32
0
VERTEX
8
0
62
255
10
-5.4635442
20
-10.296726
30
0
70
32
0
VERTEX
8
0
62
255
10
-5.5838625
20
-10.22726
30
0
70
32
0
VERTEX
8
0
62
255
10
-5.7041808
20
-10.157794
30
0
70
32
0
VERTEX
8
0
62
255
10
-5.8244991
20
-10.088328
30
0
70
32
0
SEQEND
8
0
0
POLYLINE
8
0
62
255
66
1
10
0
20
0
30
0
70
8
0
VERTEX
8
0
62
255
10
-5.8244991
20
-10.088328
30
0
70
32
0
VERTEX
8
0
62
255
10
-5.7656658
20
-9.9864261
30
0
70
32
0
VERTEX
8
0
62
255
10
-5.7068325
20
-9.8845238
30
0
70
32
0
VERTEX
8
0
62
255
10
-5.6479991
20
-9.7826215
30
0
70
32
0
VERTEX
8
0
62
255
10
-5.5891658
20
-9.6807191
30
0
70
32
0
VERTEX
8
0
62
255
10
-5.5303325
20
-9.5788168
30
0
70
32
0
VERTEX
8
0
62
255
10
-5.4714992
20
-9.4769145
30
0
70
32
0
VERTEX
8
0
62
255
10
-5.4126658
20
-9.3750122
30
0
70
32
0
VERTEX
8
0
62
255
10
-5.3538325
20
-9.2731099
30
0
70
32
0
VERTEX
8
0
62
255
10
-5.2949992
20
-9.1712076
30
0
70
32
0
VERTEX
8
0
62
255
10
-5.2361659
20
-9.0693053
30
0
70
32
0
VERTEX
8
0
62
255
10
-5.1773325
20
-8.967403
30
0
70
32
0
VERTEX
8
0
62
255
10
-5.1184992
20
-8.8655007
30
0
70
32
0
VERTEX
8
0
62
255
10
-5.0596659
20
-8.7635984
30
0
70
32
0
VERTEX
8
0
62
255
10
-5.0008326
20
-8.6616961
30
0
70
32
0
VERTEX
8
0
62
255
10
-4.9419992
20
-8.5597938
30
0
70
32
0
VERTEX
8
0
62
255
10
-4.8831659
20
-8.4578915
30
0
70
32
0
VERTEX
8
0
62
255
10
-4.8243326
20
-8.3559892
30
0
70
32
0
VERTEX
8
0
62
255
10
-4.7654993
20
-8.2540869
30
0
70
32
0
VERTEX
8
0
62
255
10
-4.7066659
20
-8.1521845
30
0
70
32
0
VERTEX
8
0
62
255
10
-4.6478326
20
-8.0502822
30
0
70
32
0
VERTEX
8
0
62
255
10
-4.5889993
20
-7.9483799
30
0
70
32
0
VERTEX
8
0
62
255
10
-4.530166
20
-7.8464776
30
0
70
32
0
VERTEX
8
0
62
255
10
-4.4713326
20
-7.7445753
30
0
70
32
0
VERTEX
8
0
62
255
10
-4.4124993
20
-7.642673
30
0
70
32
0
VERTEX
8
0
62
255
10
-4.353666
20
-7.5407707
30
0
70
32
0
VERTEX
8
0
62
255
10
-4.2948327
20
-7.4388684
30
0
70
32
0
VERTEX
8
0
62
255
10
-4.2359993
20
-7.3369661
30
0
70
32
0
VERTEX
8
0
62
255
10
-4.177166
20
-7.2350638
30
0
70
32
0
VERTEX
8
0
62
255
10
-4.1183327
20
-7.1331615
30
0
70
32
0
VERTEX
8
0
62
255
10
-4.0594994
20
-7.0312592
30
0
70
32
0
VERTEX
8
0
62
255
10
-4.0006661
20
-6.9293569
30
0
70
32
0
VERTEX
8
0
62
255
10
-3.9418327
20
-6.8274546
30
0
70
32
0
VERTEX
8
0
62
255
10
-3.8829994
20
-6.7255523
30
0
70
32
0
VERTEX
8
0
62
255
10
-3.8241661
20
-6.6236499
30
0
70
32
0
VERTEX
8
0
62
255
10
-3.7653328
20
-6.5217476
30
0
70
32
0
VERTEX
8
0
62
255
10
-3.7064994
20
-6.4198453
30
0
70
32
0
VERTEX
8
0
62
255
10
-3.6476661
20
-6.317943
30
0
70
32
0
VERTEX
8
0
62
255
10
-3.5888328
20
-6.2160407
30
0
70
32
0
VERTEX
8
0
62
255
10
-3.5299995
20
-6.1141384
30
0
70
32
0
VERTEX
8
0
62
255
10
-3.4711661
20
-6.0122361
30
0
70
32
0
VERTEX
8
0
62
255
10
-3.4123328
20
-5.9103338
30
0
70
32
0
VERTEX
8
0
62
255
10
-3.3534995
20
-5.8084315
30
0
70
32
0
VERTEX
8
0
62
255
10
-3.2946662
20
-5.7065292
30
0
70
32
0
VERTEX
8
0
62
255
10
-3.2358328
20
-5.6046269
30
0
70
32
0
VERTEX
8
0
62
255
10
-3.1769995
20
-5.5027246
30
0
70
32
0
VERTEX
8
0
62
255
10
-3.1181662
20
-5.4008223
30
0
70
32
0
VERTEX
8
0
62
255
10
-3.0593329
20
-5.29892
30
0
70
32
0
VERTEX
8
0
62
255
10
-3.0004995
20
-5.1970176
30
0
70
32
0
VERTEX
8
0
62
255
10
-2.9416662
20
-5.0951153
30
0
70
32
0
VERTEX
8
0
62
255
10
-2.8828329
20
-4.993213
30
0
70
32
0
VERTEX
8
0
62
255
10
-2.8239996
20
-4.8913107
30
0
70
32
0
VERTEX
8
0
62
255
10
-2.7651662
20
-4.7894084
30
0
70
32
0
VERTEX
8
0
62
255
10
-2.7063329
20
-4.6875061
30
0
70
32
0
VERTEX
8
0
62
255
10
-2.6474996
20
-4.5856038
30
0
70
32
0
VERTEX
8
0
62
255
10
-2.5886663
20
-4.4837015
30
0
70
32
0
VERTEX
8
0
62
255
10
-2.5298329
20
-4.3817992
30
0
70
32
0
VERTEX
8
0
62
255
10
-2.4709996
20
-4.2798969
30
0
70
32
0
VERTEX
8
0
62
255
10
-2.4121663
20
-4.1779946
30
0
70
32
0
VERTEX
8
0
62
255
10
-2.353333
20
-4.0760923
30
0
70
32
0
VERTEX
8
0
62
255
10
-2.2944996
20
-3.97419
30
0
70
32
0
VERTEX
8
0
62
255
10
-2.2356663
20
-3.8722877
30
0
70
32
0
VERTEX
8
0
62
255
10
-2.176833
20
-3.7703854
30
0
70
32
0
VERTEX
8
0
62
255
10
-2.1179997
20
-3.668483
30
0
70
32
0
VERTEX
8
0
62
255
10
-2.0591663
20
-3.5665807
30
0
70
32
0
VERTEX
8
0
62
255
10
-2.000333
20
-3.4646784
30
0
70
32
0
VERTEX
8
0
62
255
10
-1.9414997
20
-3.3627761
30
0
70
32
0
VERTEX
8
0
62
255
10
-1.8826664
20
-3.2608738
30
0
70
32
0
VERTEX
8
0
62
255
10
-1.8238331
20
-3.1589715
30
0
70
32
0
VERTEX
8
0
62
255
10
-1.7649997
20
-3.0570692
30
0
70
32
0
VERTEX
8
0
62
255
10
-1.7061664
20
-2.9551669
30
0
70
32
0
VERTEX
8
0
62
255
10
-1.6473331
20
-2.8532646
30
0
70
32
0
VERTEX
8
0
62
255
10
-1.5884998
20
-2.7513623
30
0
70
32
0
VERTEX
8
0
62
255
10
-1.5296664
20
-2.64946
30
0
70
32
0
VERTEX
8
0
62
255
10
-1.4708331
20
-2.5475577
30
0
70
32
0
VERTEX
8
0
62
255
10
-1.4119998
20
-2.4456554
30
0
70
32
0
VERTEX
8
0
62
255
10
-1.3531665
20
-2.3437531
30
0
70
32
0
VERTEX
8
0
62
255
10
-1.2943331
20
-2.2418508
30
0
70
32
0
VERTEX
8
0
62
255
10
-1.2354998
20
-2.1399484
30
0
70
32
0
VERTEX
8
0
62
255
10
-1.1766665
20
-2.0380461
30
0
70
32
0
VERTEX
8
0
62
255
10
-1.1178332
20
-1.9361438
30
0
70
32
0
VERTEX
8
0
62
255
10
-1.0589998
20
-1.8342415
30
0
70
32
0
VERTEX
8
0
62
255
10
-1.0001665
20
-1.7323392
30
0
70
32
0
VERTEX
8
0
62
255
10
-0.94133319
20
-1.6304369
30
0
70
32
0
VERTEX
8
0
62
255
10
-0.88249986
20
-1.5285346
30
0
70
32
0
VERTEX
8
0
62
255
10
-0.82366654
20
-1.4266323
30
0
70
32
0
VERTEX
8
0
62
255
10
-0.76483322
20
-1.32473
30
0
70
32
0
VERTEX
8
0
62
255
10
-0.70599989
20
-1.2228277
30
0
70
32
0
VERTEX
8
0
62
255
10
-0.64716657
20
-1.1209254
30
0
70
32
0
VERTEX
8
0
62
255
10
-0.58833324
20
-1.0190231
30
0
70
32
0
VERTEX
8
0
62
255
10
-0.52949992
20
-0.91712076
30
0
70
32
0
VERTEX
8
0
62
255
10
-0.47066659
20
-0.81521845
30
0
70
32
0
VERTEX
8
0
62
255
10
-0.41183327
20
-0.71331615
30
0
70
32
0
VERTEX
8
0
62
255
10
-0.35299995
20
-0.61141384
30
0
70
32
0
VERTEX
8
0
62
255
10
-0.29416662
20
-0.50951153
30
0
70
32
0
VERTEX
8
0
62
255
10
-0.2353333
20
-0.40760923
30
0
70
32
0
VERTEX
8
0
62
255
10
-0.17649997
20
-0.30570692
30
0
70
32
0
VERTEX
8
0
62
255
10
-0.11766665
20
-0.20380461
30
0
70
32
0
VERTEX
8
0
62
255
10
-0.058833324
20
-0.10190231
30
0
70
32
0
VERTEX
8
0
62
255
10
0
20
0
30
0
70
32
0
SEQEND
8
0
0
POLYLINE
8
0
62
255
66
1
10
0
20
0
30
0
70
8
0
VERTEX
8
0
62
255
10
4.5
20
-4.5
30
0
70
32
0
VERTEX
8
0
62
255
10
4.49698
20
-4.4048641
30
0
70
32
0
VERTEX
8
0
62
255
10
4.4879322
20
-4.3101113
30
0
70
32
0
VERTEX
8
0
62
255
10
4.472893
20
-4.2161231
30
0
70
32
0
VERTEX
8
0
62
255
10
4.4519231
20
-4.123278
30
0
70
32
0
VERTEX
8
0
62
255
10
4.4251067
20
-4.0319498
30
0
70
32
0
VERTEX
8
0
62
255
10
4.3925519
20
-3.9425063
30
0
70
32
0
VERTEX
8
0
62
255
10
4.3543898
20
-3.8553076
30
0
70
32
0
VERTEX
8
0
62
255
10
4.3107741
20
-3.7707049
30
0
70
32
0
VERTEX
8
0
62
255
10
4.2618803
20
-3.6890388
30
0
70
32
0
VERTEX
8
0
62
255
10
4.2079054
20
-3.6106381
30
0
70
32
0
VERTEX
8
0
62
255
10
4.1490667
20
-3.5358186
30
0
70
32
0
VERTEX
8
0
62
255
10
4.0856011
20
-3.4648815
30
0
70
32
0
VERTEX
8
0
62
255
10
4.0177641
20
-3.3981124
30
0
70
32
0
VERTEX
8
0
62
255
10
3.945829
20
-3.3357803
30
0
70
32
0
VERTEX
8
0
62
255
10
3.8700854
20
-3.2781361
30
0
70
32
0
VERTEX
8
0
62
255
10
3.7908382
20
-3.2254119
30
0
70
32
0
VERTEX
8
0
62
255
10
3.7084066
20
-3.17782
30
0
70
32
0
VERTEX
8
0
62
255
10
3.6231225
20
-3.135552
30
0
70
32
0
VERTEX
8
0
62
255
10
3.5353293
20
-3.0987782
30
0
70
32
0
VERTEX
8
0
62
255
10
3.4453806
20
-3.0676466
30
0
70
32
0
VERTEX
8
0
62
255
10
3.3536384
20
-3.0422826
30
0
70
32
0
VERTEX
8
0
62
255
10
3.2604723
20
-3.0227884
30
0
70
32
0
VERTEX
8
0
62
255
10
3.1662573
20
-3.0092423
30
0
70
32
0
VERTEX
8
0
62
255
10
3.0713729
20
-3.001699
30
0
70
32
0
VERTEX
8
0
62
255
10
2.9762011
20
-3.0001888
30
0
70
32
0
VERTEX
8
0
62
255
10
2.8811251
20
-3.0047178
30
0
70
32
0
VERTEX
8
0
62
255
10
2.7865277
20
-3.0152678
30
0
70
32
0
VERTEX
8
0
62
255
10
2.69279
20
-3.0317963
30
0
70
32
0
VERTEX
8
0
62
255
10
2.6002893
20
-3.0542368
30
0
70
32
0
VERTEX
8
0
62
255
10
2.5093981
20
-3.0824988
30
0
70
32
0
VERTEX
8
0
62
255
10
2.4204823
20
-3.1164686
30
0
70
32
0
VERTEX
8
0
62
255
10
2.3339001
20
-3.1560093
30
0
70
32
0
VERTEX
8
0
62
255
10
2.25
20
-3.2009619
30
0
70
32
0
VERTEX
8
0
62
255
10
2.1691199
20
-3.2511452
30
0
70
32
0
VERTEX
8
0
62
255
10
2.0915855
20
-3.3063572
30
0
70
32
0
VERTEX
8
0
62
255
10
2.0177089
20
-3.3663756
30
0
70
32
0
VERTEX
8
0
62
255
10
1.9477877
20
-3.4309587
30
0
70
32
0
VERTEX
8
0
62
255
10
1.8821033
20
-3.4998465
30
0
70
32
0
VERTEX
8
0
62
255
10
1.8209204
20
-3.5727615
30
0
70
32
0
VERTEX
8
0
62
255
10
1.7644851
20
-3.6494102
30
0
70
32
0
VERTEX
8
0
62
255
10
1.7130249
20
-3.7294839
30
0
70
32
0
VERTEX
8
0
62
255
10
1.6667468
20
-3.8126602
30
0
70
32
0
VERTEX
8
0
62
255
10
1.6258373
20
-3.8986042
30
0
70
32
0
VERTEX
8
0
62
255
10
1.5904611
20
-3.9869698
30
0
70
32
0
VERTEX
8
0
62
255
10
1.5607605
20
-4.0774012
30
0
70
32
0
VERTEX
8
0
62
255
10
1.5368553
20
-4.1695342
30
0
70
32
0
VERTEX
8
0
62
255
10
1.5188417
20
-4.2629979
30
0
70
32
0
VERTEX
8
0
62
255
10
1.5067921
20
-4.3574159
30
0
70
32
0
VERTEX
8
0
62
255
10
1.5007552
20
-4.4524081
30
0
70
32
0
VERTEX
8
0
62
255
10
1.5007552
20
-4.5475919
30
0
70
32
0
VERTEX
8
0
62
255
10
1.5067921
20
-4.6425841
30
0
70
32
0
VERTEX
8
0
62
255
10
1.5188417
20
-4.7370021
30
0
70
32
0
VERTEX
8
0
62
255
10
1.5368553
20
-4.8304658
30
0
70
32
0
VERTEX
8
0
62
255
10
1.5607605
20
-4.9225988
30
0
70
32
0
VERTEX
8
0
62
255
10
1.5904611
20
-5.0130302
30
0
70
32
0
VERTEX
8
0
62
255
10
1.6258373
20
-5.1013958
30
0
70
32
0
VERTEX
8
0
62
255
10
1.6667468
20
-5.1873398
30
0
70
32
0
VERTEX
8
0
62
255
10
1.7130249
20
-5.2705161
30
0
70
32
0
VERTEX
8
0
62
255
10
1.7644851
20
-5.3505898
30
0
70
32
0
VERTEX
8
0
62
255
10
1.8209204
20
-5.4272385
30
0
70
32
0
VERTEX
8
0
62
255
10
1.8821033
20
-5.5001535
30
0
70
32
0
VERTEX
8
0
62
255
10
1.9477877
20
-5.5690413
30
0
70
32
0
VERTEX
8
0
62
255
10
2.0177089
20
-5.6336244
30
0
70
32
0
VERTEX
8
0
62
255
10
2.0915855
20
-5.6936428
30
0
70
32
0
VERTEX
8
0
62
255
10
2.1691199
20
-5.7488548
30
0
70
32
0
VERTEX
8
0
62
255
10
2.25
20
-5.7990381
30
0
70
32
0
VERTEX
8
0
62
255
10
2.3339001
20
-5.8439907
30
0
70
32
0
VERTEX
8
0
62
255
10
2.4204823
20
-5.8835314
30
0
70
32
0
VERTEX
8
0
62
255
10
2.5093981
20
-5.9175012
30
0
70
32
0
VERTEX
8
0
62
255
10
2.6002893
20
-5.9457632
30
0
70
32
0
VERTEX
8
0
62
255
10
2.69279
20
-5.9682037
30
0
70
32
0
VERTEX
8
0
62
255
10
2.7865277
20
-5.9847322
30
0
70
32
0
VERTEX
8
0
62
255
10
2.8811251
20
-5.9952822
30
0
70
32
0
VERTEX
8
0
62
255
10
2.9762011
20
-5.9998112
30
0
70
32
0
VERTEX
8
0
62
255
10
3.0713729
20
-5.998301
30
0
70
32
0
VERTEX
8
0
62
255
10
3.1662573
20
-5.9907577
30
0
70
32
0
VERTEX
8
0
62
255
10
3.2604723
20
-5.9772116
30
0
70
32
0
VERTEX
8
0
62
255
10
3.3536384
20
-5.9577174
30
0
70
32
0
VERTEX
8
0
62
255
10
3.4453806
20
-5.9323534
30
0
70
32
0
VERTEX
8
0
62
255
10
3.5353293
20
-5.9012218
30
0
70
32
0
VERTEX
8
0
62
255
10
3.6231225
20
-5.864448
30
0
70
32
0
VERTEX
8
0
62
255
10
3.7084066
20
-5.82218
30
0
70
32
0
VERTEX
8
0
62
255
10
3.7908382
20
-5.7745881
30
0
70
32
0
VERTEX
8
0
62
255
10
3.8700854
20
-5.7218639
30
0
70
32
0
VERTEX
8
0
62
255
10
3.945829
20
-5.6642197
30
0
70
32
0
VERTEX
8
0
62
255
10
4.0177641
20
-5.6018876
30
0
70
32
0
VERTEX
8
0
62
255
10
4.0856011
20
-5.5351185
30
0
70
32
0
VERTEX
8
0
62
255
10
4.1490667
20
-5.4641814
30
0
70
32
0
VERTEX
8
0
62
255
10
4.2079054
20
-5.3893619
30
0
70
32
0
VERTEX
8
0
62
255
10
4.2618803
20
-5.3109612
30
0
70
32
0
VERTEX
8
0
62
255
10
4.3107741
20
-5.2292951
30
0
70
32
0
VERTEX
8
0
62
255
10
4.3543898
20
-5.1446924
30
0
70
32
0
VERTEX
8
0
62
255
10
4.3925519
20
-5.0574937
30
0
70
32
0
VERTEX
8
0
62
255
10
4.4251067
20
-4.9680502
30
0
70
32
0
VERTEX
8
0
62
255
10
4.4519231
20
-4.876722
30
0
70
32
0
VERTEX
8
0
62
255
10
4.472893
20
-4.7838769
30
0
70
32
0
VERTEX
8
0
62
255
10
4.4879322
20
-4.6898887
30
0
70
32
0
VERTEX
8
0
62
255
10
4.49698
20
-4.5951359
30
0
70
32
0
VERTEX
8
0
62
255
10
4.5
20
-4.5
30
0
70
32
0
SEQEND
8
0
0
POLYLINE
8
0
62
255
66
1
10
0
20
0
30
0
70
8
0
VERTEX
8
0
62
255
10
21.797996
20
-4.5
30
0
70
32
0
VERTEX
8
0
62
255
10
21.794976
20
-4.4048641
30
0
70
32
0
VERTEX
8
0
62
255
10
21.785929
20
-4.3101113
30
0
70
32
0
VERTEX
8
0
62
255
10
21.770889
20
-4.2161231
30
0
70
32
0
VERTEX
8
0
62
255
10
21.749919
20
-4.123278
30
0
70
32
0
VERTEX
8
0
62
255
10
21.723103
20
-4.0319498
30
0
70
32
0
VERTEX
8
0
62
255
10
21.690548
20
-3.9425063
30
0
70
32
0
VERTEX
8
0
62
255
10
21.652386
20
-3.8553076
30
0
70
32
0
VERTEX
8
0
62
255
10
21.60877
20
-3.7707049
30
0
70
32
0
VERTEX
8
0
62
255
10
21.559877
20
-3.6890388
30
0
70
32
0
VERTEX
8
0
62
255
10
21.505902
20
-3.6106381
30
0
70
32
0
VERTEX
8
0
62
255
10
21.447063
20
-3.5358186
30
0
70
32
0
VERTEX
8
0
62
255
10
21.383597
20
-3.4648815
30
0
70
32
0
VERTEX
8
0
62
255
10
21.315761
20
-3.3981124
30
0
70
32
0
VERTEX
8
0
62
255
10
21.243825
20
-3.3357803
30
0
70
32
0
VERTEX
8
0
62
255
10
21.168082
20
-3.2781361
30
0
70
32
0
VERTEX
8
0
62
255
10
21.088835
20
-3.2254119
30
0
70
32
0
VERTEX
8
0
62
255
10
21.006403
20
-3.17782
30
0
70
32
0
VERTEX
8
0
62
255
10
20.921119
20
-3.135552
30
0
70
32
0
VERTEX
8
0
62
255
10
20.833326
20
-3.0987782
30
0
70
32
0
VERTEX
8
0
62
255
10
20.743377
20
-3.0676466
30
0
70
32
0
VERTEX
8
0
62
255
10
20.651635
20
-3.0422826
30
0
70
32
0
VERTEX
8
0
62
255
10
20.558469
20
-3.0227884
30
0
70
32
0
VERTEX
8
0
62
255
10
20.464254
20
-3.0092423
30
0
70
32
0
VERTEX
8
0
62
255
10
20.369369
20
-3.001699
30
0
70
32
0
VERTEX
8
0
62
255
10
20.274197
20
-3.0001888
30
0
70
32
0
VERTEX
8
0
62
255
10
20.179121
20
-3.0047178
30
0
70
32
0
VERTEX
8
0
62
255
10
20.084524
20
-3.0152678
30
0
70
32
0
VERTEX
8
0
62
255
10
19.990786
20
-3.0317963
30
0
70
32
0
VERTEX
8
0
62
255
10
19.898286
20
-3.0542368
30
0
70
32
0
VERTEX
8
0
62
255
10
19.807394
20
-3.0824988
30
0
70
32
0
VERTEX
8
0
62
255
10
19.718479
20
-3.1164686
30
0
70
32
0
VERTEX
8
0
62
255
10
19.631896
20
-3.1560093
30
0
70
32
0
VERTEX
8
0
62
255
10
19.547996
20
-3.2009619
30
0
70
32
0
VERTEX
8
0
62
255
10
19.467116
20
-3.2511452
30
0
70
32
0
VERTEX
8
0
62
255
10
19.389582
20
-3.3063572
30
0
70
32
0
VERTEX
8
0
62
255
10
19.315705
20
-3.3663756
30
0
70
32
0
VERTEX
8
0
62
255
10
19.245784
20
-3.4309587
30
0
70
32
0
VERTEX
8
0
62
255
10
19.1801
20
-3.4998465
30
0
70
32
0
VERTEX
8
0
62
255
10
19.118917
20
-3.5727615
30
0
70
32
0
VERTEX
8
0
62
255
10
19.062482
20
-3.6494102
30
0
70
32
0
VERTEX
8
0
62
255
10
19.011021
20
-3.7294839
30
0
70
32
0
VERTEX
8
0
62
255
10
18.964743
20
-3.8126602
30
0
70
32
0
VERTEX
8
0
62
255
10
18.923834
20
-3.8986042
30
0
70
32
0
VERTEX
8
0
62
255
10
18.888457
20
-3.9869698
30
0
70
32
0
VERTEX
8
0
62
255
10
18.858757
20
-4.0774012
30
0
70
32
0
VERTEX
8
0
62
255
10
18.834852
20
-4.1695342
30
0
70
32
0
VERTEX
8
0
62
255
10
18.816838
20
-4.2629979
30
0
70
32
0
VERTEX
8
0
62
255
10
18.804789
20
-4.3574159
30
0
70
32
0
VERTEX
8
0
62
255
10
18.798752
20
-4.4524081
30
0
70
32
0
VERTEX
8
0
62
255
10
18.798752
20
-4.5475919
30
0
70
32
0
VERTEX
8
0
62
255
10
18.804789
20
-4.6425841
30
0
70
32
0
VERTEX
8
0
62
255
10
18.816838
20
-4.7370021
30
0
70
32
0
VERTEX
8
0
62
255
10
18.834852
20
-4.8304658
30
0
70
32
0
VERTEX
8
0
62
255
10
18.858757
20
-4.9225988
30
0
70
32
0
VERTEX
8
0
62
255
10
18.888457
20
-5.0130302
30
0
70
32
0
VERTEX
8
0
62
255
10
18.923834
20
-5.1013958
30
0
70
32
0
VERTEX
8
0
62
255
10
18.964743
20
-5.1873398
30
0
70
32
0
VERTEX
8
0
62
255
10
19.011021
20
-5.2705161
30
0
70
32
0
VERTEX
8
0
62
255
10
19.062482
20
-5.3505898
30
0
70
32
0
VERTEX
8
0
62
255
10
19.118917
20
-5.4272385
30
0
70
32
0
VERTEX
8
0
62
255
10
19.1801
20
-5.5001535
30
0
70
32
0
VERTEX
8
0
62
255
10
19.245784
20
-5.5690413
30
0
70
32
0
VERTEX
8
0
62
255
10
19.315705
20
-5.6336244
30
0
70
32
0
VERTEX
8
0
62
255
10
19.389582
20
-5.6936428
30
0
70
32
0
VERTEX
8
0
62
255
10
19.467116
20
-5.7488548
30
0
70
32
0
VERTEX
8
0
62
255
10
19.547996
20
-5.7990381
30
0
70
32
0
VERTEX
8
0
62
255
10
19.631896
20
-5.8439907
30
0
70
32
0
VERTEX
8
0
62
255
10
19.718479
20
-5.8835314
30
0
70
32
0
VERTEX
8
0
62
255
10
19.807394
20
-5.9175012
30
0
70
32
0
VERTEX
8
0
62
255
10
19.898286
20
-5.9457632
30
0
70
32
0
VERTEX
8
0
62
255
10
19.990786
20
-5.9682037
30
0
70
32
0
VERTEX
8
0
62
255
10
20.084524
20
-5.9847322
30
0
70
32
0
VERTEX
8
0
62
255
10
20.179121
20
-5.9952822
30
0
70
32
0
VERTEX
8
0
62
255
10
20.274197
20
-5.9998112
30
0
70
32
0
VERTEX
8
0
62
255
10
20.369369
20
-5.998301
30
0
70
32
0
VERTEX
8
0
62
255
10
20.464254
20
-5.9907577
30
0
70
32
0
VERTEX
8
0
62
255
10
20.558469
20
-5.9772116
30
0
70
32
0
VERTEX
8
0
62
255
10
20.651635
20
-5.9577174
30
0
70
32
0
VERTEX
8
0
62
255
10
20.743377
20
-5.9323534
30
0
70
32
0
VERTEX
8
0
62
255
10
20.833326
20
-5.9012218
30
0
70
32
0
VERTEX
8
0
62
255
10
20.921119
20
-5.864448
30
0
70
32
0
VERTEX
8
0
62
255
10
21.006403
20
-5.82218
30
0
70
32
0
VERTEX
8
0
62
255
10
21.088835
20
-5.7745881
30
0
70
32
0
VERTEX
8
0
62
255
10
21.168082
20
-5.7218639
30
0
70
32
0
VERTEX
8
0
62
255
10
21.243825
20
-5.6642197
30
0
70
32
0
VERTEX
8
0
62
255
10
21.315761
20
-5.6018876
30
0
70
32
0
VERTEX
8
0
62
255
10
21.383597
20
-5.5351185
30
0
70
32
0
VERTEX
8
0
62
255
10
21.447063
20
-5.4641814
30
0
70
32
0
VERTEX
8
0
62
255
10
21.505902
20
-5.3893619
30
0
70
32
0
VERTEX
8
0
62
255
10
21.559877
20
-5.3109612
30
0
70
32
0
VERTEX
8
0
62
255
10
21.60877
20
-5.2292951
30
0
70
32
0
VERTEX
8
0
62
255
10
21.652386
20
-5.1446924
30
0
70
32
0
VERTEX
8
0
62
255
10
21.690548
20
-5.0574937
30
0
70
32
0
VERTEX
8
0
62
255
10
21.723103
20
-4.9680502
30
0
70
32
0
VERTEX
8
0
62
255
10
21.749919
20
-4.876722
30
0
70
32
0
VERTEX
8
0
62
255
10
21.770889
20
-4.7838769
30
0
70
32
0
VERTEX
8
0
62
255
10
21.785929
20
-4.6898887
30
0
70
32
0
VERTEX
8
0
62
255
10
21.794976
20
-4.5951359
30
0
70
32
0
VERTEX
8
0
62
255
10
21.797996
20
-4.5
30
0
70
32
0
SEQEND
8
0
0
POLYLINE
8
0
62
255
66
1
10
0
20
0
30
0
70
8
0
VERTEX
8
0
62
255
10
4.5
20
123.3
30
0
70
32
0
VERTEX
8
0
62
255
10
4.49698
20
123.39514
30
0
70
32
0
VERTEX
8
0
62
255
10
4.4879322
20
123.48989
30
0
70
32
0
VERTEX
8
0
62
255
10
4.472893
20
123.58388
30
0
70
32
0
VERTEX
8
0
62
255
10
4.4519231
20
123.67672
30
0
70
32
0
VERTEX
8
0
62
255
10
4.4251067
20
123.76805
30
0
70
32
0
VERTEX
8
0
62
255
10
4.3925519
20
123.85749
30
0
70
32
0
VERTEX
8
0
62
255
10
4.3543898
20
123.94469
30
0
70
32
0
VERTEX
8
0
62
255
10
4.3107741
20
124.0293
30
0
70
32
0
VERTEX
8
0
62
255
10
4.2618803
20
124.11096
30
0
70
32
0
VERTEX
8
0
62
255
10
4.2079054
20
124.18936
30
0
70
32
0
VERTEX
8
0
62
255
10
4.1490667
20
124.26418
30
0
70
32
0
VERTEX
8
0
62
255
10
4.0856011
20
124.33512
30
0
70
32
0
VERTEX
8
0
62
255
10
4.0177641
20
124.40189
30
0
70
32
0
VERTEX
8
0
62
255
10
3.945829
20
124.46422
30
0
70
32
0
VERTEX
8
0
62
255
10
3.8700854
20
124.52186
30
0
70
32
0
VERTEX
8
0
62
255
10
3.7908382
20
124.57459
30
0
70
32
0
VERTEX
8
0
62
255
10
3.7084066
20
124.62218
30
0
70
32
0
VERTEX
8
0
62
255
10
3.6231225
20
124.66445
30
0
70
32
0
VERTEX
8
0
62
255
10
3.5353293
20
124.70122
30
0
70
32
0
VERTEX
8
0
62
255
10
3.4453806
20
124.73235
30
0
70
32
0
VERTEX
8
0
62
255
10
3.3536384
20
124.75772
30
0
70
32
0
VERTEX
8
0
62
255
10
3.2604723
20
124.77721
30
0
70
32
0
VERTEX
8
0
62
255
10
3.1662573
20
124.79076
30
0
70
32
0
VERTEX
8
0
62
255
10
3.0713729
20
124.7983
30
0
70
32
0
VERTEX
8
0
62
255
10
2.9762011
20
124.79981
30
0
70
32
0
VERTEX
8
0
62
255
10
2.8811251
20
124.79528
30
0
70
32
0
VERTEX
8
0
62
255
10
2.7865277
20
124.78473
30
0
70
32
0
VERTEX
8
0
62
255
10
2.69279
20
124.7682
30
0
70
32
0
VERTEX
8
0
62
255
10
2.6002893
20
124.74576
30
0
70
32
0
VERTEX
8
0
62
255
10
2.5093981
20
124.7175
30
0
70
32
0
VERTEX
8
0
62
255
10
2.4204823
20
124.68353
30
0
70
32
0
VERTEX
8
0
62
255
10
2.3339001
20
124.64399
30
0
70
32
0
VERTEX
8
0
62
255
10
2.25
20
124.59904
30
0
70
32
0
VERTEX
8
0
62
255
10
2.1691199
20
124.54885
30
0
70
32
0
VERTEX
8
0
62
255
10
2.0915855
20
124.49364
30
0
70
32
0
VERTEX
8
0
62
255
10
2.0177089
20
124.43362
30
0
70
32
0
VERTEX
8
0
62
255
10
1.9477877
20
124.36904
30
0
70
32
0
VERTEX
8
0
62
255
10
1.8821033
20
124.30015
30
0
70
32
0
VERTEX
8
0
62
255
10
1.8209204
20
124.22724
30
0
70
32
0
VERTEX
8
0
62
255
10
1.7644851
20
124.15059
30
0
70
32
0
VERTEX
8
0
62
255
10
1.7130249
20
124.07052
30
0
70
32
0
VERTEX
8
0
62
255
10
1.6667468
20
123.98734
30
0
70
32
0
VERTEX
8
0
62
255
10
1.6258373
20
123.9014
30
0
70
32
0
VERTEX
8
0
62
255
10
1.5904611
20
123.81303
30
0
70
32
0
VERTEX
8
0
62
255
10
1.5607605
20
123.7226
30
0
70
32
0
VERTEX
8
0
62
255
10
1.5368553
20
123.63047
30
0
70
32
0
VERTEX
8
0
62
255
10
1.5188417
20
123.537
30
0
70
32
0
VERTEX
8
0
62
255
10
1.5067921
20
123.44258
30
0
70
32
0
VERTEX
8
0
62
255
10
1.5007552
20
123.34759
30
0
70
32
0
VERTEX
8
0
62
255
10
1.5007552
20
123.25241
30
0
70
32
0
VERTEX
8
0
62
255
10
1.5067921
20
123.15742
30
0
70
32
0
VERTEX
8
0
62
255
10
1.5188417
20
123.063
30
0
70
32
0
VERTEX
8
0
62
255
10
1.5368553
20
122.96953
30
0
70
32
0
VERTEX
8
0
62
255
10
1.5607605
20
122.8774
30
0
70
32
0
VERTEX
8
0
62
255
10
1.5904611
20
122.78697
30
0
70
32
0
VERTEX
8
0
62
255
10
1.6258373
20
122.6986
30
0
70
32
0
VERTEX
8
0
62
255
10
1.6667468
20
122.61266
30
0
70
32
0
VERTEX
8
0
62
255
10
1.7130249
20
122.52948
30
0
70
32
0
VERTEX
8
0
62
255
10
1.7644851
20
122.44941
30
0
70
32
0
VERTEX
8
0
62
255
10
1.8209204
20
122.37276
30
0
70
32
0
VERTEX
8
0
62
255
10
1.8821033
20
122.29985
30
0
70
32
0
VERTEX
8
0
62
255
10
1.9477877
20
122.23096
30
0
70
32
0
VERTEX
8
0
62
255
10
2.0177089
20
122.16638
30
0
70
32
0
VERTEX
8
0
62
255
10
2.0915855
20
122.10636
30
0
70
32
0
VERTEX
8
0
62
255
10
2.1691199
20
122.05115
30
0
70
32
0
VERTEX
8
0
62
255
10
2.25
20
122.00096
30
0
70
32
0
VERTEX
8
0
62
255
10
2.3339001
20
121.95601
30
0
70
32
0
VERTEX
8
0
62
255
10
2.4204823
20
121.91647
30
0
70
32
0
VERTEX
8
0
62
255
10
2.5093981
20
121.8825
30
0
70
32
0
VERTEX
8
0
62
255
10
2.6002893
20
121.85424
30
0
70
32
0
VERTEX
8
0
62
255
10
2.69279
20
121.8318
30
0
70
32
0
VERTEX
8
0
62
255
10
2.7865277
20
121.81527
30
0
70
32
0
VERTEX
8
0
62
255
10
2.8811251
20
121.80472
30
0
70
32
0
VERTEX
8
0
62
255
10
2.9762011
20
121.80019
30
0
70
32
0
VERTEX
8
0
62
255
10
3.0713729
20
121.8017
30
0
70
32
0
VERTEX
8
0
62
255
10
3.1662573
20
121.80924
30
0
70
32
0
VERTEX
8
0
62
255
10
3.2604723
20
121.82279
30
0
70
32
0
VERTEX
8
0
62
255
10
3.3536384
20
121.84228
30
0
70
32
0
VERTEX
8
0
62
255
10
3.4453806
20
121.86765
30
0
70
32
0
VERTEX
8
0
62
255
10
3.5353293
20
121.89878
30
0
70
32
0
VERTEX
8
0
62
255
10
3.6231225
20
121.93555
30
0
70
32
0
VERTEX
8
0
62
255
10
3.7084066
20
121.97782
30
0
70
32
0
VERTEX
8
0
62
255
10
3.7908382
20
122.02541
30
0
70
32
0
VERTEX
8
0
62
255
10
3.8700854
20
122.07814
30
0
70
32
0
VERTEX
8
0
62
255
10
3.945829
20
122.13578
30
0
70
32
0
VERTEX
8
0
62
255
10
4.0177641
20
122.19811
30
0
70
32
0
VERTEX
8
0
62
255
10
4.0856011
20
122.26488
30
0
70
32
0
VERTEX
8
0
62
255
10
4.1490667
20
122.33582
30
0
70
32
0
VERTEX
8
0
62
255
10
4.2079054
20
122.41064
30
0
70
32
0
VERTEX
8
0
62
255
10
4.2618803
20
122.48904
30
0
70
32
0
VERTEX
8
0
62
255
10
4.3107741
20
122.5707
30
0
70
32
0
VERTEX
8
0
62
255
10
4.3543898
20
122.65531
30
0
70
32
0
VERTEX
8
0
62
255
10
4.3925519
20
122.74251
30
0
70
32
0
VERTEX
8
0
62
255
10
4.4251067
20
122.83195
30
0
70
32
0
VERTEX
8
0
62
255
10
4.4519231
20
122.92328
30
0
70
32
0
VERTEX
8
0
62
255
10
4.472893
20
123.01612
30
0
70
32
0
VERTEX
8
0
62
255
10
4.4879322
20
123.11011
30
0
70
32
0
VERTEX
8
0
62
255
10
4.49698
20
123.20486
30
0
70
32
0
VERTEX
8
0
62
255
10
4.5
20
123.3
30
0
70
32
0
SEQEND
8
0
0
POLYLINE
8
0
62
255
66
1
10
0
20
0
30
0
70
8
0
VERTEX
8
0
62
255
10
21.797996
20
123.3
30
0
70
32
0
VERTEX
8
0
62
255
10
21.794976
20
123.39514
30
0
70
32
0
VERTEX
8
0
62
255
10
21.785929
20
123.48989
30
0
70
32
0
VERTEX
8
0
62
255
10
21.770889
20
123.58388
30
0
70
32
0
VERTEX
8
0
62
255
10
21.749919
20
123.67672
30
0
70
32
0
VERTEX
8
0
62
255
10
21.723103
20
123.76805
30
0
70
32
0
VERTEX
8
0
62
255
10
21.690548
20
123.85749
30
0
70
32
0
VERTEX
8
0
62
255
10
21.652386
20
123.94469
30
0
70
32
0
VERTEX
8
0
62
255
10
21.60877
20
124.0293
30
0
70
32
0
VERTEX
8
0
62
255
10
21.559877
20
124.11096
30
0
70
32
0
VERTEX
8
0
62
255
10
21.505902
20
124.18936
30
0
70
32
0
VERTEX
8
0
62
255
10
21.447063
20
124.26418
30
0
70
32
0
VERTEX
8
0
62
255
10
21.383597
20
124.33512
30
0
70
32
0
VERTEX
8
0
62
255
10
21.315761
20
124.40189
30
0
70
32
0
VERTEX
8
0
62
255
10
21.243825
20
124.46422
30
0
70
32
0
VERTEX
8
0
62
255
10
21.168082
20
124.52186
30
0
70
32
0
VERTEX
8
0
62
255
10
21.088835
20
124.57459
30
0
70
32
0
VERTEX
8
0
62
255
10
21.006403
20
124.62218
30
0
70
32
0
VERTEX
8
0
62
255
10
20.921119
20
124.66445
30
0
70
32
0
VERTEX
8
0
62
255
10
20.833326
20
124.70122
30
0
70
32
0
VERTEX
8
0
62
255
10
20.743377
20
124.73235
30
0
70
32
0
VERTEX
8
0
62
255
10
20.651635
20
124.75772
30
0
70
32
0
VERTEX
8
0
62
255
10
20.558469
20
124.77721
30
0
70
32
0
VERTEX
8
0
62
255
10
20.464254
20
124.79076
30
0
70
32
0
VERTEX
8
0
62
255
10
20.369369
20
124.7983
30
0
70
32
0
VERTEX
8
0
62
255
10
20.274197
20
124.79981
30
0
70
32
0
VERTEX
8
0
62
255
10
20.179121
20
124.79528
30
0
70
32
0
VERTEX
8
0
62
255
10
20.084524
20
124.78473
30
0
70
32
0
VERTEX
8
0
62
255
10
19.990786
20
124.7682
30
0
70
32
0
VERTEX
8
0
62
255
10
19.898286
20
124.74576
30
0
70
32
0
VERTEX
8
0
62
255
10
19.807394
20
124.7175
30
0
70
32
0
VERTEX
8
0
62
255
10
19.718479
20
124.68353
30
0
70
32
0
VERTEX
8
0
62
255
10
19.631896
20
124.64399
30
0
70
32
0
VERTEX
8
0
62
255
10
19.547996
20
124.59904
30
0
70
32
0
VERTEX
8
0
62
255
10
19.467116
20
124.54885
30
0
70
32
0
VERTEX
8
0
62
255
10
19.389582
20
124.49364
30
0
70
32
0
VERTEX
8
0
62
255
10
19.315705
20
124.43362
30
0
70
32
0
VERTEX
8
0
62
255
10
19.245784
20
124.36904
30
0
70
32
0
VERTEX
8
0
62
255
10
19.1801
20
124.30015
30
0
70
32
0
VERTEX
8
0
62
255
10
19.118917
20
124.22724
30
0
70
32
0
VERTEX
8
0
62
255
10
19.062482
20
124.15059
30
0
70
32
0
VERTEX
8
0
62
255
10
19.011021
20
124.07052
30
0
70
32
0
VERTEX
8
0
62
255
10
18.964743
20
123.98734
30
0
70
32
0
VERTEX
8
0
62
255
10
18.923834
20
123.9014
30
0
70
32
0
VERTEX
8
0
62
255
10
18.888457
20
123.81303
30
0
70
32
0
VERTEX
8
0
62
255
10
18.858757
20
123.7226
30
0
70
32
0
VERTEX
8
0
62
255
10
18.834852
20
123.63047
30
0
70
32
0
VERTEX
8
0
62
255
10
18.816838
20
123.537
30
0
70
32
0
VERTEX
8
0
62
255
10
18.804789
20
123.44258
30
0
70
32
0
VERTEX
8
0
62
255
10
18.798752
20
123.34759
30
0
70
32
0
VERTEX
8
0
62
255
10
18.798752
20
123.25241
30
0
70
32
0
VERTEX
8
0
62
255
10
18.804789
20
123.15742
30
0
70
32
0
VERTEX
8
0
62
255
10
18.816838
20
123.063
30
0
70
32
0
VERTEX
8
0
62
255
10
18.834852
20
122.96953
30
0
70
32
0
VERTEX
8
0
62
255
10
18.858757
20
122.8774
30
0
70
32
0
VERTEX
8
0
62
255
10
18.888457
20
122.78697
30
0
70
32
0
VERTEX
8
0
62
255
10
18.923834
20
122.6986
30
0
70
32
0
VERTEX
8
0
62
255
10
18.964743
20
122.61266
30
0
70
32
0
VERTEX
8
0
62
255
10
19.011021
20
122.52948
30
0
70
32
0
VERTEX
8
0
62
255
10
19.062482
20
122.44941
30
0
70
32
0
VERTEX
8
0
62
255
10
19.118917
20
122.37276
30
0
70
32
0
VERTEX
8
0
62
255
10
19.1801
20
122.29985
30
0
70
32
0
VERTEX
8
0
62
255
10
19.245784
20
122.23096
30
0
70
32
0
VERTEX
8
0
62
255
10
19.315705
20
122.16638
30
0
70
32
0
VERTEX
8
0
62
255
10
19.389582
20
122.10636
30
0
70
32
0
VERTEX
8
0
62
255
10
19.467116
20
122.05115
30
0
70
32
0
VERTEX
8
0
62
255
10
19.547996
20
122.00096
30
0
70
32
0
VERTEX
8
0
62
255
10
19.631896
20
121.95601
30
0
70
32
0
VERTEX
8
0
62
255
10
19.718479
20
121.91647
30
0
70
32
0
VERTEX
8
0
62
255
10
19.807394
20
121.8825
30
0
70
32
0
VERTEX
8
0
62
255
10
19.898286
20
121.85424
30
0
70
32
0
VERTEX
8
0
62
255
10
19.990786
20
121.8318
30
0
70
32
0
VERTEX
8
0
62
255
10
20.084524
20
121.81527
30
0
70
32
0
VERTEX
8
0
62
255
10
20.179121
20
121.80472
30
0
70
32
0
VERTEX
8
0
62
255
10
20.274197
20
121.80019
30
0
70
32
0
VERTEX
8
0
62
255
10
20.369369
20
121.8017
30
0
70
32
0
VERTEX
8
0
62
255
10
20.464254
20
121.80924
30
0
70
32
0
VERTEX
8
0
62
255
10
20.558469
20
121.82279
30
0
70
32
0
VERTEX
8
0
62
255
10
20.651635
20
121.84228
30
0
70
32
0
VERTEX
8
0
62
255
10
20.743377
20
121.86765
30
0
70
32
0
VERTEX
8
0
62
255
10
20.833326
20
121.89878
30
0
70
32
0
VERTEX
8
0
62
255
10
20.921119
20
121.93555
30
0
70
32
0
VERTEX
8
0
62
255
10
21.006403
20
121.97782
30
0
70
32
0
VERTEX
8
0
62
255
10
21.088835
20
122.02541
30
0
70
32
0
VERTEX
8
0
62
255
10
21.168082
20
122.07814
30
0
70
32
0
VERTEX
8
0
62
255
10
21.243825
20
122.13578
30
0
70
32
0
VERTEX
8
0
62
255
10
21.315761
20
122.19811
30
0
70
32
0
VERTEX
8
0
62
255
10
21.383597
20
122.26488
30
0
70
32
0
VERTEX
8
0
62
255
10
21.447063
20
122.33582
30
0
70
32
0
VERTEX
8
0
62
255
10
21.505902
20
122.41064
30
0
70
32
0
VERTEX
8
0
62
255
10
21.559877
20
122.48904
30
0
70
32
0
VERTEX
8
0
62
255
10
21.60877
20
122.5707
30
0
70
32
0
VERTEX
8
0
62
255
10
21.652386
20
122.65531
30
0
70
32
0
VERTEX
8
0
62
255
10
21.690548
20
122.74251
30
0
70
32
0
VERTEX
8
0
62
255
10
21.723103
20
122.83195
30
0
70
32
0
VERTEX
8
0
62
255
10
21.749919
20
122.92328
30
0
70
32
0
VERTEX
8
0
62
255
10
21.770889
20
123.01612
30
0
70
32
0
VERTEX
8
0
62
255
10
21.785929
20
123.11011
30
0
70
32
0
VERTEX
8
0
62
255
10
21.794976
20
123.20486
30
0
70
32
0
VERTEX
8
0
62
255
10
21.797996
20
123.3
30
0
70
32
0
SEQEND
8
0
0
POLYLINE
8
0
62
255
66
1
10
0
20
0
30
0
70
8
0
VERTEX
8
0
62
255
10
-30.824499
20
-41.965442
30
0
70
32
0
VERTEX
8
0
62
255
10
-29.966449
20
-41.965442
30
0
70
32
0
VERTEX
8
0
62
255
10
-29.108398
20
-41.965442
30
0
70
32
0
VERTEX
8
0
62
255
10
-28.250348
20
-41.965442
30
0
70
32
0
VERTEX
8
0
62
255
10
-27.392297
20
-41.965442
30
0
70
32
0
VERTEX
8
0
62
255
10
-26.534247
20
-41.965442
30
0
70
32
0
VERTEX
8
0
62
255
10
-25.676196
20
-41.965442
30
0
70
32
0
VERTEX
8
0
62
255
10
-24.818146
20
-41.965442
30
0
70
32
0
VERTEX
8
0
62
255
10
-23.960095
20
-41.965442
30
0
70
32
0
VERTEX
8
0
62
255
10
-23.102045
20
-41.965442
30
0
70
32
0
VERTEX
8
0
62
255
10
-22.243995
20
-41.965442
30
0
70
32
0
VERTEX
8
0
62
255
10
-21.385944
20
-41.965442
30
0
70
32
0
VERTEX
8
0
62
255
10
-20.527894
20
-41.965442
30
0
70
32
0
VERTEX
8
0
62
255
10
-19.669843
20
-41.965442
30
0
70
32
0
VERTEX
8
0
62
255
10
-18.811793
20
-41.965442
30
0
70
32
0
VERTEX
8
0
62
255
10
-17.953742
20
-41.965442
30
0
70
32
0
VERTEX
8
0
62
255
10
-17.095692
20
-41.965442
30
0
70
32
0
VERTEX
8
0
62
255
10
-16.237641
20
-41.965442
30
0
70
32
0
VERTEX
8
0
62
255
10
-15.379591
20
-41.965442
30
0
70
32
0
VERTEX
8
0
62
255
10
-14.521541
20
-41.965442
30
0
70
32
0
VERTEX
8
0
62
255
10
-13.66349
20
-41.965442
30
0
70
32
0
VERTEX
8
0
62
255
10
-12.80544
20
-41.965442
30
0
70
32
0
VERTEX
8
0
62
255
10
-11.947389
20
-41.965442
30
0
70
32
0
VERTEX
8
0
62
255
10
-11.089339
20
-41.965442
30
0
70
32
0
VERTEX
8
0
62
255
10
-10.231288
20
-41.965442
30
0
70
32
0
VERTEX
8
0
62
255
10
-9.3732378
20
-41.965442
30
0
70
32
0
VERTEX
8
0
62
255
10
-8.5151874
20
-41.965442
30
0
70
32
0
VERTEX
8
0
62
255
10
-7.6571369
20
-41.965442
30
0
70
32
0
VERTEX
8
0
62
255
10
-6.7990865
20
-41.965442
30
0
70
32
0
VERTEX
8
0
62
255
10
-5.941036
20
-41.965442
30
0
70
32
0
VERTEX
8
0
62
255
10
-5.0829856
20
-41.965442
30
0
70
32
0
VERTEX
8
0
62
255
10
-4.2249351
20
-41.965442
30
0
70
32
0
VERTEX
8
0
62
255
10
-3.3668847
20
-41.965442
30
0
70
32
0
VERTEX
8
0
62
255
10
-2.5088342
20
-41.965442
30
0
70
32
0
VERTEX
8
0
62
255
10
-1.6507838
20
-41.965442
30
0
70
32
0
VERTEX
8
0
62
255
10
-0.79273333
20
-41.965442
30
0
70
32
0
VERTEX
8
0
62
255
10
0.065317123
20
-41.965442
30
0
70
32
0
VERTEX
8
0
62
255
10
0.92336757
20
-41.965442
30
0
70
32
0
VERTEX
8
0
62
255
10
1.781418
20
-41.965442
30
0
70
32
0
VERTEX
8
0
62
255
10
2.6394685
20
-41.965442
30
0
70
32
0
VERTEX
8
0
62
255
10
3.4975189
20
-41.965442
30
0
70
32
0
VERTEX
8
0
62
255
10
4.3555694
20
-41.965442
30
0
70
32
0
VERTEX
8
0
62
255
10
5.2136198
20
-41.965442
30
0
70
32
0
VERTEX
8
0
62
255
10
6.0716703
20
-41.965442
30
0
70
32
0
VERTEX
8
0
62
255
10
6.9297207
20
-41.965442
30
0
70
32
0
VERTEX
8
0
62
255
10
7.7877712
20
-41.965442
30
0
70
32
0
VERTEX
8
0
62
255
10
8.6458216
20
-41.965442
30
0
70
32
0
VERTEX
8
0
62
255
10
9.5038721
20
-41.965442
30
0
70
32
0
VERTEX
8
0
62
255
10
10.361923
20
-41.965442
30
0
70
32
0
VERTEX
8
0
62
255
10
11.219973
20
-41.965442
30
0
70
32
0
VERTEX
8
0
62
255
10
12.078023
20
-41.965442
30
0
70
32
0
VERTEX
8
0
62
255
10
12.936074
20
-41.965442
30
0
70
32
0
VERTEX
8
0
62
255
10
13.794124
20
-41.965442
30
0
70
32
0
VERTEX
8
0
62
255
10
14.652175
20
-41.965442
30
0
70
32
0
VERTEX
8
0
62
255
10
15.510225
20
-41.965442
30
0
70
32
0
VERTEX
8
0
62
255
10
16.368276
20
-41.965442
30
0
70
32
0
VERTEX
8
0
62
255
10
17.226326
20
-41.965442
30
0
70
32
0
VERTEX
8
0
62
255
10
18.084377
20
-41.965442
30
0
70
32
0
VERTEX
8
0
62
255
10
18.942427
20
-41.965442
30
0
70
32
0
VERTEX
8
0
62
255
10
19.800477
20
-41.965442
30
0
70
32
0
VERTEX
8
0
62
255
10
20.658528
20
-41.965442
30
0
70
32
0
VERTEX
8
0
62
255
10
21.516578
20
-41.965442
30
0
70
32
0
VERTEX
8
0
62
255
10
22.374629
20
-41.965442
30
0
70
32
0
VERTEX
8
0
62
255
10
23.232679
20
-41.965442
30
0
70
32
0
VERTEX
8
0
62
255
10
24.09073
20
-41.965442
30
0
70
32
0
VERTEX
8
0
62
255
10
24.94878
20
-41.965442
30
0
70
32
0
VERTEX
8
0
62
255
10
25.806831
20
-41.965442
30
0
70
32
0
VERTEX
8
0
62
255
10
26.664881
20
-41.965442
30
0
70
32
0
VERTEX
8
0
62
255
10
27.522932
20
-41.965442
30
0
70
32
0
VERTEX
8
0
62
255
10
28.380982
20
-41.965442
30
0
70
32
0
VERTEX
8
0
62
255
10
29.239032
20
-41.965442
30
0
70
32
0
VERTEX
8
0
62
255
10
30.097083
20
-41.965442
30
0
70
32
0
VERTEX
8
0
62
255
10
30.955133
20
-41.965442
30
0
70
32
0
VERTEX
8
0
62
255
10
31.813184
20
-41.965442
30
0
70
32
0
VERTEX
8
0
62
255
10
32.671234
20
-41.965442
30
0
70
32
0
VERTEX
8
0
62
255
10
33.529285
20
-41.965442
30
0
70
32
0
VERTEX
8
0
62
255
10
34.387335
20
-41.965442
30
0
70
32
0
VERTEX
8
0
62
255
10
35.245386
20
-41.965442
30
0
70
32
0
VERTEX
8
0
62
255
10
36.103436
20
-41.965442
30
0
70
32
0
VERTEX
8
0
62
255
10
36.961487
20
-41.965442
30
0
70
32
0
VERTEX
8
0
62
255
10
37.819537
20
-41.965442
30
0
70
32
0
VERTEX
8
0
62
255
10
38.677587
20
-41.965442
30
0
70
32
0
VERTEX
8
0
62
255
10
39.535638
20
-41.965442
30
0
70
32
0
VERTEX
8
0
62
255
10
40.393688
20
-41.965442
30
0
70
32
0
VERTEX
8
0
62
255
10
41.251739
20
-41.965442
30
0
70
32
0
VERTEX
8
0
62
255
10
42.109789
20
-41.965442
30
0
70
32
0
VERTEX
8
0
62
255
10
42.96784
20
-41.965442
30
0
70
32
0
VERTEX
8
0
62
255
10
43.82589
20
-41.965442
30
0
70
32
0
VERTEX
8
0
62
255
10
44.683941
20
-41.965442
30
0
70
32
0
VERTEX
8
0
62
255
10
45.541991
20
-41.965442
30
0
70
32
0
VERTEX
8
0
62
255
10
46.400041
20
-41.965442
30
0
70
32
0
VERTEX
8
0
62
255
10
47.258092
20
-41.965442
30
0
70
32
0
VERTEX
8
0
62
255
10
48.116142
20
-41.965442
30
0
70
32
0
VERTEX
8
0
62
255
10
48.974193
20
-41.965442
30
0
70
32
0
VERTEX
8
0
62
255
10
49.832243
20
-41.965442
30
0
70
32
0
VERTEX
8
0
62
255
10
50.690294
20
-41.965442
30
0
70
32
0
VERTEX
8
0
62
255
10
51.548344
20
-41.965442
30
0
70
32
0
VERTEX
8
0
62
255
10
52.406395
20
-41.965442
30
0
70
32
0
VERTEX
8
0
62
255
10
53.264445
20
-41.965442
30
0
70
32
0
VERTEX
8
0
62
255
10
54.122496
20
-41.965442
30
0
70
32
0
SEQEND
8
0
0
POLYLINE
8
0
62
255
66
1
10
0
20
0
30
0
70
8
0
VERTEX
8
0
62
255
10
54.122496
20
-41.965442
30
0
70
32
0
VERTEX
8
0
62
255
10
54.122496
20
-39.917655
30
0
70
32
0
VERTEX
8
0
62
255
10
54.122496
20
-37.869869
30
0
70
32
0
VERTEX
8
0
62
255
10
54.122496
20
-35.822082
30
0
70
32
0
VERTEX
8
0
62
255
10
54.122496
20
-33.774295
30
0
70
32
0
VERTEX
8
0
62
255
10
54.122496
20
-31.726509
30
0
70
32
0
VERTEX
8
0
62
255
10
54.122496
20
-29.678722
30
0
70
32
0
VERTEX
8
0
62
255
10
54.122496
20
-27.630935
30
0
70
32
0
VERTEX
8
0
62
255
10
54.122496
20
-25.583148
30
0
70
32
0
VERTEX
8
0
62
255
10
54.122496
20
-23.535362
30
0
70
32
0
VERTEX
8
0
62
255
10
54.122496
20
-21.487575
30
0
70
32
0
VERTEX
8
0
62
255
10
54.122496
20
-19.439788
30
0
70
32
0
VERTEX
8
0
62
255
10
54.122496
20
-17.392002
30
0
70
32
0
VERTEX
8
0
62
255
10
54.122496
20
-15.344215
30
0
70
32
0
VERTEX
8
0
62
255
10
54.122496
20
-13.296428
30
0
70
32
0
VERTEX
8
0
62
255
10
54.122496
20
-11.248641
30
0
70
32
0
VERTEX
8
0
62
255
10
54.122496
20
-9.2008548
30
0
70
32
0
VERTEX
8
0
62
255
10
54.122496
20
-7.153068
30
0
70
32
0
VERTEX
8
0
62
255
10
54.122496
20
-5.1052813
30
0
70
32
0
VERTEX
8
0
62
255
10
54.122496
20
-3.0574946
30
0
70
32
0
VERTEX
8
0
62
255
10
54.122496
20
-1.0097079
30
0
70
32
0
VERTEX
8
0
62
255
10
54.122496
20
1.0380788
30
0
70
32
0
VERTEX
8
0
62
255
10
54.122496
20
3.0858655
30
0
70
32
0
VERTEX
8
0
62
255
10
54.122496
20
5.1336522
30
0
70
32
0
VERTEX
8
0
62
255
10
54.122496
20
7.1814389
30
0
70
32
0
VERTEX
8
0
62
255
10
54.122496
20
9.2292256
30
0
70
32
0
VERTEX
8
0
62
255
10
54.122496
20
11.277012
30
0
70
32
0
VERTEX
8
0
62
255
10
54.122496
20
13.324799
30
0
70
32
0
VERTEX
8
0
62
255
10
54.122496
20
15.372586
30
0
70
32
0
VERTEX
8
0
62
255
10
54.122496
20
17.420372
30
0
70
32
0
VERTEX
8
0
62
255
10
54.122496
20
19.468159
30
0
70
32
0
VERTEX
8
0
62
255
10
54.122496
20
21.515946
30
0
70
32
0
VERTEX
8
0
62
255
10
54.122496
20
23.563733
30
0
70
32
0
VERTEX
8
0
62
255
10
54.122496
20
25.611519
30
0
70
32
0
VERTEX
8
0
62
255
10
54.122496
20
27.659306
30
0
70
32
0
VERTEX
8
0
62
255
10
54.122496
20
29.707093
30
0
70
32
0
VERTEX
8
0
62
255
10
54.122496
20
31.754879
30
0
70
32
0
VERTEX
8
0
62
255
10
54.122496
20
33.802666
30
0
70
32
0
VERTEX
8
0
62
255
10
54.122496
20
35.850453
30
0
70
32
0
VERTEX
8
0
62
255
10
54.122496
20
37.89824
30
0
70
32
0
VERTEX
8
0
62
255
10
54.122496
20
39.946026
30
0
70
32
0
VERTEX
8
0
62
255
10
54.122496
20
41.993813
30
0
70
32
0
VERTEX
8
0
62
255
10
54.122496
20
44.0416
30
0
70
32
0
VERTEX
8
0
62
255
10
54.122496
20
46.089386
30
0
70
32
0
VERTEX
8
0
62
255
10
54.122496
20
48.137173
30
0
70
32
0
VERTEX
8
0
62
255
10
54.122496
20
50.18496
30
0
70
32
0
VERTEX
8
0
62
255
10
54.122496
20
52.232747
30
0
70
32
0
VERTEX
8
0
62
255
10
54.122496
20
54.280533
30
0
70
32
0
VERTEX
8
0
62
255
10
54.122496
20
56.32832
30
0
70
32
0
VERTEX
8
0
62
255
10
54.122496
20
58.376107
30
0
70
32
0
VERTEX
8
0
62
255
10
54.122496
20
60.423893
30
0
70
32
0
VERTEX
8
0
62
255
10
54.122496
20
62.47168
30
0
70
32
0
VERTEX
8
0
62
255
10
54.122496
20
64.519467
30
0
70
32
0
VERTEX
8
0
62
255
10
54.122496
20
66.567253
30
0
70
32
0
VERTEX
8
0
62
255
10
54.122496
20
68.61504
30
0
70
32
0
VERTEX
8
0
62
255
10
54.122496
20
70.662827
30
0
70
32
0
VERTEX
8
0
62
255
10
54.122496
20
72.710614
30
0
70
32
0
VERTEX
8
0
62
255
10
54.122496
20
74.7584
30
0
70
32
0
VERTEX
8
0
62
255
10
54.122496
20
76.806187
30
0
70
32
0
VERTEX
8
0
62
255
10
54.122496
20
78.853974
30
0
70
32
0
VERTEX
8
0
62
255
10
54.122496
20
80.90176
30
0
70
32
0
VERTEX
8
0
62
255
10
54.122496
20
82.949547
30
0
70
32
0
VERTEX
8
0
62
255
10
54.122496
20
84.997334
30
0
70
32
0
VERTEX
8
0
62
255
10
54.122496
20
87.045121
30
0
70
32
0
VERTEX
8
0
62
255
10
54.122496
20
89.092907
30
0
70
32
0
VERTEX
8
0
62
255
10
54.122496
20
91.140694
30
0
70
32
0
VERTEX
8
0
62
255
10
54.122496
20
93.188481
30
0
70
32
0
VERTEX
8
0
62
255
10
54.122496
20
95.236267
30
0
70
32
0
VERTEX
8
0
62
255
10
54.122496
20
97.284054
30
0
70
32
0
VERTEX
8
0
62
255
10
54.122496
20
99.331841
30
0
70
32
0
VERTEX
8
0
62
255
10
54.122496
20
101.37963
30
0
70
32
0
VERTEX
8
0
62
255
10
54.122496
20
103.42741
30
0
70
32
0
VERTEX
8
0
62
255
10
54.122496
20
105.4752
30
0
70
32
0
VERTEX
8
0
62
255
10
54.122496
20
107.52299
30
0
70
32
0
VERTEX
8
0
62
255
10
54.122496
20
109.57077
30
0
70
32
0
VERTEX
8
0
62
255
10
54.122496
20
111.61856
30
0
70
32
0
VERTEX
8
0
62
255
10
54.122496
20
113.66635
30
0
70
32
0
VERTEX
8
0
62
255
10
54.122496
20
115.71413
30
0
70
32
0
VERTEX
8
0
62
255
10
54.122496
20
117.76192
30
0
70
32
0
VERTEX
8
0
62
255
10
54.122496
20
119.80971
30
0
70
32
0
VERTEX
8
0
62
255
10
54.122496
20
121.85749
30
0
70
32
0
VERTEX
8
0
62
255
10
54.122496
20
123.90528
30
0
70
32
0
VERTEX
8
0
62
255
10
54.122496
20
125.95307
30
0
70
32
0
VERTEX
8
0
62
255
10
54.122496
20
128.00085
30
0
70
32
0
VERTEX
8
0
62
255
10
54.122496
20
130.04864
30
0
70
32
0
VERTEX
8
0
62
255
10
54.122496
20
132.09643
30
0
70
32
0
VERTEX
8
0
62
255
10
54.122496
20
134.14421
30
0
70
32
0
VERTEX
8
0
62
255
10
54.122496
20
136.192
30
0
70
32
0
VERTEX
8
0
62
255
10
54.122496
20
138.23979
30
0
70
32
0
VERTEX
8
0
62
255
10
54.122496
20
140.28758
30
0
70
32
0
VERTEX
8
0
62
255
10
54.122496
20
142.33536
30
0
70
32
0
VERTEX
8
0
62
255
10
54.122496
20
144.38315
30
0
70
32
0
VERTEX
8
0
62
255
10
54.122496
20
146.43094
30
0
70
32
0
VERTEX
8
0
62
255
10
54.122496
20
148.47872
30
0
70
32
0
VERTEX
8
0
62
255
10
54.122496
20
150.52651
30
0
70
32
0
VERTEX
8
0
62
255
10
54.122496
20
152.5743
30
0
70
32
0
VERTEX
8
0
62
255
10
54.122496
20
154.62208
30
0
70
32
0
VERTEX
8
0
62
255
10
54.122496
20
156.66987
30
0
70
32
0
VERTEX
8
0
62
255
10
54.122496
20
158.71766
30
0
70
32
0
VERTEX
8
0
62
255
10
54.122496
20
160.76544
30
0
70
32
0
SEQEND
8
0
0
POLYLINE
8
0
62
255
66
1
10
0
20
0
30
0
70
8
0
VERTEX
8
0
62
255
10
54.122496
20
160.76544
30
0
70
32
0
VERTEX
8
0
62
255
10
53.264445
20
160.76544
30
0
70
32
0
VERTEX
8
0
62
255
10
52.406395
20
160.76544
30
0
70
32
0
VERTEX
8
0
62
255
10
51.548344
20
160.76544
30
0
70
32
0
VERTEX
8
0
62
255
10
50.690294
20
160.76544
30
0
70
32
0
VERTEX
8
0
62
255
10
49.832243
20
160.76544
30
0
70
32
0
VERTEX
8
0
62
255
10
48.974193
20
160.76544
30
0
70
32
0
VERTEX
8
0
62
255
10
48.116142
20
160.76544
30
0
70
32
0
VERTEX
8
0
62
255
10
47.258092
20
160.76544
30
0
70
32
0
VERTEX
8
0
62
255
10
46.400041
20
160.76544
30
0
70
32
0
VERTEX
8
0
62
255
10
45.541991
20
160.76544
30
0
70
32
0
VERTEX
8
0
62
255
10
44.683941
20
160.76544
30
0
70
32
0
VERTEX
8
0
62
255
10
43.82589
20
160.76544
30
0
70
32
0
VERTEX
8
0
62
255
10
42.96784
20
160.76544
30
0
70
32
0
VERTEX
8
0
62
255
10
42.109789
20
160.76544
30
0
70
32
0
VERTEX
8
0
62
255
10
41.251739
20
160.76544
30
0
70
32
0
VERTEX
8
0
62
255
10
40.393688
20
160.76544
30
0
70
32
0
VERTEX
8
0
62
255
10
39.535638
20
160.76544
30
0
70
32
0
VERTEX
8
0
62
255
10
38.677587
20
160.76544
30
0
70
32
0
VERTEX
8
0
62
255
10
37.819537
20
160.76544
30
0
70
32
0
VERTEX
8
0
62
255
10
36.961487
20
160.76544
30
0
70
32
0
VERTEX
8
0
62
255
10
36.103436
20
160.76544
30
0
70
32
0
VERTEX
8
0
62
255
10
35.245386
20
160.76544
30
0
70
32
0
VERTEX
8
0
62
255
10
34.387335
20
160.76544
30
0
70
32
0
VERTEX
8
0
62
255
10
33.529285
20
160.76544
30
0
70
32
0
VERTEX
8
0
62
255
10
32.671234
20
160.76544
30
0
70
32
0
VERTEX
8
0
62
255
10
31.813184
20
160.76544
30
0
70
32
0
VERTEX
8
0
62
255
10
30.955133
20
160.76544
30
0
70
32
0
VERTEX
8
0
62
255
10
30.097083
20
160.76544
30
0
70
32
0
VERTEX
8
0
62
255
10
29.239032
20
160.76544
30
0
70
32
0
VERTEX
8
0
62
255
10
28.380982
20
160.76544
30
0
70
32
0
VERTEX
8
0
62
255
10
27.522932
20
160.76544
30
0
70
32
0
VERTEX
8
0
62
255
10
26.664881
20
160.76544
30
0
70
32
0
VERTEX
8
0
62
255
10
25.806831
20
160.76544
30
0
70
32
0
VERTEX
8
0
62
255
10
24.94878
20
160.76544
30
0
70
32
0
VERTEX
8
0
62
255
10
24.09073
20
160.76544
30
0
70
32
0
VERTEX
8
0
62
255
10
23.232679
20
160.76544
30
0
70
32
0
VERTEX
8
0
62
255
10
22.374629
20
160.76544
30
0
70
32
0
VERTEX
8
0
62
255
10
21.516578
20
160.76544
30
0
70
32
0
VERTEX
8
0
62
255
10
20.658528
20
160.76544
30
0
70
32
0
VERTEX
8
0
62
255
10
19.800477
20
160.76544
30
0
70
32
0
VERTEX
8
0
62
255
10
18.942427
20
160.76544
30
0
70
32
0
VERTEX
8
0
62
255
10
18.084377
20
160.76544
30
0
70
32
0
VERTEX
8
0
62
255
10
17.226326
20
160.76544
30
0
70
32
0
VERTEX
8
0
62
255
10
16.368276
20
160.76544
30
0
70
32
0
VERTEX
8
0
62
255
10
15.510225
20
160.76544
30
0
70
32
0
VERTEX
8
0
62
255
10
14.652175
20
160.76544
30
0
70
32
0
VERTEX
8
0
62
255
10
13.794124
20
160.76544
30
0
70
32
0
VERTEX
8
0
62
255
10
12.936074
20
160.76544
30
0
70
32
0
VERTEX
8
0
62
255
10
12.078023
20
160.76544
30
0
70
32
0
VERTEX
8
0
62
255
10
11.219973
20
160.76544
30
0
70
32
0
VERTEX
8
0
62
255
10
10.361923
20
160.76544
30
0
70
32
0
VERTEX
8
0
62
255
10
9.5038721
20
160.76544
30
0
70
32
0
VERTEX
8
0
62
255
10
8.6458216
20
160.76544
30
0
70
32
0
VERTEX
8
0
62
255
10
7.7877712
20
160.76544
30
0
70
32
0
VERTEX
8
0
62
255
10
6.9297207
20
160.76544
30
0
70
32
0
VERTEX
8
0
62
255
10
6.0716703
20
160.76544
30
0
70
32
0
VERTEX
8
0
62
255
10
5.2136198
20
160.76544
30
0
70
32
0
VERTEX
8
0
62
255
10
4.3555694
20
160.76544
30
0
70
32
0
VERTEX
8
0
62
255
10
3.4975189
20
160.76544
30
0
70
32
0
VERTEX
8
0
62
255
10
2.6394685
20
160.76544
30
0
70
32
0
VERTEX
8
0
62
255
10
1.781418
20
160.76544
30
0
70
32
0
VERTEX
8
0
62
255
10
0.92336757
20
160.76544
30
0
70
32
0
VERTEX
8
0
62
255
10
0.065317123
20
160.76544
30
0
70
32
0
VERTEX
8
0
62
255
10
-0.79273333
20
160.76544
30
0
70
32
0
VERTEX
8
0
62
255
10
-1.6507838
20
160.76544
30
0
70
32
0
VERTEX
8
0
62
255
10
-2.5088342
20
160.76544
30
0
70
32
0
VERTEX
8
0
62
255
10
-3.3668847
20
160.76544
30
0
70
32
0
VERTEX
8
0
62
255
10
-4.2249351
20
160.76544
30
0
70
32
0
VERTEX
8
0
62
255
10
-5.0829856
20
160.76544
30
0
70
32
0
VERTEX
8
0
62
255
10
-5.941036
20
160.76544
30
0
70
32
0
VERTEX
8
0
62
255
10
-6.7990865
20
160.76544
30
0
70
32
0
VERTEX
8
0
62
255
10
-7.6571369
20
160.76544
30
0
70
32
0
VERTEX
8
0
62
255
10
-8.5151874
20
160.76544
30
0
70
32
0
VERTEX
8
0
62
255
10
-9.3732378
20
160.76544
30
0
70
32
0
VERTEX
8
0
62
255
10
-10.231288
20
160.76544
30
0
70
32
0
VERTEX
8
0
62
255
10
-11.089339
20
160.76544
30
0
70
32
0
VERTEX
8
0
62
255
10
-11.947389
20
160.76544
30
0
70
32
0
VERTEX
8
0
62
255
10
-12.80544
20
160.76544
30
0
70
32
0
VERTEX
8
0
62
255
10
-13.66349
20
160.76544
30
0
70
32
0
VERTEX
8
0
62
255
10
-14.521541
20
160.76544
30
0
70
32
0
VERTEX
8
0
62
255
10
-15.379591
20
160.76544
30
0
70
32
0
VERTEX
8
0
62
255
10
-16.237641
20
160.76544
30
0
70
32
0
VERTEX
8
0
62
255
10
-17.095692
20
160.76544
30
0
70
32
0
VERTEX
8
0
62
255
10
-17.953742
20
160.76544
30
0
70
32
0
VERTEX
8
0
62
255
10
-18.811793
20
160.76544
30
0
70
32
0
VERTEX
8
0
62
255
10
-19.669843
20
160.76544
30
0
70
32
0
VERTEX
8
0
62
255
10
-20.527894
20
160.76544
30
0
70
32
0
VERTEX
8
0
62
255
10
-21.385944
20
160.76544
30
0
70
32
0
VERTEX
8
0
62
255
10
-22.243995
20
160.76544
30
0
70
32
0
VERTEX
8
0
62
255
10
-23.102045
20
160.76544
30
0
70
32
0
VERTEX
8
0
62
255
10
-23.960095
20
160.76544
30
0
70
32
0
VERTEX
8
0
62
255
10
-24.818146
20
160.76544
30
0
70
32
0
VERTEX
8
0
62
255
10
-25.676196
20
160.76544
30
0
70
32
0
VERTEX
8
0
62
255
10
-26.534247
20
160.76544
30
0
70
32
0
VERTEX
8
0
62
255
10
-27.392297
20
160.76544
30
0
70
32
0
VERTEX
8
0
62
255
10
-28.250348
20
160.76544
30
0
70
32
0
VERTEX
8
0
62
255
10
-29.108398
20
160.76544
30
0
70
32
0
VERTEX
8
0
62
255
10
-29.966449
20
160.76544
30
0
70
32
0
VERTEX
8
0
62
255
10
-30.824499
20
160.76544
30
0
70
32
0
SEQEND
8
0
0
POLYLINE
8
0
62
255
66
1
10
0
20
0
30
0
70
8
0
VERTEX
8
0
62
255
10
-30.824499
20
160.76544
30
0
70
32
0
VERTEX
8
0
62
255
10
-30.824499
20
158.71766
30
0
70
32
0
VERTEX
8
0
62
255
10
-30.824499
20
156.66987
30
0
70
32
0
VERTEX
8
0
62
255
10
-30.824499
20
154.62208
30
0
70
32
0
VERTEX
8
0
62
255
10
-30.824499
20
152.5743
30
0
70
32
0
VERTEX
8
0
62
255
10
-30.824499
20
150.52651
30
0
70
32
0
VERTEX
8
0
62
255
10
-30.824499
20
148.47872
30
0
70
32
0
VERTEX
8
0
62
255
10
-30.824499
20
146.43094
30
0
70
32
0
VERTEX
8
0
62
255
10
-30.824499
20
144.38315
30
0
70
32
0
VERTEX
8
0
62
255
10
-30.824499
20
142.33536
30
0
70
32
0
VERTEX
8
0
62
255
10
-30.824499
20
140.28758
30
0
70
32
0
VERTEX
8
0
62
255
10
-30.824499
20
138.23979
30
0
70
32
0
VERTEX
8
0
62
255
10
-30.824499
20
136.192
30
0
70
32
0
VERTEX
8
0
62
255
10
-30.824499
20
134.14421
30
0
70
32
0
VERTEX
8
0
62
255
10
-30.824499
20
132.09643
30
0
70
32
0
VERTEX
8
0
62
255
10
-30.824499
20
130.04864
30
0
70
32
0
VERTEX
8
0
62
255
10
-30.824499
20
128.00085
30
0
70
32
0
VERTEX
8
0
62
255
10
-30.824499
20
125.95307
30
0
70
32
0
VERTEX
8
0
62
255
10
-30.824499
20
123.90528
30
0
70
32
0
VERTEX
8
0
62
255
10
-30.824499
20
121.85749
30
0
70
32
0
VERTEX
8
0
62
255
10
-30.824499
20
119.80971
30
0
70
32
0
VERTEX
8
0
62
255
10
-30.824499
20
117.76192
30
0
70
32
0
VERTEX
8
0
62
255
10
-30.824499
20
115.71413
30
0
70
32
0
VERTEX
8
0
62
255
10
-30.824499
20
113.66635
30
0
70
32
0
VERTEX
8
0
62
255
10
-30.824499
20
111.61856
30
0
70
32
0
VERTEX
8
0
62
255
10
-30.824499
20
109.57077
30
0
70
32
0
VERTEX
8
0
62
255
10
-30.824499
20
107.52299
30
0
70
32
0
VERTEX
8
0
62
255
10
-30.824499
20
105.4752
30
0
70
32
0
VERTEX
8
0
62
255
10
-30.824499
20
103.42741
30
0
70
32
0
VERTEX
8
0
62
255
10
-30.824499
20
101.37963
30
0
70
32
0
VERTEX
8
0
62
255
10
-30.824499
20
99.331841
30
0
70
32
0
VERTEX
8
0
62
255
10
-30.824499
20
97.284054
30
0
70
32
0
VERTEX
8
0
62
255
10
-30.824499
20
95.236267
30
0
70
32
0
VERTEX
8
0
62
255
10
-30.824499
20
93.188481
30
0
70
32
0
VERTEX
8
0
62
255
10
-30.824499
20
91.140694
30
0
70
32
0
VERTEX
8
0
62
255
10
-30.824499
20
89.092907
30
0
70
32
0
VERTEX
8
0
62
255
10
-30.824499
20
87.045121
30
0
70
32
0
VERTEX
8
0
62
255
10
-30.824499
20
84.997334
30
0
70
32
0
VERTEX
8
0
62
255
10
-30.824499
20
82.949547
30
0
70
32
0
VERTEX
8
0
62
255
10
-30.824499
20
80.90176
30
0
70
32
0
VERTEX
8
0
62
255
10
-30.824499
20
78.853974
30
0
70
32
0
VERTEX
8
0
62
255
10
-30.824499
20
76.806187
30
0
70
32
0
VERTEX
8
0
62
255
10
-30.824499
20
74.7584
30
0
70
32
0
VERTEX
8
0
62
255
10
-30.824499
20
72.710614
30
0
70
32
0
VERTEX
8
0
62
255
10
-30.824499
20
70.662827
30
0
70
32
0
VERTEX
8
0
62
255
10
-30.824499
20
68.61504
30
0
70
32
0
VERTEX
8
0
62
255
10
-30.824499
20
66.567253
30
0
70
32
0
VERTEX
8
0
62
255
10
-30.824499
20
64.519467
30
0
70
32
0
VERTEX
8
0
62
255
10
-30.824499
20
62.47168
30
0
70
32
0
VERTEX
8
0
62
255
10
-30.824499
20
60.423893
30
0
70
32
0
VERTEX
8
0
62
255
10
-30.824499
20
58.376107
30
0
70
32
0
VERTEX
8
0
62
255
10
-30.824499
20
56.32832
30
0
70
32
0
VERTEX
8
0
62
255
10
-30.824499
20
54.280533
30
0
70
32
0
VERTEX
8
0
62
255
10
-30.824499
20
52.232747
30
0
70
32
0
VERTEX
8
0
62
255
10
-30.824499
20
50.18496
30
0
70
32
0
VERTEX
8
0
62
255
10
-30.824499
20
48.137173
30
0
70
32
0
VERTEX
8
0
62
255
10
-30.824499
20
46.089386
30
0
70
32
0
VERTEX
8
0
62
255
10
-30.824499
20
44.0416
30
0
70
32
0
VERTEX
8
0
62
255
10
-30.824499
20
41.993813
30
0
70
32
0
VERTEX
8
0
62
255
10
-30.824499
20
39.946026
30
0
70
32
0
VERTEX
8
0
62
255
10
-30.824499
20
37.89824
30
0
70
32
0
VERTEX
8
0
62
255
10
-30.824499
20
35.850453
30
0
70
32
0
VERTEX
8
0
62
255
10
-30.824499
20
33.802666
30
0
70
32
0
VERTEX
8
0
62
255
10
-30.824499
20
31.754879
30
0
70
32
0
VERTEX
8
0
62
255
10
-30.824499
20
29.707093
30
0
70
32
0
VERTEX
8
0
62
255
10
-30.824499
20
27.659306
30
0
70
32
0
VERTEX
8
0
62
255
10
-30.824499
20
25.611519
30
0
70
32
0
VERTEX
8
0
62
255
10
-30.824499
20
23.563733
30
0
70
32
0
VERTEX
8
0
62
255
10
-30.824499
20
21.515946
30
0
70
32
0
VERTEX
8
0
62
255
10
-30.824499
20
19.468159
30
0
70
32
0
VERTEX
8
0
62
255
10
-30.824499
20
17.420372
30
0
70
32
0
VERTEX
8
0
62
255
10
-30.824499
20
15.372586
30
0
70
32
0
VERTEX
8
0
62
255
10
-30.824499
20
13.324799
30
0
70
32
0
VERTEX
8
0
62
255
10
-30.824499
20
11.277012
30
0
70
32
0
VERTEX
8
0
62
255
10
-30.824499
20
9.2292256
30
0
70
32
0
VERTEX
8
0
62
255
10
-30.824499
20
7.1814389
30
0
70
32
0
VERTEX
8
0
62
255
10
-30.824499
20
5.1336522
30
0
70
32
0
VERTEX
8
0
62
255
10
-30.824499
20
3.0858655
30
0
70
32
0
VERTEX
8
0
62
255
10
-30.824499
20
1.0380788
30
0
70
32
0
VERTEX
8
0
62
255
10
-30.824499
20
-1.0097079
30
0
70
32
0
VERTEX
8
0
62
255
10
-30.824499
20
-3.0574946
30
0
70
32
0
VERTEX
8
0
62
255
10
-30.824499
20
-5.1052813
30
0
70
32
0
VERTEX
8
0
62
255
10
-30.824499
20
-7.153068
30
0
70
32
0
VERTEX
8
0
62
255
10
-30.824499
20
-9.2008548
30
0
70
32
0
VERTEX
8
0
62
255
10
-30.824499
20
-11.248641
30
0
70
32
0
VERTEX
8
0
62
255
10
-30.824499
20
-13.296428
30
0
70
32
0
VERTEX
8
0
62
255
10
-30.824499
20
-15.344215
30
0
70
32
0
VERTEX
8
0
62
255
10
-30.824499
20
-17.392002
30
0
70
32
0
VERTEX
8
0
62
255
10
-30.824499
20
-19.439788
30
0
70
32
0
VERTEX
8
0
62
255
10
-30.824499
20
-21.487575
30
0
70
32
0
VERTEX
8
0
62
255
10
-30.824499
20
-23.535362
30
0
70
32
0
VERTEX
8
0
62
255
10
-30.824499
20
-25.583148
30
0
70
32
0
VERTEX
8
0
62
255
10
-30.824499
20
-27.630935
30
0
70
32
0
VERTEX
8
0
62
255
10
-30.824499
20
-29.678722
30
0
70
32
0
VERTEX
8
0
62
255
10
-30.824499
20
-31.726509
30
0
70
32
0
VERTEX
8
0
62
255
10
-30.824499
20
-33.774295
30
0
70
32
0
VERTEX
8
0
62
255
10
-30.824499
20
-35.822082
30
0
70
32
0
VERTEX
8
0
62
255
10
-30.824499
20
-37.869869
30
0
70
32
0
VERTEX
8
0
62
255
10
-30.824499
20
-39.917655
30
0
70
32
0
VERTEX
8
0
62
255
10
-30.824499
20
-41.965442
30
0
70
32
0
SEQEND
8
0
0
POLYLINE
8
0
62
255
66
1
10
0
20
0
30
0
70
8
0
VERTEX
8
0
62
255
10
-30.824499
20
160.76544
30
0
70
32
0
VERTEX
8
0
62
255
10
-30.824499
20
158.71766
30
0
70
32
0
VERTEX
8
0
62
255
10
-30.824499
20
156.66987
30
0
70
32
0
VERTEX
8
0
62
255
10
-30.824499
20
154.62208
30
0
70
32
0
VERTEX
8
0
62
255
10
-30.824499
20
152.5743
30
0
70
32
0
VERTEX
8
0
62
255
10
-30.824499
20
150.52651
30
0
70
32
0
VERTEX
8
0
62
255
10
-30.824499
20
148.47872
30
0
70
32
0
VERTEX
8
0
62
255
10
-30.824499
20
146.43094
30
0
70
32
0
VERTEX
8
0
62
255
10
-30.824499
20
144.38315
30
0
70
32
0
VERTEX
8
0
62
255
10
-30.824499
20
142.33536
30
0
70
32
0
VERTEX
8
0
62
255
10
-30.824499
20
140.28758
30
0
70
32
0
VERTEX
8
0
62
255
10
-30.824499
20
138.23979
30
0
70
32
0
VERTEX
8
0
62
255
10
-30.824499
20
136.192
30
0
70
32
0
VERTEX
8
0
62
255
10
-30.824499
20
134.14421
30
0
70
32
0
VERTEX
8
0
62
255
10
-30.824499
20
132.09643
30
0
70
32
0
VERTEX
8
0
62
255
10
-30.824499
20
130.04864
30
0
70
32
0
VERTEX
8
0
62
255
10
-30.824499
20
128.00085
30
0
70
32
0
VERTEX
8
0
62
255
10
-30.824499
20
125.95307
30
0
70
32
0
VERTEX
8
0
62
255
10
-30.824499
20
123.90528
30
0
70
32
0
VERTEX
8
0
62
255
10
-30.824499
20
121.85749
30
0
70
32
0
VERTEX
8
0
62
255
10
-30.824499
20
119.80971
30
0
70
32
0
VERTEX
8
0
62
255
10
-30.824499
20
117.76192
30
0
70
32
0
VERTEX
8
0
62
255
10
-30.824499
20
115.71413
30
0
70
32
0
VERTEX
8
0
62
255
10
-30.824499
20
113.66635
30
0
70
32
0
VERTEX
8
0
62
255
10
-30.824499
20
111.61856
30
0
70
32
0
VERTEX
8
0
62
255
10
-30.824499
20
109.57077
30
0
70
32
0
VERTEX
8
0
62
255
10
-30.824499
20
107.52299
30
0
70
32
0
VERTEX
8
0
62
255
10
-30.824499
20
105.4752
30
0
70
32
0
VERTEX
8
0
62
255
10
-30.824499
20
103.42741
30
0
70
32
0
VERTEX
8
0
62
255
10
-30.824499
20
101.37963
30
0
70
32
0
VERTEX
8
0
62
255
10
-30.824499
20
99.331841
30
0
70
32
0
VERTEX
8
0
62
255
10
-30.824499
20
97.284054
30
0
70
32
0
VERTEX
8
0
62
255
10
-30.824499
20
95.236267
30
0
70
32
0
VERTEX
8
0
62
255
10
-30.824499
20
93.188481
30
0
70
32
0
VERTEX
8
0
62
255
10
-30.824499
20
91.140694
30
0
70
32
0
VERTEX
8
0
62
255
10
-30.824499
20
89.092907
30
0
70
32
0
VERTEX
8
0
62
255
10
-30.824499
20
87.045121
30
0
70
32
0
VERTEX
8
0
62
255
10
-30.824499
20
84.997334
30
0
70
32
0
VERTEX
8
0
62
255
10
-30.824499
20
82.949547
30
0
70
32
0
VERTEX
8
0
62
255
10
-30.824499
20
80.90176
30
0
70
32
0
VERTEX
8
0
62
255
10
-30.824499
20
78.853974
30
0
70
32
0
VERTEX
8
0
62
255
10
-30.824499
20
76.806187
30
0
70
32
0
VERTEX
8
0
62
255
10
-30.824499
20
74.7584
30
0
70
32
0
VERTEX
8
0
62
255
10
-30.824499
20
72.710614
30
0
70
32
0
VERTEX
8
0
62
255
10
-30.824499
20
70.662827
30
0
70
32
0
VERTEX
8
0
62
255
10
-30.824499
20
68.61504
30
0
70
32
0
VERTEX
8
0
62
255
10
-30.824499
20
66.567253
30
0
70
32
0
VERTEX
8
0
62
255
10
-30.824499
20
64.519467
30
0
70
32
0
VERTEX
8
0
62
255
10
-30.824499
20
62.47168
30
0
70
32
0
VERTEX
8
0
62
255
10
-30.824499
20
60.423893
30
0
70
32
0
VERTEX
8
0
62
255
10
-30.824499
20
58.376107
30
0
70
32
0
VERTEX
8
0
62
255
10
-30.824499
20
56.32832
30
0
70
32
0
VERTEX
8
0
62
255
10
-30.824499
20
54.280533
30
0
70
32
0
VERTEX
8
0
62
255
10
-30.824499
20
52.232747
30
0
70
32
0
VERTEX
8
0
62
255
10
-30.824499
20
50.18496
30
0
70
32
0
VERTEX
8
0
62
255
10
-30.824499
20
48.137173
30
0
70
32
0
VERTEX
8
0
62
255
10
-30.824499
20
46.089386
30
0
70
32
0
VERTEX
8
0
62
255
10
-30.824499
20
44.0416
30
0
70
32
0
VERTEX
8
0
62
255
10
-30.824499
20
41.993813
30
0
70
32
0
VERTEX
8
0
62
255
10
-30.824499
20
39.946026
30
0
70
32
0
VERTEX
8
0
62
255
10
-30.824499
20
37.89824
30
0
70
32
0
VERTEX
8
0
62
255
10
-30.824499
20
35.850453
30
0
70
32
0
VERTEX
8
0
62
255
10
-30.824499
20
33.802666
30
0
70
32
0
VERTEX
8
0
62
255
10
-30.824499
20
31.754879
30
0
70
32
0
VERTEX
8
0
62
255
10
-30.824499
20
29.707093
30
0
70
32
0
VERTEX
8
0
62
255
10
-30.824499
20
27.659306
30
0
70
32
0
VERTEX
8
0
62
255
10
-30.824499
20
25.611519
30
0
70
32
0
VERTEX
8
0
62
255
10
-30.824499
20
23.563733
30
0
70
32
0
VERTEX
8
0
62
255
10
-30.824499
20
21.515946
30
0
70
32
0
VERTEX
8
0
62
255
10
-30.824499
20
19.468159
30
0
70
32
0
VERTEX
8
0
62
255
10
-30.824499
20
17.420372
30
0
70
32
0
VERTEX
8
0
62
255
10
-30.824499
20
15.372586
30
0
70
32
0
VERTEX
8
0
62
255
10
-30.824499
20
13.324799
30
0
70
32
0
VERTEX
8
0
62
255
10
-30.824499
20
11.277012
30
0
70
32
0
VERTEX
8
0
62
255
10
-30.824499
20
9.2292256
30
0
70
32
0
VERTEX
8
0
62
255
10
-30.824499
20
7.1814389
30
0
70
32
0
VERTEX
8
0
62
255
10
-30.824499
20
5.1336522
30
0
70
32
0
VERTEX
8
0
62
255
10
-30.824499
20
3.0858655
30
0
70
32
0
VERTEX
8
0
62
255
10
-30.824499
20
1.0380788
30
0
70
32
0
VERTEX
8
0
62
255
10
-30.824499
20
-1.0097079
30
0
70
32
0
VERTEX
8
0
62
255
10
-30.824499
20
-3.0574946
30
0
70
32
0
VERTEX
8
0
62
255
10
-30.824499
20
-5.1052813
30
0
70
32
0
VERTEX
8
0
62
255
10
-30.824499
20
-7.153068
30
0
70
32
0
VERTEX
8
0
62
255
10
-30.824499
20
-9.2008548
30
0
70
32
0
VERTEX
8
0
62
255
10
-30.824499
20
-11.248641
30
0
70
32
0
VERTEX
8
0
62
255
10
-30.824499
20
-13.296428
30
0
70
32
0
VERTEX
8
0
62
255
10
-30.824499
20
-15.344215
30
0
70
32
0
VERTEX
8
0
62
255
10
-30.824499
20
-17.392002
30
0
70
32
0
VERTEX
8
0
62
255
10
-30.824499
20
-19.439788
30
0
70
32
0
VERTEX
8
0
62
255
10
-30.824499
20
-21.487575
30
0
70
32
0
VERTEX
8
0
62
255
10
-30.824499
20
-23.535362
30
0
70
32
0
VERTEX
8
0
62
255
10
-30.824499
20
-25.583148
30
0
70
32
0
VERTEX
8
0
62
255
10
-30.824499
20
-27.630935
30
0
70
32
0
VERTEX
8
0
62
255
10
-30.824499
20
-29.678722
30
0
70
32
0
VERTEX
8
0
62
255
10
-30.824499
20
-31.726509
30
0
70
32
0
VERTEX
8
0
62
255
10
-30.824499
20
-33.774295
30
0
70
32
0
VERTEX
8
0
62
255
10
-30.824499
20
-35.822082
30
0
70
32
0
VERTEX
8
0
62
255
10
-30.824499
20
-37.869869
30
0
70
32
0
VERTEX
8
0
62
255
10
-30.824499
20
-39.917655
30
0
70
32
0
VERTEX
8
0
62
255
10
-30.824499
20
-41.965442
30
0
70
32
0
SEQEND
8
0
0
ENDSEC
0
EOF
