0
SECTION
2
HEADER
9
$ACADVER
1
AC1006
9
$INSUNITS
70
6
0
ENDSEC
0
SECTION
2
ENTITIES
0
POLYLINE
8
0
62
255
66
1
10
0
20
0
30
0
70
8
0
VERTEX
8
0
62
255
10
-30.824499
20
-41.965442
30
0
70
32
0
VERTEX
8
0
62
255
10
-29.966449
20
-41.965442
30
0
70
32
0
VERTEX
8
0
62
255
10
-29.108398
20
-41.965442
30
0
70
32
0
VERTEX
8
0
62
255
10
-28.250348
20
-41.965442
30
0
70
32
0
VERTEX
8
0
62
255
10
-27.392297
20
-41.965442
30
0
70
32
0
VERTEX
8
0
62
255
10
-26.534247
20
-41.965442
30
0
70
32
0
VERTEX
8
0
62
255
10
-25.676196
20
-41.965442
30
0
70
32
0
VERTEX
8
0
62
255
10
-24.818146
20
-41.965442
30
0
70
32
0
VERTEX
8
0
62
255
10
-23.960095
20
-41.965442
30
0
70
32
0
VERTEX
8
0
62
255
10
-23.102045
20
-41.965442
30
0
70
32
0
VERTEX
8
0
62
255
10
-22.243995
20
-41.965442
30
0
70
32
0
VERTEX
8
0
62
255
10
-21.385944
20
-41.965442
30
0
70
32
0
VERTEX
8
0
62
255
10
-20.527894
20
-41.965442
30
0
70
32
0
VERTEX
8
0
62
255
10
-19.669843
20
-41.965442
30
0
70
32
0
VERTEX
8
0
62
255
10
-18.811793
20
-41.965442
30
0
70
32
0
VERTEX
8
0
62
255
10
-17.953742
20
-41.965442
30
0
70
32
0
VERTEX
8
0
62
255
10
-17.095692
20
-41.965442
30
0
70
32
0
VERTEX
8
0
62
255
10
-16.237641
20
-41.965442
30
0
70
32
0
VERTEX
8
0
62
255
10
-15.379591
20
-41.965442
30
0
70
32
0
VERTEX
8
0
62
255
10
-14.521541
20
-41.965442
30
0
70
32
0
VERTEX
8
0
62
255
10
-13.66349
20
-41.965442
30
0
70
32
0
VERTEX
8
0
62
255
10
-12.80544
20
-41.965442
30
0
70
32
0
VERTEX
8
0
62
255
10
-11.947389
20
-41.965442
30
0
70
32
0
VERTEX
8
0
62
255
10
-11.089339
20
-41.965442
30
0
70
32
0
VERTEX
8
0
62
255
10
-10.231288
20
-41.965442
30
0
70
32
0
VERTEX
8
0
62
255
10
-9.3732378
20
-41.965442
30
0
70
32
0
VERTEX
8
0
62
255
10
-8.5151874
20
-41.965442
30
0
70
32
0
VERTEX
8
0
62
255
10
-7.6571369
20
-41.965442
30
0
70
32
0
VERTEX
8
0
62
255
10
-6.7990865
20
-41.965442
30
0
70
32
0
VERTEX
8
0
62
255
10
-5.941036
20
-41.965442
30
0
70
32
0
VERTEX
8
0
62
255
10
-5.0829856
20
-41.965442
30
0
70
32
0
VERTEX
8
0
62
255
10
-4.2249351
20
-41.965442
30
0
70
32
0
VERTEX
8
0
62
255
10
-3.3668847
20
-41.965442
30
0
70
32
0
VERTEX
8
0
62
255
10
-2.5088342
20
-41.965442
30
0
70
32
0
VERTEX
8
0
62
255
10
-1.6507838
20
-41.965442
30
0
70
32
0
VERTEX
8
0
62
255
10
-0.79273333
20
-41.965442
30
0
70
32
0
VERTEX
8
0
62
255
10
0.065317123
20
-41.965442
30
0
70
32
0
VERTEX
8
0
62
255
10
0.92336757
20
-41.965442
30
0
70
32
0
VERTEX
8
0
62
255
10
1.781418
20
-41.965442
30
0
70
32
0
VERTEX
8
0
62
255
10
2.6394685
20
-41.965442
30
0
70
32
0
VERTEX
8
0
62
255
10
3.4975189
20
-41.965442
30
0
70
32
0
VERTEX
8
0
62
255
10
4.3555694
20
-41.965442
30
0
70
32
0
VERTEX
8
0
62
255
10
5.2136198
20
-41.965442
30
0
70
32
0
VERTEX
8
0
62
255
10
6.0716703
20
-41.965442
30
0
70
32
0
VERTEX
8
0
62
255
10
6.9297207
20
-41.965442
30
0
70
32
0
VERTEX
8
0
62
255
10
7.7877712
20
-41.965442
30
0
70
32
0
VERTEX
8
0
62
255
10
8.6458216
20
-41.965442
30
0
70
32
0
VERTEX
8
0
62
255
10
9.5038721
20
-41.965442
30
0
70
32
0
VERTEX
8
0
62
255
10
10.361923
20
-41.965442
30
0
70
32
0
VERTEX
8
0
62
255
10
11.219973
20
-41.965442
30
0
70
32
0
VERTEX
8
0
62
255
10
12.078023
20
-41.965442
30
0
70
32
0
VERTEX
8
0
62
255
10
12.936074
20
-41.965442
30
0
70
32
0
VERTEX
8
0
62
255
10
13.794124
20
-41.965442
30
0
70
32
0
VERTEX
8
0
62
255
10
14.652175
20
-41.965442
30
0
70
32
0
VERTEX
8
0
62
255
10
15.510225
20
-41.965442
30
0
70
32
0
VERTEX
8
0
62
255
10
16.368276
20
-41.965442
30
0
70
32
0
VERTEX
8
0
62
255
10
17.226326
20
-41.965442
30
0
70
32
0
VERTEX
8
0
62
255
10
18.084377
20
-41.965442
30
0
70
32
0
VERTEX
8
0
62
255
10
18.942427
20
-41.965442
30
0
70
32
0
VERTEX
8
0
62
255
10
19.800477
20
-41.965442
30
0
70
32
0
VERTEX
8
0
62
255
10
20.658528
20
-41.965442
30
0
70
32
0
VERTEX
8
0
62
255
10
21.516578
20
-41.965442
30
0
70
32
0
VERTEX
8
0
62
255
10
22.374629
20
-41.965442
30
0
70
32
0
VERTEX
8
0
62
255
10
23.232679
20
-41.965442
30
0
70
32
0
VERTEX
8
0
62
255
10
24.09073
20
-41.965442
30
0
70
32
0
VERTEX
8
0
62
255
10
24.94878
20
-41.965442
30
0
70
32
0
VERTEX
8
0
62
255
10
25.806831
20
-41.965442
30
0
70
32
0
VERTEX
8
0
62
255
10
26.664881
20
-41.965442
30
0
70
32
0
VERTEX
8
0
62
255
10
27.522932
20
-41.965442
30
0
70
32
0
VERTEX
8
0
62
255
10
28.380982
20
-41.965442
30
0
70
32
0
VERTEX
8
0
62
255
10
29.239032
20
-41.965442
30
0
70
32
0
VERTEX
8
0
62
255
10
30.097083
20
-41.965442
30
0
70
32
0
VERTEX
8
0
62
255
10
30.955133
20
-41.965442
30
0
70
32
0
VERTEX
8
0
62
255
10
31.813184
20
-41.965442
30
0
70
32
0
VERTEX
8
0
62
255
10
32.671234
20
-41.965442
30
0
70
32
0
VERTEX
8
0
62
255
10
33.529285
20
-41.965442
30
0
70
32
0
VERTEX
8
0
62
255
10
34.387335
20
-41.965442
30
0
70
32
0
VERTEX
8
0
62
255
10
35.245386
20
-41.965442
30
0
70
32
0
VERTEX
8
0
62
255
10
36.103436
20
-41.965442
30
0
70
32
0
VERTEX
8
0
62
255
10
36.961487
20
-41.965442
30
0
70
32
0
VERTEX
8
0
62
255
10
37.819537
20
-41.965442
30
0
70
32
0
VERTEX
8
0
62
255
10
38.677587
20
-41.965442
30
0
70
32
0
VERTEX
8
0
62
255
10
39.535638
20
-41.965442
30
0
70
32
0
VERTEX
8
0
62
255
10
40.393688
20
-41.965442
30
0
70
32
0
VERTEX
8
0
62
255
10
41.251739
20
-41.965442
30
0
70
32
0
VERTEX
8
0
62
255
10
42.109789
20
-41.965442
30
0
70
32
0
VERTEX
8
0
62
255
10
42.96784
20
-41.965442
30
0
70
32
0
VERTEX
8
0
62
255
10
43.82589
20
-41.965442
30
0
70
32
0
VERTEX
8
0
62
255
10
44.683941
20
-41.965442
30
0
70
32
0
VERTEX
8
0
62
255
10
45.541991
20
-41.965442
30
0
70
32
0
VERTEX
8
0
62
255
10
46.400041
20
-41.965442
30
0
70
32
0
VERTEX
8
0
62
255
10
47.258092
20
-41.965442
30
0
70
32
0
VERTEX
8
0
62
255
10
48.116142
20
-41.965442
30
0
70
32
0
VERTEX
8
0
62
255
10
48.974193
20
-41.965442
30
0
70
32
0
VERTEX
8
0
62
255
10
49.832243
20
-41.965442
30
0
70
32
0
VERTEX
8
0
62
255
10
50.690294
20
-41.965442
30
0
70
32
0
VERTEX
8
0
62
255
10
51.548344
20
-41.965442
30
0
70
32
0
VERTEX
8
0
62
255
10
52.406395
20
-41.965442
30
0
70
32
0
VERTEX
8
0
62
255
10
53.264445
20
-41.965442
30
0
70
32
0
VERTEX
8
0
62
255
10
54.122496
20
-41.965442
30
0
70
32
0
SEQEND
8
0
0
POLYLINE
8
0
62
255
66
1
10
0
20
0
30
0
70
8
0
VERTEX
8
0
62
255
10
54.122496
20
-41.965442
30
0
70
32
0
VERTEX
8
0
62
255
10
54.122496
20
-39.917655
30
0
70
32
0
VERTEX
8
0
62
255
10
54.122496
20
-37.869869
30
0
70
32
0
VERTEX
8
0
62
255
10
54.122496
20
-35.822082
30
0
70
32
0
VERTEX
8
0
62
255
10
54.122496
20
-33.774295
30
0
70
32
0
VERTEX
8
0
62
255
10
54.122496
20
-31.726509
30
0
70
32
0
VERTEX
8
0
62
255
10
54.122496
20
-29.678722
30
0
70
32
0
VERTEX
8
0
62
255
10
54.122496
20
-27.630935
30
0
70
32
0
VERTEX
8
0
62
255
10
54.122496
20
-25.583148
30
0
70
32
0
VERTEX
8
0
62
255
10
54.122496
20
-23.535362
30
0
70
32
0
VERTEX
8
0
62
255
10
54.122496
20
-21.487575
30
0
70
32
0
VERTEX
8
0
62
255
10
54.122496
20
-19.439788
30
0
70
32
0
VERTEX
8
0
62
255
10
54.122496
20
-17.392002
30
0
70
32
0
VERTEX
8
0
62
255
10
54.122496
20
-15.344215
30
0
70
32
0
VERTEX
8
0
62
255
10
54.122496
20
-13.296428
30
0
70
32
0
VERTEX
8
0
62
255
10
54.122496
20
-11.248641
30
0
70
32
0
VERTEX
8
0
62
255
10
54.122496
20
-9.2008548
30
0
70
32
0
VERTEX
8
0
62
255
10
54.122496
20
-7.153068
30
0
70
32
0
VERTEX
8
0
62
255
10
54.122496
20
-5.1052813
30
0
70
32
0
VERTEX
8
0
62
255
10
54.122496
20
-3.0574946
30
0
70
32
0
VERTEX
8
0
62
255
10
54.122496
20
-1.0097079
30
0
70
32
0
VERTEX
8
0
62
255
10
54.122496
20
1.0380788
30
0
70
32
0
VERTEX
8
0
62
255
10
54.122496
20
3.0858655
30
0
70
32
0
VERTEX
8
0
62
255
10
54.122496
20
5.1336522
30
0
70
32
0
VERTEX
8
0
62
255
10
54.122496
20
7.1814389
30
0
70
32
0
VERTEX
8
0
62
255
10
54.122496
20
9.2292256
30
0
70
32
0
VERTEX
8
0
62
255
10
54.122496
20
11.277012
30
0
70
32
0
VERTEX
8
0
62
255
10
54.122496
20
13.324799
30
0
70
32
0
VERTEX
8
0
62
255
10
54.122496
20
15.372586
30
0
70
32
0
VERTEX
8
0
62
255
10
54.122496
20
17.420372
30
0
70
32
0
VERTEX
8
0
62
255
10
54.122496
20
19.468159
30
0
70
32
0
VERTEX
8
0
62
255
10
54.122496
20
21.515946
30
0
70
32
0
VERTEX
8
0
62
255
10
54.122496
20
23.563733
30
0
70
32
0
VERTEX
8
0
62
255
10
54.122496
20
25.611519
30
0
70
32
0
VERTEX
8
0
62
255
10
54.122496
20
27.659306
30
0
70
32
0
VERTEX
8
0
62
255
10
54.122496
20
29.707093
30
0
70
32
0
VERTEX
8
0
62
255
10
54.122496
20
31.754879
30
0
70
32
0
VERTEX
8
0
62
255
10
54.122496
20
33.802666
30
0
70
32
0
VERTEX
8
0
62
255
10
54.122496
20
35.850453
30
0
70
32
0
VERTEX
8
0
62
255
10
54.122496
20
37.89824
30
0
70
32
0
VERTEX
8
0
62
255
10
54.122496
20
39.946026
30
0
70
32
0
VERTEX
8
0
62
255
10
54.122496
20
41.993813
30
0
70
32
0
VERTEX
8
0
62
255
10
54.122496
20
44.0416
30
0
70
32
0
VERTEX
8
0
62
255
10
54.122496
20
46.089386
30
0
70
32
0
VERTEX
8
0
62
255
10
54.122496
20
48.137173
30
0
70
32
0
VERTEX
8
0
62
255
10
54.122496
20
50.18496
30
0
70
32
0
VERTEX
8
0
62
255
10
54.122496
20
52.232747
30
0
70
32
0
VERTEX
8
0
62
255
10
54.122496
20
54.280533
30
0
70
32
0
VERTEX
8
0
62
255
10
54.122496
20
56.32832
30
0
70
32
0
VERTEX
8
0
62
255
10
54.122496
20
58.376107
30
0
70
32
0
VERTEX
8
0
62
255
10
54.122496
20
60.423893
30
0
70
32
0
VERTEX
8
0
62
255
10
54.122496
20
62.47168
30
0
70
32
0
VERTEX
8
0
62
255
10
54.122496
20
64.519467
30
0
70
32
0
VERTEX
8
0
62
255
10
54.122496
20
66.567253
30
0
70
32
0
VERTEX
8
0
62
255
10
54.122496
20
68.61504
30
0
70
32
0
VERTEX
8
0
62
255
10
54.122496
20
70.662827
30
0
70
32
0
VERTEX
8
0
62
255
10
54.122496
20
72.710614
30
0
70
32
0
VERTEX
8
0
62
255
10
54.122496
20
74.7584
30
0
70
32
0
VERTEX
8
0
62
255
10
54.122496
20
76.806187
30
0
70
32
0
VERTEX
8
0
62
255
10
54.122496
20
78.853974
30
0
70
32
0
VERTEX
8
0
62
255
10
54.122496
20
80.90176
30
0
70
32
0
VERTEX
8
0
62
255
10
54.122496
20
82.949547
30
0
70
32
0
VERTEX
8
0
62
255
10
54.122496
20
84.997334
30
0
70
32
0
VERTEX
8
0
62
255
10
54.122496
20
87.045121
30
0
70
32
0
VERTEX
8
0
62
255
10
54.122496
20
89.092907
30
0
70
32
0
VERTEX
8
0
62
255
10
54.122496
20
91.140694
30
0
70
32
0
VERTEX
8
0
62
255
10
54.122496
20
93.188481
30
0
70
32
0
VERTEX
8
0
62
255
10
54.122496
20
95.236267
30
0
70
32
0
VERTEX
8
0
62
255
10
54.122496
20
97.284054
30
0
70
32
0
VERTEX
8
0
62
255
10
54.122496
20
99.331841
30
0
70
32
0
VERTEX
8
0
62
255
10
54.122496
20
101.37963
30
0
70
32
0
VERTEX
8
0
62
255
10
54.122496
20
103.42741
30
0
70
32
0
VERTEX
8
0
62
255
10
54.122496
20
105.4752
30
0
70
32
0
VERTEX
8
0
62
255
10
54.122496
20
107.52299
30
0
70
32
0
VERTEX
8
0
62
255
10
54.122496
20
109.57077
30
0
70
32
0
VERTEX
8
0
62
255
10
54.122496
20
111.61856
30
0
70
32
0
VERTEX
8
0
62
255
10
54.122496
20
113.66635
30
0
70
32
0
VERTEX
8
0
62
255
10
54.122496
20
115.71413
30
0
70
32
0
VERTEX
8
0
62
255
10
54.122496
20
117.76192
30
0
70
32
0
VERTEX
8
0
62
255
10
54.122496
20
119.80971
30
0
70
32
0
VERTEX
8
0
62
255
10
54.122496
20
121.85749
30
0
70
32
0
VERTEX
8
0
62
255
10
54.122496
20
123.90528
30
0
70
32
0
VERTEX
8
0
62
255
10
54.122496
20
125.95307
30
0
70
32
0
VERTEX
8
0
62
255
10
54.122496
20
128.00085
30
0
70
32
0
VERTEX
8
0
62
255
10
54.122496
20
130.04864
30
0
70
32
0
VERTEX
8
0
62
255
10
54.122496
20
132.09643
30
0
70
32
0
VERTEX
8
0
62
255
10
54.122496
20
134.14421
30
0
70
32
0
VERTEX
8
0
62
255
10
54.122496
20
136.192
30
0
70
32
0
VERTEX
8
0
62
255
10
54.122496
20
138.23979
30
0
70
32
0
VERTEX
8
0
62
255
10
54.122496
20
140.28758
30
0
70
32
0
VERTEX
8
0
62
255
10
54.122496
20
142.33536
30
0
70
32
0
VERTEX
8
0
62
255
10
54.122496
20
144.38315
30
0
70
32
0
VERTEX
8
0
62
255
10
54.122496
20
146.43094
30
0
70
32
0
VERTEX
8
0
62
255
10
54.122496
20
148.47872
30
0
70
32
0
VERTEX
8
0
62
255
10
54.122496
20
150.52651
30
0
70
32
0
VERTEX
8
0
62
255
10
54.122496
20
152.5743
30
0
70
32
0
VERTEX
8
0
62
255
10
54.122496
20
154.62208
30
0
70
32
0
VERTEX
8
0
62
255
10
54.122496
20
156.66987
30
0
70
32
0
VERTEX
8
0
62
255
10
54.122496
20
158.71766
30
0
70
32
0
VERTEX
8
0
62
255
10
54.122496
20
160.76544
30
0
70
32
0
SEQEND
8
0
0
POLYLINE
8
0
62
255
66
1
10
0
20
0
30
0
70
8
0
VERTEX
8
0
62
255
10
54.122496
20
160.76544
30
0
70
32
0
VERTEX
8
0
62
255
10
53.264445
20
160.76544
30
0
70
32
0
VERTEX
8
0
62
255
10
52.406395
20
160.76544
30
0
70
32
0
VERTEX
8
0
62
255
10
51.548344
20
160.76544
30
0
70
32
0
VERTEX
8
0
62
255
10
50.690294
20
160.76544
30
0
70
32
0
VERTEX
8
0
62
255
10
49.832243
20
160.76544
30
0
70
32
0
VERTEX
8
0
62
255
10
48.974193
20
160.76544
30
0
70
32
0
VERTEX
8
0
62
255
10
48.116142
20
160.76544
30
0
70
32
0
VERTEX
8
0
62
255
10
47.258092
20
160.76544
30
0
70
32
0
VERTEX
8
0
62
255
10
46.400041
20
160.76544
30
0
70
32
0
VERTEX
8
0
62
255
10
45.541991
20
160.76544
30
0
70
32
0
VERTEX
8
0
62
255
10
44.683941
20
160.76544
30
0
70
32
0
VERTEX
8
0
62
255
10
43.82589
20
160.76544
30
0
70
32
0
VERTEX
8
0
62
255
10
42.96784
20
160.76544
30
0
70
32
0
VERTEX
8
0
62
255
10
42.109789
20
160.76544
30
0
70
32
0
VERTEX
8
0
62
255
10
41.251739
20
160.76544
30
0
70
32
0
VERTEX
8
0
62
255
10
40.393688
20
160.76544
30
0
70
32
0
VERTEX
8
0
62
255
10
39.535638
20
160.76544
30
0
70
32
0
VERTEX
8
0
62
255
10
38.677587
20
160.76544
30
0
70
32
0
VERTEX
8
0
62
255
10
37.819537
20
160.76544
30
0
70
32
0
VERTEX
8
0
62
255
10
36.961487
20
160.76544
30
0
70
32
0
VERTEX
8
0
62
255
10
36.103436
20
160.76544
30
0
70
32
0
VERTEX
8
0
62
255
10
35.245386
20
160.76544
30
0
70
32
0
VERTEX
8
0
62
255
10
34.387335
20
160.76544
30
0
70
32
0
VERTEX
8
0
62
255
10
33.529285
20
160.76544
30
0
70
32
0
VERTEX
8
0
62
255
10
32.671234
20
160.76544
30
0
70
32
0
VERTEX
8
0
62
255
10
31.813184
20
160.76544
30
0
70
32
0
VERTEX
8
0
62
255
10
30.955133
20
160.76544
30
0
70
32
0
VERTEX
8
0
62
255
10
30.097083
20
160.76544
30
0
70
32
0
VERTEX
8
0
62
255
10
29.239032
20
160.76544
30
0
70
32
0
VERTEX
8
0
62
255
10
28.380982
20
160.76544
30
0
70
32
0
VERTEX
8
0
62
255
10
27.522932
20
160.76544
30
0
70
32
0
VERTEX
8
0
62
255
10
26.664881
20
160.76544
30
0
70
32
0
VERTEX
8
0
62
255
10
25.806831
20
160.76544
30
0
70
32
0
VERTEX
8
0
62
255
10
24.94878
20
160.76544
30
0
70
32
0
VERTEX
8
0
62
255
10
24.09073
20
160.76544
30
0
70
32
0
VERTEX
8
0
62
255
10
23.232679
20
160.76544
30
0
70
32
0
VERTEX
8
0
62
255
10
22.374629
20
160.76544
30
0
70
32
0
VERTEX
8
0
62
255
10
21.516578
20
160.76544
30
0
70
32
0
VERTEX
8
0
62
255
10
20.658528
20
160.76544
30
0
70
32
0
VERTEX
8
0
62
255
10
19.800477
20
160.76544
30
0
70
32
0
VERTEX
8
0
62
255
10
18.942427
20
160.76544
30
0
70
32
0
VERTEX
8
0
62
255
10
18.084377
20
160.76544
30
0
70
32
0
VERTEX
8
0
62
255
10
17.226326
20
160.76544
30
0
70
32
0
VERTEX
8
0
62
255
10
16.368276
20
160.76544
30
0
70
32
0
VERTEX
8
0
62
255
10
15.510225
20
160.76544
30
0
70
32
0
VERTEX
8
0
62
255
10
14.652175
20
160.76544
30
0
70
32
0
VERTEX
8
0
62
255
10
13.794124
20
160.76544
30
0
70
32
0
VERTEX
8
0
62
255
10
12.936074
20
160.76544
30
0
70
32
0
VERTEX
8
0
62
255
10
12.078023
20
160.76544
30
0
70
32
0
VERTEX
8
0
62
255
10
11.219973
20
160.76544
30
0
70
32
0
VERTEX
8
0
62
255
10
10.361923
20
160.76544
30
0
70
32
0
VERTEX
8
0
62
255
10
9.5038721
20
160.76544
30
0
70
32
0
VERTEX
8
0
62
255
10
8.6458216
20
160.76544
30
0
70
32
0
VERTEX
8
0
62
255
10
7.7877712
20
160.76544
30
0
70
32
0
VERTEX
8
0
62
255
10
6.9297207
20
160.76544
30
0
70
32
0
VERTEX
8
0
62
255
10
6.0716703
20
160.76544
30
0
70
32
0
VERTEX
8
0
62
255
10
5.2136198
20
160.76544
30
0
70
32
0
VERTEX
8
0
62
255
10
4.3555694
20
160.76544
30
0
70
32
0
VERTEX
8
0
62
255
10
3.4975189
20
160.76544
30
0
70
32
0
VERTEX
8
0
62
255
10
2.6394685
20
160.76544
30
0
70
32
0
VERTEX
8
0
62
255
10
1.781418
20
160.76544
30
0
70
32
0
VERTEX
8
0
62
255
10
0.92336757
20
160.76544
30
0
70
32
0
VERTEX
8
0
62
255
10
0.065317123
20
160.76544
30
0
70
32
0
VERTEX
8
0
62
255
10
-0.79273333
20
160.76544
30
0
70
32
0
VERTEX
8
0
62
255
10
-1.6507838
20
160.76544
30
0
70
32
0
VERTEX
8
0
62
255
10
-2.5088342
20
160.76544
30
0
70
32
0
VERTEX
8
0
62
255
10
-3.3668847
20
160.76544
30
0
70
32
0
VERTEX
8
0
62
255
10
-4.2249351
20
160.76544
30
0
70
32
0
VERTEX
8
0
62
255
10
-5.0829856
20
160.76544
30
0
70
32
0
VERTEX
8
0
62
255
10
-5.941036
20
160.76544
30
0
70
32
0
VERTEX
8
0
62
255
10
-6.7990865
20
160.76544
30
0
70
32
0
VERTEX
8
0
62
255
10
-7.6571369
20
160.76544
30
0
70
32
0
VERTEX
8
0
62
255
10
-8.5151874
20
160.76544
30
0
70
32
0
VERTEX
8
0
62
255
10
-9.3732378
20
160.76544
30
0
70
32
0
VERTEX
8
0
62
255
10
-10.231288
20
160.76544
30
0
70
32
0
VERTEX
8
0
62
255
10
-11.089339
20
160.76544
30
0
70
32
0
VERTEX
8
0
62
255
10
-11.947389
20
160.76544
30
0
70
32
0
VERTEX
8
0
62
255
10
-12.80544
20
160.76544
30
0
70
32
0
VERTEX
8
0
62
255
10
-13.66349
20
160.76544
30
0
70
32
0
VERTEX
8
0
62
255
10
-14.521541
20
160.76544
30
0
70
32
0
VERTEX
8
0
62
255
10
-15.379591
20
160.76544
30
0
70
32
0
VERTEX
8
0
62
255
10
-16.237641
20
160.76544
30
0
70
32
0
VERTEX
8
0
62
255
10
-17.095692
20
160.76544
30
0
70
32
0
VERTEX
8
0
62
255
10
-17.953742
20
160.76544
30
0
70
32
0
VERTEX
8
0
62
255
10
-18.811793
20
160.76544
30
0
70
32
0
VERTEX
8
0
62
255
10
-19.669843
20
160.76544
30
0
70
32
0
VERTEX
8
0
62
255
10
-20.527894
20
160.76544
30
0
70
32
0
VERTEX
8
0
62
255
10
-21.385944
20
160.76544
30
0
70
32
0
VERTEX
8
0
62
255
10
-22.243995
20
160.76544
30
0
70
32
0
VERTEX
8
0
62
255
10
-23.102045
20
160.76544
30
0
70
32
0
VERTEX
8
0
62
255
10
-23.960095
20
160.76544
30
0
70
32
0
VERTEX
8
0
62
255
10
-24.818146
20
160.76544
30
0
70
32
0
VERTEX
8
0
62
255
10
-25.676196
20
160.76544
30
0
70
32
0
VERTEX
8
0
62
255
10
-26.534247
20
160.76544
30
0
70
32
0
VERTEX
8
0
62
255
10
-27.392297
20
160.76544
30
0
70
32
0
VERTEX
8
0
62
255
10
-28.250348
20
160.76544
30
0
70
32
0
VERTEX
8
0
62
255
10
-29.108398
20
160.76544
30
0
70
32
0
VERTEX
8
0
62
255
10
-29.966449
20
160.76544
30
0
70
32
0
VERTEX
8
0
62
255
10
-30.824499
20
160.76544
30
0
70
32
0
SEQEND
8
0
0
POLYLINE
8
0
62
255
66
1
10
0
20
0
30
0
70
8
0
VERTEX
8
0
62
255
10
-30.824499
20
160.76544
30
0
70
32
0
VERTEX
8
0
62
255
10
-30.824499
20
158.71766
30
0
70
32
0
VERTEX
8
0
62
255
10
-30.824499
20
156.66987
30
0
70
32
0
VERTEX
8
0
62
255
10
-30.824499
20
154.62208
30
0
70
32
0
VERTEX
8
0
62
255
10
-30.824499
20
152.5743
30
0
70
32
0
VERTEX
8
0
62
255
10
-30.824499
20
150.52651
30
0
70
32
0
VERTEX
8
0
62
255
10
-30.824499
20
148.47872
30
0
70
32
0
VERTEX
8
0
62
255
10
-30.824499
20
146.43094
30
0
70
32
0
VERTEX
8
0
62
255
10
-30.824499
20
144.38315
30
0
70
32
0
VERTEX
8
0
62
255
10
-30.824499
20
142.33536
30
0
70
32
0
VERTEX
8
0
62
255
10
-30.824499
20
140.28758
30
0
70
32
0
VERTEX
8
0
62
255
10
-30.824499
20
138.23979
30
0
70
32
0
VERTEX
8
0
62
255
10
-30.824499
20
136.192
30
0
70
32
0
VERTEX
8
0
62
255
10
-30.824499
20
134.14421
30
0
70
32
0
VERTEX
8
0
62
255
10
-30.824499
20
132.09643
30
0
70
32
0
VERTEX
8
0
62
255
10
-30.824499
20
130.04864
30
0
70
32
0
VERTEX
8
0
62
255
10
-30.824499
20
128.00085
30
0
70
32
0
VERTEX
8
0
62
255
10
-30.824499
20
125.95307
30
0
70
32
0
VERTEX
8
0
62
255
10
-30.824499
20
123.90528
30
0
70
32
0
VERTEX
8
0
62
255
10
-30.824499
20
121.85749
30
0
70
32
0
VERTEX
8
0
62
255
10
-30.824499
20
119.80971
30
0
70
32
0
VERTEX
8
0
62
255
10
-30.824499
20
117.76192
30
0
70
32
0
VERTEX
8
0
62
255
10
-30.824499
20
115.71413
30
0
70
32
0
VERTEX
8
0
62
255
10
-30.824499
20
113.66635
30
0
70
32
0
VERTEX
8
0
62
255
10
-30.824499
20
111.61856
30
0
70
32
0
VERTEX
8
0
62
255
10
-30.824499
20
109.57077
30
0
70
32
0
VERTEX
8
0
62
255
10
-30.824499
20
107.52299
30
0
70
32
0
VERTEX
8
0
62
255
10
-30.824499
20
105.4752
30
0
70
32
0
VERTEX
8
0
62
255
10
-30.824499
20
103.42741
30
0
70
32
0
VERTEX
8
0
62
255
10
-30.824499
20
101.37963
30
0
70
32
0
VERTEX
8
0
62
255
10
-30.824499
20
99.331841
30
0
70
32
0
VERTEX
8
0
62
255
10
-30.824499
20
97.284054
30
0
70
32
0
VERTEX
8
0
62
255
10
-30.824499
20
95.236267
30
0
70
32
0
VERTEX
8
0
62
255
10
-30.824499
20
93.188481
30
0
70
32
0
VERTEX
8
0
62
255
10
-30.824499
20
91.140694
30
0
70
32
0
VERTEX
8
0
62
255
10
-30.824499
20
89.092907
30
0
70
32
0
VERTEX
8
0
62
255
10
-30.824499
20
87.045121
30
0
70
32
0
VERTEX
8
0
62
255
10
-30.824499
20
84.997334
30
0
70
32
0
VERTEX
8
0
62
255
10
-30.824499
20
82.949547
30
0
70
32
0
VERTEX
8
0
62
255
10
-30.824499
20
80.90176
30
0
70
32
0
VERTEX
8
0
62
255
10
-30.824499
20
78.853974
30
0
70
32
0
VERTEX
8
0
62
255
10
-30.824499
20
76.806187
30
0
70
32
0
VERTEX
8
0
62
255
10
-30.824499
20
74.7584
30
0
70
32
0
VERTEX
8
0
62
255
10
-30.824499
20
72.710614
30
0
70
32
0
VERTEX
8
0
62
255
10
-30.824499
20
70.662827
30
0
70
32
0
VERTEX
8
0
62
255
10
-30.824499
20
68.61504
30
0
70
32
0
VERTEX
8
0
62
255
10
-30.824499
20
66.567253
30
0
70
32
0
VERTEX
8
0
62
255
10
-30.824499
20
64.519467
30
0
70
32
0
VERTEX
8
0
62
255
10
-30.824499
20
62.47168
30
0
70
32
0
VERTEX
8
0
62
255
10
-30.824499
20
60.423893
30
0
70
32
0
VERTEX
8
0
62
255
10
-30.824499
20
58.376107
30
0
70
32
0
VERTEX
8
0
62
255
10
-30.824499
20
56.32832
30
0
70
32
0
VERTEX
8
0
62
255
10
-30.824499
20
54.280533
30
0
70
32
0
VERTEX
8
0
62
255
10
-30.824499
20
52.232747
30
0
70
32
0
VERTEX
8
0
62
255
10
-30.824499
20
50.18496
30
0
70
32
0
VERTEX
8
0
62
255
10
-30.824499
20
48.137173
30
0
70
32
0
VERTEX
8
0
62
255
10
-30.824499
20
46.089386
30
0
70
32
0
VERTEX
8
0
62
255
10
-30.824499
20
44.0416
30
0
70
32
0
VERTEX
8
0
62
255
10
-30.824499
20
41.993813
30
0
70
32
0
VERTEX
8
0
62
255
10
-30.824499
20
39.946026
30
0
70
32
0
VERTEX
8
0
62
255
10
-30.824499
20
37.89824
30
0
70
32
0
VERTEX
8
0
62
255
10
-30.824499
20
35.850453
30
0
70
32
0
VERTEX
8
0
62
255
10
-30.824499
20
33.802666
30
0
70
32
0
VERTEX
8
0
62
255
10
-30.824499
20
31.754879
30
0
70
32
0
VERTEX
8
0
62
255
10
-30.824499
20
29.707093
30
0
70
32
0
VERTEX
8
0
62
255
10
-30.824499
20
27.659306
30
0
70
32
0
VERTEX
8
0
62
255
10
-30.824499
20
25.611519
30
0
70
32
0
VERTEX
8
0
62
255
10
-30.824499
20
23.563733
30
0
70
32
0
VERTEX
8
0
62
255
10
-30.824499
20
21.515946
30
0
70
32
0
VERTEX
8
0
62
255
10
-30.824499
20
19.468159
30
0
70
32
0
VERTEX
8
0
62
255
10
-30.824499
20
17.420372
30
0
70
32
0
VERTEX
8
0
62
255
10
-30.824499
20
15.372586
30
0
70
32
0
VERTEX
8
0
62
255
10
-30.824499
20
13.324799
30
0
70
32
0
VERTEX
8
0
62
255
10
-30.824499
20
11.277012
30
0
70
32
0
VERTEX
8
0
62
255
10
-30.824499
20
9.2292256
30
0
70
32
0
VERTEX
8
0
62
255
10
-30.824499
20
7.1814389
30
0
70
32
0
VERTEX
8
0
62
255
10
-30.824499
20
5.1336522
30
0
70
32
0
VERTEX
8
0
62
255
10
-30.824499
20
3.0858655
30
0
70
32
0
VERTEX
8
0
62
255
10
-30.824499
20
1.0380788
30
0
70
32
0
VERTEX
8
0
62
255
10
-30.824499
20
-1.0097079
30
0
70
32
0
VERTEX
8
0
62
255
10
-30.824499
20
-3.0574946
30
0
70
32
0
VERTEX
8
0
62
255
10
-30.824499
20
-5.1052813
30
0
70
32
0
VERTEX
8
0
62
255
10
-30.824499
20
-7.153068
30
0
70
32
0
VERTEX
8
0
62
255
10
-30.824499
20
-9.2008548
30
0
70
32
0
VERTEX
8
0
62
255
10
-30.824499
20
-11.248641
30
0
70
32
0
VERTEX
8
0
62
255
10
-30.824499
20
-13.296428
30
0
70
32
0
VERTEX
8
0
62
255
10
-30.824499
20
-15.344215
30
0
70
32
0
VERTEX
8
0
62
255
10
-30.824499
20
-17.392002
30
0
70
32
0
VERTEX
8
0
62
255
10
-30.824499
20
-19.439788
30
0
70
32
0
VERTEX
8
0
62
255
10
-30.824499
20
-21.487575
30
0
70
32
0
VERTEX
8
0
62
255
10
-30.824499
20
-23.535362
30
0
70
32
0
VERTEX
8
0
62
255
10
-30.824499
20
-25.583148
30
0
70
32
0
VERTEX
8
0
62
255
10
-30.824499
20
-27.630935
30
0
70
32
0
VERTEX
8
0
62
255
10
-30.824499
20
-29.678722
30
0
70
32
0
VERTEX
8
0
62
255
10
-30.824499
20
-31.726509
30
0
70
32
0
VERTEX
8
0
62
255
10
-30.824499
20
-33.774295
30
0
70
32
0
VERTEX
8
0
62
255
10
-30.824499
20
-35.822082
30
0
70
32
0
VERTEX
8
0
62
255
10
-30.824499
20
-37.869869
30
0
70
32
0
VERTEX
8
0
62
255
10
-30.824499
20
-39.917655
30
0
70
32
0
VERTEX
8
0
62
255
10
-30.824499
20
-41.965442
30
0
70
32
0
SEQEND
8
0
0
POLYLINE
8
0
62
255
66
1
10
0
20
0
30
0
70
8
0
VERTEX
8
0
62
255
10
-11.851002
20
0
30
0
70
32
0
VERTEX
8
0
62
255
10
-11.854022
20
0.095135879
30
0
70
32
0
VERTEX
8
0
62
255
10
-11.86307
20
0.18988868
30
0
70
32
0
VERTEX
8
0
62
255
10
-11.878109
20
0.28387687
30
0
70
32
0
VERTEX
8
0
62
255
10
-11.899079
20
0.37672198
30
0
70
32
0
VERTEX
8
0
62
255
10
-11.925895
20
0.46805017
30
0
70
32
0
VERTEX
8
0
62
255
10
-11.95845
20
0.55749368
30
0
70
32
0
VERTEX
8
0
62
255
10
-11.996612
20
0.64469237
30
0
70
32
0
VERTEX
8
0
62
255
10
-12.040228
20
0.7292951
30
0
70
32
0
VERTEX
8
0
62
255
10
-12.089121
20
0.81096123
30
0
70
32
0
VERTEX
8
0
62
255
10
-12.143096
20
0.88936189
30
0
70
32
0
VERTEX
8
0
62
255
10
-12.201935
20
0.96418141
30
0
70
32
0
VERTEX
8
0
62
255
10
-12.265401
20
1.0351185
30
0
70
32
0
VERTEX
8
0
62
255
10
-12.333238
20
1.1018876
30
0
70
32
0
VERTEX
8
0
62
255
10
-12.405173
20
1.1642197
30
0
70
32
0
VERTEX
8
0
62
255
10
-12.480916
20
1.2218639
30
0
70
32
0
VERTEX
8
0
62
255
10
-12.560164
20
1.2745881
30
0
70
32
0
VERTEX
8
0
62
255
10
-12.642595
20
1.32218
30
0
70
32
0
VERTEX
8
0
62
255
10
-12.727879
20
1.364448
30
0
70
32
0
VERTEX
8
0
62
255
10
-12.815672
20
1.4012218
30
0
70
32
0
VERTEX
8
0
62
255
10
-12.905621
20
1.4323534
30
0
70
32
0
VERTEX
8
0
62
255
10
-12.997363
20
1.4577174
30
0
70
32
0
VERTEX
8
0
62
255
10
-13.09053
20
1.4772116
30
0
70
32
0
VERTEX
8
0
62
255
10
-13.184744
20
1.4907577
30
0
70
32
0
VERTEX
8
0
62
255
10
-13.279629
20
1.498301
30
0
70
32
0
VERTEX
8
0
62
255
10
-13.374801
20
1.4998112
30
0
70
32
0
VERTEX
8
0
62
255
10
-13.469877
20
1.4952822
30
0
70
32
0
VERTEX
8
0
62
255
10
-13.564474
20
1.4847322
30
0
70
32
0
VERTEX
8
0
62
255
10
-13.658212
20
1.4682037
30
0
70
32
0
VERTEX
8
0
62
255
10
-13.750713
20
1.4457632
30
0
70
32
0
VERTEX
8
0
62
255
10
-13.841604
20
1.4175012
30
0
70
32
0
VERTEX
8
0
62
255
10
-13.930519
20
1.3835314
30
0
70
32
0
VERTEX
8
0
62
255
10
-14.017102
20
1.3439907
30
0
70
32
0
VERTEX
8
0
62
255
10
-14.101002
20
1.2990381
30
0
70
32
0
VERTEX
8
0
62
255
10
-14.181882
20
1.2488548
30
0
70
32
0
VERTEX
8
0
62
255
10
-14.259416
20
1.1936428
30
0
70
32
0
VERTEX
8
0
62
255
10
-14.333293
20
1.1336244
30
0
70
32
0
VERTEX
8
0
62
255
10
-14.403214
20
1.0690413
30
0
70
32
0
VERTEX
8
0
62
255
10
-14.468898
20
1.0001535
30
0
70
32
0
VERTEX
8
0
62
255
10
-14.530081
20
0.92723848
30
0
70
32
0
VERTEX
8
0
62
255
10
-14.586517
20
0.8505898
30
0
70
32
0
VERTEX
8
0
62
255
10
-14.637977
20
0.77051609
30
0
70
32
0
VERTEX
8
0
62
255
10
-14.684255
20
0.68733978
30
0
70
32
0
VERTEX
8
0
62
255
10
-14.725164
20
0.6013958
30
0
70
32
0
VERTEX
8
0
62
255
10
-14.760541
20
0.51303021
30
0
70
32
0
VERTEX
8
0
62
255
10
-14.790241
20
0.42259884
30
0
70
32
0
VERTEX
8
0
62
255
10
-14.814146
20
0.3304658
30
0
70
32
0
VERTEX
8
0
62
255
10
-14.83216
20
0.23700209
30
0
70
32
0
VERTEX
8
0
62
255
10
-14.84421
20
0.14258406
30
0
70
32
0
VERTEX
8
0
62
255
10
-14.850247
20
0.0475919
30
0
70
32
0
VERTEX
8
0
62
255
10
-14.850247
20
-0.0475919
30
0
70
32
0
VERTEX
8
0
62
255
10
-14.84421
20
-0.14258406
30
0
70
32
0
VERTEX
8
0
62
255
10
-14.83216
20
-0.23700209
30
0
70
32
0
VERTEX
8
0
62
255
10
-14.814146
20
-0.3304658
30
0
70
32
0
VERTEX
8
0
62
255
10
-14.790241
20
-0.42259884
30
0
70
32
0
VERTEX
8
0
62
255
10
-14.760541
20
-0.51303021
30
0
70
32
0
VERTEX
8
0
62
255
10
-14.725164
20
-0.6013958
30
0
70
32
0
VERTEX
8
0
62
255
10
-14.684255
20
-0.68733978
30
0
70
32
0
VERTEX
8
0
62
255
10
-14.637977
20
-0.77051609
30
0
70
32
0
VERTEX
8
0
62
255
10
-14.586517
20
-0.8505898
30
0
70
32
0
VERTEX
8
0
62
255
10
-14.530081
20
-0.92723848
30
0
70
32
0
VERTEX
8
0
62
255
10
-14.468898
20
-1.0001535
30
0
70
32
0
VERTEX
8
0
62
255
10
-14.403214
20
-1.0690413
30
0
70
32
0
VERTEX
8
0
62
255
10
-14.333293
20
-1.1336244
30
0
70
32
0
VERTEX
8
0
62
255
10
-14.259416
20
-1.1936428
30
0
70
32
0
VERTEX
8
0
62
255
10
-14.181882
20
-1.2488548
30
0
70
32
0
VERTEX
8
0
62
255
10
-14.101002
20
-1.2990381
30
0
70
32
0
VERTEX
8
0
62
255
10
-14.017102
20
-1.3439907
30
0
70
32
0
VERTEX
8
0
62
255
10
-13.930519
20
-1.3835314
30
0
70
32
0
VERTEX
8
0
62
255
10
-13.841604
20
-1.4175012
30
0
70
32
0
VERTEX
8
0
62
255
10
-13.750713
20
-1.4457632
30
0
70
32
0
VERTEX
8
0
62
255
10
-13.658212
20
-1.4682037
30
0
70
32
0
VERTEX
8
0
62
255
10
-13.564474
20
-1.4847322
30
0
70
32
0
VERTEX
8
0
62
255
10
-13.469877
20
-1.4952822
30
0
70
32
0
VERTEX
8
0
62
255
10
-13.374801
20
-1.4998112
30
0
70
32
0
VERTEX
8
0
62
255
10
-13.279629
20
-1.498301
30
0
70
32
0
VERTEX
8
0
62
255
10
-13.184744
20
-1.4907577
30
0
70
32
0
VERTEX
8
0
62
255
10
-13.09053
20
-1.4772116
30
0
70
32
0
VERTEX
8
0
62
255
10
-12.997363
20
-1.4577174
30
0
70
32
0
VERTEX
8
0
62
255
10
-12.905621
20
-1.4323534
30
0
70
32
0
VERTEX
8
0
62
255
10
-12.815672
20
-1.4012218
30
0
70
32
0
VERTEX
8
0
62
255
10
-12.727879
20
-1.364448
30
0
70
32
0
VERTEX
8
0
62
255
10
-12.642595
20
-1.32218
30
0
70
32
0
VERTEX
8
0
62
255
10
-12.560164
20
-1.2745881
30
0
70
32
0
VERTEX
8
0
62
255
10
-12.480916
20
-1.2218639
30
0
70
32
0
VERTEX
8
0
62
255
10
-12.405173
20
-1.1642197
30
0
70
32
0
VERTEX
8
0
62
255
10
-12.333238
20
-1.1018876
30
0
70
32
0
VERTEX
8
0
62
255
10
-12.265401
20
-1.0351185
30
0
70
32
0
VERTEX
8
0
62
255
10
-12.201935
20
-0.96418141
30
0
70
32
0
VERTEX
8
0
62
255
10
-12.143096
20
-0.88936189
30
0
70
32
0
VERTEX
8
0
62
255
10
-12.089121
20
-0.81096123
30
0
70
32
0
VERTEX
8
0
62
255
10
-12.040228
20
-0.7292951
30
0
70
32
0
VERTEX
8
0
62
255
10
-11.996612
20
-0.64469237
30
0
70
32
0
VERTEX
8
0
62
255
10
-11.95845
20
-0.55749368
30
0
70
32
0
VERTEX
8
0
62
255
10
-11.925895
20
-0.46805017
30
0
70
32
0
VERTEX
8
0
62
255
10
-11.899079
20
-0.37672198
30
0
70
32
0
VERTEX
8
0
62
255
10
-11.878109
20
-0.28387687
30
0
70
32
0
VERTEX
8
0
62
255
10
-11.86307
20
-0.18988868
30
0
70
32
0
VERTEX
8
0
62
255
10
-11.854022
20
-0.095135879
30
0
70
32
0
VERTEX
8
0
62
255
10
-11.851002
20
-3.6739404e-16
30
0
70
32
0
SEQEND
8
0
0
POLYLINE
8
0
62
255
66
1
10
0
20
0
30
0
70
8
0
VERTEX
8
0
62
255
10
38.148998
20
0
30
0
70
32
0
VERTEX
8
0
62
255
10
38.145978
20
0.095135879
30
0
70
32
0
VERTEX
8
0
62
255
10
38.13693
20
0.18988868
30
0
70
32
0
VERTEX
8
0
62
255
10
38.121891
20
0.28387687
30
0
70
32
0
VERTEX
8
0
62
255
10
38.100921
20
0.37672198
30
0
70
32
0
VERTEX
8
0
62
255
10
38.074105
20
0.46805017
30
0
70
32
0
VERTEX
8
0
62
255
10
38.04155
20
0.55749368
30
0
70
32
0
VERTEX
8
0
62
255
10
38.003388
20
0.64469237
30
0
70
32
0
VERTEX
8
0
62
255
10
37.959772
20
0.7292951
30
0
70
32
0
VERTEX
8
0
62
255
10
37.910879
20
0.81096123
30
0
70
32
0
VERTEX
8
0
62
255
10
37.856904
20
0.88936189
30
0
70
32
0
VERTEX
8
0
62
255
10
37.798065
20
0.96418141
30
0
70
32
0
VERTEX
8
0
62
255
10
37.734599
20
1.0351185
30
0
70
32
0
VERTEX
8
0
62
255
10
37.666762
20
1.1018876
30
0
70
32
0
VERTEX
8
0
62
255
10
37.594827
20
1.1642197
30
0
70
32
0
VERTEX
8
0
62
255
10
37.519084
20
1.2218639
30
0
70
32
0
VERTEX
8
0
62
255
10
37.439836
20
1.2745881
30
0
70
32
0
VERTEX
8
0
62
255
10
37.357405
20
1.32218
30
0
70
32
0
VERTEX
8
0
62
255
10
37.272121
20
1.364448
30
0
70
32
0
VERTEX
8
0
62
255
10
37.184328
20
1.4012218
30
0
70
32
0
VERTEX
8
0
62
255
10
37.094379
20
1.4323534
30
0
70
32
0
VERTEX
8
0
62
255
10
37.002637
20
1.4577174
30
0
70
32
0
VERTEX
8
0
62
255
10
36.90947
20
1.4772116
30
0
70
32
0
VERTEX
8
0
62
255
10
36.815256
20
1.4907577
30
0
70
32
0
VERTEX
8
0
62
255
10
36.720371
20
1.498301
30
0
70
32
0
VERTEX
8
0
62
255
10
36.625199
20
1.4998112
30
0
70
32
0
VERTEX
8
0
62
255
10
36.530123
20
1.4952822
30
0
70
32
0
VERTEX
8
0
62
255
10
36.435526
20
1.4847322
30
0
70
32
0
VERTEX
8
0
62
255
10
36.341788
20
1.4682037
30
0
70
32
0
VERTEX
8
0
62
255
10
36.249287
20
1.4457632
30
0
70
32
0
VERTEX
8
0
62
255
10
36.158396
20
1.4175012
30
0
70
32
0
VERTEX
8
0
62
255
10
36.069481
20
1.3835314
30
0
70
32
0
VERTEX
8
0
62
255
10
35.982898
20
1.3439907
30
0
70
32
0
VERTEX
8
0
62
255
10
35.898998
20
1.2990381
30
0
70
32
0
VERTEX
8
0
62
255
10
35.818118
20
1.2488548
30
0
70
32
0
VERTEX
8
0
62
255
10
35.740584
20
1.1936428
30
0
70
32
0
VERTEX
8
0
62
255
10
35.666707
20
1.1336244
30
0
70
32
0
VERTEX
8
0
62
255
10
35.596786
20
1.0690413
30
0
70
32
0
VERTEX
8
0
62
255
10
35.531102
20
1.0001535
30
0
70
32
0
VERTEX
8
0
62
255
10
35.469919
20
0.92723848
30
0
70
32
0
VERTEX
8
0
62
255
10
35.413483
20
0.8505898
30
0
70
32
0
VERTEX
8
0
62
255
10
35.362023
20
0.77051609
30
0
70
32
0
VERTEX
8
0
62
255
10
35.315745
20
0.68733978
30
0
70
32
0
VERTEX
8
0
62
255
10
35.274836
20
0.6013958
30
0
70
32
0
VERTEX
8
0
62
255
10
35.239459
20
0.51303021
30
0
70
32
0
VERTEX
8
0
62
255
10
35.209759
20
0.42259884
30
0
70
32
0
VERTEX
8
0
62
255
10
35.185854
20
0.3304658
30
0
70
32
0
VERTEX
8
0
62
255
10
35.16784
20
0.23700209
30
0
70
32
0
VERTEX
8
0
62
255
10
35.15579
20
0.14258406
30
0
70
32
0
VERTEX
8
0
62
255
10
35.149753
20
0.0475919
30
0
70
32
0
VERTEX
8
0
62
255
10
35.149753
20
-0.0475919
30
0
70
32
0
VERTEX
8
0
62
255
10
35.15579
20
-0.14258406
30
0
70
32
0
VERTEX
8
0
62
255
10
35.16784
20
-0.23700209
30
0
70
32
0
VERTEX
8
0
62
255
10
35.185854
20
-0.3304658
30
0
70
32
0
VERTEX
8
0
62
255
10
35.209759
20
-0.42259884
30
0
70
32
0
VERTEX
8
0
62
255
10
35.239459
20
-0.51303021
30
0
70
32
0
VERTEX
8
0
62
255
10
35.274836
20
-0.6013958
30
0
70
32
0
VERTEX
8
0
62
255
10
35.315745
20
-0.68733978
30
0
70
32
0
VERTEX
8
0
62
255
10
35.362023
20
-0.77051609
30
0
70
32
0
VERTEX
8
0
62
255
10
35.413483
20
-0.8505898
30
0
70
32
0
VERTEX
8
0
62
255
10
35.469919
20
-0.92723848
30
0
70
32
0
VERTEX
8
0
62
255
10
35.531102
20
-1.0001535
30
0
70
32
0
VERTEX
8
0
62
255
10
35.596786
20
-1.0690413
30
0
70
32
0
VERTEX
8
0
62
255
10
35.666707
20
-1.1336244
30
0
70
32
0
VERTEX
8
0
62
255
10
35.740584
20
-1.1936428
30
0
70
32
0
VERTEX
8
0
62
255
10
35.818118
20
-1.2488548
30
0
70
32
0
VERTEX
8
0
62
255
10
35.898998
20
-1.2990381
30
0
70
32
0
VERTEX
8
0
62
255
10
35.982898
20
-1.3439907
30
0
70
32
0
VERTEX
8
0
62
255
10
36.069481
20
-1.3835314
30
0
70
32
0
VERTEX
8
0
62
255
10
36.158396
20
-1.4175012
30
0
70
32
0
VERTEX
8
0
62
255
10
36.249287
20
-1.4457632
30
0
70
32
0
VERTEX
8
0
62
255
10
36.341788
20
-1.4682037
30
0
70
32
0
VERTEX
8
0
62
255
10
36.435526
20
-1.4847322
30
0
70
32
0
VERTEX
8
0
62
255
10
36.530123
20
-1.4952822
30
0
70
32
0
VERTEX
8
0
62
255
10
36.625199
20
-1.4998112
30
0
70
32
0
VERTEX
8
0
62
255
10
36.720371
20
-1.498301
30
0
70
32
0
VERTEX
8
0
62
255
10
36.815256
20
-1.4907577
30
0
70
32
0
VERTEX
8
0
62
255
10
36.90947
20
-1.4772116
30
0
70
32
0
VERTEX
8
0
62
255
10
37.002637
20
-1.4577174
30
0
70
32
0
VERTEX
8
0
62
255
10
37.094379
20
-1.4323534
30
0
70
32
0
VERTEX
8
0
62
255
10
37.184328
20
-1.4012218
30
0
70
32
0
VERTEX
8
0
62
255
10
37.272121
20
-1.364448
30
0
70
32
0
VERTEX
8
0
62
255
10
37.357405
20
-1.32218
30
0
70
32
0
VERTEX
8
0
62
255
10
37.439836
20
-1.2745881
30
0
70
32
0
VERTEX
8
0
62
255
10
37.519084
20
-1.2218639
30
0
70
32
0
VERTEX
8
0
62
255
10
37.594827
20
-1.1642197
30
0
70
32
0
VERTEX
8
0
62
255
10
37.666762
20
-1.1018876
30
0
70
32
0
VERTEX
8
0
62
255
10
37.734599
20
-1.0351185
30
0
70
32
0
VERTEX
8
0
62
255
10
37.798065
20
-0.96418141
30
0
70
32
0
VERTEX
8
0
62
255
10
37.856904
20
-0.88936189
30
0
70
32
0
VERTEX
8
0
62
255
10
37.910879
20
-0.81096123
30
0
70
32
0
VERTEX
8
0
62
255
10
37.959772
20
-0.7292951
30
0
70
32
0
VERTEX
8
0
62
255
10
38.003388
20
-0.64469237
30
0
70
32
0
VERTEX
8
0
62
255
10
38.04155
20
-0.55749368
30
0
70
32
0
VERTEX
8
0
62
255
10
38.074105
20
-0.46805017
30
0
70
32
0
VERTEX
8
0
62
255
10
38.100921
20
-0.37672198
30
0
70
32
0
VERTEX
8
0
62
255
10
38.121891
20
-0.28387687
30
0
70
32
0
VERTEX
8
0
62
255
10
38.13693
20
-0.18988868
30
0
70
32
0
VERTEX
8
0
62
255
10
38.145978
20
-0.095135879
30
0
70
32
0
VERTEX
8
0
62
255
10
38.148998
20
-3.6739404e-16
30
0
70
32
0
SEQEND
8
0
0
POLYLINE
8
0
62
255
66
1
10
0
20
0
30
0
70
8
0
VERTEX
8
0
62
255
10
-11.851002
20
100
30
0
70
32
0
VERTEX
8
0
62
255
10
-11.854022
20
100.09514
30
0
70
32
0
VERTEX
8
0
62
255
10
-11.86307
20
100.18989
30
0
70
32
0
VERTEX
8
0
62
255
10
-11.878109
20
100.28388
30
0
70
32
0
VERTEX
8
0
62
255
10
-11.899079
20
100.37672
30
0
70
32
0
VERTEX
8
0
62
255
10
-11.925895
20
100.46805
30
0
70
32
0
VERTEX
8
0
62
255
10
-11.95845
20
100.55749
30
0
70
32
0
VERTEX
8
0
62
255
10
-11.996612
20
100.64469
30
0
70
32
0
VERTEX
8
0
62
255
10
-12.040228
20
100.7293
30
0
70
32
0
VERTEX
8
0
62
255
10
-12.089121
20
100.81096
30
0
70
32
0
VERTEX
8
0
62
255
10
-12.143096
20
100.88936
30
0
70
32
0
VERTEX
8
0
62
255
10
-12.201935
20
100.96418
30
0
70
32
0
VERTEX
8
0
62
255
10
-12.265401
20
101.03512
30
0
70
32
0
VERTEX
8
0
62
255
10
-12.333238
20
101.10189
30
0
70
32
0
VERTEX
8
0
62
255
10
-12.405173
20
101.16422
30
0
70
32
0
VERTEX
8
0
62
255
10
-12.480916
20
101.22186
30
0
70
32
0
VERTEX
8
0
62
255
10
-12.560164
20
101.27459
30
0
70
32
0
VERTEX
8
0
62
255
10
-12.642595
20
101.32218
30
0
70
32
0
VERTEX
8
0
62
255
10
-12.727879
20
101.36445
30
0
70
32
0
VERTEX
8
0
62
255
10
-12.815672
20
101.40122
30
0
70
32
0
VERTEX
8
0
62
255
10
-12.905621
20
101.43235
30
0
70
32
0
VERTEX
8
0
62
255
10
-12.997363
20
101.45772
30
0
70
32
0
VERTEX
8
0
62
255
10
-13.09053
20
101.47721
30
0
70
32
0
VERTEX
8
0
62
255
10
-13.184744
20
101.49076
30
0
70
32
0
VERTEX
8
0
62
255
10
-13.279629
20
101.4983
30
0
70
32
0
VERTEX
8
0
62
255
10
-13.374801
20
101.49981
30
0
70
32
0
VERTEX
8
0
62
255
10
-13.469877
20
101.49528
30
0
70
32
0
VERTEX
8
0
62
255
10
-13.564474
20
101.48473
30
0
70
32
0
VERTEX
8
0
62
255
10
-13.658212
20
101.4682
30
0
70
32
0
VERTEX
8
0
62
255
10
-13.750713
20
101.44576
30
0
70
32
0
VERTEX
8
0
62
255
10
-13.841604
20
101.4175
30
0
70
32
0
VERTEX
8
0
62
255
10
-13.930519
20
101.38353
30
0
70
32
0
VERTEX
8
0
62
255
10
-14.017102
20
101.34399
30
0
70
32
0
VERTEX
8
0
62
255
10
-14.101002
20
101.29904
30
0
70
32
0
VERTEX
8
0
62
255
10
-14.181882
20
101.24885
30
0
70
32
0
VERTEX
8
0
62
255
10
-14.259416
20
101.19364
30
0
70
32
0
VERTEX
8
0
62
255
10
-14.333293
20
101.13362
30
0
70
32
0
VERTEX
8
0
62
255
10
-14.403214
20
101.06904
30
0
70
32
0
VERTEX
8
0
62
255
10
-14.468898
20
101.00015
30
0
70
32
0
VERTEX
8
0
62
255
10
-14.530081
20
100.92724
30
0
70
32
0
VERTEX
8
0
62
255
10
-14.586517
20
100.85059
30
0
70
32
0
VERTEX
8
0
62
255
10
-14.637977
20
100.77052
30
0
70
32
0
VERTEX
8
0
62
255
10
-14.684255
20
100.68734
30
0
70
32
0
VERTEX
8
0
62
255
10
-14.725164
20
100.6014
30
0
70
32
0
VERTEX
8
0
62
255
10
-14.760541
20
100.51303
30
0
70
32
0
VERTEX
8
0
62
255
10
-14.790241
20
100.4226
30
0
70
32
0
VERTEX
8
0
62
255
10
-14.814146
20
100.33047
30
0
70
32
0
VERTEX
8
0
62
255
10
-14.83216
20
100.237
30
0
70
32
0
VERTEX
8
0
62
255
10
-14.84421
20
100.14258
30
0
70
32
0
VERTEX
8
0
62
255
10
-14.850247
20
100.04759
30
0
70
32
0
VERTEX
8
0
62
255
10
-14.850247
20
99.952408
30
0
70
32
0
VERTEX
8
0
62
255
10
-14.84421
20
99.857416
30
0
70
32
0
VERTEX
8
0
62
255
10
-14.83216
20
99.762998
30
0
70
32
0
VERTEX
8
0
62
255
10
-14.814146
20
99.669534
30
0
70
32
0
VERTEX
8
0
62
255
10
-14.790241
20
99.577401
30
0
70
32
0
VERTEX
8
0
62
255
10
-14.760541
20
99.48697
30
0
70
32
0
VERTEX
8
0
62
255
10
-14.725164
20
99.398604
30
0
70
32
0
VERTEX
8
0
62
255
10
-14.684255
20
99.31266
30
0
70
32
0
VERTEX
8
0
62
255
10
-14.637977
20
99.229484
30
0
70
32
0
VERTEX
8
0
62
255
10
-14.586517
20
99.14941
30
0
70
32
0
VERTEX
8
0
62
255
10
-14.530081
20
99.072762
30
0
70
32
0
VERTEX
8
0
62
255
10
-14.468898
20
98.999846
30
0
70
32
0
VERTEX
8
0
62
255
10
-14.403214
20
98.930959
30
0
70
32
0
VERTEX
8
0
62
255
10
-14.333293
20
98.866376
30
0
70
32
0
VERTEX
8
0
62
255
10
-14.259416
20
98.806357
30
0
70
32
0
VERTEX
8
0
62
255
10
-14.181882
20
98.751145
30
0
70
32
0
VERTEX
8
0
62
255
10
-14.101002
20
98.700962
30
0
70
32
0
VERTEX
8
0
62
255
10
-14.017102
20
98.656009
30
0
70
32
0
VERTEX
8
0
62
255
10
-13.930519
20
98.616469
30
0
70
32
0
VERTEX
8
0
62
255
10
-13.841604
20
98.582499
30
0
70
32
0
VERTEX
8
0
62
255
10
-13.750713
20
98.554237
30
0
70
32
0
VERTEX
8
0
62
255
10
-13.658212
20
98.531796
30
0
70
32
0
VERTEX
8
0
62
255
10
-13.564474
20
98.515268
30
0
70
32
0
VERTEX
8
0
62
255
10
-13.469877
20
98.504718
30
0
70
32
0
VERTEX
8
0
62
255
10
-13.374801
20
98.500189
30
0
70
32
0
VERTEX
8
0
62
255
10
-13.279629
20
98.501699
30
0
70
32
0
VERTEX
8
0
62
255
10
-13.184744
20
98.509242
30
0
70
32
0
VERTEX
8
0
62
255
10
-13.09053
20
98.522788
30
0
70
32
0
VERTEX
8
0
62
255
10
-12.997363
20
98.542283
30
0
70
32
0
VERTEX
8
0
62
255
10
-12.905621
20
98.567647
30
0
70
32
0
VERTEX
8
0
62
255
10
-12.815672
20
98.598778
30
0
70
32
0
VERTEX
8
0
62
255
10
-12.727879
20
98.635552
30
0
70
32
0
VERTEX
8
0
62
255
10
-12.642595
20
98.67782
30
0
70
32
0
VERTEX
8
0
62
255
10
-12.560164
20
98.725412
30
0
70
32
0
VERTEX
8
0
62
255
10
-12.480916
20
98.778136
30
0
70
32
0
VERTEX
8
0
62
255
10
-12.405173
20
98.83578
30
0
70
32
0
VERTEX
8
0
62
255
10
-12.333238
20
98.898112
30
0
70
32
0
VERTEX
8
0
62
255
10
-12.265401
20
98.964881
30
0
70
32
0
VERTEX
8
0
62
255
10
-12.201935
20
99.035819
30
0
70
32
0
VERTEX
8
0
62
255
10
-12.143096
20
99.110638
30
0
70
32
0
VERTEX
8
0
62
255
10
-12.089121
20
99.189039
30
0
70
32
0
VERTEX
8
0
62
255
10
-12.040228
20
99.270705
30
0
70
32
0
VERTEX
8
0
62
255
10
-11.996612
20
99.355308
30
0
70
32
0
VERTEX
8
0
62
255
10
-11.95845
20
99.442506
30
0
70
32
0
VERTEX
8
0
62
255
10
-11.925895
20
99.53195
30
0
70
32
0
VERTEX
8
0
62
255
10
-11.899079
20
99.623278
30
0
70
32
0
VERTEX
8
0
62
255
10
-11.878109
20
99.716123
30
0
70
32
0
VERTEX
8
0
62
255
10
-11.86307
20
99.810111
30
0
70
32
0
VERTEX
8
0
62
255
10
-11.854022
20
99.904864
30
0
70
32
0
VERTEX
8
0
62
255
10
-11.851002
20
100
30
0
70
32
0
SEQEND
8
0
0
POLYLINE
8
0
62
255
66
1
10
0
20
0
30
0
70
8
0
VERTEX
8
0
62
255
10
38.148998
20
100
30
0
70
32
0
VERTEX
8
0
62
255
10
38.145978
20
100.09514
30
0
70
32
0
VERTEX
8
0
62
255
10
38.13693
20
100.18989
30
0
70
32
0
VERTEX
8
0
62
255
10
38.121891
20
100.28388
30
0
70
32
0
VERTEX
8
0
62
255
10
38.100921
20
100.37672
30
0
70
32
0
VERTEX
8
0
62
255
10
38.074105
20
100.46805
30
0
70
32
0
VERTEX
8
0
62
255
10
38.04155
20
100.55749
30
0
70
32
0
VERTEX
8
0
62
255
10
38.003388
20
100.64469
30
0
70
32
0
VERTEX
8
0
62
255
10
37.959772
20
100.7293
30
0
70
32
0
VERTEX
8
0
62
255
10
37.910879
20
100.81096
30
0
70
32
0
VERTEX
8
0
62
255
10
37.856904
20
100.88936
30
0
70
32
0
VERTEX
8
0
62
255
10
37.798065
20
100.96418
30
0
70
32
0
VERTEX
8
0
62
255
10
37.734599
20
101.03512
30
0
70
32
0
VERTEX
8
0
62
255
10
37.666762
20
101.10189
30
0
70
32
0
VERTEX
8
0
62
255
10
37.594827
20
101.16422
30
0
70
32
0
VERTEX
8
0
62
255
10
37.519084
20
101.22186
30
0
70
32
0
VERTEX
8
0
62
255
10
37.439836
20
101.27459
30
0
70
32
0
VERTEX
8
0
62
255
10
37.357405
20
101.32218
30
0
70
32
0
VERTEX
8
0
62
255
10
37.272121
20
101.36445
30
0
70
32
0
VERTEX
8
0
62
255
10
37.184328
20
101.40122
30
0
70
32
0
VERTEX
8
0
62
255
10
37.094379
20
101.43235
30
0
70
32
0
VERTEX
8
0
62
255
10
37.002637
20
101.45772
30
0
70
32
0
VERTEX
8
0
62
255
10
36.90947
20
101.47721
30
0
70
32
0
VERTEX
8
0
62
255
10
36.815256
20
101.49076
30
0
70
32
0
VERTEX
8
0
62
255
10
36.720371
20
101.4983
30
0
70
32
0
VERTEX
8
0
62
255
10
36.625199
20
101.49981
30
0
70
32
0
VERTEX
8
0
62
255
10
36.530123
20
101.49528
30
0
70
32
0
VERTEX
8
0
62
255
10
36.435526
20
101.48473
30
0
70
32
0
VERTEX
8
0
62
255
10
36.341788
20
101.4682
30
0
70
32
0
VERTEX
8
0
62
255
10
36.249287
20
101.44576
30
0
70
32
0
VERTEX
8
0
62
255
10
36.158396
20
101.4175
30
0
70
32
0
VERTEX
8
0
62
255
10
36.069481
20
101.38353
30
0
70
32
0
VERTEX
8
0
62
255
10
35.982898
20
101.34399
30
0
70
32
0
VERTEX
8
0
62
255
10
35.898998
20
101.29904
30
0
70
32
0
VERTEX
8
0
62
255
10
35.818118
20
101.24885
30
0
70
32
0
VERTEX
8
0
62
255
10
35.740584
20
101.19364
30
0
70
32
0
VERTEX
8
0
62
255
10
35.666707
20
101.13362
30
0
70
32
0
VERTEX
8
0
62
255
10
35.596786
20
101.06904
30
0
70
32
0
VERTEX
8
0
62
255
10
35.531102
20
101.00015
30
0
70
32
0
VERTEX
8
0
62
255
10
35.469919
20
100.92724
30
0
70
32
0
VERTEX
8
0
62
255
10
35.413483
20
100.85059
30
0
70
32
0
VERTEX
8
0
62
255
10
35.362023
20
100.77052
30
0
70
32
0
VERTEX
8
0
62
255
10
35.315745
20
100.68734
30
0
70
32
0
VERTEX
8
0
62
255
10
35.274836
20
100.6014
30
0
70
32
0
VERTEX
8
0
62
255
10
35.239459
20
100.51303
30
0
70
32
0
VERTEX
8
0
62
255
10
35.209759
20
100.4226
30
0
70
32
0
VERTEX
8
0
62
255
10
35.185854
20
100.33047
30
0
70
32
0
VERTEX
8
0
62
255
10
35.16784
20
100.237
30
0
70
32
0
VERTEX
8
0
62
255
10
35.15579
20
100.14258
30
0
70
32
0
VERTEX
8
0
62
255
10
35.149753
20
100.04759
30
0
70
32
0
VERTEX
8
0
62
255
10
35.149753
20
99.952408
30
0
70
32
0
VERTEX
8
0
62
255
10
35.15579
20
99.857416
30
0
70
32
0
VERTEX
8
0
62
255
10
35.16784
20
99.762998
30
0
70
32
0
VERTEX
8
0
62
255
10
35.185854
20
99.669534
30
0
70
32
0
VERTEX
8
0
62
255
10
35.209759
20
99.577401
30
0
70
32
0
VERTEX
8
0
62
255
10
35.239459
20
99.48697
30
0
70
32
0
VERTEX
8
0
62
255
10
35.274836
20
99.398604
30
0
70
32
0
VERTEX
8
0
62
255
10
35.315745
20
99.31266
30
0
70
32
0
VERTEX
8
0
62
255
10
35.362023
20
99.229484
30
0
70
32
0
VERTEX
8
0
62
255
10
35.413483
20
99.14941
30
0
70
32
0
VERTEX
8
0
62
255
10
35.469919
20
99.072762
30
0
70
32
0
VERTEX
8
0
62
255
10
35.531102
20
98.999846
30
0
70
32
0
VERTEX
8
0
62
255
10
35.596786
20
98.930959
30
0
70
32
0
VERTEX
8
0
62
255
10
35.666707
20
98.866376
30
0
70
32
0
VERTEX
8
0
62
255
10
35.740584
20
98.806357
30
0
70
32
0
VERTEX
8
0
62
255
10
35.818118
20
98.751145
30
0
70
32
0
VERTEX
8
0
62
255
10
35.898998
20
98.700962
30
0
70
32
0
VERTEX
8
0
62
255
10
35.982898
20
98.656009
30
0
70
32
0
VERTEX
8
0
62
255
10
36.069481
20
98.616469
30
0
70
32
0
VERTEX
8
0
62
255
10
36.158396
20
98.582499
30
0
70
32
0
VERTEX
8
0
62
255
10
36.249287
20
98.554237
30
0
70
32
0
VERTEX
8
0
62
255
10
36.341788
20
98.531796
30
0
70
32
0
VERTEX
8
0
62
255
10
36.435526
20
98.515268
30
0
70
32
0
VERTEX
8
0
62
255
10
36.530123
20
98.504718
30
0
70
32
0
VERTEX
8
0
62
255
10
36.625199
20
98.500189
30
0
70
32
0
VERTEX
8
0
62
255
10
36.720371
20
98.501699
30
0
70
32
0
VERTEX
8
0
62
255
10
36.815256
20
98.509242
30
0
70
32
0
VERTEX
8
0
62
255
10
36.90947
20
98.522788
30
0
70
32
0
VERTEX
8
0
62
255
10
37.002637
20
98.542283
30
0
70
32
0
VERTEX
8
0
62
255
10
37.094379
20
98.567647
30
0
70
32
0
VERTEX
8
0
62
255
10
37.184328
20
98.598778
30
0
70
32
0
VERTEX
8
0
62
255
10
37.272121
20
98.635552
30
0
70
32
0
VERTEX
8
0
62
255
10
37.357405
20
98.67782
30
0
70
32
0
VERTEX
8
0
62
255
10
37.439836
20
98.725412
30
0
70
32
0
VERTEX
8
0
62
255
10
37.519084
20
98.778136
30
0
70
32
0
VERTEX
8
0
62
255
10
37.594827
20
98.83578
30
0
70
32
0
VERTEX
8
0
62
255
10
37.666762
20
98.898112
30
0
70
32
0
VERTEX
8
0
62
255
10
37.734599
20
98.964881
30
0
70
32
0
VERTEX
8
0
62
255
10
37.798065
20
99.035819
30
0
70
32
0
VERTEX
8
0
62
255
10
37.856904
20
99.110638
30
0
70
32
0
VERTEX
8
0
62
255
10
37.910879
20
99.189039
30
0
70
32
0
VERTEX
8
0
62
255
10
37.959772
20
99.270705
30
0
70
32
0
VERTEX
8
0
62
255
10
38.003388
20
99.355308
30
0
70
32
0
VERTEX
8
0
62
255
10
38.04155
20
99.442506
30
0
70
32
0
VERTEX
8
0
62
255
10
38.074105
20
99.53195
30
0
70
32
0
VERTEX
8
0
62
255
10
38.100921
20
99.623278
30
0
70
32
0
VERTEX
8
0
62
255
10
38.121891
20
99.716123
30
0
70
32
0
VERTEX
8
0
62
255
10
38.13693
20
99.810111
30
0
70
32
0
VERTEX
8
0
62
255
10
38.145978
20
99.904864
30
0
70
32
0
VERTEX
8
0
62
255
10
38.148998
20
100
30
0
70
32
0
SEQEND
8
0
0
POLYLINE
8
0
62
255
66
1
10
0
20
0
30
0
70
8
0
VERTEX
8
0
62
255
10
18.071428
20
59.4
30
0
70
32
0
VERTEX
8
0
62
255
10
18.058497
20
59.807336
30
0
70
32
0
VERTEX
8
0
62
255
10
18.019758
20
60.213031
30
0
70
32
0
VERTEX
8
0
62
255
10
17.955366
20
60.615453
30
0
70
32
0
VERTEX
8
0
62
255
10
17.86558
20
61.01298
30
0
70
32
0
VERTEX
8
0
62
255
10
17.750763
20
61.404013
30
0
70
32
0
VERTEX
8
0
62
255
10
17.611376
20
61.786976
30
0
70
32
0
VERTEX
8
0
62
255
10
17.44798
20
62.160327
30
0
70
32
0
VERTEX
8
0
62
255
10
17.261234
20
62.522564
30
0
70
32
0
VERTEX
8
0
62
255
10
17.05189
20
62.872227
30
0
70
32
0
VERTEX
8
0
62
255
10
16.82079
20
63.207909
30
0
70
32
0
VERTEX
8
0
62
255
10
16.568864
20
63.528258
30
0
70
32
0
VERTEX
8
0
62
255
10
16.297129
20
63.831984
30
0
70
32
0
VERTEX
8
0
62
255
10
16.006677
20
64.117863
30
0
70
32
0
VERTEX
8
0
62
255
10
15.698678
20
64.384746
30
0
70
32
0
VERTEX
8
0
62
255
10
15.374373
20
64.631556
30
0
70
32
0
VERTEX
8
0
62
255
10
15.035067
20
64.857302
30
0
70
32
0
VERTEX
8
0
62
255
10
14.682126
20
65.061072
30
0
70
32
0
VERTEX
8
0
62
255
10
14.316972
20
65.242047
30
0
70
32
0
VERTEX
8
0
62
255
10
13.941075
20
65.399499
30
0
70
32
0
VERTEX
8
0
62
255
10
13.555948
20
65.532792
30
0
70
32
0
VERTEX
8
0
62
255
10
13.163143
20
65.641391
30
0
70
32
0
VERTEX
8
0
62
255
10
12.764241
20
65.724858
30
0
70
32
0
VERTEX
8
0
62
255
10
12.360849
20
65.782857
30
0
70
32
0
VERTEX
8
0
62
255
10
11.95459
20
65.815155
30
0
70
32
0
VERTEX
8
0
62
255
10
11.5471
20
65.821621
30
0
70
32
0
VERTEX
8
0
62
255
10
11.140021
20
65.802229
30
0
70
32
0
VERTEX
8
0
62
255
10
10.734991
20
65.757058
30
0
70
32
0
VERTEX
8
0
62
255
10
10.333642
20
65.68629
30
0
70
32
0
VERTEX
8
0
62
255
10
9.937589
20
65.590208
30
0
70
32
0
VERTEX
8
0
62
255
10
9.5484273
20
65.469201
30
0
70
32
0
VERTEX
8
0
62
255
10
9.1677239
20
65.323755
30
0
70
32
0
VERTEX
8
0
62
255
10
8.7970118
20
65.154457
30
0
70
32
0
VERTEX
8
0
62
255
10
8.4377836
20
64.961987
30
0
70
32
0
VERTEX
8
0
62
255
10
8.0914858
20
64.747121
30
0
70
32
0
VERTEX
8
0
62
255
10
7.7595128
20
64.510724
30
0
70
32
0
VERTEX
8
0
62
255
10
7.4432014
20
64.253748
30
0
70
32
0
VERTEX
8
0
62
255
10
7.1438253
20
63.977228
30
0
70
32
0
VERTEX
8
0
62
255
10
6.86259
20
63.682277
30
0
70
32
0
VERTEX
8
0
62
255
10
6.6006278
20
63.370082
30
0
70
32
0
VERTEX
8
0
62
255
10
6.3589936
20
63.041902
30
0
70
32
0
VERTEX
8
0
62
255
10
6.1386604
20
62.699057
30
0
70
32
0
VERTEX
8
0
62
255
10
5.9405154
20
62.342927
30
0
70
32
0
VERTEX
8
0
62
255
10
5.7653564
20
61.974948
30
0
70
32
0
VERTEX
8
0
62
255
10
5.6138888
20
61.5966
30
0
70
32
0
VERTEX
8
0
62
255
10
5.4867224
20
61.209407
30
0
70
32
0
VERTEX
8
0
62
255
10
5.3843694
20
60.814929
30
0
70
32
0
VERTEX
8
0
62
255
10
5.3072417
20
60.414753
30
0
70
32
0
VERTEX
8
0
62
255
10
5.2556502
20
60.010491
30
0
70
32
0
VERTEX
8
0
62
255
10
5.2298023
20
59.60377
30
0
70
32
0
VERTEX
8
0
62
255
10
5.2298023
20
59.19623
30
0
70
32
0
VERTEX
8
0
62
255
10
5.2556502
20
58.789509
30
0
70
32
0
VERTEX
8
0
62
255
10
5.3072417
20
58.385247
30
0
70
32
0
VERTEX
8
0
62
255
10
5.3843694
20
57.985071
30
0
70
32
0
VERTEX
8
0
62
255
10
5.4867224
20
57.590593
30
0
70
32
0
VERTEX
8
0
62
255
10
5.6138888
20
57.2034
30
0
70
32
0
VERTEX
8
0
62
255
10
5.7653564
20
56.825052
30
0
70
32
0
VERTEX
8
0
62
255
10
5.9405154
20
56.457073
30
0
70
32
0
VERTEX
8
0
62
255
10
6.1386604
20
56.100943
30
0
70
32
0
VERTEX
8
0
62
255
10
6.3589936
20
55.758098
30
0
70
32
0
VERTEX
8
0
62
255
10
6.6006278
20
55.429918
30
0
70
32
0
VERTEX
8
0
62
255
10
6.86259
20
55.117723
30
0
70
32
0
VERTEX
8
0
62
255
10
7.1438253
20
54.822772
30
0
70
32
0
VERTEX
8
0
62
255
10
7.4432014
20
54.546252
30
0
70
32
0
VERTEX
8
0
62
255
10
7.7595128
20
54.289276
30
0
70
32
0
VERTEX
8
0
62
255
10
8.0914858
20
54.052879
30
0
70
32
0
VERTEX
8
0
62
255
10
8.4377836
20
53.838013
30
0
70
32
0
VERTEX
8
0
62
255
10
8.7970118
20
53.645543
30
0
70
32
0
VERTEX
8
0
62
255
10
9.1677239
20
53.476245
30
0
70
32
0
VERTEX
8
0
62
255
10
9.5484273
20
53.330799
30
0
70
32
0
VERTEX
8
0
62
255
10
9.937589
20
53.209792
30
0
70
32
0
VERTEX
8
0
62
255
10
10.333642
20
53.11371
30
0
70
32
0
VERTEX
8
0
62
255
10
10.734991
20
53.042942
30
0
70
32
0
VERTEX
8
0
62
255
10
11.140021
20
52.997771
30
0
70
32
0
VERTEX
8
0
62
255
10
11.5471
20
52.978379
30
0
70
32
0
VERTEX
8
0
62
255
10
11.95459
20
52.984845
30
0
70
32
0
VERTEX
8
0
62
255
10
12.360849
20
53.017143
30
0
70
32
0
VERTEX
8
0
62
255
10
12.764241
20
53.075142
30
0
70
32
0
VERTEX
8
0
62
255
10
13.163143
20
53.158609
30
0
70
32
0
VERTEX
8
0
62
255
10
13.555948
20
53.267208
30
0
70
32
0
VERTEX
8
0
62
255
10
13.941075
20
53.400501
30
0
70
32
0
VERTEX
8
0
62
255
10
14.316972
20
53.557953
30
0
70
32
0
VERTEX
8
0
62
255
10
14.682126
20
53.738928
30
0
70
32
0
VERTEX
8
0
62
255
10
15.035067
20
53.942698
30
0
70
32
0
VERTEX
8
0
62
255
10
15.374373
20
54.168444
30
0
70
32
0
VERTEX
8
0
62
255
10
15.698678
20
54.415254
30
0
70
32
0
VERTEX
8
0
62
255
10
16.006677
20
54.682137
30
0
70
32
0
VERTEX
8
0
62
255
10
16.297129
20
54.968016
30
0
70
32
0
VERTEX
8
0
62
255
10
16.568864
20
55.271742
30
0
70
32
0
VERTEX
8
0
62
255
10
16.82079
20
55.592091
30
0
70
32
0
VERTEX
8
0
62
255
10
17.05189
20
55.927773
30
0
70
32
0
VERTEX
8
0
62
255
10
17.261234
20
56.277436
30
0
70
32
0
VERTEX
8
0
62
255
10
17.44798
20
56.639673
30
0
70
32
0
VERTEX
8
0
62
255
10
17.611376
20
57.013024
30
0
70
32
0
VERTEX
8
0
62
255
10
17.750763
20
57.395987
30
0
70
32
0
VERTEX
8
0
62
255
10
17.86558
20
57.78702
30
0
70
32
0
VERTEX
8
0
62
255
10
17.955366
20
58.184547
30
0
70
32
0
VERTEX
8
0
62
255
10
18.019758
20
58.586969
30
0
70
32
0
VERTEX
8
0
62
255
10
18.058497
20
58.992664
30
0
70
32
0
VERTEX
8
0
62
255
10
18.071428
20
59.4
30
0
70
32
0
SEQEND
8
0
0
POLYLINE
8
0
62
255
66
1
10
0
20
0
30
0
70
8
0
VERTEX
8
0
62
255
10
18.071428
20
59.4
30
0
70
32
0
VERTEX
8
0
62
255
10
18.058497
20
59.807336
30
0
70
32
0
VERTEX
8
0
62
255
10
18.019758
20
60.213031
30
0
70
32
0
VERTEX
8
0
62
255
10
17.955366
20
60.615453
30
0
70
32
0
VERTEX
8
0
62
255
10
17.86558
20
61.01298
30
0
70
32
0
VERTEX
8
0
62
255
10
17.750763
20
61.404013
30
0
70
32
0
VERTEX
8
0
62
255
10
17.611376
20
61.786976
30
0
70
32
0
VERTEX
8
0
62
255
10
17.44798
20
62.160327
30
0
70
32
0
VERTEX
8
0
62
255
10
17.261234
20
62.522564
30
0
70
32
0
VERTEX
8
0
62
255
10
17.05189
20
62.872227
30
0
70
32
0
VERTEX
8
0
62
255
10
16.82079
20
63.207909
30
0
70
32
0
VERTEX
8
0
62
255
10
16.568864
20
63.528258
30
0
70
32
0
VERTEX
8
0
62
255
10
16.297129
20
63.831984
30
0
70
32
0
VERTEX
8
0
62
255
10
16.006677
20
64.117863
30
0
70
32
0
VERTEX
8
0
62
255
10
15.698678
20
64.384746
30
0
70
32
0
VERTEX
8
0
62
255
10
15.374373
20
64.631556
30
0
70
32
0
VERTEX
8
0
62
255
10
15.035067
20
64.857302
30
0
70
32
0
VERTEX
8
0
62
255
10
14.682126
20
65.061072
30
0
70
32
0
VERTEX
8
0
62
255
10
14.316972
20
65.242047
30
0
70
32
0
VERTEX
8
0
62
255
10
13.941075
20
65.399499
30
0
70
32
0
VERTEX
8
0
62
255
10
13.555948
20
65.532792
30
0
70
32
0
VERTEX
8
0
62
255
10
13.163143
20
65.641391
30
0
70
32
0
VERTEX
8
0
62
255
10
12.764241
20
65.724858
30
0
70
32
0
VERTEX
8
0
62
255
10
12.360849
20
65.782857
30
0
70
32
0
VERTEX
8
0
62
255
10
11.95459
20
65.815155
30
0
70
32
0
VERTEX
8
0
62
255
10
11.5471
20
65.821621
30
0
70
32
0
VERTEX
8
0
62
255
10
11.140021
20
65.802229
30
0
70
32
0
VERTEX
8
0
62
255
10
10.734991
20
65.757058
30
0
70
32
0
VERTEX
8
0
62
255
10
10.333642
20
65.68629
30
0
70
32
0
VERTEX
8
0
62
255
10
9.937589
20
65.590208
30
0
70
32
0
VERTEX
8
0
62
255
10
9.5484273
20
65.469201
30
0
70
32
0
VERTEX
8
0
62
255
10
9.1677239
20
65.323755
30
0
70
32
0
VERTEX
8
0
62
255
10
8.7970118
20
65.154457
30
0
70
32
0
VERTEX
8
0
62
255
10
8.4377836
20
64.961987
30
0
70
32
0
VERTEX
8
0
62
255
10
8.0914858
20
64.747121
30
0
70
32
0
VERTEX
8
0
62
255
10
7.7595128
20
64.510724
30
0
70
32
0
VERTEX
8
0
62
255
10
7.4432014
20
64.253748
30
0
70
32
0
VERTEX
8
0
62
255
10
7.1438253
20
63.977228
30
0
70
32
0
VERTEX
8
0
62
255
10
6.86259
20
63.682277
30
0
70
32
0
VERTEX
8
0
62
255
10
6.6006278
20
63.370082
30
0
70
32
0
VERTEX
8
0
62
255
10
6.3589936
20
63.041902
30
0
70
32
0
VERTEX
8
0
62
255
10
6.1386604
20
62.699057
30
0
70
32
0
VERTEX
8
0
62
255
10
5.9405154
20
62.342927
30
0
70
32
0
VERTEX
8
0
62
255
10
5.7653564
20
61.974948
30
0
70
32
0
VERTEX
8
0
62
255
10
5.6138888
20
61.5966
30
0
70
32
0
VERTEX
8
0
62
255
10
5.4867224
20
61.209407
30
0
70
32
0
VERTEX
8
0
62
255
10
5.3843694
20
60.814929
30
0
70
32
0
VERTEX
8
0
62
255
10
5.3072417
20
60.414753
30
0
70
32
0
VERTEX
8
0
62
255
10
5.2556502
20
60.010491
30
0
70
32
0
VERTEX
8
0
62
255
10
5.2298023
20
59.60377
30
0
70
32
0
VERTEX
8
0
62
255
10
5.2298023
20
59.19623
30
0
70
32
0
VERTEX
8
0
62
255
10
5.2556502
20
58.789509
30
0
70
32
0
VERTEX
8
0
62
255
10
5.3072417
20
58.385247
30
0
70
32
0
VERTEX
8
0
62
255
10
5.3843694
20
57.985071
30
0
70
32
0
VERTEX
8
0
62
255
10
5.4867224
20
57.590593
30
0
70
32
0
VERTEX
8
0
62
255
10
5.6138888
20
57.2034
30
0
70
32
0
VERTEX
8
0
62
255
10
5.7653564
20
56.825052
30
0
70
32
0
VERTEX
8
0
62
255
10
5.9405154
20
56.457073
30
0
70
32
0
VERTEX
8
0
62
255
10
6.1386604
20
56.100943
30
0
70
32
0
VERTEX
8
0
62
255
10
6.3589936
20
55.758098
30
0
70
32
0
VERTEX
8
0
62
255
10
6.6006278
20
55.429918
30
0
70
32
0
VERTEX
8
0
62
255
10
6.86259
20
55.117723
30
0
70
32
0
VERTEX
8
0
62
255
10
7.1438253
20
54.822772
30
0
70
32
0
VERTEX
8
0
62
255
10
7.4432014
20
54.546252
30
0
70
32
0
VERTEX
8
0
62
255
10
7.7595128
20
54.289276
30
0
70
32
0
VERTEX
8
0
62
255
10
8.0914858
20
54.052879
30
0
70
32
0
VERTEX
8
0
62
255
10
8.4377836
20
53.838013
30
0
70
32
0
VERTEX
8
0
62
255
10
8.7970118
20
53.645543
30
0
70
32
0
VERTEX
8
0
62
255
10
9.1677239
20
53.476245
30
0
70
32
0
VERTEX
8
0
62
255
10
9.5484273
20
53.330799
30
0
70
32
0
VERTEX
8
0
62
255
10
9.937589
20
53.209792
30
0
70
32
0
VERTEX
8
0
62
255
10
10.333642
20
53.11371
30
0
70
32
0
VERTEX
8
0
62
255
10
10.734991
20
53.042942
30
0
70
32
0
VERTEX
8
0
62
255
10
11.140021
20
52.997771
30
0
70
32
0
VERTEX
8
0
62
255
10
11.5471
20
52.978379
30
0
70
32
0
VERTEX
8
0
62
255
10
11.95459
20
52.984845
30
0
70
32
0
VERTEX
8
0
62
255
10
12.360849
20
53.017143
30
0
70
32
0
VERTEX
8
0
62
255
10
12.764241
20
53.075142
30
0
70
32
0
VERTEX
8
0
62
255
10
13.163143
20
53.158609
30
0
70
32
0
VERTEX
8
0
62
255
10
13.555948
20
53.267208
30
0
70
32
0
VERTEX
8
0
62
255
10
13.941075
20
53.400501
30
0
70
32
0
VERTEX
8
0
62
255
10
14.316972
20
53.557953
30
0
70
32
0
VERTEX
8
0
62
255
10
14.682126
20
53.738928
30
0
70
32
0
VERTEX
8
0
62
255
10
15.035067
20
53.942698
30
0
70
32
0
VERTEX
8
0
62
255
10
15.374373
20
54.168444
30
0
70
32
0
VERTEX
8
0
62
255
10
15.698678
20
54.415254
30
0
70
32
0
VERTEX
8
0
62
255
10
16.006677
20
54.682137
30
0
70
32
0
VERTEX
8
0
62
255
10
16.297129
20
54.968016
30
0
70
32
0
VERTEX
8
0
62
255
10
16.568864
20
55.271742
30
0
70
32
0
VERTEX
8
0
62
255
10
16.82079
20
55.592091
30
0
70
32
0
VERTEX
8
0
62
255
10
17.05189
20
55.927773
30
0
70
32
0
VERTEX
8
0
62
255
10
17.261234
20
56.277436
30
0
70
32
0
VERTEX
8
0
62
255
10
17.44798
20
56.639673
30
0
70
32
0
VERTEX
8
0
62
255
10
17.611376
20
57.013024
30
0
70
32
0
VERTEX
8
0
62
255
10
17.750763
20
57.395987
30
0
70
32
0
VERTEX
8
0
62
255
10
17.86558
20
57.78702
30
0
70
32
0
VERTEX
8
0
62
255
10
17.955366
20
58.184547
30
0
70
32
0
VERTEX
8
0
62
255
10
18.019758
20
58.586969
30
0
70
32
0
VERTEX
8
0
62
255
10
18.058497
20
58.992664
30
0
70
32
0
VERTEX
8
0
62
255
10
18.071428
20
59.4
30
0
70
32
0
SEQEND
8
0
0
ENDSEC
0
EOF
