0
SECTION
2
HEADER
9
$ACADVER
1
AC1006
9
$INSUNITS
70
6
0
ENDSEC
0
SECTION
2
ENTITIES
0
POLYLINE
8
0
62
255
66
1
10
0
20
0
30
0
70
8
0
VERTEX
8
0
62
255
10
-30.796804
20
-41.884772
30
0
70
32
0
VERTEX
8
0
62
255
10
-29.940432
20
-41.884772
30
0
70
32
0
VERTEX
8
0
62
255
10
-29.08406
20
-41.884772
30
0
70
32
0
VERTEX
8
0
62
255
10
-28.227688
20
-41.884772
30
0
70
32
0
VERTEX
8
0
62
255
10
-27.371316
20
-41.884772
30
0
70
32
0
VERTEX
8
0
62
255
10
-26.514944
20
-41.884772
30
0
70
32
0
VERTEX
8
0
62
255
10
-25.658572
20
-41.884772
30
0
70
32
0
VERTEX
8
0
62
255
10
-24.8022
20
-41.884772
30
0
70
32
0
VERTEX
8
0
62
255
10
-23.945828
20
-41.884772
30
0
70
32
0
VERTEX
8
0
62
255
10
-23.089456
20
-41.884772
30
0
70
32
0
VERTEX
8
0
62
255
10
-22.233084
20
-41.884772
30
0
70
32
0
VERTEX
8
0
62
255
10
-21.376712
20
-41.884772
30
0
70
32
0
VERTEX
8
0
62
255
10
-20.52034
20
-41.884772
30
0
70
32
0
VERTEX
8
0
62
255
10
-19.663969
20
-41.884772
30
0
70
32
0
VERTEX
8
0
62
255
10
-18.807597
20
-41.884772
30
0
70
32
0
VERTEX
8
0
62
255
10
-17.951225
20
-41.884772
30
0
70
32
0
VERTEX
8
0
62
255
10
-17.094853
20
-41.884772
30
0
70
32
0
VERTEX
8
0
62
255
10
-16.238481
20
-41.884772
30
0
70
32
0
VERTEX
8
0
62
255
10
-15.382109
20
-41.884772
30
0
70
32
0
VERTEX
8
0
62
255
10
-14.525737
20
-41.884772
30
0
70
32
0
VERTEX
8
0
62
255
10
-13.669365
20
-41.884772
30
0
70
32
0
VERTEX
8
0
62
255
10
-12.812993
20
-41.884772
30
0
70
32
0
VERTEX
8
0
62
255
10
-11.956621
20
-41.884772
30
0
70
32
0
VERTEX
8
0
62
255
10
-11.100249
20
-41.884772
30
0
70
32
0
VERTEX
8
0
62
255
10
-10.243877
20
-41.884772
30
0
70
32
0
VERTEX
8
0
62
255
10
-9.387505
20
-41.884772
30
0
70
32
0
VERTEX
8
0
62
255
10
-8.5311331
20
-41.884772
30
0
70
32
0
VERTEX
8
0
62
255
10
-7.6747611
20
-41.884772
30
0
70
32
0
VERTEX
8
0
62
255
10
-6.8183892
20
-41.884772
30
0
70
32
0
VERTEX
8
0
62
255
10
-5.9620172
20
-41.884772
30
0
70
32
0
VERTEX
8
0
62
255
10
-5.1056453
20
-41.884772
30
0
70
32
0
VERTEX
8
0
62
255
10
-4.2492733
20
-41.884772
30
0
70
32
0
VERTEX
8
0
62
255
10
-3.3929014
20
-41.884772
30
0
70
32
0
VERTEX
8
0
62
255
10
-2.5365294
20
-41.884772
30
0
70
32
0
VERTEX
8
0
62
255
10
-1.6801574
20
-41.884772
30
0
70
32
0
VERTEX
8
0
62
255
10
-0.82378549
20
-41.884772
30
0
70
32
0
VERTEX
8
0
62
255
10
0.032586469
20
-41.884772
30
0
70
32
0
VERTEX
8
0
62
255
10
0.88895842
20
-41.884772
30
0
70
32
0
VERTEX
8
0
62
255
10
1.7453304
20
-41.884772
30
0
70
32
0
VERTEX
8
0
62
255
10
2.6017023
20
-41.884772
30
0
70
32
0
VERTEX
8
0
62
255
10
3.4580743
20
-41.884772
30
0
70
32
0
VERTEX
8
0
62
255
10
4.3144462
20
-41.884772
30
0
70
32
0
VERTEX
8
0
62
255
10
5.1708182
20
-41.884772
30
0
70
32
0
VERTEX
8
0
62
255
10
6.0271902
20
-41.884772
30
0
70
32
0
VERTEX
8
0
62
255
10
6.8835621
20
-41.884772
30
0
70
32
0
VERTEX
8
0
62
255
10
7.7399341
20
-41.884772
30
0
70
32
0
VERTEX
8
0
62
255
10
8.596306
20
-41.884772
30
0
70
32
0
VERTEX
8
0
62
255
10
9.452678
20
-41.884772
30
0
70
32
0
VERTEX
8
0
62
255
10
10.30905
20
-41.884772
30
0
70
32
0
VERTEX
8
0
62
255
10
11.165422
20
-41.884772
30
0
70
32
0
VERTEX
8
0
62
255
10
12.021794
20
-41.884772
30
0
70
32
0
VERTEX
8
0
62
255
10
12.878166
20
-41.884772
30
0
70
32
0
VERTEX
8
0
62
255
10
13.734538
20
-41.884772
30
0
70
32
0
VERTEX
8
0
62
255
10
14.59091
20
-41.884772
30
0
70
32
0
VERTEX
8
0
62
255
10
15.447282
20
-41.884772
30
0
70
32
0
VERTEX
8
0
62
255
10
16.303654
20
-41.884772
30
0
70
32
0
VERTEX
8
0
62
255
10
17.160026
20
-41.884772
30
0
70
32
0
VERTEX
8
0
62
255
10
18.016398
20
-41.884772
30
0
70
32
0
VERTEX
8
0
62
255
10
18.872769
20
-41.884772
30
0
70
32
0
VERTEX
8
0
62
255
10
19.729141
20
-41.884772
30
0
70
32
0
VERTEX
8
0
62
255
10
20.585513
20
-41.884772
30
0
70
32
0
VERTEX
8
0
62
255
10
21.441885
20
-41.884772
30
0
70
32
0
VERTEX
8
0
62
255
10
22.298257
20
-41.884772
30
0
70
32
0
VERTEX
8
0
62
255
10
23.154629
20
-41.884772
30
0
70
32
0
VERTEX
8
0
62
255
10
24.011001
20
-41.884772
30
0
70
32
0
VERTEX
8
0
62
255
10
24.867373
20
-41.884772
30
0
70
32
0
VERTEX
8
0
62
255
10
25.723745
20
-41.884772
30
0
70
32
0
VERTEX
8
0
62
255
10
26.580117
20
-41.884772
30
0
70
32
0
VERTEX
8
0
62
255
10
27.436489
20
-41.884772
30
0
70
32
0
VERTEX
8
0
62
255
10
28.292861
20
-41.884772
30
0
70
32
0
VERTEX
8
0
62
255
10
29.149233
20
-41.884772
30
0
70
32
0
VERTEX
8
0
62
255
10
30.005605
20
-41.884772
30
0
70
32
0
VERTEX
8
0
62
255
10
30.861977
20
-41.884772
30
0
70
32
0
VERTEX
8
0
62
255
10
31.718349
20
-41.884772
30
0
70
32
0
VERTEX
8
0
62
255
10
32.574721
20
-41.884772
30
0
70
32
0
VERTEX
8
0
62
255
10
33.431093
20
-41.884772
30
0
70
32
0
VERTEX
8
0
62
255
10
34.287465
20
-41.884772
30
0
70
32
0
VERTEX
8
0
62
255
10
35.143837
20
-41.884772
30
0
70
32
0
VERTEX
8
0
62
255
10
36.000209
20
-41.884772
30
0
70
32
0
VERTEX
8
0
62
255
10
36.856581
20
-41.884772
30
0
70
32
0
VERTEX
8
0
62
255
10
37.712953
20
-41.884772
30
0
70
32
0
VERTEX
8
0
62
255
10
38.569324
20
-41.884772
30
0
70
32
0
VERTEX
8
0
62
255
10
39.425696
20
-41.884772
30
0
70
32
0
VERTEX
8
0
62
255
10
40.282068
20
-41.884772
30
0
70
32
0
VERTEX
8
0
62
255
10
41.13844
20
-41.884772
30
0
70
32
0
VERTEX
8
0
62
255
10
41.994812
20
-41.884772
30
0
70
32
0
VERTEX
8
0
62
255
10
42.851184
20
-41.884772
30
0
70
32
0
VERTEX
8
0
62
255
10
43.707556
20
-41.884772
30
0
70
32
0
VERTEX
8
0
62
255
10
44.563928
20
-41.884772
30
0
70
32
0
VERTEX
8
0
62
255
10
45.4203
20
-41.884772
30
0
70
32
0
VERTEX
8
0
62
255
10
46.276672
20
-41.884772
30
0
70
32
0
VERTEX
8
0
62
255
10
47.133044
20
-41.884772
30
0
70
32
0
VERTEX
8
0
62
255
10
47.989416
20
-41.884772
30
0
70
32
0
VERTEX
8
0
62
255
10
48.845788
20
-41.884772
30
0
70
32
0
VERTEX
8
0
62
255
10
49.70216
20
-41.884772
30
0
70
32
0
VERTEX
8
0
62
255
10
50.558532
20
-41.884772
30
0
70
32
0
VERTEX
8
0
62
255
10
51.414904
20
-41.884772
30
0
70
32
0
VERTEX
8
0
62
255
10
52.271276
20
-41.884772
30
0
70
32
0
VERTEX
8
0
62
255
10
53.127648
20
-41.884772
30
0
70
32
0
VERTEX
8
0
62
255
10
53.98402
20
-41.884772
30
0
70
32
0
SEQEND
8
0
0
POLYLINE
8
0
62
255
66
1
10
0
20
0
30
0
70
8
0
VERTEX
8
0
62
255
10
53.98402
20
-41.884772
30
0
70
32
0
VERTEX
8
0
62
255
10
53.98402
20
-39.838615
30
0
70
32
0
VERTEX
8
0
62
255
10
53.98402
20
-37.792458
30
0
70
32
0
VERTEX
8
0
62
255
10
53.98402
20
-35.746301
30
0
70
32
0
VERTEX
8
0
62
255
10
53.98402
20
-33.700144
30
0
70
32
0
VERTEX
8
0
62
255
10
53.98402
20
-31.653987
30
0
70
32
0
VERTEX
8
0
62
255
10
53.98402
20
-29.60783
30
0
70
32
0
VERTEX
8
0
62
255
10
53.98402
20
-27.561673
30
0
70
32
0
VERTEX
8
0
62
255
10
53.98402
20
-25.515516
30
0
70
32
0
VERTEX
8
0
62
255
10
53.98402
20
-23.469359
30
0
70
32
0
VERTEX
8
0
62
255
10
53.98402
20
-21.423202
30
0
70
32
0
VERTEX
8
0
62
255
10
53.98402
20
-19.377045
30
0
70
32
0
VERTEX
8
0
62
255
10
53.98402
20
-17.330888
30
0
70
32
0
VERTEX
8
0
62
255
10
53.98402
20
-15.284731
30
0
70
32
0
VERTEX
8
0
62
255
10
53.98402
20
-13.238574
30
0
70
32
0
VERTEX
8
0
62
255
10
53.98402
20
-11.192417
30
0
70
32
0
VERTEX
8
0
62
255
10
53.98402
20
-9.1462601
30
0
70
32
0
VERTEX
8
0
62
255
10
53.98402
20
-7.1001031
30
0
70
32
0
VERTEX
8
0
62
255
10
53.98402
20
-5.053946
30
0
70
32
0
VERTEX
8
0
62
255
10
53.98402
20
-3.007789
30
0
70
32
0
VERTEX
8
0
62
255
10
53.98402
20
-0.96163201
30
0
70
32
0
VERTEX
8
0
62
255
10
53.98402
20
1.084525
30
0
70
32
0
VERTEX
8
0
62
255
10
53.98402
20
3.130682
30
0
70
32
0
VERTEX
8
0
62
255
10
53.98402
20
5.176839
30
0
70
32
0
VERTEX
8
0
62
255
10
53.98402
20
7.2229961
30
0
70
32
0
VERTEX
8
0
62
255
10
53.98402
20
9.2691531
30
0
70
32
0
VERTEX
8
0
62
255
10
53.98402
20
11.31531
30
0
70
32
0
VERTEX
8
0
62
255
10
53.98402
20
13.361467
30
0
70
32
0
VERTEX
8
0
62
255
10
53.98402
20
15.407624
30
0
70
32
0
VERTEX
8
0
62
255
10
53.98402
20
17.453781
30
0
70
32
0
VERTEX
8
0
62
255
10
53.98402
20
19.499938
30
0
70
32
0
VERTEX
8
0
62
255
10
53.98402
20
21.546095
30
0
70
32
0
VERTEX
8
0
62
255
10
53.98402
20
23.592252
30
0
70
32
0
VERTEX
8
0
62
255
10
53.98402
20
25.638409
30
0
70
32
0
VERTEX
8
0
62
255
10
53.98402
20
27.684566
30
0
70
32
0
VERTEX
8
0
62
255
10
53.98402
20
29.730723
30
0
70
32
0
VERTEX
8
0
62
255
10
53.98402
20
31.77688
30
0
70
32
0
VERTEX
8
0
62
255
10
53.98402
20
33.823037
30
0
70
32
0
VERTEX
8
0
62
255
10
53.98402
20
35.869194
30
0
70
32
0
VERTEX
8
0
62
255
10
53.98402
20
37.915351
30
0
70
32
0
VERTEX
8
0
62
255
10
53.98402
20
39.961508
30
0
70
32
0
VERTEX
8
0
62
255
10
53.98402
20
42.007665
30
0
70
32
0
VERTEX
8
0
62
255
10
53.98402
20
44.053822
30
0
70
32
0
VERTEX
8
0
62
255
10
53.98402
20
46.099979
30
0
70
32
0
VERTEX
8
0
62
255
10
53.98402
20
48.146136
30
0
70
32
0
VERTEX
8
0
62
255
10
53.98402
20
50.192293
30
0
70
32
0
VERTEX
8
0
62
255
10
53.98402
20
52.23845
30
0
70
32
0
VERTEX
8
0
62
255
10
53.98402
20
54.284607
30
0
70
32
0
VERTEX
8
0
62
255
10
53.98402
20
56.330764
30
0
70
32
0
VERTEX
8
0
62
255
10
53.98402
20
58.376921
30
0
70
32
0
VERTEX
8
0
62
255
10
53.98402
20
60.423079
30
0
70
32
0
VERTEX
8
0
62
255
10
53.98402
20
62.469236
30
0
70
32
0
VERTEX
8
0
62
255
10
53.98402
20
64.515393
30
0
70
32
0
VERTEX
8
0
62
255
10
53.98402
20
66.56155
30
0
70
32
0
VERTEX
8
0
62
255
10
53.98402
20
68.607707
30
0
70
32
0
VERTEX
8
0
62
255
10
53.98402
20
70.653864
30
0
70
32
0
VERTEX
8
0
62
255
10
53.98402
20
72.700021
30
0
70
32
0
VERTEX
8
0
62
255
10
53.98402
20
74.746178
30
0
70
32
0
VERTEX
8
0
62
255
10
53.98402
20
76.792335
30
0
70
32
0
VERTEX
8
0
62
255
10
53.98402
20
78.838492
30
0
70
32
0
VERTEX
8
0
62
255
10
53.98402
20
80.884649
30
0
70
32
0
VERTEX
8
0
62
255
10
53.98402
20
82.930806
30
0
70
32
0
VERTEX
8
0
62
255
10
53.98402
20
84.976963
30
0
70
32
0
VERTEX
8
0
62
255
10
53.98402
20
87.02312
30
0
70
32
0
VERTEX
8
0
62
255
10
53.98402
20
89.069277
30
0
70
32
0
VERTEX
8
0
62
255
10
53.98402
20
91.115434
30
0
70
32
0
VERTEX
8
0
62
255
10
53.98402
20
93.161591
30
0
70
32
0
VERTEX
8
0
62
255
10
53.98402
20
95.207748
30
0
70
32
0
VERTEX
8
0
62
255
10
53.98402
20
97.253905
30
0
70
32
0
VERTEX
8
0
62
255
10
53.98402
20
99.300062
30
0
70
32
0
VERTEX
8
0
62
255
10
53.98402
20
101.34622
30
0
70
32
0
VERTEX
8
0
62
255
10
53.98402
20
103.39238
30
0
70
32
0
VERTEX
8
0
62
255
10
53.98402
20
105.43853
30
0
70
32
0
VERTEX
8
0
62
255
10
53.98402
20
107.48469
30
0
70
32
0
VERTEX
8
0
62
255
10
53.98402
20
109.53085
30
0
70
32
0
VERTEX
8
0
62
255
10
53.98402
20
111.577
30
0
70
32
0
VERTEX
8
0
62
255
10
53.98402
20
113.62316
30
0
70
32
0
VERTEX
8
0
62
255
10
53.98402
20
115.66932
30
0
70
32
0
VERTEX
8
0
62
255
10
53.98402
20
117.71547
30
0
70
32
0
VERTEX
8
0
62
255
10
53.98402
20
119.76163
30
0
70
32
0
VERTEX
8
0
62
255
10
53.98402
20
121.80779
30
0
70
32
0
VERTEX
8
0
62
255
10
53.98402
20
123.85395
30
0
70
32
0
VERTEX
8
0
62
255
10
53.98402
20
125.9001
30
0
70
32
0
VERTEX
8
0
62
255
10
53.98402
20
127.94626
30
0
70
32
0
VERTEX
8
0
62
255
10
53.98402
20
129.99242
30
0
70
32
0
VERTEX
8
0
62
255
10
53.98402
20
132.03857
30
0
70
32
0
VERTEX
8
0
62
255
10
53.98402
20
134.08473
30
0
70
32
0
VERTEX
8
0
62
255
10
53.98402
20
136.13089
30
0
70
32
0
VERTEX
8
0
62
255
10
53.98402
20
138.17705
30
0
70
32
0
VERTEX
8
0
62
255
10
53.98402
20
140.2232
30
0
70
32
0
VERTEX
8
0
62
255
10
53.98402
20
142.26936
30
0
70
32
0
VERTEX
8
0
62
255
10
53.98402
20
144.31552
30
0
70
32
0
VERTEX
8
0
62
255
10
53.98402
20
146.36167
30
0
70
32
0
VERTEX
8
0
62
255
10
53.98402
20
148.40783
30
0
70
32
0
VERTEX
8
0
62
255
10
53.98402
20
150.45399
30
0
70
32
0
VERTEX
8
0
62
255
10
53.98402
20
152.50014
30
0
70
32
0
VERTEX
8
0
62
255
10
53.98402
20
154.5463
30
0
70
32
0
VERTEX
8
0
62
255
10
53.98402
20
156.59246
30
0
70
32
0
VERTEX
8
0
62
255
10
53.98402
20
158.63862
30
0
70
32
0
VERTEX
8
0
62
255
10
53.98402
20
160.68477
30
0
70
32
0
SEQEND
8
0
0
POLYLINE
8
0
62
255
66
1
10
0
20
0
30
0
70
8
0
VERTEX
8
0
62
255
10
53.98402
20
160.68477
30
0
70
32
0
VERTEX
8
0
62
255
10
53.127648
20
160.68477
30
0
70
32
0
VERTEX
8
0
62
255
10
52.271276
20
160.68477
30
0
70
32
0
VERTEX
8
0
62
255
10
51.414904
20
160.68477
30
0
70
32
0
VERTEX
8
0
62
255
10
50.558532
20
160.68477
30
0
70
32
0
VERTEX
8
0
62
255
10
49.70216
20
160.68477
30
0
70
32
0
VERTEX
8
0
62
255
10
48.845788
20
160.68477
30
0
70
32
0
VERTEX
8
0
62
255
10
47.989416
20
160.68477
30
0
70
32
0
VERTEX
8
0
62
255
10
47.133044
20
160.68477
30
0
70
32
0
VERTEX
8
0
62
255
10
46.276672
20
160.68477
30
0
70
32
0
VERTEX
8
0
62
255
10
45.4203
20
160.68477
30
0
70
32
0
VERTEX
8
0
62
255
10
44.563928
20
160.68477
30
0
70
32
0
VERTEX
8
0
62
255
10
43.707556
20
160.68477
30
0
70
32
0
VERTEX
8
0
62
255
10
42.851184
20
160.68477
30
0
70
32
0
VERTEX
8
0
62
255
10
41.994812
20
160.68477
30
0
70
32
0
VERTEX
8
0
62
255
10
41.13844
20
160.68477
30
0
70
32
0
VERTEX
8
0
62
255
10
40.282068
20
160.68477
30
0
70
32
0
VERTEX
8
0
62
255
10
39.425696
20
160.68477
30
0
70
32
0
VERTEX
8
0
62
255
10
38.569324
20
160.68477
30
0
70
32
0
VERTEX
8
0
62
255
10
37.712953
20
160.68477
30
0
70
32
0
VERTEX
8
0
62
255
10
36.856581
20
160.68477
30
0
70
32
0
VERTEX
8
0
62
255
10
36.000209
20
160.68477
30
0
70
32
0
VERTEX
8
0
62
255
10
35.143837
20
160.68477
30
0
70
32
0
VERTEX
8
0
62
255
10
34.287465
20
160.68477
30
0
70
32
0
VERTEX
8
0
62
255
10
33.431093
20
160.68477
30
0
70
32
0
VERTEX
8
0
62
255
10
32.574721
20
160.68477
30
0
70
32
0
VERTEX
8
0
62
255
10
31.718349
20
160.68477
30
0
70
32
0
VERTEX
8
0
62
255
10
30.861977
20
160.68477
30
0
70
32
0
VERTEX
8
0
62
255
10
30.005605
20
160.68477
30
0
70
32
0
VERTEX
8
0
62
255
10
29.149233
20
160.68477
30
0
70
32
0
VERTEX
8
0
62
255
10
28.292861
20
160.68477
30
0
70
32
0
VERTEX
8
0
62
255
10
27.436489
20
160.68477
30
0
70
32
0
VERTEX
8
0
62
255
10
26.580117
20
160.68477
30
0
70
32
0
VERTEX
8
0
62
255
10
25.723745
20
160.68477
30
0
70
32
0
VERTEX
8
0
62
255
10
24.867373
20
160.68477
30
0
70
32
0
VERTEX
8
0
62
255
10
24.011001
20
160.68477
30
0
70
32
0
VERTEX
8
0
62
255
10
23.154629
20
160.68477
30
0
70
32
0
VERTEX
8
0
62
255
10
22.298257
20
160.68477
30
0
70
32
0
VERTEX
8
0
62
255
10
21.441885
20
160.68477
30
0
70
32
0
VERTEX
8
0
62
255
10
20.585513
20
160.68477
30
0
70
32
0
VERTEX
8
0
62
255
10
19.729141
20
160.68477
30
0
70
32
0
VERTEX
8
0
62
255
10
18.872769
20
160.68477
30
0
70
32
0
VERTEX
8
0
62
255
10
18.016398
20
160.68477
30
0
70
32
0
VERTEX
8
0
62
255
10
17.160026
20
160.68477
30
0
70
32
0
VERTEX
8
0
62
255
10
16.303654
20
160.68477
30
0
70
32
0
VERTEX
8
0
62
255
10
15.447282
20
160.68477
30
0
70
32
0
VERTEX
8
0
62
255
10
14.59091
20
160.68477
30
0
70
32
0
VERTEX
8
0
62
255
10
13.734538
20
160.68477
30
0
70
32
0
VERTEX
8
0
62
255
10
12.878166
20
160.68477
30
0
70
32
0
VERTEX
8
0
62
255
10
12.021794
20
160.68477
30
0
70
32
0
VERTEX
8
0
62
255
10
11.165422
20
160.68477
30
0
70
32
0
VERTEX
8
0
62
255
10
10.30905
20
160.68477
30
0
70
32
0
VERTEX
8
0
62
255
10
9.452678
20
160.68477
30
0
70
32
0
VERTEX
8
0
62
255
10
8.596306
20
160.68477
30
0
70
32
0
VERTEX
8
0
62
255
10
7.7399341
20
160.68477
30
0
70
32
0
VERTEX
8
0
62
255
10
6.8835621
20
160.68477
30
0
70
32
0
VERTEX
8
0
62
255
10
6.0271902
20
160.68477
30
0
70
32
0
VERTEX
8
0
62
255
10
5.1708182
20
160.68477
30
0
70
32
0
VERTEX
8
0
62
255
10
4.3144462
20
160.68477
30
0
70
32
0
VERTEX
8
0
62
255
10
3.4580743
20
160.68477
30
0
70
32
0
VERTEX
8
0
62
255
10
2.6017023
20
160.68477
30
0
70
32
0
VERTEX
8
0
62
255
10
1.7453304
20
160.68477
30
0
70
32
0
VERTEX
8
0
62
255
10
0.88895842
20
160.68477
30
0
70
32
0
VERTEX
8
0
62
255
10
0.032586469
20
160.68477
30
0
70
32
0
VERTEX
8
0
62
255
10
-0.82378549
20
160.68477
30
0
70
32
0
VERTEX
8
0
62
255
10
-1.6801574
20
160.68477
30
0
70
32
0
VERTEX
8
0
62
255
10
-2.5365294
20
160.68477
30
0
70
32
0
VERTEX
8
0
62
255
10
-3.3929014
20
160.68477
30
0
70
32
0
VERTEX
8
0
62
255
10
-4.2492733
20
160.68477
30
0
70
32
0
VERTEX
8
0
62
255
10
-5.1056453
20
160.68477
30
0
70
32
0
VERTEX
8
0
62
255
10
-5.9620172
20
160.68477
30
0
70
32
0
VERTEX
8
0
62
255
10
-6.8183892
20
160.68477
30
0
70
32
0
VERTEX
8
0
62
255
10
-7.6747611
20
160.68477
30
0
70
32
0
VERTEX
8
0
62
255
10
-8.5311331
20
160.68477
30
0
70
32
0
VERTEX
8
0
62
255
10
-9.387505
20
160.68477
30
0
70
32
0
VERTEX
8
0
62
255
10
-10.243877
20
160.68477
30
0
70
32
0
VERTEX
8
0
62
255
10
-11.100249
20
160.68477
30
0
70
32
0
VERTEX
8
0
62
255
10
-11.956621
20
160.68477
30
0
70
32
0
VERTEX
8
0
62
255
10
-12.812993
20
160.68477
30
0
70
32
0
VERTEX
8
0
62
255
10
-13.669365
20
160.68477
30
0
70
32
0
VERTEX
8
0
62
255
10
-14.525737
20
160.68477
30
0
70
32
0
VERTEX
8
0
62
255
10
-15.382109
20
160.68477
30
0
70
32
0
VERTEX
8
0
62
255
10
-16.238481
20
160.68477
30
0
70
32
0
VERTEX
8
0
62
255
10
-17.094853
20
160.68477
30
0
70
32
0
VERTEX
8
0
62
255
10
-17.951225
20
160.68477
30
0
70
32
0
VERTEX
8
0
62
255
10
-18.807597
20
160.68477
30
0
70
32
0
VERTEX
8
0
62
255
10
-19.663969
20
160.68477
30
0
70
32
0
VERTEX
8
0
62
255
10
-20.52034
20
160.68477
30
0
70
32
0
VERTEX
8
0
62
255
10
-21.376712
20
160.68477
30
0
70
32
0
VERTEX
8
0
62
255
10
-22.233084
20
160.68477
30
0
70
32
0
VERTEX
8
0
62
255
10
-23.089456
20
160.68477
30
0
70
32
0
VERTEX
8
0
62
255
10
-23.945828
20
160.68477
30
0
70
32
0
VERTEX
8
0
62
255
10
-24.8022
20
160.68477
30
0
70
32
0
VERTEX
8
0
62
255
10
-25.658572
20
160.68477
30
0
70
32
0
VERTEX
8
0
62
255
10
-26.514944
20
160.68477
30
0
70
32
0
VERTEX
8
0
62
255
10
-27.371316
20
160.68477
30
0
70
32
0
VERTEX
8
0
62
255
10
-28.227688
20
160.68477
30
0
70
32
0
VERTEX
8
0
62
255
10
-29.08406
20
160.68477
30
0
70
32
0
VERTEX
8
0
62
255
10
-29.940432
20
160.68477
30
0
70
32
0
VERTEX
8
0
62
255
10
-30.796804
20
160.68477
30
0
70
32
0
SEQEND
8
0
0
POLYLINE
8
0
62
255
66
1
10
0
20
0
30
0
70
8
0
VERTEX
8
0
62
255
10
-30.796804
20
160.68477
30
0
70
32
0
VERTEX
8
0
62
255
10
-30.796804
20
158.63862
30
0
70
32
0
VERTEX
8
0
62
255
10
-30.796804
20
156.59246
30
0
70
32
0
VERTEX
8
0
62
255
10
-30.796804
20
154.5463
30
0
70
32
0
VERTEX
8
0
62
255
10
-30.796804
20
152.50014
30
0
70
32
0
VERTEX
8
0
62
255
10
-30.796804
20
150.45399
30
0
70
32
0
VERTEX
8
0
62
255
10
-30.796804
20
148.40783
30
0
70
32
0
VERTEX
8
0
62
255
10
-30.796804
20
146.36167
30
0
70
32
0
VERTEX
8
0
62
255
10
-30.796804
20
144.31552
30
0
70
32
0
VERTEX
8
0
62
255
10
-30.796804
20
142.26936
30
0
70
32
0
VERTEX
8
0
62
255
10
-30.796804
20
140.2232
30
0
70
32
0
VERTEX
8
0
62
255
10
-30.796804
20
138.17705
30
0
70
32
0
VERTEX
8
0
62
255
10
-30.796804
20
136.13089
30
0
70
32
0
VERTEX
8
0
62
255
10
-30.796804
20
134.08473
30
0
70
32
0
VERTEX
8
0
62
255
10
-30.796804
20
132.03857
30
0
70
32
0
VERTEX
8
0
62
255
10
-30.796804
20
129.99242
30
0
70
32
0
VERTEX
8
0
62
255
10
-30.796804
20
127.94626
30
0
70
32
0
VERTEX
8
0
62
255
10
-30.796804
20
125.9001
30
0
70
32
0
VERTEX
8
0
62
255
10
-30.796804
20
123.85395
30
0
70
32
0
VERTEX
8
0
62
255
10
-30.796804
20
121.80779
30
0
70
32
0
VERTEX
8
0
62
255
10
-30.796804
20
119.76163
30
0
70
32
0
VERTEX
8
0
62
255
10
-30.796804
20
117.71547
30
0
70
32
0
VERTEX
8
0
62
255
10
-30.796804
20
115.66932
30
0
70
32
0
VERTEX
8
0
62
255
10
-30.796804
20
113.62316
30
0
70
32
0
VERTEX
8
0
62
255
10
-30.796804
20
111.577
30
0
70
32
0
VERTEX
8
0
62
255
10
-30.796804
20
109.53085
30
0
70
32
0
VERTEX
8
0
62
255
10
-30.796804
20
107.48469
30
0
70
32
0
VERTEX
8
0
62
255
10
-30.796804
20
105.43853
30
0
70
32
0
VERTEX
8
0
62
255
10
-30.796804
20
103.39238
30
0
70
32
0
VERTEX
8
0
62
255
10
-30.796804
20
101.34622
30
0
70
32
0
VERTEX
8
0
62
255
10
-30.796804
20
99.300062
30
0
70
32
0
VERTEX
8
0
62
255
10
-30.796804
20
97.253905
30
0
70
32
0
VERTEX
8
0
62
255
10
-30.796804
20
95.207748
30
0
70
32
0
VERTEX
8
0
62
255
10
-30.796804
20
93.161591
30
0
70
32
0
VERTEX
8
0
62
255
10
-30.796804
20
91.115434
30
0
70
32
0
VERTEX
8
0
62
255
10
-30.796804
20
89.069277
30
0
70
32
0
VERTEX
8
0
62
255
10
-30.796804
20
87.02312
30
0
70
32
0
VERTEX
8
0
62
255
10
-30.796804
20
84.976963
30
0
70
32
0
VERTEX
8
0
62
255
10
-30.796804
20
82.930806
30
0
70
32
0
VERTEX
8
0
62
255
10
-30.796804
20
80.884649
30
0
70
32
0
VERTEX
8
0
62
255
10
-30.796804
20
78.838492
30
0
70
32
0
VERTEX
8
0
62
255
10
-30.796804
20
76.792335
30
0
70
32
0
VERTEX
8
0
62
255
10
-30.796804
20
74.746178
30
0
70
32
0
VERTEX
8
0
62
255
10
-30.796804
20
72.700021
30
0
70
32
0
VERTEX
8
0
62
255
10
-30.796804
20
70.653864
30
0
70
32
0
VERTEX
8
0
62
255
10
-30.796804
20
68.607707
30
0
70
32
0
VERTEX
8
0
62
255
10
-30.796804
20
66.56155
30
0
70
32
0
VERTEX
8
0
62
255
10
-30.796804
20
64.515393
30
0
70
32
0
VERTEX
8
0
62
255
10
-30.796804
20
62.469236
30
0
70
32
0
VERTEX
8
0
62
255
10
-30.796804
20
60.423079
30
0
70
32
0
VERTEX
8
0
62
255
10
-30.796804
20
58.376921
30
0
70
32
0
VERTEX
8
0
62
255
10
-30.796804
20
56.330764
30
0
70
32
0
VERTEX
8
0
62
255
10
-30.796804
20
54.284607
30
0
70
32
0
VERTEX
8
0
62
255
10
-30.796804
20
52.23845
30
0
70
32
0
VERTEX
8
0
62
255
10
-30.796804
20
50.192293
30
0
70
32
0
VERTEX
8
0
62
255
10
-30.796804
20
48.146136
30
0
70
32
0
VERTEX
8
0
62
255
10
-30.796804
20
46.099979
30
0
70
32
0
VERTEX
8
0
62
255
10
-30.796804
20
44.053822
30
0
70
32
0
VERTEX
8
0
62
255
10
-30.796804
20
42.007665
30
0
70
32
0
VERTEX
8
0
62
255
10
-30.796804
20
39.961508
30
0
70
32
0
VERTEX
8
0
62
255
10
-30.796804
20
37.915351
30
0
70
32
0
VERTEX
8
0
62
255
10
-30.796804
20
35.869194
30
0
70
32
0
VERTEX
8
0
62
255
10
-30.796804
20
33.823037
30
0
70
32
0
VERTEX
8
0
62
255
10
-30.796804
20
31.77688
30
0
70
32
0
VERTEX
8
0
62
255
10
-30.796804
20
29.730723
30
0
70
32
0
VERTEX
8
0
62
255
10
-30.796804
20
27.684566
30
0
70
32
0
VERTEX
8
0
62
255
10
-30.796804
20
25.638409
30
0
70
32
0
VERTEX
8
0
62
255
10
-30.796804
20
23.592252
30
0
70
32
0
VERTEX
8
0
62
255
10
-30.796804
20
21.546095
30
0
70
32
0
VERTEX
8
0
62
255
10
-30.796804
20
19.499938
30
0
70
32
0
VERTEX
8
0
62
255
10
-30.796804
20
17.453781
30
0
70
32
0
VERTEX
8
0
62
255
10
-30.796804
20
15.407624
30
0
70
32
0
VERTEX
8
0
62
255
10
-30.796804
20
13.361467
30
0
70
32
0
VERTEX
8
0
62
255
10
-30.796804
20
11.31531
30
0
70
32
0
VERTEX
8
0
62
255
10
-30.796804
20
9.2691531
30
0
70
32
0
VERTEX
8
0
62
255
10
-30.796804
20
7.2229961
30
0
70
32
0
VERTEX
8
0
62
255
10
-30.796804
20
5.176839
30
0
70
32
0
VERTEX
8
0
62
255
10
-30.796804
20
3.130682
30
0
70
32
0
VERTEX
8
0
62
255
10
-30.796804
20
1.084525
30
0
70
32
0
VERTEX
8
0
62
255
10
-30.796804
20
-0.96163201
30
0
70
32
0
VERTEX
8
0
62
255
10
-30.796804
20
-3.007789
30
0
70
32
0
VERTEX
8
0
62
255
10
-30.796804
20
-5.053946
30
0
70
32
0
VERTEX
8
0
62
255
10
-30.796804
20
-7.1001031
30
0
70
32
0
VERTEX
8
0
62
255
10
-30.796804
20
-9.1462601
30
0
70
32
0
VERTEX
8
0
62
255
10
-30.796804
20
-11.192417
30
0
70
32
0
VERTEX
8
0
62
255
10
-30.796804
20
-13.238574
30
0
70
32
0
VERTEX
8
0
62
255
10
-30.796804
20
-15.284731
30
0
70
32
0
VERTEX
8
0
62
255
10
-30.796804
20
-17.330888
30
0
70
32
0
VERTEX
8
0
62
255
10
-30.796804
20
-19.377045
30
0
70
32
0
VERTEX
8
0
62
255
10
-30.796804
20
-21.423202
30
0
70
32
0
VERTEX
8
0
62
255
10
-30.796804
20
-23.469359
30
0
70
32
0
VERTEX
8
0
62
255
10
-30.796804
20
-25.515516
30
0
70
32
0
VERTEX
8
0
62
255
10
-30.796804
20
-27.561673
30
0
70
32
0
VERTEX
8
0
62
255
10
-30.796804
20
-29.60783
30
0
70
32
0
VERTEX
8
0
62
255
10
-30.796804
20
-31.653987
30
0
70
32
0
VERTEX
8
0
62
255
10
-30.796804
20
-33.700144
30
0
70
32
0
VERTEX
8
0
62
255
10
-30.796804
20
-35.746301
30
0
70
32
0
VERTEX
8
0
62
255
10
-30.796804
20
-37.792458
30
0
70
32
0
VERTEX
8
0
62
255
10
-30.796804
20
-39.838615
30
0
70
32
0
VERTEX
8
0
62
255
10
-30.796804
20
-41.884772
30
0
70
32
0
SEQEND
8
0
0
POLYLINE
8
0
62
255
66
1
10
0
20
0
30
0
70
8
0
VERTEX
8
0
62
255
10
-11.906392
20
0
30
0
70
32
0
VERTEX
8
0
62
255
10
-11.909412
20
0.095135879
30
0
70
32
0
VERTEX
8
0
62
255
10
-11.91846
20
0.18988868
30
0
70
32
0
VERTEX
8
0
62
255
10
-11.933499
20
0.28387687
30
0
70
32
0
VERTEX
8
0
62
255
10
-11.954469
20
0.37672198
30
0
70
32
0
VERTEX
8
0
62
255
10
-11.981285
20
0.46805017
30
0
70
32
0
VERTEX
8
0
62
255
10
-12.01384
20
0.55749368
30
0
70
32
0
VERTEX
8
0
62
255
10
-12.052002
20
0.64469237
30
0
70
32
0
VERTEX
8
0
62
255
10
-12.095618
20
0.7292951
30
0
70
32
0
VERTEX
8
0
62
255
10
-12.144512
20
0.81096123
30
0
70
32
0
VERTEX
8
0
62
255
10
-12.198487
20
0.88936189
30
0
70
32
0
VERTEX
8
0
62
255
10
-12.257325
20
0.96418141
30
0
70
32
0
VERTEX
8
0
62
255
10
-12.320791
20
1.0351185
30
0
70
32
0
VERTEX
8
0
62
255
10
-12.388628
20
1.1018876
30
0
70
32
0
VERTEX
8
0
62
255
10
-12.460563
20
1.1642197
30
0
70
32
0
VERTEX
8
0
62
255
10
-12.536307
20
1.2218639
30
0
70
32
0
VERTEX
8
0
62
255
10
-12.615554
20
1.2745881
30
0
70
32
0
VERTEX
8
0
62
255
10
-12.697986
20
1.32218
30
0
70
32
0
VERTEX
8
0
62
255
10
-12.78327
20
1.364448
30
0
70
32
0
VERTEX
8
0
62
255
10
-12.871063
20
1.4012218
30
0
70
32
0
VERTEX
8
0
62
255
10
-12.961012
20
1.4323534
30
0
70
32
0
VERTEX
8
0
62
255
10
-13.052754
20
1.4577174
30
0
70
32
0
VERTEX
8
0
62
255
10
-13.14592
20
1.4772116
30
0
70
32
0
VERTEX
8
0
62
255
10
-13.240135
20
1.4907577
30
0
70
32
0
VERTEX
8
0
62
255
10
-13.335019
20
1.498301
30
0
70
32
0
VERTEX
8
0
62
255
10
-13.430191
20
1.4998112
30
0
70
32
0
VERTEX
8
0
62
255
10
-13.525267
20
1.4952822
30
0
70
32
0
VERTEX
8
0
62
255
10
-13.619864
20
1.4847322
30
0
70
32
0
VERTEX
8
0
62
255
10
-13.713602
20
1.4682037
30
0
70
32
0
VERTEX
8
0
62
255
10
-13.806103
20
1.4457632
30
0
70
32
0
VERTEX
8
0
62
255
10
-13.896994
20
1.4175012
30
0
70
32
0
VERTEX
8
0
62
255
10
-13.98591
20
1.3835314
30
0
70
32
0
VERTEX
8
0
62
255
10
-14.072492
20
1.3439907
30
0
70
32
0
VERTEX
8
0
62
255
10
-14.156392
20
1.2990381
30
0
70
32
0
VERTEX
8
0
62
255
10
-14.237272
20
1.2488548
30
0
70
32
0
VERTEX
8
0
62
255
10
-14.314807
20
1.1936428
30
0
70
32
0
VERTEX
8
0
62
255
10
-14.388683
20
1.1336244
30
0
70
32
0
VERTEX
8
0
62
255
10
-14.458604
20
1.0690413
30
0
70
32
0
VERTEX
8
0
62
255
10
-14.524289
20
1.0001535
30
0
70
32
0
VERTEX
8
0
62
255
10
-14.585472
20
0.92723848
30
0
70
32
0
VERTEX
8
0
62
255
10
-14.641907
20
0.8505898
30
0
70
32
0
VERTEX
8
0
62
255
10
-14.693367
20
0.77051609
30
0
70
32
0
VERTEX
8
0
62
255
10
-14.739645
20
0.68733978
30
0
70
32
0
VERTEX
8
0
62
255
10
-14.780555
20
0.6013958
30
0
70
32
0
VERTEX
8
0
62
255
10
-14.815931
20
0.51303021
30
0
70
32
0
VERTEX
8
0
62
255
10
-14.845632
20
0.42259884
30
0
70
32
0
VERTEX
8
0
62
255
10
-14.869537
20
0.3304658
30
0
70
32
0
VERTEX
8
0
62
255
10
-14.88755
20
0.23700209
30
0
70
32
0
VERTEX
8
0
62
255
10
-14.8996
20
0.14258406
30
0
70
32
0
VERTEX
8
0
62
255
10
-14.905637
20
0.0475919
30
0
70
32
0
VERTEX
8
0
62
255
10
-14.905637
20
-0.0475919
30
0
70
32
0
VERTEX
8
0
62
255
10
-14.8996
20
-0.14258406
30
0
70
32
0
VERTEX
8
0
62
255
10
-14.88755
20
-0.23700209
30
0
70
32
0
VERTEX
8
0
62
255
10
-14.869537
20
-0.3304658
30
0
70
32
0
VERTEX
8
0
62
255
10
-14.845632
20
-0.42259884
30
0
70
32
0
VERTEX
8
0
62
255
10
-14.815931
20
-0.51303021
30
0
70
32
0
VERTEX
8
0
62
255
10
-14.780555
20
-0.6013958
30
0
70
32
0
VERTEX
8
0
62
255
10
-14.739645
20
-0.68733978
30
0
70
32
0
VERTEX
8
0
62
255
10
-14.693367
20
-0.77051609
30
0
70
32
0
VERTEX
8
0
62
255
10
-14.641907
20
-0.8505898
30
0
70
32
0
VERTEX
8
0
62
255
10
-14.585472
20
-0.92723848
30
0
70
32
0
VERTEX
8
0
62
255
10
-14.524289
20
-1.0001535
30
0
70
32
0
VERTEX
8
0
62
255
10
-14.458604
20
-1.0690413
30
0
70
32
0
VERTEX
8
0
62
255
10
-14.388683
20
-1.1336244
30
0
70
32
0
VERTEX
8
0
62
255
10
-14.314807
20
-1.1936428
30
0
70
32
0
VERTEX
8
0
62
255
10
-14.237272
20
-1.2488548
30
0
70
32
0
VERTEX
8
0
62
255
10
-14.156392
20
-1.2990381
30
0
70
32
0
VERTEX
8
0
62
255
10
-14.072492
20
-1.3439907
30
0
70
32
0
VERTEX
8
0
62
255
10
-13.98591
20
-1.3835314
30
0
70
32
0
VERTEX
8
0
62
255
10
-13.896994
20
-1.4175012
30
0
70
32
0
VERTEX
8
0
62
255
10
-13.806103
20
-1.4457632
30
0
70
32
0
VERTEX
8
0
62
255
10
-13.713602
20
-1.4682037
30
0
70
32
0
VERTEX
8
0
62
255
10
-13.619864
20
-1.4847322
30
0
70
32
0
VERTEX
8
0
62
255
10
-13.525267
20
-1.4952822
30
0
70
32
0
VERTEX
8
0
62
255
10
-13.430191
20
-1.4998112
30
0
70
32
0
VERTEX
8
0
62
255
10
-13.335019
20
-1.498301
30
0
70
32
0
VERTEX
8
0
62
255
10
-13.240135
20
-1.4907577
30
0
70
32
0
VERTEX
8
0
62
255
10
-13.14592
20
-1.4772116
30
0
70
32
0
VERTEX
8
0
62
255
10
-13.052754
20
-1.4577174
30
0
70
32
0
VERTEX
8
0
62
255
10
-12.961012
20
-1.4323534
30
0
70
32
0
VERTEX
8
0
62
255
10
-12.871063
20
-1.4012218
30
0
70
32
0
VERTEX
8
0
62
255
10
-12.78327
20
-1.364448
30
0
70
32
0
VERTEX
8
0
62
255
10
-12.697986
20
-1.32218
30
0
70
32
0
VERTEX
8
0
62
255
10
-12.615554
20
-1.2745881
30
0
70
32
0
VERTEX
8
0
62
255
10
-12.536307
20
-1.2218639
30
0
70
32
0
VERTEX
8
0
62
255
10
-12.460563
20
-1.1642197
30
0
70
32
0
VERTEX
8
0
62
255
10
-12.388628
20
-1.1018876
30
0
70
32
0
VERTEX
8
0
62
255
10
-12.320791
20
-1.0351185
30
0
70
32
0
VERTEX
8
0
62
255
10
-12.257325
20
-0.96418141
30
0
70
32
0
VERTEX
8
0
62
255
10
-12.198487
20
-0.88936189
30
0
70
32
0
VERTEX
8
0
62
255
10
-12.144512
20
-0.81096123
30
0
70
32
0
VERTEX
8
0
62
255
10
-12.095618
20
-0.7292951
30
0
70
32
0
VERTEX
8
0
62
255
10
-12.052002
20
-0.64469237
30
0
70
32
0
VERTEX
8
0
62
255
10
-12.01384
20
-0.55749368
30
0
70
32
0
VERTEX
8
0
62
255
10
-11.981285
20
-0.46805017
30
0
70
32
0
VERTEX
8
0
62
255
10
-11.954469
20
-0.37672198
30
0
70
32
0
VERTEX
8
0
62
255
10
-11.933499
20
-0.28387687
30
0
70
32
0
VERTEX
8
0
62
255
10
-11.91846
20
-0.18988868
30
0
70
32
0
VERTEX
8
0
62
255
10
-11.909412
20
-0.095135879
30
0
70
32
0
VERTEX
8
0
62
255
10
-11.906392
20
-3.6739404e-16
30
0
70
32
0
SEQEND
8
0
0
POLYLINE
8
0
62
255
66
1
10
0
20
0
30
0
70
8
0
VERTEX
8
0
62
255
10
38.093608
20
0
30
0
70
32
0
VERTEX
8
0
62
255
10
38.090588
20
0.095135879
30
0
70
32
0
VERTEX
8
0
62
255
10
38.08154
20
0.18988868
30
0
70
32
0
VERTEX
8
0
62
255
10
38.066501
20
0.28387687
30
0
70
32
0
VERTEX
8
0
62
255
10
38.045531
20
0.37672198
30
0
70
32
0
VERTEX
8
0
62
255
10
38.018715
20
0.46805017
30
0
70
32
0
VERTEX
8
0
62
255
10
37.98616
20
0.55749368
30
0
70
32
0
VERTEX
8
0
62
255
10
37.947998
20
0.64469237
30
0
70
32
0
VERTEX
8
0
62
255
10
37.904382
20
0.7292951
30
0
70
32
0
VERTEX
8
0
62
255
10
37.855488
20
0.81096123
30
0
70
32
0
VERTEX
8
0
62
255
10
37.801513
20
0.88936189
30
0
70
32
0
VERTEX
8
0
62
255
10
37.742675
20
0.96418141
30
0
70
32
0
VERTEX
8
0
62
255
10
37.679209
20
1.0351185
30
0
70
32
0
VERTEX
8
0
62
255
10
37.611372
20
1.1018876
30
0
70
32
0
VERTEX
8
0
62
255
10
37.539437
20
1.1642197
30
0
70
32
0
VERTEX
8
0
62
255
10
37.463693
20
1.2218639
30
0
70
32
0
VERTEX
8
0
62
255
10
37.384446
20
1.2745881
30
0
70
32
0
VERTEX
8
0
62
255
10
37.302014
20
1.32218
30
0
70
32
0
VERTEX
8
0
62
255
10
37.21673
20
1.364448
30
0
70
32
0
VERTEX
8
0
62
255
10
37.128937
20
1.4012218
30
0
70
32
0
VERTEX
8
0
62
255
10
37.038988
20
1.4323534
30
0
70
32
0
VERTEX
8
0
62
255
10
36.947246
20
1.4577174
30
0
70
32
0
VERTEX
8
0
62
255
10
36.85408
20
1.4772116
30
0
70
32
0
VERTEX
8
0
62
255
10
36.759865
20
1.4907577
30
0
70
32
0
VERTEX
8
0
62
255
10
36.664981
20
1.498301
30
0
70
32
0
VERTEX
8
0
62
255
10
36.569809
20
1.4998112
30
0
70
32
0
VERTEX
8
0
62
255
10
36.474733
20
1.4952822
30
0
70
32
0
VERTEX
8
0
62
255
10
36.380136
20
1.4847322
30
0
70
32
0
VERTEX
8
0
62
255
10
36.286398
20
1.4682037
30
0
70
32
0
VERTEX
8
0
62
255
10
36.193897
20
1.4457632
30
0
70
32
0
VERTEX
8
0
62
255
10
36.103006
20
1.4175012
30
0
70
32
0
VERTEX
8
0
62
255
10
36.01409
20
1.3835314
30
0
70
32
0
VERTEX
8
0
62
255
10
35.927508
20
1.3439907
30
0
70
32
0
VERTEX
8
0
62
255
10
35.843608
20
1.2990381
30
0
70
32
0
VERTEX
8
0
62
255
10
35.762728
20
1.2488548
30
0
70
32
0
VERTEX
8
0
62
255
10
35.685193
20
1.1936428
30
0
70
32
0
VERTEX
8
0
62
255
10
35.611317
20
1.1336244
30
0
70
32
0
VERTEX
8
0
62
255
10
35.541396
20
1.0690413
30
0
70
32
0
VERTEX
8
0
62
255
10
35.475711
20
1.0001535
30
0
70
32
0
VERTEX
8
0
62
255
10
35.414528
20
0.92723848
30
0
70
32
0
VERTEX
8
0
62
255
10
35.358093
20
0.8505898
30
0
70
32
0
VERTEX
8
0
62
255
10
35.306633
20
0.77051609
30
0
70
32
0
VERTEX
8
0
62
255
10
35.260355
20
0.68733978
30
0
70
32
0
VERTEX
8
0
62
255
10
35.219445
20
0.6013958
30
0
70
32
0
VERTEX
8
0
62
255
10
35.184069
20
0.51303021
30
0
70
32
0
VERTEX
8
0
62
255
10
35.154368
20
0.42259884
30
0
70
32
0
VERTEX
8
0
62
255
10
35.130463
20
0.3304658
30
0
70
32
0
VERTEX
8
0
62
255
10
35.11245
20
0.23700209
30
0
70
32
0
VERTEX
8
0
62
255
10
35.1004
20
0.14258406
30
0
70
32
0
VERTEX
8
0
62
255
10
35.094363
20
0.0475919
30
0
70
32
0
VERTEX
8
0
62
255
10
35.094363
20
-0.0475919
30
0
70
32
0
VERTEX
8
0
62
255
10
35.1004
20
-0.14258406
30
0
70
32
0
VERTEX
8
0
62
255
10
35.11245
20
-0.23700209
30
0
70
32
0
VERTEX
8
0
62
255
10
35.130463
20
-0.3304658
30
0
70
32
0
VERTEX
8
0
62
255
10
35.154368
20
-0.42259884
30
0
70
32
0
VERTEX
8
0
62
255
10
35.184069
20
-0.51303021
30
0
70
32
0
VERTEX
8
0
62
255
10
35.219445
20
-0.6013958
30
0
70
32
0
VERTEX
8
0
62
255
10
35.260355
20
-0.68733978
30
0
70
32
0
VERTEX
8
0
62
255
10
35.306633
20
-0.77051609
30
0
70
32
0
VERTEX
8
0
62
255
10
35.358093
20
-0.8505898
30
0
70
32
0
VERTEX
8
0
62
255
10
35.414528
20
-0.92723848
30
0
70
32
0
VERTEX
8
0
62
255
10
35.475711
20
-1.0001535
30
0
70
32
0
VERTEX
8
0
62
255
10
35.541396
20
-1.0690413
30
0
70
32
0
VERTEX
8
0
62
255
10
35.611317
20
-1.1336244
30
0
70
32
0
VERTEX
8
0
62
255
10
35.685193
20
-1.1936428
30
0
70
32
0
VERTEX
8
0
62
255
10
35.762728
20
-1.2488548
30
0
70
32
0
VERTEX
8
0
62
255
10
35.843608
20
-1.2990381
30
0
70
32
0
VERTEX
8
0
62
255
10
35.927508
20
-1.3439907
30
0
70
32
0
VERTEX
8
0
62
255
10
36.01409
20
-1.3835314
30
0
70
32
0
VERTEX
8
0
62
255
10
36.103006
20
-1.4175012
30
0
70
32
0
VERTEX
8
0
62
255
10
36.193897
20
-1.4457632
30
0
70
32
0
VERTEX
8
0
62
255
10
36.286398
20
-1.4682037
30
0
70
32
0
VERTEX
8
0
62
255
10
36.380136
20
-1.4847322
30
0
70
32
0
VERTEX
8
0
62
255
10
36.474733
20
-1.4952822
30
0
70
32
0
VERTEX
8
0
62
255
10
36.569809
20
-1.4998112
30
0
70
32
0
VERTEX
8
0
62
255
10
36.664981
20
-1.498301
30
0
70
32
0
VERTEX
8
0
62
255
10
36.759865
20
-1.4907577
30
0
70
32
0
VERTEX
8
0
62
255
10
36.85408
20
-1.4772116
30
0
70
32
0
VERTEX
8
0
62
255
10
36.947246
20
-1.4577174
30
0
70
32
0
VERTEX
8
0
62
255
10
37.038988
20
-1.4323534
30
0
70
32
0
VERTEX
8
0
62
255
10
37.128937
20
-1.4012218
30
0
70
32
0
VERTEX
8
0
62
255
10
37.21673
20
-1.364448
30
0
70
32
0
VERTEX
8
0
62
255
10
37.302014
20
-1.32218
30
0
70
32
0
VERTEX
8
0
62
255
10
37.384446
20
-1.2745881
30
0
70
32
0
VERTEX
8
0
62
255
10
37.463693
20
-1.2218639
30
0
70
32
0
VERTEX
8
0
62
255
10
37.539437
20
-1.1642197
30
0
70
32
0
VERTEX
8
0
62
255
10
37.611372
20
-1.1018876
30
0
70
32
0
VERTEX
8
0
62
255
10
37.679209
20
-1.0351185
30
0
70
32
0
VERTEX
8
0
62
255
10
37.742675
20
-0.96418141
30
0
70
32
0
VERTEX
8
0
62
255
10
37.801513
20
-0.88936189
30
0
70
32
0
VERTEX
8
0
62
255
10
37.855488
20
-0.81096123
30
0
70
32
0
VERTEX
8
0
62
255
10
37.904382
20
-0.7292951
30
0
70
32
0
VERTEX
8
0
62
255
10
37.947998
20
-0.64469237
30
0
70
32
0
VERTEX
8
0
62
255
10
37.98616
20
-0.55749368
30
0
70
32
0
VERTEX
8
0
62
255
10
38.018715
20
-0.46805017
30
0
70
32
0
VERTEX
8
0
62
255
10
38.045531
20
-0.37672198
30
0
70
32
0
VERTEX
8
0
62
255
10
38.066501
20
-0.28387687
30
0
70
32
0
VERTEX
8
0
62
255
10
38.08154
20
-0.18988868
30
0
70
32
0
VERTEX
8
0
62
255
10
38.090588
20
-0.095135879
30
0
70
32
0
VERTEX
8
0
62
255
10
38.093608
20
-3.6739404e-16
30
0
70
32
0
SEQEND
8
0
0
POLYLINE
8
0
62
255
66
1
10
0
20
0
30
0
70
8
0
VERTEX
8
0
62
255
10
-11.906392
20
100
30
0
70
32
0
VERTEX
8
0
62
255
10
-11.909412
20
100.09514
30
0
70
32
0
VERTEX
8
0
62
255
10
-11.91846
20
100.18989
30
0
70
32
0
VERTEX
8
0
62
255
10
-11.933499
20
100.28388
30
0
70
32
0
VERTEX
8
0
62
255
10
-11.954469
20
100.37672
30
0
70
32
0
VERTEX
8
0
62
255
10
-11.981285
20
100.46805
30
0
70
32
0
VERTEX
8
0
62
255
10
-12.01384
20
100.55749
30
0
70
32
0
VERTEX
8
0
62
255
10
-12.052002
20
100.64469
30
0
70
32
0
VERTEX
8
0
62
255
10
-12.095618
20
100.7293
30
0
70
32
0
VERTEX
8
0
62
255
10
-12.144512
20
100.81096
30
0
70
32
0
VERTEX
8
0
62
255
10
-12.198487
20
100.88936
30
0
70
32
0
VERTEX
8
0
62
255
10
-12.257325
20
100.96418
30
0
70
32
0
VERTEX
8
0
62
255
10
-12.320791
20
101.03512
30
0
70
32
0
VERTEX
8
0
62
255
10
-12.388628
20
101.10189
30
0
70
32
0
VERTEX
8
0
62
255
10
-12.460563
20
101.16422
30
0
70
32
0
VERTEX
8
0
62
255
10
-12.536307
20
101.22186
30
0
70
32
0
VERTEX
8
0
62
255
10
-12.615554
20
101.27459
30
0
70
32
0
VERTEX
8
0
62
255
10
-12.697986
20
101.32218
30
0
70
32
0
VERTEX
8
0
62
255
10
-12.78327
20
101.36445
30
0
70
32
0
VERTEX
8
0
62
255
10
-12.871063
20
101.40122
30
0
70
32
0
VERTEX
8
0
62
255
10
-12.961012
20
101.43235
30
0
70
32
0
VERTEX
8
0
62
255
10
-13.052754
20
101.45772
30
0
70
32
0
VERTEX
8
0
62
255
10
-13.14592
20
101.47721
30
0
70
32
0
VERTEX
8
0
62
255
10
-13.240135
20
101.49076
30
0
70
32
0
VERTEX
8
0
62
255
10
-13.335019
20
101.4983
30
0
70
32
0
VERTEX
8
0
62
255
10
-13.430191
20
101.49981
30
0
70
32
0
VERTEX
8
0
62
255
10
-13.525267
20
101.49528
30
0
70
32
0
VERTEX
8
0
62
255
10
-13.619864
20
101.48473
30
0
70
32
0
VERTEX
8
0
62
255
10
-13.713602
20
101.4682
30
0
70
32
0
VERTEX
8
0
62
255
10
-13.806103
20
101.44576
30
0
70
32
0
VERTEX
8
0
62
255
10
-13.896994
20
101.4175
30
0
70
32
0
VERTEX
8
0
62
255
10
-13.98591
20
101.38353
30
0
70
32
0
VERTEX
8
0
62
255
10
-14.072492
20
101.34399
30
0
70
32
0
VERTEX
8
0
62
255
10
-14.156392
20
101.29904
30
0
70
32
0
VERTEX
8
0
62
255
10
-14.237272
20
101.24885
30
0
70
32
0
VERTEX
8
0
62
255
10
-14.314807
20
101.19364
30
0
70
32
0
VERTEX
8
0
62
255
10
-14.388683
20
101.13362
30
0
70
32
0
VERTEX
8
0
62
255
10
-14.458604
20
101.06904
30
0
70
32
0
VERTEX
8
0
62
255
10
-14.524289
20
101.00015
30
0
70
32
0
VERTEX
8
0
62
255
10
-14.585472
20
100.92724
30
0
70
32
0
VERTEX
8
0
62
255
10
-14.641907
20
100.85059
30
0
70
32
0
VERTEX
8
0
62
255
10
-14.693367
20
100.77052
30
0
70
32
0
VERTEX
8
0
62
255
10
-14.739645
20
100.68734
30
0
70
32
0
VERTEX
8
0
62
255
10
-14.780555
20
100.6014
30
0
70
32
0
VERTEX
8
0
62
255
10
-14.815931
20
100.51303
30
0
70
32
0
VERTEX
8
0
62
255
10
-14.845632
20
100.4226
30
0
70
32
0
VERTEX
8
0
62
255
10
-14.869537
20
100.33047
30
0
70
32
0
VERTEX
8
0
62
255
10
-14.88755
20
100.237
30
0
70
32
0
VERTEX
8
0
62
255
10
-14.8996
20
100.14258
30
0
70
32
0
VERTEX
8
0
62
255
10
-14.905637
20
100.04759
30
0
70
32
0
VERTEX
8
0
62
255
10
-14.905637
20
99.952408
30
0
70
32
0
VERTEX
8
0
62
255
10
-14.8996
20
99.857416
30
0
70
32
0
VERTEX
8
0
62
255
10
-14.88755
20
99.762998
30
0
70
32
0
VERTEX
8
0
62
255
10
-14.869537
20
99.669534
30
0
70
32
0
VERTEX
8
0
62
255
10
-14.845632
20
99.577401
30
0
70
32
0
VERTEX
8
0
62
255
10
-14.815931
20
99.48697
30
0
70
32
0
VERTEX
8
0
62
255
10
-14.780555
20
99.398604
30
0
70
32
0
VERTEX
8
0
62
255
10
-14.739645
20
99.31266
30
0
70
32
0
VERTEX
8
0
62
255
10
-14.693367
20
99.229484
30
0
70
32
0
VERTEX
8
0
62
255
10
-14.641907
20
99.14941
30
0
70
32
0
VERTEX
8
0
62
255
10
-14.585472
20
99.072762
30
0
70
32
0
VERTEX
8
0
62
255
10
-14.524289
20
98.999846
30
0
70
32
0
VERTEX
8
0
62
255
10
-14.458604
20
98.930959
30
0
70
32
0
VERTEX
8
0
62
255
10
-14.388683
20
98.866376
30
0
70
32
0
VERTEX
8
0
62
255
10
-14.314807
20
98.806357
30
0
70
32
0
VERTEX
8
0
62
255
10
-14.237272
20
98.751145
30
0
70
32
0
VERTEX
8
0
62
255
10
-14.156392
20
98.700962
30
0
70
32
0
VERTEX
8
0
62
255
10
-14.072492
20
98.656009
30
0
70
32
0
VERTEX
8
0
62
255
10
-13.98591
20
98.616469
30
0
70
32
0
VERTEX
8
0
62
255
10
-13.896994
20
98.582499
30
0
70
32
0
VERTEX
8
0
62
255
10
-13.806103
20
98.554237
30
0
70
32
0
VERTEX
8
0
62
255
10
-13.713602
20
98.531796
30
0
70
32
0
VERTEX
8
0
62
255
10
-13.619864
20
98.515268
30
0
70
32
0
VERTEX
8
0
62
255
10
-13.525267
20
98.504718
30
0
70
32
0
VERTEX
8
0
62
255
10
-13.430191
20
98.500189
30
0
70
32
0
VERTEX
8
0
62
255
10
-13.335019
20
98.501699
30
0
70
32
0
VERTEX
8
0
62
255
10
-13.240135
20
98.509242
30
0
70
32
0
VERTEX
8
0
62
255
10
-13.14592
20
98.522788
30
0
70
32
0
VERTEX
8
0
62
255
10
-13.052754
20
98.542283
30
0
70
32
0
VERTEX
8
0
62
255
10
-12.961012
20
98.567647
30
0
70
32
0
VERTEX
8
0
62
255
10
-12.871063
20
98.598778
30
0
70
32
0
VERTEX
8
0
62
255
10
-12.78327
20
98.635552
30
0
70
32
0
VERTEX
8
0
62
255
10
-12.697986
20
98.67782
30
0
70
32
0
VERTEX
8
0
62
255
10
-12.615554
20
98.725412
30
0
70
32
0
VERTEX
8
0
62
255
10
-12.536307
20
98.778136
30
0
70
32
0
VERTEX
8
0
62
255
10
-12.460563
20
98.83578
30
0
70
32
0
VERTEX
8
0
62
255
10
-12.388628
20
98.898112
30
0
70
32
0
VERTEX
8
0
62
255
10
-12.320791
20
98.964881
30
0
70
32
0
VERTEX
8
0
62
255
10
-12.257325
20
99.035819
30
0
70
32
0
VERTEX
8
0
62
255
10
-12.198487
20
99.110638
30
0
70
32
0
VERTEX
8
0
62
255
10
-12.144512
20
99.189039
30
0
70
32
0
VERTEX
8
0
62
255
10
-12.095618
20
99.270705
30
0
70
32
0
VERTEX
8
0
62
255
10
-12.052002
20
99.355308
30
0
70
32
0
VERTEX
8
0
62
255
10
-12.01384
20
99.442506
30
0
70
32
0
VERTEX
8
0
62
255
10
-11.981285
20
99.53195
30
0
70
32
0
VERTEX
8
0
62
255
10
-11.954469
20
99.623278
30
0
70
32
0
VERTEX
8
0
62
255
10
-11.933499
20
99.716123
30
0
70
32
0
VERTEX
8
0
62
255
10
-11.91846
20
99.810111
30
0
70
32
0
VERTEX
8
0
62
255
10
-11.909412
20
99.904864
30
0
70
32
0
VERTEX
8
0
62
255
10
-11.906392
20
100
30
0
70
32
0
SEQEND
8
0
0
POLYLINE
8
0
62
255
66
1
10
0
20
0
30
0
70
8
0
VERTEX
8
0
62
255
10
38.093608
20
100
30
0
70
32
0
VERTEX
8
0
62
255
10
38.090588
20
100.09514
30
0
70
32
0
VERTEX
8
0
62
255
10
38.08154
20
100.18989
30
0
70
32
0
VERTEX
8
0
62
255
10
38.066501
20
100.28388
30
0
70
32
0
VERTEX
8
0
62
255
10
38.045531
20
100.37672
30
0
70
32
0
VERTEX
8
0
62
255
10
38.018715
20
100.46805
30
0
70
32
0
VERTEX
8
0
62
255
10
37.98616
20
100.55749
30
0
70
32
0
VERTEX
8
0
62
255
10
37.947998
20
100.64469
30
0
70
32
0
VERTEX
8
0
62
255
10
37.904382
20
100.7293
30
0
70
32
0
VERTEX
8
0
62
255
10
37.855488
20
100.81096
30
0
70
32
0
VERTEX
8
0
62
255
10
37.801513
20
100.88936
30
0
70
32
0
VERTEX
8
0
62
255
10
37.742675
20
100.96418
30
0
70
32
0
VERTEX
8
0
62
255
10
37.679209
20
101.03512
30
0
70
32
0
VERTEX
8
0
62
255
10
37.611372
20
101.10189
30
0
70
32
0
VERTEX
8
0
62
255
10
37.539437
20
101.16422
30
0
70
32
0
VERTEX
8
0
62
255
10
37.463693
20
101.22186
30
0
70
32
0
VERTEX
8
0
62
255
10
37.384446
20
101.27459
30
0
70
32
0
VERTEX
8
0
62
255
10
37.302014
20
101.32218
30
0
70
32
0
VERTEX
8
0
62
255
10
37.21673
20
101.36445
30
0
70
32
0
VERTEX
8
0
62
255
10
37.128937
20
101.40122
30
0
70
32
0
VERTEX
8
0
62
255
10
37.038988
20
101.43235
30
0
70
32
0
VERTEX
8
0
62
255
10
36.947246
20
101.45772
30
0
70
32
0
VERTEX
8
0
62
255
10
36.85408
20
101.47721
30
0
70
32
0
VERTEX
8
0
62
255
10
36.759865
20
101.49076
30
0
70
32
0
VERTEX
8
0
62
255
10
36.664981
20
101.4983
30
0
70
32
0
VERTEX
8
0
62
255
10
36.569809
20
101.49981
30
0
70
32
0
VERTEX
8
0
62
255
10
36.474733
20
101.49528
30
0
70
32
0
VERTEX
8
0
62
255
10
36.380136
20
101.48473
30
0
70
32
0
VERTEX
8
0
62
255
10
36.286398
20
101.4682
30
0
70
32
0
VERTEX
8
0
62
255
10
36.193897
20
101.44576
30
0
70
32
0
VERTEX
8
0
62
255
10
36.103006
20
101.4175
30
0
70
32
0
VERTEX
8
0
62
255
10
36.01409
20
101.38353
30
0
70
32
0
VERTEX
8
0
62
255
10
35.927508
20
101.34399
30
0
70
32
0
VERTEX
8
0
62
255
10
35.843608
20
101.29904
30
0
70
32
0
VERTEX
8
0
62
255
10
35.762728
20
101.24885
30
0
70
32
0
VERTEX
8
0
62
255
10
35.685193
20
101.19364
30
0
70
32
0
VERTEX
8
0
62
255
10
35.611317
20
101.13362
30
0
70
32
0
VERTEX
8
0
62
255
10
35.541396
20
101.06904
30
0
70
32
0
VERTEX
8
0
62
255
10
35.475711
20
101.00015
30
0
70
32
0
VERTEX
8
0
62
255
10
35.414528
20
100.92724
30
0
70
32
0
VERTEX
8
0
62
255
10
35.358093
20
100.85059
30
0
70
32
0
VERTEX
8
0
62
255
10
35.306633
20
100.77052
30
0
70
32
0
VERTEX
8
0
62
255
10
35.260355
20
100.68734
30
0
70
32
0
VERTEX
8
0
62
255
10
35.219445
20
100.6014
30
0
70
32
0
VERTEX
8
0
62
255
10
35.184069
20
100.51303
30
0
70
32
0
VERTEX
8
0
62
255
10
35.154368
20
100.4226
30
0
70
32
0
VERTEX
8
0
62
255
10
35.130463
20
100.33047
30
0
70
32
0
VERTEX
8
0
62
255
10
35.11245
20
100.237
30
0
70
32
0
VERTEX
8
0
62
255
10
35.1004
20
100.14258
30
0
70
32
0
VERTEX
8
0
62
255
10
35.094363
20
100.04759
30
0
70
32
0
VERTEX
8
0
62
255
10
35.094363
20
99.952408
30
0
70
32
0
VERTEX
8
0
62
255
10
35.1004
20
99.857416
30
0
70
32
0
VERTEX
8
0
62
255
10
35.11245
20
99.762998
30
0
70
32
0
VERTEX
8
0
62
255
10
35.130463
20
99.669534
30
0
70
32
0
VERTEX
8
0
62
255
10
35.154368
20
99.577401
30
0
70
32
0
VERTEX
8
0
62
255
10
35.184069
20
99.48697
30
0
70
32
0
VERTEX
8
0
62
255
10
35.219445
20
99.398604
30
0
70
32
0
VERTEX
8
0
62
255
10
35.260355
20
99.31266
30
0
70
32
0
VERTEX
8
0
62
255
10
35.306633
20
99.229484
30
0
70
32
0
VERTEX
8
0
62
255
10
35.358093
20
99.14941
30
0
70
32
0
VERTEX
8
0
62
255
10
35.414528
20
99.072762
30
0
70
32
0
VERTEX
8
0
62
255
10
35.475711
20
98.999846
30
0
70
32
0
VERTEX
8
0
62
255
10
35.541396
20
98.930959
30
0
70
32
0
VERTEX
8
0
62
255
10
35.611317
20
98.866376
30
0
70
32
0
VERTEX
8
0
62
255
10
35.685193
20
98.806357
30
0
70
32
0
VERTEX
8
0
62
255
10
35.762728
20
98.751145
30
0
70
32
0
VERTEX
8
0
62
255
10
35.843608
20
98.700962
30
0
70
32
0
VERTEX
8
0
62
255
10
35.927508
20
98.656009
30
0
70
32
0
VERTEX
8
0
62
255
10
36.01409
20
98.616469
30
0
70
32
0
VERTEX
8
0
62
255
10
36.103006
20
98.582499
30
0
70
32
0
VERTEX
8
0
62
255
10
36.193897
20
98.554237
30
0
70
32
0
VERTEX
8
0
62
255
10
36.286398
20
98.531796
30
0
70
32
0
VERTEX
8
0
62
255
10
36.380136
20
98.515268
30
0
70
32
0
VERTEX
8
0
62
255
10
36.474733
20
98.504718
30
0
70
32
0
VERTEX
8
0
62
255
10
36.569809
20
98.500189
30
0
70
32
0
VERTEX
8
0
62
255
10
36.664981
20
98.501699
30
0
70
32
0
VERTEX
8
0
62
255
10
36.759865
20
98.509242
30
0
70
32
0
VERTEX
8
0
62
255
10
36.85408
20
98.522788
30
0
70
32
0
VERTEX
8
0
62
255
10
36.947246
20
98.542283
30
0
70
32
0
VERTEX
8
0
62
255
10
37.038988
20
98.567647
30
0
70
32
0
VERTEX
8
0
62
255
10
37.128937
20
98.598778
30
0
70
32
0
VERTEX
8
0
62
255
10
37.21673
20
98.635552
30
0
70
32
0
VERTEX
8
0
62
255
10
37.302014
20
98.67782
30
0
70
32
0
VERTEX
8
0
62
255
10
37.384446
20
98.725412
30
0
70
32
0
VERTEX
8
0
62
255
10
37.463693
20
98.778136
30
0
70
32
0
VERTEX
8
0
62
255
10
37.539437
20
98.83578
30
0
70
32
0
VERTEX
8
0
62
255
10
37.611372
20
98.898112
30
0
70
32
0
VERTEX
8
0
62
255
10
37.679209
20
98.964881
30
0
70
32
0
VERTEX
8
0
62
255
10
37.742675
20
99.035819
30
0
70
32
0
VERTEX
8
0
62
255
10
37.801513
20
99.110638
30
0
70
32
0
VERTEX
8
0
62
255
10
37.855488
20
99.189039
30
0
70
32
0
VERTEX
8
0
62
255
10
37.904382
20
99.270705
30
0
70
32
0
VERTEX
8
0
62
255
10
37.947998
20
99.355308
30
0
70
32
0
VERTEX
8
0
62
255
10
37.98616
20
99.442506
30
0
70
32
0
VERTEX
8
0
62
255
10
38.018715
20
99.53195
30
0
70
32
0
VERTEX
8
0
62
255
10
38.045531
20
99.623278
30
0
70
32
0
VERTEX
8
0
62
255
10
38.066501
20
99.716123
30
0
70
32
0
VERTEX
8
0
62
255
10
38.08154
20
99.810111
30
0
70
32
0
VERTEX
8
0
62
255
10
38.090588
20
99.904864
30
0
70
32
0
VERTEX
8
0
62
255
10
38.093608
20
100
30
0
70
32
0
SEQEND
8
0
0
POLYLINE
8
0
62
255
66
1
10
0
20
0
30
0
70
8
0
VERTEX
8
0
62
255
10
17.985499
20
59.4
30
0
70
32
0
VERTEX
8
0
62
255
10
17.97263
20
59.805399
30
0
70
32
0
VERTEX
8
0
62
255
10
17.934075
20
60.209165
30
0
70
32
0
VERTEX
8
0
62
255
10
17.869989
20
60.609673
30
0
70
32
0
VERTEX
8
0
62
255
10
17.78063
20
61.005311
30
0
70
32
0
VERTEX
8
0
62
255
10
17.666359
20
61.394484
30
0
70
32
0
VERTEX
8
0
62
255
10
17.527635
20
61.775626
30
0
70
32
0
VERTEX
8
0
62
255
10
17.365016
20
62.147202
30
0
70
32
0
VERTEX
8
0
62
255
10
17.179158
20
62.507717
30
0
70
32
0
VERTEX
8
0
62
255
10
16.970809
20
62.855717
30
0
70
32
0
VERTEX
8
0
62
255
10
16.740808
20
63.189803
30
0
70
32
0
VERTEX
8
0
62
255
10
16.49008
20
63.508628
30
0
70
32
0
VERTEX
8
0
62
255
10
16.219637
20
63.81091
30
0
70
32
0
VERTEX
8
0
62
255
10
15.930566
20
64.09543
30
0
70
32
0
VERTEX
8
0
62
255
10
15.624032
20
64.361044
30
0
70
32
0
VERTEX
8
0
62
255
10
15.301268
20
64.606681
30
0
70
32
0
VERTEX
8
0
62
255
10
14.963576
20
64.831352
30
0
70
32
0
VERTEX
8
0
62
255
10
14.612313
20
65.034154
30
0
70
32
0
VERTEX
8
0
62
255
10
14.248895
20
65.214269
30
0
70
32
0
VERTEX
8
0
62
255
10
13.874786
20
65.370971
30
0
70
32
0
VERTEX
8
0
62
255
10
13.491491
20
65.503631
30
0
70
32
0
VERTEX
8
0
62
255
10
13.100553
20
65.611714
30
0
70
32
0
VERTEX
8
0
62
255
10
12.703548
20
65.694784
30
0
70
32
0
VERTEX
8
0
62
255
10
12.302074
20
65.752507
30
0
70
32
0
VERTEX
8
0
62
255
10
11.897746
20
65.784651
30
0
70
32
0
VERTEX
8
0
62
255
10
11.492194
20
65.791086
30
0
70
32
0
VERTEX
8
0
62
255
10
11.087051
20
65.771787
30
0
70
32
0
VERTEX
8
0
62
255
10
10.683947
20
65.726831
30
0
70
32
0
VERTEX
8
0
62
255
10
10.284506
20
65.656399
30
0
70
32
0
VERTEX
8
0
62
255
10
9.8903363
20
65.560774
30
0
70
32
0
VERTEX
8
0
62
255
10
9.5030251
20
65.440342
30
0
70
32
0
VERTEX
8
0
62
255
10
9.1241319
20
65.295588
30
0
70
32
0
VERTEX
8
0
62
255
10
8.7551825
20
65.127095
30
0
70
32
0
VERTEX
8
0
62
255
10
8.3976624
20
64.93554
30
0
70
32
0
VERTEX
8
0
62
255
10
8.0530112
20
64.721696
30
0
70
32
0
VERTEX
8
0
62
255
10
7.7226167
20
64.486423
30
0
70
32
0
VERTEX
8
0
62
255
10
7.4078094
20
64.230669
30
0
70
32
0
VERTEX
8
0
62
255
10
7.1098568
20
63.955463
30
0
70
32
0
VERTEX
8
0
62
255
10
6.8299587
20
63.661915
30
0
70
32
0
VERTEX
8
0
62
255
10
6.5692422
20
63.351205
30
0
70
32
0
VERTEX
8
0
62
255
10
6.3287569
20
63.024585
30
0
70
32
0
VERTEX
8
0
62
255
10
6.1094714
20
62.68337
30
0
70
32
0
VERTEX
8
0
62
255
10
5.9122685
20
62.328934
30
0
70
32
0
VERTEX
8
0
62
255
10
5.7379424
20
61.962704
30
0
70
32
0
VERTEX
8
0
62
255
10
5.587195
20
61.586155
30
0
70
32
0
VERTEX
8
0
62
255
10
5.4606333
20
61.200804
30
0
70
32
0
VERTEX
8
0
62
255
10
5.358767
20
60.808201
30
0
70
32
0
VERTEX
8
0
62
255
10
5.2820061
20
60.409928
30
0
70
32
0
VERTEX
8
0
62
255
10
5.2306598
20
60.007588
30
0
70
32
0
VERTEX
8
0
62
255
10
5.2049349
20
59.602801
30
0
70
32
0
VERTEX
8
0
62
255
10
5.2049349
20
59.197199
30
0
70
32
0
VERTEX
8
0
62
255
10
5.2306598
20
58.792412
30
0
70
32
0
VERTEX
8
0
62
255
10
5.2820061
20
58.390072
30
0
70
32
0
VERTEX
8
0
62
255
10
5.358767
20
57.991799
30
0
70
32
0
VERTEX
8
0
62
255
10
5.4606333
20
57.599196
30
0
70
32
0
VERTEX
8
0
62
255
10
5.587195
20
57.213845
30
0
70
32
0
VERTEX
8
0
62
255
10
5.7379424
20
56.837296
30
0
70
32
0
VERTEX
8
0
62
255
10
5.9122685
20
56.471066
30
0
70
32
0
VERTEX
8
0
62
255
10
6.1094714
20
56.11663
30
0
70
32
0
VERTEX
8
0
62
255
10
6.3287569
20
55.775415
30
0
70
32
0
VERTEX
8
0
62
255
10
6.5692422
20
55.448795
30
0
70
32
0
VERTEX
8
0
62
255
10
6.8299587
20
55.138085
30
0
70
32
0
VERTEX
8
0
62
255
10
7.1098568
20
54.844537
30
0
70
32
0
VERTEX
8
0
62
255
10
7.4078094
20
54.569331
30
0
70
32
0
VERTEX
8
0
62
255
10
7.7226167
20
54.313577
30
0
70
32
0
VERTEX
8
0
62
255
10
8.0530112
20
54.078304
30
0
70
32
0
VERTEX
8
0
62
255
10
8.3976624
20
53.86446
30
0
70
32
0
VERTEX
8
0
62
255
10
8.7551825
20
53.672905
30
0
70
32
0
VERTEX
8
0
62
255
10
9.1241319
20
53.504412
30
0
70
32
0
VERTEX
8
0
62
255
10
9.5030251
20
53.359658
30
0
70
32
0
VERTEX
8
0
62
255
10
9.8903363
20
53.239226
30
0
70
32
0
VERTEX
8
0
62
255
10
10.284506
20
53.143601
30
0
70
32
0
VERTEX
8
0
62
255
10
10.683947
20
53.073169
30
0
70
32
0
VERTEX
8
0
62
255
10
11.087051
20
53.028213
30
0
70
32
0
VERTEX
8
0
62
255
10
11.492194
20
53.008914
30
0
70
32
0
VERTEX
8
0
62
255
10
11.897746
20
53.015349
30
0
70
32
0
VERTEX
8
0
62
255
10
12.302074
20
53.047493
30
0
70
32
0
VERTEX
8
0
62
255
10
12.703548
20
53.105216
30
0
70
32
0
VERTEX
8
0
62
255
10
13.100553
20
53.188286
30
0
70
32
0
VERTEX
8
0
62
255
10
13.491491
20
53.296369
30
0
70
32
0
VERTEX
8
0
62
255
10
13.874786
20
53.429029
30
0
70
32
0
VERTEX
8
0
62
255
10
14.248895
20
53.585731
30
0
70
32
0
VERTEX
8
0
62
255
10
14.612313
20
53.765846
30
0
70
32
0
VERTEX
8
0
62
255
10
14.963576
20
53.968648
30
0
70
32
0
VERTEX
8
0
62
255
10
15.301268
20
54.193319
30
0
70
32
0
VERTEX
8
0
62
255
10
15.624032
20
54.438956
30
0
70
32
0
VERTEX
8
0
62
255
10
15.930566
20
54.70457
30
0
70
32
0
VERTEX
8
0
62
255
10
16.219637
20
54.98909
30
0
70
32
0
VERTEX
8
0
62
255
10
16.49008
20
55.291372
30
0
70
32
0
VERTEX
8
0
62
255
10
16.740808
20
55.610197
30
0
70
32
0
VERTEX
8
0
62
255
10
16.970809
20
55.944283
30
0
70
32
0
VERTEX
8
0
62
255
10
17.179158
20
56.292283
30
0
70
32
0
VERTEX
8
0
62
255
10
17.365016
20
56.652798
30
0
70
32
0
VERTEX
8
0
62
255
10
17.527635
20
57.024374
30
0
70
32
0
VERTEX
8
0
62
255
10
17.666359
20
57.405516
30
0
70
32
0
VERTEX
8
0
62
255
10
17.78063
20
57.794689
30
0
70
32
0
VERTEX
8
0
62
255
10
17.869989
20
58.190327
30
0
70
32
0
VERTEX
8
0
62
255
10
17.934075
20
58.590835
30
0
70
32
0
VERTEX
8
0
62
255
10
17.97263
20
58.994601
30
0
70
32
0
VERTEX
8
0
62
255
10
17.985499
20
59.4
30
0
70
32
0
SEQEND
8
0
0
POLYLINE
8
0
62
255
66
1
10
0
20
0
30
0
70
8
0
VERTEX
8
0
62
255
10
0
20
0
30
0
70
32
0
VERTEX
8
0
62
255
10
0.2342143
20
-0
30
0
70
32
0
VERTEX
8
0
62
255
10
0.4684286
20
-0
30
0
70
32
0
VERTEX
8
0
62
255
10
0.7026429
20
-0
30
0
70
32
0
VERTEX
8
0
62
255
10
0.9368572
20
-0
30
0
70
32
0
VERTEX
8
0
62
255
10
1.1710715
20
-0
30
0
70
32
0
VERTEX
8
0
62
255
10
1.4052858
20
-0
30
0
70
32
0
VERTEX
8
0
62
255
10
1.6395001
20
-0
30
0
70
32
0
VERTEX
8
0
62
255
10
1.8737144
20
-0
30
0
70
32
0
VERTEX
8
0
62
255
10
2.1079287
20
-0
30
0
70
32
0
VERTEX
8
0
62
255
10
2.342143
20
-0
30
0
70
32
0
VERTEX
8
0
62
255
10
2.5763573
20
-0
30
0
70
32
0
VERTEX
8
0
62
255
10
2.8105716
20
-0
30
0
70
32
0
VERTEX
8
0
62
255
10
3.0447859
20
-0
30
0
70
32
0
VERTEX
8
0
62
255
10
3.2790002
20
-0
30
0
70
32
0
VERTEX
8
0
62
255
10
3.5132145
20
-0
30
0
70
32
0
VERTEX
8
0
62
255
10
3.7474288
20
-0
30
0
70
32
0
VERTEX
8
0
62
255
10
3.9816431
20
-0
30
0
70
32
0
VERTEX
8
0
62
255
10
4.2158574
20
-0
30
0
70
32
0
VERTEX
8
0
62
255
10
4.4500717
20
-0
30
0
70
32
0
VERTEX
8
0
62
255
10
4.684286
20
-0
30
0
70
32
0
VERTEX
8
0
62
255
10
4.9185003
20
-0
30
0
70
32
0
VERTEX
8
0
62
255
10
5.1527146
20
-0
30
0
70
32
0
VERTEX
8
0
62
255
10
5.3869289
20
-0
30
0
70
32
0
VERTEX
8
0
62
255
10
5.6211432
20
-0
30
0
70
32
0
VERTEX
8
0
62
255
10
5.8553575
20
-0
30
0
70
32
0
VERTEX
8
0
62
255
10
6.0895718
20
-0
30
0
70
32
0
VERTEX
8
0
62
255
10
6.3237861
20
-0
30
0
70
32
0
VERTEX
8
0
62
255
10
6.5580004
20
-0
30
0
70
32
0
VERTEX
8
0
62
255
10
6.7922147
20
-0
30
0
70
32
0
VERTEX
8
0
62
255
10
7.026429
20
-0
30
0
70
32
0
VERTEX
8
0
62
255
10
7.2606433
20
-0
30
0
70
32
0
VERTEX
8
0
62
255
10
7.4948576
20
-0
30
0
70
32
0
VERTEX
8
0
62
255
10
7.7290719
20
-0
30
0
70
32
0
VERTEX
8
0
62
255
10
7.9632862
20
-0
30
0
70
32
0
VERTEX
8
0
62
255
10
8.1975005
20
-0
30
0
70
32
0
VERTEX
8
0
62
255
10
8.4317148
20
-0
30
0
70
32
0
VERTEX
8
0
62
255
10
8.6659291
20
-0
30
0
70
32
0
VERTEX
8
0
62
255
10
8.9001434
20
-0
30
0
70
32
0
VERTEX
8
0
62
255
10
9.1343577
20
-0
30
0
70
32
0
VERTEX
8
0
62
255
10
9.368572
20
-0
30
0
70
32
0
VERTEX
8
0
62
255
10
9.6027863
20
-0
30
0
70
32
0
VERTEX
8
0
62
255
10
9.8370006
20
-0
30
0
70
32
0
VERTEX
8
0
62
255
10
10.071215
20
-0
30
0
70
32
0
VERTEX
8
0
62
255
10
10.305429
20
-0
30
0
70
32
0
VERTEX
8
0
62
255
10
10.539644
20
-0
30
0
70
32
0
VERTEX
8
0
62
255
10
10.773858
20
-0
30
0
70
32
0
VERTEX
8
0
62
255
10
11.008072
20
-0
30
0
70
32
0
VERTEX
8
0
62
255
10
11.242286
20
-0
30
0
70
32
0
VERTEX
8
0
62
255
10
11.476501
20
-0
30
0
70
32
0
VERTEX
8
0
62
255
10
11.710715
20
0
30
0
70
32
0
VERTEX
8
0
62
255
10
11.944929
20
0
30
0
70
32
0
VERTEX
8
0
62
255
10
12.179144
20
0
30
0
70
32
0
VERTEX
8
0
62
255
10
12.413358
20
0
30
0
70
32
0
VERTEX
8
0
62
255
10
12.647572
20
0
30
0
70
32
0
VERTEX
8
0
62
255
10
12.881787
20
0
30
0
70
32
0
VERTEX
8
0
62
255
10
13.116001
20
0
30
0
70
32
0
VERTEX
8
0
62
255
10
13.350215
20
0
30
0
70
32
0
VERTEX
8
0
62
255
10
13.584429
20
0
30
0
70
32
0
VERTEX
8
0
62
255
10
13.818644
20
0
30
0
70
32
0
VERTEX
8
0
62
255
10
14.052858
20
0
30
0
70
32
0
VERTEX
8
0
62
255
10
14.287072
20
0
30
0
70
32
0
VERTEX
8
0
62
255
10
14.521287
20
0
30
0
70
32
0
VERTEX
8
0
62
255
10
14.755501
20
0
30
0
70
32
0
VERTEX
8
0
62
255
10
14.989715
20
0
30
0
70
32
0
VERTEX
8
0
62
255
10
15.22393
20
0
30
0
70
32
0
VERTEX
8
0
62
255
10
15.458144
20
0
30
0
70
32
0
VERTEX
8
0
62
255
10
15.692358
20
0
30
0
70
32
0
VERTEX
8
0
62
255
10
15.926572
20
0
30
0
70
32
0
VERTEX
8
0
62
255
10
16.160787
20
0
30
0
70
32
0
VERTEX
8
0
62
255
10
16.395001
20
0
30
0
70
32
0
VERTEX
8
0
62
255
10
16.629215
20
0
30
0
70
32
0
VERTEX
8
0
62
255
10
16.86343
20
0
30
0
70
32
0
VERTEX
8
0
62
255
10
17.097644
20
0
30
0
70
32
0
VERTEX
8
0
62
255
10
17.331858
20
0
30
0
70
32
0
VERTEX
8
0
62
255
10
17.566073
20
0
30
0
70
32
0
VERTEX
8
0
62
255
10
17.800287
20
0
30
0
70
32
0
VERTEX
8
0
62
255
10
18.034501
20
0
30
0
70
32
0
VERTEX
8
0
62
255
10
18.268715
20
0
30
0
70
32
0
VERTEX
8
0
62
255
10
18.50293
20
0
30
0
70
32
0
VERTEX
8
0
62
255
10
18.737144
20
0
30
0
70
32
0
VERTEX
8
0
62
255
10
18.971358
20
0
30
0
70
32
0
VERTEX
8
0
62
255
10
19.205573
20
0
30
0
70
32
0
VERTEX
8
0
62
255
10
19.439787
20
0
30
0
70
32
0
VERTEX
8
0
62
255
10
19.674001
20
0
30
0
70
32
0
VERTEX
8
0
62
255
10
19.908216
20
0
30
0
70
32
0
VERTEX
8
0
62
255
10
20.14243
20
0
30
0
70
32
0
VERTEX
8
0
62
255
10
20.376644
20
0
30
0
70
32
0
VERTEX
8
0
62
255
10
20.610858
20
0
30
0
70
32
0
VERTEX
8
0
62
255
10
20.845073
20
0
30
0
70
32
0
VERTEX
8
0
62
255
10
21.079287
20
0
30
0
70
32
0
VERTEX
8
0
62
255
10
21.313501
20
0
30
0
70
32
0
VERTEX
8
0
62
255
10
21.547716
20
0
30
0
70
32
0
VERTEX
8
0
62
255
10
21.78193
20
0
30
0
70
32
0
VERTEX
8
0
62
255
10
22.016144
20
0
30
0
70
32
0
VERTEX
8
0
62
255
10
22.250359
20
0
30
0
70
32
0
VERTEX
8
0
62
255
10
22.484573
20
0
30
0
70
32
0
VERTEX
8
0
62
255
10
22.718787
20
0
30
0
70
32
0
VERTEX
8
0
62
255
10
22.953001
20
0
30
0
70
32
0
VERTEX
8
0
62
255
10
23.187216
20
0
30
0
70
32
0
SEQEND
8
0
0
POLYLINE
8
0
62
255
66
1
10
0
20
0
30
0
70
8
0
VERTEX
8
0
62
255
10
23.187216
20
0
30
0
70
32
0
VERTEX
8
0
62
255
10
23.187216
20
0.01010101
30
0
70
32
0
VERTEX
8
0
62
255
10
23.187216
20
0.02020202
30
0
70
32
0
VERTEX
8
0
62
255
10
23.187216
20
0.03030303
30
0
70
32
0
VERTEX
8
0
62
255
10
23.187216
20
0.04040404
30
0
70
32
0
VERTEX
8
0
62
255
10
23.187216
20
0.050505051
30
0
70
32
0
VERTEX
8
0
62
255
10
23.187216
20
0.060606061
30
0
70
32
0
VERTEX
8
0
62
255
10
23.187216
20
0.070707071
30
0
70
32
0
VERTEX
8
0
62
255
10
23.187216
20
0.080808081
30
0
70
32
0
VERTEX
8
0
62
255
10
23.187216
20
0.090909091
30
0
70
32
0
VERTEX
8
0
62
255
10
23.187216
20
0.1010101
30
0
70
32
0
VERTEX
8
0
62
255
10
23.187216
20
0.11111111
30
0
70
32
0
VERTEX
8
0
62
255
10
23.187216
20
0.12121212
30
0
70
32
0
VERTEX
8
0
62
255
10
23.187216
20
0.13131313
30
0
70
32
0
VERTEX
8
0
62
255
10
23.187216
20
0.14141414
30
0
70
32
0
VERTEX
8
0
62
255
10
23.187216
20
0.15151515
30
0
70
32
0
VERTEX
8
0
62
255
10
23.187216
20
0.16161616
30
0
70
32
0
VERTEX
8
0
62
255
10
23.187216
20
0.17171717
30
0
70
32
0
VERTEX
8
0
62
255
10
23.187216
20
0.18181818
30
0
70
32
0
VERTEX
8
0
62
255
10
23.187216
20
0.19191919
30
0
70
32
0
VERTEX
8
0
62
255
10
23.187216
20
0.2020202
30
0
70
32
0
VERTEX
8
0
62
255
10
23.187216
20
0.21212121
30
0
70
32
0
VERTEX
8
0
62
255
10
23.187216
20
0.22222222
30
0
70
32
0
VERTEX
8
0
62
255
10
23.187216
20
0.23232323
30
0
70
32
0
VERTEX
8
0
62
255
10
23.187216
20
0.24242424
30
0
70
32
0
VERTEX
8
0
62
255
10
23.187216
20
0.25252525
30
0
70
32
0
VERTEX
8
0
62
255
10
23.187216
20
0.26262626
30
0
70
32
0
VERTEX
8
0
62
255
10
23.187216
20
0.27272727
30
0
70
32
0
VERTEX
8
0
62
255
10
23.187216
20
0.28282828
30
0
70
32
0
VERTEX
8
0
62
255
10
23.187216
20
0.29292929
30
0
70
32
0
VERTEX
8
0
62
255
10
23.187216
20
0.3030303
30
0
70
32
0
VERTEX
8
0
62
255
10
23.187216
20
0.31313131
30
0
70
32
0
VERTEX
8
0
62
255
10
23.187216
20
0.32323232
30
0
70
32
0
VERTEX
8
0
62
255
10
23.187216
20
0.33333333
30
0
70
32
0
VERTEX
8
0
62
255
10
23.187216
20
0.34343434
30
0
70
32
0
VERTEX
8
0
62
255
10
23.187216
20
0.35353535
30
0
70
32
0
VERTEX
8
0
62
255
10
23.187216
20
0.36363636
30
0
70
32
0
VERTEX
8
0
62
255
10
23.187216
20
0.37373737
30
0
70
32
0
VERTEX
8
0
62
255
10
23.187216
20
0.38383838
30
0
70
32
0
VERTEX
8
0
62
255
10
23.187216
20
0.39393939
30
0
70
32
0
VERTEX
8
0
62
255
10
23.187216
20
0.4040404
30
0
70
32
0
VERTEX
8
0
62
255
10
23.187216
20
0.41414141
30
0
70
32
0
VERTEX
8
0
62
255
10
23.187216
20
0.42424242
30
0
70
32
0
VERTEX
8
0
62
255
10
23.187216
20
0.43434343
30
0
70
32
0
VERTEX
8
0
62
255
10
23.187216
20
0.44444444
30
0
70
32
0
VERTEX
8
0
62
255
10
23.187216
20
0.45454545
30
0
70
32
0
VERTEX
8
0
62
255
10
23.187216
20
0.46464646
30
0
70
32
0
VERTEX
8
0
62
255
10
23.187216
20
0.47474747
30
0
70
32
0
VERTEX
8
0
62
255
10
23.187216
20
0.48484848
30
0
70
32
0
VERTEX
8
0
62
255
10
23.187216
20
0.49494949
30
0
70
32
0
VERTEX
8
0
62
255
10
23.187216
20
0.50505051
30
0
70
32
0
VERTEX
8
0
62
255
10
23.187216
20
0.51515152
30
0
70
32
0
VERTEX
8
0
62
255
10
23.187216
20
0.52525253
30
0
70
32
0
VERTEX
8
0
62
255
10
23.187216
20
0.53535354
30
0
70
32
0
VERTEX
8
0
62
255
10
23.187216
20
0.54545455
30
0
70
32
0
VERTEX
8
0
62
255
10
23.187216
20
0.55555556
30
0
70
32
0
VERTEX
8
0
62
255
10
23.187216
20
0.56565657
30
0
70
32
0
VERTEX
8
0
62
255
10
23.187216
20
0.57575758
30
0
70
32
0
VERTEX
8
0
62
255
10
23.187216
20
0.58585859
30
0
70
32
0
VERTEX
8
0
62
255
10
23.187216
20
0.5959596
30
0
70
32
0
VERTEX
8
0
62
255
10
23.187216
20
0.60606061
30
0
70
32
0
VERTEX
8
0
62
255
10
23.187216
20
0.61616162
30
0
70
32
0
VERTEX
8
0
62
255
10
23.187216
20
0.62626263
30
0
70
32
0
VERTEX
8
0
62
255
10
23.187216
20
0.63636364
30
0
70
32
0
VERTEX
8
0
62
255
10
23.187216
20
0.64646465
30
0
70
32
0
VERTEX
8
0
62
255
10
23.187216
20
0.65656566
30
0
70
32
0
VERTEX
8
0
62
255
10
23.187216
20
0.66666667
30
0
70
32
0
VERTEX
8
0
62
255
10
23.187216
20
0.67676768
30
0
70
32
0
VERTEX
8
0
62
255
10
23.187216
20
0.68686869
30
0
70
32
0
VERTEX
8
0
62
255
10
23.187216
20
0.6969697
30
0
70
32
0
VERTEX
8
0
62
255
10
23.187216
20
0.70707071
30
0
70
32
0
VERTEX
8
0
62
255
10
23.187216
20
0.71717172
30
0
70
32
0
VERTEX
8
0
62
255
10
23.187216
20
0.72727273
30
0
70
32
0
VERTEX
8
0
62
255
10
23.187216
20
0.73737374
30
0
70
32
0
VERTEX
8
0
62
255
10
23.187216
20
0.74747475
30
0
70
32
0
VERTEX
8
0
62
255
10
23.187216
20
0.75757576
30
0
70
32
0
VERTEX
8
0
62
255
10
23.187216
20
0.76767677
30
0
70
32
0
VERTEX
8
0
62
255
10
23.187216
20
0.77777778
30
0
70
32
0
VERTEX
8
0
62
255
10
23.187216
20
0.78787879
30
0
70
32
0
VERTEX
8
0
62
255
10
23.187216
20
0.7979798
30
0
70
32
0
VERTEX
8
0
62
255
10
23.187216
20
0.80808081
30
0
70
32
0
VERTEX
8
0
62
255
10
23.187216
20
0.81818182
30
0
70
32
0
VERTEX
8
0
62
255
10
23.187216
20
0.82828283
30
0
70
32
0
VERTEX
8
0
62
255
10
23.187216
20
0.83838384
30
0
70
32
0
VERTEX
8
0
62
255
10
23.187216
20
0.84848485
30
0
70
32
0
VERTEX
8
0
62
255
10
23.187216
20
0.85858586
30
0
70
32
0
VERTEX
8
0
62
255
10
23.187216
20
0.86868687
30
0
70
32
0
VERTEX
8
0
62
255
10
23.187216
20
0.87878788
30
0
70
32
0
VERTEX
8
0
62
255
10
23.187216
20
0.88888889
30
0
70
32
0
VERTEX
8
0
62
255
10
23.187216
20
0.8989899
30
0
70
32
0
VERTEX
8
0
62
255
10
23.187216
20
0.90909091
30
0
70
32
0
VERTEX
8
0
62
255
10
23.187216
20
0.91919192
30
0
70
32
0
VERTEX
8
0
62
255
10
23.187216
20
0.92929293
30
0
70
32
0
VERTEX
8
0
62
255
10
23.187216
20
0.93939394
30
0
70
32
0
VERTEX
8
0
62
255
10
23.187216
20
0.94949495
30
0
70
32
0
VERTEX
8
0
62
255
10
23.187216
20
0.95959596
30
0
70
32
0
VERTEX
8
0
62
255
10
23.187216
20
0.96969697
30
0
70
32
0
VERTEX
8
0
62
255
10
23.187216
20
0.97979798
30
0
70
32
0
VERTEX
8
0
62
255
10
23.187216
20
0.98989899
30
0
70
32
0
VERTEX
8
0
62
255
10
23.187216
20
1
30
0
70
32
0
SEQEND
8
0
0
POLYLINE
8
0
62
255
66
1
10
0
20
0
30
0
70
8
0
VERTEX
8
0
62
255
10
23.187216
20
1
30
0
70
32
0
VERTEX
8
0
62
255
10
22.953001
20
1
30
0
70
32
0
VERTEX
8
0
62
255
10
22.718787
20
1
30
0
70
32
0
VERTEX
8
0
62
255
10
22.484573
20
1
30
0
70
32
0
VERTEX
8
0
62
255
10
22.250359
20
1
30
0
70
32
0
VERTEX
8
0
62
255
10
22.016144
20
1
30
0
70
32
0
VERTEX
8
0
62
255
10
21.78193
20
1
30
0
70
32
0
VERTEX
8
0
62
255
10
21.547716
20
1
30
0
70
32
0
VERTEX
8
0
62
255
10
21.313501
20
1
30
0
70
32
0
VERTEX
8
0
62
255
10
21.079287
20
1
30
0
70
32
0
VERTEX
8
0
62
255
10
20.845073
20
1
30
0
70
32
0
VERTEX
8
0
62
255
10
20.610858
20
1
30
0
70
32
0
VERTEX
8
0
62
255
10
20.376644
20
1
30
0
70
32
0
VERTEX
8
0
62
255
10
20.14243
20
1
30
0
70
32
0
VERTEX
8
0
62
255
10
19.908216
20
1
30
0
70
32
0
VERTEX
8
0
62
255
10
19.674001
20
1
30
0
70
32
0
VERTEX
8
0
62
255
10
19.439787
20
1
30
0
70
32
0
VERTEX
8
0
62
255
10
19.205573
20
1
30
0
70
32
0
VERTEX
8
0
62
255
10
18.971358
20
1
30
0
70
32
0
VERTEX
8
0
62
255
10
18.737144
20
1
30
0
70
32
0
VERTEX
8
0
62
255
10
18.50293
20
1
30
0
70
32
0
VERTEX
8
0
62
255
10
18.268715
20
1
30
0
70
32
0
VERTEX
8
0
62
255
10
18.034501
20
1
30
0
70
32
0
VERTEX
8
0
62
255
10
17.800287
20
1
30
0
70
32
0
VERTEX
8
0
62
255
10
17.566073
20
1
30
0
70
32
0
VERTEX
8
0
62
255
10
17.331858
20
1
30
0
70
32
0
VERTEX
8
0
62
255
10
17.097644
20
1
30
0
70
32
0
VERTEX
8
0
62
255
10
16.86343
20
1
30
0
70
32
0
VERTEX
8
0
62
255
10
16.629215
20
1
30
0
70
32
0
VERTEX
8
0
62
255
10
16.395001
20
1
30
0
70
32
0
VERTEX
8
0
62
255
10
16.160787
20
1
30
0
70
32
0
VERTEX
8
0
62
255
10
15.926572
20
1
30
0
70
32
0
VERTEX
8
0
62
255
10
15.692358
20
1
30
0
70
32
0
VERTEX
8
0
62
255
10
15.458144
20
1
30
0
70
32
0
VERTEX
8
0
62
255
10
15.22393
20
1
30
0
70
32
0
VERTEX
8
0
62
255
10
14.989715
20
1
30
0
70
32
0
VERTEX
8
0
62
255
10
14.755501
20
1
30
0
70
32
0
VERTEX
8
0
62
255
10
14.521287
20
1
30
0
70
32
0
VERTEX
8
0
62
255
10
14.287072
20
1
30
0
70
32
0
VERTEX
8
0
62
255
10
14.052858
20
1
30
0
70
32
0
VERTEX
8
0
62
255
10
13.818644
20
1
30
0
70
32
0
VERTEX
8
0
62
255
10
13.584429
20
1
30
0
70
32
0
VERTEX
8
0
62
255
10
13.350215
20
1
30
0
70
32
0
VERTEX
8
0
62
255
10
13.116001
20
1
30
0
70
32
0
VERTEX
8
0
62
255
10
12.881787
20
1
30
0
70
32
0
VERTEX
8
0
62
255
10
12.647572
20
1
30
0
70
32
0
VERTEX
8
0
62
255
10
12.413358
20
1
30
0
70
32
0
VERTEX
8
0
62
255
10
12.179144
20
1
30
0
70
32
0
VERTEX
8
0
62
255
10
11.944929
20
1
30
0
70
32
0
VERTEX
8
0
62
255
10
11.710715
20
1
30
0
70
32
0
VERTEX
8
0
62
255
10
11.476501
20
1
30
0
70
32
0
VERTEX
8
0
62
255
10
11.242286
20
1
30
0
70
32
0
VERTEX
8
0
62
255
10
11.008072
20
1
30
0
70
32
0
VERTEX
8
0
62
255
10
10.773858
20
1
30
0
70
32
0
VERTEX
8
0
62
255
10
10.539644
20
1
30
0
70
32
0
VERTEX
8
0
62
255
10
10.305429
20
1
30
0
70
32
0
VERTEX
8
0
62
255
10
10.071215
20
1
30
0
70
32
0
VERTEX
8
0
62
255
10
9.8370006
20
1
30
0
70
32
0
VERTEX
8
0
62
255
10
9.6027863
20
1
30
0
70
32
0
VERTEX
8
0
62
255
10
9.368572
20
1
30
0
70
32
0
VERTEX
8
0
62
255
10
9.1343577
20
1
30
0
70
32
0
VERTEX
8
0
62
255
10
8.9001434
20
1
30
0
70
32
0
VERTEX
8
0
62
255
10
8.6659291
20
1
30
0
70
32
0
VERTEX
8
0
62
255
10
8.4317148
20
1
30
0
70
32
0
VERTEX
8
0
62
255
10
8.1975005
20
1
30
0
70
32
0
VERTEX
8
0
62
255
10
7.9632862
20
1
30
0
70
32
0
VERTEX
8
0
62
255
10
7.7290719
20
1
30
0
70
32
0
VERTEX
8
0
62
255
10
7.4948576
20
1
30
0
70
32
0
VERTEX
8
0
62
255
10
7.2606433
20
1
30
0
70
32
0
VERTEX
8
0
62
255
10
7.026429
20
1
30
0
70
32
0
VERTEX
8
0
62
255
10
6.7922147
20
1
30
0
70
32
0
VERTEX
8
0
62
255
10
6.5580004
20
1
30
0
70
32
0
VERTEX
8
0
62
255
10
6.3237861
20
1
30
0
70
32
0
VERTEX
8
0
62
255
10
6.0895718
20
1
30
0
70
32
0
VERTEX
8
0
62
255
10
5.8553575
20
1
30
0
70
32
0
VERTEX
8
0
62
255
10
5.6211432
20
1
30
0
70
32
0
VERTEX
8
0
62
255
10
5.3869289
20
1
30
0
70
32
0
VERTEX
8
0
62
255
10
5.1527146
20
1
30
0
70
32
0
VERTEX
8
0
62
255
10
4.9185003
20
1
30
0
70
32
0
VERTEX
8
0
62
255
10
4.684286
20
1
30
0
70
32
0
VERTEX
8
0
62
255
10
4.4500717
20
1
30
0
70
32
0
VERTEX
8
0
62
255
10
4.2158574
20
1
30
0
70
32
0
VERTEX
8
0
62
255
10
3.9816431
20
1
30
0
70
32
0
VERTEX
8
0
62
255
10
3.7474288
20
1
30
0
70
32
0
VERTEX
8
0
62
255
10
3.5132145
20
1
30
0
70
32
0
VERTEX
8
0
62
255
10
3.2790002
20
1
30
0
70
32
0
VERTEX
8
0
62
255
10
3.0447859
20
1
30
0
70
32
0
VERTEX
8
0
62
255
10
2.8105716
20
1
30
0
70
32
0
VERTEX
8
0
62
255
10
2.5763573
20
1
30
0
70
32
0
VERTEX
8
0
62
255
10
2.342143
20
1
30
0
70
32
0
VERTEX
8
0
62
255
10
2.1079287
20
1
30
0
70
32
0
VERTEX
8
0
62
255
10
1.8737144
20
1
30
0
70
32
0
VERTEX
8
0
62
255
10
1.6395001
20
1
30
0
70
32
0
VERTEX
8
0
62
255
10
1.4052858
20
1
30
0
70
32
0
VERTEX
8
0
62
255
10
1.1710715
20
1
30
0
70
32
0
VERTEX
8
0
62
255
10
0.9368572
20
1
30
0
70
32
0
VERTEX
8
0
62
255
10
0.7026429
20
1
30
0
70
32
0
VERTEX
8
0
62
255
10
0.4684286
20
1
30
0
70
32
0
VERTEX
8
0
62
255
10
0.2342143
20
1
30
0
70
32
0
VERTEX
8
0
62
255
10
0
20
1
30
0
70
32
0
SEQEND
8
0
0
POLYLINE
8
0
62
255
66
1
10
0
20
0
30
0
70
8
0
VERTEX
8
0
62
255
10
0
20
1
30
0
70
32
0
VERTEX
8
0
62
255
10
-0
20
0.98989899
30
0
70
32
0
VERTEX
8
0
62
255
10
-0
20
0.97979798
30
0
70
32
0
VERTEX
8
0
62
255
10
-0
20
0.96969697
30
0
70
32
0
VERTEX
8
0
62
255
10
-0
20
0.95959596
30
0
70
32
0
VERTEX
8
0
62
255
10
-0
20
0.94949495
30
0
70
32
0
VERTEX
8
0
62
255
10
-0
20
0.93939394
30
0
70
32
0
VERTEX
8
0
62
255
10
-0
20
0.92929293
30
0
70
32
0
VERTEX
8
0
62
255
10
-0
20
0.91919192
30
0
70
32
0
VERTEX
8
0
62
255
10
-0
20
0.90909091
30
0
70
32
0
VERTEX
8
0
62
255
10
-0
20
0.8989899
30
0
70
32
0
VERTEX
8
0
62
255
10
-0
20
0.88888889
30
0
70
32
0
VERTEX
8
0
62
255
10
-0
20
0.87878788
30
0
70
32
0
VERTEX
8
0
62
255
10
-0
20
0.86868687
30
0
70
32
0
VERTEX
8
0
62
255
10
-0
20
0.85858586
30
0
70
32
0
VERTEX
8
0
62
255
10
-0
20
0.84848485
30
0
70
32
0
VERTEX
8
0
62
255
10
-0
20
0.83838384
30
0
70
32
0
VERTEX
8
0
62
255
10
-0
20
0.82828283
30
0
70
32
0
VERTEX
8
0
62
255
10
-0
20
0.81818182
30
0
70
32
0
VERTEX
8
0
62
255
10
-0
20
0.80808081
30
0
70
32
0
VERTEX
8
0
62
255
10
-0
20
0.7979798
30
0
70
32
0
VERTEX
8
0
62
255
10
-0
20
0.78787879
30
0
70
32
0
VERTEX
8
0
62
255
10
-0
20
0.77777778
30
0
70
32
0
VERTEX
8
0
62
255
10
-0
20
0.76767677
30
0
70
32
0
VERTEX
8
0
62
255
10
-0
20
0.75757576
30
0
70
32
0
VERTEX
8
0
62
255
10
-0
20
0.74747475
30
0
70
32
0
VERTEX
8
0
62
255
10
-0
20
0.73737374
30
0
70
32
0
VERTEX
8
0
62
255
10
-0
20
0.72727273
30
0
70
32
0
VERTEX
8
0
62
255
10
-0
20
0.71717172
30
0
70
32
0
VERTEX
8
0
62
255
10
-0
20
0.70707071
30
0
70
32
0
VERTEX
8
0
62
255
10
-0
20
0.6969697
30
0
70
32
0
VERTEX
8
0
62
255
10
-0
20
0.68686869
30
0
70
32
0
VERTEX
8
0
62
255
10
-0
20
0.67676768
30
0
70
32
0
VERTEX
8
0
62
255
10
-0
20
0.66666667
30
0
70
32
0
VERTEX
8
0
62
255
10
-0
20
0.65656566
30
0
70
32
0
VERTEX
8
0
62
255
10
-0
20
0.64646465
30
0
70
32
0
VERTEX
8
0
62
255
10
-0
20
0.63636364
30
0
70
32
0
VERTEX
8
0
62
255
10
-0
20
0.62626263
30
0
70
32
0
VERTEX
8
0
62
255
10
-0
20
0.61616162
30
0
70
32
0
VERTEX
8
0
62
255
10
-0
20
0.60606061
30
0
70
32
0
VERTEX
8
0
62
255
10
-0
20
0.5959596
30
0
70
32
0
VERTEX
8
0
62
255
10
-0
20
0.58585859
30
0
70
32
0
VERTEX
8
0
62
255
10
-0
20
0.57575758
30
0
70
32
0
VERTEX
8
0
62
255
10
-0
20
0.56565657
30
0
70
32
0
VERTEX
8
0
62
255
10
-0
20
0.55555556
30
0
70
32
0
VERTEX
8
0
62
255
10
-0
20
0.54545455
30
0
70
32
0
VERTEX
8
0
62
255
10
-0
20
0.53535354
30
0
70
32
0
VERTEX
8
0
62
255
10
-0
20
0.52525253
30
0
70
32
0
VERTEX
8
0
62
255
10
-0
20
0.51515152
30
0
70
32
0
VERTEX
8
0
62
255
10
-0
20
0.50505051
30
0
70
32
0
VERTEX
8
0
62
255
10
0
20
0.49494949
30
0
70
32
0
VERTEX
8
0
62
255
10
0
20
0.48484848
30
0
70
32
0
VERTEX
8
0
62
255
10
0
20
0.47474747
30
0
70
32
0
VERTEX
8
0
62
255
10
0
20
0.46464646
30
0
70
32
0
VERTEX
8
0
62
255
10
0
20
0.45454545
30
0
70
32
0
VERTEX
8
0
62
255
10
0
20
0.44444444
30
0
70
32
0
VERTEX
8
0
62
255
10
0
20
0.43434343
30
0
70
32
0
VERTEX
8
0
62
255
10
0
20
0.42424242
30
0
70
32
0
VERTEX
8
0
62
255
10
0
20
0.41414141
30
0
70
32
0
VERTEX
8
0
62
255
10
0
20
0.4040404
30
0
70
32
0
VERTEX
8
0
62
255
10
0
20
0.39393939
30
0
70
32
0
VERTEX
8
0
62
255
10
0
20
0.38383838
30
0
70
32
0
VERTEX
8
0
62
255
10
0
20
0.37373737
30
0
70
32
0
VERTEX
8
0
62
255
10
0
20
0.36363636
30
0
70
32
0
VERTEX
8
0
62
255
10
0
20
0.35353535
30
0
70
32
0
VERTEX
8
0
62
255
10
0
20
0.34343434
30
0
70
32
0
VERTEX
8
0
62
255
10
0
20
0.33333333
30
0
70
32
0
VERTEX
8
0
62
255
10
0
20
0.32323232
30
0
70
32
0
VERTEX
8
0
62
255
10
0
20
0.31313131
30
0
70
32
0
VERTEX
8
0
62
255
10
0
20
0.3030303
30
0
70
32
0
VERTEX
8
0
62
255
10
0
20
0.29292929
30
0
70
32
0
VERTEX
8
0
62
255
10
0
20
0.28282828
30
0
70
32
0
VERTEX
8
0
62
255
10
0
20
0.27272727
30
0
70
32
0
VERTEX
8
0
62
255
10
0
20
0.26262626
30
0
70
32
0
VERTEX
8
0
62
255
10
0
20
0.25252525
30
0
70
32
0
VERTEX
8
0
62
255
10
0
20
0.24242424
30
0
70
32
0
VERTEX
8
0
62
255
10
0
20
0.23232323
30
0
70
32
0
VERTEX
8
0
62
255
10
0
20
0.22222222
30
0
70
32
0
VERTEX
8
0
62
255
10
0
20
0.21212121
30
0
70
32
0
VERTEX
8
0
62
255
10
0
20
0.2020202
30
0
70
32
0
VERTEX
8
0
62
255
10
0
20
0.19191919
30
0
70
32
0
VERTEX
8
0
62
255
10
0
20
0.18181818
30
0
70
32
0
VERTEX
8
0
62
255
10
0
20
0.17171717
30
0
70
32
0
VERTEX
8
0
62
255
10
0
20
0.16161616
30
0
70
32
0
VERTEX
8
0
62
255
10
0
20
0.15151515
30
0
70
32
0
VERTEX
8
0
62
255
10
0
20
0.14141414
30
0
70
32
0
VERTEX
8
0
62
255
10
0
20
0.13131313
30
0
70
32
0
VERTEX
8
0
62
255
10
0
20
0.12121212
30
0
70
32
0
VERTEX
8
0
62
255
10
0
20
0.11111111
30
0
70
32
0
VERTEX
8
0
62
255
10
0
20
0.1010101
30
0
70
32
0
VERTEX
8
0
62
255
10
0
20
0.090909091
30
0
70
32
0
VERTEX
8
0
62
255
10
0
20
0.080808081
30
0
70
32
0
VERTEX
8
0
62
255
10
0
20
0.070707071
30
0
70
32
0
VERTEX
8
0
62
255
10
0
20
0.060606061
30
0
70
32
0
VERTEX
8
0
62
255
10
0
20
0.050505051
30
0
70
32
0
VERTEX
8
0
62
255
10
0
20
0.04040404
30
0
70
32
0
VERTEX
8
0
62
255
10
0
20
0.03030303
30
0
70
32
0
VERTEX
8
0
62
255
10
0
20
0.02020202
30
0
70
32
0
VERTEX
8
0
62
255
10
0
20
0.01010101
30
0
70
32
0
VERTEX
8
0
62
255
10
0
20
0
30
0
70
32
0
SEQEND
8
0
0
POLYLINE
8
0
62
255
66
1
10
0
20
0
30
0
70
8
0
VERTEX
8
0
62
255
10
0
20
117.8
30
0
70
32
0
VERTEX
8
0
62
255
10
0.2342143
20
117.8
30
0
70
32
0
VERTEX
8
0
62
255
10
0.4684286
20
117.8
30
0
70
32
0
VERTEX
8
0
62
255
10
0.7026429
20
117.8
30
0
70
32
0
VERTEX
8
0
62
255
10
0.9368572
20
117.8
30
0
70
32
0
VERTEX
8
0
62
255
10
1.1710715
20
117.8
30
0
70
32
0
VERTEX
8
0
62
255
10
1.4052858
20
117.8
30
0
70
32
0
VERTEX
8
0
62
255
10
1.6395001
20
117.8
30
0
70
32
0
VERTEX
8
0
62
255
10
1.8737144
20
117.8
30
0
70
32
0
VERTEX
8
0
62
255
10
2.1079287
20
117.8
30
0
70
32
0
VERTEX
8
0
62
255
10
2.342143
20
117.8
30
0
70
32
0
VERTEX
8
0
62
255
10
2.5763573
20
117.8
30
0
70
32
0
VERTEX
8
0
62
255
10
2.8105716
20
117.8
30
0
70
32
0
VERTEX
8
0
62
255
10
3.0447859
20
117.8
30
0
70
32
0
VERTEX
8
0
62
255
10
3.2790002
20
117.8
30
0
70
32
0
VERTEX
8
0
62
255
10
3.5132145
20
117.8
30
0
70
32
0
VERTEX
8
0
62
255
10
3.7474288
20
117.8
30
0
70
32
0
VERTEX
8
0
62
255
10
3.9816431
20
117.8
30
0
70
32
0
VERTEX
8
0
62
255
10
4.2158574
20
117.8
30
0
70
32
0
VERTEX
8
0
62
255
10
4.4500717
20
117.8
30
0
70
32
0
VERTEX
8
0
62
255
10
4.684286
20
117.8
30
0
70
32
0
VERTEX
8
0
62
255
10
4.9185003
20
117.8
30
0
70
32
0
VERTEX
8
0
62
255
10
5.1527146
20
117.8
30
0
70
32
0
VERTEX
8
0
62
255
10
5.3869289
20
117.8
30
0
70
32
0
VERTEX
8
0
62
255
10
5.6211432
20
117.8
30
0
70
32
0
VERTEX
8
0
62
255
10
5.8553575
20
117.8
30
0
70
32
0
VERTEX
8
0
62
255
10
6.0895718
20
117.8
30
0
70
32
0
VERTEX
8
0
62
255
10
6.3237861
20
117.8
30
0
70
32
0
VERTEX
8
0
62
255
10
6.5580004
20
117.8
30
0
70
32
0
VERTEX
8
0
62
255
10
6.7922147
20
117.8
30
0
70
32
0
VERTEX
8
0
62
255
10
7.026429
20
117.8
30
0
70
32
0
VERTEX
8
0
62
255
10
7.2606433
20
117.8
30
0
70
32
0
VERTEX
8
0
62
255
10
7.4948576
20
117.8
30
0
70
32
0
VERTEX
8
0
62
255
10
7.7290719
20
117.8
30
0
70
32
0
VERTEX
8
0
62
255
10
7.9632862
20
117.8
30
0
70
32
0
VERTEX
8
0
62
255
10
8.1975005
20
117.8
30
0
70
32
0
VERTEX
8
0
62
255
10
8.4317148
20
117.8
30
0
70
32
0
VERTEX
8
0
62
255
10
8.6659291
20
117.8
30
0
70
32
0
VERTEX
8
0
62
255
10
8.9001434
20
117.8
30
0
70
32
0
VERTEX
8
0
62
255
10
9.1343577
20
117.8
30
0
70
32
0
VERTEX
8
0
62
255
10
9.368572
20
117.8
30
0
70
32
0
VERTEX
8
0
62
255
10
9.6027863
20
117.8
30
0
70
32
0
VERTEX
8
0
62
255
10
9.8370006
20
117.8
30
0
70
32
0
VERTEX
8
0
62
255
10
10.071215
20
117.8
30
0
70
32
0
VERTEX
8
0
62
255
10
10.305429
20
117.8
30
0
70
32
0
VERTEX
8
0
62
255
10
10.539644
20
117.8
30
0
70
32
0
VERTEX
8
0
62
255
10
10.773858
20
117.8
30
0
70
32
0
VERTEX
8
0
62
255
10
11.008072
20
117.8
30
0
70
32
0
VERTEX
8
0
62
255
10
11.242286
20
117.8
30
0
70
32
0
VERTEX
8
0
62
255
10
11.476501
20
117.8
30
0
70
32
0
VERTEX
8
0
62
255
10
11.710715
20
117.8
30
0
70
32
0
VERTEX
8
0
62
255
10
11.944929
20
117.8
30
0
70
32
0
VERTEX
8
0
62
255
10
12.179144
20
117.8
30
0
70
32
0
VERTEX
8
0
62
255
10
12.413358
20
117.8
30
0
70
32
0
VERTEX
8
0
62
255
10
12.647572
20
117.8
30
0
70
32
0
VERTEX
8
0
62
255
10
12.881787
20
117.8
30
0
70
32
0
VERTEX
8
0
62
255
10
13.116001
20
117.8
30
0
70
32
0
VERTEX
8
0
62
255
10
13.350215
20
117.8
30
0
70
32
0
VERTEX
8
0
62
255
10
13.584429
20
117.8
30
0
70
32
0
VERTEX
8
0
62
255
10
13.818644
20
117.8
30
0
70
32
0
VERTEX
8
0
62
255
10
14.052858
20
117.8
30
0
70
32
0
VERTEX
8
0
62
255
10
14.287072
20
117.8
30
0
70
32
0
VERTEX
8
0
62
255
10
14.521287
20
117.8
30
0
70
32
0
VERTEX
8
0
62
255
10
14.755501
20
117.8
30
0
70
32
0
VERTEX
8
0
62
255
10
14.989715
20
117.8
30
0
70
32
0
VERTEX
8
0
62
255
10
15.22393
20
117.8
30
0
70
32
0
VERTEX
8
0
62
255
10
15.458144
20
117.8
30
0
70
32
0
VERTEX
8
0
62
255
10
15.692358
20
117.8
30
0
70
32
0
VERTEX
8
0
62
255
10
15.926572
20
117.8
30
0
70
32
0
VERTEX
8
0
62
255
10
16.160787
20
117.8
30
0
70
32
0
VERTEX
8
0
62
255
10
16.395001
20
117.8
30
0
70
32
0
VERTEX
8
0
62
255
10
16.629215
20
117.8
30
0
70
32
0
VERTEX
8
0
62
255
10
16.86343
20
117.8
30
0
70
32
0
VERTEX
8
0
62
255
10
17.097644
20
117.8
30
0
70
32
0
VERTEX
8
0
62
255
10
17.331858
20
117.8
30
0
70
32
0
VERTEX
8
0
62
255
10
17.566073
20
117.8
30
0
70
32
0
VERTEX
8
0
62
255
10
17.800287
20
117.8
30
0
70
32
0
VERTEX
8
0
62
255
10
18.034501
20
117.8
30
0
70
32
0
VERTEX
8
0
62
255
10
18.268715
20
117.8
30
0
70
32
0
VERTEX
8
0
62
255
10
18.50293
20
117.8
30
0
70
32
0
VERTEX
8
0
62
255
10
18.737144
20
117.8
30
0
70
32
0
VERTEX
8
0
62
255
10
18.971358
20
117.8
30
0
70
32
0
VERTEX
8
0
62
255
10
19.205573
20
117.8
30
0
70
32
0
VERTEX
8
0
62
255
10
19.439787
20
117.8
30
0
70
32
0
VERTEX
8
0
62
255
10
19.674001
20
117.8
30
0
70
32
0
VERTEX
8
0
62
255
10
19.908216
20
117.8
30
0
70
32
0
VERTEX
8
0
62
255
10
20.14243
20
117.8
30
0
70
32
0
VERTEX
8
0
62
255
10
20.376644
20
117.8
30
0
70
32
0
VERTEX
8
0
62
255
10
20.610858
20
117.8
30
0
70
32
0
VERTEX
8
0
62
255
10
20.845073
20
117.8
30
0
70
32
0
VERTEX
8
0
62
255
10
21.079287
20
117.8
30
0
70
32
0
VERTEX
8
0
62
255
10
21.313501
20
117.8
30
0
70
32
0
VERTEX
8
0
62
255
10
21.547716
20
117.8
30
0
70
32
0
VERTEX
8
0
62
255
10
21.78193
20
117.8
30
0
70
32
0
VERTEX
8
0
62
255
10
22.016144
20
117.8
30
0
70
32
0
VERTEX
8
0
62
255
10
22.250359
20
117.8
30
0
70
32
0
VERTEX
8
0
62
255
10
22.484573
20
117.8
30
0
70
32
0
VERTEX
8
0
62
255
10
22.718787
20
117.8
30
0
70
32
0
VERTEX
8
0
62
255
10
22.953001
20
117.8
30
0
70
32
0
VERTEX
8
0
62
255
10
23.187216
20
117.8
30
0
70
32
0
SEQEND
8
0
0
POLYLINE
8
0
62
255
66
1
10
0
20
0
30
0
70
8
0
VERTEX
8
0
62
255
10
23.187216
20
117.8
30
0
70
32
0
VERTEX
8
0
62
255
10
23.187216
20
117.8101
30
0
70
32
0
VERTEX
8
0
62
255
10
23.187216
20
117.8202
30
0
70
32
0
VERTEX
8
0
62
255
10
23.187216
20
117.8303
30
0
70
32
0
VERTEX
8
0
62
255
10
23.187216
20
117.8404
30
0
70
32
0
VERTEX
8
0
62
255
10
23.187216
20
117.85051
30
0
70
32
0
VERTEX
8
0
62
255
10
23.187216
20
117.86061
30
0
70
32
0
VERTEX
8
0
62
255
10
23.187216
20
117.87071
30
0
70
32
0
VERTEX
8
0
62
255
10
23.187216
20
117.88081
30
0
70
32
0
VERTEX
8
0
62
255
10
23.187216
20
117.89091
30
0
70
32
0
VERTEX
8
0
62
255
10
23.187216
20
117.90101
30
0
70
32
0
VERTEX
8
0
62
255
10
23.187216
20
117.91111
30
0
70
32
0
VERTEX
8
0
62
255
10
23.187216
20
117.92121
30
0
70
32
0
VERTEX
8
0
62
255
10
23.187216
20
117.93131
30
0
70
32
0
VERTEX
8
0
62
255
10
23.187216
20
117.94141
30
0
70
32
0
VERTEX
8
0
62
255
10
23.187216
20
117.95152
30
0
70
32
0
VERTEX
8
0
62
255
10
23.187216
20
117.96162
30
0
70
32
0
VERTEX
8
0
62
255
10
23.187216
20
117.97172
30
0
70
32
0
VERTEX
8
0
62
255
10
23.187216
20
117.98182
30
0
70
32
0
VERTEX
8
0
62
255
10
23.187216
20
117.99192
30
0
70
32
0
VERTEX
8
0
62
255
10
23.187216
20
118.00202
30
0
70
32
0
VERTEX
8
0
62
255
10
23.187216
20
118.01212
30
0
70
32
0
VERTEX
8
0
62
255
10
23.187216
20
118.02222
30
0
70
32
0
VERTEX
8
0
62
255
10
23.187216
20
118.03232
30
0
70
32
0
VERTEX
8
0
62
255
10
23.187216
20
118.04242
30
0
70
32
0
VERTEX
8
0
62
255
10
23.187216
20
118.05253
30
0
70
32
0
VERTEX
8
0
62
255
10
23.187216
20
118.06263
30
0
70
32
0
VERTEX
8
0
62
255
10
23.187216
20
118.07273
30
0
70
32
0
VERTEX
8
0
62
255
10
23.187216
20
118.08283
30
0
70
32
0
VERTEX
8
0
62
255
10
23.187216
20
118.09293
30
0
70
32
0
VERTEX
8
0
62
255
10
23.187216
20
118.10303
30
0
70
32
0
VERTEX
8
0
62
255
10
23.187216
20
118.11313
30
0
70
32
0
VERTEX
8
0
62
255
10
23.187216
20
118.12323
30
0
70
32
0
VERTEX
8
0
62
255
10
23.187216
20
118.13333
30
0
70
32
0
VERTEX
8
0
62
255
10
23.187216
20
118.14343
30
0
70
32
0
VERTEX
8
0
62
255
10
23.187216
20
118.15354
30
0
70
32
0
VERTEX
8
0
62
255
10
23.187216
20
118.16364
30
0
70
32
0
VERTEX
8
0
62
255
10
23.187216
20
118.17374
30
0
70
32
0
VERTEX
8
0
62
255
10
23.187216
20
118.18384
30
0
70
32
0
VERTEX
8
0
62
255
10
23.187216
20
118.19394
30
0
70
32
0
VERTEX
8
0
62
255
10
23.187216
20
118.20404
30
0
70
32
0
VERTEX
8
0
62
255
10
23.187216
20
118.21414
30
0
70
32
0
VERTEX
8
0
62
255
10
23.187216
20
118.22424
30
0
70
32
0
VERTEX
8
0
62
255
10
23.187216
20
118.23434
30
0
70
32
0
VERTEX
8
0
62
255
10
23.187216
20
118.24444
30
0
70
32
0
VERTEX
8
0
62
255
10
23.187216
20
118.25455
30
0
70
32
0
VERTEX
8
0
62
255
10
23.187216
20
118.26465
30
0
70
32
0
VERTEX
8
0
62
255
10
23.187216
20
118.27475
30
0
70
32
0
VERTEX
8
0
62
255
10
23.187216
20
118.28485
30
0
70
32
0
VERTEX
8
0
62
255
10
23.187216
20
118.29495
30
0
70
32
0
VERTEX
8
0
62
255
10
23.187216
20
118.30505
30
0
70
32
0
VERTEX
8
0
62
255
10
23.187216
20
118.31515
30
0
70
32
0
VERTEX
8
0
62
255
10
23.187216
20
118.32525
30
0
70
32
0
VERTEX
8
0
62
255
10
23.187216
20
118.33535
30
0
70
32
0
VERTEX
8
0
62
255
10
23.187216
20
118.34545
30
0
70
32
0
VERTEX
8
0
62
255
10
23.187216
20
118.35556
30
0
70
32
0
VERTEX
8
0
62
255
10
23.187216
20
118.36566
30
0
70
32
0
VERTEX
8
0
62
255
10
23.187216
20
118.37576
30
0
70
32
0
VERTEX
8
0
62
255
10
23.187216
20
118.38586
30
0
70
32
0
VERTEX
8
0
62
255
10
23.187216
20
118.39596
30
0
70
32
0
VERTEX
8
0
62
255
10
23.187216
20
118.40606
30
0
70
32
0
VERTEX
8
0
62
255
10
23.187216
20
118.41616
30
0
70
32
0
VERTEX
8
0
62
255
10
23.187216
20
118.42626
30
0
70
32
0
VERTEX
8
0
62
255
10
23.187216
20
118.43636
30
0
70
32
0
VERTEX
8
0
62
255
10
23.187216
20
118.44646
30
0
70
32
0
VERTEX
8
0
62
255
10
23.187216
20
118.45657
30
0
70
32
0
VERTEX
8
0
62
255
10
23.187216
20
118.46667
30
0
70
32
0
VERTEX
8
0
62
255
10
23.187216
20
118.47677
30
0
70
32
0
VERTEX
8
0
62
255
10
23.187216
20
118.48687
30
0
70
32
0
VERTEX
8
0
62
255
10
23.187216
20
118.49697
30
0
70
32
0
VERTEX
8
0
62
255
10
23.187216
20
118.50707
30
0
70
32
0
VERTEX
8
0
62
255
10
23.187216
20
118.51717
30
0
70
32
0
VERTEX
8
0
62
255
10
23.187216
20
118.52727
30
0
70
32
0
VERTEX
8
0
62
255
10
23.187216
20
118.53737
30
0
70
32
0
VERTEX
8
0
62
255
10
23.187216
20
118.54747
30
0
70
32
0
VERTEX
8
0
62
255
10
23.187216
20
118.55758
30
0
70
32
0
VERTEX
8
0
62
255
10
23.187216
20
118.56768
30
0
70
32
0
VERTEX
8
0
62
255
10
23.187216
20
118.57778
30
0
70
32
0
VERTEX
8
0
62
255
10
23.187216
20
118.58788
30
0
70
32
0
VERTEX
8
0
62
255
10
23.187216
20
118.59798
30
0
70
32
0
VERTEX
8
0
62
255
10
23.187216
20
118.60808
30
0
70
32
0
VERTEX
8
0
62
255
10
23.187216
20
118.61818
30
0
70
32
0
VERTEX
8
0
62
255
10
23.187216
20
118.62828
30
0
70
32
0
VERTEX
8
0
62
255
10
23.187216
20
118.63838
30
0
70
32
0
VERTEX
8
0
62
255
10
23.187216
20
118.64848
30
0
70
32
0
VERTEX
8
0
62
255
10
23.187216
20
118.65859
30
0
70
32
0
VERTEX
8
0
62
255
10
23.187216
20
118.66869
30
0
70
32
0
VERTEX
8
0
62
255
10
23.187216
20
118.67879
30
0
70
32
0
VERTEX
8
0
62
255
10
23.187216
20
118.68889
30
0
70
32
0
VERTEX
8
0
62
255
10
23.187216
20
118.69899
30
0
70
32
0
VERTEX
8
0
62
255
10
23.187216
20
118.70909
30
0
70
32
0
VERTEX
8
0
62
255
10
23.187216
20
118.71919
30
0
70
32
0
VERTEX
8
0
62
255
10
23.187216
20
118.72929
30
0
70
32
0
VERTEX
8
0
62
255
10
23.187216
20
118.73939
30
0
70
32
0
VERTEX
8
0
62
255
10
23.187216
20
118.74949
30
0
70
32
0
VERTEX
8
0
62
255
10
23.187216
20
118.7596
30
0
70
32
0
VERTEX
8
0
62
255
10
23.187216
20
118.7697
30
0
70
32
0
VERTEX
8
0
62
255
10
23.187216
20
118.7798
30
0
70
32
0
VERTEX
8
0
62
255
10
23.187216
20
118.7899
30
0
70
32
0
VERTEX
8
0
62
255
10
23.187216
20
118.8
30
0
70
32
0
SEQEND
8
0
0
POLYLINE
8
0
62
255
66
1
10
0
20
0
30
0
70
8
0
VERTEX
8
0
62
255
10
23.187216
20
118.8
30
0
70
32
0
VERTEX
8
0
62
255
10
22.953001
20
118.8
30
0
70
32
0
VERTEX
8
0
62
255
10
22.718787
20
118.8
30
0
70
32
0
VERTEX
8
0
62
255
10
22.484573
20
118.8
30
0
70
32
0
VERTEX
8
0
62
255
10
22.250359
20
118.8
30
0
70
32
0
VERTEX
8
0
62
255
10
22.016144
20
118.8
30
0
70
32
0
VERTEX
8
0
62
255
10
21.78193
20
118.8
30
0
70
32
0
VERTEX
8
0
62
255
10
21.547716
20
118.8
30
0
70
32
0
VERTEX
8
0
62
255
10
21.313501
20
118.8
30
0
70
32
0
VERTEX
8
0
62
255
10
21.079287
20
118.8
30
0
70
32
0
VERTEX
8
0
62
255
10
20.845073
20
118.8
30
0
70
32
0
VERTEX
8
0
62
255
10
20.610858
20
118.8
30
0
70
32
0
VERTEX
8
0
62
255
10
20.376644
20
118.8
30
0
70
32
0
VERTEX
8
0
62
255
10
20.14243
20
118.8
30
0
70
32
0
VERTEX
8
0
62
255
10
19.908216
20
118.8
30
0
70
32
0
VERTEX
8
0
62
255
10
19.674001
20
118.8
30
0
70
32
0
VERTEX
8
0
62
255
10
19.439787
20
118.8
30
0
70
32
0
VERTEX
8
0
62
255
10
19.205573
20
118.8
30
0
70
32
0
VERTEX
8
0
62
255
10
18.971358
20
118.8
30
0
70
32
0
VERTEX
8
0
62
255
10
18.737144
20
118.8
30
0
70
32
0
VERTEX
8
0
62
255
10
18.50293
20
118.8
30
0
70
32
0
VERTEX
8
0
62
255
10
18.268715
20
118.8
30
0
70
32
0
VERTEX
8
0
62
255
10
18.034501
20
118.8
30
0
70
32
0
VERTEX
8
0
62
255
10
17.800287
20
118.8
30
0
70
32
0
VERTEX
8
0
62
255
10
17.566073
20
118.8
30
0
70
32
0
VERTEX
8
0
62
255
10
17.331858
20
118.8
30
0
70
32
0
VERTEX
8
0
62
255
10
17.097644
20
118.8
30
0
70
32
0
VERTEX
8
0
62
255
10
16.86343
20
118.8
30
0
70
32
0
VERTEX
8
0
62
255
10
16.629215
20
118.8
30
0
70
32
0
VERTEX
8
0
62
255
10
16.395001
20
118.8
30
0
70
32
0
VERTEX
8
0
62
255
10
16.160787
20
118.8
30
0
70
32
0
VERTEX
8
0
62
255
10
15.926572
20
118.8
30
0
70
32
0
VERTEX
8
0
62
255
10
15.692358
20
118.8
30
0
70
32
0
VERTEX
8
0
62
255
10
15.458144
20
118.8
30
0
70
32
0
VERTEX
8
0
62
255
10
15.22393
20
118.8
30
0
70
32
0
VERTEX
8
0
62
255
10
14.989715
20
118.8
30
0
70
32
0
VERTEX
8
0
62
255
10
14.755501
20
118.8
30
0
70
32
0
VERTEX
8
0
62
255
10
14.521287
20
118.8
30
0
70
32
0
VERTEX
8
0
62
255
10
14.287072
20
118.8
30
0
70
32
0
VERTEX
8
0
62
255
10
14.052858
20
118.8
30
0
70
32
0
VERTEX
8
0
62
255
10
13.818644
20
118.8
30
0
70
32
0
VERTEX
8
0
62
255
10
13.584429
20
118.8
30
0
70
32
0
VERTEX
8
0
62
255
10
13.350215
20
118.8
30
0
70
32
0
VERTEX
8
0
62
255
10
13.116001
20
118.8
30
0
70
32
0
VERTEX
8
0
62
255
10
12.881787
20
118.8
30
0
70
32
0
VERTEX
8
0
62
255
10
12.647572
20
118.8
30
0
70
32
0
VERTEX
8
0
62
255
10
12.413358
20
118.8
30
0
70
32
0
VERTEX
8
0
62
255
10
12.179144
20
118.8
30
0
70
32
0
VERTEX
8
0
62
255
10
11.944929
20
118.8
30
0
70
32
0
VERTEX
8
0
62
255
10
11.710715
20
118.8
30
0
70
32
0
VERTEX
8
0
62
255
10
11.476501
20
118.8
30
0
70
32
0
VERTEX
8
0
62
255
10
11.242286
20
118.8
30
0
70
32
0
VERTEX
8
0
62
255
10
11.008072
20
118.8
30
0
70
32
0
VERTEX
8
0
62
255
10
10.773858
20
118.8
30
0
70
32
0
VERTEX
8
0
62
255
10
10.539644
20
118.8
30
0
70
32
0
VERTEX
8
0
62
255
10
10.305429
20
118.8
30
0
70
32
0
VERTEX
8
0
62
255
10
10.071215
20
118.8
30
0
70
32
0
VERTEX
8
0
62
255
10
9.8370006
20
118.8
30
0
70
32
0
VERTEX
8
0
62
255
10
9.6027863
20
118.8
30
0
70
32
0
VERTEX
8
0
62
255
10
9.368572
20
118.8
30
0
70
32
0
VERTEX
8
0
62
255
10
9.1343577
20
118.8
30
0
70
32
0
VERTEX
8
0
62
255
10
8.9001434
20
118.8
30
0
70
32
0
VERTEX
8
0
62
255
10
8.6659291
20
118.8
30
0
70
32
0
VERTEX
8
0
62
255
10
8.4317148
20
118.8
30
0
70
32
0
VERTEX
8
0
62
255
10
8.1975005
20
118.8
30
0
70
32
0
VERTEX
8
0
62
255
10
7.9632862
20
118.8
30
0
70
32
0
VERTEX
8
0
62
255
10
7.7290719
20
118.8
30
0
70
32
0
VERTEX
8
0
62
255
10
7.4948576
20
118.8
30
0
70
32
0
VERTEX
8
0
62
255
10
7.2606433
20
118.8
30
0
70
32
0
VERTEX
8
0
62
255
10
7.026429
20
118.8
30
0
70
32
0
VERTEX
8
0
62
255
10
6.7922147
20
118.8
30
0
70
32
0
VERTEX
8
0
62
255
10
6.5580004
20
118.8
30
0
70
32
0
VERTEX
8
0
62
255
10
6.3237861
20
118.8
30
0
70
32
0
VERTEX
8
0
62
255
10
6.0895718
20
118.8
30
0
70
32
0
VERTEX
8
0
62
255
10
5.8553575
20
118.8
30
0
70
32
0
VERTEX
8
0
62
255
10
5.6211432
20
118.8
30
0
70
32
0
VERTEX
8
0
62
255
10
5.3869289
20
118.8
30
0
70
32
0
VERTEX
8
0
62
255
10
5.1527146
20
118.8
30
0
70
32
0
VERTEX
8
0
62
255
10
4.9185003
20
118.8
30
0
70
32
0
VERTEX
8
0
62
255
10
4.684286
20
118.8
30
0
70
32
0
VERTEX
8
0
62
255
10
4.4500717
20
118.8
30
0
70
32
0
VERTEX
8
0
62
255
10
4.2158574
20
118.8
30
0
70
32
0
VERTEX
8
0
62
255
10
3.9816431
20
118.8
30
0
70
32
0
VERTEX
8
0
62
255
10
3.7474288
20
118.8
30
0
70
32
0
VERTEX
8
0
62
255
10
3.5132145
20
118.8
30
0
70
32
0
VERTEX
8
0
62
255
10
3.2790002
20
118.8
30
0
70
32
0
VERTEX
8
0
62
255
10
3.0447859
20
118.8
30
0
70
32
0
VERTEX
8
0
62
255
10
2.8105716
20
118.8
30
0
70
32
0
VERTEX
8
0
62
255
10
2.5763573
20
118.8
30
0
70
32
0
VERTEX
8
0
62
255
10
2.342143
20
118.8
30
0
70
32
0
VERTEX
8
0
62
255
10
2.1079287
20
118.8
30
0
70
32
0
VERTEX
8
0
62
255
10
1.8737144
20
118.8
30
0
70
32
0
VERTEX
8
0
62
255
10
1.6395001
20
118.8
30
0
70
32
0
VERTEX
8
0
62
255
10
1.4052858
20
118.8
30
0
70
32
0
VERTEX
8
0
62
255
10
1.1710715
20
118.8
30
0
70
32
0
VERTEX
8
0
62
255
10
0.9368572
20
118.8
30
0
70
32
0
VERTEX
8
0
62
255
10
0.7026429
20
118.8
30
0
70
32
0
VERTEX
8
0
62
255
10
0.4684286
20
118.8
30
0
70
32
0
VERTEX
8
0
62
255
10
0.2342143
20
118.8
30
0
70
32
0
VERTEX
8
0
62
255
10
0
20
118.8
30
0
70
32
0
SEQEND
8
0
0
POLYLINE
8
0
62
255
66
1
10
0
20
0
30
0
70
8
0
VERTEX
8
0
62
255
10
0
20
118.8
30
0
70
32
0
VERTEX
8
0
62
255
10
-0
20
118.7899
30
0
70
32
0
VERTEX
8
0
62
255
10
-0
20
118.7798
30
0
70
32
0
VERTEX
8
0
62
255
10
-0
20
118.7697
30
0
70
32
0
VERTEX
8
0
62
255
10
-0
20
118.7596
30
0
70
32
0
VERTEX
8
0
62
255
10
-0
20
118.74949
30
0
70
32
0
VERTEX
8
0
62
255
10
-0
20
118.73939
30
0
70
32
0
VERTEX
8
0
62
255
10
-0
20
118.72929
30
0
70
32
0
VERTEX
8
0
62
255
10
-0
20
118.71919
30
0
70
32
0
VERTEX
8
0
62
255
10
-0
20
118.70909
30
0
70
32
0
VERTEX
8
0
62
255
10
-0
20
118.69899
30
0
70
32
0
VERTEX
8
0
62
255
10
-0
20
118.68889
30
0
70
32
0
VERTEX
8
0
62
255
10
-0
20
118.67879
30
0
70
32
0
VERTEX
8
0
62
255
10
-0
20
118.66869
30
0
70
32
0
VERTEX
8
0
62
255
10
-0
20
118.65859
30
0
70
32
0
VERTEX
8
0
62
255
10
-0
20
118.64848
30
0
70
32
0
VERTEX
8
0
62
255
10
-0
20
118.63838
30
0
70
32
0
VERTEX
8
0
62
255
10
-0
20
118.62828
30
0
70
32
0
VERTEX
8
0
62
255
10
-0
20
118.61818
30
0
70
32
0
VERTEX
8
0
62
255
10
-0
20
118.60808
30
0
70
32
0
VERTEX
8
0
62
255
10
-0
20
118.59798
30
0
70
32
0
VERTEX
8
0
62
255
10
-0
20
118.58788
30
0
70
32
0
VERTEX
8
0
62
255
10
-0
20
118.57778
30
0
70
32
0
VERTEX
8
0
62
255
10
-0
20
118.56768
30
0
70
32
0
VERTEX
8
0
62
255
10
-0
20
118.55758
30
0
70
32
0
VERTEX
8
0
62
255
10
-0
20
118.54747
30
0
70
32
0
VERTEX
8
0
62
255
10
-0
20
118.53737
30
0
70
32
0
VERTEX
8
0
62
255
10
-0
20
118.52727
30
0
70
32
0
VERTEX
8
0
62
255
10
-0
20
118.51717
30
0
70
32
0
VERTEX
8
0
62
255
10
-0
20
118.50707
30
0
70
32
0
VERTEX
8
0
62
255
10
-0
20
118.49697
30
0
70
32
0
VERTEX
8
0
62
255
10
-0
20
118.48687
30
0
70
32
0
VERTEX
8
0
62
255
10
-0
20
118.47677
30
0
70
32
0
VERTEX
8
0
62
255
10
-0
20
118.46667
30
0
70
32
0
VERTEX
8
0
62
255
10
-0
20
118.45657
30
0
70
32
0
VERTEX
8
0
62
255
10
-0
20
118.44646
30
0
70
32
0
VERTEX
8
0
62
255
10
-0
20
118.43636
30
0
70
32
0
VERTEX
8
0
62
255
10
-0
20
118.42626
30
0
70
32
0
VERTEX
8
0
62
255
10
-0
20
118.41616
30
0
70
32
0
VERTEX
8
0
62
255
10
-0
20
118.40606
30
0
70
32
0
VERTEX
8
0
62
255
10
-0
20
118.39596
30
0
70
32
0
VERTEX
8
0
62
255
10
-0
20
118.38586
30
0
70
32
0
VERTEX
8
0
62
255
10
-0
20
118.37576
30
0
70
32
0
VERTEX
8
0
62
255
10
-0
20
118.36566
30
0
70
32
0
VERTEX
8
0
62
255
10
-0
20
118.35556
30
0
70
32
0
VERTEX
8
0
62
255
10
-0
20
118.34545
30
0
70
32
0
VERTEX
8
0
62
255
10
-0
20
118.33535
30
0
70
32
0
VERTEX
8
0
62
255
10
-0
20
118.32525
30
0
70
32
0
VERTEX
8
0
62
255
10
-0
20
118.31515
30
0
70
32
0
VERTEX
8
0
62
255
10
-0
20
118.30505
30
0
70
32
0
VERTEX
8
0
62
255
10
0
20
118.29495
30
0
70
32
0
VERTEX
8
0
62
255
10
0
20
118.28485
30
0
70
32
0
VERTEX
8
0
62
255
10
0
20
118.27475
30
0
70
32
0
VERTEX
8
0
62
255
10
0
20
118.26465
30
0
70
32
0
VERTEX
8
0
62
255
10
0
20
118.25455
30
0
70
32
0
VERTEX
8
0
62
255
10
0
20
118.24444
30
0
70
32
0
VERTEX
8
0
62
255
10
0
20
118.23434
30
0
70
32
0
VERTEX
8
0
62
255
10
0
20
118.22424
30
0
70
32
0
VERTEX
8
0
62
255
10
0
20
118.21414
30
0
70
32
0
VERTEX
8
0
62
255
10
0
20
118.20404
30
0
70
32
0
VERTEX
8
0
62
255
10
0
20
118.19394
30
0
70
32
0
VERTEX
8
0
62
255
10
0
20
118.18384
30
0
70
32
0
VERTEX
8
0
62
255
10
0
20
118.17374
30
0
70
32
0
VERTEX
8
0
62
255
10
0
20
118.16364
30
0
70
32
0
VERTEX
8
0
62
255
10
0
20
118.15354
30
0
70
32
0
VERTEX
8
0
62
255
10
0
20
118.14343
30
0
70
32
0
VERTEX
8
0
62
255
10
0
20
118.13333
30
0
70
32
0
VERTEX
8
0
62
255
10
0
20
118.12323
30
0
70
32
0
VERTEX
8
0
62
255
10
0
20
118.11313
30
0
70
32
0
VERTEX
8
0
62
255
10
0
20
118.10303
30
0
70
32
0
VERTEX
8
0
62
255
10
0
20
118.09293
30
0
70
32
0
VERTEX
8
0
62
255
10
0
20
118.08283
30
0
70
32
0
VERTEX
8
0
62
255
10
0
20
118.07273
30
0
70
32
0
VERTEX
8
0
62
255
10
0
20
118.06263
30
0
70
32
0
VERTEX
8
0
62
255
10
0
20
118.05253
30
0
70
32
0
VERTEX
8
0
62
255
10
0
20
118.04242
30
0
70
32
0
VERTEX
8
0
62
255
10
0
20
118.03232
30
0
70
32
0
VERTEX
8
0
62
255
10
0
20
118.02222
30
0
70
32
0
VERTEX
8
0
62
255
10
0
20
118.01212
30
0
70
32
0
VERTEX
8
0
62
255
10
0
20
118.00202
30
0
70
32
0
VERTEX
8
0
62
255
10
0
20
117.99192
30
0
70
32
0
VERTEX
8
0
62
255
10
0
20
117.98182
30
0
70
32
0
VERTEX
8
0
62
255
10
0
20
117.97172
30
0
70
32
0
VERTEX
8
0
62
255
10
0
20
117.96162
30
0
70
32
0
VERTEX
8
0
62
255
10
0
20
117.95152
30
0
70
32
0
VERTEX
8
0
62
255
10
0
20
117.94141
30
0
70
32
0
VERTEX
8
0
62
255
10
0
20
117.93131
30
0
70
32
0
VERTEX
8
0
62
255
10
0
20
117.92121
30
0
70
32
0
VERTEX
8
0
62
255
10
0
20
117.91111
30
0
70
32
0
VERTEX
8
0
62
255
10
0
20
117.90101
30
0
70
32
0
VERTEX
8
0
62
255
10
0
20
117.89091
30
0
70
32
0
VERTEX
8
0
62
255
10
0
20
117.88081
30
0
70
32
0
VERTEX
8
0
62
255
10
0
20
117.87071
30
0
70
32
0
VERTEX
8
0
62
255
10
0
20
117.86061
30
0
70
32
0
VERTEX
8
0
62
255
10
0
20
117.85051
30
0
70
32
0
VERTEX
8
0
62
255
10
0
20
117.8404
30
0
70
32
0
VERTEX
8
0
62
255
10
0
20
117.8303
30
0
70
32
0
VERTEX
8
0
62
255
10
0
20
117.8202
30
0
70
32
0
VERTEX
8
0
62
255
10
0
20
117.8101
30
0
70
32
0
VERTEX
8
0
62
255
10
0
20
117.8
30
0
70
32
0
SEQEND
8
0
0
POLYLINE
8
0
62
255
66
1
10
0
20
0
30
0
70
8
0
VERTEX
8
0
62
255
10
0
20
58.9
30
0
70
32
0
VERTEX
8
0
62
255
10
0.2342143
20
58.9
30
0
70
32
0
VERTEX
8
0
62
255
10
0.4684286
20
58.9
30
0
70
32
0
VERTEX
8
0
62
255
10
0.7026429
20
58.9
30
0
70
32
0
VERTEX
8
0
62
255
10
0.9368572
20
58.9
30
0
70
32
0
VERTEX
8
0
62
255
10
1.1710715
20
58.9
30
0
70
32
0
VERTEX
8
0
62
255
10
1.4052858
20
58.9
30
0
70
32
0
VERTEX
8
0
62
255
10
1.6395001
20
58.9
30
0
70
32
0
VERTEX
8
0
62
255
10
1.8737144
20
58.9
30
0
70
32
0
VERTEX
8
0
62
255
10
2.1079287
20
58.9
30
0
70
32
0
VERTEX
8
0
62
255
10
2.342143
20
58.9
30
0
70
32
0
VERTEX
8
0
62
255
10
2.5763573
20
58.9
30
0
70
32
0
VERTEX
8
0
62
255
10
2.8105716
20
58.9
30
0
70
32
0
VERTEX
8
0
62
255
10
3.0447859
20
58.9
30
0
70
32
0
VERTEX
8
0
62
255
10
3.2790002
20
58.9
30
0
70
32
0
VERTEX
8
0
62
255
10
3.5132145
20
58.9
30
0
70
32
0
VERTEX
8
0
62
255
10
3.7474288
20
58.9
30
0
70
32
0
VERTEX
8
0
62
255
10
3.9816431
20
58.9
30
0
70
32
0
VERTEX
8
0
62
255
10
4.2158574
20
58.9
30
0
70
32
0
VERTEX
8
0
62
255
10
4.4500717
20
58.9
30
0
70
32
0
VERTEX
8
0
62
255
10
4.684286
20
58.9
30
0
70
32
0
VERTEX
8
0
62
255
10
4.9185003
20
58.9
30
0
70
32
0
VERTEX
8
0
62
255
10
5.1527146
20
58.9
30
0
70
32
0
VERTEX
8
0
62
255
10
5.3869289
20
58.9
30
0
70
32
0
VERTEX
8
0
62
255
10
5.6211432
20
58.9
30
0
70
32
0
VERTEX
8
0
62
255
10
5.8553575
20
58.9
30
0
70
32
0
VERTEX
8
0
62
255
10
6.0895718
20
58.9
30
0
70
32
0
VERTEX
8
0
62
255
10
6.3237861
20
58.9
30
0
70
32
0
VERTEX
8
0
62
255
10
6.5580004
20
58.9
30
0
70
32
0
VERTEX
8
0
62
255
10
6.7922147
20
58.9
30
0
70
32
0
VERTEX
8
0
62
255
10
7.026429
20
58.9
30
0
70
32
0
VERTEX
8
0
62
255
10
7.2606433
20
58.9
30
0
70
32
0
VERTEX
8
0
62
255
10
7.4948576
20
58.9
30
0
70
32
0
VERTEX
8
0
62
255
10
7.7290719
20
58.9
30
0
70
32
0
VERTEX
8
0
62
255
10
7.9632862
20
58.9
30
0
70
32
0
VERTEX
8
0
62
255
10
8.1975005
20
58.9
30
0
70
32
0
VERTEX
8
0
62
255
10
8.4317148
20
58.9
30
0
70
32
0
VERTEX
8
0
62
255
10
8.6659291
20
58.9
30
0
70
32
0
VERTEX
8
0
62
255
10
8.9001434
20
58.9
30
0
70
32
0
VERTEX
8
0
62
255
10
9.1343577
20
58.9
30
0
70
32
0
VERTEX
8
0
62
255
10
9.368572
20
58.9
30
0
70
32
0
VERTEX
8
0
62
255
10
9.6027863
20
58.9
30
0
70
32
0
VERTEX
8
0
62
255
10
9.8370006
20
58.9
30
0
70
32
0
VERTEX
8
0
62
255
10
10.071215
20
58.9
30
0
70
32
0
VERTEX
8
0
62
255
10
10.305429
20
58.9
30
0
70
32
0
VERTEX
8
0
62
255
10
10.539644
20
58.9
30
0
70
32
0
VERTEX
8
0
62
255
10
10.773858
20
58.9
30
0
70
32
0
VERTEX
8
0
62
255
10
11.008072
20
58.9
30
0
70
32
0
VERTEX
8
0
62
255
10
11.242286
20
58.9
30
0
70
32
0
VERTEX
8
0
62
255
10
11.476501
20
58.9
30
0
70
32
0
VERTEX
8
0
62
255
10
11.710715
20
58.9
30
0
70
32
0
VERTEX
8
0
62
255
10
11.944929
20
58.9
30
0
70
32
0
VERTEX
8
0
62
255
10
12.179144
20
58.9
30
0
70
32
0
VERTEX
8
0
62
255
10
12.413358
20
58.9
30
0
70
32
0
VERTEX
8
0
62
255
10
12.647572
20
58.9
30
0
70
32
0
VERTEX
8
0
62
255
10
12.881787
20
58.9
30
0
70
32
0
VERTEX
8
0
62
255
10
13.116001
20
58.9
30
0
70
32
0
VERTEX
8
0
62
255
10
13.350215
20
58.9
30
0
70
32
0
VERTEX
8
0
62
255
10
13.584429
20
58.9
30
0
70
32
0
VERTEX
8
0
62
255
10
13.818644
20
58.9
30
0
70
32
0
VERTEX
8
0
62
255
10
14.052858
20
58.9
30
0
70
32
0
VERTEX
8
0
62
255
10
14.287072
20
58.9
30
0
70
32
0
VERTEX
8
0
62
255
10
14.521287
20
58.9
30
0
70
32
0
VERTEX
8
0
62
255
10
14.755501
20
58.9
30
0
70
32
0
VERTEX
8
0
62
255
10
14.989715
20
58.9
30
0
70
32
0
VERTEX
8
0
62
255
10
15.22393
20
58.9
30
0
70
32
0
VERTEX
8
0
62
255
10
15.458144
20
58.9
30
0
70
32
0
VERTEX
8
0
62
255
10
15.692358
20
58.9
30
0
70
32
0
VERTEX
8
0
62
255
10
15.926572
20
58.9
30
0
70
32
0
VERTEX
8
0
62
255
10
16.160787
20
58.9
30
0
70
32
0
VERTEX
8
0
62
255
10
16.395001
20
58.9
30
0
70
32
0
VERTEX
8
0
62
255
10
16.629215
20
58.9
30
0
70
32
0
VERTEX
8
0
62
255
10
16.86343
20
58.9
30
0
70
32
0
VERTEX
8
0
62
255
10
17.097644
20
58.9
30
0
70
32
0
VERTEX
8
0
62
255
10
17.331858
20
58.9
30
0
70
32
0
VERTEX
8
0
62
255
10
17.566073
20
58.9
30
0
70
32
0
VERTEX
8
0
62
255
10
17.800287
20
58.9
30
0
70
32
0
VERTEX
8
0
62
255
10
18.034501
20
58.9
30
0
70
32
0
VERTEX
8
0
62
255
10
18.268715
20
58.9
30
0
70
32
0
VERTEX
8
0
62
255
10
18.50293
20
58.9
30
0
70
32
0
VERTEX
8
0
62
255
10
18.737144
20
58.9
30
0
70
32
0
VERTEX
8
0
62
255
10
18.971358
20
58.9
30
0
70
32
0
VERTEX
8
0
62
255
10
19.205573
20
58.9
30
0
70
32
0
VERTEX
8
0
62
255
10
19.439787
20
58.9
30
0
70
32
0
VERTEX
8
0
62
255
10
19.674001
20
58.9
30
0
70
32
0
VERTEX
8
0
62
255
10
19.908216
20
58.9
30
0
70
32
0
VERTEX
8
0
62
255
10
20.14243
20
58.9
30
0
70
32
0
VERTEX
8
0
62
255
10
20.376644
20
58.9
30
0
70
32
0
VERTEX
8
0
62
255
10
20.610858
20
58.9
30
0
70
32
0
VERTEX
8
0
62
255
10
20.845073
20
58.9
30
0
70
32
0
VERTEX
8
0
62
255
10
21.079287
20
58.9
30
0
70
32
0
VERTEX
8
0
62
255
10
21.313501
20
58.9
30
0
70
32
0
VERTEX
8
0
62
255
10
21.547716
20
58.9
30
0
70
32
0
VERTEX
8
0
62
255
10
21.78193
20
58.9
30
0
70
32
0
VERTEX
8
0
62
255
10
22.016144
20
58.9
30
0
70
32
0
VERTEX
8
0
62
255
10
22.250359
20
58.9
30
0
70
32
0
VERTEX
8
0
62
255
10
22.484573
20
58.9
30
0
70
32
0
VERTEX
8
0
62
255
10
22.718787
20
58.9
30
0
70
32
0
VERTEX
8
0
62
255
10
22.953001
20
58.9
30
0
70
32
0
VERTEX
8
0
62
255
10
23.187216
20
58.9
30
0
70
32
0
SEQEND
8
0
0
POLYLINE
8
0
62
255
66
1
10
0
20
0
30
0
70
8
0
VERTEX
8
0
62
255
10
23.187216
20
58.9
30
0
70
32
0
VERTEX
8
0
62
255
10
23.187216
20
58.910101
30
0
70
32
0
VERTEX
8
0
62
255
10
23.187216
20
58.920202
30
0
70
32
0
VERTEX
8
0
62
255
10
23.187216
20
58.930303
30
0
70
32
0
VERTEX
8
0
62
255
10
23.187216
20
58.940404
30
0
70
32
0
VERTEX
8
0
62
255
10
23.187216
20
58.950505
30
0
70
32
0
VERTEX
8
0
62
255
10
23.187216
20
58.960606
30
0
70
32
0
VERTEX
8
0
62
255
10
23.187216
20
58.970707
30
0
70
32
0
VERTEX
8
0
62
255
10
23.187216
20
58.980808
30
0
70
32
0
VERTEX
8
0
62
255
10
23.187216
20
58.990909
30
0
70
32
0
VERTEX
8
0
62
255
10
23.187216
20
59.00101
30
0
70
32
0
VERTEX
8
0
62
255
10
23.187216
20
59.011111
30
0
70
32
0
VERTEX
8
0
62
255
10
23.187216
20
59.021212
30
0
70
32
0
VERTEX
8
0
62
255
10
23.187216
20
59.031313
30
0
70
32
0
VERTEX
8
0
62
255
10
23.187216
20
59.041414
30
0
70
32
0
VERTEX
8
0
62
255
10
23.187216
20
59.051515
30
0
70
32
0
VERTEX
8
0
62
255
10
23.187216
20
59.061616
30
0
70
32
0
VERTEX
8
0
62
255
10
23.187216
20
59.071717
30
0
70
32
0
VERTEX
8
0
62
255
10
23.187216
20
59.081818
30
0
70
32
0
VERTEX
8
0
62
255
10
23.187216
20
59.091919
30
0
70
32
0
VERTEX
8
0
62
255
10
23.187216
20
59.10202
30
0
70
32
0
VERTEX
8
0
62
255
10
23.187216
20
59.112121
30
0
70
32
0
VERTEX
8
0
62
255
10
23.187216
20
59.122222
30
0
70
32
0
VERTEX
8
0
62
255
10
23.187216
20
59.132323
30
0
70
32
0
VERTEX
8
0
62
255
10
23.187216
20
59.142424
30
0
70
32
0
VERTEX
8
0
62
255
10
23.187216
20
59.152525
30
0
70
32
0
VERTEX
8
0
62
255
10
23.187216
20
59.162626
30
0
70
32
0
VERTEX
8
0
62
255
10
23.187216
20
59.172727
30
0
70
32
0
VERTEX
8
0
62
255
10
23.187216
20
59.182828
30
0
70
32
0
VERTEX
8
0
62
255
10
23.187216
20
59.192929
30
0
70
32
0
VERTEX
8
0
62
255
10
23.187216
20
59.20303
30
0
70
32
0
VERTEX
8
0
62
255
10
23.187216
20
59.213131
30
0
70
32
0
VERTEX
8
0
62
255
10
23.187216
20
59.223232
30
0
70
32
0
VERTEX
8
0
62
255
10
23.187216
20
59.233333
30
0
70
32
0
VERTEX
8
0
62
255
10
23.187216
20
59.243434
30
0
70
32
0
VERTEX
8
0
62
255
10
23.187216
20
59.253535
30
0
70
32
0
VERTEX
8
0
62
255
10
23.187216
20
59.263636
30
0
70
32
0
VERTEX
8
0
62
255
10
23.187216
20
59.273737
30
0
70
32
0
VERTEX
8
0
62
255
10
23.187216
20
59.283838
30
0
70
32
0
VERTEX
8
0
62
255
10
23.187216
20
59.293939
30
0
70
32
0
VERTEX
8
0
62
255
10
23.187216
20
59.30404
30
0
70
32
0
VERTEX
8
0
62
255
10
23.187216
20
59.314141
30
0
70
32
0
VERTEX
8
0
62
255
10
23.187216
20
59.324242
30
0
70
32
0
VERTEX
8
0
62
255
10
23.187216
20
59.334343
30
0
70
32
0
VERTEX
8
0
62
255
10
23.187216
20
59.344444
30
0
70
32
0
VERTEX
8
0
62
255
10
23.187216
20
59.354545
30
0
70
32
0
VERTEX
8
0
62
255
10
23.187216
20
59.364646
30
0
70
32
0
VERTEX
8
0
62
255
10
23.187216
20
59.374747
30
0
70
32
0
VERTEX
8
0
62
255
10
23.187216
20
59.384848
30
0
70
32
0
VERTEX
8
0
62
255
10
23.187216
20
59.394949
30
0
70
32
0
VERTEX
8
0
62
255
10
23.187216
20
59.405051
30
0
70
32
0
VERTEX
8
0
62
255
10
23.187216
20
59.415152
30
0
70
32
0
VERTEX
8
0
62
255
10
23.187216
20
59.425253
30
0
70
32
0
VERTEX
8
0
62
255
10
23.187216
20
59.435354
30
0
70
32
0
VERTEX
8
0
62
255
10
23.187216
20
59.445455
30
0
70
32
0
VERTEX
8
0
62
255
10
23.187216
20
59.455556
30
0
70
32
0
VERTEX
8
0
62
255
10
23.187216
20
59.465657
30
0
70
32
0
VERTEX
8
0
62
255
10
23.187216
20
59.475758
30
0
70
32
0
VERTEX
8
0
62
255
10
23.187216
20
59.485859
30
0
70
32
0
VERTEX
8
0
62
255
10
23.187216
20
59.49596
30
0
70
32
0
VERTEX
8
0
62
255
10
23.187216
20
59.506061
30
0
70
32
0
VERTEX
8
0
62
255
10
23.187216
20
59.516162
30
0
70
32
0
VERTEX
8
0
62
255
10
23.187216
20
59.526263
30
0
70
32
0
VERTEX
8
0
62
255
10
23.187216
20
59.536364
30
0
70
32
0
VERTEX
8
0
62
255
10
23.187216
20
59.546465
30
0
70
32
0
VERTEX
8
0
62
255
10
23.187216
20
59.556566
30
0
70
32
0
VERTEX
8
0
62
255
10
23.187216
20
59.566667
30
0
70
32
0
VERTEX
8
0
62
255
10
23.187216
20
59.576768
30
0
70
32
0
VERTEX
8
0
62
255
10
23.187216
20
59.586869
30
0
70
32
0
VERTEX
8
0
62
255
10
23.187216
20
59.59697
30
0
70
32
0
VERTEX
8
0
62
255
10
23.187216
20
59.607071
30
0
70
32
0
VERTEX
8
0
62
255
10
23.187216
20
59.617172
30
0
70
32
0
VERTEX
8
0
62
255
10
23.187216
20
59.627273
30
0
70
32
0
VERTEX
8
0
62
255
10
23.187216
20
59.637374
30
0
70
32
0
VERTEX
8
0
62
255
10
23.187216
20
59.647475
30
0
70
32
0
VERTEX
8
0
62
255
10
23.187216
20
59.657576
30
0
70
32
0
VERTEX
8
0
62
255
10
23.187216
20
59.667677
30
0
70
32
0
VERTEX
8
0
62
255
10
23.187216
20
59.677778
30
0
70
32
0
VERTEX
8
0
62
255
10
23.187216
20
59.687879
30
0
70
32
0
VERTEX
8
0
62
255
10
23.187216
20
59.69798
30
0
70
32
0
VERTEX
8
0
62
255
10
23.187216
20
59.708081
30
0
70
32
0
VERTEX
8
0
62
255
10
23.187216
20
59.718182
30
0
70
32
0
VERTEX
8
0
62
255
10
23.187216
20
59.728283
30
0
70
32
0
VERTEX
8
0
62
255
10
23.187216
20
59.738384
30
0
70
32
0
VERTEX
8
0
62
255
10
23.187216
20
59.748485
30
0
70
32
0
VERTEX
8
0
62
255
10
23.187216
20
59.758586
30
0
70
32
0
VERTEX
8
0
62
255
10
23.187216
20
59.768687
30
0
70
32
0
VERTEX
8
0
62
255
10
23.187216
20
59.778788
30
0
70
32
0
VERTEX
8
0
62
255
10
23.187216
20
59.788889
30
0
70
32
0
VERTEX
8
0
62
255
10
23.187216
20
59.79899
30
0
70
32
0
VERTEX
8
0
62
255
10
23.187216
20
59.809091
30
0
70
32
0
VERTEX
8
0
62
255
10
23.187216
20
59.819192
30
0
70
32
0
VERTEX
8
0
62
255
10
23.187216
20
59.829293
30
0
70
32
0
VERTEX
8
0
62
255
10
23.187216
20
59.839394
30
0
70
32
0
VERTEX
8
0
62
255
10
23.187216
20
59.849495
30
0
70
32
0
VERTEX
8
0
62
255
10
23.187216
20
59.859596
30
0
70
32
0
VERTEX
8
0
62
255
10
23.187216
20
59.869697
30
0
70
32
0
VERTEX
8
0
62
255
10
23.187216
20
59.879798
30
0
70
32
0
VERTEX
8
0
62
255
10
23.187216
20
59.889899
30
0
70
32
0
VERTEX
8
0
62
255
10
23.187216
20
59.9
30
0
70
32
0
SEQEND
8
0
0
POLYLINE
8
0
62
255
66
1
10
0
20
0
30
0
70
8
0
VERTEX
8
0
62
255
10
23.187216
20
59.9
30
0
70
32
0
VERTEX
8
0
62
255
10
22.953001
20
59.9
30
0
70
32
0
VERTEX
8
0
62
255
10
22.718787
20
59.9
30
0
70
32
0
VERTEX
8
0
62
255
10
22.484573
20
59.9
30
0
70
32
0
VERTEX
8
0
62
255
10
22.250359
20
59.9
30
0
70
32
0
VERTEX
8
0
62
255
10
22.016144
20
59.9
30
0
70
32
0
VERTEX
8
0
62
255
10
21.78193
20
59.9
30
0
70
32
0
VERTEX
8
0
62
255
10
21.547716
20
59.9
30
0
70
32
0
VERTEX
8
0
62
255
10
21.313501
20
59.9
30
0
70
32
0
VERTEX
8
0
62
255
10
21.079287
20
59.9
30
0
70
32
0
VERTEX
8
0
62
255
10
20.845073
20
59.9
30
0
70
32
0
VERTEX
8
0
62
255
10
20.610858
20
59.9
30
0
70
32
0
VERTEX
8
0
62
255
10
20.376644
20
59.9
30
0
70
32
0
VERTEX
8
0
62
255
10
20.14243
20
59.9
30
0
70
32
0
VERTEX
8
0
62
255
10
19.908216
20
59.9
30
0
70
32
0
VERTEX
8
0
62
255
10
19.674001
20
59.9
30
0
70
32
0
VERTEX
8
0
62
255
10
19.439787
20
59.9
30
0
70
32
0
VERTEX
8
0
62
255
10
19.205573
20
59.9
30
0
70
32
0
VERTEX
8
0
62
255
10
18.971358
20
59.9
30
0
70
32
0
VERTEX
8
0
62
255
10
18.737144
20
59.9
30
0
70
32
0
VERTEX
8
0
62
255
10
18.50293
20
59.9
30
0
70
32
0
VERTEX
8
0
62
255
10
18.268715
20
59.9
30
0
70
32
0
VERTEX
8
0
62
255
10
18.034501
20
59.9
30
0
70
32
0
VERTEX
8
0
62
255
10
17.800287
20
59.9
30
0
70
32
0
VERTEX
8
0
62
255
10
17.566073
20
59.9
30
0
70
32
0
VERTEX
8
0
62
255
10
17.331858
20
59.9
30
0
70
32
0
VERTEX
8
0
62
255
10
17.097644
20
59.9
30
0
70
32
0
VERTEX
8
0
62
255
10
16.86343
20
59.9
30
0
70
32
0
VERTEX
8
0
62
255
10
16.629215
20
59.9
30
0
70
32
0
VERTEX
8
0
62
255
10
16.395001
20
59.9
30
0
70
32
0
VERTEX
8
0
62
255
10
16.160787
20
59.9
30
0
70
32
0
VERTEX
8
0
62
255
10
15.926572
20
59.9
30
0
70
32
0
VERTEX
8
0
62
255
10
15.692358
20
59.9
30
0
70
32
0
VERTEX
8
0
62
255
10
15.458144
20
59.9
30
0
70
32
0
VERTEX
8
0
62
255
10
15.22393
20
59.9
30
0
70
32
0
VERTEX
8
0
62
255
10
14.989715
20
59.9
30
0
70
32
0
VERTEX
8
0
62
255
10
14.755501
20
59.9
30
0
70
32
0
VERTEX
8
0
62
255
10
14.521287
20
59.9
30
0
70
32
0
VERTEX
8
0
62
255
10
14.287072
20
59.9
30
0
70
32
0
VERTEX
8
0
62
255
10
14.052858
20
59.9
30
0
70
32
0
VERTEX
8
0
62
255
10
13.818644
20
59.9
30
0
70
32
0
VERTEX
8
0
62
255
10
13.584429
20
59.9
30
0
70
32
0
VERTEX
8
0
62
255
10
13.350215
20
59.9
30
0
70
32
0
VERTEX
8
0
62
255
10
13.116001
20
59.9
30
0
70
32
0
VERTEX
8
0
62
255
10
12.881787
20
59.9
30
0
70
32
0
VERTEX
8
0
62
255
10
12.647572
20
59.9
30
0
70
32
0
VERTEX
8
0
62
255
10
12.413358
20
59.9
30
0
70
32
0
VERTEX
8
0
62
255
10
12.179144
20
59.9
30
0
70
32
0
VERTEX
8
0
62
255
10
11.944929
20
59.9
30
0
70
32
0
VERTEX
8
0
62
255
10
11.710715
20
59.9
30
0
70
32
0
VERTEX
8
0
62
255
10
11.476501
20
59.9
30
0
70
32
0
VERTEX
8
0
62
255
10
11.242286
20
59.9
30
0
70
32
0
VERTEX
8
0
62
255
10
11.008072
20
59.9
30
0
70
32
0
VERTEX
8
0
62
255
10
10.773858
20
59.9
30
0
70
32
0
VERTEX
8
0
62
255
10
10.539644
20
59.9
30
0
70
32
0
VERTEX
8
0
62
255
10
10.305429
20
59.9
30
0
70
32
0
VERTEX
8
0
62
255
10
10.071215
20
59.9
30
0
70
32
0
VERTEX
8
0
62
255
10
9.8370006
20
59.9
30
0
70
32
0
VERTEX
8
0
62
255
10
9.6027863
20
59.9
30
0
70
32
0
VERTEX
8
0
62
255
10
9.368572
20
59.9
30
0
70
32
0
VERTEX
8
0
62
255
10
9.1343577
20
59.9
30
0
70
32
0
VERTEX
8
0
62
255
10
8.9001434
20
59.9
30
0
70
32
0
VERTEX
8
0
62
255
10
8.6659291
20
59.9
30
0
70
32
0
VERTEX
8
0
62
255
10
8.4317148
20
59.9
30
0
70
32
0
VERTEX
8
0
62
255
10
8.1975005
20
59.9
30
0
70
32
0
VERTEX
8
0
62
255
10
7.9632862
20
59.9
30
0
70
32
0
VERTEX
8
0
62
255
10
7.7290719
20
59.9
30
0
70
32
0
VERTEX
8
0
62
255
10
7.4948576
20
59.9
30
0
70
32
0
VERTEX
8
0
62
255
10
7.2606433
20
59.9
30
0
70
32
0
VERTEX
8
0
62
255
10
7.026429
20
59.9
30
0
70
32
0
VERTEX
8
0
62
255
10
6.7922147
20
59.9
30
0
70
32
0
VERTEX
8
0
62
255
10
6.5580004
20
59.9
30
0
70
32
0
VERTEX
8
0
62
255
10
6.3237861
20
59.9
30
0
70
32
0
VERTEX
8
0
62
255
10
6.0895718
20
59.9
30
0
70
32
0
VERTEX
8
0
62
255
10
5.8553575
20
59.9
30
0
70
32
0
VERTEX
8
0
62
255
10
5.6211432
20
59.9
30
0
70
32
0
VERTEX
8
0
62
255
10
5.3869289
20
59.9
30
0
70
32
0
VERTEX
8
0
62
255
10
5.1527146
20
59.9
30
0
70
32
0
VERTEX
8
0
62
255
10
4.9185003
20
59.9
30
0
70
32
0
VERTEX
8
0
62
255
10
4.684286
20
59.9
30
0
70
32
0
VERTEX
8
0
62
255
10
4.4500717
20
59.9
30
0
70
32
0
VERTEX
8
0
62
255
10
4.2158574
20
59.9
30
0
70
32
0
VERTEX
8
0
62
255
10
3.9816431
20
59.9
30
0
70
32
0
VERTEX
8
0
62
255
10
3.7474288
20
59.9
30
0
70
32
0
VERTEX
8
0
62
255
10
3.5132145
20
59.9
30
0
70
32
0
VERTEX
8
0
62
255
10
3.2790002
20
59.9
30
0
70
32
0
VERTEX
8
0
62
255
10
3.0447859
20
59.9
30
0
70
32
0
VERTEX
8
0
62
255
10
2.8105716
20
59.9
30
0
70
32
0
VERTEX
8
0
62
255
10
2.5763573
20
59.9
30
0
70
32
0
VERTEX
8
0
62
255
10
2.342143
20
59.9
30
0
70
32
0
VERTEX
8
0
62
255
10
2.1079287
20
59.9
30
0
70
32
0
VERTEX
8
0
62
255
10
1.8737144
20
59.9
30
0
70
32
0
VERTEX
8
0
62
255
10
1.6395001
20
59.9
30
0
70
32
0
VERTEX
8
0
62
255
10
1.4052858
20
59.9
30
0
70
32
0
VERTEX
8
0
62
255
10
1.1710715
20
59.9
30
0
70
32
0
VERTEX
8
0
62
255
10
0.9368572
20
59.9
30
0
70
32
0
VERTEX
8
0
62
255
10
0.7026429
20
59.9
30
0
70
32
0
VERTEX
8
0
62
255
10
0.4684286
20
59.9
30
0
70
32
0
VERTEX
8
0
62
255
10
0.2342143
20
59.9
30
0
70
32
0
VERTEX
8
0
62
255
10
0
20
59.9
30
0
70
32
0
SEQEND
8
0
0
POLYLINE
8
0
62
255
66
1
10
0
20
0
30
0
70
8
0
VERTEX
8
0
62
255
10
0
20
59.9
30
0
70
32
0
VERTEX
8
0
62
255
10
-0
20
59.889899
30
0
70
32
0
VERTEX
8
0
62
255
10
-0
20
59.879798
30
0
70
32
0
VERTEX
8
0
62
255
10
-0
20
59.869697
30
0
70
32
0
VERTEX
8
0
62
255
10
-0
20
59.859596
30
0
70
32
0
VERTEX
8
0
62
255
10
-0
20
59.849495
30
0
70
32
0
VERTEX
8
0
62
255
10
-0
20
59.839394
30
0
70
32
0
VERTEX
8
0
62
255
10
-0
20
59.829293
30
0
70
32
0
VERTEX
8
0
62
255
10
-0
20
59.819192
30
0
70
32
0
VERTEX
8
0
62
255
10
-0
20
59.809091
30
0
70
32
0
VERTEX
8
0
62
255
10
-0
20
59.79899
30
0
70
32
0
VERTEX
8
0
62
255
10
-0
20
59.788889
30
0
70
32
0
VERTEX
8
0
62
255
10
-0
20
59.778788
30
0
70
32
0
VERTEX
8
0
62
255
10
-0
20
59.768687
30
0
70
32
0
VERTEX
8
0
62
255
10
-0
20
59.758586
30
0
70
32
0
VERTEX
8
0
62
255
10
-0
20
59.748485
30
0
70
32
0
VERTEX
8
0
62
255
10
-0
20
59.738384
30
0
70
32
0
VERTEX
8
0
62
255
10
-0
20
59.728283
30
0
70
32
0
VERTEX
8
0
62
255
10
-0
20
59.718182
30
0
70
32
0
VERTEX
8
0
62
255
10
-0
20
59.708081
30
0
70
32
0
VERTEX
8
0
62
255
10
-0
20
59.69798
30
0
70
32
0
VERTEX
8
0
62
255
10
-0
20
59.687879
30
0
70
32
0
VERTEX
8
0
62
255
10
-0
20
59.677778
30
0
70
32
0
VERTEX
8
0
62
255
10
-0
20
59.667677
30
0
70
32
0
VERTEX
8
0
62
255
10
-0
20
59.657576
30
0
70
32
0
VERTEX
8
0
62
255
10
-0
20
59.647475
30
0
70
32
0
VERTEX
8
0
62
255
10
-0
20
59.637374
30
0
70
32
0
VERTEX
8
0
62
255
10
-0
20
59.627273
30
0
70
32
0
VERTEX
8
0
62
255
10
-0
20
59.617172
30
0
70
32
0
VERTEX
8
0
62
255
10
-0
20
59.607071
30
0
70
32
0
VERTEX
8
0
62
255
10
-0
20
59.59697
30
0
70
32
0
VERTEX
8
0
62
255
10
-0
20
59.586869
30
0
70
32
0
VERTEX
8
0
62
255
10
-0
20
59.576768
30
0
70
32
0
VERTEX
8
0
62
255
10
-0
20
59.566667
30
0
70
32
0
VERTEX
8
0
62
255
10
-0
20
59.556566
30
0
70
32
0
VERTEX
8
0
62
255
10
-0
20
59.546465
30
0
70
32
0
VERTEX
8
0
62
255
10
-0
20
59.536364
30
0
70
32
0
VERTEX
8
0
62
255
10
-0
20
59.526263
30
0
70
32
0
VERTEX
8
0
62
255
10
-0
20
59.516162
30
0
70
32
0
VERTEX
8
0
62
255
10
-0
20
59.506061
30
0
70
32
0
VERTEX
8
0
62
255
10
-0
20
59.49596
30
0
70
32
0
VERTEX
8
0
62
255
10
-0
20
59.485859
30
0
70
32
0
VERTEX
8
0
62
255
10
-0
20
59.475758
30
0
70
32
0
VERTEX
8
0
62
255
10
-0
20
59.465657
30
0
70
32
0
VERTEX
8
0
62
255
10
-0
20
59.455556
30
0
70
32
0
VERTEX
8
0
62
255
10
-0
20
59.445455
30
0
70
32
0
VERTEX
8
0
62
255
10
-0
20
59.435354
30
0
70
32
0
VERTEX
8
0
62
255
10
-0
20
59.425253
30
0
70
32
0
VERTEX
8
0
62
255
10
-0
20
59.415152
30
0
70
32
0
VERTEX
8
0
62
255
10
-0
20
59.405051
30
0
70
32
0
VERTEX
8
0
62
255
10
0
20
59.394949
30
0
70
32
0
VERTEX
8
0
62
255
10
0
20
59.384848
30
0
70
32
0
VERTEX
8
0
62
255
10
0
20
59.374747
30
0
70
32
0
VERTEX
8
0
62
255
10
0
20
59.364646
30
0
70
32
0
VERTEX
8
0
62
255
10
0
20
59.354545
30
0
70
32
0
VERTEX
8
0
62
255
10
0
20
59.344444
30
0
70
32
0
VERTEX
8
0
62
255
10
0
20
59.334343
30
0
70
32
0
VERTEX
8
0
62
255
10
0
20
59.324242
30
0
70
32
0
VERTEX
8
0
62
255
10
0
20
59.314141
30
0
70
32
0
VERTEX
8
0
62
255
10
0
20
59.30404
30
0
70
32
0
VERTEX
8
0
62
255
10
0
20
59.293939
30
0
70
32
0
VERTEX
8
0
62
255
10
0
20
59.283838
30
0
70
32
0
VERTEX
8
0
62
255
10
0
20
59.273737
30
0
70
32
0
VERTEX
8
0
62
255
10
0
20
59.263636
30
0
70
32
0
VERTEX
8
0
62
255
10
0
20
59.253535
30
0
70
32
0
VERTEX
8
0
62
255
10
0
20
59.243434
30
0
70
32
0
VERTEX
8
0
62
255
10
0
20
59.233333
30
0
70
32
0
VERTEX
8
0
62
255
10
0
20
59.223232
30
0
70
32
0
VERTEX
8
0
62
255
10
0
20
59.213131
30
0
70
32
0
VERTEX
8
0
62
255
10
0
20
59.20303
30
0
70
32
0
VERTEX
8
0
62
255
10
0
20
59.192929
30
0
70
32
0
VERTEX
8
0
62
255
10
0
20
59.182828
30
0
70
32
0
VERTEX
8
0
62
255
10
0
20
59.172727
30
0
70
32
0
VERTEX
8
0
62
255
10
0
20
59.162626
30
0
70
32
0
VERTEX
8
0
62
255
10
0
20
59.152525
30
0
70
32
0
VERTEX
8
0
62
255
10
0
20
59.142424
30
0
70
32
0
VERTEX
8
0
62
255
10
0
20
59.132323
30
0
70
32
0
VERTEX
8
0
62
255
10
0
20
59.122222
30
0
70
32
0
VERTEX
8
0
62
255
10
0
20
59.112121
30
0
70
32
0
VERTEX
8
0
62
255
10
0
20
59.10202
30
0
70
32
0
VERTEX
8
0
62
255
10
0
20
59.091919
30
0
70
32
0
VERTEX
8
0
62
255
10
0
20
59.081818
30
0
70
32
0
VERTEX
8
0
62
255
10
0
20
59.071717
30
0
70
32
0
VERTEX
8
0
62
255
10
0
20
59.061616
30
0
70
32
0
VERTEX
8
0
62
255
10
0
20
59.051515
30
0
70
32
0
VERTEX
8
0
62
255
10
0
20
59.041414
30
0
70
32
0
VERTEX
8
0
62
255
10
0
20
59.031313
30
0
70
32
0
VERTEX
8
0
62
255
10
0
20
59.021212
30
0
70
32
0
VERTEX
8
0
62
255
10
0
20
59.011111
30
0
70
32
0
VERTEX
8
0
62
255
10
0
20
59.00101
30
0
70
32
0
VERTEX
8
0
62
255
10
0
20
58.990909
30
0
70
32
0
VERTEX
8
0
62
255
10
0
20
58.980808
30
0
70
32
0
VERTEX
8
0
62
255
10
0
20
58.970707
30
0
70
32
0
VERTEX
8
0
62
255
10
0
20
58.960606
30
0
70
32
0
VERTEX
8
0
62
255
10
0
20
58.950505
30
0
70
32
0
VERTEX
8
0
62
255
10
0
20
58.940404
30
0
70
32
0
VERTEX
8
0
62
255
10
0
20
58.930303
30
0
70
32
0
VERTEX
8
0
62
255
10
0
20
58.920202
30
0
70
32
0
VERTEX
8
0
62
255
10
0
20
58.910101
30
0
70
32
0
VERTEX
8
0
62
255
10
0
20
58.9
30
0
70
32
0
SEQEND
8
0
0
POLYLINE
8
0
62
255
66
1
10
0
20
0
30
0
70
8
0
VERTEX
8
0
62
255
10
0
20
47.806392
30
0
70
32
0
VERTEX
8
0
62
255
10
0.2342143
20
48.026321
30
0
70
32
0
VERTEX
8
0
62
255
10
0.4684286
20
48.246251
30
0
70
32
0
VERTEX
8
0
62
255
10
0.7026429
20
48.46618
30
0
70
32
0
VERTEX
8
0
62
255
10
0.9368572
20
48.686109
30
0
70
32
0
VERTEX
8
0
62
255
10
1.1710715
20
48.906039
30
0
70
32
0
VERTEX
8
0
62
255
10
1.4052858
20
49.125968
30
0
70
32
0
VERTEX
8
0
62
255
10
1.6395001
20
49.345897
30
0
70
32
0
VERTEX
8
0
62
255
10
1.8737144
20
49.565827
30
0
70
32
0
VERTEX
8
0
62
255
10
2.1079287
20
49.785756
30
0
70
32
0
VERTEX
8
0
62
255
10
2.342143
20
50.005685
30
0
70
32
0
VERTEX
8
0
62
255
10
2.5763573
20
50.225615
30
0
70
32
0
VERTEX
8
0
62
255
10
2.8105716
20
50.445544
30
0
70
32
0
VERTEX
8
0
62
255
10
3.0447859
20
50.665473
30
0
70
32
0
VERTEX
8
0
62
255
10
3.2790002
20
50.885403
30
0
70
32
0
VERTEX
8
0
62
255
10
3.5132145
20
51.105332
30
0
70
32
0
VERTEX
8
0
62
255
10
3.7474288
20
51.325261
30
0
70
32
0
VERTEX
8
0
62
255
10
3.9816431
20
51.54519
30
0
70
32
0
VERTEX
8
0
62
255
10
4.2158574
20
51.76512
30
0
70
32
0
VERTEX
8
0
62
255
10
4.4500717
20
51.985049
30
0
70
32
0
VERTEX
8
0
62
255
10
4.684286
20
52.204978
30
0
70
32
0
VERTEX
8
0
62
255
10
4.9185003
20
52.424908
30
0
70
32
0
VERTEX
8
0
62
255
10
5.1527146
20
52.644837
30
0
70
32
0
VERTEX
8
0
62
255
10
5.3869289
20
52.864766
30
0
70
32
0
VERTEX
8
0
62
255
10
5.6211432
20
53.084696
30
0
70
32
0
VERTEX
8
0
62
255
10
5.8553575
20
53.304625
30
0
70
32
0
VERTEX
8
0
62
255
10
6.0895718
20
53.524554
30
0
70
32
0
VERTEX
8
0
62
255
10
6.3237861
20
53.744484
30
0
70
32
0
VERTEX
8
0
62
255
10
6.5580004
20
53.964413
30
0
70
32
0
VERTEX
8
0
62
255
10
6.7922147
20
54.184342
30
0
70
32
0
VERTEX
8
0
62
255
10
7.026429
20
54.404272
30
0
70
32
0
VERTEX
8
0
62
255
10
7.2606433
20
54.624201
30
0
70
32
0
VERTEX
8
0
62
255
10
7.4948576
20
54.84413
30
0
70
32
0
VERTEX
8
0
62
255
10
7.7290719
20
55.06406
30
0
70
32
0
VERTEX
8
0
62
255
10
7.9632862
20
55.283989
30
0
70
32
0
VERTEX
8
0
62
255
10
8.1975005
20
55.503918
30
0
70
32
0
VERTEX
8
0
62
255
10
8.4317148
20
55.723847
30
0
70
32
0
VERTEX
8
0
62
255
10
8.6659291
20
55.943777
30
0
70
32
0
VERTEX
8
0
62
255
10
8.9001434
20
56.163706
30
0
70
32
0
VERTEX
8
0
62
255
10
9.1343577
20
56.383635
30
0
70
32
0
VERTEX
8
0
62
255
10
9.368572
20
56.603565
30
0
70
32
0
VERTEX
8
0
62
255
10
9.6027863
20
56.823494
30
0
70
32
0
VERTEX
8
0
62
255
10
9.8370006
20
57.043423
30
0
70
32
0
VERTEX
8
0
62
255
10
10.071215
20
57.263353
30
0
70
32
0
VERTEX
8
0
62
255
10
10.305429
20
57.483282
30
0
70
32
0
VERTEX
8
0
62
255
10
10.539644
20
57.703211
30
0
70
32
0
VERTEX
8
0
62
255
10
10.773858
20
57.923141
30
0
70
32
0
VERTEX
8
0
62
255
10
11.008072
20
58.14307
30
0
70
32
0
VERTEX
8
0
62
255
10
11.242286
20
58.362999
30
0
70
32
0
VERTEX
8
0
62
255
10
11.476501
20
58.582929
30
0
70
32
0
VERTEX
8
0
62
255
10
11.710715
20
58.802858
30
0
70
32
0
VERTEX
8
0
62
255
10
11.944929
20
59.022787
30
0
70
32
0
VERTEX
8
0
62
255
10
12.179144
20
59.242717
30
0
70
32
0
VERTEX
8
0
62
255
10
12.413358
20
59.462646
30
0
70
32
0
VERTEX
8
0
62
255
10
12.647572
20
59.682575
30
0
70
32
0
VERTEX
8
0
62
255
10
12.881787
20
59.902504
30
0
70
32
0
VERTEX
8
0
62
255
10
13.116001
20
60.122434
30
0
70
32
0
VERTEX
8
0
62
255
10
13.350215
20
60.342363
30
0
70
32
0
VERTEX
8
0
62
255
10
13.584429
20
60.562292
30
0
70
32
0
VERTEX
8
0
62
255
10
13.818644
20
60.782222
30
0
70
32
0
VERTEX
8
0
62
255
10
14.052858
20
61.002151
30
0
70
32
0
VERTEX
8
0
62
255
10
14.287072
20
61.22208
30
0
70
32
0
VERTEX
8
0
62
255
10
14.521287
20
61.44201
30
0
70
32
0
VERTEX
8
0
62
255
10
14.755501
20
61.661939
30
0
70
32
0
VERTEX
8
0
62
255
10
14.989715
20
61.881868
30
0
70
32
0
VERTEX
8
0
62
255
10
15.22393
20
62.101798
30
0
70
32
0
VERTEX
8
0
62
255
10
15.458144
20
62.321727
30
0
70
32
0
VERTEX
8
0
62
255
10
15.692358
20
62.541656
30
0
70
32
0
VERTEX
8
0
62
255
10
15.926572
20
62.761586
30
0
70
32
0
VERTEX
8
0
62
255
10
16.160787
20
62.981515
30
0
70
32
0
VERTEX
8
0
62
255
10
16.395001
20
63.201444
30
0
70
32
0
VERTEX
8
0
62
255
10
16.629215
20
63.421373
30
0
70
32
0
VERTEX
8
0
62
255
10
16.86343
20
63.641303
30
0
70
32
0
VERTEX
8
0
62
255
10
17.097644
20
63.861232
30
0
70
32
0
VERTEX
8
0
62
255
10
17.331858
20
64.081161
30
0
70
32
0
VERTEX
8
0
62
255
10
17.566073
20
64.301091
30
0
70
32
0
VERTEX
8
0
62
255
10
17.800287
20
64.52102
30
0
70
32
0
VERTEX
8
0
62
255
10
18.034501
20
64.740949
30
0
70
32
0
VERTEX
8
0
62
255
10
18.268715
20
64.960879
30
0
70
32
0
VERTEX
8
0
62
255
10
18.50293
20
65.180808
30
0
70
32
0
VERTEX
8
0
62
255
10
18.737144
20
65.400737
30
0
70
32
0
VERTEX
8
0
62
255
10
18.971358
20
65.620667
30
0
70
32
0
VERTEX
8
0
62
255
10
19.205573
20
65.840596
30
0
70
32
0
VERTEX
8
0
62
255
10
19.439787
20
66.060525
30
0
70
32
0
VERTEX
8
0
62
255
10
19.674001
20
66.280455
30
0
70
32
0
VERTEX
8
0
62
255
10
19.908216
20
66.500384
30
0
70
32
0
VERTEX
8
0
62
255
10
20.14243
20
66.720313
30
0
70
32
0
VERTEX
8
0
62
255
10
20.376644
20
66.940243
30
0
70
32
0
VERTEX
8
0
62
255
10
20.610858
20
67.160172
30
0
70
32
0
VERTEX
8
0
62
255
10
20.845073
20
67.380101
30
0
70
32
0
VERTEX
8
0
62
255
10
21.079287
20
67.60003
30
0
70
32
0
VERTEX
8
0
62
255
10
21.313501
20
67.81996
30
0
70
32
0
VERTEX
8
0
62
255
10
21.547716
20
68.039889
30
0
70
32
0
VERTEX
8
0
62
255
10
21.78193
20
68.259818
30
0
70
32
0
VERTEX
8
0
62
255
10
22.016144
20
68.479748
30
0
70
32
0
VERTEX
8
0
62
255
10
22.250359
20
68.699677
30
0
70
32
0
VERTEX
8
0
62
255
10
22.484573
20
68.919606
30
0
70
32
0
VERTEX
8
0
62
255
10
22.718787
20
69.139536
30
0
70
32
0
VERTEX
8
0
62
255
10
22.953001
20
69.359465
30
0
70
32
0
VERTEX
8
0
62
255
10
23.187216
20
69.579394
30
0
70
32
0
SEQEND
8
0
0
POLYLINE
8
0
62
255
66
1
10
0
20
0
30
0
70
8
0
VERTEX
8
0
62
255
10
23.187216
20
69.579394
30
0
70
32
0
VERTEX
8
0
62
255
10
23.187216
20
69.593679
30
0
70
32
0
VERTEX
8
0
62
255
10
23.187216
20
69.607964
30
0
70
32
0
VERTEX
8
0
62
255
10
23.187216
20
69.622249
30
0
70
32
0
VERTEX
8
0
62
255
10
23.187216
20
69.636534
30
0
70
32
0
VERTEX
8
0
62
255
10
23.187216
20
69.650819
30
0
70
32
0
VERTEX
8
0
62
255
10
23.187216
20
69.665104
30
0
70
32
0
VERTEX
8
0
62
255
10
23.187216
20
69.679389
30
0
70
32
0
VERTEX
8
0
62
255
10
23.187216
20
69.693674
30
0
70
32
0
VERTEX
8
0
62
255
10
23.187216
20
69.707959
30
0
70
32
0
VERTEX
8
0
62
255
10
23.187216
20
69.722244
30
0
70
32
0
VERTEX
8
0
62
255
10
23.187216
20
69.736529
30
0
70
32
0
VERTEX
8
0
62
255
10
23.187216
20
69.750814
30
0
70
32
0
VERTEX
8
0
62
255
10
23.187216
20
69.765099
30
0
70
32
0
VERTEX
8
0
62
255
10
23.187216
20
69.779384
30
0
70
32
0
VERTEX
8
0
62
255
10
23.187216
20
69.793669
30
0
70
32
0
VERTEX
8
0
62
255
10
23.187216
20
69.807954
30
0
70
32
0
VERTEX
8
0
62
255
10
23.187216
20
69.822239
30
0
70
32
0
VERTEX
8
0
62
255
10
23.187216
20
69.836524
30
0
70
32
0
VERTEX
8
0
62
255
10
23.187216
20
69.850809
30
0
70
32
0
VERTEX
8
0
62
255
10
23.187216
20
69.865094
30
0
70
32
0
VERTEX
8
0
62
255
10
23.187216
20
69.879379
30
0
70
32
0
VERTEX
8
0
62
255
10
23.187216
20
69.893664
30
0
70
32
0
VERTEX
8
0
62
255
10
23.187216
20
69.907949
30
0
70
32
0
VERTEX
8
0
62
255
10
23.187216
20
69.922234
30
0
70
32
0
VERTEX
8
0
62
255
10
23.187216
20
69.936519
30
0
70
32
0
VERTEX
8
0
62
255
10
23.187216
20
69.950804
30
0
70
32
0
VERTEX
8
0
62
255
10
23.187216
20
69.965089
30
0
70
32
0
VERTEX
8
0
62
255
10
23.187216
20
69.979374
30
0
70
32
0
VERTEX
8
0
62
255
10
23.187216
20
69.993659
30
0
70
32
0
VERTEX
8
0
62
255
10
23.187216
20
70.007944
30
0
70
32
0
VERTEX
8
0
62
255
10
23.187216
20
70.022229
30
0
70
32
0
VERTEX
8
0
62
255
10
23.187216
20
70.036514
30
0
70
32
0
VERTEX
8
0
62
255
10
23.187216
20
70.050799
30
0
70
32
0
VERTEX
8
0
62
255
10
23.187216
20
70.065084
30
0
70
32
0
VERTEX
8
0
62
255
10
23.187216
20
70.079369
30
0
70
32
0
VERTEX
8
0
62
255
10
23.187216
20
70.093654
30
0
70
32
0
VERTEX
8
0
62
255
10
23.187216
20
70.107939
30
0
70
32
0
VERTEX
8
0
62
255
10
23.187216
20
70.122224
30
0
70
32
0
VERTEX
8
0
62
255
10
23.187216
20
70.136509
30
0
70
32
0
VERTEX
8
0
62
255
10
23.187216
20
70.150794
30
0
70
32
0
VERTEX
8
0
62
255
10
23.187216
20
70.165079
30
0
70
32
0
VERTEX
8
0
62
255
10
23.187216
20
70.179364
30
0
70
32
0
VERTEX
8
0
62
255
10
23.187216
20
70.193649
30
0
70
32
0
VERTEX
8
0
62
255
10
23.187216
20
70.207934
30
0
70
32
0
VERTEX
8
0
62
255
10
23.187216
20
70.222219
30
0
70
32
0
VERTEX
8
0
62
255
10
23.187216
20
70.236504
30
0
70
32
0
VERTEX
8
0
62
255
10
23.187216
20
70.250789
30
0
70
32
0
VERTEX
8
0
62
255
10
23.187216
20
70.265074
30
0
70
32
0
VERTEX
8
0
62
255
10
23.187216
20
70.279359
30
0
70
32
0
VERTEX
8
0
62
255
10
23.187216
20
70.293644
30
0
70
32
0
VERTEX
8
0
62
255
10
23.187216
20
70.307929
30
0
70
32
0
VERTEX
8
0
62
255
10
23.187216
20
70.322214
30
0
70
32
0
VERTEX
8
0
62
255
10
23.187216
20
70.336499
30
0
70
32
0
VERTEX
8
0
62
255
10
23.187216
20
70.350784
30
0
70
32
0
VERTEX
8
0
62
255
10
23.187216
20
70.365069
30
0
70
32
0
VERTEX
8
0
62
255
10
23.187216
20
70.379353
30
0
70
32
0
VERTEX
8
0
62
255
10
23.187216
20
70.393638
30
0
70
32
0
VERTEX
8
0
62
255
10
23.187216
20
70.407923
30
0
70
32
0
VERTEX
8
0
62
255
10
23.187216
20
70.422208
30
0
70
32
0
VERTEX
8
0
62
255
10
23.187216
20
70.436493
30
0
70
32
0
VERTEX
8
0
62
255
10
23.187216
20
70.450778
30
0
70
32
0
VERTEX
8
0
62
255
10
23.187216
20
70.465063
30
0
70
32
0
VERTEX
8
0
62
255
10
23.187216
20
70.479348
30
0
70
32
0
VERTEX
8
0
62
255
10
23.187216
20
70.493633
30
0
70
32
0
VERTEX
8
0
62
255
10
23.187216
20
70.507918
30
0
70
32
0
VERTEX
8
0
62
255
10
23.187216
20
70.522203
30
0
70
32
0
VERTEX
8
0
62
255
10
23.187216
20
70.536488
30
0
70
32
0
VERTEX
8
0
62
255
10
23.187216
20
70.550773
30
0
70
32
0
VERTEX
8
0
62
255
10
23.187216
20
70.565058
30
0
70
32
0
VERTEX
8
0
62
255
10
23.187216
20
70.579343
30
0
70
32
0
VERTEX
8
0
62
255
10
23.187216
20
70.593628
30
0
70
32
0
VERTEX
8
0
62
255
10
23.187216
20
70.607913
30
0
70
32
0
VERTEX
8
0
62
255
10
23.187216
20
70.622198
30
0
70
32
0
VERTEX
8
0
62
255
10
23.187216
20
70.636483
30
0
70
32
0
VERTEX
8
0
62
255
10
23.187216
20
70.650768
30
0
70
32
0
VERTEX
8
0
62
255
10
23.187216
20
70.665053
30
0
70
32
0
VERTEX
8
0
62
255
10
23.187216
20
70.679338
30
0
70
32
0
VERTEX
8
0
62
255
10
23.187216
20
70.693623
30
0
70
32
0
VERTEX
8
0
62
255
10
23.187216
20
70.707908
30
0
70
32
0
VERTEX
8
0
62
255
10
23.187216
20
70.722193
30
0
70
32
0
VERTEX
8
0
62
255
10
23.187216
20
70.736478
30
0
70
32
0
VERTEX
8
0
62
255
10
23.187216
20
70.750763
30
0
70
32
0
VERTEX
8
0
62
255
10
23.187216
20
70.765048
30
0
70
32
0
VERTEX
8
0
62
255
10
23.187216
20
70.779333
30
0
70
32
0
VERTEX
8
0
62
255
10
23.187216
20
70.793618
30
0
70
32
0
VERTEX
8
0
62
255
10
23.187216
20
70.807903
30
0
70
32
0
VERTEX
8
0
62
255
10
23.187216
20
70.822188
30
0
70
32
0
VERTEX
8
0
62
255
10
23.187216
20
70.836473
30
0
70
32
0
VERTEX
8
0
62
255
10
23.187216
20
70.850758
30
0
70
32
0
VERTEX
8
0
62
255
10
23.187216
20
70.865043
30
0
70
32
0
VERTEX
8
0
62
255
10
23.187216
20
70.879328
30
0
70
32
0
VERTEX
8
0
62
255
10
23.187216
20
70.893613
30
0
70
32
0
VERTEX
8
0
62
255
10
23.187216
20
70.907898
30
0
70
32
0
VERTEX
8
0
62
255
10
23.187216
20
70.922183
30
0
70
32
0
VERTEX
8
0
62
255
10
23.187216
20
70.936468
30
0
70
32
0
VERTEX
8
0
62
255
10
23.187216
20
70.950753
30
0
70
32
0
VERTEX
8
0
62
255
10
23.187216
20
70.965038
30
0
70
32
0
VERTEX
8
0
62
255
10
23.187216
20
70.979323
30
0
70
32
0
VERTEX
8
0
62
255
10
23.187216
20
70.993608
30
0
70
32
0
SEQEND
8
0
0
POLYLINE
8
0
62
255
66
1
10
0
20
0
30
0
70
8
0
VERTEX
8
0
62
255
10
23.187216
20
70.993608
30
0
70
32
0
VERTEX
8
0
62
255
10
22.953001
20
70.773679
30
0
70
32
0
VERTEX
8
0
62
255
10
22.718787
20
70.553749
30
0
70
32
0
VERTEX
8
0
62
255
10
22.484573
20
70.33382
30
0
70
32
0
VERTEX
8
0
62
255
10
22.250359
20
70.113891
30
0
70
32
0
VERTEX
8
0
62
255
10
22.016144
20
69.893961
30
0
70
32
0
VERTEX
8
0
62
255
10
21.78193
20
69.674032
30
0
70
32
0
VERTEX
8
0
62
255
10
21.547716
20
69.454103
30
0
70
32
0
VERTEX
8
0
62
255
10
21.313501
20
69.234173
30
0
70
32
0
VERTEX
8
0
62
255
10
21.079287
20
69.014244
30
0
70
32
0
VERTEX
8
0
62
255
10
20.845073
20
68.794315
30
0
70
32
0
VERTEX
8
0
62
255
10
20.610858
20
68.574385
30
0
70
32
0
VERTEX
8
0
62
255
10
20.376644
20
68.354456
30
0
70
32
0
VERTEX
8
0
62
255
10
20.14243
20
68.134527
30
0
70
32
0
VERTEX
8
0
62
255
10
19.908216
20
67.914597
30
0
70
32
0
VERTEX
8
0
62
255
10
19.674001
20
67.694668
30
0
70
32
0
VERTEX
8
0
62
255
10
19.439787
20
67.474739
30
0
70
32
0
VERTEX
8
0
62
255
10
19.205573
20
67.25481
30
0
70
32
0
VERTEX
8
0
62
255
10
18.971358
20
67.03488
30
0
70
32
0
VERTEX
8
0
62
255
10
18.737144
20
66.814951
30
0
70
32
0
VERTEX
8
0
62
255
10
18.50293
20
66.595022
30
0
70
32
0
VERTEX
8
0
62
255
10
18.268715
20
66.375092
30
0
70
32
0
VERTEX
8
0
62
255
10
18.034501
20
66.155163
30
0
70
32
0
VERTEX
8
0
62
255
10
17.800287
20
65.935234
30
0
70
32
0
VERTEX
8
0
62
255
10
17.566073
20
65.715304
30
0
70
32
0
VERTEX
8
0
62
255
10
17.331858
20
65.495375
30
0
70
32
0
VERTEX
8
0
62
255
10
17.097644
20
65.275446
30
0
70
32
0
VERTEX
8
0
62
255
10
16.86343
20
65.055516
30
0
70
32
0
VERTEX
8
0
62
255
10
16.629215
20
64.835587
30
0
70
32
0
VERTEX
8
0
62
255
10
16.395001
20
64.615658
30
0
70
32
0
VERTEX
8
0
62
255
10
16.160787
20
64.395728
30
0
70
32
0
VERTEX
8
0
62
255
10
15.926572
20
64.175799
30
0
70
32
0
VERTEX
8
0
62
255
10
15.692358
20
63.95587
30
0
70
32
0
VERTEX
8
0
62
255
10
15.458144
20
63.73594
30
0
70
32
0
VERTEX
8
0
62
255
10
15.22393
20
63.516011
30
0
70
32
0
VERTEX
8
0
62
255
10
14.989715
20
63.296082
30
0
70
32
0
VERTEX
8
0
62
255
10
14.755501
20
63.076153
30
0
70
32
0
VERTEX
8
0
62
255
10
14.521287
20
62.856223
30
0
70
32
0
VERTEX
8
0
62
255
10
14.287072
20
62.636294
30
0
70
32
0
VERTEX
8
0
62
255
10
14.052858
20
62.416365
30
0
70
32
0
VERTEX
8
0
62
255
10
13.818644
20
62.196435
30
0
70
32
0
VERTEX
8
0
62
255
10
13.584429
20
61.976506
30
0
70
32
0
VERTEX
8
0
62
255
10
13.350215
20
61.756577
30
0
70
32
0
VERTEX
8
0
62
255
10
13.116001
20
61.536647
30
0
70
32
0
VERTEX
8
0
62
255
10
12.881787
20
61.316718
30
0
70
32
0
VERTEX
8
0
62
255
10
12.647572
20
61.096789
30
0
70
32
0
VERTEX
8
0
62
255
10
12.413358
20
60.876859
30
0
70
32
0
VERTEX
8
0
62
255
10
12.179144
20
60.65693
30
0
70
32
0
VERTEX
8
0
62
255
10
11.944929
20
60.437001
30
0
70
32
0
VERTEX
8
0
62
255
10
11.710715
20
60.217071
30
0
70
32
0
VERTEX
8
0
62
255
10
11.476501
20
59.997142
30
0
70
32
0
VERTEX
8
0
62
255
10
11.242286
20
59.777213
30
0
70
32
0
VERTEX
8
0
62
255
10
11.008072
20
59.557283
30
0
70
32
0
VERTEX
8
0
62
255
10
10.773858
20
59.337354
30
0
70
32
0
VERTEX
8
0
62
255
10
10.539644
20
59.117425
30
0
70
32
0
VERTEX
8
0
62
255
10
10.305429
20
58.897496
30
0
70
32
0
VERTEX
8
0
62
255
10
10.071215
20
58.677566
30
0
70
32
0
VERTEX
8
0
62
255
10
9.8370006
20
58.457637
30
0
70
32
0
VERTEX
8
0
62
255
10
9.6027863
20
58.237708
30
0
70
32
0
VERTEX
8
0
62
255
10
9.368572
20
58.017778
30
0
70
32
0
VERTEX
8
0
62
255
10
9.1343577
20
57.797849
30
0
70
32
0
VERTEX
8
0
62
255
10
8.9001434
20
57.57792
30
0
70
32
0
VERTEX
8
0
62
255
10
8.6659291
20
57.35799
30
0
70
32
0
VERTEX
8
0
62
255
10
8.4317148
20
57.138061
30
0
70
32
0
VERTEX
8
0
62
255
10
8.1975005
20
56.918132
30
0
70
32
0
VERTEX
8
0
62
255
10
7.9632862
20
56.698202
30
0
70
32
0
VERTEX
8
0
62
255
10
7.7290719
20
56.478273
30
0
70
32
0
VERTEX
8
0
62
255
10
7.4948576
20
56.258344
30
0
70
32
0
VERTEX
8
0
62
255
10
7.2606433
20
56.038414
30
0
70
32
0
VERTEX
8
0
62
255
10
7.026429
20
55.818485
30
0
70
32
0
VERTEX
8
0
62
255
10
6.7922147
20
55.598556
30
0
70
32
0
VERTEX
8
0
62
255
10
6.5580004
20
55.378627
30
0
70
32
0
VERTEX
8
0
62
255
10
6.3237861
20
55.158697
30
0
70
32
0
VERTEX
8
0
62
255
10
6.0895718
20
54.938768
30
0
70
32
0
VERTEX
8
0
62
255
10
5.8553575
20
54.718839
30
0
70
32
0
VERTEX
8
0
62
255
10
5.6211432
20
54.498909
30
0
70
32
0
VERTEX
8
0
62
255
10
5.3869289
20
54.27898
30
0
70
32
0
VERTEX
8
0
62
255
10
5.1527146
20
54.059051
30
0
70
32
0
VERTEX
8
0
62
255
10
4.9185003
20
53.839121
30
0
70
32
0
VERTEX
8
0
62
255
10
4.684286
20
53.619192
30
0
70
32
0
VERTEX
8
0
62
255
10
4.4500717
20
53.399263
30
0
70
32
0
VERTEX
8
0
62
255
10
4.2158574
20
53.179333
30
0
70
32
0
VERTEX
8
0
62
255
10
3.9816431
20
52.959404
30
0
70
32
0
VERTEX
8
0
62
255
10
3.7474288
20
52.739475
30
0
70
32
0
VERTEX
8
0
62
255
10
3.5132145
20
52.519545
30
0
70
32
0
VERTEX
8
0
62
255
10
3.2790002
20
52.299616
30
0
70
32
0
VERTEX
8
0
62
255
10
3.0447859
20
52.079687
30
0
70
32
0
VERTEX
8
0
62
255
10
2.8105716
20
51.859757
30
0
70
32
0
VERTEX
8
0
62
255
10
2.5763573
20
51.639828
30
0
70
32
0
VERTEX
8
0
62
255
10
2.342143
20
51.419899
30
0
70
32
0
VERTEX
8
0
62
255
10
2.1079287
20
51.19997
30
0
70
32
0
VERTEX
8
0
62
255
10
1.8737144
20
50.98004
30
0
70
32
0
VERTEX
8
0
62
255
10
1.6395001
20
50.760111
30
0
70
32
0
VERTEX
8
0
62
255
10
1.4052858
20
50.540182
30
0
70
32
0
VERTEX
8
0
62
255
10
1.1710715
20
50.320252
30
0
70
32
0
VERTEX
8
0
62
255
10
0.9368572
20
50.100323
30
0
70
32
0
VERTEX
8
0
62
255
10
0.7026429
20
49.880394
30
0
70
32
0
VERTEX
8
0
62
255
10
0.4684286
20
49.660464
30
0
70
32
0
VERTEX
8
0
62
255
10
0.2342143
20
49.440535
30
0
70
32
0
VERTEX
8
0
62
255
10
0
20
49.220606
30
0
70
32
0
SEQEND
8
0
0
POLYLINE
8
0
62
255
66
1
10
0
20
0
30
0
70
8
0
VERTEX
8
0
62
255
10
0
20
49.220606
30
0
70
32
0
VERTEX
8
0
62
255
10
-0
20
49.206321
30
0
70
32
0
VERTEX
8
0
62
255
10
-0
20
49.192036
30
0
70
32
0
VERTEX
8
0
62
255
10
-0
20
49.177751
30
0
70
32
0
VERTEX
8
0
62
255
10
-0
20
49.163466
30
0
70
32
0
VERTEX
8
0
62
255
10
-0
20
49.149181
30
0
70
32
0
VERTEX
8
0
62
255
10
-0
20
49.134896
30
0
70
32
0
VERTEX
8
0
62
255
10
-0
20
49.120611
30
0
70
32
0
VERTEX
8
0
62
255
10
-0
20
49.106326
30
0
70
32
0
VERTEX
8
0
62
255
10
-0
20
49.092041
30
0
70
32
0
VERTEX
8
0
62
255
10
-0
20
49.077756
30
0
70
32
0
VERTEX
8
0
62
255
10
-0
20
49.063471
30
0
70
32
0
VERTEX
8
0
62
255
10
-0
20
49.049186
30
0
70
32
0
VERTEX
8
0
62
255
10
-0
20
49.034901
30
0
70
32
0
VERTEX
8
0
62
255
10
-0
20
49.020616
30
0
70
32
0
VERTEX
8
0
62
255
10
-0
20
49.006331
30
0
70
32
0
VERTEX
8
0
62
255
10
-0
20
48.992046
30
0
70
32
0
VERTEX
8
0
62
255
10
-0
20
48.977761
30
0
70
32
0
VERTEX
8
0
62
255
10
-0
20
48.963476
30
0
70
32
0
VERTEX
8
0
62
255
10
-0
20
48.949191
30
0
70
32
0
VERTEX
8
0
62
255
10
-0
20
48.934906
30
0
70
32
0
VERTEX
8
0
62
255
10
-0
20
48.920621
30
0
70
32
0
VERTEX
8
0
62
255
10
-0
20
48.906336
30
0
70
32
0
VERTEX
8
0
62
255
10
-0
20
48.892051
30
0
70
32
0
VERTEX
8
0
62
255
10
-0
20
48.877766
30
0
70
32
0
VERTEX
8
0
62
255
10
-0
20
48.863481
30
0
70
32
0
VERTEX
8
0
62
255
10
-0
20
48.849196
30
0
70
32
0
VERTEX
8
0
62
255
10
-0
20
48.834911
30
0
70
32
0
VERTEX
8
0
62
255
10
-0
20
48.820626
30
0
70
32
0
VERTEX
8
0
62
255
10
-0
20
48.806341
30
0
70
32
0
VERTEX
8
0
62
255
10
-0
20
48.792056
30
0
70
32
0
VERTEX
8
0
62
255
10
-0
20
48.777771
30
0
70
32
0
VERTEX
8
0
62
255
10
-0
20
48.763486
30
0
70
32
0
VERTEX
8
0
62
255
10
-0
20
48.749201
30
0
70
32
0
VERTEX
8
0
62
255
10
-0
20
48.734916
30
0
70
32
0
VERTEX
8
0
62
255
10
-0
20
48.720631
30
0
70
32
0
VERTEX
8
0
62
255
10
-0
20
48.706346
30
0
70
32
0
VERTEX
8
0
62
255
10
-0
20
48.692061
30
0
70
32
0
VERTEX
8
0
62
255
10
-0
20
48.677776
30
0
70
32
0
VERTEX
8
0
62
255
10
-0
20
48.663491
30
0
70
32
0
VERTEX
8
0
62
255
10
-0
20
48.649206
30
0
70
32
0
VERTEX
8
0
62
255
10
-0
20
48.634921
30
0
70
32
0
VERTEX
8
0
62
255
10
-0
20
48.620636
30
0
70
32
0
VERTEX
8
0
62
255
10
-0
20
48.606351
30
0
70
32
0
VERTEX
8
0
62
255
10
-0
20
48.592066
30
0
70
32
0
VERTEX
8
0
62
255
10
-0
20
48.577781
30
0
70
32
0
VERTEX
8
0
62
255
10
-0
20
48.563496
30
0
70
32
0
VERTEX
8
0
62
255
10
-0
20
48.549211
30
0
70
32
0
VERTEX
8
0
62
255
10
-0
20
48.534926
30
0
70
32
0
VERTEX
8
0
62
255
10
-0
20
48.520641
30
0
70
32
0
VERTEX
8
0
62
255
10
0
20
48.506356
30
0
70
32
0
VERTEX
8
0
62
255
10
0
20
48.492071
30
0
70
32
0
VERTEX
8
0
62
255
10
0
20
48.477786
30
0
70
32
0
VERTEX
8
0
62
255
10
0
20
48.463501
30
0
70
32
0
VERTEX
8
0
62
255
10
0
20
48.449216
30
0
70
32
0
VERTEX
8
0
62
255
10
0
20
48.434931
30
0
70
32
0
VERTEX
8
0
62
255
10
0
20
48.420647
30
0
70
32
0
VERTEX
8
0
62
255
10
0
20
48.406362
30
0
70
32
0
VERTEX
8
0
62
255
10
0
20
48.392077
30
0
70
32
0
VERTEX
8
0
62
255
10
0
20
48.377792
30
0
70
32
0
VERTEX
8
0
62
255
10
0
20
48.363507
30
0
70
32
0
VERTEX
8
0
62
255
10
0
20
48.349222
30
0
70
32
0
VERTEX
8
0
62
255
10
0
20
48.334937
30
0
70
32
0
VERTEX
8
0
62
255
10
0
20
48.320652
30
0
70
32
0
VERTEX
8
0
62
255
10
0
20
48.306367
30
0
70
32
0
VERTEX
8
0
62
255
10
0
20
48.292082
30
0
70
32
0
VERTEX
8
0
62
255
10
0
20
48.277797
30
0
70
32
0
VERTEX
8
0
62
255
10
0
20
48.263512
30
0
70
32
0
VERTEX
8
0
62
255
10
0
20
48.249227
30
0
70
32
0
VERTEX
8
0
62
255
10
0
20
48.234942
30
0
70
32
0
VERTEX
8
0
62
255
10
0
20
48.220657
30
0
70
32
0
VERTEX
8
0
62
255
10
0
20
48.206372
30
0
70
32
0
VERTEX
8
0
62
255
10
0
20
48.192087
30
0
70
32
0
VERTEX
8
0
62
255
10
0
20
48.177802
30
0
70
32
0
VERTEX
8
0
62
255
10
0
20
48.163517
30
0
70
32
0
VERTEX
8
0
62
255
10
0
20
48.149232
30
0
70
32
0
VERTEX
8
0
62
255
10
0
20
48.134947
30
0
70
32
0
VERTEX
8
0
62
255
10
0
20
48.120662
30
0
70
32
0
VERTEX
8
0
62
255
10
0
20
48.106377
30
0
70
32
0
VERTEX
8
0
62
255
10
0
20
48.092092
30
0
70
32
0
VERTEX
8
0
62
255
10
0
20
48.077807
30
0
70
32
0
VERTEX
8
0
62
255
10
0
20
48.063522
30
0
70
32
0
VERTEX
8
0
62
255
10
0
20
48.049237
30
0
70
32
0
VERTEX
8
0
62
255
10
0
20
48.034952
30
0
70
32
0
VERTEX
8
0
62
255
10
0
20
48.020667
30
0
70
32
0
VERTEX
8
0
62
255
10
0
20
48.006382
30
0
70
32
0
VERTEX
8
0
62
255
10
0
20
47.992097
30
0
70
32
0
VERTEX
8
0
62
255
10
0
20
47.977812
30
0
70
32
0
VERTEX
8
0
62
255
10
0
20
47.963527
30
0
70
32
0
VERTEX
8
0
62
255
10
0
20
47.949242
30
0
70
32
0
VERTEX
8
0
62
255
10
0
20
47.934957
30
0
70
32
0
VERTEX
8
0
62
255
10
0
20
47.920672
30
0
70
32
0
VERTEX
8
0
62
255
10
0
20
47.906387
30
0
70
32
0
VERTEX
8
0
62
255
10
0
20
47.892102
30
0
70
32
0
VERTEX
8
0
62
255
10
0
20
47.877817
30
0
70
32
0
VERTEX
8
0
62
255
10
0
20
47.863532
30
0
70
32
0
VERTEX
8
0
62
255
10
0
20
47.849247
30
0
70
32
0
VERTEX
8
0
62
255
10
0
20
47.834962
30
0
70
32
0
VERTEX
8
0
62
255
10
0
20
47.820677
30
0
70
32
0
VERTEX
8
0
62
255
10
0
20
47.806392
30
0
70
32
0
SEQEND
8
0
0
POLYLINE
8
0
62
255
66
1
10
0
20
0
30
0
70
8
0
VERTEX
8
0
62
255
10
0
20
69.579394
30
0
70
32
0
VERTEX
8
0
62
255
10
0.2342143
20
69.359465
30
0
70
32
0
VERTEX
8
0
62
255
10
0.4684286
20
69.139536
30
0
70
32
0
VERTEX
8
0
62
255
10
0.7026429
20
68.919606
30
0
70
32
0
VERTEX
8
0
62
255
10
0.9368572
20
68.699677
30
0
70
32
0
VERTEX
8
0
62
255
10
1.1710715
20
68.479748
30
0
70
32
0
VERTEX
8
0
62
255
10
1.4052858
20
68.259818
30
0
70
32
0
VERTEX
8
0
62
255
10
1.6395001
20
68.039889
30
0
70
32
0
VERTEX
8
0
62
255
10
1.8737144
20
67.81996
30
0
70
32
0
VERTEX
8
0
62
255
10
2.1079287
20
67.60003
30
0
70
32
0
VERTEX
8
0
62
255
10
2.342143
20
67.380101
30
0
70
32
0
VERTEX
8
0
62
255
10
2.5763573
20
67.160172
30
0
70
32
0
VERTEX
8
0
62
255
10
2.8105716
20
66.940243
30
0
70
32
0
VERTEX
8
0
62
255
10
3.0447859
20
66.720313
30
0
70
32
0
VERTEX
8
0
62
255
10
3.2790002
20
66.500384
30
0
70
32
0
VERTEX
8
0
62
255
10
3.5132145
20
66.280455
30
0
70
32
0
VERTEX
8
0
62
255
10
3.7474288
20
66.060525
30
0
70
32
0
VERTEX
8
0
62
255
10
3.9816431
20
65.840596
30
0
70
32
0
VERTEX
8
0
62
255
10
4.2158574
20
65.620667
30
0
70
32
0
VERTEX
8
0
62
255
10
4.4500717
20
65.400737
30
0
70
32
0
VERTEX
8
0
62
255
10
4.684286
20
65.180808
30
0
70
32
0
VERTEX
8
0
62
255
10
4.9185003
20
64.960879
30
0
70
32
0
VERTEX
8
0
62
255
10
5.1527146
20
64.740949
30
0
70
32
0
VERTEX
8
0
62
255
10
5.3869289
20
64.52102
30
0
70
32
0
VERTEX
8
0
62
255
10
5.6211432
20
64.301091
30
0
70
32
0
VERTEX
8
0
62
255
10
5.8553575
20
64.081161
30
0
70
32
0
VERTEX
8
0
62
255
10
6.0895718
20
63.861232
30
0
70
32
0
VERTEX
8
0
62
255
10
6.3237861
20
63.641303
30
0
70
32
0
VERTEX
8
0
62
255
10
6.5580004
20
63.421373
30
0
70
32
0
VERTEX
8
0
62
255
10
6.7922147
20
63.201444
30
0
70
32
0
VERTEX
8
0
62
255
10
7.026429
20
62.981515
30
0
70
32
0
VERTEX
8
0
62
255
10
7.2606433
20
62.761586
30
0
70
32
0
VERTEX
8
0
62
255
10
7.4948576
20
62.541656
30
0
70
32
0
VERTEX
8
0
62
255
10
7.7290719
20
62.321727
30
0
70
32
0
VERTEX
8
0
62
255
10
7.9632862
20
62.101798
30
0
70
32
0
VERTEX
8
0
62
255
10
8.1975005
20
61.881868
30
0
70
32
0
VERTEX
8
0
62
255
10
8.4317148
20
61.661939
30
0
70
32
0
VERTEX
8
0
62
255
10
8.6659291
20
61.44201
30
0
70
32
0
VERTEX
8
0
62
255
10
8.9001434
20
61.22208
30
0
70
32
0
VERTEX
8
0
62
255
10
9.1343577
20
61.002151
30
0
70
32
0
VERTEX
8
0
62
255
10
9.368572
20
60.782222
30
0
70
32
0
VERTEX
8
0
62
255
10
9.6027863
20
60.562292
30
0
70
32
0
VERTEX
8
0
62
255
10
9.8370006
20
60.342363
30
0
70
32
0
VERTEX
8
0
62
255
10
10.071215
20
60.122434
30
0
70
32
0
VERTEX
8
0
62
255
10
10.305429
20
59.902504
30
0
70
32
0
VERTEX
8
0
62
255
10
10.539644
20
59.682575
30
0
70
32
0
VERTEX
8
0
62
255
10
10.773858
20
59.462646
30
0
70
32
0
VERTEX
8
0
62
255
10
11.008072
20
59.242717
30
0
70
32
0
VERTEX
8
0
62
255
10
11.242286
20
59.022787
30
0
70
32
0
VERTEX
8
0
62
255
10
11.476501
20
58.802858
30
0
70
32
0
VERTEX
8
0
62
255
10
11.710715
20
58.582929
30
0
70
32
0
VERTEX
8
0
62
255
10
11.944929
20
58.362999
30
0
70
32
0
VERTEX
8
0
62
255
10
12.179144
20
58.14307
30
0
70
32
0
VERTEX
8
0
62
255
10
12.413358
20
57.923141
30
0
70
32
0
VERTEX
8
0
62
255
10
12.647572
20
57.703211
30
0
70
32
0
VERTEX
8
0
62
255
10
12.881787
20
57.483282
30
0
70
32
0
VERTEX
8
0
62
255
10
13.116001
20
57.263353
30
0
70
32
0
VERTEX
8
0
62
255
10
13.350215
20
57.043423
30
0
70
32
0
VERTEX
8
0
62
255
10
13.584429
20
56.823494
30
0
70
32
0
VERTEX
8
0
62
255
10
13.818644
20
56.603565
30
0
70
32
0
VERTEX
8
0
62
255
10
14.052858
20
56.383635
30
0
70
32
0
VERTEX
8
0
62
255
10
14.287072
20
56.163706
30
0
70
32
0
VERTEX
8
0
62
255
10
14.521287
20
55.943777
30
0
70
32
0
VERTEX
8
0
62
255
10
14.755501
20
55.723847
30
0
70
32
0
VERTEX
8
0
62
255
10
14.989715
20
55.503918
30
0
70
32
0
VERTEX
8
0
62
255
10
15.22393
20
55.283989
30
0
70
32
0
VERTEX
8
0
62
255
10
15.458144
20
55.06406
30
0
70
32
0
VERTEX
8
0
62
255
10
15.692358
20
54.84413
30
0
70
32
0
VERTEX
8
0
62
255
10
15.926572
20
54.624201
30
0
70
32
0
VERTEX
8
0
62
255
10
16.160787
20
54.404272
30
0
70
32
0
VERTEX
8
0
62
255
10
16.395001
20
54.184342
30
0
70
32
0
VERTEX
8
0
62
255
10
16.629215
20
53.964413
30
0
70
32
0
VERTEX
8
0
62
255
10
16.86343
20
53.744484
30
0
70
32
0
VERTEX
8
0
62
255
10
17.097644
20
53.524554
30
0
70
32
0
VERTEX
8
0
62
255
10
17.331858
20
53.304625
30
0
70
32
0
VERTEX
8
0
62
255
10
17.566073
20
53.084696
30
0
70
32
0
VERTEX
8
0
62
255
10
17.800287
20
52.864766
30
0
70
32
0
VERTEX
8
0
62
255
10
18.034501
20
52.644837
30
0
70
32
0
VERTEX
8
0
62
255
10
18.268715
20
52.424908
30
0
70
32
0
VERTEX
8
0
62
255
10
18.50293
20
52.204978
30
0
70
32
0
VERTEX
8
0
62
255
10
18.737144
20
51.985049
30
0
70
32
0
VERTEX
8
0
62
255
10
18.971358
20
51.76512
30
0
70
32
0
VERTEX
8
0
62
255
10
19.205573
20
51.54519
30
0
70
32
0
VERTEX
8
0
62
255
10
19.439787
20
51.325261
30
0
70
32
0
VERTEX
8
0
62
255
10
19.674001
20
51.105332
30
0
70
32
0
VERTEX
8
0
62
255
10
19.908216
20
50.885403
30
0
70
32
0
VERTEX
8
0
62
255
10
20.14243
20
50.665473
30
0
70
32
0
VERTEX
8
0
62
255
10
20.376644
20
50.445544
30
0
70
32
0
VERTEX
8
0
62
255
10
20.610858
20
50.225615
30
0
70
32
0
VERTEX
8
0
62
255
10
20.845073
20
50.005685
30
0
70
32
0
VERTEX
8
0
62
255
10
21.079287
20
49.785756
30
0
70
32
0
VERTEX
8
0
62
255
10
21.313501
20
49.565827
30
0
70
32
0
VERTEX
8
0
62
255
10
21.547716
20
49.345897
30
0
70
32
0
VERTEX
8
0
62
255
10
21.78193
20
49.125968
30
0
70
32
0
VERTEX
8
0
62
255
10
22.016144
20
48.906039
30
0
70
32
0
VERTEX
8
0
62
255
10
22.250359
20
48.686109
30
0
70
32
0
VERTEX
8
0
62
255
10
22.484573
20
48.46618
30
0
70
32
0
VERTEX
8
0
62
255
10
22.718787
20
48.246251
30
0
70
32
0
VERTEX
8
0
62
255
10
22.953001
20
48.026321
30
0
70
32
0
VERTEX
8
0
62
255
10
23.187216
20
47.806392
30
0
70
32
0
SEQEND
8
0
0
POLYLINE
8
0
62
255
66
1
10
0
20
0
30
0
70
8
0
VERTEX
8
0
62
255
10
23.187216
20
47.806392
30
0
70
32
0
VERTEX
8
0
62
255
10
23.187216
20
47.820677
30
0
70
32
0
VERTEX
8
0
62
255
10
23.187216
20
47.834962
30
0
70
32
0
VERTEX
8
0
62
255
10
23.187216
20
47.849247
30
0
70
32
0
VERTEX
8
0
62
255
10
23.187216
20
47.863532
30
0
70
32
0
VERTEX
8
0
62
255
10
23.187216
20
47.877817
30
0
70
32
0
VERTEX
8
0
62
255
10
23.187216
20
47.892102
30
0
70
32
0
VERTEX
8
0
62
255
10
23.187216
20
47.906387
30
0
70
32
0
VERTEX
8
0
62
255
10
23.187216
20
47.920672
30
0
70
32
0
VERTEX
8
0
62
255
10
23.187216
20
47.934957
30
0
70
32
0
VERTEX
8
0
62
255
10
23.187216
20
47.949242
30
0
70
32
0
VERTEX
8
0
62
255
10
23.187216
20
47.963527
30
0
70
32
0
VERTEX
8
0
62
255
10
23.187216
20
47.977812
30
0
70
32
0
VERTEX
8
0
62
255
10
23.187216
20
47.992097
30
0
70
32
0
VERTEX
8
0
62
255
10
23.187216
20
48.006382
30
0
70
32
0
VERTEX
8
0
62
255
10
23.187216
20
48.020667
30
0
70
32
0
VERTEX
8
0
62
255
10
23.187216
20
48.034952
30
0
70
32
0
VERTEX
8
0
62
255
10
23.187216
20
48.049237
30
0
70
32
0
VERTEX
8
0
62
255
10
23.187216
20
48.063522
30
0
70
32
0
VERTEX
8
0
62
255
10
23.187216
20
48.077807
30
0
70
32
0
VERTEX
8
0
62
255
10
23.187216
20
48.092092
30
0
70
32
0
VERTEX
8
0
62
255
10
23.187216
20
48.106377
30
0
70
32
0
VERTEX
8
0
62
255
10
23.187216
20
48.120662
30
0
70
32
0
VERTEX
8
0
62
255
10
23.187216
20
48.134947
30
0
70
32
0
VERTEX
8
0
62
255
10
23.187216
20
48.149232
30
0
70
32
0
VERTEX
8
0
62
255
10
23.187216
20
48.163517
30
0
70
32
0
VERTEX
8
0
62
255
10
23.187216
20
48.177802
30
0
70
32
0
VERTEX
8
0
62
255
10
23.187216
20
48.192087
30
0
70
32
0
VERTEX
8
0
62
255
10
23.187216
20
48.206372
30
0
70
32
0
VERTEX
8
0
62
255
10
23.187216
20
48.220657
30
0
70
32
0
VERTEX
8
0
62
255
10
23.187216
20
48.234942
30
0
70
32
0
VERTEX
8
0
62
255
10
23.187216
20
48.249227
30
0
70
32
0
VERTEX
8
0
62
255
10
23.187216
20
48.263512
30
0
70
32
0
VERTEX
8
0
62
255
10
23.187216
20
48.277797
30
0
70
32
0
VERTEX
8
0
62
255
10
23.187216
20
48.292082
30
0
70
32
0
VERTEX
8
0
62
255
10
23.187216
20
48.306367
30
0
70
32
0
VERTEX
8
0
62
255
10
23.187216
20
48.320652
30
0
70
32
0
VERTEX
8
0
62
255
10
23.187216
20
48.334937
30
0
70
32
0
VERTEX
8
0
62
255
10
23.187216
20
48.349222
30
0
70
32
0
VERTEX
8
0
62
255
10
23.187216
20
48.363507
30
0
70
32
0
VERTEX
8
0
62
255
10
23.187216
20
48.377792
30
0
70
32
0
VERTEX
8
0
62
255
10
23.187216
20
48.392077
30
0
70
32
0
VERTEX
8
0
62
255
10
23.187216
20
48.406362
30
0
70
32
0
VERTEX
8
0
62
255
10
23.187216
20
48.420647
30
0
70
32
0
VERTEX
8
0
62
255
10
23.187216
20
48.434931
30
0
70
32
0
VERTEX
8
0
62
255
10
23.187216
20
48.449216
30
0
70
32
0
VERTEX
8
0
62
255
10
23.187216
20
48.463501
30
0
70
32
0
VERTEX
8
0
62
255
10
23.187216
20
48.477786
30
0
70
32
0
VERTEX
8
0
62
255
10
23.187216
20
48.492071
30
0
70
32
0
VERTEX
8
0
62
255
10
23.187216
20
48.506356
30
0
70
32
0
VERTEX
8
0
62
255
10
23.187216
20
48.520641
30
0
70
32
0
VERTEX
8
0
62
255
10
23.187216
20
48.534926
30
0
70
32
0
VERTEX
8
0
62
255
10
23.187216
20
48.549211
30
0
70
32
0
VERTEX
8
0
62
255
10
23.187216
20
48.563496
30
0
70
32
0
VERTEX
8
0
62
255
10
23.187216
20
48.577781
30
0
70
32
0
VERTEX
8
0
62
255
10
23.187216
20
48.592066
30
0
70
32
0
VERTEX
8
0
62
255
10
23.187216
20
48.606351
30
0
70
32
0
VERTEX
8
0
62
255
10
23.187216
20
48.620636
30
0
70
32
0
VERTEX
8
0
62
255
10
23.187216
20
48.634921
30
0
70
32
0
VERTEX
8
0
62
255
10
23.187216
20
48.649206
30
0
70
32
0
VERTEX
8
0
62
255
10
23.187216
20
48.663491
30
0
70
32
0
VERTEX
8
0
62
255
10
23.187216
20
48.677776
30
0
70
32
0
VERTEX
8
0
62
255
10
23.187216
20
48.692061
30
0
70
32
0
VERTEX
8
0
62
255
10
23.187216
20
48.706346
30
0
70
32
0
VERTEX
8
0
62
255
10
23.187216
20
48.720631
30
0
70
32
0
VERTEX
8
0
62
255
10
23.187216
20
48.734916
30
0
70
32
0
VERTEX
8
0
62
255
10
23.187216
20
48.749201
30
0
70
32
0
VERTEX
8
0
62
255
10
23.187216
20
48.763486
30
0
70
32
0
VERTEX
8
0
62
255
10
23.187216
20
48.777771
30
0
70
32
0
VERTEX
8
0
62
255
10
23.187216
20
48.792056
30
0
70
32
0
VERTEX
8
0
62
255
10
23.187216
20
48.806341
30
0
70
32
0
VERTEX
8
0
62
255
10
23.187216
20
48.820626
30
0
70
32
0
VERTEX
8
0
62
255
10
23.187216
20
48.834911
30
0
70
32
0
VERTEX
8
0
62
255
10
23.187216
20
48.849196
30
0
70
32
0
VERTEX
8
0
62
255
10
23.187216
20
48.863481
30
0
70
32
0
VERTEX
8
0
62
255
10
23.187216
20
48.877766
30
0
70
32
0
VERTEX
8
0
62
255
10
23.187216
20
48.892051
30
0
70
32
0
VERTEX
8
0
62
255
10
23.187216
20
48.906336
30
0
70
32
0
VERTEX
8
0
62
255
10
23.187216
20
48.920621
30
0
70
32
0
VERTEX
8
0
62
255
10
23.187216
20
48.934906
30
0
70
32
0
VERTEX
8
0
62
255
10
23.187216
20
48.949191
30
0
70
32
0
VERTEX
8
0
62
255
10
23.187216
20
48.963476
30
0
70
32
0
VERTEX
8
0
62
255
10
23.187216
20
48.977761
30
0
70
32
0
VERTEX
8
0
62
255
10
23.187216
20
48.992046
30
0
70
32
0
VERTEX
8
0
62
255
10
23.187216
20
49.006331
30
0
70
32
0
VERTEX
8
0
62
255
10
23.187216
20
49.020616
30
0
70
32
0
VERTEX
8
0
62
255
10
23.187216
20
49.034901
30
0
70
32
0
VERTEX
8
0
62
255
10
23.187216
20
49.049186
30
0
70
32
0
VERTEX
8
0
62
255
10
23.187216
20
49.063471
30
0
70
32
0
VERTEX
8
0
62
255
10
23.187216
20
49.077756
30
0
70
32
0
VERTEX
8
0
62
255
10
23.187216
20
49.092041
30
0
70
32
0
VERTEX
8
0
62
255
10
23.187216
20
49.106326
30
0
70
32
0
VERTEX
8
0
62
255
10
23.187216
20
49.120611
30
0
70
32
0
VERTEX
8
0
62
255
10
23.187216
20
49.134896
30
0
70
32
0
VERTEX
8
0
62
255
10
23.187216
20
49.149181
30
0
70
32
0
VERTEX
8
0
62
255
10
23.187216
20
49.163466
30
0
70
32
0
VERTEX
8
0
62
255
10
23.187216
20
49.177751
30
0
70
32
0
VERTEX
8
0
62
255
10
23.187216
20
49.192036
30
0
70
32
0
VERTEX
8
0
62
255
10
23.187216
20
49.206321
30
0
70
32
0
VERTEX
8
0
62
255
10
23.187216
20
49.220606
30
0
70
32
0
SEQEND
8
0
0
POLYLINE
8
0
62
255
66
1
10
0
20
0
30
0
70
8
0
VERTEX
8
0
62
255
10
23.187216
20
49.220606
30
0
70
32
0
VERTEX
8
0
62
255
10
22.953001
20
49.440535
30
0
70
32
0
VERTEX
8
0
62
255
10
22.718787
20
49.660464
30
0
70
32
0
VERTEX
8
0
62
255
10
22.484573
20
49.880394
30
0
70
32
0
VERTEX
8
0
62
255
10
22.250359
20
50.100323
30
0
70
32
0
VERTEX
8
0
62
255
10
22.016144
20
50.320252
30
0
70
32
0
VERTEX
8
0
62
255
10
21.78193
20
50.540182
30
0
70
32
0
VERTEX
8
0
62
255
10
21.547716
20
50.760111
30
0
70
32
0
VERTEX
8
0
62
255
10
21.313501
20
50.98004
30
0
70
32
0
VERTEX
8
0
62
255
10
21.079287
20
51.19997
30
0
70
32
0
VERTEX
8
0
62
255
10
20.845073
20
51.419899
30
0
70
32
0
VERTEX
8
0
62
255
10
20.610858
20
51.639828
30
0
70
32
0
VERTEX
8
0
62
255
10
20.376644
20
51.859757
30
0
70
32
0
VERTEX
8
0
62
255
10
20.14243
20
52.079687
30
0
70
32
0
VERTEX
8
0
62
255
10
19.908216
20
52.299616
30
0
70
32
0
VERTEX
8
0
62
255
10
19.674001
20
52.519545
30
0
70
32
0
VERTEX
8
0
62
255
10
19.439787
20
52.739475
30
0
70
32
0
VERTEX
8
0
62
255
10
19.205573
20
52.959404
30
0
70
32
0
VERTEX
8
0
62
255
10
18.971358
20
53.179333
30
0
70
32
0
VERTEX
8
0
62
255
10
18.737144
20
53.399263
30
0
70
32
0
VERTEX
8
0
62
255
10
18.50293
20
53.619192
30
0
70
32
0
VERTEX
8
0
62
255
10
18.268715
20
53.839121
30
0
70
32
0
VERTEX
8
0
62
255
10
18.034501
20
54.059051
30
0
70
32
0
VERTEX
8
0
62
255
10
17.800287
20
54.27898
30
0
70
32
0
VERTEX
8
0
62
255
10
17.566073
20
54.498909
30
0
70
32
0
VERTEX
8
0
62
255
10
17.331858
20
54.718839
30
0
70
32
0
VERTEX
8
0
62
255
10
17.097644
20
54.938768
30
0
70
32
0
VERTEX
8
0
62
255
10
16.86343
20
55.158697
30
0
70
32
0
VERTEX
8
0
62
255
10
16.629215
20
55.378627
30
0
70
32
0
VERTEX
8
0
62
255
10
16.395001
20
55.598556
30
0
70
32
0
VERTEX
8
0
62
255
10
16.160787
20
55.818485
30
0
70
32
0
VERTEX
8
0
62
255
10
15.926572
20
56.038414
30
0
70
32
0
VERTEX
8
0
62
255
10
15.692358
20
56.258344
30
0
70
32
0
VERTEX
8
0
62
255
10
15.458144
20
56.478273
30
0
70
32
0
VERTEX
8
0
62
255
10
15.22393
20
56.698202
30
0
70
32
0
VERTEX
8
0
62
255
10
14.989715
20
56.918132
30
0
70
32
0
VERTEX
8
0
62
255
10
14.755501
20
57.138061
30
0
70
32
0
VERTEX
8
0
62
255
10
14.521287
20
57.35799
30
0
70
32
0
VERTEX
8
0
62
255
10
14.287072
20
57.57792
30
0
70
32
0
VERTEX
8
0
62
255
10
14.052858
20
57.797849
30
0
70
32
0
VERTEX
8
0
62
255
10
13.818644
20
58.017778
30
0
70
32
0
VERTEX
8
0
62
255
10
13.584429
20
58.237708
30
0
70
32
0
VERTEX
8
0
62
255
10
13.350215
20
58.457637
30
0
70
32
0
VERTEX
8
0
62
255
10
13.116001
20
58.677566
30
0
70
32
0
VERTEX
8
0
62
255
10
12.881787
20
58.897496
30
0
70
32
0
VERTEX
8
0
62
255
10
12.647572
20
59.117425
30
0
70
32
0
VERTEX
8
0
62
255
10
12.413358
20
59.337354
30
0
70
32
0
VERTEX
8
0
62
255
10
12.179144
20
59.557283
30
0
70
32
0
VERTEX
8
0
62
255
10
11.944929
20
59.777213
30
0
70
32
0
VERTEX
8
0
62
255
10
11.710715
20
59.997142
30
0
70
32
0
VERTEX
8
0
62
255
10
11.476501
20
60.217071
30
0
70
32
0
VERTEX
8
0
62
255
10
11.242286
20
60.437001
30
0
70
32
0
VERTEX
8
0
62
255
10
11.008072
20
60.65693
30
0
70
32
0
VERTEX
8
0
62
255
10
10.773858
20
60.876859
30
0
70
32
0
VERTEX
8
0
62
255
10
10.539644
20
61.096789
30
0
70
32
0
VERTEX
8
0
62
255
10
10.305429
20
61.316718
30
0
70
32
0
VERTEX
8
0
62
255
10
10.071215
20
61.536647
30
0
70
32
0
VERTEX
8
0
62
255
10
9.8370006
20
61.756577
30
0
70
32
0
VERTEX
8
0
62
255
10
9.6027863
20
61.976506
30
0
70
32
0
VERTEX
8
0
62
255
10
9.368572
20
62.196435
30
0
70
32
0
VERTEX
8
0
62
255
10
9.1343577
20
62.416365
30
0
70
32
0
VERTEX
8
0
62
255
10
8.9001434
20
62.636294
30
0
70
32
0
VERTEX
8
0
62
255
10
8.6659291
20
62.856223
30
0
70
32
0
VERTEX
8
0
62
255
10
8.4317148
20
63.076153
30
0
70
32
0
VERTEX
8
0
62
255
10
8.1975005
20
63.296082
30
0
70
32
0
VERTEX
8
0
62
255
10
7.9632862
20
63.516011
30
0
70
32
0
VERTEX
8
0
62
255
10
7.7290719
20
63.73594
30
0
70
32
0
VERTEX
8
0
62
255
10
7.4948576
20
63.95587
30
0
70
32
0
VERTEX
8
0
62
255
10
7.2606433
20
64.175799
30
0
70
32
0
VERTEX
8
0
62
255
10
7.026429
20
64.395728
30
0
70
32
0
VERTEX
8
0
62
255
10
6.7922147
20
64.615658
30
0
70
32
0
VERTEX
8
0
62
255
10
6.5580004
20
64.835587
30
0
70
32
0
VERTEX
8
0
62
255
10
6.3237861
20
65.055516
30
0
70
32
0
VERTEX
8
0
62
255
10
6.0895718
20
65.275446
30
0
70
32
0
VERTEX
8
0
62
255
10
5.8553575
20
65.495375
30
0
70
32
0
VERTEX
8
0
62
255
10
5.6211432
20
65.715304
30
0
70
32
0
VERTEX
8
0
62
255
10
5.3869289
20
65.935234
30
0
70
32
0
VERTEX
8
0
62
255
10
5.1527146
20
66.155163
30
0
70
32
0
VERTEX
8
0
62
255
10
4.9185003
20
66.375092
30
0
70
32
0
VERTEX
8
0
62
255
10
4.684286
20
66.595022
30
0
70
32
0
VERTEX
8
0
62
255
10
4.4500717
20
66.814951
30
0
70
32
0
VERTEX
8
0
62
255
10
4.2158574
20
67.03488
30
0
70
32
0
VERTEX
8
0
62
255
10
3.9816431
20
67.25481
30
0
70
32
0
VERTEX
8
0
62
255
10
3.7474288
20
67.474739
30
0
70
32
0
VERTEX
8
0
62
255
10
3.5132145
20
67.694668
30
0
70
32
0
VERTEX
8
0
62
255
10
3.2790002
20
67.914597
30
0
70
32
0
VERTEX
8
0
62
255
10
3.0447859
20
68.134527
30
0
70
32
0
VERTEX
8
0
62
255
10
2.8105716
20
68.354456
30
0
70
32
0
VERTEX
8
0
62
255
10
2.5763573
20
68.574385
30
0
70
32
0
VERTEX
8
0
62
255
10
2.342143
20
68.794315
30
0
70
32
0
VERTEX
8
0
62
255
10
2.1079287
20
69.014244
30
0
70
32
0
VERTEX
8
0
62
255
10
1.8737144
20
69.234173
30
0
70
32
0
VERTEX
8
0
62
255
10
1.6395001
20
69.454103
30
0
70
32
0
VERTEX
8
0
62
255
10
1.4052858
20
69.674032
30
0
70
32
0
VERTEX
8
0
62
255
10
1.1710715
20
69.893961
30
0
70
32
0
VERTEX
8
0
62
255
10
0.9368572
20
70.113891
30
0
70
32
0
VERTEX
8
0
62
255
10
0.7026429
20
70.33382
30
0
70
32
0
VERTEX
8
0
62
255
10
0.4684286
20
70.553749
30
0
70
32
0
VERTEX
8
0
62
255
10
0.2342143
20
70.773679
30
0
70
32
0
VERTEX
8
0
62
255
10
0
20
70.993608
30
0
70
32
0
SEQEND
8
0
0
POLYLINE
8
0
62
255
66
1
10
0
20
0
30
0
70
8
0
VERTEX
8
0
62
255
10
0
20
70.993608
30
0
70
32
0
VERTEX
8
0
62
255
10
-0
20
70.979323
30
0
70
32
0
VERTEX
8
0
62
255
10
-0
20
70.965038
30
0
70
32
0
VERTEX
8
0
62
255
10
-0
20
70.950753
30
0
70
32
0
VERTEX
8
0
62
255
10
-0
20
70.936468
30
0
70
32
0
VERTEX
8
0
62
255
10
-0
20
70.922183
30
0
70
32
0
VERTEX
8
0
62
255
10
-0
20
70.907898
30
0
70
32
0
VERTEX
8
0
62
255
10
-0
20
70.893613
30
0
70
32
0
VERTEX
8
0
62
255
10
-0
20
70.879328
30
0
70
32
0
VERTEX
8
0
62
255
10
-0
20
70.865043
30
0
70
32
0
VERTEX
8
0
62
255
10
-0
20
70.850758
30
0
70
32
0
VERTEX
8
0
62
255
10
-0
20
70.836473
30
0
70
32
0
VERTEX
8
0
62
255
10
-0
20
70.822188
30
0
70
32
0
VERTEX
8
0
62
255
10
-0
20
70.807903
30
0
70
32
0
VERTEX
8
0
62
255
10
-0
20
70.793618
30
0
70
32
0
VERTEX
8
0
62
255
10
-0
20
70.779333
30
0
70
32
0
VERTEX
8
0
62
255
10
-0
20
70.765048
30
0
70
32
0
VERTEX
8
0
62
255
10
-0
20
70.750763
30
0
70
32
0
VERTEX
8
0
62
255
10
-0
20
70.736478
30
0
70
32
0
VERTEX
8
0
62
255
10
-0
20
70.722193
30
0
70
32
0
VERTEX
8
0
62
255
10
-0
20
70.707908
30
0
70
32
0
VERTEX
8
0
62
255
10
-0
20
70.693623
30
0
70
32
0
VERTEX
8
0
62
255
10
-0
20
70.679338
30
0
70
32
0
VERTEX
8
0
62
255
10
-0
20
70.665053
30
0
70
32
0
VERTEX
8
0
62
255
10
-0
20
70.650768
30
0
70
32
0
VERTEX
8
0
62
255
10
-0
20
70.636483
30
0
70
32
0
VERTEX
8
0
62
255
10
-0
20
70.622198
30
0
70
32
0
VERTEX
8
0
62
255
10
-0
20
70.607913
30
0
70
32
0
VERTEX
8
0
62
255
10
-0
20
70.593628
30
0
70
32
0
VERTEX
8
0
62
255
10
-0
20
70.579343
30
0
70
32
0
VERTEX
8
0
62
255
10
-0
20
70.565058
30
0
70
32
0
VERTEX
8
0
62
255
10
-0
20
70.550773
30
0
70
32
0
VERTEX
8
0
62
255
10
-0
20
70.536488
30
0
70
32
0
VERTEX
8
0
62
255
10
-0
20
70.522203
30
0
70
32
0
VERTEX
8
0
62
255
10
-0
20
70.507918
30
0
70
32
0
VERTEX
8
0
62
255
10
-0
20
70.493633
30
0
70
32
0
VERTEX
8
0
62
255
10
-0
20
70.479348
30
0
70
32
0
VERTEX
8
0
62
255
10
-0
20
70.465063
30
0
70
32
0
VERTEX
8
0
62
255
10
-0
20
70.450778
30
0
70
32
0
VERTEX
8
0
62
255
10
-0
20
70.436493
30
0
70
32
0
VERTEX
8
0
62
255
10
-0
20
70.422208
30
0
70
32
0
VERTEX
8
0
62
255
10
-0
20
70.407923
30
0
70
32
0
VERTEX
8
0
62
255
10
-0
20
70.393638
30
0
70
32
0
VERTEX
8
0
62
255
10
-0
20
70.379353
30
0
70
32
0
VERTEX
8
0
62
255
10
-0
20
70.365069
30
0
70
32
0
VERTEX
8
0
62
255
10
-0
20
70.350784
30
0
70
32
0
VERTEX
8
0
62
255
10
-0
20
70.336499
30
0
70
32
0
VERTEX
8
0
62
255
10
-0
20
70.322214
30
0
70
32
0
VERTEX
8
0
62
255
10
-0
20
70.307929
30
0
70
32
0
VERTEX
8
0
62
255
10
-0
20
70.293644
30
0
70
32
0
VERTEX
8
0
62
255
10
0
20
70.279359
30
0
70
32
0
VERTEX
8
0
62
255
10
0
20
70.265074
30
0
70
32
0
VERTEX
8
0
62
255
10
0
20
70.250789
30
0
70
32
0
VERTEX
8
0
62
255
10
0
20
70.236504
30
0
70
32
0
VERTEX
8
0
62
255
10
0
20
70.222219
30
0
70
32
0
VERTEX
8
0
62
255
10
0
20
70.207934
30
0
70
32
0
VERTEX
8
0
62
255
10
0
20
70.193649
30
0
70
32
0
VERTEX
8
0
62
255
10
0
20
70.179364
30
0
70
32
0
VERTEX
8
0
62
255
10
0
20
70.165079
30
0
70
32
0
VERTEX
8
0
62
255
10
0
20
70.150794
30
0
70
32
0
VERTEX
8
0
62
255
10
0
20
70.136509
30
0
70
32
0
VERTEX
8
0
62
255
10
0
20
70.122224
30
0
70
32
0
VERTEX
8
0
62
255
10
0
20
70.107939
30
0
70
32
0
VERTEX
8
0
62
255
10
0
20
70.093654
30
0
70
32
0
VERTEX
8
0
62
255
10
0
20
70.079369
30
0
70
32
0
VERTEX
8
0
62
255
10
0
20
70.065084
30
0
70
32
0
VERTEX
8
0
62
255
10
0
20
70.050799
30
0
70
32
0
VERTEX
8
0
62
255
10
0
20
70.036514
30
0
70
32
0
VERTEX
8
0
62
255
10
0
20
70.022229
30
0
70
32
0
VERTEX
8
0
62
255
10
0
20
70.007944
30
0
70
32
0
VERTEX
8
0
62
255
10
0
20
69.993659
30
0
70
32
0
VERTEX
8
0
62
255
10
0
20
69.979374
30
0
70
32
0
VERTEX
8
0
62
255
10
0
20
69.965089
30
0
70
32
0
VERTEX
8
0
62
255
10
0
20
69.950804
30
0
70
32
0
VERTEX
8
0
62
255
10
0
20
69.936519
30
0
70
32
0
VERTEX
8
0
62
255
10
0
20
69.922234
30
0
70
32
0
VERTEX
8
0
62
255
10
0
20
69.907949
30
0
70
32
0
VERTEX
8
0
62
255
10
0
20
69.893664
30
0
70
32
0
VERTEX
8
0
62
255
10
0
20
69.879379
30
0
70
32
0
VERTEX
8
0
62
255
10
0
20
69.865094
30
0
70
32
0
VERTEX
8
0
62
255
10
0
20
69.850809
30
0
70
32
0
VERTEX
8
0
62
255
10
0
20
69.836524
30
0
70
32
0
VERTEX
8
0
62
255
10
0
20
69.822239
30
0
70
32
0
VERTEX
8
0
62
255
10
0
20
69.807954
30
0
70
32
0
VERTEX
8
0
62
255
10
0
20
69.793669
30
0
70
32
0
VERTEX
8
0
62
255
10
0
20
69.779384
30
0
70
32
0
VERTEX
8
0
62
255
10
0
20
69.765099
30
0
70
32
0
VERTEX
8
0
62
255
10
0
20
69.750814
30
0
70
32
0
VERTEX
8
0
62
255
10
0
20
69.736529
30
0
70
32
0
VERTEX
8
0
62
255
10
0
20
69.722244
30
0
70
32
0
VERTEX
8
0
62
255
10
0
20
69.707959
30
0
70
32
0
VERTEX
8
0
62
255
10
0
20
69.693674
30
0
70
32
0
VERTEX
8
0
62
255
10
0
20
69.679389
30
0
70
32
0
VERTEX
8
0
62
255
10
0
20
69.665104
30
0
70
32
0
VERTEX
8
0
62
255
10
0
20
69.650819
30
0
70
32
0
VERTEX
8
0
62
255
10
0
20
69.636534
30
0
70
32
0
VERTEX
8
0
62
255
10
0
20
69.622249
30
0
70
32
0
VERTEX
8
0
62
255
10
0
20
69.607964
30
0
70
32
0
VERTEX
8
0
62
255
10
0
20
69.593679
30
0
70
32
0
VERTEX
8
0
62
255
10
0
20
69.579394
30
0
70
32
0
SEQEND
8
0
0
POLYLINE
8
0
62
255
66
1
10
0
20
0
30
0
70
8
0
VERTEX
8
0
62
255
10
0
20
70.993608
30
0
70
32
0
VERTEX
8
0
62
255
10
-0
20
70.979323
30
0
70
32
0
VERTEX
8
0
62
255
10
-0
20
70.965038
30
0
70
32
0
VERTEX
8
0
62
255
10
-0
20
70.950753
30
0
70
32
0
VERTEX
8
0
62
255
10
-0
20
70.936468
30
0
70
32
0
VERTEX
8
0
62
255
10
-0
20
70.922183
30
0
70
32
0
VERTEX
8
0
62
255
10
-0
20
70.907898
30
0
70
32
0
VERTEX
8
0
62
255
10
-0
20
70.893613
30
0
70
32
0
VERTEX
8
0
62
255
10
-0
20
70.879328
30
0
70
32
0
VERTEX
8
0
62
255
10
-0
20
70.865043
30
0
70
32
0
VERTEX
8
0
62
255
10
-0
20
70.850758
30
0
70
32
0
VERTEX
8
0
62
255
10
-0
20
70.836473
30
0
70
32
0
VERTEX
8
0
62
255
10
-0
20
70.822188
30
0
70
32
0
VERTEX
8
0
62
255
10
-0
20
70.807903
30
0
70
32
0
VERTEX
8
0
62
255
10
-0
20
70.793618
30
0
70
32
0
VERTEX
8
0
62
255
10
-0
20
70.779333
30
0
70
32
0
VERTEX
8
0
62
255
10
-0
20
70.765048
30
0
70
32
0
VERTEX
8
0
62
255
10
-0
20
70.750763
30
0
70
32
0
VERTEX
8
0
62
255
10
-0
20
70.736478
30
0
70
32
0
VERTEX
8
0
62
255
10
-0
20
70.722193
30
0
70
32
0
VERTEX
8
0
62
255
10
-0
20
70.707908
30
0
70
32
0
VERTEX
8
0
62
255
10
-0
20
70.693623
30
0
70
32
0
VERTEX
8
0
62
255
10
-0
20
70.679338
30
0
70
32
0
VERTEX
8
0
62
255
10
-0
20
70.665053
30
0
70
32
0
VERTEX
8
0
62
255
10
-0
20
70.650768
30
0
70
32
0
VERTEX
8
0
62
255
10
-0
20
70.636483
30
0
70
32
0
VERTEX
8
0
62
255
10
-0
20
70.622198
30
0
70
32
0
VERTEX
8
0
62
255
10
-0
20
70.607913
30
0
70
32
0
VERTEX
8
0
62
255
10
-0
20
70.593628
30
0
70
32
0
VERTEX
8
0
62
255
10
-0
20
70.579343
30
0
70
32
0
VERTEX
8
0
62
255
10
-0
20
70.565058
30
0
70
32
0
VERTEX
8
0
62
255
10
-0
20
70.550773
30
0
70
32
0
VERTEX
8
0
62
255
10
-0
20
70.536488
30
0
70
32
0
VERTEX
8
0
62
255
10
-0
20
70.522203
30
0
70
32
0
VERTEX
8
0
62
255
10
-0
20
70.507918
30
0
70
32
0
VERTEX
8
0
62
255
10
-0
20
70.493633
30
0
70
32
0
VERTEX
8
0
62
255
10
-0
20
70.479348
30
0
70
32
0
VERTEX
8
0
62
255
10
-0
20
70.465063
30
0
70
32
0
VERTEX
8
0
62
255
10
-0
20
70.450778
30
0
70
32
0
VERTEX
8
0
62
255
10
-0
20
70.436493
30
0
70
32
0
VERTEX
8
0
62
255
10
-0
20
70.422208
30
0
70
32
0
VERTEX
8
0
62
255
10
-0
20
70.407923
30
0
70
32
0
VERTEX
8
0
62
255
10
-0
20
70.393638
30
0
70
32
0
VERTEX
8
0
62
255
10
-0
20
70.379353
30
0
70
32
0
VERTEX
8
0
62
255
10
-0
20
70.365069
30
0
70
32
0
VERTEX
8
0
62
255
10
-0
20
70.350784
30
0
70
32
0
VERTEX
8
0
62
255
10
-0
20
70.336499
30
0
70
32
0
VERTEX
8
0
62
255
10
-0
20
70.322214
30
0
70
32
0
VERTEX
8
0
62
255
10
-0
20
70.307929
30
0
70
32
0
VERTEX
8
0
62
255
10
-0
20
70.293644
30
0
70
32
0
VERTEX
8
0
62
255
10
0
20
70.279359
30
0
70
32
0
VERTEX
8
0
62
255
10
0
20
70.265074
30
0
70
32
0
VERTEX
8
0
62
255
10
0
20
70.250789
30
0
70
32
0
VERTEX
8
0
62
255
10
0
20
70.236504
30
0
70
32
0
VERTEX
8
0
62
255
10
0
20
70.222219
30
0
70
32
0
VERTEX
8
0
62
255
10
0
20
70.207934
30
0
70
32
0
VERTEX
8
0
62
255
10
0
20
70.193649
30
0
70
32
0
VERTEX
8
0
62
255
10
0
20
70.179364
30
0
70
32
0
VERTEX
8
0
62
255
10
0
20
70.165079
30
0
70
32
0
VERTEX
8
0
62
255
10
0
20
70.150794
30
0
70
32
0
VERTEX
8
0
62
255
10
0
20
70.136509
30
0
70
32
0
VERTEX
8
0
62
255
10
0
20
70.122224
30
0
70
32
0
VERTEX
8
0
62
255
10
0
20
70.107939
30
0
70
32
0
VERTEX
8
0
62
255
10
0
20
70.093654
30
0
70
32
0
VERTEX
8
0
62
255
10
0
20
70.079369
30
0
70
32
0
VERTEX
8
0
62
255
10
0
20
70.065084
30
0
70
32
0
VERTEX
8
0
62
255
10
0
20
70.050799
30
0
70
32
0
VERTEX
8
0
62
255
10
0
20
70.036514
30
0
70
32
0
VERTEX
8
0
62
255
10
0
20
70.022229
30
0
70
32
0
VERTEX
8
0
62
255
10
0
20
70.007944
30
0
70
32
0
VERTEX
8
0
62
255
10
0
20
69.993659
30
0
70
32
0
VERTEX
8
0
62
255
10
0
20
69.979374
30
0
70
32
0
VERTEX
8
0
62
255
10
0
20
69.965089
30
0
70
32
0
VERTEX
8
0
62
255
10
0
20
69.950804
30
0
70
32
0
VERTEX
8
0
62
255
10
0
20
69.936519
30
0
70
32
0
VERTEX
8
0
62
255
10
0
20
69.922234
30
0
70
32
0
VERTEX
8
0
62
255
10
0
20
69.907949
30
0
70
32
0
VERTEX
8
0
62
255
10
0
20
69.893664
30
0
70
32
0
VERTEX
8
0
62
255
10
0
20
69.879379
30
0
70
32
0
VERTEX
8
0
62
255
10
0
20
69.865094
30
0
70
32
0
VERTEX
8
0
62
255
10
0
20
69.850809
30
0
70
32
0
VERTEX
8
0
62
255
10
0
20
69.836524
30
0
70
32
0
VERTEX
8
0
62
255
10
0
20
69.822239
30
0
70
32
0
VERTEX
8
0
62
255
10
0
20
69.807954
30
0
70
32
0
VERTEX
8
0
62
255
10
0
20
69.793669
30
0
70
32
0
VERTEX
8
0
62
255
10
0
20
69.779384
30
0
70
32
0
VERTEX
8
0
62
255
10
0
20
69.765099
30
0
70
32
0
VERTEX
8
0
62
255
10
0
20
69.750814
30
0
70
32
0
VERTEX
8
0
62
255
10
0
20
69.736529
30
0
70
32
0
VERTEX
8
0
62
255
10
0
20
69.722244
30
0
70
32
0
VERTEX
8
0
62
255
10
0
20
69.707959
30
0
70
32
0
VERTEX
8
0
62
255
10
0
20
69.693674
30
0
70
32
0
VERTEX
8
0
62
255
10
0
20
69.679389
30
0
70
32
0
VERTEX
8
0
62
255
10
0
20
69.665104
30
0
70
32
0
VERTEX
8
0
62
255
10
0
20
69.650819
30
0
70
32
0
VERTEX
8
0
62
255
10
0
20
69.636534
30
0
70
32
0
VERTEX
8
0
62
255
10
0
20
69.622249
30
0
70
32
0
VERTEX
8
0
62
255
10
0
20
69.607964
30
0
70
32
0
VERTEX
8
0
62
255
10
0
20
69.593679
30
0
70
32
0
VERTEX
8
0
62
255
10
0
20
69.579394
30
0
70
32
0
SEQEND
8
0
0
ENDSEC
0
EOF
