0
SECTION
2
HEADER
9
$ACADVER
1
AC1006
9
$INSUNITS
70
6
0
ENDSEC
0
SECTION
2
ENTITIES
0
POLYLINE
8
0
62
255
66
1
10
0
20
0
30
0
70
8
0
VERTEX
8
0
62
255
10
0
20
0
30
0
70
32
0
VERTEX
8
0
62
255
10
-0
20
1.2
30
0
70
32
0
VERTEX
8
0
62
255
10
-0
20
2.4
30
0
70
32
0
VERTEX
8
0
62
255
10
-0
20
3.6
30
0
70
32
0
VERTEX
8
0
62
255
10
-0
20
4.8
30
0
70
32
0
VERTEX
8
0
62
255
10
-0
20
6
30
0
70
32
0
VERTEX
8
0
62
255
10
-0
20
7.2
30
0
70
32
0
VERTEX
8
0
62
255
10
-0
20
8.4
30
0
70
32
0
VERTEX
8
0
62
255
10
-0
20
9.6
30
0
70
32
0
VERTEX
8
0
62
255
10
-0
20
10.8
30
0
70
32
0
VERTEX
8
0
62
255
10
-0
20
12
30
0
70
32
0
VERTEX
8
0
62
255
10
-0
20
13.2
30
0
70
32
0
VERTEX
8
0
62
255
10
-0
20
14.4
30
0
70
32
0
VERTEX
8
0
62
255
10
-0
20
15.6
30
0
70
32
0
VERTEX
8
0
62
255
10
-0
20
16.8
30
0
70
32
0
VERTEX
8
0
62
255
10
-0
20
18
30
0
70
32
0
VERTEX
8
0
62
255
10
-0
20
19.2
30
0
70
32
0
VERTEX
8
0
62
255
10
-0
20
20.4
30
0
70
32
0
VERTEX
8
0
62
255
10
-0
20
21.6
30
0
70
32
0
VERTEX
8
0
62
255
10
-0
20
22.8
30
0
70
32
0
VERTEX
8
0
62
255
10
-0
20
24
30
0
70
32
0
VERTEX
8
0
62
255
10
-0
20
25.2
30
0
70
32
0
VERTEX
8
0
62
255
10
-0
20
26.4
30
0
70
32
0
VERTEX
8
0
62
255
10
-0
20
27.6
30
0
70
32
0
VERTEX
8
0
62
255
10
-0
20
28.8
30
0
70
32
0
VERTEX
8
0
62
255
10
-0
20
30
30
0
70
32
0
VERTEX
8
0
62
255
10
-0
20
31.2
30
0
70
32
0
VERTEX
8
0
62
255
10
-0
20
32.4
30
0
70
32
0
VERTEX
8
0
62
255
10
-0
20
33.6
30
0
70
32
0
VERTEX
8
0
62
255
10
-0
20
34.8
30
0
70
32
0
VERTEX
8
0
62
255
10
-0
20
36
30
0
70
32
0
VERTEX
8
0
62
255
10
-0
20
37.2
30
0
70
32
0
VERTEX
8
0
62
255
10
-0
20
38.4
30
0
70
32
0
VERTEX
8
0
62
255
10
-0
20
39.6
30
0
70
32
0
VERTEX
8
0
62
255
10
-0
20
40.8
30
0
70
32
0
VERTEX
8
0
62
255
10
-0
20
42
30
0
70
32
0
VERTEX
8
0
62
255
10
-0
20
43.2
30
0
70
32
0
VERTEX
8
0
62
255
10
-0
20
44.4
30
0
70
32
0
VERTEX
8
0
62
255
10
-0
20
45.6
30
0
70
32
0
VERTEX
8
0
62
255
10
-0
20
46.8
30
0
70
32
0
VERTEX
8
0
62
255
10
-0
20
48
30
0
70
32
0
VERTEX
8
0
62
255
10
-0
20
49.2
30
0
70
32
0
VERTEX
8
0
62
255
10
-0
20
50.4
30
0
70
32
0
VERTEX
8
0
62
255
10
-0
20
51.6
30
0
70
32
0
VERTEX
8
0
62
255
10
-0
20
52.8
30
0
70
32
0
VERTEX
8
0
62
255
10
-0
20
54
30
0
70
32
0
VERTEX
8
0
62
255
10
-0
20
55.2
30
0
70
32
0
VERTEX
8
0
62
255
10
-0
20
56.4
30
0
70
32
0
VERTEX
8
0
62
255
10
-0
20
57.6
30
0
70
32
0
VERTEX
8
0
62
255
10
-0
20
58.8
30
0
70
32
0
VERTEX
8
0
62
255
10
0
20
60
30
0
70
32
0
VERTEX
8
0
62
255
10
0
20
61.2
30
0
70
32
0
VERTEX
8
0
62
255
10
0
20
62.4
30
0
70
32
0
VERTEX
8
0
62
255
10
0
20
63.6
30
0
70
32
0
VERTEX
8
0
62
255
10
0
20
64.8
30
0
70
32
0
VERTEX
8
0
62
255
10
0
20
66
30
0
70
32
0
VERTEX
8
0
62
255
10
0
20
67.2
30
0
70
32
0
VERTEX
8
0
62
255
10
0
20
68.4
30
0
70
32
0
VERTEX
8
0
62
255
10
0
20
69.6
30
0
70
32
0
VERTEX
8
0
62
255
10
0
20
70.8
30
0
70
32
0
VERTEX
8
0
62
255
10
0
20
72
30
0
70
32
0
VERTEX
8
0
62
255
10
0
20
73.2
30
0
70
32
0
VERTEX
8
0
62
255
10
0
20
74.4
30
0
70
32
0
VERTEX
8
0
62
255
10
0
20
75.6
30
0
70
32
0
VERTEX
8
0
62
255
10
0
20
76.8
30
0
70
32
0
VERTEX
8
0
62
255
10
0
20
78
30
0
70
32
0
VERTEX
8
0
62
255
10
0
20
79.2
30
0
70
32
0
VERTEX
8
0
62
255
10
0
20
80.4
30
0
70
32
0
VERTEX
8
0
62
255
10
0
20
81.6
30
0
70
32
0
VERTEX
8
0
62
255
10
0
20
82.8
30
0
70
32
0
VERTEX
8
0
62
255
10
0
20
84
30
0
70
32
0
VERTEX
8
0
62
255
10
0
20
85.2
30
0
70
32
0
VERTEX
8
0
62
255
10
0
20
86.4
30
0
70
32
0
VERTEX
8
0
62
255
10
0
20
87.6
30
0
70
32
0
VERTEX
8
0
62
255
10
0
20
88.8
30
0
70
32
0
VERTEX
8
0
62
255
10
0
20
90
30
0
70
32
0
VERTEX
8
0
62
255
10
0
20
91.2
30
0
70
32
0
VERTEX
8
0
62
255
10
0
20
92.4
30
0
70
32
0
VERTEX
8
0
62
255
10
0
20
93.6
30
0
70
32
0
VERTEX
8
0
62
255
10
0
20
94.8
30
0
70
32
0
VERTEX
8
0
62
255
10
0
20
96
30
0
70
32
0
VERTEX
8
0
62
255
10
0
20
97.2
30
0
70
32
0
VERTEX
8
0
62
255
10
0
20
98.4
30
0
70
32
0
VERTEX
8
0
62
255
10
0
20
99.6
30
0
70
32
0
VERTEX
8
0
62
255
10
0
20
100.8
30
0
70
32
0
VERTEX
8
0
62
255
10
0
20
102
30
0
70
32
0
VERTEX
8
0
62
255
10
0
20
103.2
30
0
70
32
0
VERTEX
8
0
62
255
10
0
20
104.4
30
0
70
32
0
VERTEX
8
0
62
255
10
0
20
105.6
30
0
70
32
0
VERTEX
8
0
62
255
10
0
20
106.8
30
0
70
32
0
VERTEX
8
0
62
255
10
0
20
108
30
0
70
32
0
VERTEX
8
0
62
255
10
0
20
109.2
30
0
70
32
0
VERTEX
8
0
62
255
10
0
20
110.4
30
0
70
32
0
VERTEX
8
0
62
255
10
0
20
111.6
30
0
70
32
0
VERTEX
8
0
62
255
10
0
20
112.8
30
0
70
32
0
VERTEX
8
0
62
255
10
0
20
114
30
0
70
32
0
VERTEX
8
0
62
255
10
0
20
115.2
30
0
70
32
0
VERTEX
8
0
62
255
10
0
20
116.4
30
0
70
32
0
VERTEX
8
0
62
255
10
0
20
117.6
30
0
70
32
0
VERTEX
8
0
62
255
10
0
20
118.8
30
0
70
32
0
SEQEND
8
0
0
POLYLINE
8
0
62
255
66
1
10
0
20
0
30
0
70
8
0
VERTEX
8
0
62
255
10
0
20
118.8
30
0
70
32
0
VERTEX
8
0
62
255
10
-0.058553575
20
118.90142
30
0
70
32
0
VERTEX
8
0
62
255
10
-0.11710715
20
119.00284
30
0
70
32
0
VERTEX
8
0
62
255
10
-0.17566073
20
119.10425
30
0
70
32
0
VERTEX
8
0
62
255
10
-0.2342143
20
119.20567
30
0
70
32
0
VERTEX
8
0
62
255
10
-0.29276788
20
119.30709
30
0
70
32
0
VERTEX
8
0
62
255
10
-0.35132145
20
119.40851
30
0
70
32
0
VERTEX
8
0
62
255
10
-0.40987503
20
119.50992
30
0
70
32
0
VERTEX
8
0
62
255
10
-0.4684286
20
119.61134
30
0
70
32
0
VERTEX
8
0
62
255
10
-0.52698218
20
119.71276
30
0
70
32
0
VERTEX
8
0
62
255
10
-0.58553575
20
119.81418
30
0
70
32
0
VERTEX
8
0
62
255
10
-0.64408933
20
119.9156
30
0
70
32
0
VERTEX
8
0
62
255
10
-0.7026429
20
120.01701
30
0
70
32
0
VERTEX
8
0
62
255
10
-0.76119648
20
120.11843
30
0
70
32
0
VERTEX
8
0
62
255
10
-0.81975005
20
120.21985
30
0
70
32
0
VERTEX
8
0
62
255
10
-0.87830363
20
120.32127
30
0
70
32
0
VERTEX
8
0
62
255
10
-0.9368572
20
120.42268
30
0
70
32
0
VERTEX
8
0
62
255
10
-0.99541078
20
120.5241
30
0
70
32
0
VERTEX
8
0
62
255
10
-1.0539644
20
120.62552
30
0
70
32
0
VERTEX
8
0
62
255
10
-1.1125179
20
120.72694
30
0
70
32
0
VERTEX
8
0
62
255
10
-1.1710715
20
120.82836
30
0
70
32
0
VERTEX
8
0
62
255
10
-1.2296251
20
120.92977
30
0
70
32
0
VERTEX
8
0
62
255
10
-1.2881787
20
121.03119
30
0
70
32
0
VERTEX
8
0
62
255
10
-1.3467322
20
121.13261
30
0
70
32
0
VERTEX
8
0
62
255
10
-1.4052858
20
121.23403
30
0
70
32
0
VERTEX
8
0
62
255
10
-1.4638394
20
121.33544
30
0
70
32
0
VERTEX
8
0
62
255
10
-1.522393
20
121.43686
30
0
70
32
0
VERTEX
8
0
62
255
10
-1.5809465
20
121.53828
30
0
70
32
0
VERTEX
8
0
62
255
10
-1.6395001
20
121.6397
30
0
70
32
0
VERTEX
8
0
62
255
10
-1.6980537
20
121.74112
30
0
70
32
0
VERTEX
8
0
62
255
10
-1.7566073
20
121.84253
30
0
70
32
0
VERTEX
8
0
62
255
10
-1.8151608
20
121.94395
30
0
70
32
0
VERTEX
8
0
62
255
10
-1.8737144
20
122.04537
30
0
70
32
0
VERTEX
8
0
62
255
10
-1.932268
20
122.14679
30
0
70
32
0
VERTEX
8
0
62
255
10
-1.9908216
20
122.2482
30
0
70
32
0
VERTEX
8
0
62
255
10
-2.0493751
20
122.34962
30
0
70
32
0
VERTEX
8
0
62
255
10
-2.1079287
20
122.45104
30
0
70
32
0
VERTEX
8
0
62
255
10
-2.1664823
20
122.55246
30
0
70
32
0
VERTEX
8
0
62
255
10
-2.2250359
20
122.65388
30
0
70
32
0
VERTEX
8
0
62
255
10
-2.2835894
20
122.75529
30
0
70
32
0
VERTEX
8
0
62
255
10
-2.342143
20
122.85671
30
0
70
32
0
VERTEX
8
0
62
255
10
-2.4006966
20
122.95813
30
0
70
32
0
VERTEX
8
0
62
255
10
-2.4592502
20
123.05955
30
0
70
32
0
VERTEX
8
0
62
255
10
-2.5178037
20
123.16096
30
0
70
32
0
VERTEX
8
0
62
255
10
-2.5763573
20
123.26238
30
0
70
32
0
VERTEX
8
0
62
255
10
-2.6349109
20
123.3638
30
0
70
32
0
VERTEX
8
0
62
255
10
-2.6934645
20
123.46522
30
0
70
32
0
VERTEX
8
0
62
255
10
-2.752018
20
123.56664
30
0
70
32
0
VERTEX
8
0
62
255
10
-2.8105716
20
123.66805
30
0
70
32
0
VERTEX
8
0
62
255
10
-2.8691252
20
123.76947
30
0
70
32
0
VERTEX
8
0
62
255
10
-2.9276788
20
123.87089
30
0
70
32
0
VERTEX
8
0
62
255
10
-2.9862323
20
123.97231
30
0
70
32
0
VERTEX
8
0
62
255
10
-3.0447859
20
124.07372
30
0
70
32
0
VERTEX
8
0
62
255
10
-3.1033395
20
124.17514
30
0
70
32
0
VERTEX
8
0
62
255
10
-3.1618931
20
124.27656
30
0
70
32
0
VERTEX
8
0
62
255
10
-3.2204466
20
124.37798
30
0
70
32
0
VERTEX
8
0
62
255
10
-3.2790002
20
124.47939
30
0
70
32
0
VERTEX
8
0
62
255
10
-3.3375538
20
124.58081
30
0
70
32
0
VERTEX
8
0
62
255
10
-3.3961074
20
124.68223
30
0
70
32
0
VERTEX
8
0
62
255
10
-3.4546609
20
124.78365
30
0
70
32
0
VERTEX
8
0
62
255
10
-3.5132145
20
124.88507
30
0
70
32
0
VERTEX
8
0
62
255
10
-3.5717681
20
124.98648
30
0
70
32
0
VERTEX
8
0
62
255
10
-3.6303217
20
125.0879
30
0
70
32
0
VERTEX
8
0
62
255
10
-3.6888752
20
125.18932
30
0
70
32
0
VERTEX
8
0
62
255
10
-3.7474288
20
125.29074
30
0
70
32
0
VERTEX
8
0
62
255
10
-3.8059824
20
125.39215
30
0
70
32
0
VERTEX
8
0
62
255
10
-3.864536
20
125.49357
30
0
70
32
0
VERTEX
8
0
62
255
10
-3.9230895
20
125.59499
30
0
70
32
0
VERTEX
8
0
62
255
10
-3.9816431
20
125.69641
30
0
70
32
0
VERTEX
8
0
62
255
10
-4.0401967
20
125.79783
30
0
70
32
0
VERTEX
8
0
62
255
10
-4.0987503
20
125.89924
30
0
70
32
0
VERTEX
8
0
62
255
10
-4.1573038
20
126.00066
30
0
70
32
0
VERTEX
8
0
62
255
10
-4.2158574
20
126.10208
30
0
70
32
0
VERTEX
8
0
62
255
10
-4.274411
20
126.2035
30
0
70
32
0
VERTEX
8
0
62
255
10
-4.3329646
20
126.30491
30
0
70
32
0
VERTEX
8
0
62
255
10
-4.3915181
20
126.40633
30
0
70
32
0
VERTEX
8
0
62
255
10
-4.4500717
20
126.50775
30
0
70
32
0
VERTEX
8
0
62
255
10
-4.5086253
20
126.60917
30
0
70
32
0
VERTEX
8
0
62
255
10
-4.5671789
20
126.71059
30
0
70
32
0
VERTEX
8
0
62
255
10
-4.6257324
20
126.812
30
0
70
32
0
VERTEX
8
0
62
255
10
-4.684286
20
126.91342
30
0
70
32
0
VERTEX
8
0
62
255
10
-4.7428396
20
127.01484
30
0
70
32
0
VERTEX
8
0
62
255
10
-4.8013932
20
127.11626
30
0
70
32
0
VERTEX
8
0
62
255
10
-4.8599467
20
127.21767
30
0
70
32
0
VERTEX
8
0
62
255
10
-4.9185003
20
127.31909
30
0
70
32
0
VERTEX
8
0
62
255
10
-4.9770539
20
127.42051
30
0
70
32
0
VERTEX
8
0
62
255
10
-5.0356075
20
127.52193
30
0
70
32
0
VERTEX
8
0
62
255
10
-5.094161
20
127.62335
30
0
70
32
0
VERTEX
8
0
62
255
10
-5.1527146
20
127.72476
30
0
70
32
0
VERTEX
8
0
62
255
10
-5.2112682
20
127.82618
30
0
70
32
0
VERTEX
8
0
62
255
10
-5.2698218
20
127.9276
30
0
70
32
0
VERTEX
8
0
62
255
10
-5.3283753
20
128.02902
30
0
70
32
0
VERTEX
8
0
62
255
10
-5.3869289
20
128.13043
30
0
70
32
0
VERTEX
8
0
62
255
10
-5.4454825
20
128.23185
30
0
70
32
0
VERTEX
8
0
62
255
10
-5.5040361
20
128.33327
30
0
70
32
0
VERTEX
8
0
62
255
10
-5.5625896
20
128.43469
30
0
70
32
0
VERTEX
8
0
62
255
10
-5.6211432
20
128.53611
30
0
70
32
0
VERTEX
8
0
62
255
10
-5.6796968
20
128.63752
30
0
70
32
0
VERTEX
8
0
62
255
10
-5.7382504
20
128.73894
30
0
70
32
0
VERTEX
8
0
62
255
10
-5.7968039
20
128.84036
30
0
70
32
0
SEQEND
8
0
0
POLYLINE
8
0
62
255
66
1
10
0
20
0
30
0
70
8
0
VERTEX
8
0
62
255
10
-5.7968039
20
128.84036
30
0
70
32
0
VERTEX
8
0
62
255
10
-5.6770578
20
128.90949
30
0
70
32
0
VERTEX
8
0
62
255
10
-5.5573116
20
128.97863
30
0
70
32
0
VERTEX
8
0
62
255
10
-5.4375654
20
129.04777
30
0
70
32
0
VERTEX
8
0
62
255
10
-5.3178192
20
129.1169
30
0
70
32
0
VERTEX
8
0
62
255
10
-5.198073
20
129.18604
30
0
70
32
0
VERTEX
8
0
62
255
10
-5.0783269
20
129.25517
30
0
70
32
0
VERTEX
8
0
62
255
10
-4.9585807
20
129.32431
30
0
70
32
0
VERTEX
8
0
62
255
10
-4.8388345
20
129.39344
30
0
70
32
0
VERTEX
8
0
62
255
10
-4.7190883
20
129.46258
30
0
70
32
0
VERTEX
8
0
62
255
10
-4.5993421
20
129.53171
30
0
70
32
0
VERTEX
8
0
62
255
10
-4.479596
20
129.60085
30
0
70
32
0
VERTEX
8
0
62
255
10
-4.3598498
20
129.66998
30
0
70
32
0
VERTEX
8
0
62
255
10
-4.2401036
20
129.73912
30
0
70
32
0
VERTEX
8
0
62
255
10
-4.1203574
20
129.80826
30
0
70
32
0
VERTEX
8
0
62
255
10
-4.0006112
20
129.87739
30
0
70
32
0
VERTEX
8
0
62
255
10
-3.8808651
20
129.94653
30
0
70
32
0
VERTEX
8
0
62
255
10
-3.7611189
20
130.01566
30
0
70
32
0
VERTEX
8
0
62
255
10
-3.6413727
20
130.0848
30
0
70
32
0
VERTEX
8
0
62
255
10
-3.5216265
20
130.15393
30
0
70
32
0
VERTEX
8
0
62
255
10
-3.4018803
20
130.22307
30
0
70
32
0
VERTEX
8
0
62
255
10
-3.2821342
20
130.2922
30
0
70
32
0
VERTEX
8
0
62
255
10
-3.162388
20
130.36134
30
0
70
32
0
VERTEX
8
0
62
255
10
-3.0426418
20
130.43048
30
0
70
32
0
VERTEX
8
0
62
255
10
-2.9228956
20
130.49961
30
0
70
32
0
VERTEX
8
0
62
255
10
-2.8031494
20
130.56875
30
0
70
32
0
VERTEX
8
0
62
255
10
-2.6834033
20
130.63788
30
0
70
32
0
VERTEX
8
0
62
255
10
-2.5636571
20
130.70702
30
0
70
32
0
VERTEX
8
0
62
255
10
-2.4439109
20
130.77615
30
0
70
32
0
VERTEX
8
0
62
255
10
-2.3241647
20
130.84529
30
0
70
32
0
VERTEX
8
0
62
255
10
-2.2044185
20
130.91442
30
0
70
32
0
VERTEX
8
0
62
255
10
-2.0846724
20
130.98356
30
0
70
32
0
VERTEX
8
0
62
255
10
-1.9649262
20
131.05269
30
0
70
32
0
VERTEX
8
0
62
255
10
-1.84518
20
131.12183
30
0
70
32
0
VERTEX
8
0
62
255
10
-1.7254338
20
131.19097
30
0
70
32
0
VERTEX
8
0
62
255
10
-1.6056876
20
131.2601
30
0
70
32
0
VERTEX
8
0
62
255
10
-1.4859415
20
131.32924
30
0
70
32
0
VERTEX
8
0
62
255
10
-1.3661953
20
131.39837
30
0
70
32
0
VERTEX
8
0
62
255
10
-1.2464491
20
131.46751
30
0
70
32
0
VERTEX
8
0
62
255
10
-1.1267029
20
131.53664
30
0
70
32
0
VERTEX
8
0
62
255
10
-1.0069567
20
131.60578
30
0
70
32
0
VERTEX
8
0
62
255
10
-0.88721056
20
131.67491
30
0
70
32
0
VERTEX
8
0
62
255
10
-0.76746438
20
131.74405
30
0
70
32
0
VERTEX
8
0
62
255
10
-0.6477182
20
131.81318
30
0
70
32
0
VERTEX
8
0
62
255
10
-0.52797202
20
131.88232
30
0
70
32
0
VERTEX
8
0
62
255
10
-0.40822584
20
131.95146
30
0
70
32
0
VERTEX
8
0
62
255
10
-0.28847966
20
132.02059
30
0
70
32
0
VERTEX
8
0
62
255
10
-0.16873348
20
132.08973
30
0
70
32
0
VERTEX
8
0
62
255
10
-0.048987303
20
132.15886
30
0
70
32
0
VERTEX
8
0
62
255
10
0.070758876
20
132.228
30
0
70
32
0
VERTEX
8
0
62
255
10
0.19050506
20
132.29713
30
0
70
32
0
VERTEX
8
0
62
255
10
0.31025124
20
132.36627
30
0
70
32
0
VERTEX
8
0
62
255
10
0.42999742
20
132.4354
30
0
70
32
0
VERTEX
8
0
62
255
10
0.5497436
20
132.50454
30
0
70
32
0
VERTEX
8
0
62
255
10
0.66948978
20
132.57368
30
0
70
32
0
VERTEX
8
0
62
255
10
0.78923596
20
132.64281
30
0
70
32
0
VERTEX
8
0
62
255
10
0.90898214
20
132.71195
30
0
70
32
0
VERTEX
8
0
62
255
10
1.0287283
20
132.78108
30
0
70
32
0
VERTEX
8
0
62
255
10
1.1484745
20
132.85022
30
0
70
32
0
VERTEX
8
0
62
255
10
1.2682207
20
132.91935
30
0
70
32
0
VERTEX
8
0
62
255
10
1.3879669
20
132.98849
30
0
70
32
0
VERTEX
8
0
62
255
10
1.507713
20
133.05762
30
0
70
32
0
VERTEX
8
0
62
255
10
1.6274592
20
133.12676
30
0
70
32
0
VERTEX
8
0
62
255
10
1.7472054
20
133.19589
30
0
70
32
0
VERTEX
8
0
62
255
10
1.8669516
20
133.26503
30
0
70
32
0
VERTEX
8
0
62
255
10
1.9866978
20
133.33417
30
0
70
32
0
VERTEX
8
0
62
255
10
2.1064439
20
133.4033
30
0
70
32
0
VERTEX
8
0
62
255
10
2.2261901
20
133.47244
30
0
70
32
0
VERTEX
8
0
62
255
10
2.3459363
20
133.54157
30
0
70
32
0
VERTEX
8
0
62
255
10
2.4656825
20
133.61071
30
0
70
32
0
VERTEX
8
0
62
255
10
2.5854287
20
133.67984
30
0
70
32
0
VERTEX
8
0
62
255
10
2.7051748
20
133.74898
30
0
70
32
0
VERTEX
8
0
62
255
10
2.824921
20
133.81811
30
0
70
32
0
VERTEX
8
0
62
255
10
2.9446672
20
133.88725
30
0
70
32
0
VERTEX
8
0
62
255
10
3.0644134
20
133.95639
30
0
70
32
0
VERTEX
8
0
62
255
10
3.1841596
20
134.02552
30
0
70
32
0
VERTEX
8
0
62
255
10
3.3039057
20
134.09466
30
0
70
32
0
VERTEX
8
0
62
255
10
3.4236519
20
134.16379
30
0
70
32
0
VERTEX
8
0
62
255
10
3.5433981
20
134.23293
30
0
70
32
0
VERTEX
8
0
62
255
10
3.6631443
20
134.30206
30
0
70
32
0
VERTEX
8
0
62
255
10
3.7828905
20
134.3712
30
0
70
32
0
VERTEX
8
0
62
255
10
3.9026366
20
134.44033
30
0
70
32
0
VERTEX
8
0
62
255
10
4.0223828
20
134.50947
30
0
70
32
0
VERTEX
8
0
62
255
10
4.142129
20
134.5786
30
0
70
32
0
VERTEX
8
0
62
255
10
4.2618752
20
134.64774
30
0
70
32
0
VERTEX
8
0
62
255
10
4.3816214
20
134.71688
30
0
70
32
0
VERTEX
8
0
62
255
10
4.5013675
20
134.78601
30
0
70
32
0
VERTEX
8
0
62
255
10
4.6211137
20
134.85515
30
0
70
32
0
VERTEX
8
0
62
255
10
4.7408599
20
134.92428
30
0
70
32
0
VERTEX
8
0
62
255
10
4.8606061
20
134.99342
30
0
70
32
0
VERTEX
8
0
62
255
10
4.9803522
20
135.06255
30
0
70
32
0
VERTEX
8
0
62
255
10
5.1000984
20
135.13169
30
0
70
32
0
VERTEX
8
0
62
255
10
5.2198446
20
135.20082
30
0
70
32
0
VERTEX
8
0
62
255
10
5.3395908
20
135.26996
30
0
70
32
0
VERTEX
8
0
62
255
10
5.459337
20
135.33909
30
0
70
32
0
VERTEX
8
0
62
255
10
5.5790831
20
135.40823
30
0
70
32
0
VERTEX
8
0
62
255
10
5.6988293
20
135.47737
30
0
70
32
0
VERTEX
8
0
62
255
10
5.8185755
20
135.5465
30
0
70
32
0
VERTEX
8
0
62
255
10
5.9383217
20
135.61564
30
0
70
32
0
VERTEX
8
0
62
255
10
6.0580679
20
135.68477
30
0
70
32
0
SEQEND
8
0
0
POLYLINE
8
0
62
255
66
1
10
0
20
0
30
0
70
8
0
VERTEX
8
0
62
255
10
17.129148
20
135.68477
30
0
70
32
0
VERTEX
8
0
62
255
10
17.060302
20
135.56839
30
0
70
32
0
VERTEX
8
0
62
255
10
16.98901
20
135.45349
30
0
70
32
0
VERTEX
8
0
62
255
10
16.915304
20
135.34012
30
0
70
32
0
VERTEX
8
0
62
255
10
16.839215
20
135.22834
30
0
70
32
0
VERTEX
8
0
62
255
10
16.760779
20
135.11819
30
0
70
32
0
VERTEX
8
0
62
255
10
16.680031
20
135.00973
30
0
70
32
0
VERTEX
8
0
62
255
10
16.597006
20
134.903
30
0
70
32
0
VERTEX
8
0
62
255
10
16.511742
20
134.79804
30
0
70
32
0
VERTEX
8
0
62
255
10
16.424277
20
134.69492
30
0
70
32
0
VERTEX
8
0
62
255
10
16.33465
20
134.59367
30
0
70
32
0
VERTEX
8
0
62
255
10
16.242901
20
134.49434
30
0
70
32
0
VERTEX
8
0
62
255
10
16.149071
20
134.39697
30
0
70
32
0
VERTEX
8
0
62
255
10
16.053203
20
134.3016
30
0
70
32
0
VERTEX
8
0
62
255
10
15.955339
20
134.20829
30
0
70
32
0
VERTEX
8
0
62
255
10
15.855523
20
134.11707
30
0
70
32
0
VERTEX
8
0
62
255
10
15.753799
20
134.02798
30
0
70
32
0
VERTEX
8
0
62
255
10
15.650214
20
133.94106
30
0
70
32
0
VERTEX
8
0
62
255
10
15.544813
20
133.85635
30
0
70
32
0
VERTEX
8
0
62
255
10
15.437644
20
133.77389
30
0
70
32
0
VERTEX
8
0
62
255
10
15.328754
20
133.69372
30
0
70
32
0
VERTEX
8
0
62
255
10
15.218193
20
133.61587
30
0
70
32
0
VERTEX
8
0
62
255
10
15.106009
20
133.54037
30
0
70
32
0
VERTEX
8
0
62
255
10
14.992254
20
133.46726
30
0
70
32
0
VERTEX
8
0
62
255
10
14.876978
20
133.39658
30
0
70
32
0
VERTEX
8
0
62
255
10
14.760232
20
133.32835
30
0
70
32
0
VERTEX
8
0
62
255
10
14.642069
20
133.26261
30
0
70
32
0
VERTEX
8
0
62
255
10
14.522542
20
133.19938
30
0
70
32
0
VERTEX
8
0
62
255
10
14.401704
20
133.13869
30
0
70
32
0
VERTEX
8
0
62
255
10
14.279609
20
133.08057
30
0
70
32
0
VERTEX
8
0
62
255
10
14.156312
20
133.02505
30
0
70
32
0
VERTEX
8
0
62
255
10
14.031868
20
132.97215
30
0
70
32
0
VERTEX
8
0
62
255
10
13.906333
20
132.92189
30
0
70
32
0
VERTEX
8
0
62
255
10
13.779763
20
132.87431
30
0
70
32
0
VERTEX
8
0
62
255
10
13.652215
20
132.8294
30
0
70
32
0
VERTEX
8
0
62
255
10
13.523745
20
132.78721
30
0
70
32
0
VERTEX
8
0
62
255
10
13.394412
20
132.74774
30
0
70
32
0
VERTEX
8
0
62
255
10
13.264272
20
132.71102
30
0
70
32
0
VERTEX
8
0
62
255
10
13.133385
20
132.67706
30
0
70
32
0
VERTEX
8
0
62
255
10
13.001809
20
132.64588
30
0
70
32
0
VERTEX
8
0
62
255
10
12.869602
20
132.61748
30
0
70
32
0
VERTEX
8
0
62
255
10
12.736825
20
132.59189
30
0
70
32
0
VERTEX
8
0
62
255
10
12.603536
20
132.56912
30
0
70
32
0
VERTEX
8
0
62
255
10
12.469794
20
132.54916
30
0
70
32
0
VERTEX
8
0
62
255
10
12.335661
20
132.53205
30
0
70
32
0
VERTEX
8
0
62
255
10
12.201196
20
132.51777
30
0
70
32
0
VERTEX
8
0
62
255
10
12.066458
20
132.50634
30
0
70
32
0
VERTEX
8
0
62
255
10
11.93151
20
132.49776
30
0
70
32
0
VERTEX
8
0
62
255
10
11.796409
20
132.49204
30
0
70
32
0
VERTEX
8
0
62
255
10
11.661218
20
132.48918
30
0
70
32
0
VERTEX
8
0
62
255
10
11.525997
20
132.48918
30
0
70
32
0
VERTEX
8
0
62
255
10
11.390806
20
132.49204
30
0
70
32
0
VERTEX
8
0
62
255
10
11.255706
20
132.49776
30
0
70
32
0
VERTEX
8
0
62
255
10
11.120757
20
132.50634
30
0
70
32
0
VERTEX
8
0
62
255
10
10.98602
20
132.51777
30
0
70
32
0
VERTEX
8
0
62
255
10
10.851555
20
132.53205
30
0
70
32
0
VERTEX
8
0
62
255
10
10.717421
20
132.54916
30
0
70
32
0
VERTEX
8
0
62
255
10
10.58368
20
132.56912
30
0
70
32
0
VERTEX
8
0
62
255
10
10.450391
20
132.59189
30
0
70
32
0
VERTEX
8
0
62
255
10
10.317613
20
132.61748
30
0
70
32
0
VERTEX
8
0
62
255
10
10.185407
20
132.64588
30
0
70
32
0
VERTEX
8
0
62
255
10
10.053831
20
132.67706
30
0
70
32
0
VERTEX
8
0
62
255
10
9.9229435
20
132.71102
30
0
70
32
0
VERTEX
8
0
62
255
10
9.7928041
20
132.74774
30
0
70
32
0
VERTEX
8
0
62
255
10
9.6634705
20
132.78721
30
0
70
32
0
VERTEX
8
0
62
255
10
9.5350008
20
132.8294
30
0
70
32
0
VERTEX
8
0
62
255
10
9.4074524
20
132.87431
30
0
70
32
0
VERTEX
8
0
62
255
10
9.2808824
20
132.92189
30
0
70
32
0
VERTEX
8
0
62
255
10
9.1553474
20
132.97215
30
0
70
32
0
VERTEX
8
0
62
255
10
9.0309036
20
133.02505
30
0
70
32
0
VERTEX
8
0
62
255
10
8.9076067
20
133.08057
30
0
70
32
0
VERTEX
8
0
62
255
10
8.7855119
20
133.13869
30
0
70
32
0
VERTEX
8
0
62
255
10
8.6646739
20
133.19938
30
0
70
32
0
VERTEX
8
0
62
255
10
8.5451466
20
133.26261
30
0
70
32
0
VERTEX
8
0
62
255
10
8.4269837
20
133.32835
30
0
70
32
0
VERTEX
8
0
62
255
10
8.310238
20
133.39658
30
0
70
32
0
VERTEX
8
0
62
255
10
8.1949617
20
133.46726
30
0
70
32
0
VERTEX
8
0
62
255
10
8.0812064
20
133.54037
30
0
70
32
0
VERTEX
8
0
62
255
10
7.969023
20
133.61587
30
0
70
32
0
VERTEX
8
0
62
255
10
7.8584618
20
133.69372
30
0
70
32
0
VERTEX
8
0
62
255
10
7.7495722
20
133.77389
30
0
70
32
0
VERTEX
8
0
62
255
10
7.642403
20
133.85635
30
0
70
32
0
VERTEX
8
0
62
255
10
7.5370021
20
133.94106
30
0
70
32
0
VERTEX
8
0
62
255
10
7.4334167
20
134.02798
30
0
70
32
0
VERTEX
8
0
62
255
10
7.3316931
20
134.11707
30
0
70
32
0
VERTEX
8
0
62
255
10
7.2318769
20
134.20829
30
0
70
32
0
VERTEX
8
0
62
255
10
7.1340127
20
134.3016
30
0
70
32
0
VERTEX
8
0
62
255
10
7.0381444
20
134.39697
30
0
70
32
0
VERTEX
8
0
62
255
10
6.9443148
20
134.49434
30
0
70
32
0
VERTEX
8
0
62
255
10
6.852566
20
134.59367
30
0
70
32
0
VERTEX
8
0
62
255
10
6.762939
20
134.69492
30
0
70
32
0
VERTEX
8
0
62
255
10
6.6754738
20
134.79804
30
0
70
32
0
VERTEX
8
0
62
255
10
6.5902098
20
134.903
30
0
70
32
0
VERTEX
8
0
62
255
10
6.5071849
20
135.00973
30
0
70
32
0
VERTEX
8
0
62
255
10
6.4264364
20
135.11819
30
0
70
32
0
VERTEX
8
0
62
255
10
6.3480005
20
135.22834
30
0
70
32
0
VERTEX
8
0
62
255
10
6.2719121
20
135.34012
30
0
70
32
0
VERTEX
8
0
62
255
10
6.1982054
20
135.45349
30
0
70
32
0
VERTEX
8
0
62
255
10
6.1269134
20
135.56839
30
0
70
32
0
VERTEX
8
0
62
255
10
6.0580679
20
135.68477
30
0
70
32
0
SEQEND
8
0
0
POLYLINE
8
0
62
255
66
1
10
0
20
0
30
0
70
8
0
VERTEX
8
0
62
255
10
17.129148
20
135.68477
30
0
70
32
0
VERTEX
8
0
62
255
10
17.248894
20
135.61564
30
0
70
32
0
VERTEX
8
0
62
255
10
17.36864
20
135.5465
30
0
70
32
0
VERTEX
8
0
62
255
10
17.488386
20
135.47737
30
0
70
32
0
VERTEX
8
0
62
255
10
17.608133
20
135.40823
30
0
70
32
0
VERTEX
8
0
62
255
10
17.727879
20
135.33909
30
0
70
32
0
VERTEX
8
0
62
255
10
17.847625
20
135.26996
30
0
70
32
0
VERTEX
8
0
62
255
10
17.967371
20
135.20082
30
0
70
32
0
VERTEX
8
0
62
255
10
18.087117
20
135.13169
30
0
70
32
0
VERTEX
8
0
62
255
10
18.206863
20
135.06255
30
0
70
32
0
VERTEX
8
0
62
255
10
18.32661
20
134.99342
30
0
70
32
0
VERTEX
8
0
62
255
10
18.446356
20
134.92428
30
0
70
32
0
VERTEX
8
0
62
255
10
18.566102
20
134.85515
30
0
70
32
0
VERTEX
8
0
62
255
10
18.685848
20
134.78601
30
0
70
32
0
VERTEX
8
0
62
255
10
18.805594
20
134.71688
30
0
70
32
0
VERTEX
8
0
62
255
10
18.925341
20
134.64774
30
0
70
32
0
VERTEX
8
0
62
255
10
19.045087
20
134.5786
30
0
70
32
0
VERTEX
8
0
62
255
10
19.164833
20
134.50947
30
0
70
32
0
VERTEX
8
0
62
255
10
19.284579
20
134.44033
30
0
70
32
0
VERTEX
8
0
62
255
10
19.404325
20
134.3712
30
0
70
32
0
VERTEX
8
0
62
255
10
19.524071
20
134.30206
30
0
70
32
0
VERTEX
8
0
62
255
10
19.643818
20
134.23293
30
0
70
32
0
VERTEX
8
0
62
255
10
19.763564
20
134.16379
30
0
70
32
0
VERTEX
8
0
62
255
10
19.88331
20
134.09466
30
0
70
32
0
VERTEX
8
0
62
255
10
20.003056
20
134.02552
30
0
70
32
0
VERTEX
8
0
62
255
10
20.122802
20
133.95639
30
0
70
32
0
VERTEX
8
0
62
255
10
20.242549
20
133.88725
30
0
70
32
0
VERTEX
8
0
62
255
10
20.362295
20
133.81811
30
0
70
32
0
VERTEX
8
0
62
255
10
20.482041
20
133.74898
30
0
70
32
0
VERTEX
8
0
62
255
10
20.601787
20
133.67984
30
0
70
32
0
VERTEX
8
0
62
255
10
20.721533
20
133.61071
30
0
70
32
0
VERTEX
8
0
62
255
10
20.841279
20
133.54157
30
0
70
32
0
VERTEX
8
0
62
255
10
20.961026
20
133.47244
30
0
70
32
0
VERTEX
8
0
62
255
10
21.080772
20
133.4033
30
0
70
32
0
VERTEX
8
0
62
255
10
21.200518
20
133.33417
30
0
70
32
0
VERTEX
8
0
62
255
10
21.320264
20
133.26503
30
0
70
32
0
VERTEX
8
0
62
255
10
21.44001
20
133.19589
30
0
70
32
0
VERTEX
8
0
62
255
10
21.559757
20
133.12676
30
0
70
32
0
VERTEX
8
0
62
255
10
21.679503
20
133.05762
30
0
70
32
0
VERTEX
8
0
62
255
10
21.799249
20
132.98849
30
0
70
32
0
VERTEX
8
0
62
255
10
21.918995
20
132.91935
30
0
70
32
0
VERTEX
8
0
62
255
10
22.038741
20
132.85022
30
0
70
32
0
VERTEX
8
0
62
255
10
22.158487
20
132.78108
30
0
70
32
0
VERTEX
8
0
62
255
10
22.278234
20
132.71195
30
0
70
32
0
VERTEX
8
0
62
255
10
22.39798
20
132.64281
30
0
70
32
0
VERTEX
8
0
62
255
10
22.517726
20
132.57368
30
0
70
32
0
VERTEX
8
0
62
255
10
22.637472
20
132.50454
30
0
70
32
0
VERTEX
8
0
62
255
10
22.757218
20
132.4354
30
0
70
32
0
VERTEX
8
0
62
255
10
22.876965
20
132.36627
30
0
70
32
0
VERTEX
8
0
62
255
10
22.996711
20
132.29713
30
0
70
32
0
VERTEX
8
0
62
255
10
23.116457
20
132.228
30
0
70
32
0
VERTEX
8
0
62
255
10
23.236203
20
132.15886
30
0
70
32
0
VERTEX
8
0
62
255
10
23.355949
20
132.08973
30
0
70
32
0
VERTEX
8
0
62
255
10
23.475695
20
132.02059
30
0
70
32
0
VERTEX
8
0
62
255
10
23.595442
20
131.95146
30
0
70
32
0
VERTEX
8
0
62
255
10
23.715188
20
131.88232
30
0
70
32
0
VERTEX
8
0
62
255
10
23.834934
20
131.81318
30
0
70
32
0
VERTEX
8
0
62
255
10
23.95468
20
131.74405
30
0
70
32
0
VERTEX
8
0
62
255
10
24.074426
20
131.67491
30
0
70
32
0
VERTEX
8
0
62
255
10
24.194172
20
131.60578
30
0
70
32
0
VERTEX
8
0
62
255
10
24.313919
20
131.53664
30
0
70
32
0
VERTEX
8
0
62
255
10
24.433665
20
131.46751
30
0
70
32
0
VERTEX
8
0
62
255
10
24.553411
20
131.39837
30
0
70
32
0
VERTEX
8
0
62
255
10
24.673157
20
131.32924
30
0
70
32
0
VERTEX
8
0
62
255
10
24.792903
20
131.2601
30
0
70
32
0
VERTEX
8
0
62
255
10
24.91265
20
131.19097
30
0
70
32
0
VERTEX
8
0
62
255
10
25.032396
20
131.12183
30
0
70
32
0
VERTEX
8
0
62
255
10
25.152142
20
131.05269
30
0
70
32
0
VERTEX
8
0
62
255
10
25.271888
20
130.98356
30
0
70
32
0
VERTEX
8
0
62
255
10
25.391634
20
130.91442
30
0
70
32
0
VERTEX
8
0
62
255
10
25.51138
20
130.84529
30
0
70
32
0
VERTEX
8
0
62
255
10
25.631127
20
130.77615
30
0
70
32
0
VERTEX
8
0
62
255
10
25.750873
20
130.70702
30
0
70
32
0
VERTEX
8
0
62
255
10
25.870619
20
130.63788
30
0
70
32
0
VERTEX
8
0
62
255
10
25.990365
20
130.56875
30
0
70
32
0
VERTEX
8
0
62
255
10
26.110111
20
130.49961
30
0
70
32
0
VERTEX
8
0
62
255
10
26.229858
20
130.43048
30
0
70
32
0
VERTEX
8
0
62
255
10
26.349604
20
130.36134
30
0
70
32
0
VERTEX
8
0
62
255
10
26.46935
20
130.2922
30
0
70
32
0
VERTEX
8
0
62
255
10
26.589096
20
130.22307
30
0
70
32
0
VERTEX
8
0
62
255
10
26.708842
20
130.15393
30
0
70
32
0
VERTEX
8
0
62
255
10
26.828588
20
130.0848
30
0
70
32
0
VERTEX
8
0
62
255
10
26.948335
20
130.01566
30
0
70
32
0
VERTEX
8
0
62
255
10
27.068081
20
129.94653
30
0
70
32
0
VERTEX
8
0
62
255
10
27.187827
20
129.87739
30
0
70
32
0
VERTEX
8
0
62
255
10
27.307573
20
129.80826
30
0
70
32
0
VERTEX
8
0
62
255
10
27.427319
20
129.73912
30
0
70
32
0
VERTEX
8
0
62
255
10
27.547066
20
129.66998
30
0
70
32
0
VERTEX
8
0
62
255
10
27.666812
20
129.60085
30
0
70
32
0
VERTEX
8
0
62
255
10
27.786558
20
129.53171
30
0
70
32
0
VERTEX
8
0
62
255
10
27.906304
20
129.46258
30
0
70
32
0
VERTEX
8
0
62
255
10
28.02605
20
129.39344
30
0
70
32
0
VERTEX
8
0
62
255
10
28.145796
20
129.32431
30
0
70
32
0
VERTEX
8
0
62
255
10
28.265543
20
129.25517
30
0
70
32
0
VERTEX
8
0
62
255
10
28.385289
20
129.18604
30
0
70
32
0
VERTEX
8
0
62
255
10
28.505035
20
129.1169
30
0
70
32
0
VERTEX
8
0
62
255
10
28.624781
20
129.04777
30
0
70
32
0
VERTEX
8
0
62
255
10
28.744527
20
128.97863
30
0
70
32
0
VERTEX
8
0
62
255
10
28.864273
20
128.90949
30
0
70
32
0
VERTEX
8
0
62
255
10
28.98402
20
128.84036
30
0
70
32
0
SEQEND
8
0
0
POLYLINE
8
0
62
255
66
1
10
0
20
0
30
0
70
8
0
VERTEX
8
0
62
255
10
28.98402
20
128.84036
30
0
70
32
0
VERTEX
8
0
62
255
10
28.925466
20
128.73894
30
0
70
32
0
VERTEX
8
0
62
255
10
28.866913
20
128.63752
30
0
70
32
0
VERTEX
8
0
62
255
10
28.808359
20
128.53611
30
0
70
32
0
VERTEX
8
0
62
255
10
28.749805
20
128.43469
30
0
70
32
0
VERTEX
8
0
62
255
10
28.691252
20
128.33327
30
0
70
32
0
VERTEX
8
0
62
255
10
28.632698
20
128.23185
30
0
70
32
0
VERTEX
8
0
62
255
10
28.574145
20
128.13043
30
0
70
32
0
VERTEX
8
0
62
255
10
28.515591
20
128.02902
30
0
70
32
0
VERTEX
8
0
62
255
10
28.457037
20
127.9276
30
0
70
32
0
VERTEX
8
0
62
255
10
28.398484
20
127.82618
30
0
70
32
0
VERTEX
8
0
62
255
10
28.33993
20
127.72476
30
0
70
32
0
VERTEX
8
0
62
255
10
28.281377
20
127.62335
30
0
70
32
0
VERTEX
8
0
62
255
10
28.222823
20
127.52193
30
0
70
32
0
VERTEX
8
0
62
255
10
28.16427
20
127.42051
30
0
70
32
0
VERTEX
8
0
62
255
10
28.105716
20
127.31909
30
0
70
32
0
VERTEX
8
0
62
255
10
28.047162
20
127.21767
30
0
70
32
0
VERTEX
8
0
62
255
10
27.988609
20
127.11626
30
0
70
32
0
VERTEX
8
0
62
255
10
27.930055
20
127.01484
30
0
70
32
0
VERTEX
8
0
62
255
10
27.871502
20
126.91342
30
0
70
32
0
VERTEX
8
0
62
255
10
27.812948
20
126.812
30
0
70
32
0
VERTEX
8
0
62
255
10
27.754395
20
126.71059
30
0
70
32
0
VERTEX
8
0
62
255
10
27.695841
20
126.60917
30
0
70
32
0
VERTEX
8
0
62
255
10
27.637287
20
126.50775
30
0
70
32
0
VERTEX
8
0
62
255
10
27.578734
20
126.40633
30
0
70
32
0
VERTEX
8
0
62
255
10
27.52018
20
126.30491
30
0
70
32
0
VERTEX
8
0
62
255
10
27.461627
20
126.2035
30
0
70
32
0
VERTEX
8
0
62
255
10
27.403073
20
126.10208
30
0
70
32
0
VERTEX
8
0
62
255
10
27.34452
20
126.00066
30
0
70
32
0
VERTEX
8
0
62
255
10
27.285966
20
125.89924
30
0
70
32
0
VERTEX
8
0
62
255
10
27.227412
20
125.79783
30
0
70
32
0
VERTEX
8
0
62
255
10
27.168859
20
125.69641
30
0
70
32
0
VERTEX
8
0
62
255
10
27.110305
20
125.59499
30
0
70
32
0
VERTEX
8
0
62
255
10
27.051752
20
125.49357
30
0
70
32
0
VERTEX
8
0
62
255
10
26.993198
20
125.39215
30
0
70
32
0
VERTEX
8
0
62
255
10
26.934645
20
125.29074
30
0
70
32
0
VERTEX
8
0
62
255
10
26.876091
20
125.18932
30
0
70
32
0
VERTEX
8
0
62
255
10
26.817537
20
125.0879
30
0
70
32
0
VERTEX
8
0
62
255
10
26.758984
20
124.98648
30
0
70
32
0
VERTEX
8
0
62
255
10
26.70043
20
124.88507
30
0
70
32
0
VERTEX
8
0
62
255
10
26.641877
20
124.78365
30
0
70
32
0
VERTEX
8
0
62
255
10
26.583323
20
124.68223
30
0
70
32
0
VERTEX
8
0
62
255
10
26.52477
20
124.58081
30
0
70
32
0
VERTEX
8
0
62
255
10
26.466216
20
124.47939
30
0
70
32
0
VERTEX
8
0
62
255
10
26.407662
20
124.37798
30
0
70
32
0
VERTEX
8
0
62
255
10
26.349109
20
124.27656
30
0
70
32
0
VERTEX
8
0
62
255
10
26.290555
20
124.17514
30
0
70
32
0
VERTEX
8
0
62
255
10
26.232002
20
124.07372
30
0
70
32
0
VERTEX
8
0
62
255
10
26.173448
20
123.97231
30
0
70
32
0
VERTEX
8
0
62
255
10
26.114894
20
123.87089
30
0
70
32
0
VERTEX
8
0
62
255
10
26.056341
20
123.76947
30
0
70
32
0
VERTEX
8
0
62
255
10
25.997787
20
123.66805
30
0
70
32
0
VERTEX
8
0
62
255
10
25.939234
20
123.56664
30
0
70
32
0
VERTEX
8
0
62
255
10
25.88068
20
123.46522
30
0
70
32
0
VERTEX
8
0
62
255
10
25.822127
20
123.3638
30
0
70
32
0
VERTEX
8
0
62
255
10
25.763573
20
123.26238
30
0
70
32
0
VERTEX
8
0
62
255
10
25.705019
20
123.16096
30
0
70
32
0
VERTEX
8
0
62
255
10
25.646466
20
123.05955
30
0
70
32
0
VERTEX
8
0
62
255
10
25.587912
20
122.95813
30
0
70
32
0
VERTEX
8
0
62
255
10
25.529359
20
122.85671
30
0
70
32
0
VERTEX
8
0
62
255
10
25.470805
20
122.75529
30
0
70
32
0
VERTEX
8
0
62
255
10
25.412252
20
122.65388
30
0
70
32
0
VERTEX
8
0
62
255
10
25.353698
20
122.55246
30
0
70
32
0
VERTEX
8
0
62
255
10
25.295144
20
122.45104
30
0
70
32
0
VERTEX
8
0
62
255
10
25.236591
20
122.34962
30
0
70
32
0
VERTEX
8
0
62
255
10
25.178037
20
122.2482
30
0
70
32
0
VERTEX
8
0
62
255
10
25.119484
20
122.14679
30
0
70
32
0
VERTEX
8
0
62
255
10
25.06093
20
122.04537
30
0
70
32
0
VERTEX
8
0
62
255
10
25.002377
20
121.94395
30
0
70
32
0
VERTEX
8
0
62
255
10
24.943823
20
121.84253
30
0
70
32
0
VERTEX
8
0
62
255
10
24.885269
20
121.74112
30
0
70
32
0
VERTEX
8
0
62
255
10
24.826716
20
121.6397
30
0
70
32
0
VERTEX
8
0
62
255
10
24.768162
20
121.53828
30
0
70
32
0
VERTEX
8
0
62
255
10
24.709609
20
121.43686
30
0
70
32
0
VERTEX
8
0
62
255
10
24.651055
20
121.33544
30
0
70
32
0
VERTEX
8
0
62
255
10
24.592502
20
121.23403
30
0
70
32
0
VERTEX
8
0
62
255
10
24.533948
20
121.13261
30
0
70
32
0
VERTEX
8
0
62
255
10
24.475394
20
121.03119
30
0
70
32
0
VERTEX
8
0
62
255
10
24.416841
20
120.92977
30
0
70
32
0
VERTEX
8
0
62
255
10
24.358287
20
120.82836
30
0
70
32
0
VERTEX
8
0
62
255
10
24.299734
20
120.72694
30
0
70
32
0
VERTEX
8
0
62
255
10
24.24118
20
120.62552
30
0
70
32
0
VERTEX
8
0
62
255
10
24.182627
20
120.5241
30
0
70
32
0
VERTEX
8
0
62
255
10
24.124073
20
120.42268
30
0
70
32
0
VERTEX
8
0
62
255
10
24.065519
20
120.32127
30
0
70
32
0
VERTEX
8
0
62
255
10
24.006966
20
120.21985
30
0
70
32
0
VERTEX
8
0
62
255
10
23.948412
20
120.11843
30
0
70
32
0
VERTEX
8
0
62
255
10
23.889859
20
120.01701
30
0
70
32
0
VERTEX
8
0
62
255
10
23.831305
20
119.9156
30
0
70
32
0
VERTEX
8
0
62
255
10
23.772751
20
119.81418
30
0
70
32
0
VERTEX
8
0
62
255
10
23.714198
20
119.71276
30
0
70
32
0
VERTEX
8
0
62
255
10
23.655644
20
119.61134
30
0
70
32
0
VERTEX
8
0
62
255
10
23.597091
20
119.50992
30
0
70
32
0
VERTEX
8
0
62
255
10
23.538537
20
119.40851
30
0
70
32
0
VERTEX
8
0
62
255
10
23.479984
20
119.30709
30
0
70
32
0
VERTEX
8
0
62
255
10
23.42143
20
119.20567
30
0
70
32
0
VERTEX
8
0
62
255
10
23.362876
20
119.10425
30
0
70
32
0
VERTEX
8
0
62
255
10
23.304323
20
119.00284
30
0
70
32
0
VERTEX
8
0
62
255
10
23.245769
20
118.90142
30
0
70
32
0
VERTEX
8
0
62
255
10
23.187216
20
118.8
30
0
70
32
0
SEQEND
8
0
0
POLYLINE
8
0
62
255
66
1
10
0
20
0
30
0
70
8
0
VERTEX
8
0
62
255
10
23.187216
20
118.8
30
0
70
32
0
VERTEX
8
0
62
255
10
23.187216
20
117.6
30
0
70
32
0
VERTEX
8
0
62
255
10
23.187216
20
116.4
30
0
70
32
0
VERTEX
8
0
62
255
10
23.187216
20
115.2
30
0
70
32
0
VERTEX
8
0
62
255
10
23.187216
20
114
30
0
70
32
0
VERTEX
8
0
62
255
10
23.187216
20
112.8
30
0
70
32
0
VERTEX
8
0
62
255
10
23.187216
20
111.6
30
0
70
32
0
VERTEX
8
0
62
255
10
23.187216
20
110.4
30
0
70
32
0
VERTEX
8
0
62
255
10
23.187216
20
109.2
30
0
70
32
0
VERTEX
8
0
62
255
10
23.187216
20
108
30
0
70
32
0
VERTEX
8
0
62
255
10
23.187216
20
106.8
30
0
70
32
0
VERTEX
8
0
62
255
10
23.187216
20
105.6
30
0
70
32
0
VERTEX
8
0
62
255
10
23.187216
20
104.4
30
0
70
32
0
VERTEX
8
0
62
255
10
23.187216
20
103.2
30
0
70
32
0
VERTEX
8
0
62
255
10
23.187216
20
102
30
0
70
32
0
VERTEX
8
0
62
255
10
23.187216
20
100.8
30
0
70
32
0
VERTEX
8
0
62
255
10
23.187216
20
99.6
30
0
70
32
0
VERTEX
8
0
62
255
10
23.187216
20
98.4
30
0
70
32
0
VERTEX
8
0
62
255
10
23.187216
20
97.2
30
0
70
32
0
VERTEX
8
0
62
255
10
23.187216
20
96
30
0
70
32
0
VERTEX
8
0
62
255
10
23.187216
20
94.8
30
0
70
32
0
VERTEX
8
0
62
255
10
23.187216
20
93.6
30
0
70
32
0
VERTEX
8
0
62
255
10
23.187216
20
92.4
30
0
70
32
0
VERTEX
8
0
62
255
10
23.187216
20
91.2
30
0
70
32
0
VERTEX
8
0
62
255
10
23.187216
20
90
30
0
70
32
0
VERTEX
8
0
62
255
10
23.187216
20
88.8
30
0
70
32
0
VERTEX
8
0
62
255
10
23.187216
20
87.6
30
0
70
32
0
VERTEX
8
0
62
255
10
23.187216
20
86.4
30
0
70
32
0
VERTEX
8
0
62
255
10
23.187216
20
85.2
30
0
70
32
0
VERTEX
8
0
62
255
10
23.187216
20
84
30
0
70
32
0
VERTEX
8
0
62
255
10
23.187216
20
82.8
30
0
70
32
0
VERTEX
8
0
62
255
10
23.187216
20
81.6
30
0
70
32
0
VERTEX
8
0
62
255
10
23.187216
20
80.4
30
0
70
32
0
VERTEX
8
0
62
255
10
23.187216
20
79.2
30
0
70
32
0
VERTEX
8
0
62
255
10
23.187216
20
78
30
0
70
32
0
VERTEX
8
0
62
255
10
23.187216
20
76.8
30
0
70
32
0
VERTEX
8
0
62
255
10
23.187216
20
75.6
30
0
70
32
0
VERTEX
8
0
62
255
10
23.187216
20
74.4
30
0
70
32
0
VERTEX
8
0
62
255
10
23.187216
20
73.2
30
0
70
32
0
VERTEX
8
0
62
255
10
23.187216
20
72
30
0
70
32
0
VERTEX
8
0
62
255
10
23.187216
20
70.8
30
0
70
32
0
VERTEX
8
0
62
255
10
23.187216
20
69.6
30
0
70
32
0
VERTEX
8
0
62
255
10
23.187216
20
68.4
30
0
70
32
0
VERTEX
8
0
62
255
10
23.187216
20
67.2
30
0
70
32
0
VERTEX
8
0
62
255
10
23.187216
20
66
30
0
70
32
0
VERTEX
8
0
62
255
10
23.187216
20
64.8
30
0
70
32
0
VERTEX
8
0
62
255
10
23.187216
20
63.6
30
0
70
32
0
VERTEX
8
0
62
255
10
23.187216
20
62.4
30
0
70
32
0
VERTEX
8
0
62
255
10
23.187216
20
61.2
30
0
70
32
0
VERTEX
8
0
62
255
10
23.187216
20
60
30
0
70
32
0
VERTEX
8
0
62
255
10
23.187216
20
58.8
30
0
70
32
0
VERTEX
8
0
62
255
10
23.187216
20
57.6
30
0
70
32
0
VERTEX
8
0
62
255
10
23.187216
20
56.4
30
0
70
32
0
VERTEX
8
0
62
255
10
23.187216
20
55.2
30
0
70
32
0
VERTEX
8
0
62
255
10
23.187216
20
54
30
0
70
32
0
VERTEX
8
0
62
255
10
23.187216
20
52.8
30
0
70
32
0
VERTEX
8
0
62
255
10
23.187216
20
51.6
30
0
70
32
0
VERTEX
8
0
62
255
10
23.187216
20
50.4
30
0
70
32
0
VERTEX
8
0
62
255
10
23.187216
20
49.2
30
0
70
32
0
VERTEX
8
0
62
255
10
23.187216
20
48
30
0
70
32
0
VERTEX
8
0
62
255
10
23.187216
20
46.8
30
0
70
32
0
VERTEX
8
0
62
255
10
23.187216
20
45.6
30
0
70
32
0
VERTEX
8
0
62
255
10
23.187216
20
44.4
30
0
70
32
0
VERTEX
8
0
62
255
10
23.187216
20
43.2
30
0
70
32
0
VERTEX
8
0
62
255
10
23.187216
20
42
30
0
70
32
0
VERTEX
8
0
62
255
10
23.187216
20
40.8
30
0
70
32
0
VERTEX
8
0
62
255
10
23.187216
20
39.6
30
0
70
32
0
VERTEX
8
0
62
255
10
23.187216
20
38.4
30
0
70
32
0
VERTEX
8
0
62
255
10
23.187216
20
37.2
30
0
70
32
0
VERTEX
8
0
62
255
10
23.187216
20
36
30
0
70
32
0
VERTEX
8
0
62
255
10
23.187216
20
34.8
30
0
70
32
0
VERTEX
8
0
62
255
10
23.187216
20
33.6
30
0
70
32
0
VERTEX
8
0
62
255
10
23.187216
20
32.4
30
0
70
32
0
VERTEX
8
0
62
255
10
23.187216
20
31.2
30
0
70
32
0
VERTEX
8
0
62
255
10
23.187216
20
30
30
0
70
32
0
VERTEX
8
0
62
255
10
23.187216
20
28.8
30
0
70
32
0
VERTEX
8
0
62
255
10
23.187216
20
27.6
30
0
70
32
0
VERTEX
8
0
62
255
10
23.187216
20
26.4
30
0
70
32
0
VERTEX
8
0
62
255
10
23.187216
20
25.2
30
0
70
32
0
VERTEX
8
0
62
255
10
23.187216
20
24
30
0
70
32
0
VERTEX
8
0
62
255
10
23.187216
20
22.8
30
0
70
32
0
VERTEX
8
0
62
255
10
23.187216
20
21.6
30
0
70
32
0
VERTEX
8
0
62
255
10
23.187216
20
20.4
30
0
70
32
0
VERTEX
8
0
62
255
10
23.187216
20
19.2
30
0
70
32
0
VERTEX
8
0
62
255
10
23.187216
20
18
30
0
70
32
0
VERTEX
8
0
62
255
10
23.187216
20
16.8
30
0
70
32
0
VERTEX
8
0
62
255
10
23.187216
20
15.6
30
0
70
32
0
VERTEX
8
0
62
255
10
23.187216
20
14.4
30
0
70
32
0
VERTEX
8
0
62
255
10
23.187216
20
13.2
30
0
70
32
0
VERTEX
8
0
62
255
10
23.187216
20
12
30
0
70
32
0
VERTEX
8
0
62
255
10
23.187216
20
10.8
30
0
70
32
0
VERTEX
8
0
62
255
10
23.187216
20
9.6
30
0
70
32
0
VERTEX
8
0
62
255
10
23.187216
20
8.4
30
0
70
32
0
VERTEX
8
0
62
255
10
23.187216
20
7.2
30
0
70
32
0
VERTEX
8
0
62
255
10
23.187216
20
6
30
0
70
32
0
VERTEX
8
0
62
255
10
23.187216
20
4.8
30
0
70
32
0
VERTEX
8
0
62
255
10
23.187216
20
3.6
30
0
70
32
0
VERTEX
8
0
62
255
10
23.187216
20
2.4
30
0
70
32
0
VERTEX
8
0
62
255
10
23.187216
20
1.2
30
0
70
32
0
VERTEX
8
0
62
255
10
23.187216
20
0
30
0
70
32
0
SEQEND
8
0
0
POLYLINE
8
0
62
255
66
1
10
0
20
0
30
0
70
8
0
VERTEX
8
0
62
255
10
23.187216
20
0
30
0
70
32
0
VERTEX
8
0
62
255
10
23.245769
20
-0.10141777
30
0
70
32
0
VERTEX
8
0
62
255
10
23.304323
20
-0.20283553
30
0
70
32
0
VERTEX
8
0
62
255
10
23.362876
20
-0.3042533
30
0
70
32
0
VERTEX
8
0
62
255
10
23.42143
20
-0.40567107
30
0
70
32
0
VERTEX
8
0
62
255
10
23.479984
20
-0.50708884
30
0
70
32
0
VERTEX
8
0
62
255
10
23.538537
20
-0.6085066
30
0
70
32
0
VERTEX
8
0
62
255
10
23.597091
20
-0.70992437
30
0
70
32
0
VERTEX
8
0
62
255
10
23.655644
20
-0.81134214
30
0
70
32
0
VERTEX
8
0
62
255
10
23.714198
20
-0.9127599
30
0
70
32
0
VERTEX
8
0
62
255
10
23.772751
20
-1.0141777
30
0
70
32
0
VERTEX
8
0
62
255
10
23.831305
20
-1.1155954
30
0
70
32
0
VERTEX
8
0
62
255
10
23.889859
20
-1.2170132
30
0
70
32
0
VERTEX
8
0
62
255
10
23.948412
20
-1.318431
30
0
70
32
0
VERTEX
8
0
62
255
10
24.006966
20
-1.4198487
30
0
70
32
0
VERTEX
8
0
62
255
10
24.065519
20
-1.5212665
30
0
70
32
0
VERTEX
8
0
62
255
10
24.124073
20
-1.6226843
30
0
70
32
0
VERTEX
8
0
62
255
10
24.182627
20
-1.724102
30
0
70
32
0
VERTEX
8
0
62
255
10
24.24118
20
-1.8255198
30
0
70
32
0
VERTEX
8
0
62
255
10
24.299734
20
-1.9269376
30
0
70
32
0
VERTEX
8
0
62
255
10
24.358287
20
-2.0283553
30
0
70
32
0
VERTEX
8
0
62
255
10
24.416841
20
-2.1297731
30
0
70
32
0
VERTEX
8
0
62
255
10
24.475394
20
-2.2311909
30
0
70
32
0
VERTEX
8
0
62
255
10
24.533948
20
-2.3326086
30
0
70
32
0
VERTEX
8
0
62
255
10
24.592502
20
-2.4340264
30
0
70
32
0
VERTEX
8
0
62
255
10
24.651055
20
-2.5354442
30
0
70
32
0
VERTEX
8
0
62
255
10
24.709609
20
-2.6368619
30
0
70
32
0
VERTEX
8
0
62
255
10
24.768162
20
-2.7382797
30
0
70
32
0
VERTEX
8
0
62
255
10
24.826716
20
-2.8396975
30
0
70
32
0
VERTEX
8
0
62
255
10
24.885269
20
-2.9411152
30
0
70
32
0
VERTEX
8
0
62
255
10
24.943823
20
-3.042533
30
0
70
32
0
VERTEX
8
0
62
255
10
25.002377
20
-3.1439508
30
0
70
32
0
VERTEX
8
0
62
255
10
25.06093
20
-3.2453685
30
0
70
32
0
VERTEX
8
0
62
255
10
25.119484
20
-3.3467863
30
0
70
32
0
VERTEX
8
0
62
255
10
25.178037
20
-3.4482041
30
0
70
32
0
VERTEX
8
0
62
255
10
25.236591
20
-3.5496218
30
0
70
32
0
VERTEX
8
0
62
255
10
25.295144
20
-3.6510396
30
0
70
32
0
VERTEX
8
0
62
255
10
25.353698
20
-3.7524574
30
0
70
32
0
VERTEX
8
0
62
255
10
25.412252
20
-3.8538751
30
0
70
32
0
VERTEX
8
0
62
255
10
25.470805
20
-3.9552929
30
0
70
32
0
VERTEX
8
0
62
255
10
25.529359
20
-4.0567107
30
0
70
32
0
VERTEX
8
0
62
255
10
25.587912
20
-4.1581284
30
0
70
32
0
VERTEX
8
0
62
255
10
25.646466
20
-4.2595462
30
0
70
32
0
VERTEX
8
0
62
255
10
25.705019
20
-4.360964
30
0
70
32
0
VERTEX
8
0
62
255
10
25.763573
20
-4.4623817
30
0
70
32
0
VERTEX
8
0
62
255
10
25.822127
20
-4.5637995
30
0
70
32
0
VERTEX
8
0
62
255
10
25.88068
20
-4.6652173
30
0
70
32
0
VERTEX
8
0
62
255
10
25.939234
20
-4.7666351
30
0
70
32
0
VERTEX
8
0
62
255
10
25.997787
20
-4.8680528
30
0
70
32
0
VERTEX
8
0
62
255
10
26.056341
20
-4.9694706
30
0
70
32
0
VERTEX
8
0
62
255
10
26.114894
20
-5.0708884
30
0
70
32
0
VERTEX
8
0
62
255
10
26.173448
20
-5.1723061
30
0
70
32
0
VERTEX
8
0
62
255
10
26.232002
20
-5.2737239
30
0
70
32
0
VERTEX
8
0
62
255
10
26.290555
20
-5.3751417
30
0
70
32
0
VERTEX
8
0
62
255
10
26.349109
20
-5.4765594
30
0
70
32
0
VERTEX
8
0
62
255
10
26.407662
20
-5.5779772
30
0
70
32
0
VERTEX
8
0
62
255
10
26.466216
20
-5.679395
30
0
70
32
0
VERTEX
8
0
62
255
10
26.52477
20
-5.7808127
30
0
70
32
0
VERTEX
8
0
62
255
10
26.583323
20
-5.8822305
30
0
70
32
0
VERTEX
8
0
62
255
10
26.641877
20
-5.9836483
30
0
70
32
0
VERTEX
8
0
62
255
10
26.70043
20
-6.085066
30
0
70
32
0
VERTEX
8
0
62
255
10
26.758984
20
-6.1864838
30
0
70
32
0
VERTEX
8
0
62
255
10
26.817537
20
-6.2879016
30
0
70
32
0
VERTEX
8
0
62
255
10
26.876091
20
-6.3893193
30
0
70
32
0
VERTEX
8
0
62
255
10
26.934645
20
-6.4907371
30
0
70
32
0
VERTEX
8
0
62
255
10
26.993198
20
-6.5921549
30
0
70
32
0
VERTEX
8
0
62
255
10
27.051752
20
-6.6935726
30
0
70
32
0
VERTEX
8
0
62
255
10
27.110305
20
-6.7949904
30
0
70
32
0
VERTEX
8
0
62
255
10
27.168859
20
-6.8964082
30
0
70
32
0
VERTEX
8
0
62
255
10
27.227412
20
-6.9978259
30
0
70
32
0
VERTEX
8
0
62
255
10
27.285966
20
-7.0992437
30
0
70
32
0
VERTEX
8
0
62
255
10
27.34452
20
-7.2006615
30
0
70
32
0
VERTEX
8
0
62
255
10
27.403073
20
-7.3020792
30
0
70
32
0
VERTEX
8
0
62
255
10
27.461627
20
-7.403497
30
0
70
32
0
VERTEX
8
0
62
255
10
27.52018
20
-7.5049148
30
0
70
32
0
VERTEX
8
0
62
255
10
27.578734
20
-7.6063325
30
0
70
32
0
VERTEX
8
0
62
255
10
27.637287
20
-7.7077503
30
0
70
32
0
VERTEX
8
0
62
255
10
27.695841
20
-7.8091681
30
0
70
32
0
VERTEX
8
0
62
255
10
27.754395
20
-7.9105858
30
0
70
32
0
VERTEX
8
0
62
255
10
27.812948
20
-8.0120036
30
0
70
32
0
VERTEX
8
0
62
255
10
27.871502
20
-8.1134214
30
0
70
32
0
VERTEX
8
0
62
255
10
27.930055
20
-8.2148391
30
0
70
32
0
VERTEX
8
0
62
255
10
27.988609
20
-8.3162569
30
0
70
32
0
VERTEX
8
0
62
255
10
28.047162
20
-8.4176747
30
0
70
32
0
VERTEX
8
0
62
255
10
28.105716
20
-8.5190924
30
0
70
32
0
VERTEX
8
0
62
255
10
28.16427
20
-8.6205102
30
0
70
32
0
VERTEX
8
0
62
255
10
28.222823
20
-8.721928
30
0
70
32
0
VERTEX
8
0
62
255
10
28.281377
20
-8.8233457
30
0
70
32
0
VERTEX
8
0
62
255
10
28.33993
20
-8.9247635
30
0
70
32
0
VERTEX
8
0
62
255
10
28.398484
20
-9.0261813
30
0
70
32
0
VERTEX
8
0
62
255
10
28.457037
20
-9.127599
30
0
70
32
0
VERTEX
8
0
62
255
10
28.515591
20
-9.2290168
30
0
70
32
0
VERTEX
8
0
62
255
10
28.574145
20
-9.3304346
30
0
70
32
0
VERTEX
8
0
62
255
10
28.632698
20
-9.4318523
30
0
70
32
0
VERTEX
8
0
62
255
10
28.691252
20
-9.5332701
30
0
70
32
0
VERTEX
8
0
62
255
10
28.749805
20
-9.6346879
30
0
70
32
0
VERTEX
8
0
62
255
10
28.808359
20
-9.7361056
30
0
70
32
0
VERTEX
8
0
62
255
10
28.866913
20
-9.8375234
30
0
70
32
0
VERTEX
8
0
62
255
10
28.925466
20
-9.9389412
30
0
70
32
0
VERTEX
8
0
62
255
10
28.98402
20
-10.040359
30
0
70
32
0
SEQEND
8
0
0
POLYLINE
8
0
62
255
66
1
10
0
20
0
30
0
70
8
0
VERTEX
8
0
62
255
10
28.98402
20
-10.040359
30
0
70
32
0
VERTEX
8
0
62
255
10
28.864273
20
-10.109494
30
0
70
32
0
VERTEX
8
0
62
255
10
28.744527
20
-10.17863
30
0
70
32
0
VERTEX
8
0
62
255
10
28.624781
20
-10.247765
30
0
70
32
0
VERTEX
8
0
62
255
10
28.505035
20
-10.316901
30
0
70
32
0
VERTEX
8
0
62
255
10
28.385289
20
-10.386036
30
0
70
32
0
VERTEX
8
0
62
255
10
28.265543
20
-10.455172
30
0
70
32
0
VERTEX
8
0
62
255
10
28.145796
20
-10.524307
30
0
70
32
0
VERTEX
8
0
62
255
10
28.02605
20
-10.593443
30
0
70
32
0
VERTEX
8
0
62
255
10
27.906304
20
-10.662578
30
0
70
32
0
VERTEX
8
0
62
255
10
27.786558
20
-10.731714
30
0
70
32
0
VERTEX
8
0
62
255
10
27.666812
20
-10.800849
30
0
70
32
0
VERTEX
8
0
62
255
10
27.547066
20
-10.869985
30
0
70
32
0
VERTEX
8
0
62
255
10
27.427319
20
-10.93912
30
0
70
32
0
VERTEX
8
0
62
255
10
27.307573
20
-11.008256
30
0
70
32
0
VERTEX
8
0
62
255
10
27.187827
20
-11.077391
30
0
70
32
0
VERTEX
8
0
62
255
10
27.068081
20
-11.146527
30
0
70
32
0
VERTEX
8
0
62
255
10
26.948335
20
-11.215662
30
0
70
32
0
VERTEX
8
0
62
255
10
26.828588
20
-11.284798
30
0
70
32
0
VERTEX
8
0
62
255
10
26.708842
20
-11.353933
30
0
70
32
0
VERTEX
8
0
62
255
10
26.589096
20
-11.423069
30
0
70
32
0
VERTEX
8
0
62
255
10
26.46935
20
-11.492204
30
0
70
32
0
VERTEX
8
0
62
255
10
26.349604
20
-11.56134
30
0
70
32
0
VERTEX
8
0
62
255
10
26.229858
20
-11.630475
30
0
70
32
0
VERTEX
8
0
62
255
10
26.110111
20
-11.699611
30
0
70
32
0
VERTEX
8
0
62
255
10
25.990365
20
-11.768746
30
0
70
32
0
VERTEX
8
0
62
255
10
25.870619
20
-11.837882
30
0
70
32
0
VERTEX
8
0
62
255
10
25.750873
20
-11.907017
30
0
70
32
0
VERTEX
8
0
62
255
10
25.631127
20
-11.976153
30
0
70
32
0
VERTEX
8
0
62
255
10
25.51138
20
-12.045288
30
0
70
32
0
VERTEX
8
0
62
255
10
25.391634
20
-12.114424
30
0
70
32
0
VERTEX
8
0
62
255
10
25.271888
20
-12.183559
30
0
70
32
0
VERTEX
8
0
62
255
10
25.152142
20
-12.252695
30
0
70
32
0
VERTEX
8
0
62
255
10
25.032396
20
-12.32183
30
0
70
32
0
VERTEX
8
0
62
255
10
24.91265
20
-12.390966
30
0
70
32
0
VERTEX
8
0
62
255
10
24.792903
20
-12.460101
30
0
70
32
0
VERTEX
8
0
62
255
10
24.673157
20
-12.529237
30
0
70
32
0
VERTEX
8
0
62
255
10
24.553411
20
-12.598372
30
0
70
32
0
VERTEX
8
0
62
255
10
24.433665
20
-12.667508
30
0
70
32
0
VERTEX
8
0
62
255
10
24.313919
20
-12.736643
30
0
70
32
0
VERTEX
8
0
62
255
10
24.194172
20
-12.805779
30
0
70
32
0
VERTEX
8
0
62
255
10
24.074426
20
-12.874914
30
0
70
32
0
VERTEX
8
0
62
255
10
23.95468
20
-12.944049
30
0
70
32
0
VERTEX
8
0
62
255
10
23.834934
20
-13.013185
30
0
70
32
0
VERTEX
8
0
62
255
10
23.715188
20
-13.08232
30
0
70
32
0
VERTEX
8
0
62
255
10
23.595442
20
-13.151456
30
0
70
32
0
VERTEX
8
0
62
255
10
23.475695
20
-13.220591
30
0
70
32
0
VERTEX
8
0
62
255
10
23.355949
20
-13.289727
30
0
70
32
0
VERTEX
8
0
62
255
10
23.236203
20
-13.358862
30
0
70
32
0
VERTEX
8
0
62
255
10
23.116457
20
-13.427998
30
0
70
32
0
VERTEX
8
0
62
255
10
22.996711
20
-13.497133
30
0
70
32
0
VERTEX
8
0
62
255
10
22.876965
20
-13.566269
30
0
70
32
0
VERTEX
8
0
62
255
10
22.757218
20
-13.635404
30
0
70
32
0
VERTEX
8
0
62
255
10
22.637472
20
-13.70454
30
0
70
32
0
VERTEX
8
0
62
255
10
22.517726
20
-13.773675
30
0
70
32
0
VERTEX
8
0
62
255
10
22.39798
20
-13.842811
30
0
70
32
0
VERTEX
8
0
62
255
10
22.278234
20
-13.911946
30
0
70
32
0
VERTEX
8
0
62
255
10
22.158487
20
-13.981082
30
0
70
32
0
VERTEX
8
0
62
255
10
22.038741
20
-14.050217
30
0
70
32
0
VERTEX
8
0
62
255
10
21.918995
20
-14.119353
30
0
70
32
0
VERTEX
8
0
62
255
10
21.799249
20
-14.188488
30
0
70
32
0
VERTEX
8
0
62
255
10
21.679503
20
-14.257624
30
0
70
32
0
VERTEX
8
0
62
255
10
21.559757
20
-14.326759
30
0
70
32
0
VERTEX
8
0
62
255
10
21.44001
20
-14.395895
30
0
70
32
0
VERTEX
8
0
62
255
10
21.320264
20
-14.46503
30
0
70
32
0
VERTEX
8
0
62
255
10
21.200518
20
-14.534166
30
0
70
32
0
VERTEX
8
0
62
255
10
21.080772
20
-14.603301
30
0
70
32
0
VERTEX
8
0
62
255
10
20.961026
20
-14.672437
30
0
70
32
0
VERTEX
8
0
62
255
10
20.841279
20
-14.741572
30
0
70
32
0
VERTEX
8
0
62
255
10
20.721533
20
-14.810708
30
0
70
32
0
VERTEX
8
0
62
255
10
20.601787
20
-14.879843
30
0
70
32
0
VERTEX
8
0
62
255
10
20.482041
20
-14.948979
30
0
70
32
0
VERTEX
8
0
62
255
10
20.362295
20
-15.018114
30
0
70
32
0
VERTEX
8
0
62
255
10
20.242549
20
-15.08725
30
0
70
32
0
VERTEX
8
0
62
255
10
20.122802
20
-15.156385
30
0
70
32
0
VERTEX
8
0
62
255
10
20.003056
20
-15.225521
30
0
70
32
0
VERTEX
8
0
62
255
10
19.88331
20
-15.294656
30
0
70
32
0
VERTEX
8
0
62
255
10
19.763564
20
-15.363792
30
0
70
32
0
VERTEX
8
0
62
255
10
19.643818
20
-15.432927
30
0
70
32
0
VERTEX
8
0
62
255
10
19.524071
20
-15.502063
30
0
70
32
0
VERTEX
8
0
62
255
10
19.404325
20
-15.571198
30
0
70
32
0
VERTEX
8
0
62
255
10
19.284579
20
-15.640334
30
0
70
32
0
VERTEX
8
0
62
255
10
19.164833
20
-15.709469
30
0
70
32
0
VERTEX
8
0
62
255
10
19.045087
20
-15.778605
30
0
70
32
0
VERTEX
8
0
62
255
10
18.925341
20
-15.84774
30
0
70
32
0
VERTEX
8
0
62
255
10
18.805594
20
-15.916876
30
0
70
32
0
VERTEX
8
0
62
255
10
18.685848
20
-15.986011
30
0
70
32
0
VERTEX
8
0
62
255
10
18.566102
20
-16.055146
30
0
70
32
0
VERTEX
8
0
62
255
10
18.446356
20
-16.124282
30
0
70
32
0
VERTEX
8
0
62
255
10
18.32661
20
-16.193417
30
0
70
32
0
VERTEX
8
0
62
255
10
18.206863
20
-16.262553
30
0
70
32
0
VERTEX
8
0
62
255
10
18.087117
20
-16.331688
30
0
70
32
0
VERTEX
8
0
62
255
10
17.967371
20
-16.400824
30
0
70
32
0
VERTEX
8
0
62
255
10
17.847625
20
-16.469959
30
0
70
32
0
VERTEX
8
0
62
255
10
17.727879
20
-16.539095
30
0
70
32
0
VERTEX
8
0
62
255
10
17.608133
20
-16.60823
30
0
70
32
0
VERTEX
8
0
62
255
10
17.488386
20
-16.677366
30
0
70
32
0
VERTEX
8
0
62
255
10
17.36864
20
-16.746501
30
0
70
32
0
VERTEX
8
0
62
255
10
17.248894
20
-16.815637
30
0
70
32
0
VERTEX
8
0
62
255
10
17.129148
20
-16.884772
30
0
70
32
0
SEQEND
8
0
0
POLYLINE
8
0
62
255
66
1
10
0
20
0
30
0
70
8
0
VERTEX
8
0
62
255
10
17.129148
20
-16.884772
30
0
70
32
0
VERTEX
8
0
62
255
10
17.060302
20
-16.768389
30
0
70
32
0
VERTEX
8
0
62
255
10
16.98901
20
-16.653488
30
0
70
32
0
VERTEX
8
0
62
255
10
16.915304
20
-16.540121
30
0
70
32
0
VERTEX
8
0
62
255
10
16.839215
20
-16.428339
30
0
70
32
0
VERTEX
8
0
62
255
10
16.760779
20
-16.318191
30
0
70
32
0
VERTEX
8
0
62
255
10
16.680031
20
-16.209727
30
0
70
32
0
VERTEX
8
0
62
255
10
16.597006
20
-16.102995
30
0
70
32
0
VERTEX
8
0
62
255
10
16.511742
20
-15.998044
30
0
70
32
0
VERTEX
8
0
62
255
10
16.424277
20
-15.894919
30
0
70
32
0
VERTEX
8
0
62
255
10
16.33465
20
-15.793668
30
0
70
32
0
VERTEX
8
0
62
255
10
16.242901
20
-15.694336
30
0
70
32
0
VERTEX
8
0
62
255
10
16.149071
20
-15.596967
30
0
70
32
0
VERTEX
8
0
62
255
10
16.053203
20
-15.501604
30
0
70
32
0
VERTEX
8
0
62
255
10
15.955339
20
-15.408291
30
0
70
32
0
VERTEX
8
0
62
255
10
15.855523
20
-15.317069
30
0
70
32
0
VERTEX
8
0
62
255
10
15.753799
20
-15.227978
30
0
70
32
0
VERTEX
8
0
62
255
10
15.650214
20
-15.14106
30
0
70
32
0
VERTEX
8
0
62
255
10
15.544813
20
-15.056352
30
0
70
32
0
VERTEX
8
0
62
255
10
15.437644
20
-14.973893
30
0
70
32
0
VERTEX
8
0
62
255
10
15.328754
20
-14.893719
30
0
70
32
0
VERTEX
8
0
62
255
10
15.218193
20
-14.815867
30
0
70
32
0
VERTEX
8
0
62
255
10
15.106009
20
-14.740371
30
0
70
32
0
VERTEX
8
0
62
255
10
14.992254
20
-14.667265
30
0
70
32
0
VERTEX
8
0
62
255
10
14.876978
20
-14.596581
30
0
70
32
0
VERTEX
8
0
62
255
10
14.760232
20
-14.528352
30
0
70
32
0
VERTEX
8
0
62
255
10
14.642069
20
-14.462608
30
0
70
32
0
VERTEX
8
0
62
255
10
14.522542
20
-14.399379
30
0
70
32
0
VERTEX
8
0
62
255
10
14.401704
20
-14.338691
30
0
70
32
0
VERTEX
8
0
62
255
10
14.279609
20
-14.280574
30
0
70
32
0
VERTEX
8
0
62
255
10
14.156312
20
-14.225052
30
0
70
32
0
VERTEX
8
0
62
255
10
14.031868
20
-14.172152
30
0
70
32
0
VERTEX
8
0
62
255
10
13.906333
20
-14.121895
30
0
70
32
0
VERTEX
8
0
62
255
10
13.779763
20
-14.074305
30
0
70
32
0
VERTEX
8
0
62
255
10
13.652215
20
-14.029403
30
0
70
32
0
VERTEX
8
0
62
255
10
13.523745
20
-13.98721
30
0
70
32
0
VERTEX
8
0
62
255
10
13.394412
20
-13.947743
30
0
70
32
0
VERTEX
8
0
62
255
10
13.264272
20
-13.911022
30
0
70
32
0
VERTEX
8
0
62
255
10
13.133385
20
-13.877061
30
0
70
32
0
VERTEX
8
0
62
255
10
13.001809
20
-13.845877
30
0
70
32
0
VERTEX
8
0
62
255
10
12.869602
20
-13.817483
30
0
70
32
0
VERTEX
8
0
62
255
10
12.736825
20
-13.791892
30
0
70
32
0
VERTEX
8
0
62
255
10
12.603536
20
-13.769116
30
0
70
32
0
VERTEX
8
0
62
255
10
12.469794
20
-13.749165
30
0
70
32
0
VERTEX
8
0
62
255
10
12.335661
20
-13.732047
30
0
70
32
0
VERTEX
8
0
62
255
10
12.201196
20
-13.71777
30
0
70
32
0
VERTEX
8
0
62
255
10
12.066458
20
-13.706341
30
0
70
32
0
VERTEX
8
0
62
255
10
11.93151
20
-13.697765
30
0
70
32
0
VERTEX
8
0
62
255
10
11.796409
20
-13.692045
30
0
70
32
0
VERTEX
8
0
62
255
10
11.661218
20
-13.689184
30
0
70
32
0
VERTEX
8
0
62
255
10
11.525997
20
-13.689184
30
0
70
32
0
VERTEX
8
0
62
255
10
11.390806
20
-13.692045
30
0
70
32
0
VERTEX
8
0
62
255
10
11.255706
20
-13.697765
30
0
70
32
0
VERTEX
8
0
62
255
10
11.120757
20
-13.706341
30
0
70
32
0
VERTEX
8
0
62
255
10
10.98602
20
-13.71777
30
0
70
32
0
VERTEX
8
0
62
255
10
10.851555
20
-13.732047
30
0
70
32
0
VERTEX
8
0
62
255
10
10.717421
20
-13.749165
30
0
70
32
0
VERTEX
8
0
62
255
10
10.58368
20
-13.769116
30
0
70
32
0
VERTEX
8
0
62
255
10
10.450391
20
-13.791892
30
0
70
32
0
VERTEX
8
0
62
255
10
10.317613
20
-13.817483
30
0
70
32
0
VERTEX
8
0
62
255
10
10.185407
20
-13.845877
30
0
70
32
0
VERTEX
8
0
62
255
10
10.053831
20
-13.877061
30
0
70
32
0
VERTEX
8
0
62
255
10
9.9229435
20
-13.911022
30
0
70
32
0
VERTEX
8
0
62
255
10
9.7928041
20
-13.947743
30
0
70
32
0
VERTEX
8
0
62
255
10
9.6634705
20
-13.98721
30
0
70
32
0
VERTEX
8
0
62
255
10
9.5350008
20
-14.029403
30
0
70
32
0
VERTEX
8
0
62
255
10
9.4074524
20
-14.074305
30
0
70
32
0
VERTEX
8
0
62
255
10
9.2808824
20
-14.121895
30
0
70
32
0
VERTEX
8
0
62
255
10
9.1553474
20
-14.172152
30
0
70
32
0
VERTEX
8
0
62
255
10
9.0309036
20
-14.225052
30
0
70
32
0
VERTEX
8
0
62
255
10
8.9076067
20
-14.280574
30
0
70
32
0
VERTEX
8
0
62
255
10
8.7855119
20
-14.338691
30
0
70
32
0
VERTEX
8
0
62
255
10
8.6646739
20
-14.399379
30
0
70
32
0
VERTEX
8
0
62
255
10
8.5451466
20
-14.462608
30
0
70
32
0
VERTEX
8
0
62
255
10
8.4269837
20
-14.528352
30
0
70
32
0
VERTEX
8
0
62
255
10
8.310238
20
-14.596581
30
0
70
32
0
VERTEX
8
0
62
255
10
8.1949617
20
-14.667265
30
0
70
32
0
VERTEX
8
0
62
255
10
8.0812064
20
-14.740371
30
0
70
32
0
VERTEX
8
0
62
255
10
7.969023
20
-14.815867
30
0
70
32
0
VERTEX
8
0
62
255
10
7.8584618
20
-14.893719
30
0
70
32
0
VERTEX
8
0
62
255
10
7.7495722
20
-14.973893
30
0
70
32
0
VERTEX
8
0
62
255
10
7.642403
20
-15.056352
30
0
70
32
0
VERTEX
8
0
62
255
10
7.5370021
20
-15.14106
30
0
70
32
0
VERTEX
8
0
62
255
10
7.4334167
20
-15.227978
30
0
70
32
0
VERTEX
8
0
62
255
10
7.3316931
20
-15.317069
30
0
70
32
0
VERTEX
8
0
62
255
10
7.2318769
20
-15.408291
30
0
70
32
0
VERTEX
8
0
62
255
10
7.1340127
20
-15.501604
30
0
70
32
0
VERTEX
8
0
62
255
10
7.0381444
20
-15.596967
30
0
70
32
0
VERTEX
8
0
62
255
10
6.9443148
20
-15.694336
30
0
70
32
0
VERTEX
8
0
62
255
10
6.852566
20
-15.793668
30
0
70
32
0
VERTEX
8
0
62
255
10
6.762939
20
-15.894919
30
0
70
32
0
VERTEX
8
0
62
255
10
6.6754738
20
-15.998044
30
0
70
32
0
VERTEX
8
0
62
255
10
6.5902098
20
-16.102995
30
0
70
32
0
VERTEX
8
0
62
255
10
6.5071849
20
-16.209727
30
0
70
32
0
VERTEX
8
0
62
255
10
6.4264364
20
-16.318191
30
0
70
32
0
VERTEX
8
0
62
255
10
6.3480005
20
-16.428339
30
0
70
32
0
VERTEX
8
0
62
255
10
6.2719121
20
-16.540121
30
0
70
32
0
VERTEX
8
0
62
255
10
6.1982054
20
-16.653488
30
0
70
32
0
VERTEX
8
0
62
255
10
6.1269134
20
-16.768389
30
0
70
32
0
VERTEX
8
0
62
255
10
6.0580679
20
-16.884772
30
0
70
32
0
SEQEND
8
0
0
POLYLINE
8
0
62
255
66
1
10
0
20
0
30
0
70
8
0
VERTEX
8
0
62
255
10
6.0580679
20
-16.884772
30
0
70
32
0
VERTEX
8
0
62
255
10
5.9383217
20
-16.815637
30
0
70
32
0
VERTEX
8
0
62
255
10
5.8185755
20
-16.746501
30
0
70
32
0
VERTEX
8
0
62
255
10
5.6988293
20
-16.677366
30
0
70
32
0
VERTEX
8
0
62
255
10
5.5790831
20
-16.60823
30
0
70
32
0
VERTEX
8
0
62
255
10
5.459337
20
-16.539095
30
0
70
32
0
VERTEX
8
0
62
255
10
5.3395908
20
-16.469959
30
0
70
32
0
VERTEX
8
0
62
255
10
5.2198446
20
-16.400824
30
0
70
32
0
VERTEX
8
0
62
255
10
5.1000984
20
-16.331688
30
0
70
32
0
VERTEX
8
0
62
255
10
4.9803522
20
-16.262553
30
0
70
32
0
VERTEX
8
0
62
255
10
4.8606061
20
-16.193417
30
0
70
32
0
VERTEX
8
0
62
255
10
4.7408599
20
-16.124282
30
0
70
32
0
VERTEX
8
0
62
255
10
4.6211137
20
-16.055146
30
0
70
32
0
VERTEX
8
0
62
255
10
4.5013675
20
-15.986011
30
0
70
32
0
VERTEX
8
0
62
255
10
4.3816214
20
-15.916876
30
0
70
32
0
VERTEX
8
0
62
255
10
4.2618752
20
-15.84774
30
0
70
32
0
VERTEX
8
0
62
255
10
4.142129
20
-15.778605
30
0
70
32
0
VERTEX
8
0
62
255
10
4.0223828
20
-15.709469
30
0
70
32
0
VERTEX
8
0
62
255
10
3.9026366
20
-15.640334
30
0
70
32
0
VERTEX
8
0
62
255
10
3.7828905
20
-15.571198
30
0
70
32
0
VERTEX
8
0
62
255
10
3.6631443
20
-15.502063
30
0
70
32
0
VERTEX
8
0
62
255
10
3.5433981
20
-15.432927
30
0
70
32
0
VERTEX
8
0
62
255
10
3.4236519
20
-15.363792
30
0
70
32
0
VERTEX
8
0
62
255
10
3.3039057
20
-15.294656
30
0
70
32
0
VERTEX
8
0
62
255
10
3.1841596
20
-15.225521
30
0
70
32
0
VERTEX
8
0
62
255
10
3.0644134
20
-15.156385
30
0
70
32
0
VERTEX
8
0
62
255
10
2.9446672
20
-15.08725
30
0
70
32
0
VERTEX
8
0
62
255
10
2.824921
20
-15.018114
30
0
70
32
0
VERTEX
8
0
62
255
10
2.7051748
20
-14.948979
30
0
70
32
0
VERTEX
8
0
62
255
10
2.5854287
20
-14.879843
30
0
70
32
0
VERTEX
8
0
62
255
10
2.4656825
20
-14.810708
30
0
70
32
0
VERTEX
8
0
62
255
10
2.3459363
20
-14.741572
30
0
70
32
0
VERTEX
8
0
62
255
10
2.2261901
20
-14.672437
30
0
70
32
0
VERTEX
8
0
62
255
10
2.1064439
20
-14.603301
30
0
70
32
0
VERTEX
8
0
62
255
10
1.9866978
20
-14.534166
30
0
70
32
0
VERTEX
8
0
62
255
10
1.8669516
20
-14.46503
30
0
70
32
0
VERTEX
8
0
62
255
10
1.7472054
20
-14.395895
30
0
70
32
0
VERTEX
8
0
62
255
10
1.6274592
20
-14.326759
30
0
70
32
0
VERTEX
8
0
62
255
10
1.507713
20
-14.257624
30
0
70
32
0
VERTEX
8
0
62
255
10
1.3879669
20
-14.188488
30
0
70
32
0
VERTEX
8
0
62
255
10
1.2682207
20
-14.119353
30
0
70
32
0
VERTEX
8
0
62
255
10
1.1484745
20
-14.050217
30
0
70
32
0
VERTEX
8
0
62
255
10
1.0287283
20
-13.981082
30
0
70
32
0
VERTEX
8
0
62
255
10
0.90898214
20
-13.911946
30
0
70
32
0
VERTEX
8
0
62
255
10
0.78923596
20
-13.842811
30
0
70
32
0
VERTEX
8
0
62
255
10
0.66948978
20
-13.773675
30
0
70
32
0
VERTEX
8
0
62
255
10
0.5497436
20
-13.70454
30
0
70
32
0
VERTEX
8
0
62
255
10
0.42999742
20
-13.635404
30
0
70
32
0
VERTEX
8
0
62
255
10
0.31025124
20
-13.566269
30
0
70
32
0
VERTEX
8
0
62
255
10
0.19050506
20
-13.497133
30
0
70
32
0
VERTEX
8
0
62
255
10
0.070758876
20
-13.427998
30
0
70
32
0
VERTEX
8
0
62
255
10
-0.048987303
20
-13.358862
30
0
70
32
0
VERTEX
8
0
62
255
10
-0.16873348
20
-13.289727
30
0
70
32
0
VERTEX
8
0
62
255
10
-0.28847966
20
-13.220591
30
0
70
32
0
VERTEX
8
0
62
255
10
-0.40822584
20
-13.151456
30
0
70
32
0
VERTEX
8
0
62
255
10
-0.52797202
20
-13.08232
30
0
70
32
0
VERTEX
8
0
62
255
10
-0.6477182
20
-13.013185
30
0
70
32
0
VERTEX
8
0
62
255
10
-0.76746438
20
-12.944049
30
0
70
32
0
VERTEX
8
0
62
255
10
-0.88721056
20
-12.874914
30
0
70
32
0
VERTEX
8
0
62
255
10
-1.0069567
20
-12.805779
30
0
70
32
0
VERTEX
8
0
62
255
10
-1.1267029
20
-12.736643
30
0
70
32
0
VERTEX
8
0
62
255
10
-1.2464491
20
-12.667508
30
0
70
32
0
VERTEX
8
0
62
255
10
-1.3661953
20
-12.598372
30
0
70
32
0
VERTEX
8
0
62
255
10
-1.4859415
20
-12.529237
30
0
70
32
0
VERTEX
8
0
62
255
10
-1.6056876
20
-12.460101
30
0
70
32
0
VERTEX
8
0
62
255
10
-1.7254338
20
-12.390966
30
0
70
32
0
VERTEX
8
0
62
255
10
-1.84518
20
-12.32183
30
0
70
32
0
VERTEX
8
0
62
255
10
-1.9649262
20
-12.252695
30
0
70
32
0
VERTEX
8
0
62
255
10
-2.0846724
20
-12.183559
30
0
70
32
0
VERTEX
8
0
62
255
10
-2.2044185
20
-12.114424
30
0
70
32
0
VERTEX
8
0
62
255
10
-2.3241647
20
-12.045288
30
0
70
32
0
VERTEX
8
0
62
255
10
-2.4439109
20
-11.976153
30
0
70
32
0
VERTEX
8
0
62
255
10
-2.5636571
20
-11.907017
30
0
70
32
0
VERTEX
8
0
62
255
10
-2.6834033
20
-11.837882
30
0
70
32
0
VERTEX
8
0
62
255
10
-2.8031494
20
-11.768746
30
0
70
32
0
VERTEX
8
0
62
255
10
-2.9228956
20
-11.699611
30
0
70
32
0
VERTEX
8
0
62
255
10
-3.0426418
20
-11.630475
30
0
70
32
0
VERTEX
8
0
62
255
10
-3.162388
20
-11.56134
30
0
70
32
0
VERTEX
8
0
62
255
10
-3.2821342
20
-11.492204
30
0
70
32
0
VERTEX
8
0
62
255
10
-3.4018803
20
-11.423069
30
0
70
32
0
VERTEX
8
0
62
255
10
-3.5216265
20
-11.353933
30
0
70
32
0
VERTEX
8
0
62
255
10
-3.6413727
20
-11.284798
30
0
70
32
0
VERTEX
8
0
62
255
10
-3.7611189
20
-11.215662
30
0
70
32
0
VERTEX
8
0
62
255
10
-3.8808651
20
-11.146527
30
0
70
32
0
VERTEX
8
0
62
255
10
-4.0006112
20
-11.077391
30
0
70
32
0
VERTEX
8
0
62
255
10
-4.1203574
20
-11.008256
30
0
70
32
0
VERTEX
8
0
62
255
10
-4.2401036
20
-10.93912
30
0
70
32
0
VERTEX
8
0
62
255
10
-4.3598498
20
-10.869985
30
0
70
32
0
VERTEX
8
0
62
255
10
-4.479596
20
-10.800849
30
0
70
32
0
VERTEX
8
0
62
255
10
-4.5993421
20
-10.731714
30
0
70
32
0
VERTEX
8
0
62
255
10
-4.7190883
20
-10.662578
30
0
70
32
0
VERTEX
8
0
62
255
10
-4.8388345
20
-10.593443
30
0
70
32
0
VERTEX
8
0
62
255
10
-4.9585807
20
-10.524307
30
0
70
32
0
VERTEX
8
0
62
255
10
-5.0783269
20
-10.455172
30
0
70
32
0
VERTEX
8
0
62
255
10
-5.198073
20
-10.386036
30
0
70
32
0
VERTEX
8
0
62
255
10
-5.3178192
20
-10.316901
30
0
70
32
0
VERTEX
8
0
62
255
10
-5.4375654
20
-10.247765
30
0
70
32
0
VERTEX
8
0
62
255
10
-5.5573116
20
-10.17863
30
0
70
32
0
VERTEX
8
0
62
255
10
-5.6770578
20
-10.109494
30
0
70
32
0
VERTEX
8
0
62
255
10
-5.7968039
20
-10.040359
30
0
70
32
0
SEQEND
8
0
0
POLYLINE
8
0
62
255
66
1
10
0
20
0
30
0
70
8
0
VERTEX
8
0
62
255
10
-5.7968039
20
-10.040359
30
0
70
32
0
VERTEX
8
0
62
255
10
-5.7382504
20
-9.9389412
30
0
70
32
0
VERTEX
8
0
62
255
10
-5.6796968
20
-9.8375234
30
0
70
32
0
VERTEX
8
0
62
255
10
-5.6211432
20
-9.7361056
30
0
70
32
0
VERTEX
8
0
62
255
10
-5.5625896
20
-9.6346879
30
0
70
32
0
VERTEX
8
0
62
255
10
-5.5040361
20
-9.5332701
30
0
70
32
0
VERTEX
8
0
62
255
10
-5.4454825
20
-9.4318523
30
0
70
32
0
VERTEX
8
0
62
255
10
-5.3869289
20
-9.3304346
30
0
70
32
0
VERTEX
8
0
62
255
10
-5.3283753
20
-9.2290168
30
0
70
32
0
VERTEX
8
0
62
255
10
-5.2698218
20
-9.127599
30
0
70
32
0
VERTEX
8
0
62
255
10
-5.2112682
20
-9.0261813
30
0
70
32
0
VERTEX
8
0
62
255
10
-5.1527146
20
-8.9247635
30
0
70
32
0
VERTEX
8
0
62
255
10
-5.094161
20
-8.8233457
30
0
70
32
0
VERTEX
8
0
62
255
10
-5.0356075
20
-8.721928
30
0
70
32
0
VERTEX
8
0
62
255
10
-4.9770539
20
-8.6205102
30
0
70
32
0
VERTEX
8
0
62
255
10
-4.9185003
20
-8.5190924
30
0
70
32
0
VERTEX
8
0
62
255
10
-4.8599467
20
-8.4176747
30
0
70
32
0
VERTEX
8
0
62
255
10
-4.8013932
20
-8.3162569
30
0
70
32
0
VERTEX
8
0
62
255
10
-4.7428396
20
-8.2148391
30
0
70
32
0
VERTEX
8
0
62
255
10
-4.684286
20
-8.1134214
30
0
70
32
0
VERTEX
8
0
62
255
10
-4.6257324
20
-8.0120036
30
0
70
32
0
VERTEX
8
0
62
255
10
-4.5671789
20
-7.9105858
30
0
70
32
0
VERTEX
8
0
62
255
10
-4.5086253
20
-7.8091681
30
0
70
32
0
VERTEX
8
0
62
255
10
-4.4500717
20
-7.7077503
30
0
70
32
0
VERTEX
8
0
62
255
10
-4.3915181
20
-7.6063325
30
0
70
32
0
VERTEX
8
0
62
255
10
-4.3329646
20
-7.5049148
30
0
70
32
0
VERTEX
8
0
62
255
10
-4.274411
20
-7.403497
30
0
70
32
0
VERTEX
8
0
62
255
10
-4.2158574
20
-7.3020792
30
0
70
32
0
VERTEX
8
0
62
255
10
-4.1573038
20
-7.2006615
30
0
70
32
0
VERTEX
8
0
62
255
10
-4.0987503
20
-7.0992437
30
0
70
32
0
VERTEX
8
0
62
255
10
-4.0401967
20
-6.9978259
30
0
70
32
0
VERTEX
8
0
62
255
10
-3.9816431
20
-6.8964082
30
0
70
32
0
VERTEX
8
0
62
255
10
-3.9230895
20
-6.7949904
30
0
70
32
0
VERTEX
8
0
62
255
10
-3.864536
20
-6.6935726
30
0
70
32
0
VERTEX
8
0
62
255
10
-3.8059824
20
-6.5921549
30
0
70
32
0
VERTEX
8
0
62
255
10
-3.7474288
20
-6.4907371
30
0
70
32
0
VERTEX
8
0
62
255
10
-3.6888752
20
-6.3893193
30
0
70
32
0
VERTEX
8
0
62
255
10
-3.6303217
20
-6.2879016
30
0
70
32
0
VERTEX
8
0
62
255
10
-3.5717681
20
-6.1864838
30
0
70
32
0
VERTEX
8
0
62
255
10
-3.5132145
20
-6.085066
30
0
70
32
0
VERTEX
8
0
62
255
10
-3.4546609
20
-5.9836483
30
0
70
32
0
VERTEX
8
0
62
255
10
-3.3961074
20
-5.8822305
30
0
70
32
0
VERTEX
8
0
62
255
10
-3.3375538
20
-5.7808127
30
0
70
32
0
VERTEX
8
0
62
255
10
-3.2790002
20
-5.679395
30
0
70
32
0
VERTEX
8
0
62
255
10
-3.2204466
20
-5.5779772
30
0
70
32
0
VERTEX
8
0
62
255
10
-3.1618931
20
-5.4765594
30
0
70
32
0
VERTEX
8
0
62
255
10
-3.1033395
20
-5.3751417
30
0
70
32
0
VERTEX
8
0
62
255
10
-3.0447859
20
-5.2737239
30
0
70
32
0
VERTEX
8
0
62
255
10
-2.9862323
20
-5.1723061
30
0
70
32
0
VERTEX
8
0
62
255
10
-2.9276788
20
-5.0708884
30
0
70
32
0
VERTEX
8
0
62
255
10
-2.8691252
20
-4.9694706
30
0
70
32
0
VERTEX
8
0
62
255
10
-2.8105716
20
-4.8680528
30
0
70
32
0
VERTEX
8
0
62
255
10
-2.752018
20
-4.7666351
30
0
70
32
0
VERTEX
8
0
62
255
10
-2.6934645
20
-4.6652173
30
0
70
32
0
VERTEX
8
0
62
255
10
-2.6349109
20
-4.5637995
30
0
70
32
0
VERTEX
8
0
62
255
10
-2.5763573
20
-4.4623817
30
0
70
32
0
VERTEX
8
0
62
255
10
-2.5178037
20
-4.360964
30
0
70
32
0
VERTEX
8
0
62
255
10
-2.4592502
20
-4.2595462
30
0
70
32
0
VERTEX
8
0
62
255
10
-2.4006966
20
-4.1581284
30
0
70
32
0
VERTEX
8
0
62
255
10
-2.342143
20
-4.0567107
30
0
70
32
0
VERTEX
8
0
62
255
10
-2.2835894
20
-3.9552929
30
0
70
32
0
VERTEX
8
0
62
255
10
-2.2250359
20
-3.8538751
30
0
70
32
0
VERTEX
8
0
62
255
10
-2.1664823
20
-3.7524574
30
0
70
32
0
VERTEX
8
0
62
255
10
-2.1079287
20
-3.6510396
30
0
70
32
0
VERTEX
8
0
62
255
10
-2.0493751
20
-3.5496218
30
0
70
32
0
VERTEX
8
0
62
255
10
-1.9908216
20
-3.4482041
30
0
70
32
0
VERTEX
8
0
62
255
10
-1.932268
20
-3.3467863
30
0
70
32
0
VERTEX
8
0
62
255
10
-1.8737144
20
-3.2453685
30
0
70
32
0
VERTEX
8
0
62
255
10
-1.8151608
20
-3.1439508
30
0
70
32
0
VERTEX
8
0
62
255
10
-1.7566073
20
-3.042533
30
0
70
32
0
VERTEX
8
0
62
255
10
-1.6980537
20
-2.9411152
30
0
70
32
0
VERTEX
8
0
62
255
10
-1.6395001
20
-2.8396975
30
0
70
32
0
VERTEX
8
0
62
255
10
-1.5809465
20
-2.7382797
30
0
70
32
0
VERTEX
8
0
62
255
10
-1.522393
20
-2.6368619
30
0
70
32
0
VERTEX
8
0
62
255
10
-1.4638394
20
-2.5354442
30
0
70
32
0
VERTEX
8
0
62
255
10
-1.4052858
20
-2.4340264
30
0
70
32
0
VERTEX
8
0
62
255
10
-1.3467322
20
-2.3326086
30
0
70
32
0
VERTEX
8
0
62
255
10
-1.2881787
20
-2.2311909
30
0
70
32
0
VERTEX
8
0
62
255
10
-1.2296251
20
-2.1297731
30
0
70
32
0
VERTEX
8
0
62
255
10
-1.1710715
20
-2.0283553
30
0
70
32
0
VERTEX
8
0
62
255
10
-1.1125179
20
-1.9269376
30
0
70
32
0
VERTEX
8
0
62
255
10
-1.0539644
20
-1.8255198
30
0
70
32
0
VERTEX
8
0
62
255
10
-0.99541078
20
-1.724102
30
0
70
32
0
VERTEX
8
0
62
255
10
-0.9368572
20
-1.6226843
30
0
70
32
0
VERTEX
8
0
62
255
10
-0.87830363
20
-1.5212665
30
0
70
32
0
VERTEX
8
0
62
255
10
-0.81975005
20
-1.4198487
30
0
70
32
0
VERTEX
8
0
62
255
10
-0.76119648
20
-1.318431
30
0
70
32
0
VERTEX
8
0
62
255
10
-0.7026429
20
-1.2170132
30
0
70
32
0
VERTEX
8
0
62
255
10
-0.64408933
20
-1.1155954
30
0
70
32
0
VERTEX
8
0
62
255
10
-0.58553575
20
-1.0141777
30
0
70
32
0
VERTEX
8
0
62
255
10
-0.52698218
20
-0.9127599
30
0
70
32
0
VERTEX
8
0
62
255
10
-0.4684286
20
-0.81134214
30
0
70
32
0
VERTEX
8
0
62
255
10
-0.40987503
20
-0.70992437
30
0
70
32
0
VERTEX
8
0
62
255
10
-0.35132145
20
-0.6085066
30
0
70
32
0
VERTEX
8
0
62
255
10
-0.29276788
20
-0.50708884
30
0
70
32
0
VERTEX
8
0
62
255
10
-0.2342143
20
-0.40567107
30
0
70
32
0
VERTEX
8
0
62
255
10
-0.17566073
20
-0.3042533
30
0
70
32
0
VERTEX
8
0
62
255
10
-0.11710715
20
-0.20283553
30
0
70
32
0
VERTEX
8
0
62
255
10
-0.058553575
20
-0.10141777
30
0
70
32
0
VERTEX
8
0
62
255
10
0
20
0
30
0
70
32
0
SEQEND
8
0
0
POLYLINE
8
0
62
255
66
1
10
0
20
0
30
0
70
8
0
VERTEX
8
0
62
255
10
4.5
20
-4.5
30
0
70
32
0
VERTEX
8
0
62
255
10
4.49698
20
-4.4048641
30
0
70
32
0
VERTEX
8
0
62
255
10
4.4879322
20
-4.3101113
30
0
70
32
0
VERTEX
8
0
62
255
10
4.472893
20
-4.2161231
30
0
70
32
0
VERTEX
8
0
62
255
10
4.4519231
20
-4.123278
30
0
70
32
0
VERTEX
8
0
62
255
10
4.4251067
20
-4.0319498
30
0
70
32
0
VERTEX
8
0
62
255
10
4.3925519
20
-3.9425063
30
0
70
32
0
VERTEX
8
0
62
255
10
4.3543898
20
-3.8553076
30
0
70
32
0
VERTEX
8
0
62
255
10
4.3107741
20
-3.7707049
30
0
70
32
0
VERTEX
8
0
62
255
10
4.2618803
20
-3.6890388
30
0
70
32
0
VERTEX
8
0
62
255
10
4.2079054
20
-3.6106381
30
0
70
32
0
VERTEX
8
0
62
255
10
4.1490667
20
-3.5358186
30
0
70
32
0
VERTEX
8
0
62
255
10
4.0856011
20
-3.4648815
30
0
70
32
0
VERTEX
8
0
62
255
10
4.0177641
20
-3.3981124
30
0
70
32
0
VERTEX
8
0
62
255
10
3.945829
20
-3.3357803
30
0
70
32
0
VERTEX
8
0
62
255
10
3.8700854
20
-3.2781361
30
0
70
32
0
VERTEX
8
0
62
255
10
3.7908382
20
-3.2254119
30
0
70
32
0
VERTEX
8
0
62
255
10
3.7084066
20
-3.17782
30
0
70
32
0
VERTEX
8
0
62
255
10
3.6231225
20
-3.135552
30
0
70
32
0
VERTEX
8
0
62
255
10
3.5353293
20
-3.0987782
30
0
70
32
0
VERTEX
8
0
62
255
10
3.4453806
20
-3.0676466
30
0
70
32
0
VERTEX
8
0
62
255
10
3.3536384
20
-3.0422826
30
0
70
32
0
VERTEX
8
0
62
255
10
3.2604723
20
-3.0227884
30
0
70
32
0
VERTEX
8
0
62
255
10
3.1662573
20
-3.0092423
30
0
70
32
0
VERTEX
8
0
62
255
10
3.0713729
20
-3.001699
30
0
70
32
0
VERTEX
8
0
62
255
10
2.9762011
20
-3.0001888
30
0
70
32
0
VERTEX
8
0
62
255
10
2.8811251
20
-3.0047178
30
0
70
32
0
VERTEX
8
0
62
255
10
2.7865277
20
-3.0152678
30
0
70
32
0
VERTEX
8
0
62
255
10
2.69279
20
-3.0317963
30
0
70
32
0
VERTEX
8
0
62
255
10
2.6002893
20
-3.0542368
30
0
70
32
0
VERTEX
8
0
62
255
10
2.5093981
20
-3.0824988
30
0
70
32
0
VERTEX
8
0
62
255
10
2.4204823
20
-3.1164686
30
0
70
32
0
VERTEX
8
0
62
255
10
2.3339001
20
-3.1560093
30
0
70
32
0
VERTEX
8
0
62
255
10
2.25
20
-3.2009619
30
0
70
32
0
VERTEX
8
0
62
255
10
2.1691199
20
-3.2511452
30
0
70
32
0
VERTEX
8
0
62
255
10
2.0915855
20
-3.3063572
30
0
70
32
0
VERTEX
8
0
62
255
10
2.0177089
20
-3.3663756
30
0
70
32
0
VERTEX
8
0
62
255
10
1.9477877
20
-3.4309587
30
0
70
32
0
VERTEX
8
0
62
255
10
1.8821033
20
-3.4998465
30
0
70
32
0
VERTEX
8
0
62
255
10
1.8209204
20
-3.5727615
30
0
70
32
0
VERTEX
8
0
62
255
10
1.7644851
20
-3.6494102
30
0
70
32
0
VERTEX
8
0
62
255
10
1.7130249
20
-3.7294839
30
0
70
32
0
VERTEX
8
0
62
255
10
1.6667468
20
-3.8126602
30
0
70
32
0
VERTEX
8
0
62
255
10
1.6258373
20
-3.8986042
30
0
70
32
0
VERTEX
8
0
62
255
10
1.5904611
20
-3.9869698
30
0
70
32
0
VERTEX
8
0
62
255
10
1.5607605
20
-4.0774012
30
0
70
32
0
VERTEX
8
0
62
255
10
1.5368553
20
-4.1695342
30
0
70
32
0
VERTEX
8
0
62
255
10
1.5188417
20
-4.2629979
30
0
70
32
0
VERTEX
8
0
62
255
10
1.5067921
20
-4.3574159
30
0
70
32
0
VERTEX
8
0
62
255
10
1.5007552
20
-4.4524081
30
0
70
32
0
VERTEX
8
0
62
255
10
1.5007552
20
-4.5475919
30
0
70
32
0
VERTEX
8
0
62
255
10
1.5067921
20
-4.6425841
30
0
70
32
0
VERTEX
8
0
62
255
10
1.5188417
20
-4.7370021
30
0
70
32
0
VERTEX
8
0
62
255
10
1.5368553
20
-4.8304658
30
0
70
32
0
VERTEX
8
0
62
255
10
1.5607605
20
-4.9225988
30
0
70
32
0
VERTEX
8
0
62
255
10
1.5904611
20
-5.0130302
30
0
70
32
0
VERTEX
8
0
62
255
10
1.6258373
20
-5.1013958
30
0
70
32
0
VERTEX
8
0
62
255
10
1.6667468
20
-5.1873398
30
0
70
32
0
VERTEX
8
0
62
255
10
1.7130249
20
-5.2705161
30
0
70
32
0
VERTEX
8
0
62
255
10
1.7644851
20
-5.3505898
30
0
70
32
0
VERTEX
8
0
62
255
10
1.8209204
20
-5.4272385
30
0
70
32
0
VERTEX
8
0
62
255
10
1.8821033
20
-5.5001535
30
0
70
32
0
VERTEX
8
0
62
255
10
1.9477877
20
-5.5690413
30
0
70
32
0
VERTEX
8
0
62
255
10
2.0177089
20
-5.6336244
30
0
70
32
0
VERTEX
8
0
62
255
10
2.0915855
20
-5.6936428
30
0
70
32
0
VERTEX
8
0
62
255
10
2.1691199
20
-5.7488548
30
0
70
32
0
VERTEX
8
0
62
255
10
2.25
20
-5.7990381
30
0
70
32
0
VERTEX
8
0
62
255
10
2.3339001
20
-5.8439907
30
0
70
32
0
VERTEX
8
0
62
255
10
2.4204823
20
-5.8835314
30
0
70
32
0
VERTEX
8
0
62
255
10
2.5093981
20
-5.9175012
30
0
70
32
0
VERTEX
8
0
62
255
10
2.6002893
20
-5.9457632
30
0
70
32
0
VERTEX
8
0
62
255
10
2.69279
20
-5.9682037
30
0
70
32
0
VERTEX
8
0
62
255
10
2.7865277
20
-5.9847322
30
0
70
32
0
VERTEX
8
0
62
255
10
2.8811251
20
-5.9952822
30
0
70
32
0
VERTEX
8
0
62
255
10
2.9762011
20
-5.9998112
30
0
70
32
0
VERTEX
8
0
62
255
10
3.0713729
20
-5.998301
30
0
70
32
0
VERTEX
8
0
62
255
10
3.1662573
20
-5.9907577
30
0
70
32
0
VERTEX
8
0
62
255
10
3.2604723
20
-5.9772116
30
0
70
32
0
VERTEX
8
0
62
255
10
3.3536384
20
-5.9577174
30
0
70
32
0
VERTEX
8
0
62
255
10
3.4453806
20
-5.9323534
30
0
70
32
0
VERTEX
8
0
62
255
10
3.5353293
20
-5.9012218
30
0
70
32
0
VERTEX
8
0
62
255
10
3.6231225
20
-5.864448
30
0
70
32
0
VERTEX
8
0
62
255
10
3.7084066
20
-5.82218
30
0
70
32
0
VERTEX
8
0
62
255
10
3.7908382
20
-5.7745881
30
0
70
32
0
VERTEX
8
0
62
255
10
3.8700854
20
-5.7218639
30
0
70
32
0
VERTEX
8
0
62
255
10
3.945829
20
-5.6642197
30
0
70
32
0
VERTEX
8
0
62
255
10
4.0177641
20
-5.6018876
30
0
70
32
0
VERTEX
8
0
62
255
10
4.0856011
20
-5.5351185
30
0
70
32
0
VERTEX
8
0
62
255
10
4.1490667
20
-5.4641814
30
0
70
32
0
VERTEX
8
0
62
255
10
4.2079054
20
-5.3893619
30
0
70
32
0
VERTEX
8
0
62
255
10
4.2618803
20
-5.3109612
30
0
70
32
0
VERTEX
8
0
62
255
10
4.3107741
20
-5.2292951
30
0
70
32
0
VERTEX
8
0
62
255
10
4.3543898
20
-5.1446924
30
0
70
32
0
VERTEX
8
0
62
255
10
4.3925519
20
-5.0574937
30
0
70
32
0
VERTEX
8
0
62
255
10
4.4251067
20
-4.9680502
30
0
70
32
0
VERTEX
8
0
62
255
10
4.4519231
20
-4.876722
30
0
70
32
0
VERTEX
8
0
62
255
10
4.472893
20
-4.7838769
30
0
70
32
0
VERTEX
8
0
62
255
10
4.4879322
20
-4.6898887
30
0
70
32
0
VERTEX
8
0
62
255
10
4.49698
20
-4.5951359
30
0
70
32
0
VERTEX
8
0
62
255
10
4.5
20
-4.5
30
0
70
32
0
SEQEND
8
0
0
POLYLINE
8
0
62
255
66
1
10
0
20
0
30
0
70
8
0
VERTEX
8
0
62
255
10
21.687216
20
-4.5
30
0
70
32
0
VERTEX
8
0
62
255
10
21.684196
20
-4.4048641
30
0
70
32
0
VERTEX
8
0
62
255
10
21.675148
20
-4.3101113
30
0
70
32
0
VERTEX
8
0
62
255
10
21.660109
20
-4.2161231
30
0
70
32
0
VERTEX
8
0
62
255
10
21.639139
20
-4.123278
30
0
70
32
0
VERTEX
8
0
62
255
10
21.612322
20
-4.0319498
30
0
70
32
0
VERTEX
8
0
62
255
10
21.579768
20
-3.9425063
30
0
70
32
0
VERTEX
8
0
62
255
10
21.541606
20
-3.8553076
30
0
70
32
0
VERTEX
8
0
62
255
10
21.49799
20
-3.7707049
30
0
70
32
0
VERTEX
8
0
62
255
10
21.449096
20
-3.6890388
30
0
70
32
0
VERTEX
8
0
62
255
10
21.395121
20
-3.6106381
30
0
70
32
0
VERTEX
8
0
62
255
10
21.336282
20
-3.5358186
30
0
70
32
0
VERTEX
8
0
62
255
10
21.272817
20
-3.4648815
30
0
70
32
0
VERTEX
8
0
62
255
10
21.20498
20
-3.3981124
30
0
70
32
0
VERTEX
8
0
62
255
10
21.133045
20
-3.3357803
30
0
70
32
0
VERTEX
8
0
62
255
10
21.057301
20
-3.2781361
30
0
70
32
0
VERTEX
8
0
62
255
10
20.978054
20
-3.2254119
30
0
70
32
0
VERTEX
8
0
62
255
10
20.895622
20
-3.17782
30
0
70
32
0
VERTEX
8
0
62
255
10
20.810338
20
-3.135552
30
0
70
32
0
VERTEX
8
0
62
255
10
20.722545
20
-3.0987782
30
0
70
32
0
VERTEX
8
0
62
255
10
20.632596
20
-3.0676466
30
0
70
32
0
VERTEX
8
0
62
255
10
20.540854
20
-3.0422826
30
0
70
32
0
VERTEX
8
0
62
255
10
20.447688
20
-3.0227884
30
0
70
32
0
VERTEX
8
0
62
255
10
20.353473
20
-3.0092423
30
0
70
32
0
VERTEX
8
0
62
255
10
20.258589
20
-3.001699
30
0
70
32
0
VERTEX
8
0
62
255
10
20.163417
20
-3.0001888
30
0
70
32
0
VERTEX
8
0
62
255
10
20.068341
20
-3.0047178
30
0
70
32
0
VERTEX
8
0
62
255
10
19.973743
20
-3.0152678
30
0
70
32
0
VERTEX
8
0
62
255
10
19.880006
20
-3.0317963
30
0
70
32
0
VERTEX
8
0
62
255
10
19.787505
20
-3.0542368
30
0
70
32
0
VERTEX
8
0
62
255
10
19.696614
20
-3.0824988
30
0
70
32
0
VERTEX
8
0
62
255
10
19.607698
20
-3.1164686
30
0
70
32
0
VERTEX
8
0
62
255
10
19.521116
20
-3.1560093
30
0
70
32
0
VERTEX
8
0
62
255
10
19.437216
20
-3.2009619
30
0
70
32
0
VERTEX
8
0
62
255
10
19.356336
20
-3.2511452
30
0
70
32
0
VERTEX
8
0
62
255
10
19.278801
20
-3.3063572
30
0
70
32
0
VERTEX
8
0
62
255
10
19.204925
20
-3.3663756
30
0
70
32
0
VERTEX
8
0
62
255
10
19.135003
20
-3.4309587
30
0
70
32
0
VERTEX
8
0
62
255
10
19.069319
20
-3.4998465
30
0
70
32
0
VERTEX
8
0
62
255
10
19.008136
20
-3.5727615
30
0
70
32
0
VERTEX
8
0
62
255
10
18.951701
20
-3.6494102
30
0
70
32
0
VERTEX
8
0
62
255
10
18.900241
20
-3.7294839
30
0
70
32
0
VERTEX
8
0
62
255
10
18.853963
20
-3.8126602
30
0
70
32
0
VERTEX
8
0
62
255
10
18.813053
20
-3.8986042
30
0
70
32
0
VERTEX
8
0
62
255
10
18.777677
20
-3.9869698
30
0
70
32
0
VERTEX
8
0
62
255
10
18.747976
20
-4.0774012
30
0
70
32
0
VERTEX
8
0
62
255
10
18.724071
20
-4.1695342
30
0
70
32
0
VERTEX
8
0
62
255
10
18.706057
20
-4.2629979
30
0
70
32
0
VERTEX
8
0
62
255
10
18.694008
20
-4.3574159
30
0
70
32
0
VERTEX
8
0
62
255
10
18.687971
20
-4.4524081
30
0
70
32
0
VERTEX
8
0
62
255
10
18.687971
20
-4.5475919
30
0
70
32
0
VERTEX
8
0
62
255
10
18.694008
20
-4.6425841
30
0
70
32
0
VERTEX
8
0
62
255
10
18.706057
20
-4.7370021
30
0
70
32
0
VERTEX
8
0
62
255
10
18.724071
20
-4.8304658
30
0
70
32
0
VERTEX
8
0
62
255
10
18.747976
20
-4.9225988
30
0
70
32
0
VERTEX
8
0
62
255
10
18.777677
20
-5.0130302
30
0
70
32
0
VERTEX
8
0
62
255
10
18.813053
20
-5.1013958
30
0
70
32
0
VERTEX
8
0
62
255
10
18.853963
20
-5.1873398
30
0
70
32
0
VERTEX
8
0
62
255
10
18.900241
20
-5.2705161
30
0
70
32
0
VERTEX
8
0
62
255
10
18.951701
20
-5.3505898
30
0
70
32
0
VERTEX
8
0
62
255
10
19.008136
20
-5.4272385
30
0
70
32
0
VERTEX
8
0
62
255
10
19.069319
20
-5.5001535
30
0
70
32
0
VERTEX
8
0
62
255
10
19.135003
20
-5.5690413
30
0
70
32
0
VERTEX
8
0
62
255
10
19.204925
20
-5.6336244
30
0
70
32
0
VERTEX
8
0
62
255
10
19.278801
20
-5.6936428
30
0
70
32
0
VERTEX
8
0
62
255
10
19.356336
20
-5.7488548
30
0
70
32
0
VERTEX
8
0
62
255
10
19.437216
20
-5.7990381
30
0
70
32
0
VERTEX
8
0
62
255
10
19.521116
20
-5.8439907
30
0
70
32
0
VERTEX
8
0
62
255
10
19.607698
20
-5.8835314
30
0
70
32
0
VERTEX
8
0
62
255
10
19.696614
20
-5.9175012
30
0
70
32
0
VERTEX
8
0
62
255
10
19.787505
20
-5.9457632
30
0
70
32
0
VERTEX
8
0
62
255
10
19.880006
20
-5.9682037
30
0
70
32
0
VERTEX
8
0
62
255
10
19.973743
20
-5.9847322
30
0
70
32
0
VERTEX
8
0
62
255
10
20.068341
20
-5.9952822
30
0
70
32
0
VERTEX
8
0
62
255
10
20.163417
20
-5.9998112
30
0
70
32
0
VERTEX
8
0
62
255
10
20.258589
20
-5.998301
30
0
70
32
0
VERTEX
8
0
62
255
10
20.353473
20
-5.9907577
30
0
70
32
0
VERTEX
8
0
62
255
10
20.447688
20
-5.9772116
30
0
70
32
0
VERTEX
8
0
62
255
10
20.540854
20
-5.9577174
30
0
70
32
0
VERTEX
8
0
62
255
10
20.632596
20
-5.9323534
30
0
70
32
0
VERTEX
8
0
62
255
10
20.722545
20
-5.9012218
30
0
70
32
0
VERTEX
8
0
62
255
10
20.810338
20
-5.864448
30
0
70
32
0
VERTEX
8
0
62
255
10
20.895622
20
-5.82218
30
0
70
32
0
VERTEX
8
0
62
255
10
20.978054
20
-5.7745881
30
0
70
32
0
VERTEX
8
0
62
255
10
21.057301
20
-5.7218639
30
0
70
32
0
VERTEX
8
0
62
255
10
21.133045
20
-5.6642197
30
0
70
32
0
VERTEX
8
0
62
255
10
21.20498
20
-5.6018876
30
0
70
32
0
VERTEX
8
0
62
255
10
21.272817
20
-5.5351185
30
0
70
32
0
VERTEX
8
0
62
255
10
21.336282
20
-5.4641814
30
0
70
32
0
VERTEX
8
0
62
255
10
21.395121
20
-5.3893619
30
0
70
32
0
VERTEX
8
0
62
255
10
21.449096
20
-5.3109612
30
0
70
32
0
VERTEX
8
0
62
255
10
21.49799
20
-5.2292951
30
0
70
32
0
VERTEX
8
0
62
255
10
21.541606
20
-5.1446924
30
0
70
32
0
VERTEX
8
0
62
255
10
21.579768
20
-5.0574937
30
0
70
32
0
VERTEX
8
0
62
255
10
21.612322
20
-4.9680502
30
0
70
32
0
VERTEX
8
0
62
255
10
21.639139
20
-4.876722
30
0
70
32
0
VERTEX
8
0
62
255
10
21.660109
20
-4.7838769
30
0
70
32
0
VERTEX
8
0
62
255
10
21.675148
20
-4.6898887
30
0
70
32
0
VERTEX
8
0
62
255
10
21.684196
20
-4.5951359
30
0
70
32
0
VERTEX
8
0
62
255
10
21.687216
20
-4.5
30
0
70
32
0
SEQEND
8
0
0
POLYLINE
8
0
62
255
66
1
10
0
20
0
30
0
70
8
0
VERTEX
8
0
62
255
10
4.5
20
123.3
30
0
70
32
0
VERTEX
8
0
62
255
10
4.49698
20
123.39514
30
0
70
32
0
VERTEX
8
0
62
255
10
4.4879322
20
123.48989
30
0
70
32
0
VERTEX
8
0
62
255
10
4.472893
20
123.58388
30
0
70
32
0
VERTEX
8
0
62
255
10
4.4519231
20
123.67672
30
0
70
32
0
VERTEX
8
0
62
255
10
4.4251067
20
123.76805
30
0
70
32
0
VERTEX
8
0
62
255
10
4.3925519
20
123.85749
30
0
70
32
0
VERTEX
8
0
62
255
10
4.3543898
20
123.94469
30
0
70
32
0
VERTEX
8
0
62
255
10
4.3107741
20
124.0293
30
0
70
32
0
VERTEX
8
0
62
255
10
4.2618803
20
124.11096
30
0
70
32
0
VERTEX
8
0
62
255
10
4.2079054
20
124.18936
30
0
70
32
0
VERTEX
8
0
62
255
10
4.1490667
20
124.26418
30
0
70
32
0
VERTEX
8
0
62
255
10
4.0856011
20
124.33512
30
0
70
32
0
VERTEX
8
0
62
255
10
4.0177641
20
124.40189
30
0
70
32
0
VERTEX
8
0
62
255
10
3.945829
20
124.46422
30
0
70
32
0
VERTEX
8
0
62
255
10
3.8700854
20
124.52186
30
0
70
32
0
VERTEX
8
0
62
255
10
3.7908382
20
124.57459
30
0
70
32
0
VERTEX
8
0
62
255
10
3.7084066
20
124.62218
30
0
70
32
0
VERTEX
8
0
62
255
10
3.6231225
20
124.66445
30
0
70
32
0
VERTEX
8
0
62
255
10
3.5353293
20
124.70122
30
0
70
32
0
VERTEX
8
0
62
255
10
3.4453806
20
124.73235
30
0
70
32
0
VERTEX
8
0
62
255
10
3.3536384
20
124.75772
30
0
70
32
0
VERTEX
8
0
62
255
10
3.2604723
20
124.77721
30
0
70
32
0
VERTEX
8
0
62
255
10
3.1662573
20
124.79076
30
0
70
32
0
VERTEX
8
0
62
255
10
3.0713729
20
124.7983
30
0
70
32
0
VERTEX
8
0
62
255
10
2.9762011
20
124.79981
30
0
70
32
0
VERTEX
8
0
62
255
10
2.8811251
20
124.79528
30
0
70
32
0
VERTEX
8
0
62
255
10
2.7865277
20
124.78473
30
0
70
32
0
VERTEX
8
0
62
255
10
2.69279
20
124.7682
30
0
70
32
0
VERTEX
8
0
62
255
10
2.6002893
20
124.74576
30
0
70
32
0
VERTEX
8
0
62
255
10
2.5093981
20
124.7175
30
0
70
32
0
VERTEX
8
0
62
255
10
2.4204823
20
124.68353
30
0
70
32
0
VERTEX
8
0
62
255
10
2.3339001
20
124.64399
30
0
70
32
0
VERTEX
8
0
62
255
10
2.25
20
124.59904
30
0
70
32
0
VERTEX
8
0
62
255
10
2.1691199
20
124.54885
30
0
70
32
0
VERTEX
8
0
62
255
10
2.0915855
20
124.49364
30
0
70
32
0
VERTEX
8
0
62
255
10
2.0177089
20
124.43362
30
0
70
32
0
VERTEX
8
0
62
255
10
1.9477877
20
124.36904
30
0
70
32
0
VERTEX
8
0
62
255
10
1.8821033
20
124.30015
30
0
70
32
0
VERTEX
8
0
62
255
10
1.8209204
20
124.22724
30
0
70
32
0
VERTEX
8
0
62
255
10
1.7644851
20
124.15059
30
0
70
32
0
VERTEX
8
0
62
255
10
1.7130249
20
124.07052
30
0
70
32
0
VERTEX
8
0
62
255
10
1.6667468
20
123.98734
30
0
70
32
0
VERTEX
8
0
62
255
10
1.6258373
20
123.9014
30
0
70
32
0
VERTEX
8
0
62
255
10
1.5904611
20
123.81303
30
0
70
32
0
VERTEX
8
0
62
255
10
1.5607605
20
123.7226
30
0
70
32
0
VERTEX
8
0
62
255
10
1.5368553
20
123.63047
30
0
70
32
0
VERTEX
8
0
62
255
10
1.5188417
20
123.537
30
0
70
32
0
VERTEX
8
0
62
255
10
1.5067921
20
123.44258
30
0
70
32
0
VERTEX
8
0
62
255
10
1.5007552
20
123.34759
30
0
70
32
0
VERTEX
8
0
62
255
10
1.5007552
20
123.25241
30
0
70
32
0
VERTEX
8
0
62
255
10
1.5067921
20
123.15742
30
0
70
32
0
VERTEX
8
0
62
255
10
1.5188417
20
123.063
30
0
70
32
0
VERTEX
8
0
62
255
10
1.5368553
20
122.96953
30
0
70
32
0
VERTEX
8
0
62
255
10
1.5607605
20
122.8774
30
0
70
32
0
VERTEX
8
0
62
255
10
1.5904611
20
122.78697
30
0
70
32
0
VERTEX
8
0
62
255
10
1.6258373
20
122.6986
30
0
70
32
0
VERTEX
8
0
62
255
10
1.6667468
20
122.61266
30
0
70
32
0
VERTEX
8
0
62
255
10
1.7130249
20
122.52948
30
0
70
32
0
VERTEX
8
0
62
255
10
1.7644851
20
122.44941
30
0
70
32
0
VERTEX
8
0
62
255
10
1.8209204
20
122.37276
30
0
70
32
0
VERTEX
8
0
62
255
10
1.8821033
20
122.29985
30
0
70
32
0
VERTEX
8
0
62
255
10
1.9477877
20
122.23096
30
0
70
32
0
VERTEX
8
0
62
255
10
2.0177089
20
122.16638
30
0
70
32
0
VERTEX
8
0
62
255
10
2.0915855
20
122.10636
30
0
70
32
0
VERTEX
8
0
62
255
10
2.1691199
20
122.05115
30
0
70
32
0
VERTEX
8
0
62
255
10
2.25
20
122.00096
30
0
70
32
0
VERTEX
8
0
62
255
10
2.3339001
20
121.95601
30
0
70
32
0
VERTEX
8
0
62
255
10
2.4204823
20
121.91647
30
0
70
32
0
VERTEX
8
0
62
255
10
2.5093981
20
121.8825
30
0
70
32
0
VERTEX
8
0
62
255
10
2.6002893
20
121.85424
30
0
70
32
0
VERTEX
8
0
62
255
10
2.69279
20
121.8318
30
0
70
32
0
VERTEX
8
0
62
255
10
2.7865277
20
121.81527
30
0
70
32
0
VERTEX
8
0
62
255
10
2.8811251
20
121.80472
30
0
70
32
0
VERTEX
8
0
62
255
10
2.9762011
20
121.80019
30
0
70
32
0
VERTEX
8
0
62
255
10
3.0713729
20
121.8017
30
0
70
32
0
VERTEX
8
0
62
255
10
3.1662573
20
121.80924
30
0
70
32
0
VERTEX
8
0
62
255
10
3.2604723
20
121.82279
30
0
70
32
0
VERTEX
8
0
62
255
10
3.3536384
20
121.84228
30
0
70
32
0
VERTEX
8
0
62
255
10
3.4453806
20
121.86765
30
0
70
32
0
VERTEX
8
0
62
255
10
3.5353293
20
121.89878
30
0
70
32
0
VERTEX
8
0
62
255
10
3.6231225
20
121.93555
30
0
70
32
0
VERTEX
8
0
62
255
10
3.7084066
20
121.97782
30
0
70
32
0
VERTEX
8
0
62
255
10
3.7908382
20
122.02541
30
0
70
32
0
VERTEX
8
0
62
255
10
3.8700854
20
122.07814
30
0
70
32
0
VERTEX
8
0
62
255
10
3.945829
20
122.13578
30
0
70
32
0
VERTEX
8
0
62
255
10
4.0177641
20
122.19811
30
0
70
32
0
VERTEX
8
0
62
255
10
4.0856011
20
122.26488
30
0
70
32
0
VERTEX
8
0
62
255
10
4.1490667
20
122.33582
30
0
70
32
0
VERTEX
8
0
62
255
10
4.2079054
20
122.41064
30
0
70
32
0
VERTEX
8
0
62
255
10
4.2618803
20
122.48904
30
0
70
32
0
VERTEX
8
0
62
255
10
4.3107741
20
122.5707
30
0
70
32
0
VERTEX
8
0
62
255
10
4.3543898
20
122.65531
30
0
70
32
0
VERTEX
8
0
62
255
10
4.3925519
20
122.74251
30
0
70
32
0
VERTEX
8
0
62
255
10
4.4251067
20
122.83195
30
0
70
32
0
VERTEX
8
0
62
255
10
4.4519231
20
122.92328
30
0
70
32
0
VERTEX
8
0
62
255
10
4.472893
20
123.01612
30
0
70
32
0
VERTEX
8
0
62
255
10
4.4879322
20
123.11011
30
0
70
32
0
VERTEX
8
0
62
255
10
4.49698
20
123.20486
30
0
70
32
0
VERTEX
8
0
62
255
10
4.5
20
123.3
30
0
70
32
0
SEQEND
8
0
0
POLYLINE
8
0
62
255
66
1
10
0
20
0
30
0
70
8
0
VERTEX
8
0
62
255
10
21.687216
20
123.3
30
0
70
32
0
VERTEX
8
0
62
255
10
21.684196
20
123.39514
30
0
70
32
0
VERTEX
8
0
62
255
10
21.675148
20
123.48989
30
0
70
32
0
VERTEX
8
0
62
255
10
21.660109
20
123.58388
30
0
70
32
0
VERTEX
8
0
62
255
10
21.639139
20
123.67672
30
0
70
32
0
VERTEX
8
0
62
255
10
21.612322
20
123.76805
30
0
70
32
0
VERTEX
8
0
62
255
10
21.579768
20
123.85749
30
0
70
32
0
VERTEX
8
0
62
255
10
21.541606
20
123.94469
30
0
70
32
0
VERTEX
8
0
62
255
10
21.49799
20
124.0293
30
0
70
32
0
VERTEX
8
0
62
255
10
21.449096
20
124.11096
30
0
70
32
0
VERTEX
8
0
62
255
10
21.395121
20
124.18936
30
0
70
32
0
VERTEX
8
0
62
255
10
21.336282
20
124.26418
30
0
70
32
0
VERTEX
8
0
62
255
10
21.272817
20
124.33512
30
0
70
32
0
VERTEX
8
0
62
255
10
21.20498
20
124.40189
30
0
70
32
0
VERTEX
8
0
62
255
10
21.133045
20
124.46422
30
0
70
32
0
VERTEX
8
0
62
255
10
21.057301
20
124.52186
30
0
70
32
0
VERTEX
8
0
62
255
10
20.978054
20
124.57459
30
0
70
32
0
VERTEX
8
0
62
255
10
20.895622
20
124.62218
30
0
70
32
0
VERTEX
8
0
62
255
10
20.810338
20
124.66445
30
0
70
32
0
VERTEX
8
0
62
255
10
20.722545
20
124.70122
30
0
70
32
0
VERTEX
8
0
62
255
10
20.632596
20
124.73235
30
0
70
32
0
VERTEX
8
0
62
255
10
20.540854
20
124.75772
30
0
70
32
0
VERTEX
8
0
62
255
10
20.447688
20
124.77721
30
0
70
32
0
VERTEX
8
0
62
255
10
20.353473
20
124.79076
30
0
70
32
0
VERTEX
8
0
62
255
10
20.258589
20
124.7983
30
0
70
32
0
VERTEX
8
0
62
255
10
20.163417
20
124.79981
30
0
70
32
0
VERTEX
8
0
62
255
10
20.068341
20
124.79528
30
0
70
32
0
VERTEX
8
0
62
255
10
19.973743
20
124.78473
30
0
70
32
0
VERTEX
8
0
62
255
10
19.880006
20
124.7682
30
0
70
32
0
VERTEX
8
0
62
255
10
19.787505
20
124.74576
30
0
70
32
0
VERTEX
8
0
62
255
10
19.696614
20
124.7175
30
0
70
32
0
VERTEX
8
0
62
255
10
19.607698
20
124.68353
30
0
70
32
0
VERTEX
8
0
62
255
10
19.521116
20
124.64399
30
0
70
32
0
VERTEX
8
0
62
255
10
19.437216
20
124.59904
30
0
70
32
0
VERTEX
8
0
62
255
10
19.356336
20
124.54885
30
0
70
32
0
VERTEX
8
0
62
255
10
19.278801
20
124.49364
30
0
70
32
0
VERTEX
8
0
62
255
10
19.204925
20
124.43362
30
0
70
32
0
VERTEX
8
0
62
255
10
19.135003
20
124.36904
30
0
70
32
0
VERTEX
8
0
62
255
10
19.069319
20
124.30015
30
0
70
32
0
VERTEX
8
0
62
255
10
19.008136
20
124.22724
30
0
70
32
0
VERTEX
8
0
62
255
10
18.951701
20
124.15059
30
0
70
32
0
VERTEX
8
0
62
255
10
18.900241
20
124.07052
30
0
70
32
0
VERTEX
8
0
62
255
10
18.853963
20
123.98734
30
0
70
32
0
VERTEX
8
0
62
255
10
18.813053
20
123.9014
30
0
70
32
0
VERTEX
8
0
62
255
10
18.777677
20
123.81303
30
0
70
32
0
VERTEX
8
0
62
255
10
18.747976
20
123.7226
30
0
70
32
0
VERTEX
8
0
62
255
10
18.724071
20
123.63047
30
0
70
32
0
VERTEX
8
0
62
255
10
18.706057
20
123.537
30
0
70
32
0
VERTEX
8
0
62
255
10
18.694008
20
123.44258
30
0
70
32
0
VERTEX
8
0
62
255
10
18.687971
20
123.34759
30
0
70
32
0
VERTEX
8
0
62
255
10
18.687971
20
123.25241
30
0
70
32
0
VERTEX
8
0
62
255
10
18.694008
20
123.15742
30
0
70
32
0
VERTEX
8
0
62
255
10
18.706057
20
123.063
30
0
70
32
0
VERTEX
8
0
62
255
10
18.724071
20
122.96953
30
0
70
32
0
VERTEX
8
0
62
255
10
18.747976
20
122.8774
30
0
70
32
0
VERTEX
8
0
62
255
10
18.777677
20
122.78697
30
0
70
32
0
VERTEX
8
0
62
255
10
18.813053
20
122.6986
30
0
70
32
0
VERTEX
8
0
62
255
10
18.853963
20
122.61266
30
0
70
32
0
VERTEX
8
0
62
255
10
18.900241
20
122.52948
30
0
70
32
0
VERTEX
8
0
62
255
10
18.951701
20
122.44941
30
0
70
32
0
VERTEX
8
0
62
255
10
19.008136
20
122.37276
30
0
70
32
0
VERTEX
8
0
62
255
10
19.069319
20
122.29985
30
0
70
32
0
VERTEX
8
0
62
255
10
19.135003
20
122.23096
30
0
70
32
0
VERTEX
8
0
62
255
10
19.204925
20
122.16638
30
0
70
32
0
VERTEX
8
0
62
255
10
19.278801
20
122.10636
30
0
70
32
0
VERTEX
8
0
62
255
10
19.356336
20
122.05115
30
0
70
32
0
VERTEX
8
0
62
255
10
19.437216
20
122.00096
30
0
70
32
0
VERTEX
8
0
62
255
10
19.521116
20
121.95601
30
0
70
32
0
VERTEX
8
0
62
255
10
19.607698
20
121.91647
30
0
70
32
0
VERTEX
8
0
62
255
10
19.696614
20
121.8825
30
0
70
32
0
VERTEX
8
0
62
255
10
19.787505
20
121.85424
30
0
70
32
0
VERTEX
8
0
62
255
10
19.880006
20
121.8318
30
0
70
32
0
VERTEX
8
0
62
255
10
19.973743
20
121.81527
30
0
70
32
0
VERTEX
8
0
62
255
10
20.068341
20
121.80472
30
0
70
32
0
VERTEX
8
0
62
255
10
20.163417
20
121.80019
30
0
70
32
0
VERTEX
8
0
62
255
10
20.258589
20
121.8017
30
0
70
32
0
VERTEX
8
0
62
255
10
20.353473
20
121.80924
30
0
70
32
0
VERTEX
8
0
62
255
10
20.447688
20
121.82279
30
0
70
32
0
VERTEX
8
0
62
255
10
20.540854
20
121.84228
30
0
70
32
0
VERTEX
8
0
62
255
10
20.632596
20
121.86765
30
0
70
32
0
VERTEX
8
0
62
255
10
20.722545
20
121.89878
30
0
70
32
0
VERTEX
8
0
62
255
10
20.810338
20
121.93555
30
0
70
32
0
VERTEX
8
0
62
255
10
20.895622
20
121.97782
30
0
70
32
0
VERTEX
8
0
62
255
10
20.978054
20
122.02541
30
0
70
32
0
VERTEX
8
0
62
255
10
21.057301
20
122.07814
30
0
70
32
0
VERTEX
8
0
62
255
10
21.133045
20
122.13578
30
0
70
32
0
VERTEX
8
0
62
255
10
21.20498
20
122.19811
30
0
70
32
0
VERTEX
8
0
62
255
10
21.272817
20
122.26488
30
0
70
32
0
VERTEX
8
0
62
255
10
21.336282
20
122.33582
30
0
70
32
0
VERTEX
8
0
62
255
10
21.395121
20
122.41064
30
0
70
32
0
VERTEX
8
0
62
255
10
21.449096
20
122.48904
30
0
70
32
0
VERTEX
8
0
62
255
10
21.49799
20
122.5707
30
0
70
32
0
VERTEX
8
0
62
255
10
21.541606
20
122.65531
30
0
70
32
0
VERTEX
8
0
62
255
10
21.579768
20
122.74251
30
0
70
32
0
VERTEX
8
0
62
255
10
21.612322
20
122.83195
30
0
70
32
0
VERTEX
8
0
62
255
10
21.639139
20
122.92328
30
0
70
32
0
VERTEX
8
0
62
255
10
21.660109
20
123.01612
30
0
70
32
0
VERTEX
8
0
62
255
10
21.675148
20
123.11011
30
0
70
32
0
VERTEX
8
0
62
255
10
21.684196
20
123.20486
30
0
70
32
0
VERTEX
8
0
62
255
10
21.687216
20
123.3
30
0
70
32
0
SEQEND
8
0
0
POLYLINE
8
0
62
255
66
1
10
0
20
0
30
0
70
8
0
VERTEX
8
0
62
255
10
-30.796804
20
-41.884772
30
0
70
32
0
VERTEX
8
0
62
255
10
-29.940432
20
-41.884772
30
0
70
32
0
VERTEX
8
0
62
255
10
-29.08406
20
-41.884772
30
0
70
32
0
VERTEX
8
0
62
255
10
-28.227688
20
-41.884772
30
0
70
32
0
VERTEX
8
0
62
255
10
-27.371316
20
-41.884772
30
0
70
32
0
VERTEX
8
0
62
255
10
-26.514944
20
-41.884772
30
0
70
32
0
VERTEX
8
0
62
255
10
-25.658572
20
-41.884772
30
0
70
32
0
VERTEX
8
0
62
255
10
-24.8022
20
-41.884772
30
0
70
32
0
VERTEX
8
0
62
255
10
-23.945828
20
-41.884772
30
0
70
32
0
VERTEX
8
0
62
255
10
-23.089456
20
-41.884772
30
0
70
32
0
VERTEX
8
0
62
255
10
-22.233084
20
-41.884772
30
0
70
32
0
VERTEX
8
0
62
255
10
-21.376712
20
-41.884772
30
0
70
32
0
VERTEX
8
0
62
255
10
-20.52034
20
-41.884772
30
0
70
32
0
VERTEX
8
0
62
255
10
-19.663969
20
-41.884772
30
0
70
32
0
VERTEX
8
0
62
255
10
-18.807597
20
-41.884772
30
0
70
32
0
VERTEX
8
0
62
255
10
-17.951225
20
-41.884772
30
0
70
32
0
VERTEX
8
0
62
255
10
-17.094853
20
-41.884772
30
0
70
32
0
VERTEX
8
0
62
255
10
-16.238481
20
-41.884772
30
0
70
32
0
VERTEX
8
0
62
255
10
-15.382109
20
-41.884772
30
0
70
32
0
VERTEX
8
0
62
255
10
-14.525737
20
-41.884772
30
0
70
32
0
VERTEX
8
0
62
255
10
-13.669365
20
-41.884772
30
0
70
32
0
VERTEX
8
0
62
255
10
-12.812993
20
-41.884772
30
0
70
32
0
VERTEX
8
0
62
255
10
-11.956621
20
-41.884772
30
0
70
32
0
VERTEX
8
0
62
255
10
-11.100249
20
-41.884772
30
0
70
32
0
VERTEX
8
0
62
255
10
-10.243877
20
-41.884772
30
0
70
32
0
VERTEX
8
0
62
255
10
-9.387505
20
-41.884772
30
0
70
32
0
VERTEX
8
0
62
255
10
-8.5311331
20
-41.884772
30
0
70
32
0
VERTEX
8
0
62
255
10
-7.6747611
20
-41.884772
30
0
70
32
0
VERTEX
8
0
62
255
10
-6.8183892
20
-41.884772
30
0
70
32
0
VERTEX
8
0
62
255
10
-5.9620172
20
-41.884772
30
0
70
32
0
VERTEX
8
0
62
255
10
-5.1056453
20
-41.884772
30
0
70
32
0
VERTEX
8
0
62
255
10
-4.2492733
20
-41.884772
30
0
70
32
0
VERTEX
8
0
62
255
10
-3.3929014
20
-41.884772
30
0
70
32
0
VERTEX
8
0
62
255
10
-2.5365294
20
-41.884772
30
0
70
32
0
VERTEX
8
0
62
255
10
-1.6801574
20
-41.884772
30
0
70
32
0
VERTEX
8
0
62
255
10
-0.82378549
20
-41.884772
30
0
70
32
0
VERTEX
8
0
62
255
10
0.032586469
20
-41.884772
30
0
70
32
0
VERTEX
8
0
62
255
10
0.88895842
20
-41.884772
30
0
70
32
0
VERTEX
8
0
62
255
10
1.7453304
20
-41.884772
30
0
70
32
0
VERTEX
8
0
62
255
10
2.6017023
20
-41.884772
30
0
70
32
0
VERTEX
8
0
62
255
10
3.4580743
20
-41.884772
30
0
70
32
0
VERTEX
8
0
62
255
10
4.3144462
20
-41.884772
30
0
70
32
0
VERTEX
8
0
62
255
10
5.1708182
20
-41.884772
30
0
70
32
0
VERTEX
8
0
62
255
10
6.0271902
20
-41.884772
30
0
70
32
0
VERTEX
8
0
62
255
10
6.8835621
20
-41.884772
30
0
70
32
0
VERTEX
8
0
62
255
10
7.7399341
20
-41.884772
30
0
70
32
0
VERTEX
8
0
62
255
10
8.596306
20
-41.884772
30
0
70
32
0
VERTEX
8
0
62
255
10
9.452678
20
-41.884772
30
0
70
32
0
VERTEX
8
0
62
255
10
10.30905
20
-41.884772
30
0
70
32
0
VERTEX
8
0
62
255
10
11.165422
20
-41.884772
30
0
70
32
0
VERTEX
8
0
62
255
10
12.021794
20
-41.884772
30
0
70
32
0
VERTEX
8
0
62
255
10
12.878166
20
-41.884772
30
0
70
32
0
VERTEX
8
0
62
255
10
13.734538
20
-41.884772
30
0
70
32
0
VERTEX
8
0
62
255
10
14.59091
20
-41.884772
30
0
70
32
0
VERTEX
8
0
62
255
10
15.447282
20
-41.884772
30
0
70
32
0
VERTEX
8
0
62
255
10
16.303654
20
-41.884772
30
0
70
32
0
VERTEX
8
0
62
255
10
17.160026
20
-41.884772
30
0
70
32
0
VERTEX
8
0
62
255
10
18.016398
20
-41.884772
30
0
70
32
0
VERTEX
8
0
62
255
10
18.872769
20
-41.884772
30
0
70
32
0
VERTEX
8
0
62
255
10
19.729141
20
-41.884772
30
0
70
32
0
VERTEX
8
0
62
255
10
20.585513
20
-41.884772
30
0
70
32
0
VERTEX
8
0
62
255
10
21.441885
20
-41.884772
30
0
70
32
0
VERTEX
8
0
62
255
10
22.298257
20
-41.884772
30
0
70
32
0
VERTEX
8
0
62
255
10
23.154629
20
-41.884772
30
0
70
32
0
VERTEX
8
0
62
255
10
24.011001
20
-41.884772
30
0
70
32
0
VERTEX
8
0
62
255
10
24.867373
20
-41.884772
30
0
70
32
0
VERTEX
8
0
62
255
10
25.723745
20
-41.884772
30
0
70
32
0
VERTEX
8
0
62
255
10
26.580117
20
-41.884772
30
0
70
32
0
VERTEX
8
0
62
255
10
27.436489
20
-41.884772
30
0
70
32
0
VERTEX
8
0
62
255
10
28.292861
20
-41.884772
30
0
70
32
0
VERTEX
8
0
62
255
10
29.149233
20
-41.884772
30
0
70
32
0
VERTEX
8
0
62
255
10
30.005605
20
-41.884772
30
0
70
32
0
VERTEX
8
0
62
255
10
30.861977
20
-41.884772
30
0
70
32
0
VERTEX
8
0
62
255
10
31.718349
20
-41.884772
30
0
70
32
0
VERTEX
8
0
62
255
10
32.574721
20
-41.884772
30
0
70
32
0
VERTEX
8
0
62
255
10
33.431093
20
-41.884772
30
0
70
32
0
VERTEX
8
0
62
255
10
34.287465
20
-41.884772
30
0
70
32
0
VERTEX
8
0
62
255
10
35.143837
20
-41.884772
30
0
70
32
0
VERTEX
8
0
62
255
10
36.000209
20
-41.884772
30
0
70
32
0
VERTEX
8
0
62
255
10
36.856581
20
-41.884772
30
0
70
32
0
VERTEX
8
0
62
255
10
37.712953
20
-41.884772
30
0
70
32
0
VERTEX
8
0
62
255
10
38.569324
20
-41.884772
30
0
70
32
0
VERTEX
8
0
62
255
10
39.425696
20
-41.884772
30
0
70
32
0
VERTEX
8
0
62
255
10
40.282068
20
-41.884772
30
0
70
32
0
VERTEX
8
0
62
255
10
41.13844
20
-41.884772
30
0
70
32
0
VERTEX
8
0
62
255
10
41.994812
20
-41.884772
30
0
70
32
0
VERTEX
8
0
62
255
10
42.851184
20
-41.884772
30
0
70
32
0
VERTEX
8
0
62
255
10
43.707556
20
-41.884772
30
0
70
32
0
VERTEX
8
0
62
255
10
44.563928
20
-41.884772
30
0
70
32
0
VERTEX
8
0
62
255
10
45.4203
20
-41.884772
30
0
70
32
0
VERTEX
8
0
62
255
10
46.276672
20
-41.884772
30
0
70
32
0
VERTEX
8
0
62
255
10
47.133044
20
-41.884772
30
0
70
32
0
VERTEX
8
0
62
255
10
47.989416
20
-41.884772
30
0
70
32
0
VERTEX
8
0
62
255
10
48.845788
20
-41.884772
30
0
70
32
0
VERTEX
8
0
62
255
10
49.70216
20
-41.884772
30
0
70
32
0
VERTEX
8
0
62
255
10
50.558532
20
-41.884772
30
0
70
32
0
VERTEX
8
0
62
255
10
51.414904
20
-41.884772
30
0
70
32
0
VERTEX
8
0
62
255
10
52.271276
20
-41.884772
30
0
70
32
0
VERTEX
8
0
62
255
10
53.127648
20
-41.884772
30
0
70
32
0
VERTEX
8
0
62
255
10
53.98402
20
-41.884772
30
0
70
32
0
SEQEND
8
0
0
POLYLINE
8
0
62
255
66
1
10
0
20
0
30
0
70
8
0
VERTEX
8
0
62
255
10
53.98402
20
-41.884772
30
0
70
32
0
VERTEX
8
0
62
255
10
53.98402
20
-39.838615
30
0
70
32
0
VERTEX
8
0
62
255
10
53.98402
20
-37.792458
30
0
70
32
0
VERTEX
8
0
62
255
10
53.98402
20
-35.746301
30
0
70
32
0
VERTEX
8
0
62
255
10
53.98402
20
-33.700144
30
0
70
32
0
VERTEX
8
0
62
255
10
53.98402
20
-31.653987
30
0
70
32
0
VERTEX
8
0
62
255
10
53.98402
20
-29.60783
30
0
70
32
0
VERTEX
8
0
62
255
10
53.98402
20
-27.561673
30
0
70
32
0
VERTEX
8
0
62
255
10
53.98402
20
-25.515516
30
0
70
32
0
VERTEX
8
0
62
255
10
53.98402
20
-23.469359
30
0
70
32
0
VERTEX
8
0
62
255
10
53.98402
20
-21.423202
30
0
70
32
0
VERTEX
8
0
62
255
10
53.98402
20
-19.377045
30
0
70
32
0
VERTEX
8
0
62
255
10
53.98402
20
-17.330888
30
0
70
32
0
VERTEX
8
0
62
255
10
53.98402
20
-15.284731
30
0
70
32
0
VERTEX
8
0
62
255
10
53.98402
20
-13.238574
30
0
70
32
0
VERTEX
8
0
62
255
10
53.98402
20
-11.192417
30
0
70
32
0
VERTEX
8
0
62
255
10
53.98402
20
-9.1462601
30
0
70
32
0
VERTEX
8
0
62
255
10
53.98402
20
-7.1001031
30
0
70
32
0
VERTEX
8
0
62
255
10
53.98402
20
-5.053946
30
0
70
32
0
VERTEX
8
0
62
255
10
53.98402
20
-3.007789
30
0
70
32
0
VERTEX
8
0
62
255
10
53.98402
20
-0.96163201
30
0
70
32
0
VERTEX
8
0
62
255
10
53.98402
20
1.084525
30
0
70
32
0
VERTEX
8
0
62
255
10
53.98402
20
3.130682
30
0
70
32
0
VERTEX
8
0
62
255
10
53.98402
20
5.176839
30
0
70
32
0
VERTEX
8
0
62
255
10
53.98402
20
7.2229961
30
0
70
32
0
VERTEX
8
0
62
255
10
53.98402
20
9.2691531
30
0
70
32
0
VERTEX
8
0
62
255
10
53.98402
20
11.31531
30
0
70
32
0
VERTEX
8
0
62
255
10
53.98402
20
13.361467
30
0
70
32
0
VERTEX
8
0
62
255
10
53.98402
20
15.407624
30
0
70
32
0
VERTEX
8
0
62
255
10
53.98402
20
17.453781
30
0
70
32
0
VERTEX
8
0
62
255
10
53.98402
20
19.499938
30
0
70
32
0
VERTEX
8
0
62
255
10
53.98402
20
21.546095
30
0
70
32
0
VERTEX
8
0
62
255
10
53.98402
20
23.592252
30
0
70
32
0
VERTEX
8
0
62
255
10
53.98402
20
25.638409
30
0
70
32
0
VERTEX
8
0
62
255
10
53.98402
20
27.684566
30
0
70
32
0
VERTEX
8
0
62
255
10
53.98402
20
29.730723
30
0
70
32
0
VERTEX
8
0
62
255
10
53.98402
20
31.77688
30
0
70
32
0
VERTEX
8
0
62
255
10
53.98402
20
33.823037
30
0
70
32
0
VERTEX
8
0
62
255
10
53.98402
20
35.869194
30
0
70
32
0
VERTEX
8
0
62
255
10
53.98402
20
37.915351
30
0
70
32
0
VERTEX
8
0
62
255
10
53.98402
20
39.961508
30
0
70
32
0
VERTEX
8
0
62
255
10
53.98402
20
42.007665
30
0
70
32
0
VERTEX
8
0
62
255
10
53.98402
20
44.053822
30
0
70
32
0
VERTEX
8
0
62
255
10
53.98402
20
46.099979
30
0
70
32
0
VERTEX
8
0
62
255
10
53.98402
20
48.146136
30
0
70
32
0
VERTEX
8
0
62
255
10
53.98402
20
50.192293
30
0
70
32
0
VERTEX
8
0
62
255
10
53.98402
20
52.23845
30
0
70
32
0
VERTEX
8
0
62
255
10
53.98402
20
54.284607
30
0
70
32
0
VERTEX
8
0
62
255
10
53.98402
20
56.330764
30
0
70
32
0
VERTEX
8
0
62
255
10
53.98402
20
58.376921
30
0
70
32
0
VERTEX
8
0
62
255
10
53.98402
20
60.423079
30
0
70
32
0
VERTEX
8
0
62
255
10
53.98402
20
62.469236
30
0
70
32
0
VERTEX
8
0
62
255
10
53.98402
20
64.515393
30
0
70
32
0
VERTEX
8
0
62
255
10
53.98402
20
66.56155
30
0
70
32
0
VERTEX
8
0
62
255
10
53.98402
20
68.607707
30
0
70
32
0
VERTEX
8
0
62
255
10
53.98402
20
70.653864
30
0
70
32
0
VERTEX
8
0
62
255
10
53.98402
20
72.700021
30
0
70
32
0
VERTEX
8
0
62
255
10
53.98402
20
74.746178
30
0
70
32
0
VERTEX
8
0
62
255
10
53.98402
20
76.792335
30
0
70
32
0
VERTEX
8
0
62
255
10
53.98402
20
78.838492
30
0
70
32
0
VERTEX
8
0
62
255
10
53.98402
20
80.884649
30
0
70
32
0
VERTEX
8
0
62
255
10
53.98402
20
82.930806
30
0
70
32
0
VERTEX
8
0
62
255
10
53.98402
20
84.976963
30
0
70
32
0
VERTEX
8
0
62
255
10
53.98402
20
87.02312
30
0
70
32
0
VERTEX
8
0
62
255
10
53.98402
20
89.069277
30
0
70
32
0
VERTEX
8
0
62
255
10
53.98402
20
91.115434
30
0
70
32
0
VERTEX
8
0
62
255
10
53.98402
20
93.161591
30
0
70
32
0
VERTEX
8
0
62
255
10
53.98402
20
95.207748
30
0
70
32
0
VERTEX
8
0
62
255
10
53.98402
20
97.253905
30
0
70
32
0
VERTEX
8
0
62
255
10
53.98402
20
99.300062
30
0
70
32
0
VERTEX
8
0
62
255
10
53.98402
20
101.34622
30
0
70
32
0
VERTEX
8
0
62
255
10
53.98402
20
103.39238
30
0
70
32
0
VERTEX
8
0
62
255
10
53.98402
20
105.43853
30
0
70
32
0
VERTEX
8
0
62
255
10
53.98402
20
107.48469
30
0
70
32
0
VERTEX
8
0
62
255
10
53.98402
20
109.53085
30
0
70
32
0
VERTEX
8
0
62
255
10
53.98402
20
111.577
30
0
70
32
0
VERTEX
8
0
62
255
10
53.98402
20
113.62316
30
0
70
32
0
VERTEX
8
0
62
255
10
53.98402
20
115.66932
30
0
70
32
0
VERTEX
8
0
62
255
10
53.98402
20
117.71547
30
0
70
32
0
VERTEX
8
0
62
255
10
53.98402
20
119.76163
30
0
70
32
0
VERTEX
8
0
62
255
10
53.98402
20
121.80779
30
0
70
32
0
VERTEX
8
0
62
255
10
53.98402
20
123.85395
30
0
70
32
0
VERTEX
8
0
62
255
10
53.98402
20
125.9001
30
0
70
32
0
VERTEX
8
0
62
255
10
53.98402
20
127.94626
30
0
70
32
0
VERTEX
8
0
62
255
10
53.98402
20
129.99242
30
0
70
32
0
VERTEX
8
0
62
255
10
53.98402
20
132.03857
30
0
70
32
0
VERTEX
8
0
62
255
10
53.98402
20
134.08473
30
0
70
32
0
VERTEX
8
0
62
255
10
53.98402
20
136.13089
30
0
70
32
0
VERTEX
8
0
62
255
10
53.98402
20
138.17705
30
0
70
32
0
VERTEX
8
0
62
255
10
53.98402
20
140.2232
30
0
70
32
0
VERTEX
8
0
62
255
10
53.98402
20
142.26936
30
0
70
32
0
VERTEX
8
0
62
255
10
53.98402
20
144.31552
30
0
70
32
0
VERTEX
8
0
62
255
10
53.98402
20
146.36167
30
0
70
32
0
VERTEX
8
0
62
255
10
53.98402
20
148.40783
30
0
70
32
0
VERTEX
8
0
62
255
10
53.98402
20
150.45399
30
0
70
32
0
VERTEX
8
0
62
255
10
53.98402
20
152.50014
30
0
70
32
0
VERTEX
8
0
62
255
10
53.98402
20
154.5463
30
0
70
32
0
VERTEX
8
0
62
255
10
53.98402
20
156.59246
30
0
70
32
0
VERTEX
8
0
62
255
10
53.98402
20
158.63862
30
0
70
32
0
VERTEX
8
0
62
255
10
53.98402
20
160.68477
30
0
70
32
0
SEQEND
8
0
0
POLYLINE
8
0
62
255
66
1
10
0
20
0
30
0
70
8
0
VERTEX
8
0
62
255
10
53.98402
20
160.68477
30
0
70
32
0
VERTEX
8
0
62
255
10
53.127648
20
160.68477
30
0
70
32
0
VERTEX
8
0
62
255
10
52.271276
20
160.68477
30
0
70
32
0
VERTEX
8
0
62
255
10
51.414904
20
160.68477
30
0
70
32
0
VERTEX
8
0
62
255
10
50.558532
20
160.68477
30
0
70
32
0
VERTEX
8
0
62
255
10
49.70216
20
160.68477
30
0
70
32
0
VERTEX
8
0
62
255
10
48.845788
20
160.68477
30
0
70
32
0
VERTEX
8
0
62
255
10
47.989416
20
160.68477
30
0
70
32
0
VERTEX
8
0
62
255
10
47.133044
20
160.68477
30
0
70
32
0
VERTEX
8
0
62
255
10
46.276672
20
160.68477
30
0
70
32
0
VERTEX
8
0
62
255
10
45.4203
20
160.68477
30
0
70
32
0
VERTEX
8
0
62
255
10
44.563928
20
160.68477
30
0
70
32
0
VERTEX
8
0
62
255
10
43.707556
20
160.68477
30
0
70
32
0
VERTEX
8
0
62
255
10
42.851184
20
160.68477
30
0
70
32
0
VERTEX
8
0
62
255
10
41.994812
20
160.68477
30
0
70
32
0
VERTEX
8
0
62
255
10
41.13844
20
160.68477
30
0
70
32
0
VERTEX
8
0
62
255
10
40.282068
20
160.68477
30
0
70
32
0
VERTEX
8
0
62
255
10
39.425696
20
160.68477
30
0
70
32
0
VERTEX
8
0
62
255
10
38.569324
20
160.68477
30
0
70
32
0
VERTEX
8
0
62
255
10
37.712953
20
160.68477
30
0
70
32
0
VERTEX
8
0
62
255
10
36.856581
20
160.68477
30
0
70
32
0
VERTEX
8
0
62
255
10
36.000209
20
160.68477
30
0
70
32
0
VERTEX
8
0
62
255
10
35.143837
20
160.68477
30
0
70
32
0
VERTEX
8
0
62
255
10
34.287465
20
160.68477
30
0
70
32
0
VERTEX
8
0
62
255
10
33.431093
20
160.68477
30
0
70
32
0
VERTEX
8
0
62
255
10
32.574721
20
160.68477
30
0
70
32
0
VERTEX
8
0
62
255
10
31.718349
20
160.68477
30
0
70
32
0
VERTEX
8
0
62
255
10
30.861977
20
160.68477
30
0
70
32
0
VERTEX
8
0
62
255
10
30.005605
20
160.68477
30
0
70
32
0
VERTEX
8
0
62
255
10
29.149233
20
160.68477
30
0
70
32
0
VERTEX
8
0
62
255
10
28.292861
20
160.68477
30
0
70
32
0
VERTEX
8
0
62
255
10
27.436489
20
160.68477
30
0
70
32
0
VERTEX
8
0
62
255
10
26.580117
20
160.68477
30
0
70
32
0
VERTEX
8
0
62
255
10
25.723745
20
160.68477
30
0
70
32
0
VERTEX
8
0
62
255
10
24.867373
20
160.68477
30
0
70
32
0
VERTEX
8
0
62
255
10
24.011001
20
160.68477
30
0
70
32
0
VERTEX
8
0
62
255
10
23.154629
20
160.68477
30
0
70
32
0
VERTEX
8
0
62
255
10
22.298257
20
160.68477
30
0
70
32
0
VERTEX
8
0
62
255
10
21.441885
20
160.68477
30
0
70
32
0
VERTEX
8
0
62
255
10
20.585513
20
160.68477
30
0
70
32
0
VERTEX
8
0
62
255
10
19.729141
20
160.68477
30
0
70
32
0
VERTEX
8
0
62
255
10
18.872769
20
160.68477
30
0
70
32
0
VERTEX
8
0
62
255
10
18.016398
20
160.68477
30
0
70
32
0
VERTEX
8
0
62
255
10
17.160026
20
160.68477
30
0
70
32
0
VERTEX
8
0
62
255
10
16.303654
20
160.68477
30
0
70
32
0
VERTEX
8
0
62
255
10
15.447282
20
160.68477
30
0
70
32
0
VERTEX
8
0
62
255
10
14.59091
20
160.68477
30
0
70
32
0
VERTEX
8
0
62
255
10
13.734538
20
160.68477
30
0
70
32
0
VERTEX
8
0
62
255
10
12.878166
20
160.68477
30
0
70
32
0
VERTEX
8
0
62
255
10
12.021794
20
160.68477
30
0
70
32
0
VERTEX
8
0
62
255
10
11.165422
20
160.68477
30
0
70
32
0
VERTEX
8
0
62
255
10
10.30905
20
160.68477
30
0
70
32
0
VERTEX
8
0
62
255
10
9.452678
20
160.68477
30
0
70
32
0
VERTEX
8
0
62
255
10
8.596306
20
160.68477
30
0
70
32
0
VERTEX
8
0
62
255
10
7.7399341
20
160.68477
30
0
70
32
0
VERTEX
8
0
62
255
10
6.8835621
20
160.68477
30
0
70
32
0
VERTEX
8
0
62
255
10
6.0271902
20
160.68477
30
0
70
32
0
VERTEX
8
0
62
255
10
5.1708182
20
160.68477
30
0
70
32
0
VERTEX
8
0
62
255
10
4.3144462
20
160.68477
30
0
70
32
0
VERTEX
8
0
62
255
10
3.4580743
20
160.68477
30
0
70
32
0
VERTEX
8
0
62
255
10
2.6017023
20
160.68477
30
0
70
32
0
VERTEX
8
0
62
255
10
1.7453304
20
160.68477
30
0
70
32
0
VERTEX
8
0
62
255
10
0.88895842
20
160.68477
30
0
70
32
0
VERTEX
8
0
62
255
10
0.032586469
20
160.68477
30
0
70
32
0
VERTEX
8
0
62
255
10
-0.82378549
20
160.68477
30
0
70
32
0
VERTEX
8
0
62
255
10
-1.6801574
20
160.68477
30
0
70
32
0
VERTEX
8
0
62
255
10
-2.5365294
20
160.68477
30
0
70
32
0
VERTEX
8
0
62
255
10
-3.3929014
20
160.68477
30
0
70
32
0
VERTEX
8
0
62
255
10
-4.2492733
20
160.68477
30
0
70
32
0
VERTEX
8
0
62
255
10
-5.1056453
20
160.68477
30
0
70
32
0
VERTEX
8
0
62
255
10
-5.9620172
20
160.68477
30
0
70
32
0
VERTEX
8
0
62
255
10
-6.8183892
20
160.68477
30
0
70
32
0
VERTEX
8
0
62
255
10
-7.6747611
20
160.68477
30
0
70
32
0
VERTEX
8
0
62
255
10
-8.5311331
20
160.68477
30
0
70
32
0
VERTEX
8
0
62
255
10
-9.387505
20
160.68477
30
0
70
32
0
VERTEX
8
0
62
255
10
-10.243877
20
160.68477
30
0
70
32
0
VERTEX
8
0
62
255
10
-11.100249
20
160.68477
30
0
70
32
0
VERTEX
8
0
62
255
10
-11.956621
20
160.68477
30
0
70
32
0
VERTEX
8
0
62
255
10
-12.812993
20
160.68477
30
0
70
32
0
VERTEX
8
0
62
255
10
-13.669365
20
160.68477
30
0
70
32
0
VERTEX
8
0
62
255
10
-14.525737
20
160.68477
30
0
70
32
0
VERTEX
8
0
62
255
10
-15.382109
20
160.68477
30
0
70
32
0
VERTEX
8
0
62
255
10
-16.238481
20
160.68477
30
0
70
32
0
VERTEX
8
0
62
255
10
-17.094853
20
160.68477
30
0
70
32
0
VERTEX
8
0
62
255
10
-17.951225
20
160.68477
30
0
70
32
0
VERTEX
8
0
62
255
10
-18.807597
20
160.68477
30
0
70
32
0
VERTEX
8
0
62
255
10
-19.663969
20
160.68477
30
0
70
32
0
VERTEX
8
0
62
255
10
-20.52034
20
160.68477
30
0
70
32
0
VERTEX
8
0
62
255
10
-21.376712
20
160.68477
30
0
70
32
0
VERTEX
8
0
62
255
10
-22.233084
20
160.68477
30
0
70
32
0
VERTEX
8
0
62
255
10
-23.089456
20
160.68477
30
0
70
32
0
VERTEX
8
0
62
255
10
-23.945828
20
160.68477
30
0
70
32
0
VERTEX
8
0
62
255
10
-24.8022
20
160.68477
30
0
70
32
0
VERTEX
8
0
62
255
10
-25.658572
20
160.68477
30
0
70
32
0
VERTEX
8
0
62
255
10
-26.514944
20
160.68477
30
0
70
32
0
VERTEX
8
0
62
255
10
-27.371316
20
160.68477
30
0
70
32
0
VERTEX
8
0
62
255
10
-28.227688
20
160.68477
30
0
70
32
0
VERTEX
8
0
62
255
10
-29.08406
20
160.68477
30
0
70
32
0
VERTEX
8
0
62
255
10
-29.940432
20
160.68477
30
0
70
32
0
VERTEX
8
0
62
255
10
-30.796804
20
160.68477
30
0
70
32
0
SEQEND
8
0
0
POLYLINE
8
0
62
255
66
1
10
0
20
0
30
0
70
8
0
VERTEX
8
0
62
255
10
-30.796804
20
160.68477
30
0
70
32
0
VERTEX
8
0
62
255
10
-30.796804
20
158.63862
30
0
70
32
0
VERTEX
8
0
62
255
10
-30.796804
20
156.59246
30
0
70
32
0
VERTEX
8
0
62
255
10
-30.796804
20
154.5463
30
0
70
32
0
VERTEX
8
0
62
255
10
-30.796804
20
152.50014
30
0
70
32
0
VERTEX
8
0
62
255
10
-30.796804
20
150.45399
30
0
70
32
0
VERTEX
8
0
62
255
10
-30.796804
20
148.40783
30
0
70
32
0
VERTEX
8
0
62
255
10
-30.796804
20
146.36167
30
0
70
32
0
VERTEX
8
0
62
255
10
-30.796804
20
144.31552
30
0
70
32
0
VERTEX
8
0
62
255
10
-30.796804
20
142.26936
30
0
70
32
0
VERTEX
8
0
62
255
10
-30.796804
20
140.2232
30
0
70
32
0
VERTEX
8
0
62
255
10
-30.796804
20
138.17705
30
0
70
32
0
VERTEX
8
0
62
255
10
-30.796804
20
136.13089
30
0
70
32
0
VERTEX
8
0
62
255
10
-30.796804
20
134.08473
30
0
70
32
0
VERTEX
8
0
62
255
10
-30.796804
20
132.03857
30
0
70
32
0
VERTEX
8
0
62
255
10
-30.796804
20
129.99242
30
0
70
32
0
VERTEX
8
0
62
255
10
-30.796804
20
127.94626
30
0
70
32
0
VERTEX
8
0
62
255
10
-30.796804
20
125.9001
30
0
70
32
0
VERTEX
8
0
62
255
10
-30.796804
20
123.85395
30
0
70
32
0
VERTEX
8
0
62
255
10
-30.796804
20
121.80779
30
0
70
32
0
VERTEX
8
0
62
255
10
-30.796804
20
119.76163
30
0
70
32
0
VERTEX
8
0
62
255
10
-30.796804
20
117.71547
30
0
70
32
0
VERTEX
8
0
62
255
10
-30.796804
20
115.66932
30
0
70
32
0
VERTEX
8
0
62
255
10
-30.796804
20
113.62316
30
0
70
32
0
VERTEX
8
0
62
255
10
-30.796804
20
111.577
30
0
70
32
0
VERTEX
8
0
62
255
10
-30.796804
20
109.53085
30
0
70
32
0
VERTEX
8
0
62
255
10
-30.796804
20
107.48469
30
0
70
32
0
VERTEX
8
0
62
255
10
-30.796804
20
105.43853
30
0
70
32
0
VERTEX
8
0
62
255
10
-30.796804
20
103.39238
30
0
70
32
0
VERTEX
8
0
62
255
10
-30.796804
20
101.34622
30
0
70
32
0
VERTEX
8
0
62
255
10
-30.796804
20
99.300062
30
0
70
32
0
VERTEX
8
0
62
255
10
-30.796804
20
97.253905
30
0
70
32
0
VERTEX
8
0
62
255
10
-30.796804
20
95.207748
30
0
70
32
0
VERTEX
8
0
62
255
10
-30.796804
20
93.161591
30
0
70
32
0
VERTEX
8
0
62
255
10
-30.796804
20
91.115434
30
0
70
32
0
VERTEX
8
0
62
255
10
-30.796804
20
89.069277
30
0
70
32
0
VERTEX
8
0
62
255
10
-30.796804
20
87.02312
30
0
70
32
0
VERTEX
8
0
62
255
10
-30.796804
20
84.976963
30
0
70
32
0
VERTEX
8
0
62
255
10
-30.796804
20
82.930806
30
0
70
32
0
VERTEX
8
0
62
255
10
-30.796804
20
80.884649
30
0
70
32
0
VERTEX
8
0
62
255
10
-30.796804
20
78.838492
30
0
70
32
0
VERTEX
8
0
62
255
10
-30.796804
20
76.792335
30
0
70
32
0
VERTEX
8
0
62
255
10
-30.796804
20
74.746178
30
0
70
32
0
VERTEX
8
0
62
255
10
-30.796804
20
72.700021
30
0
70
32
0
VERTEX
8
0
62
255
10
-30.796804
20
70.653864
30
0
70
32
0
VERTEX
8
0
62
255
10
-30.796804
20
68.607707
30
0
70
32
0
VERTEX
8
0
62
255
10
-30.796804
20
66.56155
30
0
70
32
0
VERTEX
8
0
62
255
10
-30.796804
20
64.515393
30
0
70
32
0
VERTEX
8
0
62
255
10
-30.796804
20
62.469236
30
0
70
32
0
VERTEX
8
0
62
255
10
-30.796804
20
60.423079
30
0
70
32
0
VERTEX
8
0
62
255
10
-30.796804
20
58.376921
30
0
70
32
0
VERTEX
8
0
62
255
10
-30.796804
20
56.330764
30
0
70
32
0
VERTEX
8
0
62
255
10
-30.796804
20
54.284607
30
0
70
32
0
VERTEX
8
0
62
255
10
-30.796804
20
52.23845
30
0
70
32
0
VERTEX
8
0
62
255
10
-30.796804
20
50.192293
30
0
70
32
0
VERTEX
8
0
62
255
10
-30.796804
20
48.146136
30
0
70
32
0
VERTEX
8
0
62
255
10
-30.796804
20
46.099979
30
0
70
32
0
VERTEX
8
0
62
255
10
-30.796804
20
44.053822
30
0
70
32
0
VERTEX
8
0
62
255
10
-30.796804
20
42.007665
30
0
70
32
0
VERTEX
8
0
62
255
10
-30.796804
20
39.961508
30
0
70
32
0
VERTEX
8
0
62
255
10
-30.796804
20
37.915351
30
0
70
32
0
VERTEX
8
0
62
255
10
-30.796804
20
35.869194
30
0
70
32
0
VERTEX
8
0
62
255
10
-30.796804
20
33.823037
30
0
70
32
0
VERTEX
8
0
62
255
10
-30.796804
20
31.77688
30
0
70
32
0
VERTEX
8
0
62
255
10
-30.796804
20
29.730723
30
0
70
32
0
VERTEX
8
0
62
255
10
-30.796804
20
27.684566
30
0
70
32
0
VERTEX
8
0
62
255
10
-30.796804
20
25.638409
30
0
70
32
0
VERTEX
8
0
62
255
10
-30.796804
20
23.592252
30
0
70
32
0
VERTEX
8
0
62
255
10
-30.796804
20
21.546095
30
0
70
32
0
VERTEX
8
0
62
255
10
-30.796804
20
19.499938
30
0
70
32
0
VERTEX
8
0
62
255
10
-30.796804
20
17.453781
30
0
70
32
0
VERTEX
8
0
62
255
10
-30.796804
20
15.407624
30
0
70
32
0
VERTEX
8
0
62
255
10
-30.796804
20
13.361467
30
0
70
32
0
VERTEX
8
0
62
255
10
-30.796804
20
11.31531
30
0
70
32
0
VERTEX
8
0
62
255
10
-30.796804
20
9.2691531
30
0
70
32
0
VERTEX
8
0
62
255
10
-30.796804
20
7.2229961
30
0
70
32
0
VERTEX
8
0
62
255
10
-30.796804
20
5.176839
30
0
70
32
0
VERTEX
8
0
62
255
10
-30.796804
20
3.130682
30
0
70
32
0
VERTEX
8
0
62
255
10
-30.796804
20
1.084525
30
0
70
32
0
VERTEX
8
0
62
255
10
-30.796804
20
-0.96163201
30
0
70
32
0
VERTEX
8
0
62
255
10
-30.796804
20
-3.007789
30
0
70
32
0
VERTEX
8
0
62
255
10
-30.796804
20
-5.053946
30
0
70
32
0
VERTEX
8
0
62
255
10
-30.796804
20
-7.1001031
30
0
70
32
0
VERTEX
8
0
62
255
10
-30.796804
20
-9.1462601
30
0
70
32
0
VERTEX
8
0
62
255
10
-30.796804
20
-11.192417
30
0
70
32
0
VERTEX
8
0
62
255
10
-30.796804
20
-13.238574
30
0
70
32
0
VERTEX
8
0
62
255
10
-30.796804
20
-15.284731
30
0
70
32
0
VERTEX
8
0
62
255
10
-30.796804
20
-17.330888
30
0
70
32
0
VERTEX
8
0
62
255
10
-30.796804
20
-19.377045
30
0
70
32
0
VERTEX
8
0
62
255
10
-30.796804
20
-21.423202
30
0
70
32
0
VERTEX
8
0
62
255
10
-30.796804
20
-23.469359
30
0
70
32
0
VERTEX
8
0
62
255
10
-30.796804
20
-25.515516
30
0
70
32
0
VERTEX
8
0
62
255
10
-30.796804
20
-27.561673
30
0
70
32
0
VERTEX
8
0
62
255
10
-30.796804
20
-29.60783
30
0
70
32
0
VERTEX
8
0
62
255
10
-30.796804
20
-31.653987
30
0
70
32
0
VERTEX
8
0
62
255
10
-30.796804
20
-33.700144
30
0
70
32
0
VERTEX
8
0
62
255
10
-30.796804
20
-35.746301
30
0
70
32
0
VERTEX
8
0
62
255
10
-30.796804
20
-37.792458
30
0
70
32
0
VERTEX
8
0
62
255
10
-30.796804
20
-39.838615
30
0
70
32
0
VERTEX
8
0
62
255
10
-30.796804
20
-41.884772
30
0
70
32
0
SEQEND
8
0
0
POLYLINE
8
0
62
255
66
1
10
0
20
0
30
0
70
8
0
VERTEX
8
0
62
255
10
-30.796804
20
160.68477
30
0
70
32
0
VERTEX
8
0
62
255
10
-30.796804
20
158.63862
30
0
70
32
0
VERTEX
8
0
62
255
10
-30.796804
20
156.59246
30
0
70
32
0
VERTEX
8
0
62
255
10
-30.796804
20
154.5463
30
0
70
32
0
VERTEX
8
0
62
255
10
-30.796804
20
152.50014
30
0
70
32
0
VERTEX
8
0
62
255
10
-30.796804
20
150.45399
30
0
70
32
0
VERTEX
8
0
62
255
10
-30.796804
20
148.40783
30
0
70
32
0
VERTEX
8
0
62
255
10
-30.796804
20
146.36167
30
0
70
32
0
VERTEX
8
0
62
255
10
-30.796804
20
144.31552
30
0
70
32
0
VERTEX
8
0
62
255
10
-30.796804
20
142.26936
30
0
70
32
0
VERTEX
8
0
62
255
10
-30.796804
20
140.2232
30
0
70
32
0
VERTEX
8
0
62
255
10
-30.796804
20
138.17705
30
0
70
32
0
VERTEX
8
0
62
255
10
-30.796804
20
136.13089
30
0
70
32
0
VERTEX
8
0
62
255
10
-30.796804
20
134.08473
30
0
70
32
0
VERTEX
8
0
62
255
10
-30.796804
20
132.03857
30
0
70
32
0
VERTEX
8
0
62
255
10
-30.796804
20
129.99242
30
0
70
32
0
VERTEX
8
0
62
255
10
-30.796804
20
127.94626
30
0
70
32
0
VERTEX
8
0
62
255
10
-30.796804
20
125.9001
30
0
70
32
0
VERTEX
8
0
62
255
10
-30.796804
20
123.85395
30
0
70
32
0
VERTEX
8
0
62
255
10
-30.796804
20
121.80779
30
0
70
32
0
VERTEX
8
0
62
255
10
-30.796804
20
119.76163
30
0
70
32
0
VERTEX
8
0
62
255
10
-30.796804
20
117.71547
30
0
70
32
0
VERTEX
8
0
62
255
10
-30.796804
20
115.66932
30
0
70
32
0
VERTEX
8
0
62
255
10
-30.796804
20
113.62316
30
0
70
32
0
VERTEX
8
0
62
255
10
-30.796804
20
111.577
30
0
70
32
0
VERTEX
8
0
62
255
10
-30.796804
20
109.53085
30
0
70
32
0
VERTEX
8
0
62
255
10
-30.796804
20
107.48469
30
0
70
32
0
VERTEX
8
0
62
255
10
-30.796804
20
105.43853
30
0
70
32
0
VERTEX
8
0
62
255
10
-30.796804
20
103.39238
30
0
70
32
0
VERTEX
8
0
62
255
10
-30.796804
20
101.34622
30
0
70
32
0
VERTEX
8
0
62
255
10
-30.796804
20
99.300062
30
0
70
32
0
VERTEX
8
0
62
255
10
-30.796804
20
97.253905
30
0
70
32
0
VERTEX
8
0
62
255
10
-30.796804
20
95.207748
30
0
70
32
0
VERTEX
8
0
62
255
10
-30.796804
20
93.161591
30
0
70
32
0
VERTEX
8
0
62
255
10
-30.796804
20
91.115434
30
0
70
32
0
VERTEX
8
0
62
255
10
-30.796804
20
89.069277
30
0
70
32
0
VERTEX
8
0
62
255
10
-30.796804
20
87.02312
30
0
70
32
0
VERTEX
8
0
62
255
10
-30.796804
20
84.976963
30
0
70
32
0
VERTEX
8
0
62
255
10
-30.796804
20
82.930806
30
0
70
32
0
VERTEX
8
0
62
255
10
-30.796804
20
80.884649
30
0
70
32
0
VERTEX
8
0
62
255
10
-30.796804
20
78.838492
30
0
70
32
0
VERTEX
8
0
62
255
10
-30.796804
20
76.792335
30
0
70
32
0
VERTEX
8
0
62
255
10
-30.796804
20
74.746178
30
0
70
32
0
VERTEX
8
0
62
255
10
-30.796804
20
72.700021
30
0
70
32
0
VERTEX
8
0
62
255
10
-30.796804
20
70.653864
30
0
70
32
0
VERTEX
8
0
62
255
10
-30.796804
20
68.607707
30
0
70
32
0
VERTEX
8
0
62
255
10
-30.796804
20
66.56155
30
0
70
32
0
VERTEX
8
0
62
255
10
-30.796804
20
64.515393
30
0
70
32
0
VERTEX
8
0
62
255
10
-30.796804
20
62.469236
30
0
70
32
0
VERTEX
8
0
62
255
10
-30.796804
20
60.423079
30
0
70
32
0
VERTEX
8
0
62
255
10
-30.796804
20
58.376921
30
0
70
32
0
VERTEX
8
0
62
255
10
-30.796804
20
56.330764
30
0
70
32
0
VERTEX
8
0
62
255
10
-30.796804
20
54.284607
30
0
70
32
0
VERTEX
8
0
62
255
10
-30.796804
20
52.23845
30
0
70
32
0
VERTEX
8
0
62
255
10
-30.796804
20
50.192293
30
0
70
32
0
VERTEX
8
0
62
255
10
-30.796804
20
48.146136
30
0
70
32
0
VERTEX
8
0
62
255
10
-30.796804
20
46.099979
30
0
70
32
0
VERTEX
8
0
62
255
10
-30.796804
20
44.053822
30
0
70
32
0
VERTEX
8
0
62
255
10
-30.796804
20
42.007665
30
0
70
32
0
VERTEX
8
0
62
255
10
-30.796804
20
39.961508
30
0
70
32
0
VERTEX
8
0
62
255
10
-30.796804
20
37.915351
30
0
70
32
0
VERTEX
8
0
62
255
10
-30.796804
20
35.869194
30
0
70
32
0
VERTEX
8
0
62
255
10
-30.796804
20
33.823037
30
0
70
32
0
VERTEX
8
0
62
255
10
-30.796804
20
31.77688
30
0
70
32
0
VERTEX
8
0
62
255
10
-30.796804
20
29.730723
30
0
70
32
0
VERTEX
8
0
62
255
10
-30.796804
20
27.684566
30
0
70
32
0
VERTEX
8
0
62
255
10
-30.796804
20
25.638409
30
0
70
32
0
VERTEX
8
0
62
255
10
-30.796804
20
23.592252
30
0
70
32
0
VERTEX
8
0
62
255
10
-30.796804
20
21.546095
30
0
70
32
0
VERTEX
8
0
62
255
10
-30.796804
20
19.499938
30
0
70
32
0
VERTEX
8
0
62
255
10
-30.796804
20
17.453781
30
0
70
32
0
VERTEX
8
0
62
255
10
-30.796804
20
15.407624
30
0
70
32
0
VERTEX
8
0
62
255
10
-30.796804
20
13.361467
30
0
70
32
0
VERTEX
8
0
62
255
10
-30.796804
20
11.31531
30
0
70
32
0
VERTEX
8
0
62
255
10
-30.796804
20
9.2691531
30
0
70
32
0
VERTEX
8
0
62
255
10
-30.796804
20
7.2229961
30
0
70
32
0
VERTEX
8
0
62
255
10
-30.796804
20
5.176839
30
0
70
32
0
VERTEX
8
0
62
255
10
-30.796804
20
3.130682
30
0
70
32
0
VERTEX
8
0
62
255
10
-30.796804
20
1.084525
30
0
70
32
0
VERTEX
8
0
62
255
10
-30.796804
20
-0.96163201
30
0
70
32
0
VERTEX
8
0
62
255
10
-30.796804
20
-3.007789
30
0
70
32
0
VERTEX
8
0
62
255
10
-30.796804
20
-5.053946
30
0
70
32
0
VERTEX
8
0
62
255
10
-30.796804
20
-7.1001031
30
0
70
32
0
VERTEX
8
0
62
255
10
-30.796804
20
-9.1462601
30
0
70
32
0
VERTEX
8
0
62
255
10
-30.796804
20
-11.192417
30
0
70
32
0
VERTEX
8
0
62
255
10
-30.796804
20
-13.238574
30
0
70
32
0
VERTEX
8
0
62
255
10
-30.796804
20
-15.284731
30
0
70
32
0
VERTEX
8
0
62
255
10
-30.796804
20
-17.330888
30
0
70
32
0
VERTEX
8
0
62
255
10
-30.796804
20
-19.377045
30
0
70
32
0
VERTEX
8
0
62
255
10
-30.796804
20
-21.423202
30
0
70
32
0
VERTEX
8
0
62
255
10
-30.796804
20
-23.469359
30
0
70
32
0
VERTEX
8
0
62
255
10
-30.796804
20
-25.515516
30
0
70
32
0
VERTEX
8
0
62
255
10
-30.796804
20
-27.561673
30
0
70
32
0
VERTEX
8
0
62
255
10
-30.796804
20
-29.60783
30
0
70
32
0
VERTEX
8
0
62
255
10
-30.796804
20
-31.653987
30
0
70
32
0
VERTEX
8
0
62
255
10
-30.796804
20
-33.700144
30
0
70
32
0
VERTEX
8
0
62
255
10
-30.796804
20
-35.746301
30
0
70
32
0
VERTEX
8
0
62
255
10
-30.796804
20
-37.792458
30
0
70
32
0
VERTEX
8
0
62
255
10
-30.796804
20
-39.838615
30
0
70
32
0
VERTEX
8
0
62
255
10
-30.796804
20
-41.884772
30
0
70
32
0
SEQEND
8
0
0
ENDSEC
0
EOF
