0
SECTION
2
HEADER
9
$ACADVER
1
AC1006
9
$INSUNITS
70
6
0
ENDSEC
0
SECTION
2
ENTITIES
0
POLYLINE
8
0
62
255
66
1
10
0
20
0
30
0
70
8
0
VERTEX
8
0
62
255
10
-30.796804
20
-41.884772
30
0
70
32
0
VERTEX
8
0
62
255
10
-29.940432
20
-41.884772
30
0
70
32
0
VERTEX
8
0
62
255
10
-29.08406
20
-41.884772
30
0
70
32
0
VERTEX
8
0
62
255
10
-28.227688
20
-41.884772
30
0
70
32
0
VERTEX
8
0
62
255
10
-27.371316
20
-41.884772
30
0
70
32
0
VERTEX
8
0
62
255
10
-26.514944
20
-41.884772
30
0
70
32
0
VERTEX
8
0
62
255
10
-25.658572
20
-41.884772
30
0
70
32
0
VERTEX
8
0
62
255
10
-24.8022
20
-41.884772
30
0
70
32
0
VERTEX
8
0
62
255
10
-23.945828
20
-41.884772
30
0
70
32
0
VERTEX
8
0
62
255
10
-23.089456
20
-41.884772
30
0
70
32
0
VERTEX
8
0
62
255
10
-22.233084
20
-41.884772
30
0
70
32
0
VERTEX
8
0
62
255
10
-21.376712
20
-41.884772
30
0
70
32
0
VERTEX
8
0
62
255
10
-20.52034
20
-41.884772
30
0
70
32
0
VERTEX
8
0
62
255
10
-19.663969
20
-41.884772
30
0
70
32
0
VERTEX
8
0
62
255
10
-18.807597
20
-41.884772
30
0
70
32
0
VERTEX
8
0
62
255
10
-17.951225
20
-41.884772
30
0
70
32
0
VERTEX
8
0
62
255
10
-17.094853
20
-41.884772
30
0
70
32
0
VERTEX
8
0
62
255
10
-16.238481
20
-41.884772
30
0
70
32
0
VERTEX
8
0
62
255
10
-15.382109
20
-41.884772
30
0
70
32
0
VERTEX
8
0
62
255
10
-14.525737
20
-41.884772
30
0
70
32
0
VERTEX
8
0
62
255
10
-13.669365
20
-41.884772
30
0
70
32
0
VERTEX
8
0
62
255
10
-12.812993
20
-41.884772
30
0
70
32
0
VERTEX
8
0
62
255
10
-11.956621
20
-41.884772
30
0
70
32
0
VERTEX
8
0
62
255
10
-11.100249
20
-41.884772
30
0
70
32
0
VERTEX
8
0
62
255
10
-10.243877
20
-41.884772
30
0
70
32
0
VERTEX
8
0
62
255
10
-9.387505
20
-41.884772
30
0
70
32
0
VERTEX
8
0
62
255
10
-8.5311331
20
-41.884772
30
0
70
32
0
VERTEX
8
0
62
255
10
-7.6747611
20
-41.884772
30
0
70
32
0
VERTEX
8
0
62
255
10
-6.8183892
20
-41.884772
30
0
70
32
0
VERTEX
8
0
62
255
10
-5.9620172
20
-41.884772
30
0
70
32
0
VERTEX
8
0
62
255
10
-5.1056453
20
-41.884772
30
0
70
32
0
VERTEX
8
0
62
255
10
-4.2492733
20
-41.884772
30
0
70
32
0
VERTEX
8
0
62
255
10
-3.3929014
20
-41.884772
30
0
70
32
0
VERTEX
8
0
62
255
10
-2.5365294
20
-41.884772
30
0
70
32
0
VERTEX
8
0
62
255
10
-1.6801574
20
-41.884772
30
0
70
32
0
VERTEX
8
0
62
255
10
-0.82378549
20
-41.884772
30
0
70
32
0
VERTEX
8
0
62
255
10
0.032586469
20
-41.884772
30
0
70
32
0
VERTEX
8
0
62
255
10
0.88895842
20
-41.884772
30
0
70
32
0
VERTEX
8
0
62
255
10
1.7453304
20
-41.884772
30
0
70
32
0
VERTEX
8
0
62
255
10
2.6017023
20
-41.884772
30
0
70
32
0
VERTEX
8
0
62
255
10
3.4580743
20
-41.884772
30
0
70
32
0
VERTEX
8
0
62
255
10
4.3144462
20
-41.884772
30
0
70
32
0
VERTEX
8
0
62
255
10
5.1708182
20
-41.884772
30
0
70
32
0
VERTEX
8
0
62
255
10
6.0271902
20
-41.884772
30
0
70
32
0
VERTEX
8
0
62
255
10
6.8835621
20
-41.884772
30
0
70
32
0
VERTEX
8
0
62
255
10
7.7399341
20
-41.884772
30
0
70
32
0
VERTEX
8
0
62
255
10
8.596306
20
-41.884772
30
0
70
32
0
VERTEX
8
0
62
255
10
9.452678
20
-41.884772
30
0
70
32
0
VERTEX
8
0
62
255
10
10.30905
20
-41.884772
30
0
70
32
0
VERTEX
8
0
62
255
10
11.165422
20
-41.884772
30
0
70
32
0
VERTEX
8
0
62
255
10
12.021794
20
-41.884772
30
0
70
32
0
VERTEX
8
0
62
255
10
12.878166
20
-41.884772
30
0
70
32
0
VERTEX
8
0
62
255
10
13.734538
20
-41.884772
30
0
70
32
0
VERTEX
8
0
62
255
10
14.59091
20
-41.884772
30
0
70
32
0
VERTEX
8
0
62
255
10
15.447282
20
-41.884772
30
0
70
32
0
VERTEX
8
0
62
255
10
16.303654
20
-41.884772
30
0
70
32
0
VERTEX
8
0
62
255
10
17.160026
20
-41.884772
30
0
70
32
0
VERTEX
8
0
62
255
10
18.016398
20
-41.884772
30
0
70
32
0
VERTEX
8
0
62
255
10
18.872769
20
-41.884772
30
0
70
32
0
VERTEX
8
0
62
255
10
19.729141
20
-41.884772
30
0
70
32
0
VERTEX
8
0
62
255
10
20.585513
20
-41.884772
30
0
70
32
0
VERTEX
8
0
62
255
10
21.441885
20
-41.884772
30
0
70
32
0
VERTEX
8
0
62
255
10
22.298257
20
-41.884772
30
0
70
32
0
VERTEX
8
0
62
255
10
23.154629
20
-41.884772
30
0
70
32
0
VERTEX
8
0
62
255
10
24.011001
20
-41.884772
30
0
70
32
0
VERTEX
8
0
62
255
10
24.867373
20
-41.884772
30
0
70
32
0
VERTEX
8
0
62
255
10
25.723745
20
-41.884772
30
0
70
32
0
VERTEX
8
0
62
255
10
26.580117
20
-41.884772
30
0
70
32
0
VERTEX
8
0
62
255
10
27.436489
20
-41.884772
30
0
70
32
0
VERTEX
8
0
62
255
10
28.292861
20
-41.884772
30
0
70
32
0
VERTEX
8
0
62
255
10
29.149233
20
-41.884772
30
0
70
32
0
VERTEX
8
0
62
255
10
30.005605
20
-41.884772
30
0
70
32
0
VERTEX
8
0
62
255
10
30.861977
20
-41.884772
30
0
70
32
0
VERTEX
8
0
62
255
10
31.718349
20
-41.884772
30
0
70
32
0
VERTEX
8
0
62
255
10
32.574721
20
-41.884772
30
0
70
32
0
VERTEX
8
0
62
255
10
33.431093
20
-41.884772
30
0
70
32
0
VERTEX
8
0
62
255
10
34.287465
20
-41.884772
30
0
70
32
0
VERTEX
8
0
62
255
10
35.143837
20
-41.884772
30
0
70
32
0
VERTEX
8
0
62
255
10
36.000209
20
-41.884772
30
0
70
32
0
VERTEX
8
0
62
255
10
36.856581
20
-41.884772
30
0
70
32
0
VERTEX
8
0
62
255
10
37.712953
20
-41.884772
30
0
70
32
0
VERTEX
8
0
62
255
10
38.569324
20
-41.884772
30
0
70
32
0
VERTEX
8
0
62
255
10
39.425696
20
-41.884772
30
0
70
32
0
VERTEX
8
0
62
255
10
40.282068
20
-41.884772
30
0
70
32
0
VERTEX
8
0
62
255
10
41.13844
20
-41.884772
30
0
70
32
0
VERTEX
8
0
62
255
10
41.994812
20
-41.884772
30
0
70
32
0
VERTEX
8
0
62
255
10
42.851184
20
-41.884772
30
0
70
32
0
VERTEX
8
0
62
255
10
43.707556
20
-41.884772
30
0
70
32
0
VERTEX
8
0
62
255
10
44.563928
20
-41.884772
30
0
70
32
0
VERTEX
8
0
62
255
10
45.4203
20
-41.884772
30
0
70
32
0
VERTEX
8
0
62
255
10
46.276672
20
-41.884772
30
0
70
32
0
VERTEX
8
0
62
255
10
47.133044
20
-41.884772
30
0
70
32
0
VERTEX
8
0
62
255
10
47.989416
20
-41.884772
30
0
70
32
0
VERTEX
8
0
62
255
10
48.845788
20
-41.884772
30
0
70
32
0
VERTEX
8
0
62
255
10
49.70216
20
-41.884772
30
0
70
32
0
VERTEX
8
0
62
255
10
50.558532
20
-41.884772
30
0
70
32
0
VERTEX
8
0
62
255
10
51.414904
20
-41.884772
30
0
70
32
0
VERTEX
8
0
62
255
10
52.271276
20
-41.884772
30
0
70
32
0
VERTEX
8
0
62
255
10
53.127648
20
-41.884772
30
0
70
32
0
VERTEX
8
0
62
255
10
53.98402
20
-41.884772
30
0
70
32
0
SEQEND
8
0
0
POLYLINE
8
0
62
255
66
1
10
0
20
0
30
0
70
8
0
VERTEX
8
0
62
255
10
53.98402
20
-41.884772
30
0
70
32
0
VERTEX
8
0
62
255
10
53.98402
20
-39.838615
30
0
70
32
0
VERTEX
8
0
62
255
10
53.98402
20
-37.792458
30
0
70
32
0
VERTEX
8
0
62
255
10
53.98402
20
-35.746301
30
0
70
32
0
VERTEX
8
0
62
255
10
53.98402
20
-33.700144
30
0
70
32
0
VERTEX
8
0
62
255
10
53.98402
20
-31.653987
30
0
70
32
0
VERTEX
8
0
62
255
10
53.98402
20
-29.60783
30
0
70
32
0
VERTEX
8
0
62
255
10
53.98402
20
-27.561673
30
0
70
32
0
VERTEX
8
0
62
255
10
53.98402
20
-25.515516
30
0
70
32
0
VERTEX
8
0
62
255
10
53.98402
20
-23.469359
30
0
70
32
0
VERTEX
8
0
62
255
10
53.98402
20
-21.423202
30
0
70
32
0
VERTEX
8
0
62
255
10
53.98402
20
-19.377045
30
0
70
32
0
VERTEX
8
0
62
255
10
53.98402
20
-17.330888
30
0
70
32
0
VERTEX
8
0
62
255
10
53.98402
20
-15.284731
30
0
70
32
0
VERTEX
8
0
62
255
10
53.98402
20
-13.238574
30
0
70
32
0
VERTEX
8
0
62
255
10
53.98402
20
-11.192417
30
0
70
32
0
VERTEX
8
0
62
255
10
53.98402
20
-9.1462601
30
0
70
32
0
VERTEX
8
0
62
255
10
53.98402
20
-7.1001031
30
0
70
32
0
VERTEX
8
0
62
255
10
53.98402
20
-5.053946
30
0
70
32
0
VERTEX
8
0
62
255
10
53.98402
20
-3.007789
30
0
70
32
0
VERTEX
8
0
62
255
10
53.98402
20
-0.96163201
30
0
70
32
0
VERTEX
8
0
62
255
10
53.98402
20
1.084525
30
0
70
32
0
VERTEX
8
0
62
255
10
53.98402
20
3.130682
30
0
70
32
0
VERTEX
8
0
62
255
10
53.98402
20
5.176839
30
0
70
32
0
VERTEX
8
0
62
255
10
53.98402
20
7.2229961
30
0
70
32
0
VERTEX
8
0
62
255
10
53.98402
20
9.2691531
30
0
70
32
0
VERTEX
8
0
62
255
10
53.98402
20
11.31531
30
0
70
32
0
VERTEX
8
0
62
255
10
53.98402
20
13.361467
30
0
70
32
0
VERTEX
8
0
62
255
10
53.98402
20
15.407624
30
0
70
32
0
VERTEX
8
0
62
255
10
53.98402
20
17.453781
30
0
70
32
0
VERTEX
8
0
62
255
10
53.98402
20
19.499938
30
0
70
32
0
VERTEX
8
0
62
255
10
53.98402
20
21.546095
30
0
70
32
0
VERTEX
8
0
62
255
10
53.98402
20
23.592252
30
0
70
32
0
VERTEX
8
0
62
255
10
53.98402
20
25.638409
30
0
70
32
0
VERTEX
8
0
62
255
10
53.98402
20
27.684566
30
0
70
32
0
VERTEX
8
0
62
255
10
53.98402
20
29.730723
30
0
70
32
0
VERTEX
8
0
62
255
10
53.98402
20
31.77688
30
0
70
32
0
VERTEX
8
0
62
255
10
53.98402
20
33.823037
30
0
70
32
0
VERTEX
8
0
62
255
10
53.98402
20
35.869194
30
0
70
32
0
VERTEX
8
0
62
255
10
53.98402
20
37.915351
30
0
70
32
0
VERTEX
8
0
62
255
10
53.98402
20
39.961508
30
0
70
32
0
VERTEX
8
0
62
255
10
53.98402
20
42.007665
30
0
70
32
0
VERTEX
8
0
62
255
10
53.98402
20
44.053822
30
0
70
32
0
VERTEX
8
0
62
255
10
53.98402
20
46.099979
30
0
70
32
0
VERTEX
8
0
62
255
10
53.98402
20
48.146136
30
0
70
32
0
VERTEX
8
0
62
255
10
53.98402
20
50.192293
30
0
70
32
0
VERTEX
8
0
62
255
10
53.98402
20
52.23845
30
0
70
32
0
VERTEX
8
0
62
255
10
53.98402
20
54.284607
30
0
70
32
0
VERTEX
8
0
62
255
10
53.98402
20
56.330764
30
0
70
32
0
VERTEX
8
0
62
255
10
53.98402
20
58.376921
30
0
70
32
0
VERTEX
8
0
62
255
10
53.98402
20
60.423079
30
0
70
32
0
VERTEX
8
0
62
255
10
53.98402
20
62.469236
30
0
70
32
0
VERTEX
8
0
62
255
10
53.98402
20
64.515393
30
0
70
32
0
VERTEX
8
0
62
255
10
53.98402
20
66.56155
30
0
70
32
0
VERTEX
8
0
62
255
10
53.98402
20
68.607707
30
0
70
32
0
VERTEX
8
0
62
255
10
53.98402
20
70.653864
30
0
70
32
0
VERTEX
8
0
62
255
10
53.98402
20
72.700021
30
0
70
32
0
VERTEX
8
0
62
255
10
53.98402
20
74.746178
30
0
70
32
0
VERTEX
8
0
62
255
10
53.98402
20
76.792335
30
0
70
32
0
VERTEX
8
0
62
255
10
53.98402
20
78.838492
30
0
70
32
0
VERTEX
8
0
62
255
10
53.98402
20
80.884649
30
0
70
32
0
VERTEX
8
0
62
255
10
53.98402
20
82.930806
30
0
70
32
0
VERTEX
8
0
62
255
10
53.98402
20
84.976963
30
0
70
32
0
VERTEX
8
0
62
255
10
53.98402
20
87.02312
30
0
70
32
0
VERTEX
8
0
62
255
10
53.98402
20
89.069277
30
0
70
32
0
VERTEX
8
0
62
255
10
53.98402
20
91.115434
30
0
70
32
0
VERTEX
8
0
62
255
10
53.98402
20
93.161591
30
0
70
32
0
VERTEX
8
0
62
255
10
53.98402
20
95.207748
30
0
70
32
0
VERTEX
8
0
62
255
10
53.98402
20
97.253905
30
0
70
32
0
VERTEX
8
0
62
255
10
53.98402
20
99.300062
30
0
70
32
0
VERTEX
8
0
62
255
10
53.98402
20
101.34622
30
0
70
32
0
VERTEX
8
0
62
255
10
53.98402
20
103.39238
30
0
70
32
0
VERTEX
8
0
62
255
10
53.98402
20
105.43853
30
0
70
32
0
VERTEX
8
0
62
255
10
53.98402
20
107.48469
30
0
70
32
0
VERTEX
8
0
62
255
10
53.98402
20
109.53085
30
0
70
32
0
VERTEX
8
0
62
255
10
53.98402
20
111.577
30
0
70
32
0
VERTEX
8
0
62
255
10
53.98402
20
113.62316
30
0
70
32
0
VERTEX
8
0
62
255
10
53.98402
20
115.66932
30
0
70
32
0
VERTEX
8
0
62
255
10
53.98402
20
117.71547
30
0
70
32
0
VERTEX
8
0
62
255
10
53.98402
20
119.76163
30
0
70
32
0
VERTEX
8
0
62
255
10
53.98402
20
121.80779
30
0
70
32
0
VERTEX
8
0
62
255
10
53.98402
20
123.85395
30
0
70
32
0
VERTEX
8
0
62
255
10
53.98402
20
125.9001
30
0
70
32
0
VERTEX
8
0
62
255
10
53.98402
20
127.94626
30
0
70
32
0
VERTEX
8
0
62
255
10
53.98402
20
129.99242
30
0
70
32
0
VERTEX
8
0
62
255
10
53.98402
20
132.03857
30
0
70
32
0
VERTEX
8
0
62
255
10
53.98402
20
134.08473
30
0
70
32
0
VERTEX
8
0
62
255
10
53.98402
20
136.13089
30
0
70
32
0
VERTEX
8
0
62
255
10
53.98402
20
138.17705
30
0
70
32
0
VERTEX
8
0
62
255
10
53.98402
20
140.2232
30
0
70
32
0
VERTEX
8
0
62
255
10
53.98402
20
142.26936
30
0
70
32
0
VERTEX
8
0
62
255
10
53.98402
20
144.31552
30
0
70
32
0
VERTEX
8
0
62
255
10
53.98402
20
146.36167
30
0
70
32
0
VERTEX
8
0
62
255
10
53.98402
20
148.40783
30
0
70
32
0
VERTEX
8
0
62
255
10
53.98402
20
150.45399
30
0
70
32
0
VERTEX
8
0
62
255
10
53.98402
20
152.50014
30
0
70
32
0
VERTEX
8
0
62
255
10
53.98402
20
154.5463
30
0
70
32
0
VERTEX
8
0
62
255
10
53.98402
20
156.59246
30
0
70
32
0
VERTEX
8
0
62
255
10
53.98402
20
158.63862
30
0
70
32
0
VERTEX
8
0
62
255
10
53.98402
20
160.68477
30
0
70
32
0
SEQEND
8
0
0
POLYLINE
8
0
62
255
66
1
10
0
20
0
30
0
70
8
0
VERTEX
8
0
62
255
10
53.98402
20
160.68477
30
0
70
32
0
VERTEX
8
0
62
255
10
53.127648
20
160.68477
30
0
70
32
0
VERTEX
8
0
62
255
10
52.271276
20
160.68477
30
0
70
32
0
VERTEX
8
0
62
255
10
51.414904
20
160.68477
30
0
70
32
0
VERTEX
8
0
62
255
10
50.558532
20
160.68477
30
0
70
32
0
VERTEX
8
0
62
255
10
49.70216
20
160.68477
30
0
70
32
0
VERTEX
8
0
62
255
10
48.845788
20
160.68477
30
0
70
32
0
VERTEX
8
0
62
255
10
47.989416
20
160.68477
30
0
70
32
0
VERTEX
8
0
62
255
10
47.133044
20
160.68477
30
0
70
32
0
VERTEX
8
0
62
255
10
46.276672
20
160.68477
30
0
70
32
0
VERTEX
8
0
62
255
10
45.4203
20
160.68477
30
0
70
32
0
VERTEX
8
0
62
255
10
44.563928
20
160.68477
30
0
70
32
0
VERTEX
8
0
62
255
10
43.707556
20
160.68477
30
0
70
32
0
VERTEX
8
0
62
255
10
42.851184
20
160.68477
30
0
70
32
0
VERTEX
8
0
62
255
10
41.994812
20
160.68477
30
0
70
32
0
VERTEX
8
0
62
255
10
41.13844
20
160.68477
30
0
70
32
0
VERTEX
8
0
62
255
10
40.282068
20
160.68477
30
0
70
32
0
VERTEX
8
0
62
255
10
39.425696
20
160.68477
30
0
70
32
0
VERTEX
8
0
62
255
10
38.569324
20
160.68477
30
0
70
32
0
VERTEX
8
0
62
255
10
37.712953
20
160.68477
30
0
70
32
0
VERTEX
8
0
62
255
10
36.856581
20
160.68477
30
0
70
32
0
VERTEX
8
0
62
255
10
36.000209
20
160.68477
30
0
70
32
0
VERTEX
8
0
62
255
10
35.143837
20
160.68477
30
0
70
32
0
VERTEX
8
0
62
255
10
34.287465
20
160.68477
30
0
70
32
0
VERTEX
8
0
62
255
10
33.431093
20
160.68477
30
0
70
32
0
VERTEX
8
0
62
255
10
32.574721
20
160.68477
30
0
70
32
0
VERTEX
8
0
62
255
10
31.718349
20
160.68477
30
0
70
32
0
VERTEX
8
0
62
255
10
30.861977
20
160.68477
30
0
70
32
0
VERTEX
8
0
62
255
10
30.005605
20
160.68477
30
0
70
32
0
VERTEX
8
0
62
255
10
29.149233
20
160.68477
30
0
70
32
0
VERTEX
8
0
62
255
10
28.292861
20
160.68477
30
0
70
32
0
VERTEX
8
0
62
255
10
27.436489
20
160.68477
30
0
70
32
0
VERTEX
8
0
62
255
10
26.580117
20
160.68477
30
0
70
32
0
VERTEX
8
0
62
255
10
25.723745
20
160.68477
30
0
70
32
0
VERTEX
8
0
62
255
10
24.867373
20
160.68477
30
0
70
32
0
VERTEX
8
0
62
255
10
24.011001
20
160.68477
30
0
70
32
0
VERTEX
8
0
62
255
10
23.154629
20
160.68477
30
0
70
32
0
VERTEX
8
0
62
255
10
22.298257
20
160.68477
30
0
70
32
0
VERTEX
8
0
62
255
10
21.441885
20
160.68477
30
0
70
32
0
VERTEX
8
0
62
255
10
20.585513
20
160.68477
30
0
70
32
0
VERTEX
8
0
62
255
10
19.729141
20
160.68477
30
0
70
32
0
VERTEX
8
0
62
255
10
18.872769
20
160.68477
30
0
70
32
0
VERTEX
8
0
62
255
10
18.016398
20
160.68477
30
0
70
32
0
VERTEX
8
0
62
255
10
17.160026
20
160.68477
30
0
70
32
0
VERTEX
8
0
62
255
10
16.303654
20
160.68477
30
0
70
32
0
VERTEX
8
0
62
255
10
15.447282
20
160.68477
30
0
70
32
0
VERTEX
8
0
62
255
10
14.59091
20
160.68477
30
0
70
32
0
VERTEX
8
0
62
255
10
13.734538
20
160.68477
30
0
70
32
0
VERTEX
8
0
62
255
10
12.878166
20
160.68477
30
0
70
32
0
VERTEX
8
0
62
255
10
12.021794
20
160.68477
30
0
70
32
0
VERTEX
8
0
62
255
10
11.165422
20
160.68477
30
0
70
32
0
VERTEX
8
0
62
255
10
10.30905
20
160.68477
30
0
70
32
0
VERTEX
8
0
62
255
10
9.452678
20
160.68477
30
0
70
32
0
VERTEX
8
0
62
255
10
8.596306
20
160.68477
30
0
70
32
0
VERTEX
8
0
62
255
10
7.7399341
20
160.68477
30
0
70
32
0
VERTEX
8
0
62
255
10
6.8835621
20
160.68477
30
0
70
32
0
VERTEX
8
0
62
255
10
6.0271902
20
160.68477
30
0
70
32
0
VERTEX
8
0
62
255
10
5.1708182
20
160.68477
30
0
70
32
0
VERTEX
8
0
62
255
10
4.3144462
20
160.68477
30
0
70
32
0
VERTEX
8
0
62
255
10
3.4580743
20
160.68477
30
0
70
32
0
VERTEX
8
0
62
255
10
2.6017023
20
160.68477
30
0
70
32
0
VERTEX
8
0
62
255
10
1.7453304
20
160.68477
30
0
70
32
0
VERTEX
8
0
62
255
10
0.88895842
20
160.68477
30
0
70
32
0
VERTEX
8
0
62
255
10
0.032586469
20
160.68477
30
0
70
32
0
VERTEX
8
0
62
255
10
-0.82378549
20
160.68477
30
0
70
32
0
VERTEX
8
0
62
255
10
-1.6801574
20
160.68477
30
0
70
32
0
VERTEX
8
0
62
255
10
-2.5365294
20
160.68477
30
0
70
32
0
VERTEX
8
0
62
255
10
-3.3929014
20
160.68477
30
0
70
32
0
VERTEX
8
0
62
255
10
-4.2492733
20
160.68477
30
0
70
32
0
VERTEX
8
0
62
255
10
-5.1056453
20
160.68477
30
0
70
32
0
VERTEX
8
0
62
255
10
-5.9620172
20
160.68477
30
0
70
32
0
VERTEX
8
0
62
255
10
-6.8183892
20
160.68477
30
0
70
32
0
VERTEX
8
0
62
255
10
-7.6747611
20
160.68477
30
0
70
32
0
VERTEX
8
0
62
255
10
-8.5311331
20
160.68477
30
0
70
32
0
VERTEX
8
0
62
255
10
-9.387505
20
160.68477
30
0
70
32
0
VERTEX
8
0
62
255
10
-10.243877
20
160.68477
30
0
70
32
0
VERTEX
8
0
62
255
10
-11.100249
20
160.68477
30
0
70
32
0
VERTEX
8
0
62
255
10
-11.956621
20
160.68477
30
0
70
32
0
VERTEX
8
0
62
255
10
-12.812993
20
160.68477
30
0
70
32
0
VERTEX
8
0
62
255
10
-13.669365
20
160.68477
30
0
70
32
0
VERTEX
8
0
62
255
10
-14.525737
20
160.68477
30
0
70
32
0
VERTEX
8
0
62
255
10
-15.382109
20
160.68477
30
0
70
32
0
VERTEX
8
0
62
255
10
-16.238481
20
160.68477
30
0
70
32
0
VERTEX
8
0
62
255
10
-17.094853
20
160.68477
30
0
70
32
0
VERTEX
8
0
62
255
10
-17.951225
20
160.68477
30
0
70
32
0
VERTEX
8
0
62
255
10
-18.807597
20
160.68477
30
0
70
32
0
VERTEX
8
0
62
255
10
-19.663969
20
160.68477
30
0
70
32
0
VERTEX
8
0
62
255
10
-20.52034
20
160.68477
30
0
70
32
0
VERTEX
8
0
62
255
10
-21.376712
20
160.68477
30
0
70
32
0
VERTEX
8
0
62
255
10
-22.233084
20
160.68477
30
0
70
32
0
VERTEX
8
0
62
255
10
-23.089456
20
160.68477
30
0
70
32
0
VERTEX
8
0
62
255
10
-23.945828
20
160.68477
30
0
70
32
0
VERTEX
8
0
62
255
10
-24.8022
20
160.68477
30
0
70
32
0
VERTEX
8
0
62
255
10
-25.658572
20
160.68477
30
0
70
32
0
VERTEX
8
0
62
255
10
-26.514944
20
160.68477
30
0
70
32
0
VERTEX
8
0
62
255
10
-27.371316
20
160.68477
30
0
70
32
0
VERTEX
8
0
62
255
10
-28.227688
20
160.68477
30
0
70
32
0
VERTEX
8
0
62
255
10
-29.08406
20
160.68477
30
0
70
32
0
VERTEX
8
0
62
255
10
-29.940432
20
160.68477
30
0
70
32
0
VERTEX
8
0
62
255
10
-30.796804
20
160.68477
30
0
70
32
0
SEQEND
8
0
0
POLYLINE
8
0
62
255
66
1
10
0
20
0
30
0
70
8
0
VERTEX
8
0
62
255
10
-30.796804
20
160.68477
30
0
70
32
0
VERTEX
8
0
62
255
10
-30.796804
20
158.63862
30
0
70
32
0
VERTEX
8
0
62
255
10
-30.796804
20
156.59246
30
0
70
32
0
VERTEX
8
0
62
255
10
-30.796804
20
154.5463
30
0
70
32
0
VERTEX
8
0
62
255
10
-30.796804
20
152.50014
30
0
70
32
0
VERTEX
8
0
62
255
10
-30.796804
20
150.45399
30
0
70
32
0
VERTEX
8
0
62
255
10
-30.796804
20
148.40783
30
0
70
32
0
VERTEX
8
0
62
255
10
-30.796804
20
146.36167
30
0
70
32
0
VERTEX
8
0
62
255
10
-30.796804
20
144.31552
30
0
70
32
0
VERTEX
8
0
62
255
10
-30.796804
20
142.26936
30
0
70
32
0
VERTEX
8
0
62
255
10
-30.796804
20
140.2232
30
0
70
32
0
VERTEX
8
0
62
255
10
-30.796804
20
138.17705
30
0
70
32
0
VERTEX
8
0
62
255
10
-30.796804
20
136.13089
30
0
70
32
0
VERTEX
8
0
62
255
10
-30.796804
20
134.08473
30
0
70
32
0
VERTEX
8
0
62
255
10
-30.796804
20
132.03857
30
0
70
32
0
VERTEX
8
0
62
255
10
-30.796804
20
129.99242
30
0
70
32
0
VERTEX
8
0
62
255
10
-30.796804
20
127.94626
30
0
70
32
0
VERTEX
8
0
62
255
10
-30.796804
20
125.9001
30
0
70
32
0
VERTEX
8
0
62
255
10
-30.796804
20
123.85395
30
0
70
32
0
VERTEX
8
0
62
255
10
-30.796804
20
121.80779
30
0
70
32
0
VERTEX
8
0
62
255
10
-30.796804
20
119.76163
30
0
70
32
0
VERTEX
8
0
62
255
10
-30.796804
20
117.71547
30
0
70
32
0
VERTEX
8
0
62
255
10
-30.796804
20
115.66932
30
0
70
32
0
VERTEX
8
0
62
255
10
-30.796804
20
113.62316
30
0
70
32
0
VERTEX
8
0
62
255
10
-30.796804
20
111.577
30
0
70
32
0
VERTEX
8
0
62
255
10
-30.796804
20
109.53085
30
0
70
32
0
VERTEX
8
0
62
255
10
-30.796804
20
107.48469
30
0
70
32
0
VERTEX
8
0
62
255
10
-30.796804
20
105.43853
30
0
70
32
0
VERTEX
8
0
62
255
10
-30.796804
20
103.39238
30
0
70
32
0
VERTEX
8
0
62
255
10
-30.796804
20
101.34622
30
0
70
32
0
VERTEX
8
0
62
255
10
-30.796804
20
99.300062
30
0
70
32
0
VERTEX
8
0
62
255
10
-30.796804
20
97.253905
30
0
70
32
0
VERTEX
8
0
62
255
10
-30.796804
20
95.207748
30
0
70
32
0
VERTEX
8
0
62
255
10
-30.796804
20
93.161591
30
0
70
32
0
VERTEX
8
0
62
255
10
-30.796804
20
91.115434
30
0
70
32
0
VERTEX
8
0
62
255
10
-30.796804
20
89.069277
30
0
70
32
0
VERTEX
8
0
62
255
10
-30.796804
20
87.02312
30
0
70
32
0
VERTEX
8
0
62
255
10
-30.796804
20
84.976963
30
0
70
32
0
VERTEX
8
0
62
255
10
-30.796804
20
82.930806
30
0
70
32
0
VERTEX
8
0
62
255
10
-30.796804
20
80.884649
30
0
70
32
0
VERTEX
8
0
62
255
10
-30.796804
20
78.838492
30
0
70
32
0
VERTEX
8
0
62
255
10
-30.796804
20
76.792335
30
0
70
32
0
VERTEX
8
0
62
255
10
-30.796804
20
74.746178
30
0
70
32
0
VERTEX
8
0
62
255
10
-30.796804
20
72.700021
30
0
70
32
0
VERTEX
8
0
62
255
10
-30.796804
20
70.653864
30
0
70
32
0
VERTEX
8
0
62
255
10
-30.796804
20
68.607707
30
0
70
32
0
VERTEX
8
0
62
255
10
-30.796804
20
66.56155
30
0
70
32
0
VERTEX
8
0
62
255
10
-30.796804
20
64.515393
30
0
70
32
0
VERTEX
8
0
62
255
10
-30.796804
20
62.469236
30
0
70
32
0
VERTEX
8
0
62
255
10
-30.796804
20
60.423079
30
0
70
32
0
VERTEX
8
0
62
255
10
-30.796804
20
58.376921
30
0
70
32
0
VERTEX
8
0
62
255
10
-30.796804
20
56.330764
30
0
70
32
0
VERTEX
8
0
62
255
10
-30.796804
20
54.284607
30
0
70
32
0
VERTEX
8
0
62
255
10
-30.796804
20
52.23845
30
0
70
32
0
VERTEX
8
0
62
255
10
-30.796804
20
50.192293
30
0
70
32
0
VERTEX
8
0
62
255
10
-30.796804
20
48.146136
30
0
70
32
0
VERTEX
8
0
62
255
10
-30.796804
20
46.099979
30
0
70
32
0
VERTEX
8
0
62
255
10
-30.796804
20
44.053822
30
0
70
32
0
VERTEX
8
0
62
255
10
-30.796804
20
42.007665
30
0
70
32
0
VERTEX
8
0
62
255
10
-30.796804
20
39.961508
30
0
70
32
0
VERTEX
8
0
62
255
10
-30.796804
20
37.915351
30
0
70
32
0
VERTEX
8
0
62
255
10
-30.796804
20
35.869194
30
0
70
32
0
VERTEX
8
0
62
255
10
-30.796804
20
33.823037
30
0
70
32
0
VERTEX
8
0
62
255
10
-30.796804
20
31.77688
30
0
70
32
0
VERTEX
8
0
62
255
10
-30.796804
20
29.730723
30
0
70
32
0
VERTEX
8
0
62
255
10
-30.796804
20
27.684566
30
0
70
32
0
VERTEX
8
0
62
255
10
-30.796804
20
25.638409
30
0
70
32
0
VERTEX
8
0
62
255
10
-30.796804
20
23.592252
30
0
70
32
0
VERTEX
8
0
62
255
10
-30.796804
20
21.546095
30
0
70
32
0
VERTEX
8
0
62
255
10
-30.796804
20
19.499938
30
0
70
32
0
VERTEX
8
0
62
255
10
-30.796804
20
17.453781
30
0
70
32
0
VERTEX
8
0
62
255
10
-30.796804
20
15.407624
30
0
70
32
0
VERTEX
8
0
62
255
10
-30.796804
20
13.361467
30
0
70
32
0
VERTEX
8
0
62
255
10
-30.796804
20
11.31531
30
0
70
32
0
VERTEX
8
0
62
255
10
-30.796804
20
9.2691531
30
0
70
32
0
VERTEX
8
0
62
255
10
-30.796804
20
7.2229961
30
0
70
32
0
VERTEX
8
0
62
255
10
-30.796804
20
5.176839
30
0
70
32
0
VERTEX
8
0
62
255
10
-30.796804
20
3.130682
30
0
70
32
0
VERTEX
8
0
62
255
10
-30.796804
20
1.084525
30
0
70
32
0
VERTEX
8
0
62
255
10
-30.796804
20
-0.96163201
30
0
70
32
0
VERTEX
8
0
62
255
10
-30.796804
20
-3.007789
30
0
70
32
0
VERTEX
8
0
62
255
10
-30.796804
20
-5.053946
30
0
70
32
0
VERTEX
8
0
62
255
10
-30.796804
20
-7.1001031
30
0
70
32
0
VERTEX
8
0
62
255
10
-30.796804
20
-9.1462601
30
0
70
32
0
VERTEX
8
0
62
255
10
-30.796804
20
-11.192417
30
0
70
32
0
VERTEX
8
0
62
255
10
-30.796804
20
-13.238574
30
0
70
32
0
VERTEX
8
0
62
255
10
-30.796804
20
-15.284731
30
0
70
32
0
VERTEX
8
0
62
255
10
-30.796804
20
-17.330888
30
0
70
32
0
VERTEX
8
0
62
255
10
-30.796804
20
-19.377045
30
0
70
32
0
VERTEX
8
0
62
255
10
-30.796804
20
-21.423202
30
0
70
32
0
VERTEX
8
0
62
255
10
-30.796804
20
-23.469359
30
0
70
32
0
VERTEX
8
0
62
255
10
-30.796804
20
-25.515516
30
0
70
32
0
VERTEX
8
0
62
255
10
-30.796804
20
-27.561673
30
0
70
32
0
VERTEX
8
0
62
255
10
-30.796804
20
-29.60783
30
0
70
32
0
VERTEX
8
0
62
255
10
-30.796804
20
-31.653987
30
0
70
32
0
VERTEX
8
0
62
255
10
-30.796804
20
-33.700144
30
0
70
32
0
VERTEX
8
0
62
255
10
-30.796804
20
-35.746301
30
0
70
32
0
VERTEX
8
0
62
255
10
-30.796804
20
-37.792458
30
0
70
32
0
VERTEX
8
0
62
255
10
-30.796804
20
-39.838615
30
0
70
32
0
VERTEX
8
0
62
255
10
-30.796804
20
-41.884772
30
0
70
32
0
SEQEND
8
0
0
POLYLINE
8
0
62
255
66
1
10
0
20
0
30
0
70
8
0
VERTEX
8
0
62
255
10
-11.906392
20
0
30
0
70
32
0
VERTEX
8
0
62
255
10
-11.909412
20
0.095135879
30
0
70
32
0
VERTEX
8
0
62
255
10
-11.91846
20
0.18988868
30
0
70
32
0
VERTEX
8
0
62
255
10
-11.933499
20
0.28387687
30
0
70
32
0
VERTEX
8
0
62
255
10
-11.954469
20
0.37672198
30
0
70
32
0
VERTEX
8
0
62
255
10
-11.981285
20
0.46805017
30
0
70
32
0
VERTEX
8
0
62
255
10
-12.01384
20
0.55749368
30
0
70
32
0
VERTEX
8
0
62
255
10
-12.052002
20
0.64469237
30
0
70
32
0
VERTEX
8
0
62
255
10
-12.095618
20
0.7292951
30
0
70
32
0
VERTEX
8
0
62
255
10
-12.144512
20
0.81096123
30
0
70
32
0
VERTEX
8
0
62
255
10
-12.198487
20
0.88936189
30
0
70
32
0
VERTEX
8
0
62
255
10
-12.257325
20
0.96418141
30
0
70
32
0
VERTEX
8
0
62
255
10
-12.320791
20
1.0351185
30
0
70
32
0
VERTEX
8
0
62
255
10
-12.388628
20
1.1018876
30
0
70
32
0
VERTEX
8
0
62
255
10
-12.460563
20
1.1642197
30
0
70
32
0
VERTEX
8
0
62
255
10
-12.536307
20
1.2218639
30
0
70
32
0
VERTEX
8
0
62
255
10
-12.615554
20
1.2745881
30
0
70
32
0
VERTEX
8
0
62
255
10
-12.697986
20
1.32218
30
0
70
32
0
VERTEX
8
0
62
255
10
-12.78327
20
1.364448
30
0
70
32
0
VERTEX
8
0
62
255
10
-12.871063
20
1.4012218
30
0
70
32
0
VERTEX
8
0
62
255
10
-12.961012
20
1.4323534
30
0
70
32
0
VERTEX
8
0
62
255
10
-13.052754
20
1.4577174
30
0
70
32
0
VERTEX
8
0
62
255
10
-13.14592
20
1.4772116
30
0
70
32
0
VERTEX
8
0
62
255
10
-13.240135
20
1.4907577
30
0
70
32
0
VERTEX
8
0
62
255
10
-13.335019
20
1.498301
30
0
70
32
0
VERTEX
8
0
62
255
10
-13.430191
20
1.4998112
30
0
70
32
0
VERTEX
8
0
62
255
10
-13.525267
20
1.4952822
30
0
70
32
0
VERTEX
8
0
62
255
10
-13.619864
20
1.4847322
30
0
70
32
0
VERTEX
8
0
62
255
10
-13.713602
20
1.4682037
30
0
70
32
0
VERTEX
8
0
62
255
10
-13.806103
20
1.4457632
30
0
70
32
0
VERTEX
8
0
62
255
10
-13.896994
20
1.4175012
30
0
70
32
0
VERTEX
8
0
62
255
10
-13.98591
20
1.3835314
30
0
70
32
0
VERTEX
8
0
62
255
10
-14.072492
20
1.3439907
30
0
70
32
0
VERTEX
8
0
62
255
10
-14.156392
20
1.2990381
30
0
70
32
0
VERTEX
8
0
62
255
10
-14.237272
20
1.2488548
30
0
70
32
0
VERTEX
8
0
62
255
10
-14.314807
20
1.1936428
30
0
70
32
0
VERTEX
8
0
62
255
10
-14.388683
20
1.1336244
30
0
70
32
0
VERTEX
8
0
62
255
10
-14.458604
20
1.0690413
30
0
70
32
0
VERTEX
8
0
62
255
10
-14.524289
20
1.0001535
30
0
70
32
0
VERTEX
8
0
62
255
10
-14.585472
20
0.92723848
30
0
70
32
0
VERTEX
8
0
62
255
10
-14.641907
20
0.8505898
30
0
70
32
0
VERTEX
8
0
62
255
10
-14.693367
20
0.77051609
30
0
70
32
0
VERTEX
8
0
62
255
10
-14.739645
20
0.68733978
30
0
70
32
0
VERTEX
8
0
62
255
10
-14.780555
20
0.6013958
30
0
70
32
0
VERTEX
8
0
62
255
10
-14.815931
20
0.51303021
30
0
70
32
0
VERTEX
8
0
62
255
10
-14.845632
20
0.42259884
30
0
70
32
0
VERTEX
8
0
62
255
10
-14.869537
20
0.3304658
30
0
70
32
0
VERTEX
8
0
62
255
10
-14.88755
20
0.23700209
30
0
70
32
0
VERTEX
8
0
62
255
10
-14.8996
20
0.14258406
30
0
70
32
0
VERTEX
8
0
62
255
10
-14.905637
20
0.0475919
30
0
70
32
0
VERTEX
8
0
62
255
10
-14.905637
20
-0.0475919
30
0
70
32
0
VERTEX
8
0
62
255
10
-14.8996
20
-0.14258406
30
0
70
32
0
VERTEX
8
0
62
255
10
-14.88755
20
-0.23700209
30
0
70
32
0
VERTEX
8
0
62
255
10
-14.869537
20
-0.3304658
30
0
70
32
0
VERTEX
8
0
62
255
10
-14.845632
20
-0.42259884
30
0
70
32
0
VERTEX
8
0
62
255
10
-14.815931
20
-0.51303021
30
0
70
32
0
VERTEX
8
0
62
255
10
-14.780555
20
-0.6013958
30
0
70
32
0
VERTEX
8
0
62
255
10
-14.739645
20
-0.68733978
30
0
70
32
0
VERTEX
8
0
62
255
10
-14.693367
20
-0.77051609
30
0
70
32
0
VERTEX
8
0
62
255
10
-14.641907
20
-0.8505898
30
0
70
32
0
VERTEX
8
0
62
255
10
-14.585472
20
-0.92723848
30
0
70
32
0
VERTEX
8
0
62
255
10
-14.524289
20
-1.0001535
30
0
70
32
0
VERTEX
8
0
62
255
10
-14.458604
20
-1.0690413
30
0
70
32
0
VERTEX
8
0
62
255
10
-14.388683
20
-1.1336244
30
0
70
32
0
VERTEX
8
0
62
255
10
-14.314807
20
-1.1936428
30
0
70
32
0
VERTEX
8
0
62
255
10
-14.237272
20
-1.2488548
30
0
70
32
0
VERTEX
8
0
62
255
10
-14.156392
20
-1.2990381
30
0
70
32
0
VERTEX
8
0
62
255
10
-14.072492
20
-1.3439907
30
0
70
32
0
VERTEX
8
0
62
255
10
-13.98591
20
-1.3835314
30
0
70
32
0
VERTEX
8
0
62
255
10
-13.896994
20
-1.4175012
30
0
70
32
0
VERTEX
8
0
62
255
10
-13.806103
20
-1.4457632
30
0
70
32
0
VERTEX
8
0
62
255
10
-13.713602
20
-1.4682037
30
0
70
32
0
VERTEX
8
0
62
255
10
-13.619864
20
-1.4847322
30
0
70
32
0
VERTEX
8
0
62
255
10
-13.525267
20
-1.4952822
30
0
70
32
0
VERTEX
8
0
62
255
10
-13.430191
20
-1.4998112
30
0
70
32
0
VERTEX
8
0
62
255
10
-13.335019
20
-1.498301
30
0
70
32
0
VERTEX
8
0
62
255
10
-13.240135
20
-1.4907577
30
0
70
32
0
VERTEX
8
0
62
255
10
-13.14592
20
-1.4772116
30
0
70
32
0
VERTEX
8
0
62
255
10
-13.052754
20
-1.4577174
30
0
70
32
0
VERTEX
8
0
62
255
10
-12.961012
20
-1.4323534
30
0
70
32
0
VERTEX
8
0
62
255
10
-12.871063
20
-1.4012218
30
0
70
32
0
VERTEX
8
0
62
255
10
-12.78327
20
-1.364448
30
0
70
32
0
VERTEX
8
0
62
255
10
-12.697986
20
-1.32218
30
0
70
32
0
VERTEX
8
0
62
255
10
-12.615554
20
-1.2745881
30
0
70
32
0
VERTEX
8
0
62
255
10
-12.536307
20
-1.2218639
30
0
70
32
0
VERTEX
8
0
62
255
10
-12.460563
20
-1.1642197
30
0
70
32
0
VERTEX
8
0
62
255
10
-12.388628
20
-1.1018876
30
0
70
32
0
VERTEX
8
0
62
255
10
-12.320791
20
-1.0351185
30
0
70
32
0
VERTEX
8
0
62
255
10
-12.257325
20
-0.96418141
30
0
70
32
0
VERTEX
8
0
62
255
10
-12.198487
20
-0.88936189
30
0
70
32
0
VERTEX
8
0
62
255
10
-12.144512
20
-0.81096123
30
0
70
32
0
VERTEX
8
0
62
255
10
-12.095618
20
-0.7292951
30
0
70
32
0
VERTEX
8
0
62
255
10
-12.052002
20
-0.64469237
30
0
70
32
0
VERTEX
8
0
62
255
10
-12.01384
20
-0.55749368
30
0
70
32
0
VERTEX
8
0
62
255
10
-11.981285
20
-0.46805017
30
0
70
32
0
VERTEX
8
0
62
255
10
-11.954469
20
-0.37672198
30
0
70
32
0
VERTEX
8
0
62
255
10
-11.933499
20
-0.28387687
30
0
70
32
0
VERTEX
8
0
62
255
10
-11.91846
20
-0.18988868
30
0
70
32
0
VERTEX
8
0
62
255
10
-11.909412
20
-0.095135879
30
0
70
32
0
VERTEX
8
0
62
255
10
-11.906392
20
-3.6739404e-16
30
0
70
32
0
SEQEND
8
0
0
POLYLINE
8
0
62
255
66
1
10
0
20
0
30
0
70
8
0
VERTEX
8
0
62
255
10
38.093608
20
0
30
0
70
32
0
VERTEX
8
0
62
255
10
38.090588
20
0.095135879
30
0
70
32
0
VERTEX
8
0
62
255
10
38.08154
20
0.18988868
30
0
70
32
0
VERTEX
8
0
62
255
10
38.066501
20
0.28387687
30
0
70
32
0
VERTEX
8
0
62
255
10
38.045531
20
0.37672198
30
0
70
32
0
VERTEX
8
0
62
255
10
38.018715
20
0.46805017
30
0
70
32
0
VERTEX
8
0
62
255
10
37.98616
20
0.55749368
30
0
70
32
0
VERTEX
8
0
62
255
10
37.947998
20
0.64469237
30
0
70
32
0
VERTEX
8
0
62
255
10
37.904382
20
0.7292951
30
0
70
32
0
VERTEX
8
0
62
255
10
37.855488
20
0.81096123
30
0
70
32
0
VERTEX
8
0
62
255
10
37.801513
20
0.88936189
30
0
70
32
0
VERTEX
8
0
62
255
10
37.742675
20
0.96418141
30
0
70
32
0
VERTEX
8
0
62
255
10
37.679209
20
1.0351185
30
0
70
32
0
VERTEX
8
0
62
255
10
37.611372
20
1.1018876
30
0
70
32
0
VERTEX
8
0
62
255
10
37.539437
20
1.1642197
30
0
70
32
0
VERTEX
8
0
62
255
10
37.463693
20
1.2218639
30
0
70
32
0
VERTEX
8
0
62
255
10
37.384446
20
1.2745881
30
0
70
32
0
VERTEX
8
0
62
255
10
37.302014
20
1.32218
30
0
70
32
0
VERTEX
8
0
62
255
10
37.21673
20
1.364448
30
0
70
32
0
VERTEX
8
0
62
255
10
37.128937
20
1.4012218
30
0
70
32
0
VERTEX
8
0
62
255
10
37.038988
20
1.4323534
30
0
70
32
0
VERTEX
8
0
62
255
10
36.947246
20
1.4577174
30
0
70
32
0
VERTEX
8
0
62
255
10
36.85408
20
1.4772116
30
0
70
32
0
VERTEX
8
0
62
255
10
36.759865
20
1.4907577
30
0
70
32
0
VERTEX
8
0
62
255
10
36.664981
20
1.498301
30
0
70
32
0
VERTEX
8
0
62
255
10
36.569809
20
1.4998112
30
0
70
32
0
VERTEX
8
0
62
255
10
36.474733
20
1.4952822
30
0
70
32
0
VERTEX
8
0
62
255
10
36.380136
20
1.4847322
30
0
70
32
0
VERTEX
8
0
62
255
10
36.286398
20
1.4682037
30
0
70
32
0
VERTEX
8
0
62
255
10
36.193897
20
1.4457632
30
0
70
32
0
VERTEX
8
0
62
255
10
36.103006
20
1.4175012
30
0
70
32
0
VERTEX
8
0
62
255
10
36.01409
20
1.3835314
30
0
70
32
0
VERTEX
8
0
62
255
10
35.927508
20
1.3439907
30
0
70
32
0
VERTEX
8
0
62
255
10
35.843608
20
1.2990381
30
0
70
32
0
VERTEX
8
0
62
255
10
35.762728
20
1.2488548
30
0
70
32
0
VERTEX
8
0
62
255
10
35.685193
20
1.1936428
30
0
70
32
0
VERTEX
8
0
62
255
10
35.611317
20
1.1336244
30
0
70
32
0
VERTEX
8
0
62
255
10
35.541396
20
1.0690413
30
0
70
32
0
VERTEX
8
0
62
255
10
35.475711
20
1.0001535
30
0
70
32
0
VERTEX
8
0
62
255
10
35.414528
20
0.92723848
30
0
70
32
0
VERTEX
8
0
62
255
10
35.358093
20
0.8505898
30
0
70
32
0
VERTEX
8
0
62
255
10
35.306633
20
0.77051609
30
0
70
32
0
VERTEX
8
0
62
255
10
35.260355
20
0.68733978
30
0
70
32
0
VERTEX
8
0
62
255
10
35.219445
20
0.6013958
30
0
70
32
0
VERTEX
8
0
62
255
10
35.184069
20
0.51303021
30
0
70
32
0
VERTEX
8
0
62
255
10
35.154368
20
0.42259884
30
0
70
32
0
VERTEX
8
0
62
255
10
35.130463
20
0.3304658
30
0
70
32
0
VERTEX
8
0
62
255
10
35.11245
20
0.23700209
30
0
70
32
0
VERTEX
8
0
62
255
10
35.1004
20
0.14258406
30
0
70
32
0
VERTEX
8
0
62
255
10
35.094363
20
0.0475919
30
0
70
32
0
VERTEX
8
0
62
255
10
35.094363
20
-0.0475919
30
0
70
32
0
VERTEX
8
0
62
255
10
35.1004
20
-0.14258406
30
0
70
32
0
VERTEX
8
0
62
255
10
35.11245
20
-0.23700209
30
0
70
32
0
VERTEX
8
0
62
255
10
35.130463
20
-0.3304658
30
0
70
32
0
VERTEX
8
0
62
255
10
35.154368
20
-0.42259884
30
0
70
32
0
VERTEX
8
0
62
255
10
35.184069
20
-0.51303021
30
0
70
32
0
VERTEX
8
0
62
255
10
35.219445
20
-0.6013958
30
0
70
32
0
VERTEX
8
0
62
255
10
35.260355
20
-0.68733978
30
0
70
32
0
VERTEX
8
0
62
255
10
35.306633
20
-0.77051609
30
0
70
32
0
VERTEX
8
0
62
255
10
35.358093
20
-0.8505898
30
0
70
32
0
VERTEX
8
0
62
255
10
35.414528
20
-0.92723848
30
0
70
32
0
VERTEX
8
0
62
255
10
35.475711
20
-1.0001535
30
0
70
32
0
VERTEX
8
0
62
255
10
35.541396
20
-1.0690413
30
0
70
32
0
VERTEX
8
0
62
255
10
35.611317
20
-1.1336244
30
0
70
32
0
VERTEX
8
0
62
255
10
35.685193
20
-1.1936428
30
0
70
32
0
VERTEX
8
0
62
255
10
35.762728
20
-1.2488548
30
0
70
32
0
VERTEX
8
0
62
255
10
35.843608
20
-1.2990381
30
0
70
32
0
VERTEX
8
0
62
255
10
35.927508
20
-1.3439907
30
0
70
32
0
VERTEX
8
0
62
255
10
36.01409
20
-1.3835314
30
0
70
32
0
VERTEX
8
0
62
255
10
36.103006
20
-1.4175012
30
0
70
32
0
VERTEX
8
0
62
255
10
36.193897
20
-1.4457632
30
0
70
32
0
VERTEX
8
0
62
255
10
36.286398
20
-1.4682037
30
0
70
32
0
VERTEX
8
0
62
255
10
36.380136
20
-1.4847322
30
0
70
32
0
VERTEX
8
0
62
255
10
36.474733
20
-1.4952822
30
0
70
32
0
VERTEX
8
0
62
255
10
36.569809
20
-1.4998112
30
0
70
32
0
VERTEX
8
0
62
255
10
36.664981
20
-1.498301
30
0
70
32
0
VERTEX
8
0
62
255
10
36.759865
20
-1.4907577
30
0
70
32
0
VERTEX
8
0
62
255
10
36.85408
20
-1.4772116
30
0
70
32
0
VERTEX
8
0
62
255
10
36.947246
20
-1.4577174
30
0
70
32
0
VERTEX
8
0
62
255
10
37.038988
20
-1.4323534
30
0
70
32
0
VERTEX
8
0
62
255
10
37.128937
20
-1.4012218
30
0
70
32
0
VERTEX
8
0
62
255
10
37.21673
20
-1.364448
30
0
70
32
0
VERTEX
8
0
62
255
10
37.302014
20
-1.32218
30
0
70
32
0
VERTEX
8
0
62
255
10
37.384446
20
-1.2745881
30
0
70
32
0
VERTEX
8
0
62
255
10
37.463693
20
-1.2218639
30
0
70
32
0
VERTEX
8
0
62
255
10
37.539437
20
-1.1642197
30
0
70
32
0
VERTEX
8
0
62
255
10
37.611372
20
-1.1018876
30
0
70
32
0
VERTEX
8
0
62
255
10
37.679209
20
-1.0351185
30
0
70
32
0
VERTEX
8
0
62
255
10
37.742675
20
-0.96418141
30
0
70
32
0
VERTEX
8
0
62
255
10
37.801513
20
-0.88936189
30
0
70
32
0
VERTEX
8
0
62
255
10
37.855488
20
-0.81096123
30
0
70
32
0
VERTEX
8
0
62
255
10
37.904382
20
-0.7292951
30
0
70
32
0
VERTEX
8
0
62
255
10
37.947998
20
-0.64469237
30
0
70
32
0
VERTEX
8
0
62
255
10
37.98616
20
-0.55749368
30
0
70
32
0
VERTEX
8
0
62
255
10
38.018715
20
-0.46805017
30
0
70
32
0
VERTEX
8
0
62
255
10
38.045531
20
-0.37672198
30
0
70
32
0
VERTEX
8
0
62
255
10
38.066501
20
-0.28387687
30
0
70
32
0
VERTEX
8
0
62
255
10
38.08154
20
-0.18988868
30
0
70
32
0
VERTEX
8
0
62
255
10
38.090588
20
-0.095135879
30
0
70
32
0
VERTEX
8
0
62
255
10
38.093608
20
-3.6739404e-16
30
0
70
32
0
SEQEND
8
0
0
POLYLINE
8
0
62
255
66
1
10
0
20
0
30
0
70
8
0
VERTEX
8
0
62
255
10
-11.906392
20
100
30
0
70
32
0
VERTEX
8
0
62
255
10
-11.909412
20
100.09514
30
0
70
32
0
VERTEX
8
0
62
255
10
-11.91846
20
100.18989
30
0
70
32
0
VERTEX
8
0
62
255
10
-11.933499
20
100.28388
30
0
70
32
0
VERTEX
8
0
62
255
10
-11.954469
20
100.37672
30
0
70
32
0
VERTEX
8
0
62
255
10
-11.981285
20
100.46805
30
0
70
32
0
VERTEX
8
0
62
255
10
-12.01384
20
100.55749
30
0
70
32
0
VERTEX
8
0
62
255
10
-12.052002
20
100.64469
30
0
70
32
0
VERTEX
8
0
62
255
10
-12.095618
20
100.7293
30
0
70
32
0
VERTEX
8
0
62
255
10
-12.144512
20
100.81096
30
0
70
32
0
VERTEX
8
0
62
255
10
-12.198487
20
100.88936
30
0
70
32
0
VERTEX
8
0
62
255
10
-12.257325
20
100.96418
30
0
70
32
0
VERTEX
8
0
62
255
10
-12.320791
20
101.03512
30
0
70
32
0
VERTEX
8
0
62
255
10
-12.388628
20
101.10189
30
0
70
32
0
VERTEX
8
0
62
255
10
-12.460563
20
101.16422
30
0
70
32
0
VERTEX
8
0
62
255
10
-12.536307
20
101.22186
30
0
70
32
0
VERTEX
8
0
62
255
10
-12.615554
20
101.27459
30
0
70
32
0
VERTEX
8
0
62
255
10
-12.697986
20
101.32218
30
0
70
32
0
VERTEX
8
0
62
255
10
-12.78327
20
101.36445
30
0
70
32
0
VERTEX
8
0
62
255
10
-12.871063
20
101.40122
30
0
70
32
0
VERTEX
8
0
62
255
10
-12.961012
20
101.43235
30
0
70
32
0
VERTEX
8
0
62
255
10
-13.052754
20
101.45772
30
0
70
32
0
VERTEX
8
0
62
255
10
-13.14592
20
101.47721
30
0
70
32
0
VERTEX
8
0
62
255
10
-13.240135
20
101.49076
30
0
70
32
0
VERTEX
8
0
62
255
10
-13.335019
20
101.4983
30
0
70
32
0
VERTEX
8
0
62
255
10
-13.430191
20
101.49981
30
0
70
32
0
VERTEX
8
0
62
255
10
-13.525267
20
101.49528
30
0
70
32
0
VERTEX
8
0
62
255
10
-13.619864
20
101.48473
30
0
70
32
0
VERTEX
8
0
62
255
10
-13.713602
20
101.4682
30
0
70
32
0
VERTEX
8
0
62
255
10
-13.806103
20
101.44576
30
0
70
32
0
VERTEX
8
0
62
255
10
-13.896994
20
101.4175
30
0
70
32
0
VERTEX
8
0
62
255
10
-13.98591
20
101.38353
30
0
70
32
0
VERTEX
8
0
62
255
10
-14.072492
20
101.34399
30
0
70
32
0
VERTEX
8
0
62
255
10
-14.156392
20
101.29904
30
0
70
32
0
VERTEX
8
0
62
255
10
-14.237272
20
101.24885
30
0
70
32
0
VERTEX
8
0
62
255
10
-14.314807
20
101.19364
30
0
70
32
0
VERTEX
8
0
62
255
10
-14.388683
20
101.13362
30
0
70
32
0
VERTEX
8
0
62
255
10
-14.458604
20
101.06904
30
0
70
32
0
VERTEX
8
0
62
255
10
-14.524289
20
101.00015
30
0
70
32
0
VERTEX
8
0
62
255
10
-14.585472
20
100.92724
30
0
70
32
0
VERTEX
8
0
62
255
10
-14.641907
20
100.85059
30
0
70
32
0
VERTEX
8
0
62
255
10
-14.693367
20
100.77052
30
0
70
32
0
VERTEX
8
0
62
255
10
-14.739645
20
100.68734
30
0
70
32
0
VERTEX
8
0
62
255
10
-14.780555
20
100.6014
30
0
70
32
0
VERTEX
8
0
62
255
10
-14.815931
20
100.51303
30
0
70
32
0
VERTEX
8
0
62
255
10
-14.845632
20
100.4226
30
0
70
32
0
VERTEX
8
0
62
255
10
-14.869537
20
100.33047
30
0
70
32
0
VERTEX
8
0
62
255
10
-14.88755
20
100.237
30
0
70
32
0
VERTEX
8
0
62
255
10
-14.8996
20
100.14258
30
0
70
32
0
VERTEX
8
0
62
255
10
-14.905637
20
100.04759
30
0
70
32
0
VERTEX
8
0
62
255
10
-14.905637
20
99.952408
30
0
70
32
0
VERTEX
8
0
62
255
10
-14.8996
20
99.857416
30
0
70
32
0
VERTEX
8
0
62
255
10
-14.88755
20
99.762998
30
0
70
32
0
VERTEX
8
0
62
255
10
-14.869537
20
99.669534
30
0
70
32
0
VERTEX
8
0
62
255
10
-14.845632
20
99.577401
30
0
70
32
0
VERTEX
8
0
62
255
10
-14.815931
20
99.48697
30
0
70
32
0
VERTEX
8
0
62
255
10
-14.780555
20
99.398604
30
0
70
32
0
VERTEX
8
0
62
255
10
-14.739645
20
99.31266
30
0
70
32
0
VERTEX
8
0
62
255
10
-14.693367
20
99.229484
30
0
70
32
0
VERTEX
8
0
62
255
10
-14.641907
20
99.14941
30
0
70
32
0
VERTEX
8
0
62
255
10
-14.585472
20
99.072762
30
0
70
32
0
VERTEX
8
0
62
255
10
-14.524289
20
98.999846
30
0
70
32
0
VERTEX
8
0
62
255
10
-14.458604
20
98.930959
30
0
70
32
0
VERTEX
8
0
62
255
10
-14.388683
20
98.866376
30
0
70
32
0
VERTEX
8
0
62
255
10
-14.314807
20
98.806357
30
0
70
32
0
VERTEX
8
0
62
255
10
-14.237272
20
98.751145
30
0
70
32
0
VERTEX
8
0
62
255
10
-14.156392
20
98.700962
30
0
70
32
0
VERTEX
8
0
62
255
10
-14.072492
20
98.656009
30
0
70
32
0
VERTEX
8
0
62
255
10
-13.98591
20
98.616469
30
0
70
32
0
VERTEX
8
0
62
255
10
-13.896994
20
98.582499
30
0
70
32
0
VERTEX
8
0
62
255
10
-13.806103
20
98.554237
30
0
70
32
0
VERTEX
8
0
62
255
10
-13.713602
20
98.531796
30
0
70
32
0
VERTEX
8
0
62
255
10
-13.619864
20
98.515268
30
0
70
32
0
VERTEX
8
0
62
255
10
-13.525267
20
98.504718
30
0
70
32
0
VERTEX
8
0
62
255
10
-13.430191
20
98.500189
30
0
70
32
0
VERTEX
8
0
62
255
10
-13.335019
20
98.501699
30
0
70
32
0
VERTEX
8
0
62
255
10
-13.240135
20
98.509242
30
0
70
32
0
VERTEX
8
0
62
255
10
-13.14592
20
98.522788
30
0
70
32
0
VERTEX
8
0
62
255
10
-13.052754
20
98.542283
30
0
70
32
0
VERTEX
8
0
62
255
10
-12.961012
20
98.567647
30
0
70
32
0
VERTEX
8
0
62
255
10
-12.871063
20
98.598778
30
0
70
32
0
VERTEX
8
0
62
255
10
-12.78327
20
98.635552
30
0
70
32
0
VERTEX
8
0
62
255
10
-12.697986
20
98.67782
30
0
70
32
0
VERTEX
8
0
62
255
10
-12.615554
20
98.725412
30
0
70
32
0
VERTEX
8
0
62
255
10
-12.536307
20
98.778136
30
0
70
32
0
VERTEX
8
0
62
255
10
-12.460563
20
98.83578
30
0
70
32
0
VERTEX
8
0
62
255
10
-12.388628
20
98.898112
30
0
70
32
0
VERTEX
8
0
62
255
10
-12.320791
20
98.964881
30
0
70
32
0
VERTEX
8
0
62
255
10
-12.257325
20
99.035819
30
0
70
32
0
VERTEX
8
0
62
255
10
-12.198487
20
99.110638
30
0
70
32
0
VERTEX
8
0
62
255
10
-12.144512
20
99.189039
30
0
70
32
0
VERTEX
8
0
62
255
10
-12.095618
20
99.270705
30
0
70
32
0
VERTEX
8
0
62
255
10
-12.052002
20
99.355308
30
0
70
32
0
VERTEX
8
0
62
255
10
-12.01384
20
99.442506
30
0
70
32
0
VERTEX
8
0
62
255
10
-11.981285
20
99.53195
30
0
70
32
0
VERTEX
8
0
62
255
10
-11.954469
20
99.623278
30
0
70
32
0
VERTEX
8
0
62
255
10
-11.933499
20
99.716123
30
0
70
32
0
VERTEX
8
0
62
255
10
-11.91846
20
99.810111
30
0
70
32
0
VERTEX
8
0
62
255
10
-11.909412
20
99.904864
30
0
70
32
0
VERTEX
8
0
62
255
10
-11.906392
20
100
30
0
70
32
0
SEQEND
8
0
0
POLYLINE
8
0
62
255
66
1
10
0
20
0
30
0
70
8
0
VERTEX
8
0
62
255
10
38.093608
20
100
30
0
70
32
0
VERTEX
8
0
62
255
10
38.090588
20
100.09514
30
0
70
32
0
VERTEX
8
0
62
255
10
38.08154
20
100.18989
30
0
70
32
0
VERTEX
8
0
62
255
10
38.066501
20
100.28388
30
0
70
32
0
VERTEX
8
0
62
255
10
38.045531
20
100.37672
30
0
70
32
0
VERTEX
8
0
62
255
10
38.018715
20
100.46805
30
0
70
32
0
VERTEX
8
0
62
255
10
37.98616
20
100.55749
30
0
70
32
0
VERTEX
8
0
62
255
10
37.947998
20
100.64469
30
0
70
32
0
VERTEX
8
0
62
255
10
37.904382
20
100.7293
30
0
70
32
0
VERTEX
8
0
62
255
10
37.855488
20
100.81096
30
0
70
32
0
VERTEX
8
0
62
255
10
37.801513
20
100.88936
30
0
70
32
0
VERTEX
8
0
62
255
10
37.742675
20
100.96418
30
0
70
32
0
VERTEX
8
0
62
255
10
37.679209
20
101.03512
30
0
70
32
0
VERTEX
8
0
62
255
10
37.611372
20
101.10189
30
0
70
32
0
VERTEX
8
0
62
255
10
37.539437
20
101.16422
30
0
70
32
0
VERTEX
8
0
62
255
10
37.463693
20
101.22186
30
0
70
32
0
VERTEX
8
0
62
255
10
37.384446
20
101.27459
30
0
70
32
0
VERTEX
8
0
62
255
10
37.302014
20
101.32218
30
0
70
32
0
VERTEX
8
0
62
255
10
37.21673
20
101.36445
30
0
70
32
0
VERTEX
8
0
62
255
10
37.128937
20
101.40122
30
0
70
32
0
VERTEX
8
0
62
255
10
37.038988
20
101.43235
30
0
70
32
0
VERTEX
8
0
62
255
10
36.947246
20
101.45772
30
0
70
32
0
VERTEX
8
0
62
255
10
36.85408
20
101.47721
30
0
70
32
0
VERTEX
8
0
62
255
10
36.759865
20
101.49076
30
0
70
32
0
VERTEX
8
0
62
255
10
36.664981
20
101.4983
30
0
70
32
0
VERTEX
8
0
62
255
10
36.569809
20
101.49981
30
0
70
32
0
VERTEX
8
0
62
255
10
36.474733
20
101.49528
30
0
70
32
0
VERTEX
8
0
62
255
10
36.380136
20
101.48473
30
0
70
32
0
VERTEX
8
0
62
255
10
36.286398
20
101.4682
30
0
70
32
0
VERTEX
8
0
62
255
10
36.193897
20
101.44576
30
0
70
32
0
VERTEX
8
0
62
255
10
36.103006
20
101.4175
30
0
70
32
0
VERTEX
8
0
62
255
10
36.01409
20
101.38353
30
0
70
32
0
VERTEX
8
0
62
255
10
35.927508
20
101.34399
30
0
70
32
0
VERTEX
8
0
62
255
10
35.843608
20
101.29904
30
0
70
32
0
VERTEX
8
0
62
255
10
35.762728
20
101.24885
30
0
70
32
0
VERTEX
8
0
62
255
10
35.685193
20
101.19364
30
0
70
32
0
VERTEX
8
0
62
255
10
35.611317
20
101.13362
30
0
70
32
0
VERTEX
8
0
62
255
10
35.541396
20
101.06904
30
0
70
32
0
VERTEX
8
0
62
255
10
35.475711
20
101.00015
30
0
70
32
0
VERTEX
8
0
62
255
10
35.414528
20
100.92724
30
0
70
32
0
VERTEX
8
0
62
255
10
35.358093
20
100.85059
30
0
70
32
0
VERTEX
8
0
62
255
10
35.306633
20
100.77052
30
0
70
32
0
VERTEX
8
0
62
255
10
35.260355
20
100.68734
30
0
70
32
0
VERTEX
8
0
62
255
10
35.219445
20
100.6014
30
0
70
32
0
VERTEX
8
0
62
255
10
35.184069
20
100.51303
30
0
70
32
0
VERTEX
8
0
62
255
10
35.154368
20
100.4226
30
0
70
32
0
VERTEX
8
0
62
255
10
35.130463
20
100.33047
30
0
70
32
0
VERTEX
8
0
62
255
10
35.11245
20
100.237
30
0
70
32
0
VERTEX
8
0
62
255
10
35.1004
20
100.14258
30
0
70
32
0
VERTEX
8
0
62
255
10
35.094363
20
100.04759
30
0
70
32
0
VERTEX
8
0
62
255
10
35.094363
20
99.952408
30
0
70
32
0
VERTEX
8
0
62
255
10
35.1004
20
99.857416
30
0
70
32
0
VERTEX
8
0
62
255
10
35.11245
20
99.762998
30
0
70
32
0
VERTEX
8
0
62
255
10
35.130463
20
99.669534
30
0
70
32
0
VERTEX
8
0
62
255
10
35.154368
20
99.577401
30
0
70
32
0
VERTEX
8
0
62
255
10
35.184069
20
99.48697
30
0
70
32
0
VERTEX
8
0
62
255
10
35.219445
20
99.398604
30
0
70
32
0
VERTEX
8
0
62
255
10
35.260355
20
99.31266
30
0
70
32
0
VERTEX
8
0
62
255
10
35.306633
20
99.229484
30
0
70
32
0
VERTEX
8
0
62
255
10
35.358093
20
99.14941
30
0
70
32
0
VERTEX
8
0
62
255
10
35.414528
20
99.072762
30
0
70
32
0
VERTEX
8
0
62
255
10
35.475711
20
98.999846
30
0
70
32
0
VERTEX
8
0
62
255
10
35.541396
20
98.930959
30
0
70
32
0
VERTEX
8
0
62
255
10
35.611317
20
98.866376
30
0
70
32
0
VERTEX
8
0
62
255
10
35.685193
20
98.806357
30
0
70
32
0
VERTEX
8
0
62
255
10
35.762728
20
98.751145
30
0
70
32
0
VERTEX
8
0
62
255
10
35.843608
20
98.700962
30
0
70
32
0
VERTEX
8
0
62
255
10
35.927508
20
98.656009
30
0
70
32
0
VERTEX
8
0
62
255
10
36.01409
20
98.616469
30
0
70
32
0
VERTEX
8
0
62
255
10
36.103006
20
98.582499
30
0
70
32
0
VERTEX
8
0
62
255
10
36.193897
20
98.554237
30
0
70
32
0
VERTEX
8
0
62
255
10
36.286398
20
98.531796
30
0
70
32
0
VERTEX
8
0
62
255
10
36.380136
20
98.515268
30
0
70
32
0
VERTEX
8
0
62
255
10
36.474733
20
98.504718
30
0
70
32
0
VERTEX
8
0
62
255
10
36.569809
20
98.500189
30
0
70
32
0
VERTEX
8
0
62
255
10
36.664981
20
98.501699
30
0
70
32
0
VERTEX
8
0
62
255
10
36.759865
20
98.509242
30
0
70
32
0
VERTEX
8
0
62
255
10
36.85408
20
98.522788
30
0
70
32
0
VERTEX
8
0
62
255
10
36.947246
20
98.542283
30
0
70
32
0
VERTEX
8
0
62
255
10
37.038988
20
98.567647
30
0
70
32
0
VERTEX
8
0
62
255
10
37.128937
20
98.598778
30
0
70
32
0
VERTEX
8
0
62
255
10
37.21673
20
98.635552
30
0
70
32
0
VERTEX
8
0
62
255
10
37.302014
20
98.67782
30
0
70
32
0
VERTEX
8
0
62
255
10
37.384446
20
98.725412
30
0
70
32
0
VERTEX
8
0
62
255
10
37.463693
20
98.778136
30
0
70
32
0
VERTEX
8
0
62
255
10
37.539437
20
98.83578
30
0
70
32
0
VERTEX
8
0
62
255
10
37.611372
20
98.898112
30
0
70
32
0
VERTEX
8
0
62
255
10
37.679209
20
98.964881
30
0
70
32
0
VERTEX
8
0
62
255
10
37.742675
20
99.035819
30
0
70
32
0
VERTEX
8
0
62
255
10
37.801513
20
99.110638
30
0
70
32
0
VERTEX
8
0
62
255
10
37.855488
20
99.189039
30
0
70
32
0
VERTEX
8
0
62
255
10
37.904382
20
99.270705
30
0
70
32
0
VERTEX
8
0
62
255
10
37.947998
20
99.355308
30
0
70
32
0
VERTEX
8
0
62
255
10
37.98616
20
99.442506
30
0
70
32
0
VERTEX
8
0
62
255
10
38.018715
20
99.53195
30
0
70
32
0
VERTEX
8
0
62
255
10
38.045531
20
99.623278
30
0
70
32
0
VERTEX
8
0
62
255
10
38.066501
20
99.716123
30
0
70
32
0
VERTEX
8
0
62
255
10
38.08154
20
99.810111
30
0
70
32
0
VERTEX
8
0
62
255
10
38.090588
20
99.904864
30
0
70
32
0
VERTEX
8
0
62
255
10
38.093608
20
100
30
0
70
32
0
SEQEND
8
0
0
POLYLINE
8
0
62
255
66
1
10
0
20
0
30
0
70
8
0
VERTEX
8
0
62
255
10
17.985499
20
59.4
30
0
70
32
0
VERTEX
8
0
62
255
10
17.97263
20
59.805399
30
0
70
32
0
VERTEX
8
0
62
255
10
17.934075
20
60.209165
30
0
70
32
0
VERTEX
8
0
62
255
10
17.869989
20
60.609673
30
0
70
32
0
VERTEX
8
0
62
255
10
17.78063
20
61.005311
30
0
70
32
0
VERTEX
8
0
62
255
10
17.666359
20
61.394484
30
0
70
32
0
VERTEX
8
0
62
255
10
17.527635
20
61.775626
30
0
70
32
0
VERTEX
8
0
62
255
10
17.365016
20
62.147202
30
0
70
32
0
VERTEX
8
0
62
255
10
17.179158
20
62.507717
30
0
70
32
0
VERTEX
8
0
62
255
10
16.970809
20
62.855717
30
0
70
32
0
VERTEX
8
0
62
255
10
16.740808
20
63.189803
30
0
70
32
0
VERTEX
8
0
62
255
10
16.49008
20
63.508628
30
0
70
32
0
VERTEX
8
0
62
255
10
16.219637
20
63.81091
30
0
70
32
0
VERTEX
8
0
62
255
10
15.930566
20
64.09543
30
0
70
32
0
VERTEX
8
0
62
255
10
15.624032
20
64.361044
30
0
70
32
0
VERTEX
8
0
62
255
10
15.301268
20
64.606681
30
0
70
32
0
VERTEX
8
0
62
255
10
14.963576
20
64.831352
30
0
70
32
0
VERTEX
8
0
62
255
10
14.612313
20
65.034154
30
0
70
32
0
VERTEX
8
0
62
255
10
14.248895
20
65.214269
30
0
70
32
0
VERTEX
8
0
62
255
10
13.874786
20
65.370971
30
0
70
32
0
VERTEX
8
0
62
255
10
13.491491
20
65.503631
30
0
70
32
0
VERTEX
8
0
62
255
10
13.100553
20
65.611714
30
0
70
32
0
VERTEX
8
0
62
255
10
12.703548
20
65.694784
30
0
70
32
0
VERTEX
8
0
62
255
10
12.302074
20
65.752507
30
0
70
32
0
VERTEX
8
0
62
255
10
11.897746
20
65.784651
30
0
70
32
0
VERTEX
8
0
62
255
10
11.492194
20
65.791086
30
0
70
32
0
VERTEX
8
0
62
255
10
11.087051
20
65.771787
30
0
70
32
0
VERTEX
8
0
62
255
10
10.683947
20
65.726831
30
0
70
32
0
VERTEX
8
0
62
255
10
10.284506
20
65.656399
30
0
70
32
0
VERTEX
8
0
62
255
10
9.8903363
20
65.560774
30
0
70
32
0
VERTEX
8
0
62
255
10
9.5030251
20
65.440342
30
0
70
32
0
VERTEX
8
0
62
255
10
9.1241319
20
65.295588
30
0
70
32
0
VERTEX
8
0
62
255
10
8.7551825
20
65.127095
30
0
70
32
0
VERTEX
8
0
62
255
10
8.3976624
20
64.93554
30
0
70
32
0
VERTEX
8
0
62
255
10
8.0530112
20
64.721696
30
0
70
32
0
VERTEX
8
0
62
255
10
7.7226167
20
64.486423
30
0
70
32
0
VERTEX
8
0
62
255
10
7.4078094
20
64.230669
30
0
70
32
0
VERTEX
8
0
62
255
10
7.1098568
20
63.955463
30
0
70
32
0
VERTEX
8
0
62
255
10
6.8299587
20
63.661915
30
0
70
32
0
VERTEX
8
0
62
255
10
6.5692422
20
63.351205
30
0
70
32
0
VERTEX
8
0
62
255
10
6.3287569
20
63.024585
30
0
70
32
0
VERTEX
8
0
62
255
10
6.1094714
20
62.68337
30
0
70
32
0
VERTEX
8
0
62
255
10
5.9122685
20
62.328934
30
0
70
32
0
VERTEX
8
0
62
255
10
5.7379424
20
61.962704
30
0
70
32
0
VERTEX
8
0
62
255
10
5.587195
20
61.586155
30
0
70
32
0
VERTEX
8
0
62
255
10
5.4606333
20
61.200804
30
0
70
32
0
VERTEX
8
0
62
255
10
5.358767
20
60.808201
30
0
70
32
0
VERTEX
8
0
62
255
10
5.2820061
20
60.409928
30
0
70
32
0
VERTEX
8
0
62
255
10
5.2306598
20
60.007588
30
0
70
32
0
VERTEX
8
0
62
255
10
5.2049349
20
59.602801
30
0
70
32
0
VERTEX
8
0
62
255
10
5.2049349
20
59.197199
30
0
70
32
0
VERTEX
8
0
62
255
10
5.2306598
20
58.792412
30
0
70
32
0
VERTEX
8
0
62
255
10
5.2820061
20
58.390072
30
0
70
32
0
VERTEX
8
0
62
255
10
5.358767
20
57.991799
30
0
70
32
0
VERTEX
8
0
62
255
10
5.4606333
20
57.599196
30
0
70
32
0
VERTEX
8
0
62
255
10
5.587195
20
57.213845
30
0
70
32
0
VERTEX
8
0
62
255
10
5.7379424
20
56.837296
30
0
70
32
0
VERTEX
8
0
62
255
10
5.9122685
20
56.471066
30
0
70
32
0
VERTEX
8
0
62
255
10
6.1094714
20
56.11663
30
0
70
32
0
VERTEX
8
0
62
255
10
6.3287569
20
55.775415
30
0
70
32
0
VERTEX
8
0
62
255
10
6.5692422
20
55.448795
30
0
70
32
0
VERTEX
8
0
62
255
10
6.8299587
20
55.138085
30
0
70
32
0
VERTEX
8
0
62
255
10
7.1098568
20
54.844537
30
0
70
32
0
VERTEX
8
0
62
255
10
7.4078094
20
54.569331
30
0
70
32
0
VERTEX
8
0
62
255
10
7.7226167
20
54.313577
30
0
70
32
0
VERTEX
8
0
62
255
10
8.0530112
20
54.078304
30
0
70
32
0
VERTEX
8
0
62
255
10
8.3976624
20
53.86446
30
0
70
32
0
VERTEX
8
0
62
255
10
8.7551825
20
53.672905
30
0
70
32
0
VERTEX
8
0
62
255
10
9.1241319
20
53.504412
30
0
70
32
0
VERTEX
8
0
62
255
10
9.5030251
20
53.359658
30
0
70
32
0
VERTEX
8
0
62
255
10
9.8903363
20
53.239226
30
0
70
32
0
VERTEX
8
0
62
255
10
10.284506
20
53.143601
30
0
70
32
0
VERTEX
8
0
62
255
10
10.683947
20
53.073169
30
0
70
32
0
VERTEX
8
0
62
255
10
11.087051
20
53.028213
30
0
70
32
0
VERTEX
8
0
62
255
10
11.492194
20
53.008914
30
0
70
32
0
VERTEX
8
0
62
255
10
11.897746
20
53.015349
30
0
70
32
0
VERTEX
8
0
62
255
10
12.302074
20
53.047493
30
0
70
32
0
VERTEX
8
0
62
255
10
12.703548
20
53.105216
30
0
70
32
0
VERTEX
8
0
62
255
10
13.100553
20
53.188286
30
0
70
32
0
VERTEX
8
0
62
255
10
13.491491
20
53.296369
30
0
70
32
0
VERTEX
8
0
62
255
10
13.874786
20
53.429029
30
0
70
32
0
VERTEX
8
0
62
255
10
14.248895
20
53.585731
30
0
70
32
0
VERTEX
8
0
62
255
10
14.612313
20
53.765846
30
0
70
32
0
VERTEX
8
0
62
255
10
14.963576
20
53.968648
30
0
70
32
0
VERTEX
8
0
62
255
10
15.301268
20
54.193319
30
0
70
32
0
VERTEX
8
0
62
255
10
15.624032
20
54.438956
30
0
70
32
0
VERTEX
8
0
62
255
10
15.930566
20
54.70457
30
0
70
32
0
VERTEX
8
0
62
255
10
16.219637
20
54.98909
30
0
70
32
0
VERTEX
8
0
62
255
10
16.49008
20
55.291372
30
0
70
32
0
VERTEX
8
0
62
255
10
16.740808
20
55.610197
30
0
70
32
0
VERTEX
8
0
62
255
10
16.970809
20
55.944283
30
0
70
32
0
VERTEX
8
0
62
255
10
17.179158
20
56.292283
30
0
70
32
0
VERTEX
8
0
62
255
10
17.365016
20
56.652798
30
0
70
32
0
VERTEX
8
0
62
255
10
17.527635
20
57.024374
30
0
70
32
0
VERTEX
8
0
62
255
10
17.666359
20
57.405516
30
0
70
32
0
VERTEX
8
0
62
255
10
17.78063
20
57.794689
30
0
70
32
0
VERTEX
8
0
62
255
10
17.869989
20
58.190327
30
0
70
32
0
VERTEX
8
0
62
255
10
17.934075
20
58.590835
30
0
70
32
0
VERTEX
8
0
62
255
10
17.97263
20
58.994601
30
0
70
32
0
VERTEX
8
0
62
255
10
17.985499
20
59.4
30
0
70
32
0
SEQEND
8
0
0
POLYLINE
8
0
62
255
66
1
10
0
20
0
30
0
70
8
0
VERTEX
8
0
62
255
10
17.985499
20
59.4
30
0
70
32
0
VERTEX
8
0
62
255
10
17.97263
20
59.805399
30
0
70
32
0
VERTEX
8
0
62
255
10
17.934075
20
60.209165
30
0
70
32
0
VERTEX
8
0
62
255
10
17.869989
20
60.609673
30
0
70
32
0
VERTEX
8
0
62
255
10
17.78063
20
61.005311
30
0
70
32
0
VERTEX
8
0
62
255
10
17.666359
20
61.394484
30
0
70
32
0
VERTEX
8
0
62
255
10
17.527635
20
61.775626
30
0
70
32
0
VERTEX
8
0
62
255
10
17.365016
20
62.147202
30
0
70
32
0
VERTEX
8
0
62
255
10
17.179158
20
62.507717
30
0
70
32
0
VERTEX
8
0
62
255
10
16.970809
20
62.855717
30
0
70
32
0
VERTEX
8
0
62
255
10
16.740808
20
63.189803
30
0
70
32
0
VERTEX
8
0
62
255
10
16.49008
20
63.508628
30
0
70
32
0
VERTEX
8
0
62
255
10
16.219637
20
63.81091
30
0
70
32
0
VERTEX
8
0
62
255
10
15.930566
20
64.09543
30
0
70
32
0
VERTEX
8
0
62
255
10
15.624032
20
64.361044
30
0
70
32
0
VERTEX
8
0
62
255
10
15.301268
20
64.606681
30
0
70
32
0
VERTEX
8
0
62
255
10
14.963576
20
64.831352
30
0
70
32
0
VERTEX
8
0
62
255
10
14.612313
20
65.034154
30
0
70
32
0
VERTEX
8
0
62
255
10
14.248895
20
65.214269
30
0
70
32
0
VERTEX
8
0
62
255
10
13.874786
20
65.370971
30
0
70
32
0
VERTEX
8
0
62
255
10
13.491491
20
65.503631
30
0
70
32
0
VERTEX
8
0
62
255
10
13.100553
20
65.611714
30
0
70
32
0
VERTEX
8
0
62
255
10
12.703548
20
65.694784
30
0
70
32
0
VERTEX
8
0
62
255
10
12.302074
20
65.752507
30
0
70
32
0
VERTEX
8
0
62
255
10
11.897746
20
65.784651
30
0
70
32
0
VERTEX
8
0
62
255
10
11.492194
20
65.791086
30
0
70
32
0
VERTEX
8
0
62
255
10
11.087051
20
65.771787
30
0
70
32
0
VERTEX
8
0
62
255
10
10.683947
20
65.726831
30
0
70
32
0
VERTEX
8
0
62
255
10
10.284506
20
65.656399
30
0
70
32
0
VERTEX
8
0
62
255
10
9.8903363
20
65.560774
30
0
70
32
0
VERTEX
8
0
62
255
10
9.5030251
20
65.440342
30
0
70
32
0
VERTEX
8
0
62
255
10
9.1241319
20
65.295588
30
0
70
32
0
VERTEX
8
0
62
255
10
8.7551825
20
65.127095
30
0
70
32
0
VERTEX
8
0
62
255
10
8.3976624
20
64.93554
30
0
70
32
0
VERTEX
8
0
62
255
10
8.0530112
20
64.721696
30
0
70
32
0
VERTEX
8
0
62
255
10
7.7226167
20
64.486423
30
0
70
32
0
VERTEX
8
0
62
255
10
7.4078094
20
64.230669
30
0
70
32
0
VERTEX
8
0
62
255
10
7.1098568
20
63.955463
30
0
70
32
0
VERTEX
8
0
62
255
10
6.8299587
20
63.661915
30
0
70
32
0
VERTEX
8
0
62
255
10
6.5692422
20
63.351205
30
0
70
32
0
VERTEX
8
0
62
255
10
6.3287569
20
63.024585
30
0
70
32
0
VERTEX
8
0
62
255
10
6.1094714
20
62.68337
30
0
70
32
0
VERTEX
8
0
62
255
10
5.9122685
20
62.328934
30
0
70
32
0
VERTEX
8
0
62
255
10
5.7379424
20
61.962704
30
0
70
32
0
VERTEX
8
0
62
255
10
5.587195
20
61.586155
30
0
70
32
0
VERTEX
8
0
62
255
10
5.4606333
20
61.200804
30
0
70
32
0
VERTEX
8
0
62
255
10
5.358767
20
60.808201
30
0
70
32
0
VERTEX
8
0
62
255
10
5.2820061
20
60.409928
30
0
70
32
0
VERTEX
8
0
62
255
10
5.2306598
20
60.007588
30
0
70
32
0
VERTEX
8
0
62
255
10
5.2049349
20
59.602801
30
0
70
32
0
VERTEX
8
0
62
255
10
5.2049349
20
59.197199
30
0
70
32
0
VERTEX
8
0
62
255
10
5.2306598
20
58.792412
30
0
70
32
0
VERTEX
8
0
62
255
10
5.2820061
20
58.390072
30
0
70
32
0
VERTEX
8
0
62
255
10
5.358767
20
57.991799
30
0
70
32
0
VERTEX
8
0
62
255
10
5.4606333
20
57.599196
30
0
70
32
0
VERTEX
8
0
62
255
10
5.587195
20
57.213845
30
0
70
32
0
VERTEX
8
0
62
255
10
5.7379424
20
56.837296
30
0
70
32
0
VERTEX
8
0
62
255
10
5.9122685
20
56.471066
30
0
70
32
0
VERTEX
8
0
62
255
10
6.1094714
20
56.11663
30
0
70
32
0
VERTEX
8
0
62
255
10
6.3287569
20
55.775415
30
0
70
32
0
VERTEX
8
0
62
255
10
6.5692422
20
55.448795
30
0
70
32
0
VERTEX
8
0
62
255
10
6.8299587
20
55.138085
30
0
70
32
0
VERTEX
8
0
62
255
10
7.1098568
20
54.844537
30
0
70
32
0
VERTEX
8
0
62
255
10
7.4078094
20
54.569331
30
0
70
32
0
VERTEX
8
0
62
255
10
7.7226167
20
54.313577
30
0
70
32
0
VERTEX
8
0
62
255
10
8.0530112
20
54.078304
30
0
70
32
0
VERTEX
8
0
62
255
10
8.3976624
20
53.86446
30
0
70
32
0
VERTEX
8
0
62
255
10
8.7551825
20
53.672905
30
0
70
32
0
VERTEX
8
0
62
255
10
9.1241319
20
53.504412
30
0
70
32
0
VERTEX
8
0
62
255
10
9.5030251
20
53.359658
30
0
70
32
0
VERTEX
8
0
62
255
10
9.8903363
20
53.239226
30
0
70
32
0
VERTEX
8
0
62
255
10
10.284506
20
53.143601
30
0
70
32
0
VERTEX
8
0
62
255
10
10.683947
20
53.073169
30
0
70
32
0
VERTEX
8
0
62
255
10
11.087051
20
53.028213
30
0
70
32
0
VERTEX
8
0
62
255
10
11.492194
20
53.008914
30
0
70
32
0
VERTEX
8
0
62
255
10
11.897746
20
53.015349
30
0
70
32
0
VERTEX
8
0
62
255
10
12.302074
20
53.047493
30
0
70
32
0
VERTEX
8
0
62
255
10
12.703548
20
53.105216
30
0
70
32
0
VERTEX
8
0
62
255
10
13.100553
20
53.188286
30
0
70
32
0
VERTEX
8
0
62
255
10
13.491491
20
53.296369
30
0
70
32
0
VERTEX
8
0
62
255
10
13.874786
20
53.429029
30
0
70
32
0
VERTEX
8
0
62
255
10
14.248895
20
53.585731
30
0
70
32
0
VERTEX
8
0
62
255
10
14.612313
20
53.765846
30
0
70
32
0
VERTEX
8
0
62
255
10
14.963576
20
53.968648
30
0
70
32
0
VERTEX
8
0
62
255
10
15.301268
20
54.193319
30
0
70
32
0
VERTEX
8
0
62
255
10
15.624032
20
54.438956
30
0
70
32
0
VERTEX
8
0
62
255
10
15.930566
20
54.70457
30
0
70
32
0
VERTEX
8
0
62
255
10
16.219637
20
54.98909
30
0
70
32
0
VERTEX
8
0
62
255
10
16.49008
20
55.291372
30
0
70
32
0
VERTEX
8
0
62
255
10
16.740808
20
55.610197
30
0
70
32
0
VERTEX
8
0
62
255
10
16.970809
20
55.944283
30
0
70
32
0
VERTEX
8
0
62
255
10
17.179158
20
56.292283
30
0
70
32
0
VERTEX
8
0
62
255
10
17.365016
20
56.652798
30
0
70
32
0
VERTEX
8
0
62
255
10
17.527635
20
57.024374
30
0
70
32
0
VERTEX
8
0
62
255
10
17.666359
20
57.405516
30
0
70
32
0
VERTEX
8
0
62
255
10
17.78063
20
57.794689
30
0
70
32
0
VERTEX
8
0
62
255
10
17.869989
20
58.190327
30
0
70
32
0
VERTEX
8
0
62
255
10
17.934075
20
58.590835
30
0
70
32
0
VERTEX
8
0
62
255
10
17.97263
20
58.994601
30
0
70
32
0
VERTEX
8
0
62
255
10
17.985499
20
59.4
30
0
70
32
0
SEQEND
8
0
0
ENDSEC
0
EOF
